<svg xmlns="http://www.w3.org/2000/svg" width="150.573" height="50.142" viewBox="0 0 150.573 50.142">
  <defs>
    <style>
      .cls-1 {
        fill: #003b7c;
      }

      .cls-2 {
        fill: #1c1406;
      }

      .cls-3 {
        fill: #d80028;
      }
    </style>
  </defs>
  <g id="그룹_6998" data-name="그룹 6998" transform="translate(-155.59 -81.493)">
    <path id="패스_9618" data-name="패스 9618" class="cls-1" d="M164.672,81.5v5h-6.179v-5h-2.9V94.294h2.9v-5.3h6.179v5.3h2.9V81.5Z" transform="translate(0 -0.004)"/>
    <path id="패스_9619" data-name="패스 9619" class="cls-1" d="M386.69,84h5.421V87.71h-6.16V84.73a1.058,1.058,0,0,1,.109-.571c.139-.168.356-.152.63-.161M383.7,82.229a2.823,2.823,0,0,0-.649,1.992v10.07h2.9V90.209h6.16v4.083h2.908V81.5h-9.047a3.073,3.073,0,0,0-2.269.73" transform="translate(-156.014 -0.004)"/>
    <path id="패스_9620" data-name="패스 9620" class="cls-1" d="M299.989,81.5h-9.061V94.292h2.9V84h5.444c.268.009.489-.007.624.161a.95.95,0,0,1,.111.571v9.561h2.9V84.223a2.794,2.794,0,0,0-.646-1.992,3.059,3.059,0,0,0-2.275-.732" transform="translate(-92.827 -0.004)"/>
    <path id="패스_9621" data-name="패스 9621" class="cls-1" d="M253.694,91.061a.939.939,0,0,1-.111.567c-.136.171-.358.155-.627.162h-5.44V81.5h-2.9V94.292h9.06a3.054,3.054,0,0,0,2.27-.735,2.793,2.793,0,0,0,.65-1.989V81.5h-2.9Z" transform="translate(-61.061 -0.004)"/>
    <path id="패스_9622" data-name="패스 9622" class="cls-1" d="M346.352,91.056a.992.992,0,0,1-.11.567c-.138.168-.359.155-.631.159h-5.445V83.994h5.445c.272.011.493-.007.631.161a1.01,1.01,0,0,1,.11.571Zm2.889-6.839a2.788,2.788,0,0,0-.642-1.992,3.078,3.078,0,0,0-2.268-.732h-9.064V94.287h9.064a3.06,3.06,0,0,0,2.268-.732,2.783,2.783,0,0,0,.642-1.992Z" transform="translate(-124.61 0)"/>
    <path id="패스_9623" data-name="패스 9623" class="cls-1" d="M203.976,87.091l-3.52-5.6h-3.444l5.411,8.068v4.727h3.1V89.56l5.418-8.068h-3.45Z" transform="translate(-28.412)"/>
    <rect id="사각형_2352" data-name="사각형 2352" class="cls-1" width="3.093" height="12.793" transform="translate(241.913 81.495)"/>
    <path id="패스_9624" data-name="패스 9624" class="cls-2" d="M238.727,171.687v-.35s2.063-1.07,2.063-5.558V146.563s.3-2.714-1.983-3.592v-.387h8.834a2.283,2.283,0,0,0,.224,1.207c.313.71,8.758,19.854,8.758,19.854l7.6-18.791a7.016,7.016,0,0,0,.443-2.27h8.153v.4s-1.407.1-1.407,2.655v21.3a4.778,4.778,0,0,0,2.313,4.382v.368H265.07v-.4s1.855-.182,1.855-3.022V147.842l-9.906,24.5s-2.111-.669-4.287-5.664-8.211-18.854-8.211-18.854v18.858s-.427,3.946,1.9,4.618v.384Z" transform="translate(-57.023 -41.902)"/>
    <path id="패스_9625" data-name="패스 9625" class="cls-2" d="M472.448,154.735c.353,0,4.247-2.022,4.247-5.658,0-6.674-9.284-6.495-9.284-6.495H456.182v.385c2.234.891,2,3.963,2,3.963v19.795c0,4.432-2,4.569-2,4.569v.391H466.1c8.605,0,13.432-3.7,13.432-9.561S472.448,154.735,472.448,154.735Zm-9.342-8.842,3.334-.319s4.994-.064,4.994,4.213-6.683,4.546-8.329,4.39Zm4.222,22.366c-2.15-.184-4.222-.365-4.222-.365V157.367s2.194-.111,4.009-.146,7.09.865,7.09,5.691S469.478,168.444,467.328,168.26Z" transform="translate(-206.172 -41.901)"/>
    <path id="패스_9626" data-name="패스 9626" class="cls-2" d="M533.678,171.687V171.3s2.007.03,2.007-4.7V146.87s.289-2.9-2.007-3.9v-.387H542.6v.425s-2,.394-2,4.035v19.6s-.308,3.946,1.89,4.617v.427Z" transform="translate(-259.326 -41.902)"/>
    <path id="패스_9627" data-name="패스 9627" class="cls-2" d="M566.527,169.53,565,163.494s4.3,3.892,9.586,3.892,6.9-2.5,6.9-4.662-2.948-3.978-4.42-4.651-11.139-3.74-11.139-9.711,6.19-8.011,10.872-8.011a24.907,24.907,0,0,1,7.548,1V146.8a9.828,9.828,0,0,0-6.119-2.917c-4.03-.452-6.828,1.293-6.828,3.759s3.345,4.14,5.566,5.127,10,3.624,10,8.612-4.707,9.107-11.428,9.476S566.527,169.53,566.527,169.53Z" transform="translate(-280.812 -40.37)"/>
    <path id="패스_9628" data-name="패스 9628" class="cls-3" d="M370.657,169.209c-8.416,0-15.238-6.462-15.238-14.432a14.885,14.885,0,0,1,15.062-14.661,16.314,16.314,0,0,1,10.353,3.941,17.046,17.046,0,0,0-13.679-6.768c-9.328,0-16.891,7.3-16.891,16.308s7.562,16.308,16.891,16.308a17.434,17.434,0,0,0,5.177-.787A16.271,16.271,0,0,1,370.657,169.209Z" transform="translate(-133.524 -38.27)"/>
    <path id="패스_9629" data-name="패스 9629" class="cls-3" d="M388.694,151.788a13.292,13.292,0,0,0-11.564,6.587,11.628,11.628,0,0,1,9.011-4.217,11.124,11.124,0,1,1,0,22.236,11.817,11.817,0,0,1-3.839-.648,13.512,13.512,0,0,0,6.392,1.595,12.784,12.784,0,1,0,0-25.553Z" transform="translate(-151.951 -48.215)"/>
  </g>
</svg>
