<svg xmlns="http://www.w3.org/2000/svg" width="231.481" height="56.304" viewBox="0 0 231.481 56.304">
  <defs>
    <style>
      .cls-1 {
        fill: #008837;
      }

      .cls-1, .cls-2, .cls-3 {
        fill-rule: evenodd;
      }

      .cls-2 {
        fill: red;
      }

      .cls-3 {
        fill: #0a50a1;
      }
    </style>
  </defs>
  <g id="그룹_6890" data-name="그룹 6890" transform="translate(-43.223 -331.373)">
    <g id="그룹_6887" data-name="그룹 6887" transform="translate(43.223 331.373)">
      <path id="패스_8940" data-name="패스 8940" class="cls-1" d="M122.834,334.548a6.175,6.175,0,1,1-6.175-6.175A6.176,6.176,0,0,1,122.834,334.548Z" transform="translate(-79.646 -328.373)"/>
      <path id="패스_8941" data-name="패스 8941" class="cls-2" d="M45.884,359.119s73.173-20.227-2.661,40.455c40.8-41.334,2.661-40.455,2.661-40.455Z" transform="translate(-43.223 -343.27)"/>
      <path id="패스_8942" data-name="패스 8942" class="cls-3" d="M128.244,373.775s-42.574-16.85,18.626-37.7c-39.913,20.4-18.626,37.7-18.626,37.7Z" transform="translate(-81.459 -332.546)"/>
    </g>
    <g id="그룹_6888" data-name="그룹 6888" transform="translate(110.156 341.878)">
      <path id="패스_8943" data-name="패스 8943" d="M215.605,385.154a9.248,9.248,0,0,0-5.629-1.746,9.113,9.113,0,0,0-5.6,1.746,5.793,5.793,0,0,0,0,9.524,9.021,9.021,0,0,0,5.6,1.772,9.155,9.155,0,0,0,5.629-1.772,5.72,5.72,0,0,0,2.581-4.776A5.659,5.659,0,0,0,215.605,385.154Zm-2.348,7.469a5.006,5.006,0,0,1-3.223,1.1,5.081,5.081,0,0,1-3.222-1.1,3.359,3.359,0,0,1-1.436-2.72,3.292,3.292,0,0,1,1.436-2.692,5.157,5.157,0,0,1,3.222-1.078,5.081,5.081,0,0,1,3.223,1.078,3.3,3.3,0,0,1,1.436,2.692A3.364,3.364,0,0,1,213.257,392.623Z" transform="translate(-196.072 -371.68)"/>
      <path id="패스_8944" data-name="패스 8944" d="M203.118,363.3v-1.443H189.592v2.628h9.865a4.262,4.262,0,0,1-2.349,3.71q-2.7,1.676-7.9,1.8v2.809a21.348,21.348,0,0,0,9.131-1.958A7.96,7.96,0,0,0,203.118,363.3Z" transform="translate(-189.211 -360.012)"/>
      <path id="패스_8945" data-name="패스 8945" d="M226.279,363.583h-4.843v2.628h4.843v1.314h-4.843v2.628h4.843v1.726h3.439V361.8h-3.439Z" transform="translate(-206.662 -359.982)"/>
      <path id="패스_8946" data-name="패스 8946" d="M456.3,364.78a5.05,5.05,0,0,0-2.268-4.244,8.092,8.092,0,0,0-4.944-1.558,8.587,8.587,0,0,0-5.16,1.558,5.083,5.083,0,0,0-.388,8.22h-5.893v2.611h4.8v2.8h-3.983v2.611H456.5v4.927h3.158v-7.537H455.69v-2.8h4.772v-2.611h-6.046A5.074,5.074,0,0,0,456.3,364.78Zm-3.716,9.388h-7.03v-2.8h7.03Zm-.784-6.793a4.105,4.105,0,0,1-2.725,1,4.5,4.5,0,0,1-2.914-1,3.042,3.042,0,0,1-1.27-2.426,3.092,3.092,0,0,1,1.27-2.479,4.577,4.577,0,0,1,2.914-.977,4.173,4.173,0,0,1,2.725.977,3.043,3.043,0,0,1,0,4.905Z" transform="translate(-323.744 -358.451)"/>
      <rect id="사각형_2342" data-name="사각형 2342" width="3.316" height="23.718" transform="translate(48.473 0.621)"/>
      <path id="패스_8947" data-name="패스 8947" d="M253.213,364.371H264.52q0,5.308-2.835,8.3-3,3.168-8.9,3.322v2.938a18.6,18.6,0,0,0,10.069-2.937q5.54-3.787,5.54-12.035v-2.262H253.213Z" transform="translate(-223.64 -359.922)"/>
      <path id="패스_8948" data-name="패스 8948" d="M326.655,373.621h8.255v-3.269H319.219s-2.044.327-2.044-2.7v-3.187h17.49l.082-2.86H314.07v7.355s-.083,4.657,4.331,4.657h4.985v6.048H313.252v3.269h22.883v-3.269h-9.48Z" transform="translate(-256.381 -359.875)"/>
      <path id="패스_8949" data-name="패스 8949" d="M396.353,370.009v-8.581H375.936l.017,3.039,17.376-.031v5.328a22.986,22.986,0,0,1-2.54,9.78h-1.736v-7.723h-3.269v7.723h-2.832v-7.723h-3.269v7.723H375.1v3.269h22.884v-3.269H393.8C395.555,376.839,396.353,370.009,396.353,370.009Z" transform="translate(-289.875 -359.777)"/>
      <path id="패스_8950" data-name="패스 8950" d="M538.434,358.008v4.618h-2.557v2.556h2.557v4.287h3.051V358.008Z" transform="translate(-376.937 -357.925)"/>
      <path id="패스_8951" data-name="패스 8951" d="M511.391,369.531l1.814-2.309a11.066,11.066,0,0,1-5.61-4.941h5.445v-2.722h-5.607v-1.73h-3.545v1.73h-6.1v2.722H503.1a13.1,13.1,0,0,1-5.894,5.608l1.814,2.309a15.5,15.5,0,0,0,6.333-5.284A13.211,13.211,0,0,0,511.391,369.531Z" transform="translate(-355.998 -357.828)"/>
      <path id="패스_8952" data-name="패스 8952" d="M527.422,385.531a8.551,8.551,0,0,0-5.325-1.706,8.427,8.427,0,0,0-5.3,1.706,5.764,5.764,0,0,0,0,9.3,8.354,8.354,0,0,0,5.3,1.73,8.477,8.477,0,0,0,5.325-1.73,5.64,5.64,0,0,0,2.441-4.665A5.575,5.575,0,0,0,527.422,385.531Zm-2.221,7.3a4.639,4.639,0,0,1-3.049,1.077,4.713,4.713,0,0,1-3.049-1.077,3.317,3.317,0,0,1-1.359-2.656,3.249,3.249,0,0,1,1.359-2.629,4.784,4.784,0,0,1,3.049-1.054,4.709,4.709,0,0,1,3.049,1.054,3.251,3.251,0,0,1,1.358,2.629A3.319,3.319,0,0,1,525.2,392.826Z" transform="translate(-365.327 -371.906)"/>
    </g>
    <g id="그룹_6889" data-name="그룹 6889" transform="translate(110.524 374.574)">
      <path id="패스_8953" data-name="패스 8953" d="M193.117,433.019v-.727l2.622,0v2.3a4.606,4.606,0,0,1-1.246.724,3.692,3.692,0,0,1-1.317.243,3.513,3.513,0,0,1-1.657-.391,2.583,2.583,0,0,1-1.125-1.13,3.551,3.551,0,0,1-.38-1.651,3.829,3.829,0,0,1,.378-1.687,2.516,2.516,0,0,1,1.088-1.163,3.4,3.4,0,0,1,1.634-.38,3.254,3.254,0,0,1,1.215.217,2.016,2.016,0,0,1,.85.606,2.716,2.716,0,0,1,.469,1.014l-.739.2a2.285,2.285,0,0,0-.347-.743,1.418,1.418,0,0,0-.591-.433,2.166,2.166,0,0,0-.853-.162,2.51,2.51,0,0,0-.971.171,1.807,1.807,0,0,0-.66.45,2.131,2.131,0,0,0-.391.612,3.244,3.244,0,0,0-.237,1.246,3.024,3.024,0,0,0,.285,1.385,1.826,1.826,0,0,0,.83.828,2.567,2.567,0,0,0,1.156.27,2.752,2.752,0,0,0,1.039-.2,2.706,2.706,0,0,0,.769-.437v-1.153Z" transform="translate(-190.014 -429.147)"/>
      <path id="패스_8954" data-name="패스 8954" d="M206.123,435.571v-2.622l-2.385-3.568h1l1.22,1.866q.338.523.629,1.047.279-.486.675-1.093l1.2-1.82h.954l-2.47,3.568v2.622Z" transform="translate(-197.446 -429.271)"/>
      <path id="패스_8955" data-name="패스 8955" d="M217.754,435.571v-6.19h4.476v.73h-3.657v1.9H222v.726h-3.425v2.108h3.8v.73Z" transform="translate(-205.036 -429.271)"/>
      <path id="패스_8956" data-name="패스 8956" d="M229.754,432.427a3.363,3.363,0,0,1,.828-2.413,2.815,2.815,0,0,1,2.137-.872,2.975,2.975,0,0,1,1.546.409,2.683,2.683,0,0,1,1.048,1.142,3.713,3.713,0,0,1,.361,1.662,3.637,3.637,0,0,1-.381,1.685,2.58,2.58,0,0,1-1.076,1.126,3.078,3.078,0,0,1-1.5.382,2.922,2.922,0,0,1-1.561-.423,2.713,2.713,0,0,1-1.044-1.152A3.5,3.5,0,0,1,229.754,432.427Zm.845.012a2.482,2.482,0,0,0,.6,1.763,2.1,2.1,0,0,0,3.032-.006,2.634,2.634,0,0,0,.6-1.845,3.17,3.17,0,0,0-.255-1.319,1.965,1.965,0,0,0-.748-.875,2.021,2.021,0,0,0-1.1-.31,2.094,2.094,0,0,0-1.5.6A2.671,2.671,0,0,0,230.6,432.439Z" transform="translate(-211.534 -429.142)"/>
      <path id="패스_8957" data-name="패스 8957" d="M244.953,435.571v-6.19h.839l3.252,4.86v-4.86h.784v6.19h-.84l-3.251-4.864v4.864Z" transform="translate(-219.764 -429.271)"/>
      <path id="패스_8958" data-name="패스 8958" d="M261.245,433.019v-.727l2.621,0v2.3a4.607,4.607,0,0,1-1.246.724,3.694,3.694,0,0,1-1.317.243,3.51,3.51,0,0,1-1.657-.391,2.576,2.576,0,0,1-1.126-1.13,3.55,3.55,0,0,1-.379-1.651,3.829,3.829,0,0,1,.377-1.687,2.515,2.515,0,0,1,1.087-1.163,3.407,3.407,0,0,1,1.634-.38,3.246,3.246,0,0,1,1.214.217,2.014,2.014,0,0,1,.851.606,2.7,2.7,0,0,1,.469,1.014l-.739.2a2.285,2.285,0,0,0-.347-.743,1.424,1.424,0,0,0-.591-.433,2.163,2.163,0,0,0-.852-.162,2.517,2.517,0,0,0-.972.171,1.807,1.807,0,0,0-.66.45,2.14,2.14,0,0,0-.391.612,3.226,3.226,0,0,0-.236,1.246,3.018,3.018,0,0,0,.285,1.385,1.828,1.828,0,0,0,.829.828,2.572,2.572,0,0,0,1.158.27,2.759,2.759,0,0,0,1.039-.2,2.715,2.715,0,0,0,.768-.437v-1.153Z" transform="translate(-226.906 -429.147)"/>
      <path id="패스_8959" data-name="패스 8959" d="M275.914,433.019v-.727l2.622,0v2.3a4.62,4.62,0,0,1-1.246.724,3.692,3.692,0,0,1-1.316.243,3.517,3.517,0,0,1-1.658-.391,2.578,2.578,0,0,1-1.125-1.13,3.551,3.551,0,0,1-.381-1.651,3.829,3.829,0,0,1,.378-1.687,2.514,2.514,0,0,1,1.087-1.163,3.409,3.409,0,0,1,1.634-.38,3.25,3.25,0,0,1,1.215.217,2.023,2.023,0,0,1,.851.606,2.709,2.709,0,0,1,.469,1.014l-.739.2a2.284,2.284,0,0,0-.346-.743,1.424,1.424,0,0,0-.592-.433,2.164,2.164,0,0,0-.853-.162,2.507,2.507,0,0,0-.971.171,1.823,1.823,0,0,0-.661.45,2.14,2.14,0,0,0-.391.612,3.236,3.236,0,0,0-.237,1.246,3.012,3.012,0,0,0,.286,1.385,1.825,1.825,0,0,0,.829.828,2.569,2.569,0,0,0,1.157.27,2.756,2.756,0,0,0,1.039-.2,2.689,2.689,0,0,0,.767-.437v-1.153Z" transform="translate(-234.85 -429.147)"/>
      <path id="패스_8960" data-name="패스 8960" d="M288.237,435.571v-6.19h.819v6.19Z" transform="translate(-243.204 -429.271)"/>
      <path id="패스_8961" data-name="패스 8961" d="M293.173,435.571v-6.19h2.133a5.214,5.214,0,0,1,1.1.088,2.086,2.086,0,0,1,.907.443,2.516,2.516,0,0,1,.733,1.058,4.155,4.155,0,0,1,.243,1.472,4.344,4.344,0,0,1-.164,1.249,3.069,3.069,0,0,1-.423.9,2.242,2.242,0,0,1-.563.561,2.3,2.3,0,0,1-.738.311,4.244,4.244,0,0,1-1,.105Zm.82-.73h1.321a3.232,3.232,0,0,0,.961-.114,1.379,1.379,0,0,0,.556-.321,1.939,1.939,0,0,0,.453-.784,3.784,3.784,0,0,0,.163-1.192,2.883,2.883,0,0,0-.319-1.493,1.611,1.611,0,0,0-.775-.7,3.189,3.189,0,0,0-1.06-.127h-1.3Z" transform="translate(-245.876 -429.271)"/>
      <path id="패스_8962" data-name="패스 8962" d="M306.252,432.427a3.361,3.361,0,0,1,.828-2.413,2.811,2.811,0,0,1,2.137-.872,2.972,2.972,0,0,1,1.545.409,2.685,2.685,0,0,1,1.049,1.142,3.712,3.712,0,0,1,.361,1.662,3.625,3.625,0,0,1-.381,1.685,2.587,2.587,0,0,1-1.076,1.126,3.076,3.076,0,0,1-1.5.382,2.927,2.927,0,0,1-1.562-.423,2.711,2.711,0,0,1-1.043-1.152A3.5,3.5,0,0,1,306.252,432.427Zm.845.012a2.482,2.482,0,0,0,.6,1.763,2.1,2.1,0,0,0,3.032-.006,2.634,2.634,0,0,0,.6-1.845,3.17,3.17,0,0,0-.255-1.319,1.964,1.964,0,0,0-.748-.875,2.024,2.024,0,0,0-1.1-.31,2.1,2.1,0,0,0-1.5.6A2.671,2.671,0,0,0,307.1,432.439Z" transform="translate(-252.959 -429.142)"/>
      <path id="패스_8963" data-name="패스 8963" d="M329.093,432.427a3.36,3.36,0,0,1,.827-2.413,2.815,2.815,0,0,1,2.137-.872,2.968,2.968,0,0,1,1.545.409,2.683,2.683,0,0,1,1.049,1.142,3.726,3.726,0,0,1,.362,1.662,3.653,3.653,0,0,1-.381,1.685,2.589,2.589,0,0,1-1.077,1.126,3.074,3.074,0,0,1-1.5.382,2.924,2.924,0,0,1-1.562-.423,2.725,2.725,0,0,1-1.044-1.152A3.5,3.5,0,0,1,329.093,432.427Zm.844.012a2.482,2.482,0,0,0,.6,1.763,2.1,2.1,0,0,0,3.031-.006,2.632,2.632,0,0,0,.6-1.845,3.163,3.163,0,0,0-.255-1.319,1.955,1.955,0,0,0-.747-.875,2.025,2.025,0,0,0-1.1-.31,2.1,2.1,0,0,0-1.5.6A2.671,2.671,0,0,0,329.937,432.439Z" transform="translate(-265.328 -429.142)"/>
      <path id="패스_8964" data-name="패스 8964" d="M344.4,435.571v-6.19h4.176v.73h-3.357v1.917h2.905v.731h-2.905v2.812Z" transform="translate(-273.616 -429.271)"/>
      <path id="패스_8965" data-name="패스 8965" d="M355.921,435.571v-6.19H360.1v.73H356.74v1.917h2.9v.731h-2.9v2.812Z" transform="translate(-279.856 -429.271)"/>
      <path id="패스_8966" data-name="패스 8966" d="M367.654,435.571v-6.19h.819v6.19Z" transform="translate(-286.209 -429.271)"/>
      <path id="패스_8967" data-name="패스 8967" d="M376.729,433.276l.818.207a2.756,2.756,0,0,1-.926,1.539,2.556,2.556,0,0,1-1.637.53,2.943,2.943,0,0,1-1.627-.407,2.542,2.542,0,0,1-.955-1.181,4.213,4.213,0,0,1-.327-1.659,3.652,3.652,0,0,1,.37-1.687,2.529,2.529,0,0,1,1.051-1.094,3.069,3.069,0,0,1,1.5-.374,2.532,2.532,0,0,1,1.563.473,2.454,2.454,0,0,1,.883,1.33l-.807.189a1.908,1.908,0,0,0-.624-.984,1.667,1.667,0,0,0-1.03-.308,2,2,0,0,0-1.193.342,1.8,1.8,0,0,0-.673.918,3.708,3.708,0,0,0-.195,1.19,3.763,3.763,0,0,0,.231,1.378,1.711,1.711,0,0,0,.714.88,2.011,2.011,0,0,0,1.052.292,1.764,1.764,0,0,0,1.165-.4A2.032,2.032,0,0,0,376.729,433.276Z" transform="translate(-288.603 -429.147)"/>
      <path id="패스_8968" data-name="패스 8968" d="M386.248,435.571v-6.19h4.476v.73h-3.656v1.9h3.424v.726h-3.424v2.108h3.8v.73Z" transform="translate(-296.278 -429.271)"/>
      <path id="패스_8969" data-name="패스 8969" d="M406.417,432.427a3.365,3.365,0,0,1,.828-2.413,2.813,2.813,0,0,1,2.137-.872,2.971,2.971,0,0,1,1.545.409,2.682,2.682,0,0,1,1.049,1.142,3.719,3.719,0,0,1,.362,1.662,3.642,3.642,0,0,1-.381,1.685,2.589,2.589,0,0,1-1.077,1.126,3.073,3.073,0,0,1-1.5.382,2.929,2.929,0,0,1-1.563-.423,2.716,2.716,0,0,1-1.043-1.152A3.5,3.5,0,0,1,406.417,432.427Zm.845.012a2.484,2.484,0,0,0,.6,1.763,2.1,2.1,0,0,0,3.032-.006,2.633,2.633,0,0,0,.6-1.845,3.163,3.163,0,0,0-.255-1.319,1.955,1.955,0,0,0-.747-.875,2.023,2.023,0,0,0-1.1-.31,2.1,2.1,0,0,0-1.5.6A2.673,2.673,0,0,0,407.262,432.439Z" transform="translate(-307.2 -429.142)"/>
      <path id="패스_8970" data-name="패스 8970" d="M421.725,435.571v-6.19H425.9v.73h-3.357v1.917h2.9v.731h-2.9v2.812Z" transform="translate(-315.49 -429.271)"/>
      <path id="패스_8971" data-name="패스 8971" d="M441.36,435.571v-6.19h4.476v.73h-3.657v1.9H445.6v.726h-3.425v2.108h3.8v.73Z" transform="translate(-326.122 -429.271)"/>
      <path id="패스_8972" data-name="패스 8972" d="M453.9,435.571v-6.19h2.133a5.207,5.207,0,0,1,1.1.088,2.088,2.088,0,0,1,.907.443,2.52,2.52,0,0,1,.733,1.058,4.154,4.154,0,0,1,.243,1.472,4.346,4.346,0,0,1-.164,1.249,3.059,3.059,0,0,1-.422.9,2.244,2.244,0,0,1-.564.561,2.3,2.3,0,0,1-.739.311,4.239,4.239,0,0,1-.995.105Zm.819-.73h1.322a3.233,3.233,0,0,0,.96-.114,1.379,1.379,0,0,0,.556-.321,1.956,1.956,0,0,0,.454-.784,3.826,3.826,0,0,0,.163-1.192,2.883,2.883,0,0,0-.319-1.493,1.616,1.616,0,0,0-.775-.7,3.193,3.193,0,0,0-1.06-.127h-1.3Z" transform="translate(-332.915 -429.271)"/>
      <path id="패스_8973" data-name="패스 8973" d="M471.6,429.381h.818v3.577a4.245,4.245,0,0,1-.21,1.482,1.815,1.815,0,0,1-.762.894,2.7,2.7,0,0,1-1.446.344,2.97,2.97,0,0,1-1.423-.3,1.709,1.709,0,0,1-.789-.867,4.132,4.132,0,0,1-.236-1.552v-3.577h.819v3.572a3.482,3.482,0,0,0,.15,1.189,1.144,1.144,0,0,0,.516.59,1.789,1.789,0,0,0,.893.206,1.708,1.708,0,0,0,1.288-.409,2.366,2.366,0,0,0,.384-1.575Z" transform="translate(-340.306 -429.271)"/>
      <path id="패스_8974" data-name="패스 8974" d="M485.284,433.276l.818.207a2.758,2.758,0,0,1-.926,1.539,2.557,2.557,0,0,1-1.636.53,2.945,2.945,0,0,1-1.628-.407,2.551,2.551,0,0,1-.955-1.181,4.221,4.221,0,0,1-.327-1.659,3.646,3.646,0,0,1,.37-1.687,2.54,2.54,0,0,1,1.051-1.094,3.071,3.071,0,0,1,1.5-.374,2.538,2.538,0,0,1,1.563.473,2.453,2.453,0,0,1,.882,1.33l-.806.189a1.915,1.915,0,0,0-.625-.984,1.667,1.667,0,0,0-1.031-.308,2,2,0,0,0-1.192.342,1.814,1.814,0,0,0-.674.918,3.72,3.72,0,0,0-.193,1.19,3.773,3.773,0,0,0,.23,1.378,1.711,1.711,0,0,0,.716.88,2.005,2.005,0,0,0,1.051.292,1.764,1.764,0,0,0,1.166-.4A2.036,2.036,0,0,0,485.284,433.276Z" transform="translate(-347.388 -429.147)"/>
      <path id="패스_8975" data-name="패스 8975" d="M493.284,435.571l2.378-6.19h.882l2.534,6.19h-.933l-.722-1.875h-2.588l-.679,1.875Zm1.787-2.541h2.1l-.646-1.715c-.2-.52-.343-.949-.439-1.284a7.819,7.819,0,0,1-.334,1.183Z" transform="translate(-354.24 -429.271)"/>
      <path id="패스_8976" data-name="패스 8976" d="M506.974,435.571v-5.46h-2.039v-.73h4.907v.73h-2.048v5.46Z" transform="translate(-360.549 -429.271)"/>
      <path id="패스_8977" data-name="패스 8977" d="M517.774,435.571v-6.19h.819v6.19Z" transform="translate(-367.502 -429.271)"/>
      <path id="패스_8978" data-name="패스 8978" d="M522.166,432.427a3.364,3.364,0,0,1,.828-2.413,2.816,2.816,0,0,1,2.137-.872,2.975,2.975,0,0,1,1.546.409,2.691,2.691,0,0,1,1.049,1.142,3.725,3.725,0,0,1,.361,1.662,3.642,3.642,0,0,1-.381,1.685,2.587,2.587,0,0,1-1.077,1.126,3.072,3.072,0,0,1-1.5.382,2.925,2.925,0,0,1-1.562-.423,2.712,2.712,0,0,1-1.043-1.152A3.5,3.5,0,0,1,522.166,432.427Zm.845.012a2.482,2.482,0,0,0,.6,1.763,2.1,2.1,0,0,0,3.032-.006,2.631,2.631,0,0,0,.6-1.845,3.17,3.17,0,0,0-.255-1.319,1.959,1.959,0,0,0-.748-.875,2.022,2.022,0,0,0-1.1-.31,2.1,2.1,0,0,0-1.5.6A2.672,2.672,0,0,0,523.011,432.439Z" transform="translate(-369.88 -429.142)"/>
      <path id="패스_8979" data-name="패스 8979" d="M537.361,435.571v-6.19h.841l3.252,4.86v-4.86h.785v6.19h-.84l-3.252-4.864v4.864Z" transform="translate(-378.109 -429.271)"/>
    </g>
  </g>
</svg>
