<svg xmlns="http://www.w3.org/2000/svg" width="220.753" height="49.821" viewBox="0 0 220.753 49.821">
  <defs>
    <style>
      .cls-1, .cls-2 {
        fill: #005aa8;
      }

      .cls-1, .cls-3, .cls-4, .cls-5 {
        fill-rule: evenodd;
      }

      .cls-3 {
        fill: #ffab08;
      }

      .cls-4 {
        fill: #52a133;
      }

      .cls-5 {
        fill: #e44200;
      }
    </style>
  </defs>
  <g id="그룹_6972" data-name="그룹 6972" transform="translate(-45.354 -138.866)">
    <g id="그룹_6966" data-name="그룹 6966" transform="translate(108.236 138.866)">
      <g id="그룹_6963" data-name="그룹 6963" transform="translate(0 0)">
        <g id="그룹_6962" data-name="그룹 6962">
          <path id="패스_9367" data-name="패스 9367" class="cls-1" d="M185.575,145.87a1.9,1.9,0,0,1,.658-.314l.617-.107,1.821-.115,2.63-.111a22.258,22.258,0,0,1-.292,2.469c-.149.819-.321,1.632-.518,2.424l-.041.162.987.211.06-.108a20.6,20.6,0,0,0,1.192-2.743,19.076,19.076,0,0,0,.85-3.476l.026-.155-2.092-.368-.061.083c-.2.271-.679.433-1.434.477-.8.049-2.209.075-4.192.075a10.665,10.665,0,0,1-1.38-.1l-1.172-.149-.055.078-.509.7,2.835,1.112Z" transform="translate(-181.646 -141.417)"/>
          <path id="패스_9368" data-name="패스 9368" class="cls-1" d="M196.38,144.958c0-.315.019-3.5.019-3.5l.043-.917.075-.942-.137-.028-3.145-.7-.065.073-.627.713.223.08a3.715,3.715,0,0,1,1.3.712,1.337,1.337,0,0,1,.367,1.014s.054,5.963.065,6.921c-.255.038-3.259.46-3.259.46-1.326.167-2.629.308-3.882.419v-2.293l.054-.889.088-.944-.156-.016-2.765-.354-.5.728.2.07a1.329,1.329,0,0,1,1.216,1.681v2.148l-.587.025-.659.011c-.479,0-1.07-.033-1.756-.1l-1.519-.128-.047.095-.45.825,3.46,1.359.074-.06a2.4,2.4,0,0,1,.7-.409,2.377,2.377,0,0,1,.639-.151c1.074-.117,2.615-.33,4.591-.633,1.892-.289,3.414-.579,4.558-.861v.393c0,.013.17,1.913.17,1.913l.016.149h1.172l.32-1.257a6.551,6.551,0,0,0,.185-1.445s.016-2.149.019-2.756l1.639.041,2.047.091.027-.148.242-1.678-2.27.212S196.66,144.943,196.38,144.958Z" transform="translate(-180.473 -138.866)"/>
          <path id="패스_9369" data-name="패스 9369" class="cls-1" d="M201.377,166.781h0a12.966,12.966,0,0,0-2.268-.807c.034-.206.15-.9.15-.9l-2.093-.389-.061.084-.421.587.147.092a.873.873,0,0,1,.3.3.174.174,0,0,1,.02.071.275.275,0,0,1-.075.134,10.731,10.731,0,0,0-2.142.785,2.856,2.856,0,0,0-1.613,2.879,3.451,3.451,0,0,0,1.44,2.851,5.906,5.906,0,0,0,6.836,0,3.453,3.453,0,0,0,1.44-2.851A2.8,2.8,0,0,0,201.377,166.781Zm-1.131,4.709a3.239,3.239,0,0,1-4.12,0,2.459,2.459,0,0,1,0-3.739,3.252,3.252,0,0,1,4.12-.012,2.521,2.521,0,0,1,0,3.753Z" transform="translate(-187.34 -152.667)"/>
          <path id="패스_9370" data-name="패스 9370" class="cls-1" d="M228.731,149.919a18.716,18.716,0,0,0,3.753-1.079,25.143,25.143,0,0,0,3.657-1.782c1.1.39,2.214.82,3.327,1.281,1.129.471,2.147.925,3.032,1.351l.139.068.9-1.663-3.346-.9-2.947-.847a17.752,17.752,0,0,0,2.334-1.846,9.108,9.108,0,0,0,1.77-2.238l.111-.206-2.535-.366-.057.063c-.155.165-.574.375-1.677.45-.918.064-2.426.1-4.479.1a14.845,14.845,0,0,1-1.551-.1l-1.369-.125-.05.076-.511.709,3.1,1.1.065-.044a2.232,2.232,0,0,1,.678-.319l.593-.1a15.909,15.909,0,0,1,1.815-.117l2.34-.065a17.625,17.625,0,0,1-4.1,3.463,20.623,20.623,0,0,1-5.548,2.393l-.3.078.782.679Z" transform="translate(-205.814 -140.375)"/>
          <path id="패스_9371" data-name="패스 9371" class="cls-1" d="M238.327,162.018c-1.64.086-3.135.128-4.453.128l-3.6.034-2.823.032a18.222,18.222,0,0,1-1.912-.138l-1.729-.192-.057.078-.574.824,3.785,1.2.066-.046a2.461,2.461,0,0,1,.739-.336,3.86,3.86,0,0,1,.7-.127l1.359-.127c.611-.052,1.416-.086,2.373-.1,0,.314.086,6.342.086,6.342s.2,2.359.2,2.359H233.7l.034-.117a11.472,11.472,0,0,0,.248-1.224,11.925,11.925,0,0,0,.164-1.527s.078-5.55.082-5.855c.3,0,4.3.03,4.3.03,1.548.022,2.884.067,3.974.14l.149.009.242-1.746-.207.024C241.439,161.82,239.967,161.933,238.327,162.018Z" transform="translate(-203.305 -151.049)"/>
          <path id="패스_9372" data-name="패스 9372" class="cls-1" d="M273.188,145.87a1.908,1.908,0,0,1,.654-.314l.618-.107,1.821-.115,2.629-.111a22.4,22.4,0,0,1-.291,2.469c-.149.82-.324,1.637-.518,2.424l-.044.162.993.211.057-.108a20.749,20.749,0,0,0,1.19-2.743,19.281,19.281,0,0,0,.853-3.476l.026-.155-2.094-.368-.06.083c-.2.271-.679.433-1.434.477-.8.049-2.211.075-4.194.075a10.624,10.624,0,0,1-1.379-.1l-1.174-.149-.054.078-.507.7,2.836,1.112Z" transform="translate(-228.485 -141.417)"/>
          <path id="패스_9373" data-name="패스 9373" class="cls-1" d="M283.985,144.958c0-.315.022-3.5.022-3.5l.041-.917.076-.942-.139-.028-3.144-.7-.063.073-.628.713.226.08a3.69,3.69,0,0,1,1.294.712,1.34,1.34,0,0,1,.368,1.014s.054,5.963.063,6.921c-.253.038-3.26.46-3.26.46-1.326.167-2.627.308-3.883.419v-2.293l.054-.891.092-.942-.159-.016-2.766-.354-.495.728.2.07a1.334,1.334,0,0,1,1.215,1.681v2.148l-.59.025-.657.011c-.478,0-1.068-.033-1.754-.1l-1.519-.128-.048.095-.453.825,3.464,1.359.076-.06a2.444,2.444,0,0,1,1.335-.56c1.076-.117,2.618-.33,4.593-.633,1.89-.289,3.413-.579,4.555-.861v.393c0,.014.172,1.913.172,1.913l.013.149h1.174l.32-1.257a6.547,6.547,0,0,0,.188-1.445s.016-2.149.019-2.756l1.636.041,2.05.091.025-.148.244-1.678-2.271.212S284.432,144.936,283.985,144.958Z" transform="translate(-227.307 -138.866)"/>
          <path id="패스_9374" data-name="패스 9374" class="cls-1" d="M288.984,166.781h0a12.966,12.966,0,0,0-2.268-.807c.035-.206.15-.9.15-.9l-2.094-.389-.063.084-.419.587.146.092a.893.893,0,0,1,.3.3.155.155,0,0,1,.022.071.271.271,0,0,1-.076.134,10.706,10.706,0,0,0-2.145.785,2.855,2.855,0,0,0-1.612,2.879,3.457,3.457,0,0,0,1.44,2.851,5.906,5.906,0,0,0,6.836,0,3.458,3.458,0,0,0,1.44-2.851A2.8,2.8,0,0,0,288.984,166.781Zm-1.132,4.709a3.235,3.235,0,0,1-4.117,0,2.463,2.463,0,0,1,0-3.739,3.248,3.248,0,0,1,4.117-.012,2.514,2.514,0,0,1,0,3.753Z" transform="translate(-234.176 -152.667)"/>
          <path id="패스_9375" data-name="패스 9375" class="cls-1" d="M330.937,167.237l-.038.02a7.91,7.91,0,0,1-3.036.374l-3.667.053a14.475,14.475,0,0,1-1.554-.095l-1.36-.148-.058.076-.488.665,3.144,1.175.07-.054a2.017,2.017,0,0,1,.7-.358l.643-.1c.286-.029,1.085-.049,2.386-.064,0,0,2.6-.015,3.268-.022.006.3.022,3.979.022,3.979,0,.017.235,2.022.235,2.022l.019.145h1.211l.3-1.318a7.387,7.387,0,0,0,.164-1.385l.019-4.964h-1.976Z" transform="translate(-255.46 -154.034)"/>
          <path id="패스_9376" data-name="패스 9376" class="cls-1" d="M326.466,138.866l-.063.073-.629.713.226.08a3.524,3.524,0,0,1,1.274.709,1.44,1.44,0,0,1,.368,1s.013.945.019,1.315l-.78.052-1.4.022a10.688,10.688,0,0,1-1.355-.1l-1.161-.128-.051.077-.295.414a2.935,2.935,0,0,0-.774-.417c-1.146-.422-1.631-.59-1.849-.656.041-.209.193-.948.193-.948l-2.2-.482-.561.686.152.1a1.4,1.4,0,0,1,.362.34.143.143,0,0,1,.028.088.463.463,0,0,1-.089.213c-.137.043-.53.179-1.83.669a3.009,3.009,0,0,0-1.853,3.161,3.662,3.662,0,0,0,1.437,2.942A5.128,5.128,0,0,0,319,149.963a5.418,5.418,0,0,0,2.394-.538,4.414,4.414,0,0,0,1.634-1.351c.19.083,2.086.885,2.086.885l.074-.046a2.049,2.049,0,0,1,.637-.287l.6-.116.688-.062.619-.032v.444c0,.017.19,2,.19,2l.016.147h1.176l.286-1.307a8.482,8.482,0,0,0,.15-1.458l.066-6.805.06-.887.1-.955-.142-.027Zm-1.167,5.561a2.047,2.047,0,0,1,.65-.336l.567-.1c.016,0,.631-.054.631-.054s.314-.016.517-.024c0,.293.035,3.075.042,3.347l-.889.052-1.443.022-1.062-.052s-.545-.052-.806-.074a4.008,4.008,0,0,0,.191-.547,3.52,3.52,0,0,0,.089-.806,3.571,3.571,0,0,0-.682-2.284l2.123.912Zm-6.3,4.164a2.936,2.936,0,0,1-1.986-.761,2.469,2.469,0,0,1-.859-1.977,2.5,2.5,0,0,1,.859-2,2.984,2.984,0,0,1,3.978,0,2.752,2.752,0,0,1,0,3.98A2.931,2.931,0,0,1,319,148.591Z" transform="translate(-251.965 -138.866)"/>
          <path id="패스_9377" data-name="패스 9377" class="cls-1" d="M363.042,152.959l-2.255-1.917a17.815,17.815,0,0,0,1.2-2.432,11.376,11.376,0,0,0,.679-2.415l.022-.14-3.471-1.007-.067.065-.622.592.216.1c.869.42,1.136.725,1.208.907a1.5,1.5,0,0,1,.048.915,18.1,18.1,0,0,1-1.957,4.65,12.034,12.034,0,0,1-3.651,3.981l-.212.143.831.5.082-.043a12.03,12.03,0,0,0,2.855-2.143,18.5,18.5,0,0,0,2.252-2.747c.479.476,1.117,1.151,1.916,2.038.87.962,1.618,1.833,2.227,2.595l.112.141,1.528-1.524-.162-.111C365.039,154.569,364.111,153.849,363.042,152.959Z" transform="translate(-273.337 -142.171)"/>
          <path id="패스_9378" data-name="패스 9378" class="cls-1" d="M382.143,138.866l-.063.073-.628.715.229.081a3.481,3.481,0,0,1,1.284.7,1.318,1.318,0,0,1,.377,1l.064,16.024c0,.013.184,2.276.184,2.276h1.176l.308-1.378a7.99,7.99,0,0,0,.174-1.518l.045-15.4.05-.891.089-.947-.139-.028Z" transform="translate(-287.919 -138.866)"/>
          <path id="패스_9379" data-name="패스 9379" class="cls-1" d="M406.37,146.7a1.9,1.9,0,0,1,.686-.346l.614-.092c.207-.019.883-.055,2.982-.115,0,0,3.039-.092,3.81-.113-.047,1.269-.172,2.687-.38,4.236a33.628,33.628,0,0,1-.755,4.022l-.045.167,1,.213.057-.114a24.088,24.088,0,0,0,1.517-4.448,34.836,34.836,0,0,0,.954-5.188l.013-.157-2.211-.314-.057.076c-.142.186-.593.419-1.915.471-1.12.041-3.153.062-6.04.062a14.327,14.327,0,0,1-1.6-.1l-1.405-.16-.057.081-.532.752,3.3,1.123Z" transform="translate(-299.442 -141.85)"/>
          <path id="패스_9380" data-name="패스 9380" class="cls-1" d="M412.126,163.363s-3.193.128-3.5.142v-4.931l.041-.871.076-.934-.155-.02-2.655-.376-.057.076-.494.67.21.073c.745.26.944.465,1,.563a2.646,2.646,0,0,1,.153,1.118v4.66h-1.4l-1.18.018v-4.5l.038-.895.079-.934-.152-.021-2.681-.377-.526.726.206.073c.764.279.968.485,1.022.587a2.622,2.622,0,0,1,.153,1.115v4.258l-.9.02h-.926c-.457,0-1.1-.043-1.913-.119l-1.725-.171-.061.076-.577.8,3.784,1.222.066-.038a3.036,3.036,0,0,1,.749-.333,3.2,3.2,0,0,1,.688-.133c.007,0,1.735-.149,1.735-.149.859-.071,2.024-.107,3.464-.107l4.571.032c1.605.02,2.985.068,4.1.14l.149.01.244-1.742-.206.021C414.527,163.205,413.373,163.292,412.126,163.363Z" transform="translate(-295.809 -148.225)"/>
          <path id="패스_9381" data-name="패스 9381" class="cls-1" d="M451.853,147.292a6.294,6.294,0,0,0,7,.011,3.336,3.336,0,0,0,1.487-2.821,2.783,2.783,0,0,0-2.044-2.928c-1.227-.393-1.725-.545-1.941-.6.048-.213.2-.909.2-.909l-2.231-.433-.064.083-.39.533.124.1a.976.976,0,0,1,.266.313.133.133,0,0,1,.016.063.428.428,0,0,1-.117.227c-.143.038-.555.168-1.888.63a2.775,2.775,0,0,0-1.9,2.926A3.347,3.347,0,0,0,451.853,147.292Zm5.624-1.055a3.443,3.443,0,0,1-4.238,0,2.254,2.254,0,0,1,0-3.507,3.424,3.424,0,0,1,4.228,0,2.263,2.263,0,0,1,.01,3.507Z" transform="translate(-324.763 -139.263)"/>
          <path id="패스_9382" data-name="패스 9382" class="cls-1" d="M454.435,161.176c-1.647.077-3.147.117-4.451.117l-3.6.041-2.824.045c-.46,0-1.1-.045-1.913-.129l-1.729-.181-.634.88,3.791,1.2.063-.041a2.516,2.516,0,0,1,.74-.344,4.177,4.177,0,0,1,.7-.122l.622-.065s.571-.045.866-.07v2.471c-.4-.008-.847-.038-1.364-.1l-1.351-.136-.048.076-.467.641,3.141,1.2.07-.051a1.943,1.943,0,0,1,.679-.336l.625-.1c.3-.042,1.12-.071,2.455-.087,0,0,3.011-.019,3.3-.019,0,.3.038,3.358.038,3.358,0,.017.238,1.938.238,1.938l.016.144h1.19l.3-1.215a6.381,6.381,0,0,0,.162-1.338l.022-3.265s.082-.88.082-.88l.016-.163-1.948-.168-.073.051-.178.118s-.038.013-.076.027v-2.274l3,.049c1.025.022,1.938.063,2.712.119l.153.009.243-1.746-.209.026C457.543,160.985,456.074,161.1,454.435,161.176Zm-6.4,1.25c.218-.009.789-.028.789-.028l1.054-.009h1.052v2.537l-1.24.037-1.655.019Z" transform="translate(-318.838 -150.603)"/>
          <path id="패스_9383" data-name="패스 9383" class="cls-1" d="M493.633,143.765l.543-.062,1.31-.043,1.18.047.026-.141.2-1.3-1.818.026c-.558-.014-1.075-.051-1.529-.106l-1.377-.223-.913-.2-.07.065-.6.662,2.382,1.437Z" transform="translate(-346.261 -140.415)"/>
          <path id="패스_9384" data-name="패스 9384" class="cls-1" d="M511.455,139.57l-3.162-.7-.067.073-.626.713.223.08a3.613,3.613,0,0,1,1.287.711,1.326,1.326,0,0,1,.356.994s.035,4,.041,4.817c-.193.009-.78.043-.78.043l-1.38.034a10.094,10.094,0,0,1-1.262-.087l-1.109-.117-.048.084-.381.589,2.512,1.163.08-.051a2,2,0,0,1,.621-.287l.562-.095.651-.051.561-.026c0,.3.022,2.757.022,2.757s.191,2,.191,2l.015.149h1.173l.286-1.307a8.495,8.495,0,0,0,.152-1.461l.061-8.147.067-.887.1-.955Z" transform="translate(-353.727 -138.866)"/>
          <path id="패스_9385" data-name="패스 9385" class="cls-1" d="M498.853,158.292h0a20.572,20.572,0,0,0-2.31-.814c.032-.2.153-.915.153-.915l-1.713-.319,1.123-1.331-2.454-1.223-1.824-.984a16.635,16.635,0,0,0,1.719-1.964,9.074,9.074,0,0,0,1.241-2.271l.069-.2-2.312-.267-.058.062a1.91,1.91,0,0,1-1.149.415,25.648,25.648,0,0,1-2.724.108,14.62,14.62,0,0,1-1.593-.1l-1.316-.149-.06.073-.536.706,2.953,1.134.07-.053a2.2,2.2,0,0,1,.577-.3l.632-.141,1.192-.086,1.4-.07a17.272,17.272,0,0,1-3.144,3.745,15.071,15.071,0,0,1-4.377,2.838l-.263.11.733.561.076-.017a11.9,11.9,0,0,0,3.01-1.255,19.13,19.13,0,0,0,2.994-2.116c.178.124,1.789,1.282,1.789,1.282.685.5,1.295.995,1.818,1.453l-.028.041-.422.586.146.094a.851.851,0,0,1,.3.3.179.179,0,0,1,.022.07.27.27,0,0,1-.082.143c-.1.036-2.056.774-2.056.774a2.58,2.58,0,0,0-1.567,2.69,3.237,3.237,0,0,0,1.412,2.734,5.96,5.96,0,0,0,6.648,0,3.248,3.248,0,0,0,1.4-2.734A2.557,2.557,0,0,0,498.853,158.292Zm-3.242,5.046a3.073,3.073,0,0,1-1.96-.669,2.271,2.271,0,0,1,0-3.5,3.221,3.221,0,0,1,3.926,0,2.288,2.288,0,0,1,0,3.5A3.061,3.061,0,0,1,495.61,163.338Z" transform="translate(-342.821 -143.754)"/>
        </g>
      </g>
      <g id="그룹_6965" data-name="그룹 6965" transform="translate(0 0)">
        <g id="그룹_6964" data-name="그룹 6964">
          <path id="패스_9386" data-name="패스 9386" class="cls-2" d="M185.575,145.87a1.9,1.9,0,0,1,.658-.314l.617-.107,1.821-.115,2.63-.111a22.258,22.258,0,0,1-.292,2.469c-.149.819-.321,1.632-.518,2.424l-.041.162.987.211.06-.108a20.6,20.6,0,0,0,1.192-2.743,19.076,19.076,0,0,0,.85-3.476l.026-.155-2.092-.368-.061.083c-.2.271-.679.433-1.434.477-.8.049-2.209.075-4.192.075a10.665,10.665,0,0,1-1.38-.1l-1.172-.149-.055.078-.509.7,2.835,1.112Z" transform="translate(-181.646 -141.417)"/>
          <path id="패스_9387" data-name="패스 9387" class="cls-2" d="M196.38,144.958c0-.315.019-3.5.019-3.5l.043-.917.075-.942-.137-.028-3.145-.7-.065.073-.627.713.223.08a3.715,3.715,0,0,1,1.3.712,1.337,1.337,0,0,1,.367,1.014s.054,5.963.065,6.921c-.255.038-3.259.46-3.259.46-1.326.167-2.629.308-3.882.419v-2.293l.054-.889.088-.944-.156-.016-2.765-.354-.5.728.2.07a1.329,1.329,0,0,1,1.216,1.681v2.148l-.587.025-.659.011c-.479,0-1.07-.033-1.756-.1l-1.519-.128-.047.095-.45.825,3.46,1.359.074-.06a2.4,2.4,0,0,1,.7-.409,2.377,2.377,0,0,1,.639-.151c1.074-.117,2.615-.33,4.591-.633,1.892-.289,3.414-.579,4.558-.861v.393c0,.013.17,1.913.17,1.913l.016.149h1.172l.32-1.257a6.551,6.551,0,0,0,.185-1.445s.016-2.149.019-2.756l1.639.041,2.047.091.027-.148.242-1.678-2.27.212S196.66,144.943,196.38,144.958Z" transform="translate(-180.473 -138.866)"/>
          <path id="패스_9388" data-name="패스 9388" class="cls-2" d="M201.377,166.781h0a12.966,12.966,0,0,0-2.268-.807c.034-.206.15-.9.15-.9l-2.093-.389-.061.084-.421.587.147.092a.873.873,0,0,1,.3.3.174.174,0,0,1,.02.071.275.275,0,0,1-.075.134,10.731,10.731,0,0,0-2.142.785,2.856,2.856,0,0,0-1.613,2.879,3.451,3.451,0,0,0,1.44,2.851,5.906,5.906,0,0,0,6.836,0,3.453,3.453,0,0,0,1.44-2.851A2.8,2.8,0,0,0,201.377,166.781Zm-1.131,4.709a3.239,3.239,0,0,1-4.12,0,2.459,2.459,0,0,1,0-3.739,3.252,3.252,0,0,1,4.12-.012,2.521,2.521,0,0,1,0,3.753Z" transform="translate(-187.34 -152.667)"/>
          <path id="패스_9389" data-name="패스 9389" class="cls-2" d="M228.731,149.919a18.716,18.716,0,0,0,3.753-1.079,25.143,25.143,0,0,0,3.657-1.782c1.1.39,2.214.82,3.327,1.281,1.129.471,2.147.925,3.032,1.351l.139.068.9-1.663-3.346-.9-2.947-.847a17.752,17.752,0,0,0,2.334-1.846,9.108,9.108,0,0,0,1.77-2.238l.111-.206-2.535-.366-.057.063c-.155.165-.574.375-1.677.45-.918.064-2.426.1-4.479.1a14.845,14.845,0,0,1-1.551-.1l-1.369-.125-.05.076-.511.709,3.1,1.1.065-.044a2.232,2.232,0,0,1,.678-.319l.593-.1a15.909,15.909,0,0,1,1.815-.117l2.34-.065a17.625,17.625,0,0,1-4.1,3.463,20.623,20.623,0,0,1-5.548,2.393l-.3.078.782.679Z" transform="translate(-205.814 -140.375)"/>
          <path id="패스_9390" data-name="패스 9390" class="cls-2" d="M238.327,162.018c-1.64.086-3.135.128-4.453.128l-3.6.034-2.823.032a18.222,18.222,0,0,1-1.912-.138l-1.729-.192-.057.078-.574.824,3.785,1.2.066-.046a2.461,2.461,0,0,1,.739-.336,3.86,3.86,0,0,1,.7-.127l1.359-.127c.611-.052,1.416-.086,2.373-.1,0,.314.086,6.342.086,6.342s.2,2.359.2,2.359H233.7l.034-.117a11.472,11.472,0,0,0,.248-1.224,11.925,11.925,0,0,0,.164-1.527s.078-5.55.082-5.855c.3,0,4.3.03,4.3.03,1.548.022,2.884.067,3.974.14l.149.009.242-1.746-.207.024C241.439,161.82,239.967,161.933,238.327,162.018Z" transform="translate(-203.305 -151.049)"/>
          <path id="패스_9391" data-name="패스 9391" class="cls-2" d="M273.188,145.87a1.908,1.908,0,0,1,.654-.314l.618-.107,1.821-.115,2.629-.111a22.4,22.4,0,0,1-.291,2.469c-.149.82-.324,1.637-.518,2.424l-.044.162.993.211.057-.108a20.749,20.749,0,0,0,1.19-2.743,19.281,19.281,0,0,0,.853-3.476l.026-.155-2.094-.368-.06.083c-.2.271-.679.433-1.434.477-.8.049-2.211.075-4.194.075a10.624,10.624,0,0,1-1.379-.1l-1.174-.149-.054.078-.507.7,2.836,1.112Z" transform="translate(-228.485 -141.417)"/>
          <path id="패스_9392" data-name="패스 9392" class="cls-2" d="M283.985,144.958c0-.315.022-3.5.022-3.5l.041-.917.076-.942-.139-.028-3.144-.7-.063.073-.628.713.226.08a3.69,3.69,0,0,1,1.294.712,1.34,1.34,0,0,1,.368,1.014s.054,5.963.063,6.921c-.253.038-3.26.46-3.26.46-1.326.167-2.627.308-3.883.419v-2.293l.054-.891.092-.942-.159-.016-2.766-.354-.495.728.2.07a1.334,1.334,0,0,1,1.215,1.681v2.148l-.59.025-.657.011c-.478,0-1.068-.033-1.754-.1l-1.519-.128-.048.095-.453.825,3.464,1.359.076-.06a2.444,2.444,0,0,1,1.335-.56c1.076-.117,2.618-.33,4.593-.633,1.89-.289,3.413-.579,4.555-.861v.393c0,.014.172,1.913.172,1.913l.013.149h1.174l.32-1.257a6.547,6.547,0,0,0,.188-1.445s.016-2.149.019-2.756l1.636.041,2.05.091.025-.148.244-1.678-2.271.212S284.432,144.936,283.985,144.958Z" transform="translate(-227.307 -138.866)"/>
          <path id="패스_9393" data-name="패스 9393" class="cls-2" d="M288.984,166.781h0a12.966,12.966,0,0,0-2.268-.807c.035-.206.15-.9.15-.9l-2.094-.389-.063.084-.419.587.146.092a.893.893,0,0,1,.3.3.155.155,0,0,1,.022.071.271.271,0,0,1-.076.134,10.706,10.706,0,0,0-2.145.785,2.855,2.855,0,0,0-1.612,2.879,3.457,3.457,0,0,0,1.44,2.851,5.906,5.906,0,0,0,6.836,0,3.458,3.458,0,0,0,1.44-2.851A2.8,2.8,0,0,0,288.984,166.781Zm-1.132,4.709a3.235,3.235,0,0,1-4.117,0,2.463,2.463,0,0,1,0-3.739,3.248,3.248,0,0,1,4.117-.012,2.514,2.514,0,0,1,0,3.753Z" transform="translate(-234.176 -152.667)"/>
          <path id="패스_9394" data-name="패스 9394" class="cls-2" d="M330.937,167.237l-.038.02a7.91,7.91,0,0,1-3.036.374l-3.667.053a14.475,14.475,0,0,1-1.554-.095l-1.36-.148-.058.076-.488.665,3.144,1.175.07-.054a2.017,2.017,0,0,1,.7-.358l.643-.1c.286-.029,1.085-.049,2.386-.064,0,0,2.6-.015,3.268-.022.006.3.022,3.979.022,3.979,0,.017.235,2.022.235,2.022l.019.145h1.211l.3-1.318a7.387,7.387,0,0,0,.164-1.385l.019-4.964h-1.976Z" transform="translate(-255.46 -154.034)"/>
          <path id="패스_9395" data-name="패스 9395" class="cls-2" d="M326.466,138.866l-.063.073-.629.713.226.08a3.524,3.524,0,0,1,1.274.709,1.44,1.44,0,0,1,.368,1s.013.945.019,1.315l-.78.052-1.4.022a10.688,10.688,0,0,1-1.355-.1l-1.161-.128-.051.077-.295.414a2.935,2.935,0,0,0-.774-.417c-1.146-.422-1.631-.59-1.849-.656.041-.209.193-.948.193-.948l-2.2-.482-.561.686.152.1a1.4,1.4,0,0,1,.362.34.143.143,0,0,1,.028.088.463.463,0,0,1-.089.213c-.137.043-.53.179-1.83.669a3.009,3.009,0,0,0-1.853,3.161,3.662,3.662,0,0,0,1.437,2.942A5.128,5.128,0,0,0,319,149.963a5.418,5.418,0,0,0,2.394-.538,4.414,4.414,0,0,0,1.634-1.351c.19.083,2.086.885,2.086.885l.074-.046a2.049,2.049,0,0,1,.637-.287l.6-.116.688-.062.619-.032v.444c0,.017.19,2,.19,2l.016.147h1.176l.286-1.307a8.482,8.482,0,0,0,.15-1.458l.066-6.805.06-.887.1-.955-.142-.027Zm-1.167,5.561a2.047,2.047,0,0,1,.65-.336l.567-.1c.016,0,.631-.054.631-.054s.314-.016.517-.024c0,.293.035,3.075.042,3.347l-.889.052-1.443.022-1.062-.052s-.545-.052-.806-.074a4.008,4.008,0,0,0,.191-.547,3.52,3.52,0,0,0,.089-.806,3.571,3.571,0,0,0-.682-2.284l2.123.912Zm-6.3,4.164a2.936,2.936,0,0,1-1.986-.761,2.469,2.469,0,0,1-.859-1.977,2.5,2.5,0,0,1,.859-2,2.984,2.984,0,0,1,3.978,0,2.752,2.752,0,0,1,0,3.98A2.931,2.931,0,0,1,319,148.591Z" transform="translate(-251.965 -138.866)"/>
          <path id="패스_9396" data-name="패스 9396" class="cls-2" d="M363.042,152.959l-2.255-1.917a17.815,17.815,0,0,0,1.2-2.432,11.376,11.376,0,0,0,.679-2.415l.022-.14-3.471-1.007-.067.065-.622.592.216.1c.869.42,1.136.725,1.208.907a1.5,1.5,0,0,1,.048.915,18.1,18.1,0,0,1-1.957,4.65,12.034,12.034,0,0,1-3.651,3.981l-.212.143.831.5.082-.043a12.03,12.03,0,0,0,2.855-2.143,18.5,18.5,0,0,0,2.252-2.747c.479.476,1.117,1.151,1.916,2.038.87.962,1.618,1.833,2.227,2.595l.112.141,1.528-1.524-.162-.111C365.039,154.569,364.111,153.849,363.042,152.959Z" transform="translate(-273.337 -142.171)"/>
          <path id="패스_9397" data-name="패스 9397" class="cls-2" d="M382.143,138.866l-.063.073-.628.715.229.081a3.481,3.481,0,0,1,1.284.7,1.318,1.318,0,0,1,.377,1l.064,16.024c0,.013.184,2.276.184,2.276h1.176l.308-1.378a7.99,7.99,0,0,0,.174-1.518l.045-15.4.05-.891.089-.947-.139-.028Z" transform="translate(-287.919 -138.866)"/>
          <path id="패스_9398" data-name="패스 9398" class="cls-2" d="M406.37,146.7a1.9,1.9,0,0,1,.686-.346l.614-.092c.207-.019.883-.055,2.982-.115,0,0,3.039-.092,3.81-.113-.047,1.269-.172,2.687-.38,4.236a33.628,33.628,0,0,1-.755,4.022l-.045.167,1,.213.057-.114a24.088,24.088,0,0,0,1.517-4.448,34.836,34.836,0,0,0,.954-5.188l.013-.157-2.211-.314-.057.076c-.142.186-.593.419-1.915.471-1.12.041-3.153.062-6.04.062a14.327,14.327,0,0,1-1.6-.1l-1.405-.16-.057.081-.532.752,3.3,1.123Z" transform="translate(-299.442 -141.85)"/>
          <path id="패스_9399" data-name="패스 9399" class="cls-2" d="M412.126,163.363s-3.193.128-3.5.142v-4.931l.041-.871.076-.934-.155-.02-2.655-.376-.057.076-.494.67.21.073c.745.26.944.465,1,.563a2.646,2.646,0,0,1,.153,1.118v4.66h-1.4l-1.18.018v-4.5l.038-.895.079-.934-.152-.021-2.681-.377-.526.726.206.073c.764.279.968.485,1.022.587a2.622,2.622,0,0,1,.153,1.115v4.258l-.9.02h-.926c-.457,0-1.1-.043-1.913-.119l-1.725-.171-.061.076-.577.8,3.784,1.222.066-.038a3.036,3.036,0,0,1,.749-.333,3.2,3.2,0,0,1,.688-.133c.007,0,1.735-.149,1.735-.149.859-.071,2.024-.107,3.464-.107l4.571.032c1.605.02,2.985.068,4.1.14l.149.01.244-1.742-.206.021C414.527,163.205,413.373,163.292,412.126,163.363Z" transform="translate(-295.809 -148.225)"/>
          <path id="패스_9400" data-name="패스 9400" class="cls-2" d="M451.853,147.292a6.294,6.294,0,0,0,7,.011,3.336,3.336,0,0,0,1.487-2.821,2.783,2.783,0,0,0-2.044-2.928c-1.227-.393-1.725-.545-1.941-.6.048-.213.2-.909.2-.909l-2.231-.433-.064.083-.39.533.124.1a.976.976,0,0,1,.266.313.133.133,0,0,1,.016.063.428.428,0,0,1-.117.227c-.143.038-.555.168-1.888.63a2.775,2.775,0,0,0-1.9,2.926A3.347,3.347,0,0,0,451.853,147.292Zm5.624-1.055a3.443,3.443,0,0,1-4.238,0,2.254,2.254,0,0,1,0-3.507,3.424,3.424,0,0,1,4.228,0,2.263,2.263,0,0,1,.01,3.507Z" transform="translate(-324.763 -139.263)"/>
          <path id="패스_9401" data-name="패스 9401" class="cls-2" d="M454.435,161.176c-1.647.077-3.147.117-4.451.117l-3.6.041-2.824.045c-.46,0-1.1-.045-1.913-.129l-1.729-.181-.634.88,3.791,1.2.063-.041a2.516,2.516,0,0,1,.74-.344,4.177,4.177,0,0,1,.7-.122l.622-.065s.571-.045.866-.07v2.471c-.4-.008-.847-.038-1.364-.1l-1.351-.136-.048.076-.467.641,3.141,1.2.07-.051a1.943,1.943,0,0,1,.679-.336l.625-.1c.3-.042,1.12-.071,2.455-.087,0,0,3.011-.019,3.3-.019,0,.3.038,3.358.038,3.358,0,.017.238,1.938.238,1.938l.016.144h1.19l.3-1.215a6.381,6.381,0,0,0,.162-1.338l.022-3.265s.082-.88.082-.88l.016-.163-1.948-.168-.073.051-.178.118s-.038.013-.076.027v-2.274l3,.049c1.025.022,1.938.063,2.712.119l.153.009.243-1.746-.209.026C457.543,160.985,456.074,161.1,454.435,161.176Zm-6.4,1.25c.218-.009.789-.028.789-.028l1.054-.009h1.052v2.537l-1.24.037-1.655.019Z" transform="translate(-318.838 -150.603)"/>
          <path id="패스_9402" data-name="패스 9402" class="cls-2" d="M493.633,143.765l.543-.062,1.31-.043,1.18.047.026-.141.2-1.3-1.818.026c-.558-.014-1.075-.051-1.529-.106l-1.377-.223-.913-.2-.07.065-.6.662,2.382,1.437Z" transform="translate(-346.261 -140.415)"/>
          <path id="패스_9403" data-name="패스 9403" class="cls-2" d="M511.455,139.57l-3.162-.7-.067.073-.626.713.223.08a3.613,3.613,0,0,1,1.287.711,1.326,1.326,0,0,1,.356.994s.035,4,.041,4.817c-.193.009-.78.043-.78.043l-1.38.034a10.094,10.094,0,0,1-1.262-.087l-1.109-.117-.048.084-.381.589,2.512,1.163.08-.051a2,2,0,0,1,.621-.287l.562-.095.651-.051.561-.026c0,.3.022,2.757.022,2.757s.191,2,.191,2l.015.149h1.173l.286-1.307a8.495,8.495,0,0,0,.152-1.461l.061-8.147.067-.887.1-.955Z" transform="translate(-353.727 -138.866)"/>
          <path id="패스_9404" data-name="패스 9404" class="cls-2" d="M498.853,158.292h0a20.572,20.572,0,0,0-2.31-.814c.032-.2.153-.915.153-.915l-1.713-.319,1.123-1.331-2.454-1.223-1.824-.984a16.635,16.635,0,0,0,1.719-1.964,9.074,9.074,0,0,0,1.241-2.271l.069-.2-2.312-.267-.058.062a1.91,1.91,0,0,1-1.149.415,25.648,25.648,0,0,1-2.724.108,14.62,14.62,0,0,1-1.593-.1l-1.316-.149-.06.073-.536.706,2.953,1.134.07-.053a2.2,2.2,0,0,1,.577-.3l.632-.141,1.192-.086,1.4-.07a17.272,17.272,0,0,1-3.144,3.745,15.071,15.071,0,0,1-4.377,2.838l-.263.11.733.561.076-.017a11.9,11.9,0,0,0,3.01-1.255,19.13,19.13,0,0,0,2.994-2.116c.178.124,1.789,1.282,1.789,1.282.685.5,1.295.995,1.818,1.453l-.028.041-.422.586.146.094a.851.851,0,0,1,.3.3.179.179,0,0,1,.022.07.27.27,0,0,1-.082.143c-.1.036-2.056.774-2.056.774a2.58,2.58,0,0,0-1.567,2.69,3.237,3.237,0,0,0,1.412,2.734,5.96,5.96,0,0,0,6.648,0,3.248,3.248,0,0,0,1.4-2.734A2.557,2.557,0,0,0,498.853,158.292Zm-3.242,5.046a3.073,3.073,0,0,1-1.96-.669,2.271,2.271,0,0,1,0-3.5,3.221,3.221,0,0,1,3.926,0,2.288,2.288,0,0,1,0,3.5A3.061,3.061,0,0,1,495.61,163.338Z" transform="translate(-342.821 -143.754)"/>
        </g>
      </g>
    </g>
    <g id="그룹_6969" data-name="그룹 6969" transform="translate(109.094 164.838)">
      <g id="그룹_6967" data-name="그룹 6967" transform="translate(0 0)">
        <path id="패스_9405" data-name="패스 9405" class="cls-2" d="M189.009,197.159a2.136,2.136,0,0,0-2.417-1.827c-1.876,0-3.077,1.28-3.077,3.571,0,1.837.874,3.857,3.267,3.857a3.4,3.4,0,0,0,1.137-.154c.268-.111.35-.2.35-.777v-1.074c0-.827-.047-.911-1.365-1v-.283h3.108v.283c-.68.1-.723.144-.723,1v.824a5.6,5.6,0,0,0,.069,1.1,10.472,10.472,0,0,1-2.635.487c-2.555,0-4.408-1.654-4.408-4.028a4.2,4.2,0,0,1,4.477-4.2,9.271,9.271,0,0,1,2.313.31c.04.417.095,1.041.192,1.88Z" transform="translate(-182.316 -194.813)"/>
        <path id="패스_9406" data-name="패스 9406" class="cls-2" d="M202.417,195.6l-.374.049c-.542.075-.619.178-.45.712l1.634,5.153h.022l1.94-6.075h.288l2.19,6.062h.026c.5-1.521,1.2-4.074,1.4-4.944.167-.7.107-.852-.436-.909l-.352-.049v-.277h2.566v.277c-.8.1-.883.145-1.284,1.244-.105.308-.99,3.083-2.01,6.417h-.325l-2.176-5.919-.024.024-1.976,5.9h-.341l-2.089-6.5c-.327-1.009-.511-1.091-1.2-1.163v-.277h2.965Z" transform="translate(-191.477 -195.023)"/>
        <path id="패스_9407" data-name="패스 9407" class="cls-2" d="M226.278,202.7l.389-.046c.452-.046.5-.181.376-.557-.084-.29-.437-1.234-.771-2.1h-2.459c-.122.314-.436,1.256-.61,1.763-.224.7-.116.86.427.909l.363.034v.279h-2.587V202.7c.783-.082.881-.154,1.3-1.234l2.5-6.421.276-.109.856,2.3c.57,1.533,1.1,3.071,1.577,4.3.385,1.016.542,1.1,1.294,1.161v.279h-2.931Zm-2.307-3.169h2.142l-1.066-2.974h-.019Z" transform="translate(-203.214 -194.813)"/>
        <path id="패스_9408" data-name="패스 9408" class="cls-2" d="M246.035,203.276h-.317l-5.249-6.38h-.022v3.088a20.236,20.236,0,0,0,.092,2.3c.065.424.392.593,1.191.626v.279h-2.9v-.279c.668-.024.982-.2,1.039-.626a19.764,19.764,0,0,0,.093-2.3v-2.625c0-.874-.009-1.064-.225-1.346a1.353,1.353,0,0,0-1.066-.41v-.277h1.77l5.091,6.1h.026v-2.89a18.858,18.858,0,0,0-.1-2.3c-.063-.421-.387-.594-1.183-.629v-.277h2.9v.277c-.663.026-.977.208-1.034.629a17.991,17.991,0,0,0-.1,2.3Z" transform="translate(-212.442 -195.023)"/>
        <path id="패스_9409" data-name="패스 9409" class="cls-2" d="M265.242,197.159a2.131,2.131,0,0,0-2.414-1.827c-1.881,0-3.074,1.28-3.074,3.571,0,1.837.873,3.857,3.261,3.857a3.412,3.412,0,0,0,1.142-.154c.269-.111.355-.2.355-.777v-1.074c0-.827-.054-.911-1.367-1v-.283h3.106v.283c-.679.1-.726.144-.726,1v.824a5.681,5.681,0,0,0,.073,1.1,10.4,10.4,0,0,1-2.639.487c-2.557,0-4.4-1.654-4.4-4.028a4.2,4.2,0,0,1,4.479-4.2,9.3,9.3,0,0,1,2.313.31c.032.417.095,1.041.19,1.88Z" transform="translate(-223.074 -194.813)"/>
        <path id="패스_9410" data-name="패스 9410" class="cls-2" d="M279.712,195.326v.277c-.946.072-1.041.154-1.041,1.477v4.272a3.3,3.3,0,0,1-1.06,2.929,3.545,3.545,0,0,1-1.224.613l-.123-.276a1.919,1.919,0,0,0,1.259-1.5,11.545,11.545,0,0,0,.133-2.212V197.08c0-1.323-.094-1.405-1.136-1.477v-.277Z" transform="translate(-232.542 -195.023)"/>
        <path id="패스_9411" data-name="패스 9411" class="cls-2" d="M288.151,195.326v.277c-.97.072-1.072.154-1.072,1.477V199.6a4.028,4.028,0,0,0,.514,2.349,1.965,1.965,0,0,0,1.739.839,2.082,2.082,0,0,0,1.779-.907,5.329,5.329,0,0,0,.545-2.69v-.655a20.217,20.217,0,0,0-.095-2.309c-.067-.421-.387-.594-1.19-.629v-.277h2.909v.277c-.676.026-.989.208-1.047.629a18.7,18.7,0,0,0-.095,2.309v.815a4.3,4.3,0,0,1-.913,3.142,3.4,3.4,0,0,1-4.229.257,3.208,3.208,0,0,1-.932-2.723V197.08c0-1.323-.1-1.405-1.11-1.477v-.277Z" transform="translate(-237.188 -195.023)"/>
        <path id="패스_9412" data-name="패스 9412" class="cls-2" d="M314.039,195.326l2.924,6.228,2.884-6.228h2v.277c-1.053.083-1.132.134-1.091,1.477l.095,4.354c.038,1.359.07,1.393,1.135,1.475v.279h-3.19v-.279c1.015-.082,1.053-.116,1.041-1.475l-.045-4.872h-.051l-2.965,6.5h-.308l-2.794-6.328h-.025l-.122,3.375a16.846,16.846,0,0,0,0,2.176c.064.447.352.569,1.143.626v.279h-2.845v-.279c.675-.057.932-.18,1.015-.626a19.1,19.1,0,0,0,.206-2.3l.139-2.538c.08-1.626,0-1.76-1.148-1.843v-.277Z" transform="translate(-251.552 -195.023)"/>
        <path id="패스_9413" data-name="패스 9413" class="cls-2" d="M336.387,197.08c0-1.323-.089-1.405-1.066-1.477v-.277h5.3c.019.206.076,1.088.134,1.765l-.3.039a2.274,2.274,0,0,0-.428-1.117c-.194-.2-.594-.285-1.336-.285h-.921c-.332,0-.364.02-.364.372v2.757h1.225c1.04,0,1.072-.068,1.2-.969h.3v2.4h-.3c-.064-.449-.1-.695-.257-.822s-.425-.158-.945-.158H337.4v2.143c0,.688.077,1.05.308,1.2a2.734,2.734,0,0,0,1.234.144,2.2,2.2,0,0,0,1.526-.352,3.432,3.432,0,0,0,.577-1.186l.3.035c-.06.339-.33,1.573-.425,1.9h-5.719v-.279c1.091-.068,1.181-.154,1.181-1.475Z" transform="translate(-264.053 -195.023)"/>
        <path id="패스_9414" data-name="패스 9414" class="cls-2" d="M353.384,201.085c0,1.321.095,1.407,1.291,1.475v.279h-3.547v-.279c1.145-.068,1.24-.154,1.24-1.475v-5.706h-.57c-1.079,0-1.406.154-1.586.385a3.278,3.278,0,0,0-.423,1.042h-.31c.054-.74.13-1.517.155-2.132h.168c.178.279.3.3.628.3h4.962c.314,0,.374-.073.564-.3h.175c.013.51.076,1.392.136,2.093l-.311.039a2.323,2.323,0,0,0-.428-1.116c-.206-.227-.584-.311-1.336-.311h-.808Z" transform="translate(-271.684 -194.674)"/>
        <path id="패스_9415" data-name="패스 9415" class="cls-2" d="M367.649,201.433c0,1.321.095,1.407,1.091,1.475v.279h-3.217v-.279c1.015-.068,1.11-.154,1.11-1.475V197.08c0-1.323-.095-1.405-1.066-1.477v-.277h3.07a3.514,3.514,0,0,1,1.913.41,1.76,1.76,0,0,1,.8,1.549,2.263,2.263,0,0,1-1.592,2.115c.218.364.7,1.2,1.071,1.733a11.255,11.255,0,0,0,1.006,1.326,1.606,1.606,0,0,0,.914.611l-.019.229h-.175a2.309,2.309,0,0,1-2.271-1.128c-.374-.543-.888-1.437-1.221-2a.777.777,0,0,0-.765-.437h-.653Zm0-2.055h.7a1.781,1.781,0,0,0,1.211-.327,1.949,1.949,0,0,0,.7-1.6,1.69,1.69,0,0,0-1.824-1.779,2.2,2.2,0,0,0-.682.062c-.07.02-.108.084-.108.325Z" transform="translate(-280.261 -195.023)"/>
        <path id="패스_9416" data-name="패스 9416" class="cls-2" d="M389.277,198.94a4,4,0,0,1-4.063,4.222,3.852,3.852,0,0,1-3.911-4.028,4.068,4.068,0,0,1,4.129-4.2A3.842,3.842,0,0,1,389.277,198.94Zm-4.168-3.608c-1.418,0-2.629,1.174-2.629,3.448,0,2.336,1.217,3.98,2.985,3.98,1.45,0,2.636-1.121,2.636-3.38C388.1,196.77,386.844,195.332,385.108,195.332Z" transform="translate(-288.697 -194.813)"/>
        <path id="패스_9417" data-name="패스 9417" class="cls-2" d="M402.54,201.433c0,1.321.095,1.407,1.272,1.475v.279h-3.379v-.279c.989-.068,1.091-.154,1.091-1.475V197.08c0-1.323-.1-1.405-1.034-1.477v-.277h3.065a3.325,3.325,0,0,1,2.007.5,1.949,1.949,0,0,1,.784,1.659,2.5,2.5,0,0,1-2.369,2.431,4.152,4.152,0,0,1-.546.026l-.891-.23Zm0-2.077a2.576,2.576,0,0,0,.91.142c.759,0,1.755-.4,1.755-1.968,0-1.325-.695-1.856-1.938-1.856a2.037,2.037,0,0,0-.625.062c-.07.02-.1.084-.1.325Z" transform="translate(-298.925 -195.023)"/>
        <path id="패스_9418" data-name="패스 9418" class="cls-2" d="M423.155,198.94a4,4,0,0,1-4.069,4.222,3.854,3.854,0,0,1-3.9-4.028,4.066,4.066,0,0,1,4.127-4.2A3.841,3.841,0,0,1,423.155,198.94ZM419,195.332c-1.43,0-2.639,1.174-2.639,3.448,0,2.336,1.222,3.98,2.985,3.98,1.452,0,2.64-1.121,2.64-3.38C421.982,196.77,420.722,195.332,419,195.332Z" transform="translate(-306.811 -194.813)"/>
        <path id="패스_9419" data-name="패스 9419" class="cls-2" d="M436.447,201.448c0,.723.057,1.067.289,1.185a2.7,2.7,0,0,0,1.136.16,2.074,2.074,0,0,0,1.443-.352,3.682,3.682,0,0,0,.578-1.186l.3.035c-.06.339-.323,1.573-.418,1.9h-5.463v-.279c1.019-.068,1.11-.154,1.11-1.475V197.08c0-1.323-.092-1.405-1.11-1.477v-.277h3.267v.277c-1.04.072-1.136.154-1.136,1.477Z" transform="translate(-317.038 -195.023)"/>
        <path id="패스_9420" data-name="패스 9420" class="cls-2" d="M450.283,201.433c0,1.321.1,1.407,1.085,1.475v.279H448.18v-.279c.993-.068,1.091-.154,1.091-1.475V197.08c0-1.323-.1-1.405-1.091-1.477v-.277h3.188v.277c-.987.072-1.085.154-1.085,1.477Z" transform="translate(-324.451 -195.023)"/>
        <path id="패스_9421" data-name="패스 9421" class="cls-2" d="M460.5,201.085c0,1.321.1,1.407,1.276,1.475v.279h-3.53v-.279c1.129-.068,1.234-.154,1.234-1.475v-5.706H458.9c-1.073,0-1.4.154-1.58.385a3,3,0,0,0-.425,1.042h-.307c.051-.74.123-1.517.148-2.132h.165a.593.593,0,0,0,.638.3H462.5c.314,0,.377-.073.564-.3h.175c.013.51.076,1.392.133,2.093l-.308.039a2.318,2.318,0,0,0-.428-1.116c-.2-.227-.587-.311-1.329-.311H460.5Z" transform="translate(-328.947 -194.674)"/>
        <path id="패스_9422" data-name="패스 9422" class="cls-2" d="M474.535,202.7l.384-.046c.45-.046.494-.181.374-.557-.08-.29-.432-1.234-.777-2.1h-2.453c-.125.314-.431,1.256-.606,1.763-.228.7-.12.86.425.909l.365.034v.279h-2.592V202.7c.783-.082.886-.154,1.311-1.234l2.49-6.421.276-.109.861,2.3c.57,1.533,1.1,3.071,1.573,4.3.39,1.016.545,1.1,1.3,1.161v.279h-2.928Zm-2.313-3.169h2.138l-1.072-2.974h-.019Z" transform="translate(-335.932 -194.813)"/>
        <path id="패스_9423" data-name="패스 9423" class="cls-2" d="M494.293,203.276h-.314l-5.253-6.38h-.032v3.088a18.072,18.072,0,0,0,.1,2.3c.061.424.394.593,1.19.626v.279h-2.908v-.279c.668-.024.982-.2,1.04-.626a17.723,17.723,0,0,0,.1-2.3v-2.625c0-.874-.019-1.064-.238-1.346a1.333,1.333,0,0,0-1.059-.41v-.277h1.773l5.085,6.1h.026v-2.89a20.576,20.576,0,0,0-.089-2.3c-.067-.421-.393-.594-1.19-.629v-.277h2.9v.277c-.665.026-.982.208-1.047.629a20.5,20.5,0,0,0-.088,2.3Z" transform="translate(-345.162 -195.023)"/>
      </g>
      <g id="그룹_6968" data-name="그룹 6968" transform="translate(0 14.221)">
        <path id="패스_9424" data-name="패스 9424" class="cls-2" d="M452,233.837h-.314l-5.253-6.385H446.4v3.089a19.475,19.475,0,0,0,.1,2.3c.067.429.393.6,1.189.635v.277h-2.909v-.277c.676-.024.983-.206,1.041-.635a17.856,17.856,0,0,0,.1-2.3v-2.623c0-.875-.013-1.066-.232-1.343a1.314,1.314,0,0,0-1.056-.412v-.278H446.4l5.091,6.1h.026v-2.9a19.906,19.906,0,0,0-.095-2.3c-.067-.42-.394-.592-1.183-.628v-.278h2.9v.278c-.673.019-.99.208-1.04.628a17.765,17.765,0,0,0-.1,2.3Z" transform="translate(-322.555 -225.58)"/>
        <path id="패스_9425" data-name="패스 9425" class="cls-2" d="M433.852,229.5a4.006,4.006,0,0,1-4.07,4.23,3.863,3.863,0,0,1-3.91-4.04A4.066,4.066,0,0,1,430,225.5,3.845,3.845,0,0,1,433.852,229.5Zm-4.168-3.61c-1.424,0-2.635,1.177-2.635,3.451,0,2.334,1.218,3.986,2.991,3.986,1.45,0,2.636-1.124,2.636-3.386C432.675,227.334,431.42,225.891,429.684,225.891Z" transform="translate(-312.524 -225.373)"/>
        <path id="패스_9426" data-name="패스 9426" class="cls-2" d="M190.289,229.5a4,4,0,0,1-4.067,4.232,3.861,3.861,0,0,1-3.906-4.04,4.069,4.069,0,0,1,4.125-4.2A3.842,3.842,0,0,1,190.289,229.5Zm-4.163-3.61c-1.428,0-2.636,1.179-2.636,3.451,0,2.341,1.223,3.984,2.99,3.984,1.449,0,2.636-1.124,2.636-3.383C189.116,227.327,187.857,225.885,186.126,225.885Z" transform="translate(-182.316 -225.369)"/>
        <path id="패스_9427" data-name="패스 9427" class="cls-2" d="M202.648,227.635c0-1.318-.1-1.4-1.066-1.473v-.278h5.253c.013.2.071,1.083.127,1.767l-.295.033a2.24,2.24,0,0,0-.438-1.11c-.2-.2-.591-.292-1.331-.292h-.872c-.338,0-.363.024-.363.374v2.891h1.318c1.039,0,1.078-.074,1.2-.969h.3v2.389h-.3c-.121-.9-.16-.972-1.2-.972h-1.318v2c0,1.323.1,1.4,1.258,1.483v.277h-3.339v-.277c.97-.078,1.066-.16,1.066-1.483Z" transform="translate(-192.616 -225.58)"/>
        <path id="패스_9428" data-name="패스 9428" class="cls-2" d="M216.039,227.635c0-1.318-.1-1.4-1.064-1.473v-.278h5.246c.016.2.076,1.083.134,1.767l-.3.033a2.173,2.173,0,0,0-.437-1.11c-.189-.2-.586-.292-1.329-.292h-.871c-.339,0-.366.024-.366.374v2.891h1.321c1.041,0,1.079-.074,1.2-.969h.3v2.389h-.3c-.122-.9-.16-.972-1.2-.972h-1.321v2c0,1.323.1,1.4,1.26,1.483v.277h-3.335v-.277c.966-.078,1.064-.16,1.064-1.483Z" transform="translate(-199.776 -225.58)"/>
        <path id="패스_9429" data-name="패스 9429" class="cls-2" d="M230.391,231.992c0,1.323.1,1.4,1.088,1.483v.277H228.29v-.277c.988-.078,1.088-.16,1.088-1.483v-4.356c0-1.318-.1-1.4-1.088-1.473v-.278h3.189v.278c-.991.071-1.088.155-1.088,1.473Z" transform="translate(-206.894 -225.58)"/>
        <path id="패스_9430" data-name="패스 9430" class="cls-2" d="M243.873,227.654a2.073,2.073,0,0,0-2.327-1.769c-2.184,0-3.147,1.648-3.147,3.55,0,2.338,1.194,3.885,3.16,3.885,1.354,0,1.983-.653,2.579-1.925l.3.036c-.162.52-.424,1.491-.618,1.952a10.883,10.883,0,0,1-2.277.343,3.969,3.969,0,0,1-4.348-4.014c0-2.5,1.927-4.223,4.577-4.223a8.939,8.939,0,0,1,2.184.317c.089.665.14,1.2.216,1.826Z" transform="translate(-211.657 -225.369)"/>
        <path id="패스_9431" data-name="패스 9431" class="cls-2" d="M255.137,227.635c0-1.318-.095-1.4-1.066-1.473v-.278h5.3c.013.2.069,1.083.133,1.767l-.3.033a2.2,2.2,0,0,0-.438-1.11c-.19-.2-.59-.292-1.335-.292h-.917c-.339,0-.364.024-.364.374v2.758h1.225c1.04,0,1.077-.073,1.2-.966h.3v2.4h-.3c-.067-.45-.1-.7-.257-.826s-.425-.157-.945-.157h-1.225v2.146c0,.688.076,1.056.308,1.2a2.725,2.725,0,0,0,1.23.145,2.159,2.159,0,0,0,1.523-.352,3.387,3.387,0,0,0,.583-1.184l.3.03c-.063.34-.327,1.576-.422,1.9h-5.723v-.277c1.088-.078,1.183-.16,1.183-1.483Z" transform="translate(-220.615 -225.58)"/>
        <path id="패스_9432" data-name="패스 9432" class="cls-2" d="M284.738,229.5a4,4,0,0,1-4.063,4.232,3.865,3.865,0,0,1-3.914-4.04,4.07,4.07,0,0,1,4.127-4.2A3.846,3.846,0,0,1,284.738,229.5Zm-4.164-3.61c-1.418,0-2.64,1.179-2.64,3.451,0,2.341,1.222,3.984,2.991,3.984,1.452,0,2.633-1.124,2.633-3.383C283.558,227.327,282.308,225.885,280.573,225.885Z" transform="translate(-232.807 -225.369)"/>
        <path id="패스_9433" data-name="패스 9433" class="cls-2" d="M297.1,227.635c0-1.318-.1-1.4-1.066-1.473v-.278h5.252c.019.2.07,1.083.133,1.767l-.307.033a2.155,2.155,0,0,0-.432-1.11c-.19-.2-.59-.292-1.329-.292h-.873c-.339,0-.364.024-.364.374v2.891h1.317c1.047,0,1.078-.074,1.2-.969h.308v2.389h-.308c-.121-.9-.152-.972-1.2-.972H298.11v2c0,1.323.1,1.4,1.259,1.483v.277h-3.34v-.277c.964-.078,1.066-.16,1.066-1.483Z" transform="translate(-243.109 -225.58)"/>
        <path id="패스_9434" data-name="패스 9434" class="cls-2" d="M318.345,227.635c0-1.318-.1-1.4-1.066-1.473v-.278h5.3c.013.2.077,1.083.134,1.767l-.3.033a2.264,2.264,0,0,0-.437-1.11c-.19-.2-.59-.292-1.332-.292h-.92c-.339,0-.359.024-.359.374v2.758h1.219c1.041,0,1.078-.073,1.2-.966h.3v2.4h-.3c-.063-.45-.1-.7-.257-.826s-.425-.157-.945-.157h-1.219v2.146c0,.688.071,1.056.308,1.2a2.693,2.693,0,0,0,1.224.145,2.157,2.157,0,0,0,1.523-.352,3.183,3.183,0,0,0,.583-1.184l.3.03c-.057.34-.32,1.576-.422,1.9h-5.72v-.277c1.085-.078,1.181-.16,1.181-1.483Z" transform="translate(-254.408 -225.58)"/>
        <path id="패스_9435" data-name="패스 9435" class="cls-2" d="M335.148,225.884a4.84,4.84,0,0,1,3.382,1.014,3.473,3.473,0,0,1,1.046,2.563c0,2.994-2.287,4.292-5.129,4.292h-2.784v-.277c1.041-.078,1.136-.16,1.136-1.483v-4.356c0-1.318-.095-1.4-1.034-1.473v-.278ZM333.82,232.2c0,.56.031.8.2.945a1.37,1.37,0,0,0,.864.209,3.288,3.288,0,0,0,3.517-3.578,3.222,3.222,0,0,0-1.478-3.142,4.49,4.49,0,0,0-2.126-.4,2.61,2.61,0,0,0-.872.073c-.076.026-.107.095-.107.34Z" transform="translate(-262.158 -225.58)"/>
        <path id="패스_9436" data-name="패스 9436" class="cls-2" d="M353.659,225.884v.278c-.971.071-1.06.155-1.06,1.473v2.535a4.137,4.137,0,0,0,.5,2.346,1.982,1.982,0,0,0,1.739.839,2.07,2.07,0,0,0,1.786-.915,5.349,5.349,0,0,0,.539-2.687V229.1a19.317,19.317,0,0,0-.088-2.308c-.067-.42-.393-.592-1.2-.628v-.278h2.909v.278c-.669.019-.983.208-1.047.628a20.727,20.727,0,0,0-.089,2.308v.812a4.327,4.327,0,0,1-.92,3.155,3.377,3.377,0,0,1-4.222.251,3.209,3.209,0,0,1-.932-2.727v-2.953c0-1.318-.1-1.4-1.116-1.473v-.278Z" transform="translate(-272.209 -225.58)"/>
        <path id="패스_9437" data-name="패스 9437" class="cls-2" d="M376.525,227.654a2.062,2.062,0,0,0-2.316-1.769c-2.183,0-3.153,1.648-3.153,3.55,0,2.338,1.2,3.885,3.159,3.885,1.355,0,1.983-.653,2.572-1.925l.308.036c-.158.52-.422,1.491-.615,1.952a10.812,10.812,0,0,1-2.272.343,3.969,3.969,0,0,1-4.352-4.014c0-2.5,1.926-4.223,4.575-4.223a8.748,8.748,0,0,1,2.179.317c.1.665.146,1.2.215,1.826Z" transform="translate(-282.578 -225.369)"/>
        <path id="패스_9438" data-name="패스 9438" class="cls-2" d="M390.754,233.264l.387-.051c.441-.049.5-.181.371-.555-.082-.29-.437-1.239-.777-2.108h-2.452c-.12.312-.437,1.257-.608,1.764-.232.707-.118.862.422.914l.368.036v.277h-2.595v-.277c.79-.087.885-.16,1.31-1.237l2.5-6.433.27-.1.865,2.3c.568,1.538,1.107,3.075,1.574,4.311.387,1.017.539,1.1,1.291,1.166v.277h-2.922Zm-2.315-3.177h2.144l-1.066-2.975h-.026Z" transform="translate(-291.138 -225.369)"/>
        <path id="패스_9439" data-name="패스 9439" class="cls-2" d="M404.776,231.643c0,1.323.1,1.4,1.288,1.483v.277h-3.53v-.277c1.129-.078,1.228-.16,1.228-1.483v-5.709H403.2c-1.078,0-1.408.157-1.586.385a3.013,3.013,0,0,0-.425,1.042h-.308c.05-.742.123-1.512.155-2.13h.165c.181.279.3.3.625.3h4.961c.315,0,.378-.079.571-.3h.174c.007.505.07,1.387.127,2.093l-.3.036a2.443,2.443,0,0,0-.431-1.115c-.209-.225-.583-.312-1.335-.312h-.813Z" transform="translate(-299.162 -225.231)"/>
        <path id="패스_9440" data-name="패스 9440" class="cls-2" d="M419.061,231.992c0,1.323.095,1.4,1.085,1.483v.277h-3.2v-.277c.993-.078,1.091-.16,1.091-1.483v-4.356c0-1.318-.1-1.4-1.091-1.473v-.278h3.2v.278c-.99.071-1.085.155-1.085,1.473Z" transform="translate(-307.754 -225.58)"/>
      </g>
    </g>
    <g id="그룹_6971" data-name="그룹 6971" transform="translate(45.354 138.866)">
      <path id="패스_9441" data-name="패스 9441" class="cls-1" d="M45.661,142.315c.007.618.047.814.073,1.432l-.041,1.173c-.09.761-.229,1.533-.271,2.3a6.255,6.255,0,0,0,.17,1.451l-.018,1.873.017,3.307s-.027,1.337-.027,1.6.04.3.309.338a7.049,7.049,0,0,1,1.587.414c.9.271,1.875.806,2.436.966.613.178.778.4,1.385.557s1.243.414,1.851.539a19.4,19.4,0,0,0,2.014.281c.966.095,1.957.523,2.993.653.642.084.645.07,1.289.155.539.076,1,.165,1.51.219.487.049,2.739.025,3.759.084.715.028,1.437.108,2.138.1.5,0,1-.038,1.508-.073.578-.043,2.189.024,2.6.008a11.676,11.676,0,0,0,1.372-.149c.533-.029,2.8-.271,3.446-.394.605-.108,1.246-.323,1.975-.428.545-.083,1.147-.151,1.766-.307s1.3-.361,1.977-.577c.65-.211,1.333-.4,2-.655.654-.239,1.279-.578,1.932-.837.695-.282,1.367-.616,2.027-.9s1.131-.6,1.734-.869c.719-.327,1.963-1,2.436-1.224.778-.36,2.149-.95,2.542-1.076.073-.009.146-.014.213-.019.114-.032.193-.022.179-.213s-.1-1.454-.1-1.454c-.058-.757-.119-1.51-.177-2.265-.033-.432-.066-.867-.091-1.3a4.4,4.4,0,0,1,.145-.99,5.014,5.014,0,0,0,.1-1.137c-.026-.48-.079-.49-.079-.969,0-.347,0,.157.013-.188a4.9,4.9,0,0,1,.335-1.3,3.914,3.914,0,0,0,.078-1.121,6.532,6.532,0,0,0-.128-1.348c-.014-.055-.153-.817-.171-.815l-2.089.113c-.776.043-.8-.087-1.576,0a8.1,8.1,0,0,1-1.213.122c-.538-.024-1.1-.111-1.631-.092-3.751.122-7.218-.267-10.975-.33l-1.791-.016-1.789.082-1.794-.078-1.79-.094c-.8-.006-1.594.195-2.39.127a30.244,30.244,0,0,0-3.026-.059l-1.815.046-1.811.233c-1.882.018-3.784.216-5.662.389a27.929,27.929,0,0,1-4.412-.121c-1.4-.066-3.5-.525-4.95-.272-.09.018-.239.122-.223.225.047.308.117.937.121,1,.038.671.008,1.129.016,1.8Z" transform="translate(-45.388 -138.866)"/>
      <g id="그룹_6970" data-name="그룹 6970" transform="translate(0 18.25)">
        <path id="패스_9442" data-name="패스 9442" class="cls-1" d="M94.511,199.265c-.008-.157-.019-.315-.038-.471-.055-.451-.12-.9-.18-1.348l-.059-1.841.127-1.856c-.284-3.515.165-7.044.165-10.569,0-.073-.167-3.118-.167-3.118s-.033-1.491-.033-1.726.027-.3-.065-.224-1.076.582-1.491.841a2.829,2.829,0,0,0-.5.45c-.106.124-.256.29-.367.412a13.293,13.293,0,0,1-2.509,1.664c-.675.26-1.178.463-1.76.663-.627.213-1.206.6-1.789.8-.669.229-1.4.507-2.037.717-.653.215-1.291.414-1.931.608-.7.2-1.625.406-2.334.587a19.43,19.43,0,0,1-3.137.534c-.059.007-.523.055-.725.071-.094.011-.076.071-.067.107.267,1.139.5,2.3.864,3.419.1.3.2.6.292.9.385,1.269.641,2.461,1.9,3.124a15.067,15.067,0,0,0,5.564,1.058,6.506,6.506,0,0,1,1.889.335c.59.227.679.588.9,1.067a5.028,5.028,0,0,1,.569,1.086c.093.431.173.606.3,1.163.034.152.145.125.177.274a6.766,6.766,0,0,1,.117,1.286c.02.522-.033,1.372-.791,1.226-.376-.073-2.284-.139-2.884-.159s-1.265-.206-1.962-.269c-.649-.055-2.971-.639-3.615-.775-.7-.151-1.381-.332-2.011-.535a9.991,9.991,0,0,1-2.951-1.888,33.562,33.562,0,0,1-1.58-3.054,19.176,19.176,0,0,1-.694-2.078c-.3-.889-.443-1.821-.679-2.726a6.324,6.324,0,0,1-.113-1.261c-.025-.463-.028-.923-.011-1.386,0-.053,0-.156-.049-.149a21.655,21.655,0,0,1-2.757.187c-.067,0-.707-.034-.942-.054a.078.078,0,0,0-.081.071,4.227,4.227,0,0,1-.2.9c-.211.814-.452,1.631-.738,2.422-.132.363-.173.349-.3.717-.184.526-.365,1.276-.671,2.135-.233.647-.507,1.367-.793,2.128-.444,1.132-.356,1.163-.8,2.293-.289.713-.749,1.329-1.063,1.968-.371.752-.685,1.477-1.061,2.1a19.216,19.216,0,0,1-1.315,1.884,5.96,5.96,0,0,1-1.675,1.676,3.281,3.281,0,0,1-2,.157,25.644,25.644,0,0,1-2.593-.874c-.2-.059-.389-.116-.581-.182a2.248,2.248,0,0,1-.427-.14c-.491-.309-.349-1.018.022-1.6a6.308,6.308,0,0,1,1.05-1.077,26.621,26.621,0,0,0,2.338-2.8c.446-.578.86-1.2,1.282-1.871.375-.6,1.755-3.221,2.082-3.941.289-.633.711-1.234,1-1.924.4-.972.807-1.941,1.128-2.944.145-.441.278-.883.431-1.319.02-.063.04-.061-.007-.109a.819.819,0,0,0-.344-.056c-.165,0-.33-.017-.493-.028-.352-.019-.7-.144-1.052-.179-.693-.07-1.4-.107-2.081-.2s-1.664-.363-2.339-.487-1.486-.244-2.151-.4-1.237-.282-1.889-.466c-.714-.195-.636-.412-1.329-.64-.888-.29-2.265-.928-2.715-1.087-.617-.223-.59-.385-1.187-.7-.2-.1-.4-.233-.629-.377-.065-.044-.189-.161-.189.071s.032.574.032.583c.026.264.154.507.162.777.014.48-.089.958-.089,1.437l.054,1.819s-.136,1.807-.138,1.818c-.038.5-.171,1.048-.254,1.557a14.558,14.558,0,0,0,.032,2.879c.043.994.087,1.989.1,2.986q.009.831-.016,1.658l-.035,1.824c-.02.977-.03,1.941.041,2.915.029.368.047.739.046,1.107,0,.5-.01,1.006-.011,1.508l-.074,1.21c-.006.2-.132,1.873-.248,2.631-.035.23-.058.343.338.371,1.176.086,2.262.169,3.443.185,1.761.026,2.774-.108,4.535-.071.531.011,1.061.036,1.589.081l1.779.149c2.965.08,5.938.182,8.9.236l1.783.219,1.779.133,1.788-.046,1.8-.041,1.786.071,1.78.171,1.8-.017c.442,0,.894-.079,1.339-.108.622-.032,1.246-.04,1.869-.036a7.294,7.294,0,0,0,1.8-.344A10.33,10.33,0,0,1,85.348,209c1.025-.059,2.027-.141,3.057-.1s1.316.1,2.352.1c.62,0,1.241-.009,1.86-.034.092,0,1.017-.03,1.5-.048.335-.013.265-.159.248-.276a14.816,14.816,0,0,1-.123-2.575,5.7,5.7,0,0,0,.127-.917c0-.6-.037-1.667-.051-2.265l.155-1.81C94.49,200.464,94.536,199.861,94.511,199.265Z" transform="translate(-45.354 -178.08)"/>
      </g>
      <path id="패스_9443" data-name="패스 9443" class="cls-3" d="M92.185,163.779a.283.283,0,0,0,.121.13,2.087,2.087,0,0,0,.5.195,5.347,5.347,0,0,0,1.327.168,7.18,7.18,0,0,0,1.851-.229,2.468,2.468,0,0,0,1.53-.945,13.249,13.249,0,0,0,.27-1.683c.062-.555.1-1.3.154-1.862.035-.349.079-.694.13-1.041.044-.306.1-.536-.119-.786a2.891,2.891,0,0,0-.579-.454,2.507,2.507,0,0,0-1.437-.364c-.653.16-1.31.32-1.959.482a5.3,5.3,0,0,0-1.089,1.876,14.584,14.584,0,0,0-.622,2.231,5.167,5.167,0,0,0-.127,2A2.19,2.19,0,0,0,92.185,163.779Z" transform="translate(-70.337 -148.511)"/>
      <path id="패스_9444" data-name="패스 9444" class="cls-4" d="M71.793,168.157a1.556,1.556,0,0,0,.47.114,4.38,4.38,0,0,0,1.056.217,3.138,3.138,0,0,0,.623-.16,5.423,5.423,0,0,0,.909-.446,2.366,2.366,0,0,0,.779-.639,1.191,1.191,0,0,0,.27-.345,1.093,1.093,0,0,0-.035-.495c-.054-.408-.074-.82-.133-1.229a14.354,14.354,0,0,0-1.093-2.443,1.661,1.661,0,0,0-.561-.848,3.5,3.5,0,0,0-1.862-.368c-.509-.023-1.921-.158-2.23.423-.247.341,0,1.066.03,1.55a11.977,11.977,0,0,0,.248,1.821,7.745,7.745,0,0,0,.607,1.7A2.943,2.943,0,0,0,71.793,168.157Z" transform="translate(-58.464 -150.958)"/>
      <path id="패스_9445" data-name="패스 9445" class="cls-5" d="M112.134,167.373c.189.161.377.33.566.5a3.4,3.4,0,0,0,1.51.553,2.772,2.772,0,0,0,1.777-1.055c.4-.49,1.044-1.232,1.592-1.987a4.313,4.313,0,0,0,1.007-2.165,1.567,1.567,0,0,0-.968-1.234,13.514,13.514,0,0,0-1.873-.306c-.259-.046-.455-.2-.719-.266-.2-.054-1.431.357-1.541.694-.008.049-.6.918-1.156,1.746a16.126,16.126,0,0,0-.946,1.492,1.644,1.644,0,0,0,.36,1.042A6.2,6.2,0,0,0,112.134,167.373Z" transform="translate(-80.653 -150.916)"/>
    </g>
  </g>
</svg>
