<svg xmlns="http://www.w3.org/2000/svg" width="175.856" height="51.732" viewBox="0 0 175.856 51.732">
  <defs>
    <style>
      .cls-1 {
        fill: #464749;
      }

      .cls-2 {
        fill: #002c52;
      }

      .cls-3 {
        fill: #e5002b;
      }
    </style>
  </defs>
  <g id="그룹_6515" data-name="그룹 6515" transform="translate(-44.088 -7.598)">
    <g id="그룹_6508" data-name="그룹 6508" transform="translate(112.058 23.398)">
      <path id="패스_7570" data-name="패스 7570" class="cls-1" d="M182.854,52.712v-3.1H174.4V47.266h19.585v2.341h-8.479v3.1h6.9V60.14h-2.651V55.029H175.736V52.712Zm9.506-13.495v6.354h-2.651V41.558H175.927V39.217Z" transform="translate(-174.399 -38.525)"/>
      <path id="패스_7571" data-name="패스 7571" class="cls-1" d="M230.168,49.882H218.679v-6.5H227.3V41.259h-8.622V39.014h11.25v6.52h-8.623v2.15h8.861ZM219.873,51h2.6v1.767h11.489V51h2.6v8.264h-16.7Zm14.092,3.917H222.476v2.15h11.489Zm-.047-16.528h2.651V50.287h-2.651Z" transform="translate(-195.583 -38.131)"/>
      <path id="패스_7572" data-name="패스 7572" class="cls-1" d="M268.392,52.712v-3.1h-8.455V47.266h19.585v2.341h-8.479v3.1h6.9V60.14h-2.651V55.029H261.274V52.712ZM277.9,39.217v6.354h-2.651V41.558H261.466V39.217Z" transform="translate(-215.321 -38.525)"/>
      <path id="패스_7573" data-name="패스 7573" class="cls-1" d="M314.9,47.326a5.726,5.726,0,0,1-.525,2.412,6.341,6.341,0,0,1-1.409,1.983,6.665,6.665,0,0,1-2.066,1.361,6.638,6.638,0,0,1-5.064,0,6.658,6.658,0,0,1-2.066-1.361,6.33,6.33,0,0,1-1.409-1.983,5.851,5.851,0,0,1,0-4.848,6.324,6.324,0,0,1,1.409-1.983,6.884,6.884,0,0,1,2.066-1.338,6.644,6.644,0,0,1,5.064,0,6.89,6.89,0,0,1,2.066,1.338,6.335,6.335,0,0,1,1.409,1.983A5.782,5.782,0,0,1,314.9,47.326Zm-2.627,0a3.729,3.729,0,0,0-.31-1.517,4.348,4.348,0,0,0-.836-1.254,4.845,4.845,0,0,0-1.254-.824,3.7,3.7,0,0,0-3.021,0,4.4,4.4,0,0,0-1.242.824,4.526,4.526,0,0,0-.848,1.254,3.73,3.73,0,0,0,0,3.034,4.092,4.092,0,0,0,2.09,2.078,3.7,3.7,0,0,0,3.021,0,4.539,4.539,0,0,0,1.254-.848,4.015,4.015,0,0,0,.836-1.23A3.726,3.726,0,0,0,312.274,47.326Zm6.043-8.933h2.651V59.7h-2.651V48.5H315.5V46.155h2.818Z" transform="translate(-235.365 -38.131)"/>
      <path id="패스_7574" data-name="패스 7574" class="cls-1" d="M359.455,50.955h-5.636v3.224h-2.651V50.955h-5.876V48.614h14.163ZM346.749,59.1v-6.09h2.628v3.773h14.665V59.1Zm10.82-16.265a4.315,4.315,0,0,1-.43,1.911,5.815,5.815,0,0,1-1.122,1.576,5.662,5.662,0,0,1-7.548,0,5.815,5.815,0,0,1-1.122-1.576,4.315,4.315,0,0,1-.43-1.911,4.39,4.39,0,0,1,.43-1.923,5.756,5.756,0,0,1,1.122-1.588,5.661,5.661,0,0,1,7.548,0,5.756,5.756,0,0,1,1.122,1.588A4.39,4.39,0,0,1,357.569,42.834Zm-2.556,0a2.535,2.535,0,0,0-.824-1.923,2.83,2.83,0,0,0-3.894,0,2.535,2.535,0,0,0-.824,1.923,2.508,2.508,0,0,0,.824,1.9,2.83,2.83,0,0,0,3.894,0A2.508,2.508,0,0,0,355.013,42.834Zm6.139-4.681h2.627V54.418h-2.627V46.56H358.19V44.267h2.962Z" transform="translate(-256.155 -37.89)"/>
    </g>
    <g id="그룹_6514" data-name="그룹 6514" transform="translate(44.088 7.598)">
      <g id="그룹_6513" data-name="그룹 6513">
        <g id="그룹_6512" data-name="그룹 6512">
          <g id="그룹_6511" data-name="그룹 6511">
            <g id="그룹_6509" data-name="그룹 6509">
              <path id="패스_7575" data-name="패스 7575" class="cls-2" d="M84.025,32.286A9.326,9.326,0,0,0,70.759,35.07,9.335,9.335,0,0,1,53.883,32.5h0c-.007-.034-.016-.063-.027-.1s-.019-.078-.031-.119a11.985,11.985,0,0,1-.478-3.71c0-8.366,8.583-17.681,20.947-17.681,12.66,0,19.905,9.639,21.77,14.994-.031-.094-.061-.188-.093-.284a26.662,26.662,0,0,0-51.881,8.649c0,13.16,9.492,24.426,22.657,24.426,10.5,0,17.56-5.888,20.8-14A10.274,10.274,0,0,0,84.025,32.286Z" transform="translate(-44.088 -7.598)"/>
            </g>
            <g id="그룹_6510" data-name="그룹 6510" transform="translate(9.257 3.299)">
              <path id="패스_7576" data-name="패스 7576" class="cls-3" d="M104.72,29.436c-1.557-5.225-8.856-15.514-21.937-15.514-12.364,0-20.947,9.315-20.947,17.681a11.985,11.985,0,0,0,.478,3.71,7.845,7.845,0,0,1-.246-1.9c0-8.713,8.724-14.751,17.693-14.751a21.982,21.982,0,0,1,21.983,21.98A24.231,24.231,0,0,1,88.307,62.35l0,.006a26.668,26.668,0,0,0,17.581-25.075A26.351,26.351,0,0,0,104.72,29.436Z" transform="translate(-61.835 -13.922)"/>
            </g>
          </g>
        </g>
      </g>
    </g>
  </g>
</svg>
