<svg xmlns="http://www.w3.org/2000/svg" xmlns:xlink="http://www.w3.org/1999/xlink" width="159.626" height="39.125" viewBox="0 0 159.626 39.125">
  <defs>
    <style>
      .cls-1 {
        fill: #0d3662;
      }

      .cls-2, .cls-3, .cls-4 {
        fill-rule: evenodd;
      }

      .cls-2 {
        fill: url(#linear-gradient);
      }

      .cls-3 {
        fill: url(#linear-gradient-2);
      }

      .cls-4 {
        fill: url(#linear-gradient-3);
      }
    </style>
    <linearGradient id="linear-gradient" x1="0.346" y1="0.695" x2="0.726" y2="0.41" gradientUnits="objectBoundingBox">
      <stop offset="0" stop-color="#4c9dd9"/>
      <stop offset="1" stop-color="#11345e"/>
    </linearGradient>
    <linearGradient id="linear-gradient-2" x1="0.713" y1="0.343" x2="0.505" y2="0.707" xlink:href="#linear-gradient"/>
    <linearGradient id="linear-gradient-3" x1="0.5" y1="0.713" x2="0.5" y2="0.359" xlink:href="#linear-gradient"/>
  </defs>
  <g id="그룹_7017" data-name="그룹 7017" transform="translate(-819.275 -313.066)">
    <g id="그룹_7015" data-name="그룹 7015" transform="translate(865.686 323.479)">
      <g id="그룹_7010" data-name="그룹 7010" transform="translate(28.253)">
        <path id="패스_9654" data-name="패스 9654" class="cls-1" d="M884.21,333.337c5.27,0,10.567-2.287,10.567-6.506s-5.3-6.5-10.567-6.5-10.567,2.281-10.567,6.5S878.937,333.337,884.21,333.337Zm0-10.18c3.523,0,6.015,1.771,6.015,3.674s-2.492,3.674-6.015,3.674-6.018-1.769-6.018-3.674S880.685,323.157,884.21,323.157Z" transform="translate(-870.346 -320.328)"/>
        <path id="패스_9655" data-name="패스 9655" class="cls-1" d="M871.344,333.4h11.719v7.21h4.272V333.4h11.651v-3.091H871.344Z" transform="translate(-871.344 -315.995)"/>
      </g>
      <g id="그룹_7011" data-name="그룹 7011" transform="translate(86.502 0.897)">
        <path id="패스_9656" data-name="패스 9656" class="cls-1" d="M929.037,332.292h4.3V320.954h-4.3v3.689h-4.885V327.6h4.885Z" transform="translate(-906.676 -320.954)"/>
        <path id="패스_9657" data-name="패스 9657" class="cls-1" d="M921.121,326.936c1.6,2.567,5.007,4.279,7.953,5.03l1.2-2.762c-4.594-1.649-6.362-4.272-6.909-8.251h-4.528c-.546,3.979-2.28,6.6-6.873,8.251l1.2,2.762C916.109,331.215,919.515,329.717,921.121,326.936Z" transform="translate(-911.965 -320.953)"/>
        <path id="패스_9658" data-name="패스 9658" class="cls-1" d="M919.7,338.139V336.4h17.474v-6.821H915.383v2.792h17.478v1.47H915.383v4.27a2.8,2.8,0,0,0,2.8,2.786h19.011v-2.762Z" transform="translate(-910.482 -317.209)"/>
      </g>
      <g id="그룹_7013" data-name="그룹 7013" transform="translate(57.195 0.93)">
        <g id="그룹_7012" data-name="그룹 7012" transform="translate(4.425)">
          <path id="패스_9659" data-name="패스 9659" class="cls-1" d="M908.225,340.269h4.335V320.977h-4.335v5.048h-4.854v3.445h4.854Z" transform="translate(-890.812 -320.977)"/>
          <path id="패스_9660" data-name="패스 9660" class="cls-1" d="M898.939,337.253v-6.334h-4.326v6.621a2.8,2.8,0,0,0,2.795,2.795H916.4v-3.082Z" transform="translate(-894.613 -316.662)"/>
        </g>
        <path id="패스_9661" data-name="패스 9661" class="cls-1" d="M893.542,321.3v3.112h9.177c-.694,3.922-6.309,6.375-11.192,7.148l1.331,2.732c5.765-.824,10.3-2.921,12.735-5.868a9.915,9.915,0,0,0,2.365-7.124Z" transform="translate(-891.527 -320.838)"/>
      </g>
      <g id="그룹_7014" data-name="그룹 7014" transform="translate(0 0.914)">
        <path id="패스_9662" data-name="패스 9662" class="cls-1" d="M851.641,336.568a2.85,2.85,0,0,0,2.854,2.793H865.31v-3.083h-9.295V324.455h8.316v-3.169H851.641Z" transform="translate(-851.641 -320.826)"/>
        <path id="패스_9663" data-name="패스 9663" class="cls-1" d="M862.092,344.67h4.1v-13.2h2.194v13.2h4.1v-23.7h-4.1v7.091h-2.194v-7.091h-4.1Z" transform="translate(-847.106 -320.965)"/>
      </g>
    </g>
    <g id="그룹_7016" data-name="그룹 7016" transform="translate(819.275 313.066)">
      <path id="패스_9664" data-name="패스 9664" class="cls-2" d="M822.169,317.038a6.646,6.646,0,0,1-1.513-.895c-.384-.314-.82-.677.162-1.189,1.3-.675,5.945-1.673,10.7-1.863a22.352,22.352,0,0,1,12.765,2.9c3.265,2.055,3.367,3.49,3.565,4.278a12.588,12.588,0,0,1-.067,4.923,25.9,25.9,0,0,0-7.021-6.025,20.826,20.826,0,0,0-12.322-2.987A30.685,30.685,0,0,0,822.169,317.038Z" transform="translate(-818.865 -313.066)"/>
      <path id="패스_9665" data-name="패스 9665" class="cls-3" d="M846.157,316.609c3.936,3.044,6.269,7.4,6.651,10.359.988,7.646-4.277,16.724-13.977,21.353-8.662,4.133-12.91,1.655-14.378.981a23.113,23.113,0,0,0,8.178-4.077,44.151,44.151,0,0,0,12.814-16.341C848.908,320.653,846.157,316.609,846.157,316.609Z" transform="translate(-817.028 -311.529)"/>
      <path id="패스_9666" data-name="패스 9666" class="cls-4" d="M819.92,315.137c.3.7,1.609,1.448,2.019,1.728.82.559,3.307,1.932,4.923,3.2a20.3,20.3,0,0,1,6.444,9.334c1.6,5.278,1.149,11.562.806,15.213a19.751,19.751,0,0,1-7.155,3.672c-2.813.81-4.371-.161-4.438-3.08a21.15,21.15,0,0,1,1.708-7.652c.713-1.778,2.058-5.691,1.815-9.12-.232-3.307-2.216-5.988-4.2-8.294-1.749-2.036-2.654-2.532-2.565-3.414A3.544,3.544,0,0,1,819.92,315.137Z" transform="translate(-819.275 -312.168)"/>
    </g>
  </g>
</svg>
