<svg xmlns="http://www.w3.org/2000/svg" width="225.183" height="50.414" viewBox="0 0 225.183 50.414">
  <defs>
    <style>
      .cls-1 {
        fill: #13007c;
      }

      .cls-2 {
        fill: #fff;
      }

      .cls-3 {
        fill: #00a0c6;
      }
    </style>
  </defs>
  <g id="그룹_6883" data-name="그룹 6883" transform="translate(-7.25 -421)">
    <g id="그룹_6885" data-name="그룹 6885">
      <path id="패스_8890" data-name="패스 8890" class="cls-1" d="M57.664,446.207h0l-.127,2.546-.382,2.546-.637,2.419-.891,2.292-1.018,2.164-1.273,2.164-1.4,1.91L50.28,464.03,48.5,465.685l-1.91,1.4-2.164,1.273-2.164,1.018-2.292.891-2.419.637L35,471.287l-2.546.127h0l-2.546-.127-2.546-.382-2.419-.637-2.292-.891-2.164-1.018-2.164-1.273-1.91-1.4-1.782-1.655-1.655-1.782-1.4-1.91-1.273-2.164L9.287,456.01,8.4,453.718,7.759,451.3l-.382-2.546-.127-2.546h0l.127-2.546.382-2.546L8.4,438.7l.891-2.292,1.018-2.164,1.273-2.164,1.4-1.91,1.655-1.782,1.782-1.655,1.91-1.4,2.164-1.273,2.164-1.018,2.292-.891,2.419-.637,2.546-.382L32.457,421h0l2.546.127,2.546.382,2.419.637,2.292.891,2.164,1.018,2.164,1.273,1.91,1.4,1.782,1.655,1.655,1.782,1.4,1.91,1.273,2.164,1.018,2.164.891,2.292.637,2.419.382,2.546.127,2.546Z"/>
      <path id="패스_8891" data-name="패스 8891" class="cls-2" d="M41,499.326v-7h0l.637-.637.764-.637,1.146-.764,1.4-.764,1.782-.637.891-.255,1.146-.127,1.146-.127,1.273-.127v6.111h0l-1.4.382-1.4.382-1.655.509-1.782.637-1.655.891-.764.509-.637.509-.509.509-.382.637Z" transform="translate(-16.564 -33.004)"/>
      <path id="패스_8892" data-name="패스 8892" class="cls-2" d="M41,469.076v-7h0l.637-.637.764-.637,1.146-.764,1.4-.764,1.782-.637.891-.255,1.146-.255L49.912,458h1.273v6.111h0l-1.4.255-1.4.382-1.655.509-1.782.764-1.655.764-.764.509-.637.509-.509.637-.382.637Z" transform="translate(-16.564 -18.158)"/>
      <path id="패스_8893" data-name="패스 8893" class="cls-2" d="M41,438.326v-7h0l.637-.637.764-.637,1.146-.764,1.4-.764,1.782-.637.891-.255,1.146-.127,1.146-.127,1.273-.127v6.111h0l-1.4.382-1.4.382-1.655.509-1.782.637-1.655.891-.764.509-.637.509-.509.509-.382.637Z" transform="translate(-16.564 -3.067)"/>
      <path id="패스_8894" data-name="패스 8894" class="cls-3" d="M30.317,484.585V477.2h0l-.509-.509-.637-.509-.891-.509-1.4-.637-1.91-.764-2.292-.637L19.75,473v6.238h0l1.018.255,1.273.255,1.4.382,1.655.637,1.782.891.891.637.891.637.764.764.891.891Z" transform="translate(-6.135 -25.521)"/>
      <path id="패스_8895" data-name="패스 8895" class="cls-3" d="M30.317,454.085V446.7h0l-.509-.509-.637-.509-.891-.509-1.4-.637-1.91-.764-2.292-.637L19.75,442.5v6.238h0l1.018.255,1.273.255,1.4.382,1.655.637,1.782.891.891.637.891.637.764.764.891.891Z" transform="translate(-6.135 -10.552)"/>
    </g>
    <g id="그룹_6886" data-name="그룹 6886" transform="translate(0 1)">
      <path id="패스_8896" data-name="패스 8896" d="M132,449.254v-14h8.148v2.292H134.8v9.421h5.856v2.292Zm13.749,8.4v-14h-1.655v14h-2.673V435.25h2.673v6.111h1.655V435.25h2.673v22.406Z" transform="translate(-61.223 -6.994)"/>
      <path id="패스_8897" data-name="패스 8897" d="M179.93,447.6l-3.565-7.129-3.565,7H170l4.965-9.93h-4.328V435.25h11.458v2.292h-4.328l5.092,10.057Zm-7.638,10.057v-8.4h2.673v6.238h12.6v2.164Zm11.967-5.092V442.125h-3.31v-2.292h3.31V435.25h2.8v17.314Z" transform="translate(-79.873 -6.994)"/>
      <path id="패스_8898" data-name="패스 8898" d="M210.25,446.453v-2.292h3.31v-4.328h2.673v4.328h7.257v2.292Zm8.784-3.31v-5.6h-8.275V435.25h11.076v7.893Zm5.347,13.877h0l-.891.764-1.018.509-1.146.255-1.146.127h0l-1.273-.127-1.146-.255-1.018-.509-.891-.764h0l-.764-.891-.509-.891-.382-1.018-.127-1.146h0l.127-1.146.382-1.018.509-.891.764-.891h0l.891-.637,1.018-.509,1.146-.382,1.273-.127h0l1.146.127,1.146.382,1.018.509.891.637h0l.764.891.637.891.255,1.018.127,1.146h0l-.127,1.146-.255,1.018-.637.891-.764.891Zm-1.91-6.238h0l-.509-.382-.637-.382-.509-.127-.637-.127h0l-.764.127-.509.127-.637.382-.509.382h0l-.382.509-.255.509-.255.637v.637h0v.637l.255.637.255.509.382.509h0l.509.509.637.255.509.127.764.127h0l.637-.127.509-.127.637-.255.509-.509h0l.382-.509.255-.509.127-.637.127-.637h0l-.127-.637-.127-.637-.255-.509-.382-.509Zm4.2-8.148v4.838H224V435.25h2.673v5.092h2.164v2.292Z" transform="translate(-99.627 -6.994)"/>
      <path id="패스_8899" data-name="패스 8899" d="M260.685,444.68h0l-.891.764-1.018.509-1.146.382-1.146.127h0l-1.273-.127-1.018-.382-1.018-.509-.891-.764h0l-.891-.891-.509-.891-.255-1.146-.127-1.146h0l.127-1.146.255-1.146.509-.891.891-.891h0l.891-.764,1.018-.509,1.018-.382,1.273-.127h0l1.146.127,1.146.382,1.018.509.891.764h0l.764.891.509.891.382,1.146.127,1.146h0l-.127,1.146-.382,1.146-.509.891-.764.891Zm4.074,12.731v-6.62H252.282V448.5h15.277v8.912Zm-5.983-19.223h0l-.509-.382-.509-.255-.637-.255h-1.273l-.637.255-.637.255-.509.382h0l-.382.509-.382.637-.127.637-.127.637h0l.127.637.127.637.382.509.382.637h0l.509.382.637.255.637.255h1.273l.637-.255.509-.255.509-.382h0l.509-.637.255-.509.127-.637.127-.637h0l-.127-.637-.127-.637-.255-.637-.509-.509Zm5.983,9.166v-2.8h-2.546v-2.292h2.546v-3.31h-2.546v-2.164h2.546V435h2.673v12.349Z" transform="translate(-119.379 -6.748)"/>
      <path id="패스_8900" data-name="패스 8900" d="M300.062,449.254l-3.692-10.185-3.692,10.185H289.75l5.092-14h2.928l5.092,14Zm4.328,8.4V435.25h2.8v22.406Z" transform="translate(-138.643 -6.994)"/>
      <path id="패스_8901" data-name="패스 8901" d="M331.75,454.855v-2.292h2.673v-9.421h2.8v9.421H339.9v-9.421h2.8v9.421h6.747v2.292Zm13.877-5.347V437.542H332.768V435.25H348.3v14.258Z" transform="translate(-159.254 -6.994)"/>
      <path id="패스_8902" data-name="패스 8902" d="M385.622,447.377v1.655h2.292V456.8H385.24v-5.474H373.655v-2.292h2.419v-1.655H372v-2.292h17.568v2.292Zm-.637-4.71h0l-.891.764-1.018.509-1.018.255-1.146.127h0l-1.146-.127-1.146-.255-.891-.509-.891-.764h0l-.764-.764-.509-.891-.382-1.018-.127-1.146h0l.127-1.018.382-1.018.509-.891.764-.891h0l.891-.637.891-.509,1.146-.255,1.146-.127h0l1.146.127,1.018.255,1.018.509.891.637h0l.764.891.509.891.255,1.018.127,1.018h0l-.127,1.146-.255,1.018-.509.891-.764.764Zm-1.91-5.856h0l-.382-.509-.637-.255-.509-.127h-1.273l-.637.127-.509.255-.382.509h0l-.509.382-.255.509-.127.637-.127.509h0l.127.637.127.509.255.509.509.509h0l.382.382.509.255.637.255h1.273l.509-.255.637-.255.382-.382h0l.509-.509.255-.509.127-.509.127-.637h0l-.127-.509-.127-.637-.255-.509-.509-.382Zm-.127,10.567h-4.074v1.655h4.074v-1.655Z" transform="translate(-179.008 -6.135)"/>
      <path id="패스_8903" data-name="패스 8903" d="M420.925,446.722l-3.437-5.856-3.437,5.856h-2.8l4.838-8.4h-4.328v-2.292h4.456V434.5h2.673v1.528h4.456v2.292h-4.456l4.965,8.4Zm4.328,9.93h0l-.891.764-1.018.509-1.018.255-1.273.127h0l-1.146-.127-1.018-.255-1.018-.509-.891-.764h0l-.764-.764-.637-1.018-.255-1.018-.127-1.018h0l.127-1.146.255-1.018.637-.891.764-.891h0l.891-.637,1.018-.509,1.018-.255,1.146-.127h0l1.273.127,1.018.255,1.018.509.891.637h0l.764.891.509.891.382,1.018.127,1.146h0l-.127,1.018-.382,1.018-.509,1.018-.764.764Zm-2.037-6.111h0l-.382-.382-.509-.255-.637-.127-.637-.127h0l-.637.127-.509.127-.509.255-.509.382h0l-.382.509-.255.509L418,452.2v.637h0v.637l.255.509.255.509.382.509h0l.509.509.509.255.509.127.637.127h0l.637-.127.637-.127.509-.255.382-.509h0l.382-.509.382-.509.127-.509v-.637h0V452.2l-.127-.637-.382-.509-.382-.509Zm2.292-2.673v-5.6h-3.565V440.1h3.565v-5.22h2.673v12.985Z" transform="translate(-198.271 -6.626)"/>
    </g>
    <g id="그룹_6884" data-name="그룹 6884" transform="translate(0.609 1.681)">
      <path id="패스_8904" data-name="패스 8904" d="M133.891,502.836h0l-.17.593-.17.254-.17.169-.254.17-.254.085-.678.085h-1.7V497.75h1.7l.593.085.509.17.339.339.17.424h0l.254,1.017.085.932h0v.932l-.254,1.187Zm-.509-1.7h0v-.17h0l-.085-.932-.085-.763h0l-.17-.339-.254-.254-.339-.085-.424-.085h-.763v4.916h.932l.424-.085.254-.085.17-.254.17-.339h0l.17-.763v-.593h0v-.169Z" transform="translate(-60.486 -37.752)"/>
      <path id="패스_8905" data-name="패스 8905" d="M146.056,504.192l-.424-1.865h-1.7l-.424,1.865h-.763l1.61-6.442h.932l1.61,6.442Zm-1.271-5.594-.678,3.051h1.356l-.678-3.051Z" transform="translate(-68.584 -37.752)"/>
      <path id="패스_8906" data-name="패스 8906" d="M157.513,498.513v1.95h2.034v.678h-2.034v2.289h2.2v.763H156.75V497.75h2.967v.763Z" transform="translate(-77.836 -37.752)"/>
      <path id="패스_8907" data-name="패스 8907" d="M169.293,503.683h0l-.17.254-.17.254-.339.085h-.848l-.339-.085-.254-.17-.17-.17h0l-.17-.593-.085-.763h0v-.169h0v-.254h.763v1.1h0l.085.17.085.085.17.085.17.085h0l.254-.085.254-.085h0l.085-.169v-.17l.085-.509V497.75h.763v4.408h0l-.085.848-.085.678Z" transform="translate(-84.446 -37.752)"/>
      <path id="패스_8908" data-name="패스 8908" d="M178.763,498.513v1.95H180.8v.678h-2.034v2.289h2.2v.763H178V497.75h2.967v.763Z" transform="translate(-91.882 -37.752)"/>
      <path id="패스_8909" data-name="패스 8909" d="M192.395,502.925h0l-.254.509-.17.254-.17.17-.509.17-.593.085h-.593l-.424-.169-.339-.339-.254-.424h0l-.17-.509-.085-.593-.085-.593v-.763h0l.17-1.95h0l.085-.254.085-.254.17-.254.254-.17.17-.169.339-.085.678-.085h0l.593.085.424.169.339.339.254.509h0l.254,1.1.085,1.1h0v.085h0v.085h0l-.085.848-.17,1.1Zm-.593-1.865h0v-.339h0v-.932l-.17-.848h0l-.17-.254-.17-.254-.339-.169h-.678l-.254.169-.254.254-.085.339h0l-.17.848-.085.848h0l.17,1.526h0l.085.509.17.424.339.17.509.085h.339l.254-.169.254-.17.085-.339h0l.17-.678V501.4h0v-.339Z" transform="translate(-98.987 -37.587)"/>
      <path id="패스_8910" data-name="패스 8910" d="M205.458,504.192l-1.7-5.51v5.51H203V497.75h1.187l1.7,5.51v-5.51h.763v6.442Z" transform="translate(-108.406 -37.752)"/>
      <path id="패스_8911" data-name="패스 8911" d="M232.569,504.192V498.6l-1.271,5.594h-.763l-1.356-5.594v5.594H228.5V497.75h1.271l1.1,5.425,1.187-5.425h1.187v6.442Z" transform="translate(-125.26 -37.752)"/>
      <path id="패스_8912" data-name="패스 8912" d="M246.513,498.513v1.95h2.034v.678h-2.034v2.289h2.2v.763H245.75V497.75h2.967v.763Z" transform="translate(-136.662 -37.752)"/>
      <path id="패스_8913" data-name="패스 8913" d="M257.7,498.6v5.594h-.763V498.6H255.5v-.848h3.645v.848Z" transform="translate(-143.106 -37.752)"/>
      <path id="패스_8914" data-name="패스 8914" d="M271.132,504.192h0l-.085-.424-.085-.424v-.932h0v-.424l-.17-.339-.254-.169-.424-.085h-1.1v2.8h-.763V497.75h1.78l.593.085.509.254h0l.254.17.17.254.169.424v.424h0v.085h0v.085h0v.509l-.254.424h0l-.254.254-.339.254h0l.424.17h0l.17.169.17.424h0l.085,1.271h0l.085.678.085.169h.085v.339Zm-.17-4.662h0v-.085h0l-.085-.424-.17-.254h0l-.339-.17-.509-.085h-.848v2.119h1.017l.424-.085.254-.17h0l.254-.339v-.424h0v-.085Z" transform="translate(-151.534 -37.752)"/>
      <path id="패스_8915" data-name="패스 8915" d="M284.81,502.925h0l-.17.509-.17.254-.17.17-.509.17-.678.085h-.509l-.424-.169-.339-.339-.254-.424h0l-.169-.509-.085-.593-.085-.593v-.763h0l.17-1.95h0l.085-.254.085-.254.17-.254.17-.17.254-.169.254-.085.678-.085h0l.593.085.509.169.339.339.169.509h0l.254,1.1.085,1.1h0v.085h0v.085h0v.848l-.254,1.1Zm-.509-1.865h0v-.339h0l-.085-.932-.085-.848h0l-.17-.254-.17-.254-.339-.169h-.678l-.254.169-.254.254-.085.339h0l-.17.848-.085.848h0l.085,1.526h0l.17.509.17.424.339.17.424.085h.424l.254-.169.17-.17.17-.339h0l.169-.678V501.4h0v-.339Z" transform="translate(-160.125 -37.587)"/>
      <path id="패스_8916" data-name="패스 8916" d="M298.886,500.971h0l-.254.254-.254.17-.339.085h-1.526v2.712h-.763V497.75h1.7l.593.085.593.254h0l.254.254.169.339.085.424.085.593h0l-.085.678-.254.593Zm-.763-2.119h0l-.254-.17-.424-.085h-.932v2.2h.848l.424-.085.339-.17h0l.169-.17.085-.169v-.593h0v-.424l-.254-.339Z" transform="translate(-169.71 -37.752)"/>
      <path id="패스_8917" data-name="패스 8917" d="M312.145,502.925h0l-.254.509-.17.254-.17.17-.509.17-.593.085h-.593l-.424-.169-.339-.339-.254-.424h0l-.169-.509-.085-.593-.085-.593v-.763h0l.17-1.95h0l.085-.254.085-.254.17-.254.17-.17.254-.169.339-.085.678-.085h0l.593.085.424.169.339.339.254.509h0l.254,1.1.085,1.1h0v.085h0v.085h0l-.085.848-.17,1.1Zm-.593-1.865h0v-.339h0v-.932l-.17-.848h0l-.17-.254-.17-.254-.339-.169h-.678l-.254.169-.254.254-.085.339h0l-.17.848-.085.848h0l.17,1.526h0l.085.509.17.424.339.17.509.085h.339l.254-.169.254-.17.085-.339h0l.17-.678V501.4h0v-.339Z" transform="translate(-178.136 -37.587)"/>
      <path id="패스_8918" data-name="패스 8918" d="M323,504.192V497.75h.763v5.679h2.289v.763Z" transform="translate(-187.72 -37.752)"/>
      <path id="패스_8919" data-name="패스 8919" d="M334.5,504.192V497.75h.763v6.442Z" transform="translate(-195.321 -37.752)"/>
      <path id="패스_8920" data-name="패스 8920" d="M341.2,498.6v5.594h-.763V498.6H339v-.848h3.645v.848Z" transform="translate(-198.295 -37.752)"/>
      <path id="패스_8921" data-name="패스 8921" d="M353.391,504.192l-.424-1.865h-1.7l-.424,1.865H350l1.7-6.442h.932l1.61,6.442Zm-1.271-5.594-.678,3.051H352.8l-.678-3.051Z" transform="translate(-205.566 -37.752)"/>
      <path id="패스_8922" data-name="패스 8922" d="M366.708,504.192l-1.7-5.51v5.51h-.763V497.75h1.1l1.7,5.51v-5.51h.763v6.442Z" transform="translate(-214.985 -37.752)"/>
      <path id="패스_8923" data-name="패스 8923" d="M392.895,502.925h0l-.254.509-.17.254-.17.17-.509.17-.593.085h-.593l-.424-.169-.339-.339-.254-.424h0l-.169-.509-.085-.593-.085-.593v-.763h0l.254-1.95h0v-.254l.17-.254.085-.254.254-.17.17-.169.339-.085.678-.085h0l.593.085.424.169.339.339.254.509h0l.254,1.1.085,1.1h0v.085h0v.085h0l-.085.848-.17,1.1Zm-.593-1.865h0v-.339h0v-.932l-.17-.848h0l-.085-.254-.254-.254-.254-.169h-.763l-.254.169-.169.254-.17.339h0l-.17.848v.848h0l.085,1.526h0l.085.509.17.424.339.17.509.085h.339l.254-.169.254-.17.085-.339h0l.17-.678V501.4h0v-.339Z" transform="translate(-231.509 -37.587)"/>
      <path id="패스_8924" data-name="패스 8924" d="M404.263,498.513v1.95h1.865v.678h-1.865v3.051H403.5V497.75h2.8v.763Z" transform="translate(-240.926 -37.752)"/>
      <path id="패스_8925" data-name="패스 8925" d="M414.763,498.513v1.95h1.865v.678h-1.865v3.051H414V497.75h2.8v.763Z" transform="translate(-247.867 -37.752)"/>
      <path id="패스_8926" data-name="패스 8926" d="M425,504.192V497.75h.678v6.442Z" transform="translate(-255.138 -37.752)"/>
      <path id="패스_8927" data-name="패스 8927" d="M433.386,503.268h0l-.254.339-.254.17-.339.17h-.424l-.593-.085-.424-.17-.339-.254-.254-.424h0l-.085-.509-.085-.509-.085-1.271h0v-1.1l.17-1.1h0l.254-.593.339-.339.424-.254.678-.085h.254l.339.085.254.17.254.169h0l.254.254.17.339.085.424v.593h0v.085h0v.085h-.678v-.509l-.17-.509h0l-.085-.169-.169-.17-.254-.085h-.339l-.339.085-.254.17-.17.254-.085.424h0l-.17.848v.678h0v.17h0v.085h0v.848l.17.848h0l.085.339.17.254.254.17.339.085h0l.339-.085.254-.085.169-.254.085-.254h0l.085-.593.085-.593h.678v.17h0v.085h0l-.085.848-.085.424-.17.339Z" transform="translate(-258.607 -37.422)"/>
      <path id="패스_8928" data-name="패스 8928" d="M444.013,498.513v1.95h2.034v.678h-2.034v2.289h2.2v.763H443.25V497.75h2.967v.763Z" transform="translate(-267.199 -37.752)"/>
      <path id="패스_8929" data-name="패스 8929" d="M469.145,502.925h0l-.254.509-.085.254-.254.17-.424.17-.678.085h-.509l-.509-.169-.339-.339-.17-.424h0l-.17-.509-.169-.593-.085-.593v-.763h0l.254-1.95h0v-.254l.17-.254.17-.254.169-.17.254-.169.254-.085.678-.085h0l.593.085.424.169.339.339.254.509h0l.254,1.1.085,1.1h0v.085h0v.085h0l-.085.848-.17,1.1Zm-.509-1.865h0l-.085-.339h0v-.932l-.17-.848h0l-.085-.254-.254-.254-.254-.169h-.763l-.254.169-.169.254-.17.339h0l-.169.848v.848h0l.085,1.526h0l.085.509.254.424.339.17.424.085h.339l.339-.169.17-.17.085-.339h0l.17-.678.085-.678h0v-.339Z" transform="translate(-281.905 -37.587)"/>
      <path id="패스_8930" data-name="패스 8930" d="M480.513,498.513v1.95h1.95v.678h-1.95v3.051h-.763V497.75h2.8v.763Z" transform="translate(-291.324 -37.752)"/>
      <path id="패스_8931" data-name="패스 8931" d="M502.678,498.513v1.95H504.8v.678h-2.119v2.289h2.2v.763H502V497.75h2.967v.763Z" transform="translate(-306.031 -37.752)"/>
      <path id="패스_8932" data-name="패스 8932" d="M516.641,502.836h0l-.254.593-.17.254-.169.169-.254.17-.254.085-.678.085h-1.61V497.75h1.7l.593.085.424.17.339.339.254.424h0l.254,1.017.085.932h0l-.085.932-.17,1.187Zm-.593-1.7h0v-.17h0v-.932l-.17-.763h0l-.085-.339-.254-.254-.339-.085-.424-.085h-.848v4.916h1.017l.339-.085.339-.085.169-.254.085-.339h0l.17-.763.085-.593h0l-.085-.169Z" transform="translate(-313.467 -37.752)"/>
      <path id="패스_8933" data-name="패스 8933" d="M530.221,503.683h0l-.169.254-.339.254-.424.085h-1.017l-.424-.085-.339-.17-.169-.254h0l-.17-.254-.085-.339-.085-.848V497.75h.678v4.577h0l.085.593.085.254.085.085h0l.339.254.424.085h0l.509-.085.17-.169.169-.17h0l.17-.424v-5h.763v4.831h0l-.085.509-.17.593Z" transform="translate(-322.555 -37.752)"/>
      <path id="패스_8934" data-name="패스 8934" d="M543.386,503.268h0l-.254.339-.254.17-.339.17h-.424l-.593-.085-.424-.17-.339-.254-.169-.424h0l-.17-.509-.085-.509-.085-1.271h0v-1.1l.254-1.1h0l.169-.593.339-.339.424-.254.678-.085h.254l.339.085.254.17.254.169h0l.254.254.169.339.085.424.085.593h0v.085h0l-.085.085h-.678v-.509l-.17-.509h0l-.085-.169-.169-.17-.254-.085h-.339l-.339.085-.254.17-.17.254-.085.424h0l-.169.848v.678h0v.17h0v.085h0v.848l.169.848h0l.085.339.17.254.254.17.339.085h0l.339-.085.254-.085.169-.254.085-.254h0l.085-.593.085-.593h.678l.085.17h0v.085h0l-.169.848-.085.424-.169.339Z" transform="translate(-331.312 -37.422)"/>
      <path id="패스_8935" data-name="패스 8935" d="M555.141,504.192l-.424-1.865h-1.7l-.424,1.865h-.848l1.61-6.442h1.017l1.526,6.442Zm-1.271-5.594-.678,3.051h1.356l-.678-3.051Z" transform="translate(-338.913 -37.752)"/>
      <path id="패스_8936" data-name="패스 8936" d="M566.7,498.6v5.594h-.678V498.6H564.5v-.848h3.645v.848Z" transform="translate(-347.339 -37.752)"/>
      <path id="패스_8937" data-name="패스 8937" d="M577.5,504.192V497.75h.763v6.442Z" transform="translate(-355.932 -37.752)"/>
      <path id="패스_8938" data-name="패스 8938" d="M586.56,502.925h0l-.169.509-.169.254-.17.17-.509.17-.593.085h-.593l-.424-.169-.339-.339-.254-.424h0l-.17-.509-.085-.593-.085-.593v-.763h0l.17-1.95h0l.085-.254.085-.254.169-.254.169-.17.254-.169.339-.085.678-.085h0l.509.085.509.169.339.339.254.509h0l.254,1.1.085,1.1h0v.085h0v.085h0l-.085.848-.254,1.1Zm-.509-1.865h0v-.339h0v-.932l-.169-.848h0l-.17-.254-.17-.254-.339-.169h-.678l-.254.169-.254.254-.085.339h0l-.169.848-.085.848h0l.169,1.526h0l.085.509.17.424.339.17.509.085h.339l.254-.169.254-.17.085-.339h0l.169-.678V501.4h0v-.339Z" transform="translate(-359.568 -37.587)"/>
      <path id="패스_8939" data-name="패스 8939" d="M599.708,504.192l-1.7-5.51v5.51h-.763V497.75h1.187l1.7,5.51v-5.51h.678v6.442Z" transform="translate(-368.987 -37.752)"/>
    </g>
  </g>
</svg>
