<svg xmlns="http://www.w3.org/2000/svg" width="134.368" height="30.261" viewBox="0 0 134.368 30.261">
  <defs>
    <style>
      .cls-1 {
        fill: #1f4787;
      }
    </style>
  </defs>
  <g id="partners_logo19" transform="translate(-471.634 -258.444)">
    <path id="패스_6365" data-name="패스 6365" class="cls-1" d="M490.5,262.652a5.717,5.717,0,0,0-5.624-4.206h0a5.723,5.723,0,0,0-5.629,4.206l-7.583,24.782c0,.005-.023.147-.023.147a.5.5,0,0,0,.416.552l.049.01h4.611a.52.52,0,0,0,.493-.407l2.275-7.92h10.782l2.275,7.92a.517.517,0,0,0,.492.407h4.613l.05-.01a.5.5,0,0,0,.414-.552s-.02-.142-.02-.147Zm-9.709,12.607,3.161-11a.97.97,0,0,1,.921-.78h0a.973.973,0,0,1,.919.78l3.161,11Z" transform="translate(0 -0.001)"/>
    <path id="패스_6366" data-name="패스 6366" class="cls-1" d="M524.445,265.311a15.607,15.607,0,0,0-4.42.6v-7.033a.415.415,0,0,0-.42-.428H515.1a.423.423,0,0,0-.424.428v28.855a.415.415,0,0,0,.424.414h4.508a.407.407,0,0,0,.42-.414V272.855c0-1.227,0-2.5,4.42-2.5s4.411,1.269,4.411,2.5v14.874a.414.414,0,0,0,.424.414h4.5a.412.412,0,0,0,.424-.414V272.855C534.207,269.409,532.517,265.311,524.445,265.311Z" transform="translate(-14.734 -0.001)"/>
    <path id="패스_6367" data-name="패스 6367" class="cls-1" d="M655.991,265.311a15.271,15.271,0,0,0-4.4.6v-7.039a.432.432,0,0,0-.435-.426h-4.508a.43.43,0,0,0-.424.426v22.3c0,3.44,1.691,7.534,9.768,7.534s9.78-4.094,9.78-7.534v-8.317C665.771,269.416,664.075,265.311,655.991,265.311Zm4.424,15.861c0,1.221,0,2.488-4.424,2.488-4.4,0-4.4-1.267-4.4-2.488v-8.317c0-1.236,0-2.5,4.4-2.5,4.424,0,4.424,1.263,4.424,2.5Z" transform="translate(-59.769 -0.001)"/>
    <path id="패스_6368" data-name="패스 6368" class="cls-1" d="M621.456,268.884c-5.1,0-8.253,1.648-9.349,4.9a.4.4,0,0,0,.267.549l4.3,1.271a.425.425,0,0,0,.527-.267c.124-.344.469-1.4,4.256-1.4,4.423,0,4.423,1.263,4.423,2.5v1.361c-.721-.011-4.359-.093-4.359-.093-8.134,0-9.837,3.436-9.837,7.049,0,3.44,1.7,7.534,9.772,7.534s9.771-4.094,9.771-7.534v-8.317C631.227,272.989,629.536,268.884,621.456,268.884Zm4.423,15.861c0,1.221,0,2.488-4.423,2.488s-4.416-1.267-4.416-2.488,0-2.5,4.416-2.5c0,0,3.724.074,4.423.085Z" transform="translate(-47.945 -3.574)"/>
    <path id="패스_6369" data-name="패스 6369" class="cls-1" d="M600.01,283.092h-6.757c-3.259,0-3.386-2.195-3.386-3.427v-20.8a.414.414,0,0,0-.42-.424h-4.513a.411.411,0,0,0-.411.424v20.8c0,2.818.946,8.477,8.73,8.477h6.757a.426.426,0,0,0,.431-.426v-4.2A.425.425,0,0,0,600.01,283.092Z" transform="translate(-38.647)"/>
    <path id="패스_6370" data-name="패스 6370" class="cls-1" d="M559.175,268.884c-8.062,0-9.769,4.1-9.769,7.544V291.3a.42.42,0,0,0,.426.414h4.5a.413.413,0,0,0,.428-.414V276.428c0-1.227,0-2.5,4.414-2.5s4.414,1.269,4.414,2.5V291.3a.421.421,0,0,0,.434.414h4.5a.414.414,0,0,0,.431-.414V276.428C568.958,272.982,567.257,268.884,559.175,268.884Z" transform="translate(-26.625 -3.574)"/>
  </g>
</svg>
