<svg xmlns="http://www.w3.org/2000/svg" width="238.226" height="28.958" viewBox="0 0 238.226 28.958">
  <defs>
    <style>
      .cls-1 {
        fill: #003383;
      }
    </style>
  </defs>
  <g id="그룹_6702" data-name="그룹 6702" transform="translate(-66.963 -703.596)">
    <path id="패스_7825" data-name="패스 7825" class="cls-1" d="M92.792,721.443v3.828c0,2.818-1.776,4.5-4.748,4.5H75.155a5.668,5.668,0,0,1-5.579-5.872V713.482a5.669,5.669,0,0,1,5.579-5.872H95.534v-1.378c0-1.09-.667-1.224-1.959-1.224H75.548a8.453,8.453,0,0,0-6.077,2.411,7.578,7.578,0,0,0-2.508,5.736v10.935a7.7,7.7,0,0,0,2.525,5.777,8.541,8.541,0,0,0,6.073,2.388H88.393c4.491,0,7.246-2.767,7.246-6.884v-3.766c0-4.115-2.253-6.6-6.819-6.6L79.7,715c-.94-.006-1.7-.03-1.7,1.189v1.318h9.548C91.125,717.511,92.792,718.761,92.792,721.443Z" transform="translate(0 -0.674)"/>
    <path id="패스_7826" data-name="패스 7826" class="cls-1" d="M159.02,707.423a8.349,8.349,0,0,0-6.038-2.414H133.006c0,.006-.009.016-.024.031v-.025c-1,0-1.959-.106-1.959,1.189v3.407c0,.032.006.059.008.089v20.876c0,.015,0,.029,0,.047v.641c0,1.006.573,1.2,1.674,1.219l0,0h20.27a8.358,8.358,0,0,0,6.035-2.391,7.6,7.6,0,0,0,2.541-5.773V713.156a7.528,7.528,0,0,0-2.538-5.733m-.368,16.493c0,3.539-2.821,5.826-7.188,5.826H133.587V707.393h17.877c4.434,0,7.188,2.124,7.188,5.54Z" transform="translate(-30.554 -0.674)"/>
    <path id="패스_7827" data-name="패스 7827" class="cls-1" d="M208.513,714.525a3.137,3.137,0,0,1,2.254-.886h17.179c1,0,1.957.1,1.957-1.192V710.9H211.128c-3.154,0-6.335,1.5-6.335,4.844v10.751c0,3.022,2.6,5.132,6.335,5.132h18.861v-1.2c0-1.26-.9-1.194-1.879-1.189H210.767a3.159,3.159,0,0,1-2.259-.882,2.857,2.857,0,0,1-.93-2.144V716.65A2.818,2.818,0,0,1,208.513,714.525Z" transform="translate(-65.739 -3.482)"/>
    <path id="패스_7828" data-name="패스 7828" class="cls-1" d="M154.435,710.9H137.251v20.96h17.184c4.007,0,6.494-1.968,6.494-5.133V715.741c0-3.034-2.428-4.844-6.494-4.844m3.51,15.464a2.866,2.866,0,0,1-.927,2.138,3.121,3.121,0,0,1-2.232.878H140.976a1.138,1.138,0,0,1-1.246-1.192V714.6c0-1,.723-1.018,1.246-1.012h13.809a3.114,3.114,0,0,1,2.234.889,2.826,2.826,0,0,1,.925,2.115Z" transform="translate(-33.524 -3.482)"/>
    <path id="패스_7829" data-name="패스 7829" class="cls-1" d="M73.289,716.489v10.419a4.981,4.981,0,0,0,4.883,5.178H91.062c1.514,0,4.054-.494,4.054-3.808v-3.828c0-1.6-.541-3.237-4.554-3.237H81.014v1.394c0,1.157.524,1.206,1.7,1.222l7.38.01c2.555,0,2.431,1.874,2.431,1.874v1.931a1.779,1.779,0,0,1-1.966,1.794H79.3a3.18,3.18,0,0,1-2.261-.88,2.881,2.881,0,0,1-.929-2.146v-9.564a2.836,2.836,0,0,1,.929-2.125,3.167,3.167,0,0,1,2.256-.886h17.3c1,0,1.959.1,1.959-1.192v-1.334H78.172A4.981,4.981,0,0,0,73.289,716.489Z" transform="translate(-3.017 -3.68)"/>
    <path id="패스_7830" data-name="패스 7830" class="cls-1" d="M201.041,723.684V712.933c0-3.826,3.531-5.54,7.031-5.54h18.775v-1.16c0-1.09-.667-1.224-1.957-1.224H206.862v0a8.528,8.528,0,0,0-5.96,2.409,7.593,7.593,0,0,0-2.518,5.736v10.935a7.723,7.723,0,0,0,2.152,5.385l.069.076.3.312a8.514,8.514,0,0,0,5.688,2.376l.161.007.223.008h18.08v0c1.237-.006,1.879-.155,1.879-1.223v-1.518H208.071C203.931,729.511,201.041,727.114,201.041,723.684Z" transform="translate(-62.682 -0.674)"/>
    <path id="패스_7831" data-name="패스 7831" class="cls-1" d="M280.746,706.486q-.062,4.377-2.976,6.22-2.431,1.51-7.019,1.4v-2.081a11.155,11.155,0,0,0,4.984-.67,4.126,4.126,0,0,0,2.346-4.113c0-.235-.126-.355-.377-.355h-6.512V704.81h7.92a1.572,1.572,0,0,1,1.194.46,1.688,1.688,0,0,1,.439,1.216m-.509,16.619a4.981,4.981,0,0,1-3.757-1.435,4.305,4.305,0,0,1-1.258-3.149,4.464,4.464,0,0,1,1.258-3.2,5.019,5.019,0,0,1,3.757-1.437,5.092,5.092,0,0,1,3.777,1.414,4.356,4.356,0,0,1,1.259,3.149,4.436,4.436,0,0,1-1.279,3.2,4.978,4.978,0,0,1-3.757,1.458m0-7.153a2.394,2.394,0,0,0-1.879.781,2.557,2.557,0,0,0-.611,1.735,2.616,2.616,0,0,0,.665,1.787,2.3,2.3,0,0,0,1.824.754,2.279,2.279,0,0,0,1.813-.779,2.556,2.556,0,0,0,.611-1.737,2.643,2.643,0,0,0-.611-1.76,2.275,2.275,0,0,0-1.813-.781m8.459-9.062h-2.179a.316.316,0,0,0-.357.357v7.791h-2.526v-8.552a1.708,1.708,0,0,1,.43-1.227,1.559,1.559,0,0,1,1.182-.449H288.7Z" transform="translate(-97.198 -0.579)"/>
    <path id="패스_7832" data-name="패스 7832" class="cls-1" d="M318.857,714.835h-5.5v2.528h-2.581v-2.528h-5.026V712.7h13.108v2.137m-2.084-6.758a4.127,4.127,0,0,1-1.511,3.5,5.359,5.359,0,0,1-3.517,1.169,5.414,5.414,0,0,1-3.5-1.144,4.1,4.1,0,0,1-1.55-3.456,4.281,4.281,0,0,1,1.593-3.408,5.316,5.316,0,0,1,3.435-1.144,5.392,5.392,0,0,1,3.435,1.12,4.256,4.256,0,0,1,1.616,3.361m5.28,13.894H308.509a1.25,1.25,0,0,1-1.426-1.4v-4.4h2.61v3.356c0,.225.119.335.356.335h12v2.11m-7.918-13.915a2.407,2.407,0,0,0-2.433-2.5,2.317,2.317,0,0,0-1.616.612,2.635,2.635,0,0,0-.837,1.831,2.574,2.574,0,0,0,.712,2.1,2.388,2.388,0,0,0,1.763.715,2.268,2.268,0,0,0,1.7-.69,2.646,2.646,0,0,0,.713-2.07m7.941,8.857h-2.554v-5.965h-2.334v-2.109h2.334v-4.581h2.554Z" transform="translate(-113.89)"/>
    <path id="패스_7833" data-name="패스 7833" class="cls-1" d="M358.045,720.3h-16.8v-2.111h7.329V713.61h2.609v4.577h6.86V720.3m-1.383-6.051H344.005a1.368,1.368,0,0,1-1.039-.408,1.475,1.475,0,0,1-.387-1.06v-7.916h14.082v2.081H345.188v4.76a.333.333,0,0,0,.379.376h11.095Z" transform="translate(-130.821 -0.604)"/>
    <path id="패스_7834" data-name="패스 7834" class="cls-1" d="M386.309,706.537q0,4.863-2.332,6.892-2.2,1.931-7.135,1.8v-2.093q3.647.105,5.075-1.005,1.615-1.232,1.616-4.811c0-.251-.12-.379-.357-.379H377.28v-2.081h7.326a1.706,1.706,0,0,1,1.229.451,1.614,1.614,0,0,1,.473,1.224m7.3,16.51h-2.583v-13.3h-1.082v13.013h-2.526v-17.9h2.526v2.748h1.082v-2.748h2.583Z" transform="translate(-147.798 -0.604)"/>
    <path id="패스_7835" data-name="패스 7835" class="cls-1" d="M424.945,711.923a1.4,1.4,0,0,1-1.468,1.464h-7.729a1.3,1.3,0,0,1-1.015-.407,1.519,1.519,0,0,1-.367-1.056v-7.061h2.525v2.247h5.444v-2.247h2.61v7.061m4.493,10.652H417.545a1.343,1.343,0,0,1-1.006-.387,1.393,1.393,0,0,1-.378-1.019v-3.845H426.78a6.767,6.767,0,0,1,0-.689q-.061-.211-.376-.211H416.161V714.34h11.784a1.484,1.484,0,0,1,1.047.37,1.293,1.293,0,0,1,.4,1v3.781H418.715a6.8,6.8,0,0,0,0,.765c.04.141.159.21.357.21h10.366v2.111m-7.1-11.724v-1.6h-5.444v1.6q0,.4.378.4h4.667a.353.353,0,0,0,.4-.4m9.438-3.907h-1.958a.333.333,0,0,0-.374.379v12.1h-2.608V706.537a1.48,1.48,0,0,1,1.673-1.675h3.267Z" transform="translate(-165.696 -0.604)"/>
    <path id="패스_7836" data-name="패스 7836" class="cls-1" d="M467.936,714.139H450.759v-2.11h6.469V708.89h2.527v3.138h4v-4.782c0-.235-.126-.355-.378-.355H452.082V704.81H464.9a1.3,1.3,0,0,1,1.383,1.38v5.838h1.656v2.11m-3.712,4.342a4.5,4.5,0,0,1-1.632,3.468,5.621,5.621,0,0,1-6.894-.049,4.936,4.936,0,0,1,.019-7.2,5.109,5.109,0,0,1,3.438-1.2,5.242,5.242,0,0,1,3.56,1.254,4.4,4.4,0,0,1,1.508,3.733m-2.637-.052a2.921,2.921,0,0,0-.713-2.186,2.2,2.2,0,0,0-1.677-.718,2.267,2.267,0,0,0-1.7.718,2.924,2.924,0,0,0-.716,2.186,2.887,2.887,0,0,0,.779,2.015,2.139,2.139,0,0,0,1.592.664,2.321,2.321,0,0,0,1.689-.718A2.709,2.709,0,0,0,461.587,718.429Z" transform="translate(-183.054 -0.579)"/>
    <path id="패스_7837" data-name="패스 7837" class="cls-1" d="M499.623,715.547a9.956,9.956,0,0,1-4.565-2.8,7.731,7.731,0,0,1-1.666-3.537,10.077,10.077,0,0,1-2.147,4.008c-1.218,1.467-4.143,2.328-4.143,2.328v-2.414a6.746,6.746,0,0,0,3.552-3.15,23.317,23.317,0,0,0,1.2-5.121h3.109a23.239,23.239,0,0,0,1.15,5.122,6.66,6.66,0,0,0,3.514,3.149v2.414m5.954-8.6h-2.128c-.236,0-.356.128-.356.379v15.725h-2.608v-16.51a1.557,1.557,0,0,1,1.661-1.675h3.432Z" transform="translate(-200.388 -0.604)"/>
    <path id="패스_7838" data-name="패스 7838" class="cls-1" d="M275.867,749.762a5.436,5.436,0,0,1-1.772.332,2.8,2.8,0,0,1-2.156-.787,3.136,3.136,0,0,1-.748-2.151,2.871,2.871,0,0,1,3.03-3.078,3.5,3.5,0,0,1,1.472.279l-.252,1.076a2.54,2.54,0,0,0-1.228-.253,1.7,1.7,0,0,0-1.764,1.907c0,1.223.692,1.932,1.676,1.932a1.633,1.633,0,0,0,.582-.079V747.7h-.819v-1.041h1.977Z" transform="translate(-97.408 -19.308)"/>
    <path id="패스_7839" data-name="패스 7839" class="cls-1" d="M284.64,750.444a6.172,6.172,0,0,0,.062,1.032h-1.077l-.072-.428h-.023a1.331,1.331,0,0,1-1.1.525,1.248,1.248,0,0,1-1.243-1.313c0-1.111.9-1.635,2.26-1.635v-.053c0-.227-.111-.551-.7-.551a2.089,2.089,0,0,0-1.062.314l-.22-.848a2.91,2.91,0,0,1,1.5-.385c1.283,0,1.685.839,1.685,1.846v1.5m-1.158-.989c-.629,0-1.117.166-1.117.674a.453.453,0,0,0,.472.507.672.672,0,0,0,.622-.49,1.058,1.058,0,0,0,.023-.229Z" transform="translate(-102.174 -20.751)"/>
    <path id="패스_7840" data-name="패스 7840" class="cls-1" d="M289.281,748.564c0-.535-.016-.981-.032-1.366h1.039l.055.595h.024a1.359,1.359,0,0,1,1.188-.69c.788,0,1.378.586,1.378,1.846v2.527h-1.2v-2.37c0-.551-.174-.927-.607-.927a.67.67,0,0,0-.614.5,1.037,1.037,0,0,0-.039.333v2.466h-1.2Z" transform="translate(-106.021 -20.751)"/>
    <path id="패스_7841" data-name="패스 7841" class="cls-1" d="M301.271,750.855a2.6,2.6,0,0,1-.59,1.925,2.186,2.186,0,0,1-1.559.525,2.825,2.825,0,0,1-1.386-.325l.237-1.014a2.162,2.162,0,0,0,1.118.323c.567,0,1-.332,1-1.128v-.271h-.016a1.206,1.206,0,0,1-1.04.551c-.952,0-1.63-.857-1.63-2.082,0-1.381.8-2.256,1.749-2.256a1.134,1.134,0,0,1,1.054.6h.016l.039-.508h1.04c-.015.281-.032.639-.032,1.277v2.379m-1.2-1.914a1.31,1.31,0,0,0-.024-.246.677.677,0,0,0-.645-.586c-.441,0-.786.437-.786,1.216,0,.639.282,1.137.779,1.137a.669.669,0,0,0,.637-.533,1.351,1.351,0,0,0,.04-.358Z" transform="translate(-109.911 -20.751)"/>
    <path id="패스_7842" data-name="패스 7842" class="cls-1" d="M306.8,747.286l.315,1.759c.07.436.15.91.212,1.4h.024c.072-.481.19-.971.276-1.391l.408-1.767h.946l.384,1.706c.11.489.214.962.284,1.452h.015c.056-.481.134-.971.229-1.46l.323-1.7h1.173l-1.181,4.277H309.09l-.36-1.495a13.2,13.2,0,0,1-.253-1.339h-.016a12.672,12.672,0,0,1-.244,1.33l-.386,1.5h-1.126l-1.125-4.277Z" transform="translate(-113.81 -20.838)"/>
    <path id="패스_7843" data-name="패스 7843" class="cls-1" d="M318.828,751.573a2,2,0,0,1-1.992-2.2A2.036,2.036,0,0,1,318.9,747.1a1.986,1.986,0,0,1,1.961,2.2,2.039,2.039,0,0,1-2.024,2.275h-.007m.024-.953c.472,0,.763-.517.763-1.287,0-.63-.22-1.276-.763-1.276-.567,0-.787.646-.787,1.285,0,.726.275,1.278.779,1.278Z" transform="translate(-119.178 -20.751)"/>
    <path id="패스_7844" data-name="패스 7844" class="cls-1" d="M325.611,748.564c0-.535-.016-.981-.031-1.366h1.04l.054.595h.024a1.357,1.357,0,0,1,1.188-.69c.788,0,1.378.586,1.378,1.846v2.527h-1.2v-2.37c0-.551-.174-.927-.607-.927a.671.671,0,0,0-.614.5,1.081,1.081,0,0,0-.04.333v2.466h-1.2Z" transform="translate(-123.349 -20.751)"/>
    <path id="패스_7845" data-name="패스 7845" class="cls-1" d="M337.689,743.592v4.932c0,.49.017.989.032,1.277h-1.061l-.049-.621h-.024a1.318,1.318,0,0,1-1.205.719c-.912,0-1.644-.867-1.644-2.2-.007-1.435.8-2.275,1.723-2.275a1.14,1.14,0,0,1,1.016.481h.015v-2.317h1.2m-1.2,3.753a1.33,1.33,0,0,0-.015-.245.737.737,0,0,0-.7-.647c-.551,0-.827.542-.827,1.215,0,.718.323,1.173.819,1.173a.735.735,0,0,0,.7-.639,1.865,1.865,0,0,0,.022-.3Z" transform="translate(-127.24 -19.076)"/>
    <path id="패스_7846" data-name="패스 7846" class="cls-1" d="M344.4,751.573a2,2,0,0,1-1.992-2.2,2.037,2.037,0,0,1,2.063-2.266,1.985,1.985,0,0,1,1.96,2.2,2.039,2.039,0,0,1-2.024,2.275H344.4m.024-.953c.472,0,.763-.517.763-1.287,0-.63-.22-1.276-.763-1.276-.567,0-.787.646-.787,1.285,0,.726.275,1.278.779,1.278Z" transform="translate(-131.374 -20.751)"/>
    <path id="패스_7847" data-name="패스 7847" class="cls-1" d="M354.024,744.241a8.785,8.785,0,0,1,1.614-.131,3.159,3.159,0,0,1,2.181.613,2.757,2.757,0,0,1,.9,2.238,3.179,3.179,0,0,1-.873,2.388,3.565,3.565,0,0,1-2.455.76,9.249,9.249,0,0,1-1.362-.087v-5.781m1.2,4.8a2.042,2.042,0,0,0,.417.026c1.094.009,1.81-.656,1.81-2.063,0-1.269-.646-1.872-1.683-1.872a2.29,2.29,0,0,0-.544.052Z" transform="translate(-136.915 -19.323)"/>
    <path id="패스_7848" data-name="패스 7848" class="cls-1" d="M364.918,749.746c.039.56.528.823,1.086.823a2.862,2.862,0,0,0,1.062-.185l.157.9a3.311,3.311,0,0,1-1.393.272,1.952,1.952,0,0,1-2.055-2.186,2.069,2.069,0,0,1,1.945-2.283c1.244,0,1.715,1.076,1.715,2.135a3.522,3.522,0,0,1-.04.532l-2.478-.008m1.409-.91c0-.314-.126-.866-.669-.866-.512,0-.717.515-.747.866Z" transform="translate(-141.567 -20.743)"/>
    <path id="패스_7849" data-name="패스 7849" class="cls-1" d="M372.193,747.286l.52,1.986c.094.359.157.7.22,1.042h.024c.062-.35.127-.674.213-1.042l.495-1.986h1.26l-1.433,4.277h-1.2l-1.4-4.277Z" transform="translate(-144.962 -20.838)"/>
    <path id="패스_7850" data-name="패스 7850" class="cls-1" d="M379.786,749.746c.039.56.529.823,1.085.823a2.861,2.861,0,0,0,1.063-.185l.158.9a3.313,3.313,0,0,1-1.393.272,1.952,1.952,0,0,1-2.055-2.186,2.069,2.069,0,0,1,1.945-2.283c1.244,0,1.716,1.076,1.716,2.135a3.783,3.783,0,0,1-.039.532l-2.481-.008m1.409-.91c0-.314-.126-.866-.668-.866-.512,0-.717.515-.748.866Z" transform="translate(-148.659 -20.743)"/>
    <rect id="사각형_2295" data-name="사각형 2295" class="cls-1" width="1.196" height="6.21" transform="translate(234.207 724.516)"/>
    <path id="패스_7851" data-name="패스 7851" class="cls-1" d="M392.1,751.573a2,2,0,0,1-1.992-2.2,2.037,2.037,0,0,1,2.063-2.266,1.984,1.984,0,0,1,1.959,2.2,2.038,2.038,0,0,1-2.022,2.275H392.1m.024-.953c.472,0,.764-.517.764-1.287,0-.63-.221-1.276-.764-1.276-.567,0-.788.646-.788,1.285,0,.726.276,1.278.779,1.278Z" transform="translate(-154.128 -20.751)"/>
    <path id="패스_7852" data-name="패스 7852" class="cls-1" d="M398.889,748.634c0-.56-.016-1.032-.032-1.435H399.9l.055.595h.015a1.453,1.453,0,0,1,1.284-.69c.843,0,1.6.814,1.6,2.178,0,1.557-.89,2.292-1.748,2.292a1.154,1.154,0,0,1-1-.491h-.015v2.126h-1.2v-4.574m1.2,1.005a1.475,1.475,0,0,0,.024.279.744.744,0,0,0,.7.63c.52,0,.828-.48.828-1.206,0-.683-.276-1.2-.812-1.2a.777.777,0,0,0-.715.674,1.1,1.1,0,0,0-.024.235Z" transform="translate(-158.299 -20.751)"/>
    <path id="패스_7853" data-name="패스 7853" class="cls-1" d="M407.588,748.564c0-.535-.015-.981-.031-1.366h1.015l.049.587h.022a1.309,1.309,0,0,1,1.164-.683,1.089,1.089,0,0,1,1.056.734h.016a1.792,1.792,0,0,1,.5-.525,1.36,1.36,0,0,1,.731-.209c.741,0,1.3.578,1.3,1.855v2.518h-1.165v-2.318c0-.62-.18-.979-.566-.979a.608.608,0,0,0-.56.463,1.613,1.613,0,0,0-.04.333v2.5h-1.165v-2.4c0-.535-.173-.9-.558-.9a.627.627,0,0,0-.559.472.991.991,0,0,0-.047.341v2.483h-1.165Z" transform="translate(-162.448 -20.751)"/>
    <path id="패스_7854" data-name="패스 7854" class="cls-1" d="M420.978,749.746c.039.56.528.823,1.087.823a2.859,2.859,0,0,0,1.062-.185l.157.9a3.312,3.312,0,0,1-1.393.272,1.952,1.952,0,0,1-2.055-2.186,2.069,2.069,0,0,1,1.945-2.283c1.244,0,1.716,1.076,1.716,2.135a3.823,3.823,0,0,1-.04.532l-2.479-.008m1.409-.91c0-.314-.126-.866-.669-.866-.513,0-.717.515-.748.866Z" transform="translate(-168.305 -20.743)"/>
    <path id="패스_7855" data-name="패스 7855" class="cls-1" d="M427.874,748.564c0-.535-.015-.981-.031-1.366h1.039l.055.595h.025a1.356,1.356,0,0,1,1.188-.69c.788,0,1.377.586,1.377,1.846v2.527h-1.2v-2.37c0-.551-.174-.927-.607-.927a.672.672,0,0,0-.614.5,1.052,1.052,0,0,0-.039.333v2.466h-1.2Z" transform="translate(-172.124 -20.751)"/>
    <path id="패스_7856" data-name="패스 7856" class="cls-1" d="M437.354,745.063v1.163h.857v.981h-.857v1.556c0,.516.118.752.471.752a1.341,1.341,0,0,0,.355-.034l.007,1.005a2.276,2.276,0,0,1-.771.115,1.212,1.212,0,0,1-.905-.368,1.906,1.906,0,0,1-.331-1.268v-1.758h-.512v-.981h.512v-.8Z" transform="translate(-175.856 -19.778)"/>
    <path id="패스_7857" data-name="패스 7857" class="cls-1" d="M448.035,749.844a3.226,3.226,0,0,1-1.355.255,2.677,2.677,0,0,1-2.78-2.967,2.984,2.984,0,0,1,4.2-2.859l-.253,1.049a2.308,2.308,0,0,0-1.006-.218c-.945,0-1.685.638-1.685,1.959,0,1.181.629,1.923,1.692,1.923a2.63,2.63,0,0,0,1.008-.192Z" transform="translate(-179.782 -19.276)"/>
    <path id="패스_7858" data-name="패스 7858" class="cls-1" d="M454.2,751.573a2,2,0,0,1-1.991-2.2,2.036,2.036,0,0,1,2.062-2.266,1.986,1.986,0,0,1,1.96,2.2,2.039,2.039,0,0,1-2.024,2.275H454.2m.024-.953c.473,0,.764-.517.764-1.287,0-.63-.221-1.276-.764-1.276-.567,0-.787.646-.787,1.285,0,.726.275,1.278.779,1.278Z" transform="translate(-183.745 -20.751)"/>
    <path id="패스_7859" data-name="패스 7859" class="cls-1" d="M461,748.607c0-.629-.008-1.04-.032-1.408h1.024l.048.8h.031a1.143,1.143,0,0,1,1.039-.893,1.08,1.08,0,0,1,.254.027v1.251a1.776,1.776,0,0,0-.332-.035.78.78,0,0,0-.819.674,1.709,1.709,0,0,0-.023.3v2.161h-1.2Z" transform="translate(-187.922 -20.751)"/>
    <path id="패스_7860" data-name="패스 7860" class="cls-1" d="M466.386,748.634c0-.56-.016-1.032-.032-1.435h1.04l.055.595h.016a1.451,1.451,0,0,1,1.284-.69c.842,0,1.6.814,1.6,2.178,0,1.557-.889,2.292-1.747,2.292a1.152,1.152,0,0,1-1-.491h-.016v2.126h-1.2v-4.574m1.2,1.005a1.522,1.522,0,0,0,.024.279.746.746,0,0,0,.7.63c.52,0,.827-.48.827-1.206,0-.683-.275-1.2-.812-1.2a.78.78,0,0,0-.716.674,1.132,1.132,0,0,0-.024.235Z" transform="translate(-190.492 -20.751)"/>
    <path id="패스_7861" data-name="패스 7861" class="cls-1" d="M476.731,751.573a2,2,0,0,1-1.992-2.2A2.036,2.036,0,0,1,476.8,747.1a1.985,1.985,0,0,1,1.959,2.2,2.038,2.038,0,0,1-2.023,2.275h-.006m.022-.953c.473,0,.764-.517.764-1.287,0-.63-.22-1.276-.764-1.276-.566,0-.787.646-.787,1.285,0,.726.276,1.278.78,1.278Z" transform="translate(-194.491 -20.751)"/>
    <path id="패스_7862" data-name="패스 7862" class="cls-1" d="M483.528,748.607c0-.629-.008-1.04-.032-1.408h1.024l.047.8h.031a1.142,1.142,0,0,1,1.04-.893,1.068,1.068,0,0,1,.252.027v1.251a1.759,1.759,0,0,0-.331-.035.779.779,0,0,0-.818.674,1.652,1.652,0,0,0-.024.3v2.161h-1.2Z" transform="translate(-198.668 -20.751)"/>
    <path id="패스_7863" data-name="패스 7863" class="cls-1" d="M491.769,750.444a6.042,6.042,0,0,0,.064,1.032h-1.078l-.071-.428h-.024a1.335,1.335,0,0,1-1.1.525,1.247,1.247,0,0,1-1.243-1.313c0-1.111.9-1.635,2.259-1.635v-.053c0-.227-.11-.551-.7-.551a2.094,2.094,0,0,0-1.062.314l-.221-.848a2.919,2.919,0,0,1,1.5-.385c1.284,0,1.685.839,1.685,1.846v1.5m-1.156-.989c-.63,0-1.118.166-1.118.674a.453.453,0,0,0,.472.507.672.672,0,0,0,.622-.49,1.092,1.092,0,0,0,.024-.229Z" transform="translate(-200.966 -20.751)"/>
    <path id="패스_7864" data-name="패스 7864" class="cls-1" d="M497.343,745.063v1.163h.857v.981h-.857v1.556c0,.516.116.752.47.752a1.348,1.348,0,0,0,.356-.034l.007,1.005a2.279,2.279,0,0,1-.771.115,1.207,1.207,0,0,1-.9-.368,1.905,1.905,0,0,1-.332-1.268v-1.758h-.511v-.981h.511v-.8Z" transform="translate(-204.469 -19.778)"/>
    <path id="패스_7865" data-name="패스 7865" class="cls-1" d="M502.067,744.924a.681.681,0,1,1,.008,0h-.008m-.591,4.837v-4.277h1.2v4.277Z" transform="translate(-207.21 -19.036)"/>
    <path id="패스_7866" data-name="패스 7866" class="cls-1" d="M506.933,751.573a2,2,0,0,1-1.992-2.2A2.037,2.037,0,0,1,507,747.1a1.985,1.985,0,0,1,1.96,2.2,2.039,2.039,0,0,1-2.024,2.275h-.008m.025-.953c.472,0,.764-.517.764-1.287,0-.63-.221-1.276-.764-1.276-.566,0-.787.646-.787,1.285,0,.726.275,1.278.779,1.278Z" transform="translate(-208.896 -20.751)"/>
    <path id="패스_7867" data-name="패스 7867" class="cls-1" d="M513.718,748.564c0-.535-.016-.981-.032-1.366h1.04l.054.595h.024a1.36,1.36,0,0,1,1.188-.69c.788,0,1.377.586,1.377,1.846v2.527h-1.2v-2.37c0-.551-.172-.927-.606-.927a.668.668,0,0,0-.613.5,1.051,1.051,0,0,0-.04.333v2.466h-1.2Z" transform="translate(-213.067 -20.751)"/>
  </g>
</svg>
