<svg xmlns="http://www.w3.org/2000/svg" width="242.239" height="46.841" viewBox="0 0 242.239 46.841">
  <defs>
    <style>
      .cls-1 {
        fill: #616060;
      }

      .cls-2 {
        fill: #113072;
      }

      .cls-3 {
        fill: #85a313;
      }
    </style>
  </defs>
  <g id="그룹_6808" data-name="그룹 6808" transform="translate(-268.533 -246.98)">
    <g id="그룹_6803" data-name="그룹 6803" transform="translate(341.769 276.292)">
      <g id="그룹_6802" data-name="그룹 6802">
        <path id="패스_8467" data-name="패스 8467" class="cls-1" d="M432.514,318.408h-1.461l-2.3-4.04-1.379,1.658v2.382h-1.243v-8.191h1.243v4.117l3.349-4.117h1.519l-2.656,3.21Z" transform="translate(-426.127 -310.142)"/>
        <path id="패스_8468" data-name="패스 8468" class="cls-1" d="M445.276,318.124a3.216,3.216,0,0,1-.681,2.286,2.551,2.551,0,0,1-3.514,0,4.16,4.16,0,0,1,0-4.563,2.553,2.553,0,0,1,3.514,0A3.2,3.2,0,0,1,445.276,318.124Zm-1.18,0a2.306,2.306,0,0,0-.4-1.6,1.167,1.167,0,0,0-.86-.334,1.154,1.154,0,0,0-.851.334,3.353,3.353,0,0,0,0,3.191,1.153,1.153,0,0,0,.851.345,1.167,1.167,0,0,0,.86-.345A2.311,2.311,0,0,0,444.1,318.124Z" transform="translate(-433.767 -312.781)"/>
        <path id="패스_8469" data-name="패스 8469" class="cls-1" d="M457.292,315.7l-.894.883a1.233,1.233,0,0,0-.881-.385,1.09,1.09,0,0,0-.833.363,1.344,1.344,0,0,0-.334.948v3.542h-1.156v-5.835h1.156v.632a1.785,1.785,0,0,1,1.55-.7A1.9,1.9,0,0,1,457.292,315.7Z" transform="translate(-440.616 -312.781)"/>
        <path id="패스_8470" data-name="패스 8470" class="cls-1" d="M467.246,318.476h-3.78a1.722,1.722,0,0,0,.385,1.186,1.381,1.381,0,0,0,1.094.435,1.943,1.943,0,0,0,1.416-.592l.748.7a3.2,3.2,0,0,1-.933.677,3.058,3.058,0,0,1-1.255.23q-2.624,0-2.625-2.988a3.3,3.3,0,0,1,.669-2.191,2.249,2.249,0,0,1,1.806-.786,2.3,2.3,0,0,1,1.83.783,3.025,3.025,0,0,1,.645,2.027Zm-1.162-.822a2.1,2.1,0,0,0-.161-.791,1.276,1.276,0,0,0-2.31,0,2.028,2.028,0,0,0-.148.791Z" transform="translate(-445.488 -312.781)"/>
        <path id="패스_8471" data-name="패스 8471" class="cls-1" d="M479.014,321.047h-1.177v-.529a2.423,2.423,0,0,1-3.1.066,1.72,1.72,0,0,1-.457-1.253,1.551,1.551,0,0,1,.517-1.217,2.182,2.182,0,0,1,1.494-.46h1.545v-.413q0-1.091-1.277-1.089a1.531,1.531,0,0,0-1.278.556l-.771-.724a2.292,2.292,0,0,1,.9-.666,3.444,3.444,0,0,1,1.2-.172q2.406,0,2.408,2Zm-1.177-2.1v-.467h-1.373c-.7,0-1.05.277-1.05.833s.357.82,1.073.82a1.542,1.542,0,0,0,1.1-.331A1.152,1.152,0,0,0,477.836,318.943Z" transform="translate(-451.903 -312.781)"/>
        <path id="패스_8472" data-name="패스 8472" class="cls-1" d="M497.546,315.869a2.983,2.983,0,0,1-.995,1.856,3.109,3.109,0,0,1-4.077-.213,2.5,2.5,0,0,1-.7-1.358,20.259,20.259,0,0,1,0-3.867,2.509,2.509,0,0,1,.7-1.358,3.124,3.124,0,0,1,4.084-.217,2.987,2.987,0,0,1,.988,1.867H496.28a1.591,1.591,0,0,0-1.656-1.411,1.569,1.569,0,0,0-1.208.495,2.133,2.133,0,0,0-.461,1.221q-.034.288-.035,1.337t.035,1.336a2.13,2.13,0,0,0,.461,1.221,1.567,1.567,0,0,0,1.208.495,1.6,1.6,0,0,0,1.669-1.4Z" transform="translate(-461.215 -310.055)"/>
        <path id="패스_8473" data-name="패스 8473" class="cls-1" d="M510.734,318.124a3.2,3.2,0,0,1-.681,2.286,2.551,2.551,0,0,1-3.514,0,4.16,4.16,0,0,1,0-4.563,2.553,2.553,0,0,1,3.514,0A3.19,3.19,0,0,1,510.734,318.124Zm-1.178,0a2.306,2.306,0,0,0-.4-1.6,1.178,1.178,0,0,0-.863-.334,1.158,1.158,0,0,0-.851.334,3.367,3.367,0,0,0,0,3.191,1.158,1.158,0,0,0,.851.345,1.175,1.175,0,0,0,.863-.345A2.311,2.311,0,0,0,509.556,318.124Z" transform="translate(-468.806 -312.781)"/>
        <path id="패스_8474" data-name="패스 8474" class="cls-1" d="M523.386,321.047h-1.18v-3.554a1.311,1.311,0,0,0-.347-.989,1.114,1.114,0,0,0-.834-.31,1.19,1.19,0,0,0-.858.31,1.309,1.309,0,0,0-.36.989v3.554h-1.156v-5.835h1.156v.587a2.026,2.026,0,0,1,1.552-.652,1.964,1.964,0,0,1,1.437.528,2.2,2.2,0,0,1,.589,1.646Z" transform="translate(-475.654 -312.781)"/>
        <path id="패스_8475" data-name="패스 8475" class="cls-1" d="M533.562,313.5h-1.155v4.831h-1.177V313.5h-.672v-.9h.672v-.9a1.656,1.656,0,0,1,.391-1.132,1.519,1.519,0,0,1,1.205-.5h.736v1h-.514c-.429,0-.641.227-.641.682v.843h1.155Z" transform="translate(-482.028 -310.067)"/>
        <path id="패스_8476" data-name="패스 8476" class="cls-1" d="M542.883,318.124a3.214,3.214,0,0,1-.678,2.286,2.554,2.554,0,0,1-3.516,0,4.177,4.177,0,0,1,0-4.563,2.555,2.555,0,0,1,3.516,0A3.2,3.2,0,0,1,542.883,318.124Zm-1.178,0a2.289,2.289,0,0,0-.4-1.6,1.176,1.176,0,0,0-.864-.334,1.157,1.157,0,0,0-.85.334,3.367,3.367,0,0,0,0,3.191,1.158,1.158,0,0,0,.85.345,1.172,1.172,0,0,0,.864-.345A2.3,2.3,0,0,0,541.706,318.124Z" transform="translate(-486.017 -312.781)"/>
        <path id="패스_8477" data-name="패스 8477" class="cls-1" d="M554.9,315.7l-.89.883a1.24,1.24,0,0,0-.881-.385,1.088,1.088,0,0,0-.833.363,1.339,1.339,0,0,0-.337.948v3.542H550.8v-5.835h1.155v.632a1.788,1.788,0,0,1,1.552-.7A1.885,1.885,0,0,1,554.9,315.7Z" transform="translate(-492.863 -312.781)"/>
        <path id="패스_8478" data-name="패스 8478" class="cls-1" d="M568.846,321.047h-1.178v-3.554a1.322,1.322,0,0,0-.344-.989,1.1,1.1,0,0,0-.829-.31,1.168,1.168,0,0,0-.835.31,1.192,1.192,0,0,0-.37.933v3.61h-1.177v-3.554a1.314,1.314,0,0,0-.349-.989,1.1,1.1,0,0,0-.83-.31,1.192,1.192,0,0,0-.859.31,1.31,1.31,0,0,0-.359.989v3.554h-1.158v-5.835h1.158v.587a2,2,0,0,1,1.552-.652,1.848,1.848,0,0,1,1.657.848,2.259,2.259,0,0,1,1.829-.848,2.014,2.014,0,0,1,1.472.528,2.177,2.177,0,0,1,.621,1.646Z" transform="translate(-498.086 -312.781)"/>
        <path id="패스_8479" data-name="패스 8479" class="cls-1" d="M582.337,311.367h-1.244v-1.243h1.244Zm-.033,6.992h-1.178v-5.835H582.3Z" transform="translate(-509.078 -310.092)"/>
        <path id="패스_8480" data-name="패스 8480" class="cls-1" d="M588.441,319.2h-.7a1.526,1.526,0,0,1-1.209-.5,1.638,1.638,0,0,1-.392-1.126v-3.208h-.669v-.9h.669v-1.773h1.175v1.773h1.127v.9h-1.127v3.148q0,.677.644.677h.484Z" transform="translate(-511.421 -310.938)"/>
        <path id="패스_8481" data-name="패스 8481" class="cls-1" d="M597.378,315.287l-2.581,7a1.981,1.981,0,0,1-.424.724,1.618,1.618,0,0,1-1.2.426H592.7v-1.047h.3a.881.881,0,0,0,.541-.134,1.041,1.041,0,0,0,.3-.489l.325-.91-2.039-5.567h1.243l1.4,4.108,1.357-4.108Z" transform="translate(-514.985 -312.856)"/>
        <path id="패스_8482" data-name="패스 8482" class="cls-1" d="M614.742,318.408h-5.189v-8.191H610.8v7.078h3.947Z" transform="translate(-524.313 -310.142)"/>
        <path id="패스_8483" data-name="패스 8483" class="cls-1" d="M626.178,321.047H625v-.529a2.423,2.423,0,0,1-3.1.066,1.721,1.721,0,0,1-.457-1.253,1.549,1.549,0,0,1,.518-1.217,2.189,2.189,0,0,1,1.5-.46H625v-.413q0-1.091-1.278-1.089a1.531,1.531,0,0,0-1.277.556l-.772-.724a2.316,2.316,0,0,1,.9-.666,3.448,3.448,0,0,1,1.2-.172q2.406,0,2.408,2Zm-1.178-2.1v-.467h-1.372q-1.048,0-1.048.833t1.07.82a1.543,1.543,0,0,0,1.1-.331A1.153,1.153,0,0,0,625,318.943Z" transform="translate(-530.678 -312.781)"/>
        <path id="패스_8484" data-name="패스 8484" class="cls-1" d="M639.139,315.485a3.549,3.549,0,0,1-.649,2.472,1.92,1.92,0,0,1-1.418.516,1.9,1.9,0,0,1-1.532-.686v.622h-1.178v-8.191h1.178v2.943a1.9,1.9,0,0,1,1.529-.652,1.916,1.916,0,0,1,1.415.517A3.5,3.5,0,0,1,639.139,315.485Zm-1.178,0a3.357,3.357,0,0,0-.2-1.355,1.154,1.154,0,0,0-2,0,4.274,4.274,0,0,0,0,2.709,1.143,1.143,0,0,0,2,0A3.356,3.356,0,0,0,637.962,315.485Z" transform="translate(-537.593 -310.142)"/>
        <path id="패스_8485" data-name="패스 8485" class="cls-1" d="M651.213,318.124a3.2,3.2,0,0,1-.679,2.286,2.55,2.55,0,0,1-3.512,0,4.169,4.169,0,0,1,0-4.563,2.551,2.551,0,0,1,3.512,0A3.183,3.183,0,0,1,651.213,318.124Zm-1.175,0a2.292,2.292,0,0,0-.4-1.6,1.265,1.265,0,0,0-1.712,0,3.37,3.37,0,0,0,0,3.191,1.235,1.235,0,0,0,1.712,0A2.3,2.3,0,0,0,650.038,318.124Z" transform="translate(-544.005 -312.781)"/>
        <path id="패스_8486" data-name="패스 8486" class="cls-1" d="M663.228,315.7l-.891.883a1.228,1.228,0,0,0-.88-.385,1.092,1.092,0,0,0-.834.363,1.34,1.34,0,0,0-.335.948v3.542h-1.155v-5.835h1.155v.632a1.788,1.788,0,0,1,1.55-.7A1.883,1.883,0,0,1,663.228,315.7Z" transform="translate(-550.852 -312.781)"/>
        <path id="패스_8487" data-name="패스 8487" class="cls-1" d="M672.714,321.047h-1.178v-.529a2.423,2.423,0,0,1-3.1.066,1.721,1.721,0,0,1-.458-1.253,1.544,1.544,0,0,1,.52-1.217,2.177,2.177,0,0,1,1.495-.46h1.542v-.413c0-.727-.424-1.089-1.278-1.089a1.52,1.52,0,0,0-1.275.556l-.773-.724a2.325,2.325,0,0,1,.9-.666,3.472,3.472,0,0,1,1.2-.172q2.406,0,2.405,2Zm-1.178-2.1v-.467h-1.373q-1.048,0-1.048.833t1.073.82a1.536,1.536,0,0,0,1.094-.331A1.154,1.154,0,0,0,671.537,318.943Z" transform="translate(-555.588 -312.781)"/>
        <path id="패스_8488" data-name="패스 8488" class="cls-1" d="M682.755,319.2h-.7a1.532,1.532,0,0,1-1.211-.5,1.645,1.645,0,0,1-.392-1.126v-3.208h-.668v-.9h.668v-1.773h1.175v1.773h1.128v.9h-1.128v3.148q0,.677.644.677h.484Z" transform="translate(-561.906 -310.938)"/>
        <path id="패스_8489" data-name="패스 8489" class="cls-1" d="M692.526,318.124a3.205,3.205,0,0,1-.681,2.286,2.552,2.552,0,0,1-3.514,0,4.163,4.163,0,0,1,0-4.563,2.553,2.553,0,0,1,3.514,0A3.19,3.19,0,0,1,692.526,318.124Zm-1.178,0a2.285,2.285,0,0,0-.4-1.6,1.264,1.264,0,0,0-1.711,0,3.35,3.35,0,0,0,0,3.191,1.234,1.234,0,0,0,1.711,0A2.29,2.29,0,0,0,691.348,318.124Z" transform="translate(-566.117 -312.781)"/>
        <path id="패스_8490" data-name="패스 8490" class="cls-1" d="M704.541,315.7l-.893.883a1.232,1.232,0,0,0-.879-.385,1.09,1.09,0,0,0-.833.363,1.331,1.331,0,0,0-.336.948v3.542h-1.157v-5.835H701.6v.632a1.786,1.786,0,0,1,1.551-.7A1.888,1.888,0,0,1,704.541,315.7Z" transform="translate(-572.965 -312.781)"/>
        <path id="패스_8491" data-name="패스 8491" class="cls-1" d="M711.375,311.367h-1.242v-1.243h1.242Zm-.033,6.992h-1.177v-5.835h1.177Z" transform="translate(-578.152 -310.092)"/>
        <path id="패스_8492" data-name="패스 8492" class="cls-1" d="M719.922,318.476H716.14a1.723,1.723,0,0,0,.387,1.186,1.385,1.385,0,0,0,1.1.435,1.935,1.935,0,0,0,1.413-.592l.749.7a3.158,3.158,0,0,1-.934.677,3.065,3.065,0,0,1-1.252.23q-2.624,0-2.625-2.988a3.3,3.3,0,0,1,.666-2.191,2.252,2.252,0,0,1,1.806-.786,2.3,2.3,0,0,1,1.832.783,3.024,3.024,0,0,1,.644,2.027Zm-1.16-.822a2.158,2.158,0,0,0-.163-.791,1.277,1.277,0,0,0-2.31,0,2.158,2.158,0,0,0-.15.791Z" transform="translate(-580.743 -312.781)"/>
        <path id="패스_8493" data-name="패스 8493" class="cls-1" d="M731.559,319.263a1.583,1.583,0,0,1-.675,1.367,2.947,2.947,0,0,1-1.757.482,3.349,3.349,0,0,1-2.452-.838l.771-.769a2.26,2.26,0,0,0,1.679.6q1.276,0,1.278-.8c0-.409-.263-.638-.781-.682l-.933-.081q-1.722-.15-1.722-1.613a1.588,1.588,0,0,1,.644-1.326,2.5,2.5,0,0,1,1.552-.461,3.18,3.18,0,0,1,2.16.654l-.736.745a2.218,2.218,0,0,0-1.44-.416c-.7,0-1.058.249-1.058.746q0,.6.806.665l.923.081Q731.558,317.771,731.559,319.263Z" transform="translate(-587.006 -312.781)"/>
      </g>
    </g>
    <g id="그룹_6806" data-name="그룹 6806" transform="translate(268.533 246.98)">
      <g id="그룹_6805" data-name="그룹 6805">
        <path id="패스_8494" data-name="패스 8494" class="cls-2" d="M277.623,246.98l-9.09,37.612h6.926l9.087-37.612Z" transform="translate(-268.533 -246.98)"/>
        <path id="패스_8495" data-name="패스 8495" class="cls-2" d="M374.332,267.326l-6.807,28.163h16.753l.871-3.594H375.2c.164-.678,5.939-24.57,5.939-24.57Z" transform="translate(-321.522 -257.871)"/>
        <g id="그룹_6804" data-name="그룹 6804" transform="translate(11.43 9.453)">
          <path id="패스_8496" data-name="패스 8496" class="cls-3" d="M304.123,304.709s-4.414-24.559-4.45-24.751c.139-.191,8.868-12.638,8.868-12.638h-6.49s-5.182,7.752-8.922,12.937c1.063,5.465,4.334,24.452,4.334,24.452Z" transform="translate(-293.129 -267.321)"/>
        </g>
        <path id="패스_8497" data-name="패스 8497" class="cls-2" d="M339.441,284.808h-6.5l-1.586,6.561c-1.448.151-2.523.224-2.685.224-2.181,0-2.571-.722-1.9-3.506l3.626-15c.672-2.785,1.412-3.5,3.595-3.5.159,0,1.177.068,2.526.216l-1.426,5.9h6.5l2.036-8.423h-.042l-.32-.084a33.952,33.952,0,0,0-8.673-1.13c-7.834,0-10.048,2.826-11.23,7.711L320.071,287.4c-1.179,4.885-.332,7.71,7.5,7.71a40.527,40.527,0,0,0,9.222-1.129l.352-.081.108-.034Z" transform="translate(-295.889 -257.194)"/>
      </g>
    </g>
    <g id="그룹_6807" data-name="그룹 6807" transform="translate(339.889 256.303)">
      <path id="패스_8498" data-name="패스 8498" class="cls-1" d="M497.643,267.128v10.225H496v-4.962h-2.423v-1.116H496v-4.147Z" transform="translate(-460.353 -267.088)"/>
      <path id="패스_8499" data-name="패스 8499" class="cls-1" d="M486.542,290.657a1.416,1.416,0,0,1-1.238-1.408v-2.958h1.632v3.282h6.745v1.1h-6.927Z" transform="translate(-455.924 -277.346)"/>
      <path id="패스_8500" data-name="패스 8500" class="cls-1" d="M486.648,268.436h-6.269v1.132h4.439a6.13,6.13,0,0,1-4.663,4.995v1.095a6.987,6.987,0,0,0,5.267-3.353A10.323,10.323,0,0,0,486.648,268.436Z" transform="translate(-453.168 -267.788)"/>
      <path id="패스_8501" data-name="패스 8501" class="cls-1" d="M629.593,268.7h-5.931v1.132h4.152c0,1.309-1.635,4.629-4.372,5v1.093a7.069,7.069,0,0,0,5.125-3.353A9.11,9.11,0,0,0,629.593,268.7Z" transform="translate(-529.867 -267.93)"/>
      <path id="패스_8502" data-name="패스 8502" class="cls-1" d="M638.256,267.281v2.247h-3.144v1.117h3.144v1.54h-3.264V273.3h3.264v1.841h1.629v-7.862Z" transform="translate(-536.05 -267.17)"/>
      <path id="패스_8503" data-name="패스 8503" class="cls-1" d="M633.343,269.447" transform="translate(-535.167 -268.329)"/>
      <path id="패스_8504" data-name="패스 8504" class="cls-1" d="M462.427,277.833h-12.7v1.114h5.452v3.142h1.636v-3.142h5.613Z" transform="translate(-436.879 -272.818)"/>
      <path id="패스_8505" data-name="패스 8505" class="cls-1" d="M462.933,267.869l-.512,4.86h-1.642l.342-3.755H454.06v-1.1Z" transform="translate(-439.2 -267.485)"/>
      <path id="패스_8506" data-name="패스 8506" class="cls-1" d="M462.542,285.3v5.052h-1.631v-3.98h-7.357V285.3h8.988Z" transform="translate(-438.928 -276.817)"/>
      <rect id="사각형_2312" data-name="사각형 2312" class="cls-1" width="1.621" height="5.859" transform="translate(151.379 7.499)"/>
      <rect id="사각형_2313" data-name="사각형 2313" class="cls-1" width="12.761" height="1.125" transform="translate(145.902 6.791)"/>
      <path id="패스_8507" data-name="패스 8507" class="cls-1" d="M746.945,274.6h1.644a30.062,30.062,0,0,0,.485-6.238h-9.05v1.14h7.406A20.85,20.85,0,0,1,746.945,274.6Z" transform="translate(-592.272 -267.746)"/>
      <path id="패스_8508" data-name="패스 8508" class="cls-1" d="M512.61,267.9a16.346,16.346,0,0,0,.032,1.831,3.29,3.29,0,0,0,2.52,3.208v1.058a4.145,4.145,0,0,1-3.46-2.13h0a4.147,4.147,0,0,1-3.458,2.13v-1.058a3.291,3.291,0,0,0,2.518-3.208,15.856,15.856,0,0,0,.032-1.831Z" transform="translate(-468.203 -267.493)"/>
      <path id="패스_8509" data-name="패스 8509" class="cls-1" d="M539.759,267.9a16.5,16.5,0,0,0,.032,1.831,3.29,3.29,0,0,0,2.518,3.208v1.058a4.146,4.146,0,0,1-3.458-2.13h0a4.152,4.152,0,0,1-3.461,2.13v-1.058a3.293,3.293,0,0,0,2.52-3.208,16.354,16.354,0,0,0,.032-1.831Z" transform="translate(-482.734 -267.493)"/>
      <path id="패스_8510" data-name="패스 8510" class="cls-1" d="M525.608,267.187v7.071h-1.652V270.79h-2.533v-1.12h2.533v-2.484Z" transform="translate(-475.258 -267.119)"/>
      <path id="패스_8511" data-name="패스 8511" class="cls-1" d="M513.24,284.3h8v3.146h-6.316v1.16h6.326v1.069h-6.68s-1.282.079-1.282-1.493v-1.809h6.31v-1H513.24Z" transform="translate(-470.878 -276.282)"/>
      <path id="패스_8512" data-name="패스 8512" class="cls-1" d="M553.895,267.157v2.466h-.826v-2.466h-1.479v7.567h1.479v-3.963h.826v4.272h1.5v-7.876Z" transform="translate(-491.405 -267.104)"/>
      <path id="패스_8513" data-name="패스 8513" class="cls-1" d="M540.356,287.122c0-1.85,1.74-2.766,4.519-2.766s4.522.916,4.522,2.766c0,1.874-1.738,2.765-4.522,2.765S540.356,289,540.356,287.122Zm4.544,1.813c1.744,0,2.8-.541,2.8-1.813,0-1.223-1.083-1.814-2.8-1.814s-2.8.592-2.8,1.814C542.1,288.395,543.155,288.936,544.9,288.936Z" transform="translate(-485.393 -276.31)"/>
      <path id="패스_8514" data-name="패스 8514" class="cls-1" d="M627.476,287.241c0-1.826,1.621-2.728,4.214-2.728s4.216.9,4.216,2.728c0,1.851-1.622,2.73-4.216,2.73S627.476,289.093,627.476,287.241Zm4.236,1.669c1.612,0,2.59-.5,2.59-1.667,0-1.126-1-1.67-2.59-1.67s-2.59.544-2.59,1.67C629.122,288.413,630.1,288.911,631.712,288.911Z" transform="translate(-532.027 -276.394)"/>
      <rect id="사각형_2314" data-name="사각형 2314" class="cls-1" width="2.975" height="1.118" transform="translate(126.809 4.455)"/>
      <rect id="사각형_2315" data-name="사각형 2315" class="cls-1" width="1.642" height="13.15" transform="translate(115.124 0.173)"/>
      <path id="패스_8515" data-name="패스 8515" class="cls-1" d="M655.617,270.436v-1.772h-1.79v1.772c-.067,1.839-.619,5.319-2.9,6.216v1.04a5.767,5.767,0,0,0,3.793-3.248,5.774,5.774,0,0,0,3.8,3.248v-1.04C656.236,275.755,655.687,272.275,655.617,270.436Z" transform="translate(-544.581 -267.91)"/>
      <rect id="사각형_2316" data-name="사각형 2316" class="cls-1" width="7.709" height="1.246" transform="translate(0 2.267)"/>
      <rect id="사각형_2317" data-name="사각형 2317" class="cls-1" width="4.357" height="1.246" transform="translate(1.676 0.429)"/>
      <path id="패스_8516" data-name="패스 8516" class="cls-1" d="M440.86,267.343V277.9h1.64v-4.524h2.068v-1.113H442.5v-4.916Z" transform="translate(-432.134 -267.203)"/>
      <path id="패스_8517" data-name="패스 8517" class="cls-1" d="M423.819,278.047c0-1.4,1.247-2.522,3.1-2.522,1.418,0,3.1.835,3.1,2.522,0,1.392-1.25,2.522-3.1,2.522C425.5,280.569,423.819,279.757,423.819,278.047Zm3.092,1.31c.931,0,1.493-.359,1.493-1.329,0-.934-.578-1.33-1.493-1.33s-1.49.4-1.49,1.33C425.421,279,425.985,279.357,426.911,279.357Z" transform="translate(-423.012 -271.583)"/>
      <rect id="사각형_2318" data-name="사각형 2318" class="cls-1" width="7.71" height="1.245" transform="translate(119.536 2.033)"/>
      <rect id="사각형_2319" data-name="사각형 2319" class="cls-1" width="4.356" height="1.245" transform="translate(121.212 0.22)"/>
      <path id="패스_8518" data-name="패스 8518" class="cls-1" d="M681.045,277.184c0-1.306,1.248-2.354,3.1-2.354,1.414,0,3.1.779,3.1,2.354,0,1.3-1.25,2.354-3.1,2.354C682.724,279.538,681.045,278.781,681.045,277.184Zm3.092,1.036c.928,0,1.492-.285,1.492-1.055,0-.738-.576-1.053-1.492-1.053s-1.489.315-1.489,1.053C682.647,277.935,683.208,278.22,684.137,278.22Z" transform="translate(-560.702 -271.211)"/>
      <path id="패스_8519" data-name="패스 8519" class="cls-1" d="M426.589,288.355h1.63v2.329H435.1v1.107h-7.079a1.452,1.452,0,0,1-1.432-1.4Z" transform="translate(-424.495 -278.451)"/>
      <path id="패스_8520" data-name="패스 8520" class="cls-1" d="M599.382,289.2h1.627v1.883h6.472v1.105h-6.667a1.452,1.452,0,0,1-1.432-1.4Z" transform="translate(-516.988 -278.901)"/>
      <rect id="사각형_2320" data-name="사각형 2320" class="cls-1" width="7.314" height="1.11" transform="translate(66.881 1.689)"/>
      <rect id="사각형_2321" data-name="사각형 2321" class="cls-1" width="4.18" height="1.112" transform="translate(68.448 0)"/>
      <path id="패스_8521" data-name="패스 8521" class="cls-1" d="M565.114,282.072h9.454v-1.11h-4.413v-1.155h-1.645v1.155h-3.4Z" transform="translate(-498.645 -273.874)"/>
      <path id="패스_8522" data-name="패스 8522" class="cls-1" d="M584.177,267.229v8.352h1.639V270.84h1.579v-1.113h-1.579v-2.5Z" transform="translate(-508.849 -267.142)"/>
      <path id="패스_8523" data-name="패스 8523" class="cls-1" d="M570.1,286.261h8.179v2.767h-6.5v.514h6.515v1.118h-6.826s-1.244.09-1.367-1.548v-1.189h6.489v-.54H570.1Z" transform="translate(-501.314 -277.33)"/>
      <rect id="사각형_2322" data-name="사각형 2322" class="cls-1" width="7.411" height="1.112" transform="translate(80.125 1.907)"/>
      <rect id="사각형_2323" data-name="사각형 2323" class="cls-1" width="4.531" height="1.112" transform="translate(81.565 0.199)"/>
      <path id="패스_8524" data-name="패스 8524" class="cls-1" d="M593.643,284.917h9.252v-1.111H598.88v-1.154h-1.644v1.154h-3.593Z" transform="translate(-513.916 -275.398)"/>
      <path id="패스_8525" data-name="패스 8525" class="cls-1" d="M612.554,267.229V277.65H614.2V270.84h1.579v-1.113H614.2v-2.5Z" transform="translate(-524.039 -267.142)"/>
      <path id="패스_8526" data-name="패스 8526" class="cls-1" d="M596.473,276.474c0-1.215,1.237-2.189,3.074-2.189,1.4,0,3.076.725,3.076,2.189,0,1.208-1.241,2.188-3.076,2.188C598.137,278.663,596.473,277.959,596.473,276.474Zm3.066,1.1c.923,0,1.483-.3,1.483-1.116,0-.784-.572-1.118-1.483-1.118s-1.477.334-1.477,1.118C598.062,277.272,598.619,277.574,599.539,277.574Z" transform="translate(-515.431 -270.919)"/>
      <path id="패스_8527" data-name="패스 8527" class="cls-1" d="M567.144,275.352c0-1,1.293-1.8,3.216-1.8,1.47,0,3.217.593,3.217,1.8,0,.99-1.3,1.794-3.217,1.794C568.886,277.146,567.144,276.57,567.144,275.352Zm3.209.7c.966,0,1.55-.191,1.55-.711,0-.5-.6-.711-1.55-.711s-1.547.212-1.547.711C568.806,275.857,569.39,276.049,570.353,276.049Z" transform="translate(-499.732 -270.529)"/>
      <rect id="사각형_2324" data-name="사각형 2324" class="cls-1" width="1.637" height="8.534" transform="translate(128.832 0.044)"/>
      <path id="패스_8528" data-name="패스 8528" class="cls-1" d="M724.69,267.172v2.091h-2.662v1.145h2.662v1.937h-2.72v1.144h2.72v3.282h1.664v-9.6Z" transform="translate(-582.609 -267.112)"/>
      <path id="패스_8529" data-name="패스 8529" class="cls-1" d="M714.907,290.323a1.405,1.405,0,0,1-1.237-1.409v-3.122H715.3v3.432h6.984v1.116H715.12Z" transform="translate(-578.165 -277.079)"/>
      <path id="패스_8530" data-name="패스 8530" class="cls-1" d="M709.009,272.023c0-2.291,1.283-3.426,3.336-3.426s3.331,1.135,3.331,3.426c0,2.322-1.28,3.423-3.331,3.423S709.009,274.345,709.009,272.023Zm3.328,2.13c1.029,0,1.653-.645,1.653-2.156,0-1.455-.639-2.157-1.653-2.157s-1.654.7-1.654,2.157C710.683,273.508,711.307,274.153,712.337,274.153Z" transform="translate(-575.67 -267.874)"/>
      <path id="패스_8531" data-name="패스 8531" class="cls-1" d="M767.2,270.462c0-1.759,1.281-2.63,3.329-2.63s3.326.871,3.326,2.63c0,1.785-1.277,2.631-3.326,2.631S767.2,272.248,767.2,270.462Zm3.321,1.637a1.467,1.467,0,0,0,1.65-1.656,1.649,1.649,0,1,0-3.3,0A1.466,1.466,0,0,0,770.517,272.1Z" transform="translate(-606.817 -267.465)"/>
      <path id="패스_8532" data-name="패스 8532" class="cls-1" d="M784.329,267.172v10.622H782.69v-1.431h-2.558v-1.117h2.558v-8.074Z" transform="translate(-613.742 -267.112)"/>
      <path id="패스_8533" data-name="패스 8533" class="cls-1" d="M771.061,291.768a1.4,1.4,0,0,1-1.238-1.409v-1.75h1.654v2.074h7.628v1.1h-7.833Z" transform="translate(-608.223 -278.587)"/>
      <path id="패스_8534" data-name="패스 8534" class="cls-1" d="M764.92,280.473h9.674v1.107h-4.626v2.253h-1.637V281.58H764.92Z" transform="translate(-605.599 -274.231)"/>
      <path id="패스_8535" data-name="패스 8535" class="cls-1" d="M778.569,287.225" transform="translate(-612.905 -277.846)"/>
      <path id="패스_8536" data-name="패스 8536" class="cls-1" d="M780.287,288.2" transform="translate(-613.825 -278.367)"/>
      <path id="패스_8537" data-name="패스 8537" class="cls-1" d="M684.644,286.455v2.794a1.453,1.453,0,0,0,1.435,1.4h5.539a1.422,1.422,0,0,0,1.468-1.4v-2.794Zm6.812,2.98h-5.128v-1.874h5.128Z" transform="translate(-562.628 -277.434)"/>
    </g>
  </g>
</svg>
