<svg xmlns="http://www.w3.org/2000/svg" width="238.681" height="29.3" viewBox="0 0 238.681 29.3">
  <defs>
    <style>
      .cls-1 {
        fill: #161615;
      }

      .cls-2 {
        fill: #007d2e;
      }
    </style>
  </defs>
  <g id="그룹_6701" data-name="그룹 6701" transform="translate(-236.345 -417.937)">
    <path id="패스_7810" data-name="패스 7810" class="cls-1" d="M274.042,423.744v-1.533h2.937v1.533h4.058v2.074h-3.065a4.242,4.242,0,0,1,2.772,1.913,3.821,3.821,0,0,1-1.415,5.235,7.051,7.051,0,0,1-3.9,1.008,6.691,6.691,0,0,1-3.839-1.052,4,4,0,0,1-1.731-2.325,3.746,3.746,0,0,1,.358-2.866,4.315,4.315,0,0,1,2.666-1.913h-3.044v-2.074Zm.436,15.365h11.649v2.165H271.533v-6.161h2.945Zm-1.105-11.289a2.225,2.225,0,0,0-.671,1.672,2.26,2.26,0,0,0,.671,1.668,2.812,2.812,0,0,0,2.055.74,3.058,3.058,0,0,0,2.113-.717,2.065,2.065,0,0,0,.749-1.612,2.321,2.321,0,0,0-.716-1.711,3.007,3.007,0,0,0-2.146-.756A2.843,2.843,0,0,0,273.373,427.82ZM286,422.31v5.831h2.035v2.27H286V436.2h-2.939V422.31Z" transform="translate(3.66 0.469)"/>
    <path id="패스_7811" data-name="패스 7811" class="cls-1" d="M305.873,431.736h-7.134v2.686H305V441.4H302.06v-4.818H289.734v-2.156H295.8v-2.686h-6.943v-2.163H301.7a15.13,15.13,0,0,0,.28-1.773c.048-.554.08-1.186.08-1.892v-1.092H289.724v-2.161H305V424.7c0,.8-.034,1.606-.1,2.428a24.188,24.188,0,0,1-.318,2.447h1.292Z" transform="translate(5.757 0.517)"/>
    <path id="패스_7812" data-name="패스 7812" class="cls-1" d="M319.5,426.048a14.2,14.2,0,0,0,5.012,1.632l-.972,1.773a21.906,21.906,0,0,1-5.17-1.5,6.058,6.058,0,0,1-2.709-2.063,5.317,5.317,0,0,1-2.552,2.063,20.1,20.1,0,0,1-5.032,1.5l-.873-1.773a12.391,12.391,0,0,0,4.9-1.651,4.148,4.148,0,0,0,2.089-3.582h2.918A4.142,4.142,0,0,0,319.5,426.048Zm4.973,4.622v2.166H307.246v-2.166Zm-2.906,4.991a2.692,2.692,0,0,1,0,5.128,11.613,11.613,0,0,1-5.688,1.173,11.868,11.868,0,0,1-5.753-1.173,2.693,2.693,0,0,1,0-5.128,12.037,12.037,0,0,1,5.753-1.157A11.779,11.779,0,0,1,321.568,435.66Zm-9.208,1.506c-.745.286-1.114.635-1.114,1.06,0,.406.37.756,1.114,1.051a10.3,10.3,0,0,0,3.52.478,9.987,9.987,0,0,0,3.461-.478c.759-.3,1.132-.645,1.132-1.051,0-.425-.373-.773-1.132-1.06a10.215,10.215,0,0,0-3.461-.475A10.549,10.549,0,0,0,312.36,437.166Z" transform="translate(7.768 0.494)"/>
    <path id="패스_7813" data-name="패스 7813" class="cls-1" d="M335.258,422.683v2.233a7.149,7.149,0,0,1-2.238,5.352,12.879,12.879,0,0,1-6.761,3.084l-.674-1.853a10.662,10.662,0,0,0,4.867-2.146,4.68,4.68,0,0,0,1.893-3.643v-.836H326.2v-2.19Zm5.133,12.078a3.438,3.438,0,0,1,1.866,2.965,3.364,3.364,0,0,1-1.866,2.9,13,13,0,0,1-11.4,0,3.374,3.374,0,0,1-1.826-2.9,3.45,3.45,0,0,1,1.826-2.965,13.216,13.216,0,0,1,11.4,0Zm-9.234,1.5a1.68,1.68,0,0,0-1.073,1.468,1.631,1.631,0,0,0,1.073,1.412,7.464,7.464,0,0,0,3.424.637,7.966,7.966,0,0,0,3.559-.637c.761-.37,1.14-.839,1.14-1.412,0-.6-.378-1.087-1.14-1.468a8.2,8.2,0,0,0-3.559-.624A7.678,7.678,0,0,0,331.156,436.258Zm10.7-13.967v4.523h2.01V429h-2.01v4.16h-2.943V422.291Z" transform="translate(9.782 0.477)"/>
    <path id="패스_7814" data-name="패스 7814" class="cls-1" d="M353.724,422.687v5.921a11.32,11.32,0,0,1-2.221,7.143,14.32,14.32,0,0,1-6.142,4.281l-1.176-1.638a12.169,12.169,0,0,0,4.645-3.238,8.615,8.615,0,0,0,1.983-5.715v-4.594h-6.15v-2.16Zm6.893-.4v19.138h-2.944V422.291Z" transform="translate(11.821 0.477)"/>
    <path id="패스_7815" data-name="패스 7815" class="cls-1" d="M372.5,423.9a6.005,6.005,0,0,1,0,7.64,5.8,5.8,0,0,1-8.216,0,6.055,6.055,0,0,1,0-7.64,5.829,5.829,0,0,1,8.216,0Zm-5.249,15.211h11.658v2.164H364.3V435h2.944Zm-.762-13.718a4.839,4.839,0,0,0,0,4.717,2.174,2.174,0,0,0,1.91,1.036,2.146,2.146,0,0,0,1.892-1.036,4.63,4.63,0,0,0,0-4.717,2.132,2.132,0,0,0-1.892-1.036A2.16,2.16,0,0,0,366.486,425.4Zm12.295-3.084v5.83h2.028v2.268H378.78V436.2h-2.94V422.313Z" transform="translate(13.876 0.469)"/>
    <path id="패스_7816" data-name="패스 7816" class="cls-1" d="M392.316,422.686v2.161h-3.832a7.94,7.94,0,0,0,1.542,4.893,9.26,9.26,0,0,0,3.346,2.685l-1.334,1.713a17.148,17.148,0,0,1-2.864-1.752,9.5,9.5,0,0,1-2.168-2.185,9.235,9.235,0,0,1-2.13,2.185,17.561,17.561,0,0,1-2.823,1.752l-1.189-1.713a8.357,8.357,0,0,0,3.239-2.685,8.253,8.253,0,0,0,1.428-4.893H381.9v-2.161ZM385.8,439.065h11.921v2.159H382.855v-6.157H385.8Zm11.825-2.818h-2.947V429.03h-3.235v-2.166h3.235v-4.573h2.947Z" transform="translate(15.842 0.477)"/>
    <path id="패스_7817" data-name="패스 7817" class="cls-1" d="M412.846,422.291h2.942v5.432h2.005v2.268h-2.005v6.161h-2.942v-2.984h-13.4V431h2.39v-3.6h2.939V431H406.9c.123-.587.209-1.161.276-1.729a18.168,18.168,0,0,0,.1-1.971v-2.444h-7.185V422.7h10.094v3.908a19.064,19.064,0,0,1-.114,2.266,13,13,0,0,1-.383,2.126h3.155Zm-8.6,16.758h11.658v2.191h-14.6v-6.408h2.942Z" transform="translate(17.879 0.477)"/>
    <path id="패스_7818" data-name="패스 7818" class="cls-1" d="M428.619,422.7v8.91h-6.925v5.5h9.833v-14.8h2.938v19.134h-2.938v-2.23H418.75v-9.683H425.7v-4.763H418.75V422.7Z" transform="translate(19.995 0.48)"/>
    <path id="패스_7819" data-name="패스 7819" class="cls-1" d="M450.086,430.753V422.3h2.937v14.93h-2.937v-1.115h-3.323v-2.16h3.323v-1.062h-6.315v3.222H441.2v2.975h11.9v2.159H438.263v-5.832h2.569v-2.524h-4.455v-2.139Zm-3.257-7.307a3.434,3.434,0,0,1,0,5.55,8.14,8.14,0,0,1-8.614,0,3.461,3.461,0,0,1,0-5.55,6.73,6.73,0,0,1,4.3-1.235A6.813,6.813,0,0,1,446.83,423.446Zm-6.4,1.452a1.665,1.665,0,0,0-.657,1.354,1.513,1.513,0,0,0,.657,1.271,3.34,3.34,0,0,0,2.089.579,3.4,3.4,0,0,0,2.111-.579,1.516,1.516,0,0,0,.674-1.271,1.633,1.633,0,0,0-.674-1.354,3.511,3.511,0,0,0-2.111-.554A3.449,3.449,0,0,0,440.425,424.9Z" transform="translate(21.927 0.469)"/>
    <g id="그룹_6700" data-name="그룹 6700" transform="translate(236.345 417.937)">
      <path id="패스_7820" data-name="패스 7820" class="cls-2" d="M265.64,432.586a14.648,14.648,0,1,1-14.648-14.649A14.651,14.651,0,0,1,265.64,432.586Zm-14.648-12.452a12.452,12.452,0,1,0,12.45,12.452A12.448,12.448,0,0,0,250.992,420.134Z" transform="translate(-236.345 -417.937)"/>
      <path id="패스_7821" data-name="패스 7821" class="cls-2" d="M249.542,421.665v9.4h-9.469Z" transform="translate(-235.936 -417.528)"/>
      <path id="패스_7822" data-name="패스 7822" class="cls-2" d="M249.542,441.269v-9.4h-9.469Z" transform="translate(-235.936 -416.41)"/>
      <path id="패스_7823" data-name="패스 7823" class="cls-2" d="M250.407,441.269v-9.4h9.475Z" transform="translate(-234.803 -416.41)"/>
      <path id="패스_7824" data-name="패스 7824" class="cls-2" d="M250.407,421.8v9.4h9.475Z" transform="translate(-234.803 -417.513)"/>
    </g>
  </g>
</svg>
