<svg xmlns="http://www.w3.org/2000/svg" width="204.044" height="40.223" viewBox="0 0 204.044 40.223">
  <defs>
    <style>
      .cls-1 {
        fill: #490057;
      }
    </style>
  </defs>
  <g id="그룹_6630" data-name="그룹 6630" transform="translate(-426.281 -374.802)">
    <g id="그룹_6578" data-name="그룹 6578" transform="translate(429.894 406.967)">
      <g id="그룹_6577" data-name="그룹 6577" transform="translate(0 0)">
        <g id="그룹_6526" data-name="그룹 6526" transform="translate(0 0.127)">
          <g id="그룹_6525" data-name="그룹 6525">
            <path id="패스_7620" data-name="패스 7620" class="cls-1" d="M465.045,721.23h1.483v3.589h.036c.195-.3.4-.579.6-.845l2.14-2.744h1.848l-2.821,3.322,3,4.48H469.58l-2.322-3.577-.729.834v2.744h-1.483Z" transform="translate(-465.045 -721.23)"/>
          </g>
        </g>
        <g id="그룹_6528" data-name="그룹 6528" transform="translate(7.257)">
          <g id="그룹_6527" data-name="그룹 6527">
            <path id="패스_7621" data-name="패스 7621" class="cls-1" d="M550.59,723.814a3.77,3.77,0,0,1-3.927,4.11,3.681,3.681,0,0,1-3.769-3.971,3.814,3.814,0,0,1,3.89-4.086A3.68,3.68,0,0,1,550.59,723.814Zm-6.115.116c0,1.586.839,2.859,2.273,2.859s2.261-1.285,2.261-2.917c0-1.47-.766-2.871-2.261-2.871S544.474,722.32,544.474,723.929Z" transform="translate(-542.894 -719.866)"/>
          </g>
        </g>
        <g id="그룹_6530" data-name="그룹 6530" transform="translate(16.848 0.069)">
          <g id="그룹_6529" data-name="그룹 6529">
            <path id="패스_7622" data-name="패스 7622" class="cls-1" d="M645.785,720.772a14.9,14.9,0,0,1,2.261-.162,3.937,3.937,0,0,1,2.529.625,1.933,1.933,0,0,1,.705,1.563,2.1,2.1,0,0,1-1.483,1.957v.035a2,2,0,0,1,1.143,1.5,14.987,14.987,0,0,0,.644,2.177H650.04a10.609,10.609,0,0,1-.547-1.841c-.231-1.019-.62-1.343-1.471-1.366h-.754v3.207h-1.483Zm1.483,3.45h.887c1.009,0,1.641-.509,1.641-1.285,0-.857-.632-1.25-1.6-1.25a4.5,4.5,0,0,0-.924.07Z" transform="translate(-645.785 -720.61)"/>
          </g>
        </g>
        <g id="그룹_6532" data-name="그룹 6532" transform="translate(24.372 0.127)">
          <g id="그룹_6531" data-name="그룹 6531">
            <path id="패스_7623" data-name="패스 7623" class="cls-1" d="M731.087,725.571H728v2.292h3.453v1.169H726.5v-7.8h4.766V722.4H728v2.014h3.088Z" transform="translate(-726.504 -721.23)"/>
          </g>
        </g>
        <g id="그룹_6534" data-name="그룹 6534" transform="translate(30.632 0.127)">
          <g id="그룹_6533" data-name="그룹 6533">
            <path id="패스_7624" data-name="패스 7624" class="cls-1" d="M795.911,726.822l-.705,2.211h-1.544l2.626-7.8H798.2l2.662,7.8h-1.6l-.742-2.211Zm2.346-1.077-.644-1.922c-.158-.475-.292-1.007-.413-1.459h-.024c-.122.451-.243,1-.389,1.459l-.632,1.922Z" transform="translate(-793.662 -721.23)"/>
          </g>
        </g>
        <g id="그룹_6536" data-name="그룹 6536" transform="translate(42.277)">
          <g id="그룹_6535" data-name="그룹 6535">
            <path id="패스_7625" data-name="패스 7625" class="cls-1" d="M924.884,727.565a5.357,5.357,0,0,1-2.115.359c-2.6,0-4.182-1.563-4.182-3.936,0-2.57,1.872-4.121,4.377-4.121a4.91,4.91,0,0,1,1.994.347l-.328,1.135a4.15,4.15,0,0,0-1.6-.3,2.662,2.662,0,0,0-2.869,2.871,2.623,2.623,0,0,0,2.857,2.813,4.371,4.371,0,0,0,1.629-.289Z" transform="translate(-918.586 -719.866)"/>
          </g>
        </g>
        <g id="그룹_6538" data-name="그룹 6538" transform="translate(50.458 0.069)">
          <g id="그룹_6537" data-name="그룹 6537">
            <path id="패스_7626" data-name="패스 7626" class="cls-1" d="M1006.349,720.772a14.9,14.9,0,0,1,2.261-.162,3.938,3.938,0,0,1,2.529.625,1.933,1.933,0,0,1,.7,1.563,2.1,2.1,0,0,1-1.483,1.957v.035a2,2,0,0,1,1.143,1.5,14.987,14.987,0,0,0,.644,2.177H1010.6a10.617,10.617,0,0,1-.547-1.841c-.231-1.019-.62-1.343-1.471-1.366h-.754v3.207h-1.483Zm1.483,3.45h.887c1.009,0,1.641-.509,1.641-1.285,0-.857-.632-1.25-1.6-1.25a4.5,4.5,0,0,0-.924.07Z" transform="translate(-1006.349 -720.61)"/>
          </g>
        </g>
        <g id="그룹_6540" data-name="그룹 6540" transform="translate(57.982 0.127)">
          <g id="그룹_6539" data-name="그룹 6539">
            <path id="패스_7627" data-name="패스 7627" class="cls-1" d="M1091.651,725.571h-3.088v2.292h3.453v1.169h-4.948v-7.8h4.766V722.4h-3.27v2.014h3.088Z" transform="translate(-1087.068 -721.23)"/>
          </g>
        </g>
        <g id="그룹_6542" data-name="그룹 6542" transform="translate(64.242 0.127)">
          <g id="그룹_6541" data-name="그룹 6541">
            <path id="패스_7628" data-name="패스 7628" class="cls-1" d="M1156.475,726.822l-.7,2.211h-1.544l2.626-7.8h1.909l2.663,7.8h-1.6l-.742-2.211Zm2.346-1.077-.644-1.922c-.158-.475-.292-1.007-.413-1.459h-.024c-.121.451-.243,1-.389,1.459l-.632,1.922Z" transform="translate(-1154.226 -721.23)"/>
          </g>
        </g>
        <g id="그룹_6544" data-name="그룹 6544" transform="translate(72.423 0.127)">
          <g id="그룹_6543" data-name="그룹 6543">
            <path id="패스_7629" data-name="패스 7629" class="cls-1" d="M1244.32,722.422h-2.334V721.23h6.188v1.192h-2.359v6.61h-1.5Z" transform="translate(-1241.986 -721.23)"/>
          </g>
        </g>
        <g id="그룹_6546" data-name="그룹 6546" transform="translate(80.178 0.127)">
          <g id="그룹_6545" data-name="그룹 6545">
            <path id="패스_7630" data-name="패스 7630" class="cls-1" d="M1326.679,721.23v7.8h-1.5v-7.8Z" transform="translate(-1325.184 -721.23)"/>
          </g>
        </g>
        <g id="그룹_6548" data-name="그룹 6548" transform="translate(83.217 0.127)">
          <g id="그룹_6547" data-name="그룹 6547">
            <path id="패스_7631" data-name="패스 7631" class="cls-1" d="M1360.434,729.033l-2.65-7.8h1.629l1.119,3.543c.316.984.583,1.9.8,2.848h.025a29.415,29.415,0,0,1,.839-2.825l1.192-3.566h1.593l-2.833,7.8Z" transform="translate(-1357.784 -721.23)"/>
          </g>
        </g>
        <g id="그룹_6550" data-name="그룹 6550" transform="translate(91.908 0.127)">
          <g id="그룹_6549" data-name="그룹 6549">
            <path id="패스_7632" data-name="패스 7632" class="cls-1" d="M1455.607,725.571h-3.088v2.292h3.453v1.169h-4.948v-7.8h4.766V722.4h-3.27v2.014h3.088Z" transform="translate(-1451.024 -721.23)"/>
          </g>
        </g>
        <g id="그룹_6552" data-name="그룹 6552" transform="translate(101.232)">
          <g id="그룹_6551" data-name="그룹 6551">
            <path id="패스_7633" data-name="패스 7633" class="cls-1" d="M1557.341,727.565a5.358,5.358,0,0,1-2.115.359c-2.6,0-4.182-1.563-4.182-3.936,0-2.57,1.872-4.121,4.377-4.121a4.909,4.909,0,0,1,1.994.347l-.328,1.135a4.15,4.15,0,0,0-1.6-.3,2.662,2.662,0,0,0-2.869,2.871,2.623,2.623,0,0,0,2.857,2.813,4.371,4.371,0,0,0,1.629-.289Z" transform="translate(-1551.043 -719.866)"/>
          </g>
        </g>
        <g id="그룹_6554" data-name="그룹 6554" transform="translate(108.416)">
          <g id="그룹_6553" data-name="그룹 6553">
            <path id="패스_7634" data-name="패스 7634" class="cls-1" d="M1635.808,723.814a3.77,3.77,0,0,1-3.927,4.11,3.681,3.681,0,0,1-3.769-3.971,3.814,3.814,0,0,1,3.891-4.086A3.68,3.68,0,0,1,1635.808,723.814Zm-6.115.116c0,1.586.839,2.859,2.274,2.859s2.261-1.285,2.261-2.917c0-1.47-.766-2.871-2.261-2.871S1629.693,722.32,1629.693,723.929Z" transform="translate(-1628.112 -719.866)"/>
          </g>
        </g>
        <g id="그룹_6556" data-name="그룹 6556" transform="translate(117.435 0.127)">
          <g id="그룹_6555" data-name="그룹 6555">
            <path id="패스_7635" data-name="패스 7635" class="cls-1" d="M1724.872,729.033v-7.8h1.7l2.115,3.346a21.064,21.064,0,0,1,1.4,2.616h.024c-.1-1.042-.133-2.049-.133-3.242V721.23h1.386v7.8h-1.544l-2.14-3.438a25.264,25.264,0,0,1-1.471-2.686l-.036.012c.061,1.007.073,2.038.073,3.323v2.79Z" transform="translate(-1724.872 -721.23)"/>
          </g>
        </g>
        <g id="그룹_6558" data-name="그룹 6558" transform="translate(124.923 0.127)">
          <g id="그룹_6557" data-name="그룹 6557">
            <path id="패스_7636" data-name="패스 7636" class="cls-1" d="M1807.534,722.422H1805.2V721.23h6.188v1.192h-2.359v6.61h-1.5Z" transform="translate(-1805.2 -721.23)"/>
          </g>
        </g>
        <g id="그룹_6560" data-name="그룹 6560" transform="translate(132.107 0.127)">
          <g id="그룹_6559" data-name="그룹 6559">
            <path id="패스_7637" data-name="패스 7637" class="cls-1" d="M1886.854,725.571h-3.088v2.292h3.452v1.169h-4.948v-7.8h4.766V722.4h-3.27v2.014h3.088Z" transform="translate(-1882.271 -721.23)"/>
          </g>
        </g>
        <g id="그룹_6562" data-name="그룹 6562" transform="translate(138.404 0.127)">
          <g id="그룹_6561" data-name="그룹 6561">
            <path id="패스_7638" data-name="패스 7638" class="cls-1" d="M1949.82,729.033v-7.8h1.7l2.115,3.346a21.1,21.1,0,0,1,1.4,2.616h.024c-.1-1.042-.134-2.049-.134-3.242V721.23h1.386v7.8h-1.544l-2.14-3.438a25.308,25.308,0,0,1-1.471-2.686l-.036.012c.061,1.007.073,2.038.073,3.323v2.79Z" transform="translate(-1949.82 -721.23)"/>
          </g>
        </g>
        <g id="그룹_6564" data-name="그룹 6564" transform="translate(145.892 0.127)">
          <g id="그룹_6563" data-name="그룹 6563">
            <path id="패스_7639" data-name="패스 7639" class="cls-1" d="M2032.482,722.422h-2.334V721.23h6.188v1.192h-2.358v6.61h-1.5Z" transform="translate(-2030.148 -721.23)"/>
          </g>
        </g>
        <g id="그룹_6566" data-name="그룹 6566" transform="translate(154.534 0.127)">
          <g id="그룹_6565" data-name="그룹 6565">
            <path id="패스_7640" data-name="패스 7640" class="cls-1" d="M2125.113,726.822l-.705,2.211h-1.544l2.626-7.8h1.909l2.662,7.8h-1.6l-.741-2.211Zm2.347-1.077-.645-1.922c-.158-.475-.292-1.007-.413-1.459h-.024c-.121.451-.243,1-.389,1.459l-.632,1.922Z" transform="translate(-2122.864 -721.23)"/>
          </g>
        </g>
        <g id="그룹_6568" data-name="그룹 6568" transform="translate(162.484 0.046)">
          <g id="그룹_6567" data-name="그룹 6567">
            <path id="패스_7641" data-name="패스 7641" class="cls-1" d="M2215.136,727.886a8.482,8.482,0,0,1-2.638.44,4.55,4.55,0,0,1-3.209-1.042,3.766,3.766,0,0,1-1.143-2.871c0-2.466,1.848-4.052,4.559-4.052a5.673,5.673,0,0,1,2.176.371l-.328,1.146a4.6,4.6,0,0,0-1.86-.336,2.682,2.682,0,0,0-2.979,2.8,2.642,2.642,0,0,0,2.845,2.825,2.991,2.991,0,0,0,1.13-.162v-1.945h-1.447v-1.123h2.894Z" transform="translate(-2208.146 -720.361)"/>
          </g>
        </g>
        <g id="그룹_6570" data-name="그룹 6570" transform="translate(171.041 0.127)">
          <g id="그룹_6569" data-name="그룹 6569">
            <path id="패스_7642" data-name="패스 7642" class="cls-1" d="M2304.533,725.571h-3.088v2.292h3.453v1.169h-4.948v-7.8h4.766V722.4h-3.27v2.014h3.088Z" transform="translate(-2299.95 -721.23)"/>
          </g>
        </g>
        <g id="그룹_6572" data-name="그룹 6572" transform="translate(177.338 0.127)">
          <g id="그룹_6571" data-name="그룹 6571">
            <path id="패스_7643" data-name="패스 7643" class="cls-1" d="M2367.5,729.033v-7.8h1.7l2.115,3.346a21.067,21.067,0,0,1,1.4,2.616h.024c-.1-1.042-.134-2.049-.134-3.242V721.23h1.386v7.8h-1.544l-2.14-3.438a25.305,25.305,0,0,1-1.471-2.686l-.037.012c.061,1.007.073,2.038.073,3.323v2.79Z" transform="translate(-2367.501 -721.23)"/>
          </g>
        </g>
        <g id="그룹_6574" data-name="그룹 6574" transform="translate(185.166)">
          <g id="그룹_6573" data-name="그룹 6573">
            <path id="패스_7644" data-name="패스 7644" class="cls-1" d="M2457.779,727.565a5.357,5.357,0,0,1-2.115.359c-2.6,0-4.182-1.563-4.182-3.936,0-2.57,1.872-4.121,4.377-4.121a4.91,4.91,0,0,1,1.994.347l-.328,1.135a4.153,4.153,0,0,0-1.6-.3,2.662,2.662,0,0,0-2.869,2.871,2.623,2.623,0,0,0,2.857,2.813,4.371,4.371,0,0,0,1.629-.289Z" transform="translate(-2451.481 -719.866)"/>
          </g>
        </g>
        <g id="그룹_6576" data-name="그룹 6576" transform="translate(192.046 0.127)">
          <g id="그룹_6575" data-name="그룹 6575">
            <path id="패스_7645" data-name="패스 7645" class="cls-1" d="M2527.878,729.033V725.78l-2.589-4.55h1.7l.985,2c.28.579.486,1.019.7,1.551h.025c.206-.5.438-.984.717-1.551l.985-2h1.69l-2.723,4.515v3.288Z" transform="translate(-2525.289 -721.23)"/>
          </g>
        </g>
      </g>
    </g>
    <g id="그룹_6629" data-name="그룹 6629" transform="translate(426.281 374.802)">
      <g id="그룹_6580" data-name="그룹 6580" transform="translate(1.632 6.463)">
        <g id="그룹_6579" data-name="그룹 6579">
          <path id="패스_7646" data-name="패스 7646" class="cls-1" d="M454.773,449.368a5.5,5.5,0,1,0-5.492,5.231,5.373,5.373,0,0,0,5.492-5.231m-7.917,0a2.428,2.428,0,1,1,2.425,2.309,2.372,2.372,0,0,1-2.425-2.309" transform="translate(-443.788 -444.137)"/>
        </g>
      </g>
      <g id="그룹_6582" data-name="그룹 6582" transform="translate(185.109 0.647)">
        <g id="그룹_6581" data-name="그룹 6581">
          <path id="패스_7647" data-name="패스 7647" class="cls-1" d="M2417.595,391.683a4.994,4.994,0,1,0-5.492-4.969,5.257,5.257,0,0,0,5.492,4.969m0-7.078a2.119,2.119,0,1,1-2.33,2.109,2.232,2.232,0,0,1,2.33-2.109" transform="translate(-2412.103 -381.744)"/>
        </g>
      </g>
      <g id="그룹_6584" data-name="그룹 6584" transform="translate(158.43)">
        <g id="그룹_6583" data-name="그룹 6583">
          <path id="패스_7648" data-name="패스 7648" class="cls-1" d="M2129.848,382.577c0,2.6,2.464,4.721,5.492,4.721s5.493-2.117,5.493-4.721a4.36,4.36,0,0,0-1.441-3.177h2.984a1.573,1.573,0,0,0,1.362-.786l1.045-1.809h-7.863v-2h-3.187v2H2125.9v2.6h5.392a4.358,4.358,0,0,0-1.442,3.177m5.492,2a2.026,2.026,0,1,1,2.331-2,2.188,2.188,0,0,1-2.331,2" transform="translate(-2125.898 -374.802)"/>
        </g>
      </g>
      <g id="그룹_6586" data-name="그룹 6586" transform="translate(161.873 17.547)">
        <g id="그룹_6585" data-name="그룹 6585">
          <path id="패스_7649" data-name="패스 7649" class="cls-1" d="M2168.826,563.044c-3.308,0-6,2.161-6,4.816s2.692,4.815,6,4.815,6-2.16,6-4.815-2.691-4.816-6-4.816m0,6.859a2.093,2.093,0,1,1,2.546-2.043,2.339,2.339,0,0,1-2.546,2.043" transform="translate(-2162.826 -563.044)"/>
        </g>
      </g>
      <g id="그룹_6588" data-name="그룹 6588" transform="translate(16.184 0.763)">
        <g id="그룹_6587" data-name="그룹 6587">
          <path id="패스_7650" data-name="패스 7650" class="cls-1" d="M603.1,382.983h-3.2v18.434h3.2v-7.506h2.73a1.574,1.574,0,0,0,1.362-.786l1.193-2.068H603.1Z" transform="translate(-599.902 -382.983)"/>
        </g>
      </g>
      <g id="그룹_6590" data-name="그룹 6590" transform="translate(3.466 18.316)">
        <g id="그룹_6589" data-name="그룹 6589">
          <path id="패스_7651" data-name="패스 7651" class="cls-1" d="M466.7,571.291H463.46V579h15.081a1.572,1.572,0,0,0,1.362-.786l1.194-2.067H466.7Z" transform="translate(-463.46 -571.291)"/>
        </g>
      </g>
      <g id="그룹_6592" data-name="그룹 6592" transform="translate(26.294 2.093)">
        <g id="그룹_6591" data-name="그룹 6591">
          <path id="패스_7652" data-name="패스 7652" class="cls-1" d="M727.915,397.254H711.971v2.854h12.706c0,1.812-.064,3.028-.193,5.147H708.362v2.853h9.687v3.774h-6.719v2.88h13.4v6.418h3.237v-9.3H721.26v-3.774h8.566a1.573,1.573,0,0,0,1.362-.786l1.193-2.067h-4.787c.214-3.516.321-5.683.321-8" transform="translate(-708.362 -397.254)"/>
        </g>
      </g>
      <g id="그룹_6594" data-name="그룹 6594" transform="translate(79.899 2.053)">
        <g id="그룹_6593" data-name="그룹 6593">
          <path id="패스_7653" data-name="패스 7653" class="cls-1" d="M1293.626,407.94q-3.492.311-7.05.311v-2.989h4.587v-2.691h-4.587v-2.888h6.552V396.83h-9.7V411.1q4.354,0,7.645-.173a1.57,1.57,0,0,0,1.279-.785Z" transform="translate(-1283.428 -396.83)"/>
        </g>
      </g>
      <g id="그룹_6596" data-name="그룹 6596" transform="translate(97.282 0.763)">
        <g id="그룹_6595" data-name="그룹 6595">
          <rect id="사각형_2287" data-name="사각형 2287" class="cls-1" width="3.186" height="18.716"/>
        </g>
      </g>
      <g id="그룹_6598" data-name="그룹 6598" transform="translate(89.047 1.29)">
        <g id="그룹_6597" data-name="그룹 6597">
          <path id="패스_7654" data-name="패스 7654" class="cls-1" d="M1381.56,397.877h3.289V406h3.186V388.639h-3.186v6.52h-3.289Z" transform="translate(-1381.56 -388.639)"/>
        </g>
      </g>
      <g id="그룹_6607" data-name="그룹 6607" transform="translate(84.319 0.763)">
        <g id="그룹_6600" data-name="그룹 6600" transform="translate(0 17.553)">
          <g id="그룹_6599" data-name="그룹 6599">
            <path id="패스_7655" data-name="패스 7655" class="cls-1" d="M1334.075,571.291h-3.237v7.681h14.9a1.572,1.572,0,0,0,1.362-.786l1.209-2.094h-14.233Z" transform="translate(-1330.838 -571.291)"/>
          </g>
        </g>
        <g id="그룹_6602" data-name="그룹 6602" transform="translate(21.682)">
          <g id="그룹_6601" data-name="그룹 6601">
            <path id="패스_7656" data-name="패스 7656" class="cls-1" d="M1569.776,393.45a13.085,13.085,0,0,1-6.333,2.583l2.132,2.623q6.013-1.8,8.71-5.679a12.727,12.727,0,0,0,3.777,3.381,18.1,18.1,0,0,0,5.14,2.272l1.85-2.651a13.629,13.629,0,0,1-6.34-2.59,6.766,6.766,0,0,1-2.769-4.564h5a1.573,1.573,0,0,0,1.362-.786l1.139-1.972h-7.5v-3.083h-3.237v3.083h-7.528v2.759h7.477a7.14,7.14,0,0,1-2.878,4.625" transform="translate(-1563.443 -382.983)"/>
          </g>
        </g>
        <g id="그룹_6604" data-name="그룹 6604" transform="translate(21.053 19.717)">
          <g id="그룹_6603" data-name="그룹 6603">
            <path id="패스_7657" data-name="패스 7657" class="cls-1" d="M1556.687,597.328h21.989a1.573,1.573,0,0,0,1.362-.786l1.178-2.04h-24.528Z" transform="translate(-1556.687 -594.502)"/>
          </g>
        </g>
        <g id="그룹_6606" data-name="그룹 6606" transform="translate(51.778 17.565)">
          <g id="그룹_6605" data-name="그룹 6605">
            <path id="패스_7658" data-name="패스 7658" class="cls-1" d="M1889.543,571.419h-3.237v7.642h15.464a1.574,1.574,0,0,0,1.362-.786l1.193-2.066h-14.782Z" transform="translate(-1886.305 -571.419)"/>
          </g>
        </g>
      </g>
      <g id="그룹_6609" data-name="그룹 6609" transform="translate(149.149 0.763)">
        <g id="그룹_6608" data-name="그룹 6608">
          <rect id="사각형_2288" data-name="사각형 2288" class="cls-1" width="3.16" height="18.662"/>
        </g>
      </g>
      <g id="그룹_6612" data-name="그룹 6612" transform="translate(185.586 18.328)">
        <g id="그룹_6611" data-name="그룹 6611">
          <g id="그룹_6610" data-name="그룹 6610">
            <path id="패스_7659" data-name="패스 7659" class="cls-1" d="M2417.218,571.419v7.7h15.9a1.573,1.573,0,0,0,1.362-.786l1.194-2.068H2420.43v-4.843Z" transform="translate(-2417.218 -571.419)"/>
          </g>
        </g>
      </g>
      <g id="그룹_6614" data-name="그룹 6614" transform="translate(194.906 0.762)">
        <g id="그룹_6613" data-name="그룹 6613">
          <path id="패스_7660" data-name="패스 7660" class="cls-1" d="M2517.206,398.3v2.623H2522v1.88h3.238V382.979H2522V398.3h-4.792Z" transform="translate(-2517.206 -382.979)"/>
        </g>
      </g>
      <g id="그룹_6616" data-name="그룹 6616" transform="translate(56.322 1.98)">
        <g id="그룹_6615" data-name="그룹 6615">
          <path id="패스_7661" data-name="패스 7661" class="cls-1" d="M1043.345,406.208l3.122.217q.372-3.571.372-10.386H1030.5v2.853h13.155l-.026,1.637-13.129.485v2.694l13.052-.691q-.116,2.3-.206,3.192" transform="translate(-1030.498 -396.039)"/>
        </g>
      </g>
      <g id="그룹_6618" data-name="그룹 6618" transform="translate(56.322 18.328)">
        <g id="그룹_6617" data-name="그룹 6617">
          <path id="패스_7662" data-name="패스 7662" class="cls-1" d="M1033.733,571.419H1030.5v7.689h15.555a1.574,1.574,0,0,0,1.362-.786l1.193-2.067h-14.873Z" transform="translate(-1030.496 -571.419)"/>
        </g>
      </g>
      <g id="그룹_6620" data-name="그룹 6620" transform="translate(52.956 10.256)">
        <g id="그룹_6619" data-name="그룹 6619">
          <path id="패스_7663" data-name="패스 7663" class="cls-1" d="M1005.983,484.827h-3.263v3.218h-8.339V490.9h20.33a1.574,1.574,0,0,0,1.362-.786l1.193-2.067h-11.284Z" transform="translate(-994.382 -484.827)"/>
        </g>
      </g>
      <g id="그룹_6622" data-name="그룹 6622" transform="translate(156.375 13.585)">
        <g id="그룹_6621" data-name="그룹 6621">
          <path id="패스_7664" data-name="패스 7664" class="cls-1" d="M2103.842,523.246h21.551a1.573,1.573,0,0,0,1.362-.786l1.108-1.918h-24.02Z" transform="translate(-2103.842 -520.542)"/>
        </g>
      </g>
      <g id="그룹_6624" data-name="그룹 6624" transform="translate(182.654 11.628)">
        <g id="그룹_6623" data-name="그룹 6623">
          <path id="패스_7665" data-name="패스 7665" class="cls-1" d="M2392.783,507.265h3.135V502.66q1.408-.061,2.816-.146a1.575,1.575,0,0,0,1.268-.784l1.263-2.188q-6.771.481-15.506.494v2.935q2.8,0,7.024-.176Z" transform="translate(-2385.759 -499.542)"/>
        </g>
      </g>
      <g id="그룹_6626" data-name="그룹 6626" transform="translate(0 0.761)">
        <g id="그룹_6625" data-name="그룹 6625">
          <path id="패스_7666" data-name="패스 7666" class="cls-1" d="M431.787,382.967v2.246h-5.506v2.717H438.52a1.573,1.573,0,0,0,1.362-.786L441,385.213h-5.972v-2.246Z" transform="translate(-426.281 -382.967)"/>
        </g>
      </g>
      <g id="그룹_6628" data-name="그룹 6628" transform="translate(131.472 1.98)">
        <g id="그룹_6627" data-name="그룹 6627">
          <path id="패스_7667" data-name="패스 7667" class="cls-1" d="M1844.581,405.316a14.335,14.335,0,0,0,5.537,4.909l2.042-2.583a10,10,0,0,1-4.342-2.847,6.35,6.35,0,0,1-1.709-4.294v-1.65h3.464a1.572,1.572,0,0,0,1.362-.786l1.169-2.026h-14.334v2.813h5.1v1.758a6.751,6.751,0,0,1-1.8,4.335,9.572,9.572,0,0,1-4.38,3.069l2.287,2.38c1-.505,4.617-3.009,5.6-5.077" transform="translate(-1836.693 -396.039)"/>
        </g>
      </g>
    </g>
  </g>
</svg>
