<svg xmlns="http://www.w3.org/2000/svg" width="136.568" height="47.63" viewBox="0 0 136.568 47.63">
    <defs>
        <style>
            .cls-2{fill-rule:evenodd;fill:#001976}
        </style>
    </defs>
    <g id="partners_logo10" transform="translate(889.586 -2842.501)">
        <g id="그룹_6419" data-name="그룹 6419" transform="translate(-889.586 2842.501)">
            <g id="그룹_6417" data-name="그룹 6417">
                <path id="패스_6161" data-name="패스 6161" d="M-875.466 2846.2s3.051-3.695 9.584-3.695c0 0 8.394.04 13.606 4.158a22.545 22.545 0 0 1 8.394 10.349s2.122 5.18 1.952 9.09c0 0 .17 5.5-2.2 9.621 0 0-2.055 6.942-10.831 9.717a17.768 17.768 0 0 1-10.8 4.695 25.476 25.476 0 0 1-12.785-3.678 25.771 25.771 0 0 1-8.2-8.6s-2.884-4.07-2.827-11.482c0 0-.112-5.541 1.64-9.164a19.061 19.061 0 0 1 8.262-9.162l4.217-1.85zm-1.953 3.149a36.833 36.833 0 0 1 17.984-2.374c9.451 1.241 14.766 9.1 14.766 9.1-2.546-6.108-9.786-8.769-9.786-8.769-4.581-2.036-10.69-1.585-10.69-1.585a32.748 32.748 0 0 0-11.993 2.664l-.281.959zm-.456 4.245a29.07 29.07 0 0 1 4.139-1.555 40.835 40.835 0 0 1 10.684-1.956c16.573.115 19.949 10.649 20.025 10.921-3.284-11.372-15.671-11.825-18.613-11.993a35.262 35.262 0 0 0-16.289 3.221l.054 1.361zm34.224 16.459a12.311 12.311 0 0 0-5.883-8.146c-4.47-3.222-10.973-3.053-10.973-3.053-5.716-.4-12.726 2.2-12.726 2.2l-1.528-1.3a23.87 23.87 0 0 1 5.882-1.812 30.473 30.473 0 0 1 9.444-.791 23.887 23.887 0 0 1 11.372 4.073c4.471 3.056 5.32 9.165 5.32 9.165a10.193 10.193 0 0 0-1.075-5.6c-4.471-10.237-20.14-9.277-20.14-9.277-5.206 0-12.165 2.941-12.165 2.941l-.843-1.528c-.638.044-3.528 2.1-3.528 2.1a22.2 22.2 0 0 0-4.058 3.615c-.842 1.107-.845 1.472-.845 1.472 1.187 2.6 4.521 4.466 4.521 4.466a23.358 23.358 0 0 0 7.807 2.265 40.666 40.666 0 0 0 7.413-.62 13.806 13.806 0 0 1 4.128.109c-2.576 1.572-11.028 1.531-11.028 1.531a22.174 22.174 0 0 1-8.206-2.322c-5.446-2.974-6.359-6.864-6.359-6.864-.805-1.866-.383-5.394-.383-5.394a10.047 10.047 0 0 0-.442 5.754c.552 3.607 4.242 6.5 4.242 6.5 4.139 3.566 12.219 4.185 12.219 4.185a35.87 35.87 0 0 0 12.843-2.316l1.468 1.247c-1.637 1.069-7.015 2.09-7.015 2.09-7.069 1.188-10.517.171-10.517.171-8.205-1.3-11.654-6.3-11.654-6.3a10.66 10.66 0 0 1-2.494-6.239c-.465.974.212 3.606.212 3.606.887 4.927 8.167 8.814 8.167 8.814a30.57 30.57 0 0 0 11.087 2.035 34.416 34.416 0 0 0 13.462-2.884l1.131 1.527c6.505-3.053 8.427-6.957 8.427-6.957a6.765 6.765 0 0 0-2.771-3.452c-2.152-1.953-6.335-2.941-6.335-2.941a23.22 23.22 0 0 0-6.167-.564c-1.687.126-5.033.736-5.033.736a14.808 14.808 0 0 1-3.677-.229 29.013 29.013 0 0 1 7.864-1.528 24.162 24.162 0 0 1 7.636.737 16.881 16.881 0 0 1 7.751 4.526 11.431 11.431 0 0 1 2.941 9.444 8.948 8.948 0 0 0 .509-5.2zm-38.24 7.243c6.729 3.675 14.482 2.826 14.482 2.826a41.8 41.8 0 0 0 13.068-3.45l-.51-1.244c-10.125 4.411-17.764 3.279-17.764 3.279a25.428 25.428 0 0 1-10.125-3.337c-4.861-2.772-6.562-8.825-6.562-8.825-.284 6 7.411 10.752 7.411 10.752zm1.13 3.56c5.207 3.168 14.822 2.545 14.822 2.545 8.035-.959 12.107-3.391 12.107-3.391l-.114-1.134c-4.637 2.887-15.161 3.508-15.161 3.508-8.43-.507-10.128-1.812-10.128-1.812-7.8-3.224-9.5-9.049-9.5-9.049 1.247 6 7.975 9.333 7.975 9.333zm-1.528 1.47c4.414 3.671 12.5 4.357 12.5 4.357 9.617.227 14.991-2.545 14.991-2.545l.281-1.016c-3.336 1.751-11.993 2.656-11.993 2.656a34.3 34.3 0 0 1-10.406-1.528 20.36 20.36 0 0 1-10.07-7.578c.169 1.924 4.693 5.655 4.693 5.655zm5.435-25.4a34.424 34.424 0 0 1 17.761-3.225c13.744 1.189 16.631 12.109 16.631 12.109-2.036-13.3-17.987-13.579-17.987-13.579-11.879.057-17.027 3.451-17.027 3.451l.621 1.243z" transform="translate(889.586 -2842.501)" style="fill-rule:evenodd;fill:#0092e5"/>
            </g>
            <g id="그룹_6418" data-name="그룹 6418" transform="translate(58.921 11.361)">
                <path id="패스_6162" data-name="패스 6162" class="cls-2" d="M657.374 3000.326v4.139l-13.586.022a3.287 3.287 0 0 0-3.615 2.973 2.84 2.84 0 0 0 1.743 3.078c5.477 1.6 11.558-1.083 15.593 3.22 2.782 2.967 3.282 5.581 2.035 9.161-1.706 4.918-7.464 5.8-7.464 5.8h-17.793v-4.946l14.853.013c2.406.254 3.757-2.25 3.757-2.25a3.791 3.791 0 0 0-1.894-5.268c-4.6-1.675-9.845.841-14.339-2.093a7.846 7.846 0 0 1-3-8.858c1.271-4.444 5.988-4.99 5.988-4.99a26.087 26.087 0 0 1 4.971 0z" transform="translate(-582.54 -3000.208)"/>
                <path id="패스_6163" data-name="패스 6163" class="cls-2" d="M287.464 3001.841h16.627c4.267.03 6.517 2.584 6.967 6.256a9.07 9.07 0 0 1-.3 3.3 18.064 18.064 0 0 1-2.2 3.269 8.539 8.539 0 0 1 3.838 5.819 8.774 8.774 0 0 1-7.923 9.75h-17.009v-28.392zm5.563 10.913h9.8c2.746-.207 2.633-3.143 2.633-3.143-.038-3.42-2.657-3.273-2.657-3.273h-9.776v6.417zm0 12.466h10.1c3.426-.307 3.195-4.082 3.195-4.082-.141-3.85-3.419-3.773-3.419-3.773h-9.876v7.855z" transform="translate(-261.592 -3001.724)"/>
                <path id="패스_6164" data-name="패스 6164" class="cls-2" d="M-71.678 3001.841h6.215v14.035l10.755-14.035h7.808l-11.427 14.138 11.427 14.254h-7.811l-10.755-14.151v14.151h-6.215v-28.392z" transform="translate(71.678 -3001.724)"/>
            </g>
        </g>
    </g>
</svg>
