<svg xmlns="http://www.w3.org/2000/svg" width="95.359" height="40.459" viewBox="0 0 95.359 40.459">
  <defs>
    <style>
      .cls-1 {
        fill: #ed1c24;
      }
    </style>
  </defs>
  <g id="그룹_7009" data-name="그룹 7009" transform="translate(-681.31 -94.137)">
    <path id="패스_9653" data-name="패스 9653" class="cls-1" d="M776.669,101.567H764.486l-6.62,8.084-5.451-8.084H740.368l11.23,15.24-8.681,9.935h-9.811a2.375,2.375,0,0,1-2.377-2.373V109.416h12.353l-5.862-7.849h-6.492v-7.43H720.036v7.43H691.546c-6.3,0-10.236,4.693-10.236,10.345s3.936,10.34,10.236,10.34h11.035a2.249,2.249,0,1,1,0,4.49H682.5V134.6h22.624c6.3,0,10.237-4.7,10.237-10.351s-3.935-10.337-10.237-10.337H694.089a2.25,2.25,0,1,1,0-4.493h25.947v14.953A9.839,9.839,0,0,0,730.269,134.6h18.007l8.467-10.3,7.1,10.3h12L763.076,117.01Z" transform="translate(0 0)"/>
  </g>
</svg>
