<svg xmlns="http://www.w3.org/2000/svg" width="114.294" height="40.155" viewBox="0 0 114.294 40.155">
    <defs>
        <style>
            .cls-1{fill:#005293}
        </style>
    </defs>
    <g id="partners_logo2" transform="translate(-45.533 -31.036)">
        <path id="패스_6086" data-name="패스 6086" class="cls-1" d="m129.546 52.5-7.219-6.623a2.4 2.4 0 0 1-.816-1.787 2.583 2.583 0 0 1 2.649-2.505h7.982v-3.452H119.93c-3.785 0-6.931 2.552-6.931 6.545a6.321 6.321 0 0 0 1.823 4.426l8.5 8.021a2.6 2.6 0 0 1 .931 2.746c-.491 1.7-2.661 1.7-3.477 1.7H113v7h11.807a8.413 8.413 0 0 0 8.647-8.156v-.066c.133-3.366-1.68-5.785-3.908-7.85" transform="translate(-21.303 -2.241)"/>
        <path id="패스_6087" data-name="패스 6087" class="cls-1" d="M199.215 52.5 192 45.881a2.374 2.374 0 0 1-.819-1.787 2.583 2.583 0 0 1 2.645-2.505h7.986v-3.456H189.6c-3.787 0-6.937 2.552-6.937 6.545a6.318 6.318 0 0 0 1.826 4.426l8.5 8.021a2.61 2.61 0 0 1 .932 2.746c-.5 1.7-2.664 1.7-3.479 1.7h-7.78v7h11.806a8.412 8.412 0 0 0 8.647-8.156v-.066c.132-3.366-1.672-5.785-3.906-7.85" transform="translate(-43.3 -2.241)"/>
        <path id="패스_6088" data-name="패스 6088" class="cls-1" d="M169.537 59.753a8.841 8.841 0 0 0-6.132-8.573 6.565 6.565 0 0 0 2.09-11.535 10.983 10.983 0 0 0-5.731-1.456v-.005h-13.476v30.4h14.335a10.185 10.185 0 0 0 5.831-2.078 9.016 9.016 0 0 0 3.08-6.757M153.573 41.66h3.239c.495 0 3.877 0 4.153 3.291.2 2.359-1.4 3.831-4 3.831h-3.393zm3.891 19.935h-3.891v-8.1h3.741c.484 0 4.257.008 4.536 3.75.2 2.676-1.795 4.35-4.385 4.35" transform="translate(-31.814 -2.257)"/>
        <path id="패스_6089" data-name="패스 6089" d="M85.42 54.043c.489-4.8.366-5.909-2.139-9.3-.634-.856-1.126-1.626-.262-1.4.8.211.206-1.578.946-1.126-1.168-5.35-7.585-8.524-12.474-10.3l-3.474-.757c-.643 0-1.544-.125-2.19-.125-4.111.52-7.977.536-11.445 2.961-1.026.767-2.049 2.155-3.2 3.176-.645.637-.9 1.147-1.545 1.785a19.383 19.383 0 0 0-4.1 10.7c-.114 7.892 2.569 14.012 10.02 18.094.8.439 6.219 3 9.071 3.356a20.675 20.675 0 0 0 9.2-1.509c1.028-.767 2.119-.705 2.888-1.6.641-.637 2.144-1.618 2.523-2.38 1.8-2.932 6.7-8.145 6.181-11.577" style="fill:#0086cd"/>
        <path id="패스_6090" data-name="패스 6090" d="M81.906 55.907c.295-2.882.22-3.546-1.287-5.581-.38-.512-.669-.973-.155-.84.479.127.626-.491.569-.677-.7-3.2-4.55-5.111-7.487-6.175q-1.041-.23-2.084-.456c-.385 0-.927-.075-1.311-.075-2.47.309-4.788.323-6.87 1.782-.618.456-1.228 1.289-1.924 1.9-.383.382-.536.684-.925 1.069a11.619 11.619 0 0 0-2.454 6.423c-.069 4.732 1.539 8.4 6.009 10.855a23.4 23.4 0 0 0 5.442 2.015 12.418 12.418 0 0 0 5.518-.906c.621-.463 1.274-.422 1.74-.96.38-.382 1.284-.969 1.514-1.43 1.078-1.761 4.019-4.882 3.705-6.947" transform="translate(-3.929 -3.494)" style="fill:#f7ac00"/>
        <path id="패스_6091" data-name="패스 6091" d="M62.913 52.413A8.838 8.838 0 0 1 74.7 48.5a8.658 8.658 0 0 1 3.954 11.666 8.83 8.83 0 0 1-11.79 3.912 8.658 8.658 0 0 1-3.954-11.666" transform="translate(-5.197 -5.226)" style="fill:#fff"/>
    </g>
</svg>
