<svg xmlns="http://www.w3.org/2000/svg" width="227.533" height="39.616" viewBox="0 0 227.533 39.616">
  <defs>
    <style>
      .cls-1 {
        fill: #0e0e0e;
      }

      .cls-2 {
        fill: #1f5aa0;
      }

      .cls-3 {
        fill: #1aa4c9;
      }

      .cls-4 {
        fill: #2d9d30;
      }
    </style>
  </defs>
  <g id="그룹_6907" data-name="그룹 6907" transform="translate(-15.163 -67.198)">
    <g id="그룹_6905" data-name="그룹 6905" transform="translate(62.941 97.63)">
      <path id="패스_9024" data-name="패스 9024" class="cls-1" d="M176.673,169.9c0-.81-.334-1.244-1.22-1.244-.277,0-1.261.047-1.261,1.479v2.324c0,1.5.436,1.882,1.261,1.882a2.169,2.169,0,0,0,1.229-.3v-2.055h-1.259v-.759h2.141v3.337a4.31,4.31,0,0,1-2.111.516c-1.448,0-2.156-.753-2.156-2.656v-2.252a2,2,0,0,1,2.156-2.246c1.494,0,2.19.541,2.138,1.979Z" transform="translate(-173.296 -167.922)"/>
      <path id="패스_9025" data-name="패스 9025" class="cls-1" d="M194.545,168.387h.886l-1.879,4.251v2.617h-.876v-2.617l-1.84-4.251h.98l1.339,3.319Z" transform="translate(-185.536 -168.246)"/>
      <path id="패스_9026" data-name="패스 9026" class="cls-1" d="M209.207,175.255v-6.868h3.531v.762h-2.66v2.206h2.471v.758h-2.471V174.5H212.8v.758Z" transform="translate(-198.357 -168.246)"/>
      <path id="패스_9027" data-name="패스 9027" class="cls-1" d="M225.137,172.42v-2.252a2.165,2.165,0,1,1,4.326,0v2.252c0,1.9-.705,2.656-2.163,2.656S225.137,174.323,225.137,172.42Zm3.426.039v-2.324c0-1.432-.98-1.479-1.263-1.479s-1.267.047-1.267,1.479v2.324c0,1.5.436,1.882,1.267,1.882S228.563,173.963,228.563,172.459Z" transform="translate(-209.474 -167.922)"/>
      <path id="패스_9028" data-name="패스 9028" class="cls-1" d="M249.68,168.387v6.868h-1.209l-2.706-5.955h-.026v5.955h-.77v-6.868H246.2l2.674,5.881h.017v-5.881Z" transform="translate(-223.314 -168.246)"/>
      <path id="패스_9029" data-name="패스 9029" class="cls-1" d="M269.208,169.9c0-.81-.337-1.244-1.227-1.244-.27,0-1.264.047-1.264,1.479v2.324c0,1.5.44,1.882,1.264,1.882a2.2,2.2,0,0,0,1.231-.3v-2.055H267.95v-.759h2.136v3.337a4.268,4.268,0,0,1-2.105.516c-1.456,0-2.158-.753-2.158-2.656v-2.252a1.993,1.993,0,0,1,2.158-2.246c1.49,0,2.194.541,2.136,1.979Z" transform="translate(-237.867 -167.922)"/>
      <path id="패스_9030" data-name="패스 9030" class="cls-1" d="M285.881,172.887v.2a1.086,1.086,0,0,0,1.155,1.225c.7,0,1.217-.295,1.217-1.11,0-1.525-3.078-1.355-3.078-3.415a1.816,1.816,0,0,1,2.022-1.866,1.691,1.691,0,0,1,1.9,2.007h-.918c.011-.754-.228-1.248-1.052-1.248a.955.955,0,0,0-1.053,1.007c0,1.516,3.076,1.295,3.076,3.475,0,1.445-.994,1.913-2.129,1.913-2.024.018-2.024-1.532-2.013-2.189Z" transform="translate(-251.254 -167.922)"/>
      <path id="패스_9031" data-name="패스 9031" class="cls-1" d="M303.582,168.387h1.111l2.229,6.868h-.979l-.494-1.633h-2.656l-.508,1.633h-.891Zm.527.809h-.019l-1.07,3.662h2.19Z" transform="translate(-262.69 -168.246)"/>
      <path id="패스_9032" data-name="패스 9032" class="cls-1" d="M327.891,168.387v6.868h-1.2l-2.7-5.955h-.028v5.955h-.782v-6.868h1.239l2.675,5.881h.017v-5.881Z" transform="translate(-277.892 -168.246)"/>
      <path id="패스_9033" data-name="패스 9033" class="cls-1" d="M347.443,169.9c0-.81-.334-1.244-1.216-1.244-.275,0-1.266.047-1.266,1.479v2.324c0,1.5.431,1.882,1.266,1.882a2.151,2.151,0,0,0,1.225-.3v-2.055H346.19v-.759h2.143v3.337a4.3,4.3,0,0,1-2.107.516c-1.457,0-2.16-.753-2.16-2.656v-2.252a1.994,1.994,0,0,1,2.16-2.246c1.488,0,2.178.541,2.132,1.979Z" transform="translate(-292.471 -167.922)"/>
      <path id="패스_9034" data-name="패스 9034" class="cls-1" d="M368.779,168.387v6.868h-1.194l-2.708-5.955h-.022v5.955h-.775v-6.868h1.232l2.66,5.881H368v-5.881Z" transform="translate(-306.437 -168.246)"/>
      <path id="패스_9035" data-name="패스 9035" class="cls-1" d="M385.3,168.387h1.119l2.232,6.868h-.98l-.491-1.633h-2.659l-.509,1.633h-.89Zm.532.809h-.015l-1.08,3.662h2.2Z" transform="translate(-319.729 -168.246)"/>
      <path id="패스_9036" data-name="패스 9036" class="cls-1" d="M405.61,175.255h-.819v-6.868h1.416l1.735,5.769h.019l1.746-5.769h1.451v6.868h-.873v-6.105h-.018l-1.929,6.105h-.833l-1.873-6.105h-.022Z" transform="translate(-334.848 -168.246)"/>
      <path id="패스_9037" data-name="패스 9037" class="cls-1" d="M431.354,168.387h2.116a1.826,1.826,0,0,1,1.843,1.049,7.208,7.208,0,0,1,.3,2.165,5.792,5.792,0,0,1-.416,2.772c-.369.588-1.06.882-2.268.882h-1.578Zm.883,6.109h.823c1.217,0,1.664-.462,1.664-2.059v-1.386c0-1.39-.426-1.9-1.335-1.9h-1.152Z" transform="translate(-353.385 -168.246)"/>
      <path id="패스_9038" data-name="패스 9038" class="cls-1" d="M450.75,172.42v-2.252a2.161,2.161,0,1,1,4.318,0v2.252c0,1.9-.7,2.656-2.152,2.656S450.75,174.323,450.75,172.42Zm3.428.039v-2.324c0-1.432-.991-1.479-1.261-1.479s-1.273.047-1.273,1.479v2.324c0,1.5.442,1.882,1.273,1.882S454.178,173.963,454.178,172.459Z" transform="translate(-366.921 -167.922)"/>
      <path id="패스_9039" data-name="패스 9039" class="cls-1" d="M477.618,172.42v-2.252a2.159,2.159,0,1,1,4.314,0v2.252c0,1.9-.695,2.656-2.155,2.656S477.618,174.323,477.618,172.42Zm3.426.039v-2.324c0-1.432-.995-1.479-1.267-1.479s-1.27.047-1.27,1.479v2.324c0,1.5.439,1.882,1.27,1.882S481.044,173.963,481.044,172.459Z" transform="translate(-385.671 -167.922)"/>
      <path id="패스_9040" data-name="패스 9040" class="cls-1" d="M497.043,175.255v-6.868h3.4v.762h-2.524v2.206h2.39v.758h-2.39v3.14Z" transform="translate(-399.227 -168.246)"/>
      <path id="패스_9041" data-name="패스 9041" class="cls-1" d="M511.346,175.255v-6.868h3.4v.762h-2.525v2.206h2.389v.758h-2.389v3.14Z" transform="translate(-409.209 -168.246)"/>
      <path id="패스_9042" data-name="패스 9042" class="cls-1" d="M527.089,175.255h-.871v-6.868h.871Z" transform="translate(-419.587 -168.246)"/>
      <path id="패스_9043" data-name="패스 9043" class="cls-1" d="M537.767,169.96a1.63,1.63,0,0,0-.205-1,1.152,1.152,0,0,0-.767-.3,1.07,1.07,0,0,0-1.036.532c-.034.077-.2.248-.2,1.427v1.837c0,1.682.546,1.882,1.216,1.882.273,0,1.08-.095,1.09-1.436h.9c.044,2.171-1.488,2.171-1.937,2.171-.855,0-2.168-.059-2.168-2.724v-1.939c0-1.941.855-2.492,2.216-2.492s1.869.7,1.789,2.038Z" transform="translate(-425.479 -167.922)"/>
      <path id="패스_9044" data-name="패스 9044" class="cls-1" d="M552.724,175.255v-6.868h3.541v.762H553.6v2.206h2.47v.758H553.6V174.5h2.726v.758Z" transform="translate(-438.085 -168.246)"/>
      <path id="패스_9045" data-name="패스 9045" class="cls-1" d="M575.991,172.42v-2.252a2.16,2.16,0,1,1,4.316,0v2.252c0,1.9-.706,2.656-2.15,2.656C576.7,175.077,575.991,174.323,575.991,172.42Zm3.427.039v-2.324c0-1.432-.994-1.479-1.261-1.479s-1.271.047-1.271,1.479v2.324c0,1.5.441,1.882,1.271,1.882S579.418,173.963,579.418,172.459Z" transform="translate(-454.322 -167.922)"/>
      <path id="패스_9046" data-name="패스 9046" class="cls-1" d="M595.414,175.255v-6.868h3.407v.762h-2.532v2.206h2.4v.758h-2.4v3.14Z" transform="translate(-467.877 -168.246)"/>
      <path id="패스_9047" data-name="패스 9047" class="cls-1" d="M617.25,175.255v-6.868h3.533v.762h-2.662v2.206H620.6v.758h-2.474V174.5h2.72v.758Z" transform="translate(-483.115 -168.246)"/>
      <path id="패스_9048" data-name="패스 9048" class="cls-1" d="M633.376,168.387h2.1a1.84,1.84,0,0,1,1.852,1.049,6.914,6.914,0,0,1,.307,2.165,5.783,5.783,0,0,1-.419,2.772c-.376.588-1.064.882-2.266.882h-1.572Zm.865,6.109h.831c1.219,0,1.662-.462,1.662-2.059v-1.386c0-1.39-.424-1.9-1.343-1.9h-1.15Z" transform="translate(-494.369 -168.246)"/>
      <path id="패스_9049" data-name="패스 9049" class="cls-1" d="M652.751,168.387h.873v4.4c0,1.5.46,1.882,1.281,1.882s1.293-.379,1.293-1.882v-4.4h.869v4.358c0,1.9-.7,2.656-2.162,2.656s-2.155-.753-2.155-2.656Z" transform="translate(-507.89 -168.246)"/>
      <path id="패스_9050" data-name="패스 9050" class="cls-1" d="M675.258,169.96a1.62,1.62,0,0,0-.2-1,1.132,1.132,0,0,0-.768-.3,1.071,1.071,0,0,0-1.035.532c-.026.077-.2.248-.2,1.427v1.837c0,1.682.544,1.882,1.222,1.882.269,0,1.072-.095,1.088-1.436h.9c.04,2.171-1.494,2.171-1.933,2.171-.857,0-2.168-.059-2.168-2.724v-1.939c0-1.941.849-2.492,2.2-2.492s1.889.7,1.8,2.038Z" transform="translate(-521.436 -167.922)"/>
      <path id="패스_9051" data-name="패스 9051" class="cls-1" d="M690.309,168.387h1.118l2.238,6.868h-.982l-.5-1.633h-2.656l-.508,1.633h-.884Zm.54.809h-.022l-1.07,3.662h2.2Z" transform="translate(-532.583 -168.246)"/>
      <path id="패스_9052" data-name="패스 9052" class="cls-1" d="M709.826,168.387v.762h-1.809v6.105h-.881v-6.105h-1.8v-.762Z" transform="translate(-544.591 -168.246)"/>
      <path id="패스_9053" data-name="패스 9053" class="cls-1" d="M724.739,175.255h-.879v-6.868h.879Z" transform="translate(-557.514 -168.246)"/>
      <path id="패스_9054" data-name="패스 9054" class="cls-1" d="M732.44,172.42v-2.252a2.165,2.165,0,1,1,4.327,0v2.252c0,1.9-.708,2.656-2.157,2.656S732.44,174.323,732.44,172.42Zm3.433.039v-2.324c0-1.432-.99-1.479-1.263-1.479s-1.269.047-1.269,1.479v2.324c0,1.5.437,1.882,1.269,1.882S735.873,173.963,735.873,172.459Z" transform="translate(-563.502 -167.922)"/>
      <path id="패스_9055" data-name="패스 9055" class="cls-1" d="M756.984,168.387v6.868h-1.2l-2.7-5.955h-.024v5.955h-.775v-6.868h1.232l2.672,5.881h.021v-5.881Z" transform="translate(-577.346 -168.246)"/>
    </g>
    <g id="그룹_6906" data-name="그룹 6906" transform="translate(62.704 71.488)">
      <path id="패스_9056" data-name="패스 9056" class="cls-1" d="M715.39,98.522V84.3h-3.573v4.089h-3.036v1.72h3.036v3.644a11.054,11.054,0,0,0-4.375-1.111v-.022s-4.5-2.324-5.719-5.784v-.681h4.992V84.435h-4.992v-1.4h-3.414v1.4h-5.189v1.718h5.189v.452c-1.1,3.588-5.8,6.013-5.8,6.013l.072,1.935a12.43,12.43,0,0,0,7.391-4.67,13.5,13.5,0,0,0,3.666,3.149c-3.2.852-5.477,2.987-5.477,5.491,0,3.268,3.856,5.913,8.618,5.913,4.216,0,7.729-2.083,8.465-4.834l.149.081v-1.16Zm-8.614,4.2a4.229,4.229,0,1,1,0-8.387c.131,0,.275.006.413.01.06.009.115.032.181.046v-.025a4.433,4.433,0,0,1,4.178,4.157A4.508,4.508,0,0,1,706.776,102.722Z" transform="translate(-535.397 -82.54)"/>
      <path id="패스_9057" data-name="패스 9057" class="cls-1" d="M186.256,87.289h-.047l.121-1.112H172.735V88.26H182.3c-.294,1.972-1.946,6.587-9.714,6.761l-.07,2S185.442,97.468,186.256,87.289Zm9.517,11.934V86.328h-7.807v1.717H192.2V90.7h-4.237v1.723H192.2v2.944a10.392,10.392,0,0,0-4.383-.943c-4.473,0-7.594,2.539-7.594,5.8s3.121,6.016,7.594,6.016,8.088-2.643,8.088-5.9A5.047,5.047,0,0,0,195.773,99.222Zm-7.952,5.454a4.346,4.346,0,1,1,0-8.69,4.358,4.358,0,1,1,0,8.69Z" transform="translate(-172.512 -84.732)"/>
      <path id="패스_9058" data-name="패스 9058" class="cls-1" d="M282.354,87.379V85.661h-6.681v9.45a11.435,11.435,0,0,0-4.567-1.118c-.841-.429-4.465-2.446-5.533-5.5V85.221h-3.418v3.04c-1.107,3.594-5.8,6.021-5.8,6.021l.078,1.933a12.405,12.405,0,0,0,7.384-4.671,13.125,13.125,0,0,0,3.2,2.983c-2.955.939-5.006,2.983-5.006,5.359,0,3.264,3.848,5.905,8.608,5.905,4.686,0,8.482-2.551,8.609-5.735l.015.006v-.176h0V87.379Zm-11.737,16.708a4.218,4.218,0,1,1-.211-8.386,7.145,7.145,0,0,0,.809.053v-.023a4.421,4.421,0,0,1,4.176,4.156A4.51,4.51,0,0,1,270.617,104.087Z" transform="translate(-231.021 -84.065)"/>
      <path id="패스_9059" data-name="패스 9059" class="cls-1" d="M368.07,86.678V94.03H353.722V86.678h-3.2v9.066H368.07v2.372h-15.6v.308h0v7.283h19.159v-3.648h0V88.4h3.123V86.678Zm-.008,17.308H356.028v-4.15h12.034Z" transform="translate(-296.741 -85.082)"/>
      <path id="패스_9060" data-name="패스 9060" class="cls-1" d="M523.29,87.668v1.718h16.052V104.6H536.3V95.393h-3.573V104.6h-3.119V95.393h-3.565V104.6H522.4v1.713h20.508V87.668Z" transform="translate(-416.686 -85.773)"/>
      <path id="패스_9061" data-name="패스 9061" class="cls-1" d="M460.4,89.386V87.668H440.792V98.363h2.814v.012h5.579V104.6h-8.393v1.721H460.4V104.6h-7.652V98.375H460.4V96.656H444.355v-7.27Z" transform="translate(-359.735 -85.773)"/>
      <path id="패스_9062" data-name="패스 9062" class="cls-1" d="M626.938,93.846V92.138H603.309v1.709h5.757V95.92h-4.127v1.723h16.65v4.293h3.567V95.92h-4.529V93.846ZM617.05,95.92h-4.415V93.846h4.415Zm-1.961-5.161c5.571,0,10.1-2.1,10.1-4.691s-4.532-4.672-10.1-4.672c-5.589,0-10.115,2.092-10.115,4.672S609.5,90.759,615.089,90.759Zm0-7.578c2.985,0,5.412,1.294,5.412,2.887,0,1.615-2.427,2.908-5.412,2.908s-5.422-1.293-5.422-2.908C609.667,84.474,612.092,83.18,615.089,83.18Z" transform="translate(-473.149 -81.396)"/>
    </g>
    <path id="패스_9063" data-name="패스 9063" class="cls-2" d="M39.508,137.6c-12.818,4.245-20.526-2.975-21.9-4.841-6.153-8.29.373-15.8,7.634-18.767,0,0-7.445,3.905-5.77,10.039s9.02,8.459,15.9,6.6l7.072-2.51,6.6,6.266Z" transform="translate(0 -32.659)"/>
    <path id="패스_9064" data-name="패스 9064" class="cls-3" d="M45.349,119.781l6.6,6.271,7.071-2.511c6.875-1.863,14.227.46,15.894,6.6s-5.762,10.038-5.762,10.038c7.251-2.974,12.905-10.613,7.44-18.691-1.3-1.916-8.028-9.581-21.444-5.086Z" transform="translate(-21.065 -33.369)"/>
    <path id="패스_9065" data-name="패스 9065" class="cls-4" d="M78.323,73.339A6.139,6.139,0,1,1,72.185,67.2,6.143,6.143,0,0,1,78.323,73.339Z" transform="translate(-35.508)"/>
  </g>
</svg>
