<svg xmlns="http://www.w3.org/2000/svg" width="186.231" height="49.56" viewBox="0 0 186.231 49.56">
  <defs>
    <style>
      .cls-1 {
        fill: #da0021;
      }

      .cls-2 {
        fill: #0090df;
      }

      .cls-3 {
        fill: #008743;
      }

      .cls-4 {
        fill: #161615;
      }
    </style>
  </defs>
  <g id="그룹_6956" data-name="그룹 6956" transform="translate(-2.817 -43)">
    <g id="그룹_6948" data-name="그룹 6948" transform="translate(2.817 43)">
      <path id="패스_9325" data-name="패스 9325" class="cls-1" d="M191.86,43.133a1.365,1.365,0,0,1,.679.292c.108-.007.15.178.289.11.117.184.313.2.456.348-.033.1.117.017.081.12h.039v.277a.412.412,0,0,0,.172.017v.148c.217-.007.381.123.587.136.095.052.089.176.184.183.065.046.027.131.108.165-.1.171.2.184.112.346.1.034.02.137.114.167a.863.863,0,0,0,.22.429c.047.218.3.358.264.609a3.966,3.966,0,0,1,.216.666v.674c-.127.02-.041.205-.069.3s-.159.189-.107.334c.005.024.038.007.053.014,0,.06-.015.13.054.165v.429c-.054.091-.107.186-.163.277.035.088-.093.028-.05.113-.049.057-.149.09-.13.178h-.044c.037.174-.11.273-.135.428-.081.03-.066.166-.168.166.045.077-.077.086-.055.155-.118.021-.168.2-.3.191-.177.1-.15.3-.33.4.065.15-.141.112-.084.248a.409.409,0,0,1-.205.093c-.141.091-.281.174-.415.254.007.079-.086.072-.127.11a1.383,1.383,0,0,1-.695.457c-.19.056-.417.041-.578.181-.143.068-.329.021-.441.164-.091.1-.253.024-.375.071-.547.26-1.144-.036-1.756.042-.107-.071-.421.048-.315-.209l-.179-.029V52.1c-.074.007-.146.1-.224.153-.034-.057-.047-.123-.139-.11-.069.066-.15.083-.173.181-.054.021-.071-.036-.1-.059.021-.081-.081-.118-.122-.179-.11-.006-.14.179-.278.11a.192.192,0,0,0-.065-.11c-.032.043-.1.066-.073.126l-.237.163h-.266c.161-.083.1-.253.113-.4.031.007.043-.017.06-.032V51.63l-.138-.184c-.067.022-.012.153-.11.111-.032.022-.053.078-.1.057-.011-.1.091-.2.055-.334l-.067-.031c.187-.115-.078-.191,0-.344a2.227,2.227,0,0,1-.166-.26c-.017-.026-.038-.01-.06-.015.022-.081-.042-.186.06-.238v-.468c-.122-.038,0-.179-.111-.222.045-.146-.132-.2-.073-.358-.093-.031-.012-.132-.11-.165-.032-.108-.021-.231-.123-.306-.012-.08.03-.187-.06-.234a4.807,4.807,0,0,1,.036-.771,1.675,1.675,0,0,0,.024-.432c.106-.044.06-.153.069-.232.054.014.077-.027.114-.055v-.056c.067-.011.071-.159.173-.154l.031-.028c-.009-.006-.014-.021-.031-.012v-.041c.031.005.043-.014.06-.029-.065-.131.117-.079.055-.208.1-.039.038-.147.053-.218-.126-.062.009-.274-.108-.365a4.715,4.715,0,0,1,.277-.451c-.008-.019-.03-.017-.044-.017.021-.074-.046-.193.051-.233-.037-.081.1-.086.06-.167.043-.059.136-.1.121-.181.072.026.045-.057.072-.083.052-.068.143-.111.155-.19.167.03.253-.17.354-.267-.041-.094.233-.174.061-.22-.044-.114.059-.134.119-.179a1.821,1.821,0,0,1,.751-.512c.227-.043.452-.084.677-.127.08-.015.149-.074.253-.053.138-.222.408-.131.579-.294.1,0,.211.017.285-.052C190.956,43.049,191.489,42.9,191.86,43.133Z" transform="translate(-146.693 -43)"/>
      <path id="패스_9326" data-name="패스 9326" class="cls-2" d="M111.067,259.135c0,.914-11.091,1.652-24.771,1.652s-24.774-.738-24.774-1.652,11.093-1.649,24.774-1.649S111.067,258.225,111.067,259.135Z" transform="translate(-48.861 -211.228)"/>
      <g id="그룹_6947" data-name="그룹 6947" transform="translate(0 5.641)">
        <g id="그룹_6944" data-name="그룹 6944">
          <path id="패스_9327" data-name="패스 9327" class="cls-3" d="M130.071,71.27a10.28,10.28,0,0,1,4.25,1.643,1.149,1.149,0,0,0,.783-.162,2.365,2.365,0,0,0-1-1.118c-.948-.412-2.032-.5-2.835-1.265-.15.322-.5.334-.819.338-.538-.09-.929-.549-1.525-.516-.174.05-.182.244-.337.337-.012.081.033.184-.042.243a.464.464,0,0,0,.063.4Z" transform="translate(-101.419 -69.966)"/>
          <g id="그룹_6943" data-name="그룹 6943">
            <path id="패스_9328" data-name="패스 9328" class="cls-3" d="M49.587,96.063l.625.6a.588.588,0,0,1,.125.68,62.767,62.767,0,0,1,2.925,5.572l.07-.241c-.123-1.1-.55-.9-.454-1.9-.358-.214-.247-.812-.492-1.1a7.2,7.2,0,0,0-.88-1.9c-.012-.11-.216-.1-.292-.184a6.757,6.757,0,0,0-.938-2.49c-.147-.427-.525-1.032-.684-1.467-.446-1.293-1.995-3.233-2.037-3.9-.694-.516-.911-1.646-1.408-2.3a6.316,6.316,0,0,0-1.046-1.5c-.126-.314-.481-.524-.661-.813-.146-.165-.165-.429-.363-.54-.177.055-.25-.119-.423-.064l-.581-.876a1.587,1.587,0,0,0-.823-.779c-.2-.133-.356.181-.5-.083-.231-.338-.272-.746-.5-1.082-.127-.113-.187.133-.313.016a4.123,4.123,0,0,0-.112-.507,1.4,1.4,0,0,1-.921-.526c-.227-.122-.407-.468-.665-.361-.328.148-.267-.261-.471-.418a.9.9,0,0,0-.184-.377c-.163-.013-.117-.278-.317-.2-.106-.157-.213.025-.321.036-.146-.159-.05-.41-.079-.622-.105-.033-.016-.147-.124-.179-.177.049-.368.028-.461.24-.449.041-.735-.4-.938-.762-.152.013-.338-.04-.439.1-.143.022-.384.07-.422-.138a1.531,1.531,0,0,0-.465-.692c-.227-.188-.5-.184-.728-.332-.2-.129-.273-.306-.537-.4-.22-.074-.465-.084-.686-.151-.553-.172-1.142-.231-1.706-.42a2.518,2.518,0,0,0-.363-.139.619.619,0,0,1-.563.143c-.24-.165-.53-.22-.717-.5l-.122.442-.442.034a1.566,1.566,0,0,0-.723.326,1.292,1.292,0,0,1-.861-.343,1.875,1.875,0,0,1-.659.561c-.078.052-.208-.022-.262.083-.179-.073-.248.129-.423.057-.053.143-.313-.149-.313.044,0,.258-.542.38-.534.227-.115.229-.009.454-.229.628-.138.019-.2-.144-.3-.215a10.043,10.043,0,0,0-1.164.179l-.123.278c-.229.119-.245.433-.358.642l-.1-.059a.339.339,0,0,0-.3.1c-.241-.089-.2.239-.4.2-.065.079-.218.123-.318.187-.129.034-.206.2-.346.2-.122.091-.163.248-.259.38-.7.982-1.13.614-1.228.541.053-.358.473-.587.664-.865a4.686,4.686,0,0,1,.8-.737c.115-.113.152-.272.277-.377.136-.12.335-.163.465-.294a2.618,2.618,0,0,1,.221-.191c.5-.444,1.19-.75,1.316-.926.129.079.272-.057.415-.028l.259-.1c.138-.282.566-.423.8-.6a.413.413,0,0,0,.373.122c.295-.1.6-.038.772-.319a.685.685,0,0,1,.66-.1.466.466,0,0,1,.163-.258.8.8,0,0,1,.56-.12c.131.149.377.048.525.163.148-.005.314.021.416-.1.114-.093.114-.24.162-.363.557.039,1.206-.127,1.607.3a2.99,2.99,0,0,1,2.542.225c.769.272,1.467.74,2.2,1.079.265.012.46.2.7.258.31.222.286.577.567.807.119-.012.258.03.361-.042A34.1,34.1,0,0,1,41.7,80.853a42.316,42.316,0,0,1,5.893,7.3c.15.109.374.258.4.46a.933.933,0,0,1,.264.43c.151.248,1.122,1.809,1.561,2.577a2.605,2.605,0,0,0,.568.576,44.02,44.02,0,0,0-3.247-6.069,36.88,36.88,0,0,0-3.234-4.7,2.234,2.234,0,0,0-.64-.678c-.265-.286-.319-.826-.819-.787A3.485,3.485,0,0,0,41,78.182l-.214-.041c-.026.053.035.072.06.1-.006.135.027.286-.122.363-.269-.084-.286-.372-.526-.525-.6-.443-1.129-1.041-1.744-1.465A3.9,3.9,0,0,0,37.928,76c-.486-.267-.993-.48-1.46-.786-.122-.191-.4-.332-.525-.565-.151-.015-.342.054-.461-.052-.686-.091-1.161-.687-1.746-1.024-.245.008-.375-.257-.637-.2-.26-.2-.671-.031-.969-.138-.313.075-.489-.195-.7-.361l-.1.1a.981.981,0,0,1-1.066.042c-.333-.035-.807-.151-1.015.241a2.421,2.421,0,0,1-.766-.222c-.688.019-1.23.27-2.124.393-.5.308-.927.294-1.425.589a2.568,2.568,0,0,0-.735.406c-.2-.021-.439.156-.585-.021.007-.151.194-.246.206-.394a3.312,3.312,0,0,0,.978-.652c.377-.083.666-.382,1.057-.443v0c.048-.016.1-.031.146-.043.228-.05.46-.074.68-.13a11.2,11.2,0,0,1,5.61-.162,10.626,10.626,0,0,1,1.884.564,17.212,17.212,0,0,1,5.036,3.286c.468.4,1.291,1.236,1.408,1.141s-.292-.473-.3-.723a1.131,1.131,0,0,0-.32-.4c-.134.022-.248-.526-.366-.413-.739-.735-1.427-1.362-2.2-2.016a13.4,13.4,0,0,0-3.972-2.244,14.686,14.686,0,0,0-2.031-.359c-.281-.082-.5-.341-.8-.382a1.842,1.842,0,0,0-1.145.2c-.456-.331-1.063-.058-1.565,0-.1.019-.237.129-.346.164a2.2,2.2,0,0,1-.429.079,2.463,2.463,0,0,1-.86-.1c.014.311-.586.346-.784.4-.071.021-.269.148-.259.131a1.338,1.338,0,0,0-1.067.5c-.232-.028-.585.084-.521-.325.022-.135.134-.205.236-.284a.728.728,0,0,0,.148-.117.374.374,0,0,0,.06-.11c.016-.01.575-.3.575-.3.338-.036.7-.37,1-.1.055-.244.317-.3.5-.378a.744.744,0,0,0,.684-.324,7.077,7.077,0,0,1,1.545-.1c.123-.118.331-.024.477-.079.1-.066.3-.11.28-.26.134-.18-.006-.469.119-.64-.253-.314-.522.065-.8.057-.078-.09-.2-.171-.239-.281-.723.1-1.4.283-2.125.379-.117.074-.3.191-.358-.014-.353-.141-.567.137-.809.316-.088-.013-.213.033-.279-.039-.584.461-1.327.537-1.924.963l-.039-.061c-.15.011-.236-.166-.343-.218l-.033.04a8.231,8.231,0,0,1-2.075.664L19.9,71.4c-.425.287-.238.895-.682,1.1H17.932c-.167.011-.156.2-.3.283a.461.461,0,0,1-.081.358l-.783.159a11.345,11.345,0,0,1-.942.864c-.772.5-1.449,1.245-2.2,1.769-.131.534-.709.649-1.107.88a.949.949,0,0,0-.3.484c-.119.106.089.425-.179.4a2.063,2.063,0,0,0-.367.8c-.112.071-.213.191-.36.2l-3.15,4.186c.057,1.522-1.358,2.435-1.664,3.813a17.893,17.893,0,0,0-2.045,3.67L3.038,94.589a24.266,24.266,0,0,0-.207,3.448c.076.349.171.983.26,1.3a4.326,4.326,0,0,0,1.35,1.91A3.375,3.375,0,0,0,7.8,102.476a9.613,9.613,0,0,0,2.088-1.008,4.543,4.543,0,0,0,1.622-.924,4.078,4.078,0,0,0,.8-1.181,33.64,33.64,0,0,1,1.467-3.609c.446-1.086,1.253-2.022,1.79-3.072,0-.233.06-.451.077-.684a14.7,14.7,0,0,0,.9-1.519c-.094-.32.253-.474.422-.665a.075.075,0,0,1,.12.026c.05.008.1.081.139.036.111-.345-.053-.8.143-1.1a3.693,3.693,0,0,0,.921-1.028,7.257,7.257,0,0,1,1.04-1.64c.4-.2.379-.657.627-.964,1.056-1.024,2.172-2.007,3.208-3.01A4.683,4.683,0,0,0,24,81.57c.187-.362.6-.467.9-.7a11.219,11.219,0,0,1,9.9-.578C39.384,82.113,44.578,86.806,49.587,96.063Z" transform="translate(-2.817 -69.156)"/>
          </g>
          <path id="패스_9329" data-name="패스 9329" class="cls-3" d="M168.732,94.609a8.117,8.117,0,0,1,.478.862c.031.081.081.368-.053.39-.157.027-.425-.6-.49-.7-.374-.616-.761-1.23-1.162-1.828a31.891,31.891,0,0,0-2.742-3.568l-.1-.184-2.233-2.48c-1.08-1.084-2.237-1.977-3.352-2.971-.218-.146-.454-.277-.661-.444.041-.11.163-.189.24-.279.288.046.534-.134.766.024C162.343,85.446,166.894,90.887,168.732,94.609Z" transform="translate(-124.86 -80.3)"/>
        </g>
        <g id="그룹_6945" data-name="그룹 6945" transform="translate(25.82 14.477)">
          <path id="패스_9330" data-name="패스 9330" class="cls-3" d="M153.238,147.692a6.815,6.815,0,0,1,.761,1.077c-.045.3.4.42.509.659a10.878,10.878,0,0,1,.549,1.014,13.082,13.082,0,0,0,.764,1.361.459.459,0,0,0,.076.222c.021.329.392.377.556.646,0,.072-.009.146.04.194.013.082.046.2-.04.258a8.214,8.214,0,0,1,1.082,2.13c.059.31.259.558.346.859a.912.912,0,0,1,.2.453c.068.053.113.153.216.119a3.863,3.863,0,0,0-.322-1.016c-.078-.086-.167-.171-.131-.311.019-.344-.27-.567-.324-.882-.268-.267-.088-.721-.493-.935a.232.232,0,0,0-.051-.207c.057-.242-.065-.371-.167-.55a2.412,2.412,0,0,1-.086-.631c-.176-.236-.268-.551-.466-.771a1.446,1.446,0,0,0-.162-.6c-.093-.138-.257-.242-.331-.388-.281-.272-.129-.6-.41-.862.028-.107-.085-.154-.127-.236-.162-.33-.426-.654-.568-.948-.191-.276-.386-.558-.576-.84a.7.7,0,0,0-.2-.558c-.229-.037-.367-.292-.552-.442l.043-.129c-.093-.057-.145-.234-.29-.17-.1-.037-.031-.146-.045-.217-.567-.321-.6-.992-1.095-1.339-.1-.078-.045-.225-.112-.323.041-.151-.117-.219-.2-.322-.074-.018-.18.046-.221-.052-.122.035-.115-.146-.232-.13.012-.088-.107-.118-.069-.219-.227-.127-.321-.418-.579-.518-.057.007-.117.1-.155,0-.152-.076-.382-.23-.362-.432-.014-.16-.187-.079-.286-.1-.127-.05-.036-.184-.081-.271-.018-.055-.079-.129-.146-.129.015-.119-.119-.042-.178-.065-.313-.117-.382-.494-.689-.623a.153.153,0,0,0-.2.052c-.087.086-.165.018-.234-.064a.561.561,0,0,1-.4-.238c-.011-.118-.186-.077-.264-.155-.229-.235-.786-.156-1.022-.4s-.747-.069-.95-.419c-.062.148-.081-.008-.2.008-.086-.1-.416-.014-.38-.188h-.153l-.022.17-.847-.031c-.036-.033-.057-.091-.117-.069-.52-.76.4-.337.4-.365v-.143c.117.023.027-.1.123-.13.3.153.761-.1.984.224.229-.059.248.079.5.079a1.818,1.818,0,0,1,.736.156c.408.093.718.435,1.148.48l1.174.636c.565.42,1.174.709,1.728,1.155-.016.075.065.1.116.131a3.275,3.275,0,0,1,.96.958c.351.6,1.036.8,1.377,1.389.222.38.515.718.752,1.084.162.243.256.523.41.768.176.283.6.207.4.527.114.029.2.1.227.311.1.3.331.556.425.857.5.719,1.142,2.1,1.275,2.037s-.244-1.049-.524-1.526a16.162,16.162,0,0,0-.99-1.869l-.022-.157c-.078-.1-.054-.248-.168-.34a5.576,5.576,0,0,0-.882-1.369c-.14-.4-.5-.714-.6-1.13a2.871,2.871,0,0,0-.712-.907c-.007-.242-.289-.365-.31-.6-.145-.015-.211-.267-.39-.154.045.11-.062.151-.119.22a8.74,8.74,0,0,0-.972-.859l-.024-.074c-.242-.043-.387-.309-.583-.468-.033-.044-.026-.13-.1-.119-.308-.553-.944-.54-1.362-.943-.184-.024-.168-.273-.36-.286-.489-.1-.834-.547-1.311-.673-.2-.218-.535-.08-.8-.121-.072-.062-.146-.13-.131-.22-.169.1-.4.031-.608.053a.329.329,0,0,0-.248-.117c-.073-.1-.218-.024-.284-.115-.1.016-.226-.048-.286.048l-.48-.1a5.1,5.1,0,0,0-2,.184c-.339.007-.547.34-.947.216a.213.213,0,0,0-.14-.087.339.339,0,0,1-.153-.226c.077-.158.287-.182.476-.165a5.82,5.82,0,0,1,3.129-.5,7.092,7.092,0,0,1,2.447.6c.256.18.558.239.8.43a11.639,11.639,0,0,1,2.228,1.547,11.908,11.908,0,0,0,.9.941h.115c.093-.1.033-.263.052-.4-.052-.037-.081-.13-.154-.1-.045-.12-.165-.045-.248-.065-.235-.26-.461-.521-.672-.8a6.346,6.346,0,0,0-.958-.788c-.093-.135-.228-.4-.455-.338a5,5,0,0,0-1.557-.972l-.078-.127-.545-.133a4.968,4.968,0,0,0-1.2-.215c-.241-.236-.618-.154-.945-.171-.251.119-.6-.018-.834.119-.164-.084-.348-.1-.518-.17a.241.241,0,0,1-.06.205,3.068,3.068,0,0,0-.873.12.077.077,0,0,1-.051-.057c-.028.076-.1.026-.157.042-.069.114-.2.059-.277.128-.171-.1-.322-.215-.2-.354.345-.083.677-.193,1.026-.27.16-.2.465-.043.646-.18.169.133.441.015.625.106a2.555,2.555,0,0,0,.894-.066.268.268,0,0,0,.069.008c.28.013.524.088.806.088l.032-.014.673.165a1.061,1.061,0,0,1,.5.145c.208.158.518.1.729.283.532.145.9.688,1.473.738v-.2c-.024-.211-.282-.251-.4-.439-.219-.053-.364-.268-.585-.322a.863.863,0,0,0-.346-.172,5.035,5.035,0,0,1-.521-.371.866.866,0,0,1-.586.115.993.993,0,0,0-.708-.352,2.444,2.444,0,0,0-.365-.085,3.177,3.177,0,0,0-.554-.076c-.065-.022-.146.006-.213-.006-.045.131-.149-.031-.242,0l-.123-.068c-.235.021-.632-.135-.84-.041a12.468,12.468,0,0,0-2.816.381c-.1,0,.062-.028.055-.092l-.166.166a.2.2,0,0,0-.163.058h-.84c-.245,0-.211.284-.35.413-.2.17-.476.146-.712.222a.929.929,0,0,0-.78.111.507.507,0,0,1-.171.237.136.136,0,0,1-.118-.051.656.656,0,0,0-.518.219c-.127.017-.189.215-.348.181-.35.267-.785.3-1.1.623-.306.193-.592.433-.9.648-.036-.1-.134-.031-.2-.05-.027.019-.008.088-.064.067v.045a.321.321,0,0,0-.129.288c-.074-.015-.074.078-.106.118-.061.019-.105.08-.183.063-.146.064-.089.216-.1.339a5.865,5.865,0,0,1-.973.687,7.4,7.4,0,0,0-1.272.923,2.148,2.148,0,0,1-.27.324c-.212.154-.129.433-.353.584a28.934,28.934,0,0,1-2.6,2.722,1.485,1.485,0,0,1-.247.429c-.1.285-.473.316-.531.62-.514.574-.737,1.311-1.361,1.792a17.189,17.189,0,0,0-1.04,1.674.689.689,0,0,0-.285.284c-.305.177-.383.542-.556.819-.275.2-.274.513-.518.725a4.486,4.486,0,0,0-.428.8c-.236.229-.236.548-.348.818a1.188,1.188,0,0,0-.251.674,1.085,1.085,0,0,0-.066.82,1.488,1.488,0,0,0-.058.517l.109.119a2.157,2.157,0,0,0,.173,1.348c.06.163.024.358.184.48a4.555,4.555,0,0,0,1.385,1.5,3.79,3.79,0,0,0,1.011.465c-.021.185.194.016.244.147.105,0,.26.06.325-.053.375-.014.6-.379.974-.4.016-.1.138-.032.208-.052.116.088.274.083.4.154.028-.024.045-.072.093-.054v-.036c.224-.246.515-.329.741-.571a4.977,4.977,0,0,0,1.056-1.282v-.132c.112-.041.052-.154.069-.233a.9.9,0,0,1,.232-.2c.443-.3.558-.755.93-1.086.164.084.186-.189.342-.119a1.817,1.817,0,0,1,.272-.715,2.729,2.729,0,0,0,.191-.675,2.065,2.065,0,0,0,.348-.532,5.944,5.944,0,0,0,.665-1.129c.531-1.1,1.254-2.118,1.884-3.177a3.547,3.547,0,0,0,.649-.881,26.527,26.527,0,0,1,3.614-4.071,15.45,15.45,0,0,1,1.607-1.1c.3-.216.773-.182.937-.61a1.357,1.357,0,0,1,1.014-.284c.505-.1.9-.5,1.49-.4.075.1.19.112.282.171.047-.119.193.017.236-.119.256-.075.392.145.645.07.031.025.06.062.105.05.107-.111.3.01.4-.109l.026.059a.281.281,0,0,0,.206.05c.035.12.169.012.221.1.1-.018.07.081.089.133a2,2,0,0,1,.68.087c.144.211.437.075.634.171.373.165.742.487,1.115.659.322.136.706.114.931.482A14.858,14.858,0,0,1,153.238,147.692Z" transform="translate(-122.535 -136.283)"/>
          <path id="패스_9331" data-name="패스 9331" class="cls-3" d="M246.45,147.467a1.9,1.9,0,0,0,.574.406c.714,1.014,1.8,1.882,2.632,2.849.223.376.472.742.713,1.117.2-.051.167.222.334.232a6.3,6.3,0,0,1,.232.755.268.268,0,0,1,.176.169.558.558,0,0,0,.243.076c-.044.171.069.282.116.411.244.365.428.722.679,1.078.012.2.283.638.411.575s-.126-.228-.128-.366c-.191-.331-.143-.758-.389-1.061a2.083,2.083,0,0,0-.472-.706c.033-.086-.049-.135-.049-.217-.147-.233-.341-.363-.486-.611.092-.248-.21-.331-.194-.548-.062-.082-.146-.256-.236-.256a18.8,18.8,0,0,0-3.859-4.177H246.7l-.055-.051a.86.86,0,0,0-.456.064C246.33,147.273,246.3,147.451,246.45,147.467Z" transform="translate(-219.521 -144.8)"/>
        </g>
        <g id="그룹_6946" data-name="그룹 6946" transform="translate(11.394 21.16)">
          <path id="패스_9332" data-name="패스 9332" class="cls-3" d="M85.108,176.085c-.044-.291-.847-1.511-.94-1.779-.062-.09-.044-.217-.146-.3-.043-.184-.283-.289-.353-.462-.007-.049.037-.148-.057-.135-.021-.115-.15-.181-.221-.272a.369.369,0,0,1-.183-.289c-.1.016-.029-.1-.113-.126.077-.146-.147-.172-.124-.294a12.9,12.9,0,0,0-3.108-3.107c-.017,0-.515-.255-.537-.259-.1-.168-.5-.344-.67-.436a3.289,3.289,0,0,0-1.249-.659l-.181-.179c-.093.01-.15-.076-.227-.114-.042.062-.106.074-.157.114-.137-.031-.344.081-.424-.114-.2-.039-.337-.248-.589-.171a.422.422,0,0,0-.063.1,2.034,2.034,0,0,0-.613-.154c-.053-.049-.1-.094-.18-.069-.115.174-.237-.055-.371-.044-.093-.022-.207.006-.278-.072-.174.106-.418.041-.63.059-.136.1-.455,0-.625.019a1.082,1.082,0,0,1-.489.07,2.97,2.97,0,0,0-.948.26c-.065-.091-.26-.033-.216-.157a.588.588,0,0,1-.343.2c-.2.086-.309-.115-.517-.045-.08.082-.2.033-.3.082,0,.171-.2.3-.327.381-.42.1-1.108-.247-1.234.339-.107-.083-.273-.03-.408-.043-.14.129-.318.154-.452.284a4.73,4.73,0,0,0-1.747.983c-.03-.056-.059-.148-.156-.116.02.1-.094.026-.115.105-.143-.033-.057.127-.079.193a.456.456,0,0,1-.282.169c-.066.069-.152.12-.115.228a4.443,4.443,0,0,1-1.2.744,6.132,6.132,0,0,0-1.007.773.808.808,0,0,1-.375.5c-.513.492-1.014,1.018-1.544,1.475-.229.25-.616.32-.737.651a2.362,2.362,0,0,1-.372.454c-.2.09-.265.335-.431.487-.237.277-.428.574-.678.85-.724.459-.864,1.312-1.585,1.77-.245.314-.42.654-.68.961a10.183,10.183,0,0,0-1.031,1.723v.291a.282.282,0,0,0,0,.348v.117l-.062.053v.292l.062.116v.582c-.036.272.232.422.224.678a9.169,9.169,0,0,0,.983,1.055c.373.155.667.48,1.1.466.172.25.518.091.77.136l.106-.069c.2-.023.327-.217.53-.226.126,0,.3-.055.4.046.106-.022.3.063.3-.113a2.757,2.757,0,0,0,1.284-1c.122-.148.313-.277.269-.495.036-.039.094-.074.071-.14a.119.119,0,0,1,.124-.055,2.275,2.275,0,0,0,.637-.69c.172-.189.506-.155.587-.432.028-.313.423-.475.33-.836a11.748,11.748,0,0,0,.949-1.353,17.063,17.063,0,0,1,1.191-1.823,4.762,4.762,0,0,0,.531-.668l1.267-1.438c.464-.546.986-.977,1.5-1.486a9.219,9.219,0,0,1,2.864-1.8c.157-.237.437-.146.589-.382.673.127,1.115-.309,1.747-.284a8.49,8.49,0,0,1,4.744,1.153l.127.122a9.671,9.671,0,0,0,.861.639c.246.025.394.292.633.338.062.1.173.176.185.295l.324.343.071.008c.484.413.963.833,1.424,1.3.3.365.713.678.784,1.136.4.233.53.681.8,1.021-.015.116.116.177.185.247.006.337.44.5.521.8.012.119-.008.252.122.318.064.171.289.184.372.342a.413.413,0,0,1,.093.349,16.416,16.416,0,0,1,.917,1.6,1.345,1.345,0,0,0,.363.666v.112c.085.042.012.15.117.181-.017.153.15.084.208.16l-.089-.238c-.134-.13-.05-.353-.248-.452-.006-.064.019-.138-.036-.181-.068-.517-.557-.856-.6-1.386-.045-.1-.212-.047-.182-.191-.1-.08-.038-.241-.059-.361.017-.2-.212-.146-.277-.31-.088-.326-.529-.509-.468-.9-.1-.128-.04-.363-.251-.395-.041-.147-.217-.244-.244-.4-.27-.3-.432-.957-.66-1.266-.082-.154-.258-.27-.226-.467l-.579-.577c-.084.019-.066-.078-.066-.126a4.046,4.046,0,0,1-.521-.581v-.227c-.1,0-.22.231-.292.184-.134.008.072-.446.045-.487-.4-.05-.367-.265-.7-.487-.1-.16-.422-.167-.319-.427-.091-.043-.04-.162-.168-.115-.046-.1-.109-.026-.162,0-.029-.015-.021-.043-.021-.074-.036-.093-.182-.064-.167-.166-.107-.058-.02-.229-.172-.229-.019-.113-.3-.187-.37-.284-.237.1-.22-.194-.232-.351-.114-.119-.713-.393-.814-.518-.246.048-.408-.283-.6-.385a.931.931,0,0,0-.491.05c-.072-.07-.167-.09-.228-.185-.016-.17-.219-.131-.321-.215-.079-.04-.208.04-.265-.067l-.411-.141c-.11-.1-.274-.073-.4-.159-.049-.074-.081-.165-.185-.181-.012-.06-.3.235-.289.171l-.232-.255a.153.153,0,0,1-.117-.032c-.148.03-.208-.189-.339-.2,0,.035.012.081-.006.111h-.808l-.053.036a.12.12,0,0,1-.184-.036c.026-.145-.265.049-.186.1-.069-.045-.274-.017-.354-.033-.192-.029-.259.078-.444.169-.041.022-.1.045-.127.09s.041.148-.045.178c0,.1-.138.047-.192.042V170.7a.464.464,0,0,1-.223-.068c-.367-.077-.611.134-.944.127-.162.253-.525.317-.785.394-.087.028-.139.105-.245.126a2.942,2.942,0,0,0-1.1.551c-.1.072-.159.218-.277.249a1.436,1.436,0,0,0-.15.024c-.006,0-.144.055-.126.058a.446.446,0,0,0-.275.045.254.254,0,0,1-.166-.069l.043-.044c.124-.014.044-.2.069-.294.045-.055.127-.1.135-.171.15-.1.138-.417.418-.3a.886.886,0,0,0,.545-.23c.272-.1.475-.38.732-.509.122-.061.912-.222.852-.418.1.052.131-.091.229-.057.051.077.156.1.182.17.1.042.125-.076.212-.058.041-.055.134-.1.125-.17a.445.445,0,0,1,.274.059c.015.142.106-.031.179,0v-.034c0-.036.04-.024.06-.025.033-.328.391-.12.589-.181-.041-.079.089-.091.065-.171h.288c.081.095.224.043.336.055.036-.068.108-.052.17-.055.077-.1.244-.038.363-.056.056.039.195-.047.237-.122l.757.077c.121.14.354.01.5.116a2.644,2.644,0,0,1,1.2.3l.236.169a1.529,1.529,0,0,1,.455.17,7.466,7.466,0,0,1,1.774.941c.33.291.614.4.933.7a7.308,7.308,0,0,1,.95.968,11.6,11.6,0,0,1,1.715,1.77,2.516,2.516,0,0,1,.357.476c.025.076.2.506.351.541.137.311.4.657.568.963a13.492,13.492,0,0,0,.851,1.294,12.6,12.6,0,0,0-.448-1.331c-.045-.134-.236-.206-.191-.382-.279-.262-.356-.6-.637-.86.028-.095-.041-.15-.053-.228-.1-.179-.267-.328-.3-.532-.155-.282-.5-.483-.611-.785a9.828,9.828,0,0,1-.948-1.425l-.083-.035c-.294-.145-.615-.654-.647-.62a1.91,1.91,0,0,1-.407-.383c-.355-.279-.583-.566-.93-.853-.052-.19-.26-.211-.385-.315-.331-.226-.723-.274-.988-.625a.369.369,0,0,1-.316-.11c-.2-.033-.331-.216-.527-.244a1.323,1.323,0,0,0-.561-.252c-.16-.172-.294.078-.492-.01a.472.472,0,0,1-.176-.23c-.047.066-.1.03-.143,0a.787.787,0,0,1-.558-.189c-.173.027-.4-.1-.506.09l-.026-.046-.452-.007c-.2-.153-.407-.01-.63-.06-.229.042-.482.037-.718.077a5.573,5.573,0,0,0-1.219.218,1.736,1.736,0,0,0-.5.043c-.211-.368-.012-.234.054-.408.06-.156-.026.127,0-.038h.1c.261,0,.447-.179.694-.213.247-.206.626-.114.9-.25.155.119.409,0,.566.1a2.324,2.324,0,0,0,1.023-.086,4.08,4.08,0,0,0,.485.042v.057a1.353,1.353,0,0,1,.613.1,1.666,1.666,0,0,1,.784.255c.233-.052.4.079.584.149.093.056.171.17.286.17a2.08,2.08,0,0,0,.737.366,1.664,1.664,0,0,0,.36.217c-.036.02.141.034.108.048.013.163.225.116.229.274.148-.065.187.115.283.171.186-.029.277.122.364.25.437.387.632.521,1.073.9a15.85,15.85,0,0,1,1.5,1.584h.116c.3.21.28.543.414.817.16-.038.214.157.347.182.025.379.542.7.63,1.055a14.5,14.5,0,0,1,.874,1.423C85.011,176.28,85.138,176.273,85.108,176.085Z" transform="translate(-55.646 -167.268)"/>
        </g>
      </g>
    </g>
    <g id="그룹_6955" data-name="그룹 6955" transform="translate(74.749 55.868)">
      <g id="그룹_6950" data-name="그룹 6950">
        <g id="그룹_6949" data-name="그룹 6949" transform="translate(1.719 4.875)">
          <path id="패스_9333" data-name="패스 9333" class="cls-4" d="M351.035,131.389c4.316-1.351,5.691-3.334,5.829-6.116h-3.938c0,2.27-3.637,4.335-8.608,4.675v2.485A29.232,29.232,0,0,0,351.035,131.389Z" transform="translate(-344.318 -125.273)"/>
          <path id="패스_9334" data-name="패스 9334" class="cls-4" d="M392.227,131.389c-4.314-1.351-5.69-3.334-5.83-6.116h3.939c0,2.27,3.636,4.335,8.608,4.675v2.485A29.2,29.2,0,0,1,392.227,131.389Z" transform="translate(-377.322 -125.273)"/>
        </g>
        <path id="패스_9335" data-name="패스 9335" class="cls-4" d="M357.334,105.124v-2.457h-4.407v2.457h-8.608v2.484h21.623v-2.484Z" transform="translate(-342.599 -102.667)"/>
        <path id="패스_9336" data-name="패스 9336" class="cls-4" d="M361.407,165.238h-25.06v2.483h10.327v3.1h4.407v-3.1h10.325Z" transform="translate(-336.347 -151.743)"/>
        <path id="패스_9337" data-name="패스 9337" class="cls-4" d="M362.457,184.2c-4.856,0-8.8,2.884-8.8,6.444s3.945,6.445,8.8,6.445,8.794-2.877,8.794-6.445S367.318,184.2,362.457,184.2Zm0,10.4a3.974,3.974,0,1,1,4.384-3.954A4.184,4.184,0,0,1,362.457,194.6Z" transform="translate(-349.923 -166.618)"/>
      </g>
      <g id="그룹_6952" data-name="그룹 6952" transform="translate(29.751)">
        <g id="그룹_6951" data-name="그룹 6951" transform="translate(0 4.525)">
          <path id="패스_9338" data-name="패스 9338" class="cls-4" d="M480.066,132.424a10.19,10.19,0,0,0,4.6-8.777h-4.4c0,4.161-1.634,6.94-5.967,8.576v2.485A16.619,16.619,0,0,0,480.066,132.424Z" transform="translate(-474.293 -123.647)"/>
          <path id="패스_9339" data-name="패스 9339" class="cls-4" d="M506.648,132.19A9.881,9.881,0,0,1,502,123.647h4.4c0,4.161,1.483,6.524,5.969,8.4v2.483A16.624,16.624,0,0,1,506.648,132.19Z" transform="translate(-496.024 -123.647)"/>
        </g>
        <path id="패스_9340" data-name="패스 9340" class="cls-4" d="M485.2,105.124v-2.457h-4.411v2.457h-5.821v2.484h16.05v-2.484Z" transform="translate(-474.826 -102.667)"/>
        <path id="패스_9341" data-name="패스 9341" class="cls-4" d="M550.4,107.4v6.315h-4.671V116.2H550.4v6.539h4.416V107.4Z" transform="translate(-530.321 -106.377)"/>
        <path id="패스_9342" data-name="패스 9342" class="cls-4" d="M518.11,187.064c0-3.8-3.88-6.874-8.675-6.874s-8.686,3.077-8.686,6.874,3.892,6.881,8.686,6.881S518.11,190.859,518.11,187.064Zm-8.692-4.389a4.387,4.387,0,1,1-4.258,4.394A4.338,4.338,0,0,1,509.418,182.675Z" transform="translate(-495.043 -163.471)"/>
      </g>
      <g id="그룹_6953" data-name="그룹 6953" transform="translate(59.696 1.02)">
        <path id="패스_9343" data-name="패스 9343" class="cls-4" d="M638.2,174.971H613.139v2.47h10.326v3.181h4.4v-3.181H638.2Z" transform="translate(-613.139 -160.397)"/>
        <path id="패스_9344" data-name="패스 9344" class="cls-4" d="M621.155,198.209v2.474h16.82v6.753h4.4v-9.227Z" transform="translate(-619.426 -178.624)"/>
        <path id="패스_9345" data-name="패스 9345" class="cls-4" d="M639.362,107.4v3.833H627.345V107.4h-4.423v9.124c0,2.243,1.243,3.129,3.192,3.129h17.646V107.4Zm-12.017,9.774v-3.457h12.017v3.457Z" transform="translate(-620.812 -107.397)"/>
      </g>
      <g id="그룹_6954" data-name="그룹 6954" transform="translate(89.231 1.747)">
        <path id="패스_9346" data-name="패스 9346" class="cls-4" d="M764.825,180.357v-7.033h-4.407v7.033H750.087v2.48h25.068v-2.48Z" transform="translate(-750.087 -159.832)"/>
        <path id="패스_9347" data-name="패스 9347" class="cls-4" d="M780.529,113.252v-2.485H759.54v10.975c0,2.242,1.237,3.135,3.173,3.135h17.816v-2.483H763.957v-9.142Z" transform="translate(-757.501 -110.767)"/>
      </g>
    </g>
  </g>
</svg>
