<svg xmlns="http://www.w3.org/2000/svg" xmlns:xlink="http://www.w3.org/1999/xlink" width="249.82" height="46.103" viewBox="0 0 249.82 46.103">
  <defs>
    <style>
      .cls-1 {
        fill: url(#linear-gradient);
      }

      .cls-2 {
        fill: url(#linear-gradient-2);
      }

      .cls-3 {
        fill: url(#linear-gradient-3);
      }

      .cls-4 {
        fill: #002a69;
      }

      .cls-5 {
        fill: url(#linear-gradient-4);
      }

      .cls-6 {
        fill: #5b5a53;
      }
    </style>
    <linearGradient id="linear-gradient" x1="-0.025" y1="-0.09" x2="0.98" y2="-0.09" gradientUnits="objectBoundingBox">
      <stop offset="0" stop-color="#0068a3"/>
      <stop offset="1" stop-color="#4bc1e1"/>
    </linearGradient>
    <linearGradient id="linear-gradient-2" x1="-0.023" y1="-0.049" x2="0.982" y2="-0.049" gradientUnits="objectBoundingBox">
      <stop offset="0.006" stop-color="#8abb2a"/>
      <stop offset="0.718" stop-color="#fe0"/>
      <stop offset="0.994" stop-color="#ffba1b"/>
    </linearGradient>
    <linearGradient id="linear-gradient-3" y1="0.5" x2="1" y2="0.5" gradientUnits="objectBoundingBox">
      <stop offset="0" stop-color="#ed5655"/>
      <stop offset="0.239" stop-color="#ee5c48"/>
      <stop offset="0.674" stop-color="#f36e27"/>
      <stop offset="1" stop-color="#f77e0b"/>
    </linearGradient>
    <linearGradient id="linear-gradient-4" x1="-242.869" y1="311.39" x2="-241.572" y2="310.094" gradientUnits="objectBoundingBox">
      <stop offset="0.006" stop-color="#ffa800"/>
      <stop offset="0.7" stop-color="#f36a10"/>
      <stop offset="0.704" stop-color="#f26910"/>
      <stop offset="0.901" stop-color="#eb3915"/>
      <stop offset="1" stop-color="#e82717"/>
    </linearGradient>
  </defs>
  <g id="그룹_6715" data-name="그룹 6715" transform="translate(-130.517 -424.554)">
    <g id="그룹_6706" data-name="그룹 6706" transform="translate(130.517 436.215)">
      <g id="그룹_6704" data-name="그룹 6704" transform="translate(15.57 10.039)">
        <path id="패스_7914" data-name="패스 7914" class="cls-1" d="M258.628,457.389s-44.845-6.551-104.8,1.877l-1.491,5.635C172.907,459.513,216.321,454.331,258.628,457.389Z" transform="translate(-152.337 -454.963)"/>
      </g>
      <g id="그룹_6705" data-name="그룹 6705" transform="translate(0 9.129)">
        <path id="패스_7915" data-name="패스 7915" class="cls-2" d="M252.378,457.024s-51.332-8.534-120.2,1.7l-1.666,5.814C154.111,458.948,203.989,452.626,252.378,457.024Z" transform="translate(-130.517 -453.688)"/>
      </g>
      <path id="패스_7916" data-name="패스 7916" class="cls-3" d="M153.363,445.929c.4-1.5.961-2.783,2.981-2.783s1.9,1.284,1.5,2.783c-.462,1.715-1.044,2.926-3.023,2.926S152.9,447.644,153.363,445.929Zm2.973-.085c.3-1.143.4-1.718-.248-1.718s-.861.575-1.165,1.718c-.453,1.67-.407,2.032.158,2.032S155.883,447.513,156.336,445.844Zm48.507-2.313a.251.251,0,0,0-.041-.139.435.435,0,0,0-.345-.137h-.99l-.166.639h-.021a.923.923,0,0,0-1.035-.748c-1.6,0-2.032,1.53-2.35,2.74-.329,1.239-.831,2.786.854,2.786a1.717,1.717,0,0,0,1.341-.642h.022l-.285,1.052c-.14.554-.421.914-.8.914-.234,0-.4-.075-.456-.218a.831.831,0,0,1,.021-.556h-1.5c-.323,1.342.574,1.634,1.714,1.634a2.4,2.4,0,0,0,2.6-1.877l1.438-5.388A.222.222,0,0,0,204.843,443.53Zm-2.181,2.455c-.317,1.162-.542,1.74-1.1,1.74-.739,0-.385-1.048-.247-1.559.452-1.673.658-2.075,1.233-2.075S202.991,444.776,202.662,445.986Zm-61.247-2.84a1.77,1.77,0,0,0-1.416.632h-.024l.684-2.548a.236.236,0,0,0,.009-.062.242.242,0,0,0-.046-.137.429.429,0,0,0-.343-.135H138.75c-.006.029-.046.157-.053.181a.782.782,0,0,1,.268.624,1.28,1.28,0,0,1-.042.27l-1.615,6.06-.2.716h.808a.872.872,0,0,0,.764-.414l.054-.193h.022c.133.533.513.716,1.1.716,1.588,0,2-1.766,2.3-2.891S142.963,443.146,141.415,443.146Zm-.744,2.807c-.373,1.379-.632,1.953-1.186,1.953-.521,0-.458-.574-.088-1.953.292-1.1.487-1.86,1.117-1.86C141.177,444.092,140.961,444.852,140.672,445.952Zm5.41-2.807c-2.024,0-2.585,1.284-2.981,2.783-.47,1.715-.524,2.926,1.455,2.926a2.86,2.86,0,0,0,1.759-.534,2.493,2.493,0,0,0,.784-.955.361.361,0,0,0,.045-.135.263.263,0,0,0,0-.059.188.188,0,0,0-.042-.135.408.408,0,0,0-.344-.138h-1.03c-.123.452-.37.978-.916.978-.671,0-.432-.978-.256-1.632H147.3a.3.3,0,0,0,.253-.174C148.024,444.393,148.079,443.146,146.081,443.146Zm.113,2.24h-1.4c.126-.47.335-1.294,1.04-1.294C146.562,444.092,146.333,444.852,146.194,445.386Zm31.887-2.24c-2.022,0-2.582,1.284-2.984,2.783-.469,1.715-.522,2.926,1.458,2.926a2.85,2.85,0,0,0,1.756-.534,2.552,2.552,0,0,0,.79-.955.557.557,0,0,0,.039-.135.179.179,0,0,0,.008-.059.211.211,0,0,0-.044-.135.406.406,0,0,0-.342-.138H177.73c-.126.452-.37.978-.914.978-.676,0-.436-.978-.256-1.632h2.735a.287.287,0,0,0,.251-.174C180.022,444.393,180.078,443.146,178.081,443.146Zm.114,2.24h-1.4c.126-.47.332-1.294,1.041-1.294C178.562,444.092,178.333,444.852,178.195,445.386Zm14.4,2.874,1.206-4.476.051-.193a.179.179,0,0,0,.009-.06.218.218,0,0,0-.042-.139.449.449,0,0,0-.348-.137h-1.529c0,.026-.043.158-.05.184a.774.774,0,0,1,.266.62,1.043,1.043,0,0,1-.042.283l0,0-1.189,4.408h.868A.843.843,0,0,0,192.592,448.259Zm1.756-6.619.081-.215.051-.193a.264.264,0,0,0,.009-.065.247.247,0,0,0-.044-.138.418.418,0,0,0-.34-.133h-1.53c-.006.029-.05.157-.057.181a.787.787,0,0,1,.24.651,1.288,1.288,0,0,1-.035.283l0-.006-.044.128h.874A.84.84,0,0,0,194.348,441.64Zm-21.092,6.619,1.832-6.835.05-.193a.209.209,0,0,0,.009-.065.239.239,0,0,0-.042-.138.435.435,0,0,0-.344-.133h-1.529c-.008.029-.049.157-.054.181a.772.772,0,0,1,.266.624,1.033,1.033,0,0,1-.04.282l0,0-1.812,6.768h.867A.838.838,0,0,0,173.256,448.259Zm10.135-5.114a2.911,2.911,0,0,0-1.535.357,2.11,2.11,0,0,0-.92,1.339h1.5c.123-.433.278-.836.808-.836.553,0,.525.336.4.8l-.108.425c-1.423-.023-2.843.057-3.335,1.87-.258.956-.075,1.752.993,1.752a2.069,2.069,0,0,0,1.657-.836h.019l-.128.726h.714a.838.838,0,0,0,.791-.486h0c.032-.185.069-.361.116-.534l.743-2.742C185.363,443.982,185.338,443.146,183.391,443.146Zm-1.345,4.76c-.5,0-.428-.472-.329-.866.27-.979.81-.915,1.585-.948C183.137,446.689,182.949,447.905,182.046,447.905Zm-32.437,2.44.163-.3h0l3.547-6.471a.143.143,0,0,0,.022-.049.179.179,0,0,0,0-.139.314.314,0,0,0-.3-.137h-1.416c-.011.022-.069.137-.078.156a.564.564,0,0,1,.113.535.985.985,0,0,1-.086.243l-1.405,2.926h-.022l.228-3.525a.25.25,0,0,0,0-.059.238.238,0,0,0-.072-.139.516.516,0,0,0-.371-.137H148.6c0,.022,0,.137,0,.156a.646.646,0,0,1,.256.529,2.058,2.058,0,0,1,.017.249l0,4.6-1.135,2.034h.952A1.149,1.149,0,0,0,149.609,450.346Zm12.916-7.2a1.836,1.836,0,0,0-1.447.634v-.009l.051-.2a.222.222,0,0,0,.01-.062.233.233,0,0,0-.047-.138.433.433,0,0,0-.342-.135h-1.529c-.006.028-.049.16-.055.183a.774.774,0,0,1,.266.621,1.051,1.051,0,0,1-.039.283l0,0-1.225,4.422h.871a.852.852,0,0,0,.8-.486l1.008-3.667a.71.71,0,0,1,.684-.5c.49,0,.48.381.343.868l-1.016,3.785h.87a.84.84,0,0,0,.794-.486l1.053-3.918C163.781,443.579,163.25,443.146,162.524,443.146Zm35.643,0a1.914,1.914,0,0,0-.792.153,1.97,1.97,0,0,0-.657.482l.006-.009.048-.2a.164.164,0,0,0,.009-.062.221.221,0,0,0-.044-.138.429.429,0,0,0-.342-.135h-1.528c-.007.028-.045.16-.053.183a.768.768,0,0,1,.263.621,1.079,1.079,0,0,1-.038.283v0l-1.217,4.422h.866a.84.84,0,0,0,.794-.486l1.012-3.667a.708.708,0,0,1,.684-.5c.487,0,.478.381.343.868l-1.017,3.785h.869a.847.847,0,0,0,.8-.486l1.049-3.918C199.427,443.579,198.9,443.146,198.167,443.146Zm-28.376-2.117a.428.428,0,0,0-.341-.133h-1.541c-.006.029-.047.157-.056.181a.774.774,0,0,1,.269.624,1.314,1.314,0,0,1-.04.282l0,0-.486,1.8h-.011a1,1,0,0,0-1.085-.632c-1.543,0-1.956,1.706-2.255,2.818s-.827,2.891.759,2.891a1.76,1.76,0,0,0,1.489-.716h.01l-.151.607h.8a.837.837,0,0,0,.793-.486l1.832-6.835.051-.193a.262.262,0,0,0,.009-.065A.229.229,0,0,0,169.791,441.028Zm-3.913,6.877c-.559,0-.491-.574-.117-1.953.291-1.1.485-1.86,1.148-1.86.63,0,.41.76.123,1.86C166.659,447.331,166.4,447.905,165.878,447.905Zm25.66-6.877a.415.415,0,0,0-.339-.133H189.66c-.01.029-.049.157-.056.181a.771.771,0,0,1,.265.624,1.085,1.085,0,0,1-.038.282v0l-.481,1.8h-.015a1,1,0,0,0-1.085-.632c-1.548,0-1.958,1.706-2.258,2.818s-.826,2.891.761,2.891a1.766,1.766,0,0,0,1.489-.716h.007l-.152.607h.8a.848.848,0,0,0,.8-.486l1.828-6.835.051-.193a.271.271,0,0,0,.011-.065A.232.232,0,0,0,191.537,441.028Zm-3.913,6.877c-.556,0-.489-.574-.118-1.953.29-1.1.485-1.86,1.149-1.86.629,0,.415.76.123,1.86C188.407,447.331,188.148,447.905,187.625,447.905Zm44.973-1.962c.4-1.5.96-2.786,2.984-2.786s1.9,1.283,1.5,2.786c-.467,1.72-1.044,2.924-3.026,2.924S232.132,447.663,232.6,445.943Zm2.976-.088c.3-1.142.4-1.72-.255-1.72s-.858.578-1.16,1.72c-.453,1.678-.407,2.029.159,2.029S235.119,447.533,235.573,445.855Zm5.485.088c.4-1.5.96-2.786,2.983-2.786s1.9,1.283,1.5,2.786c-.468,1.72-1.048,2.924-3.027,2.924S240.592,447.663,241.059,445.943Zm2.971-.088c.307-1.142.4-1.72-.252-1.72s-.857.578-1.161,1.72c-.45,1.678-.407,2.029.158,2.029S243.578,447.533,244.03,445.855Zm-30.2-2.7c-2.021,0-2.582,1.283-2.981,2.786-.468,1.72-.525,2.924,1.456,2.924a2.871,2.871,0,0,0,1.758-.531,2.537,2.537,0,0,0,.786-.955,1.115,1.115,0,0,0,.043-.131.385.385,0,0,0,.007-.068.245.245,0,0,0-.044-.138.44.44,0,0,0-.343-.134h-1.034c-.121.462-.371.975-.913.975-.676,0-.435-.975-.258-1.626h2.737a.289.289,0,0,0,.25-.178C215.776,444.408,215.83,443.157,213.833,443.157Zm.117,2.241h-1.406c.127-.466.336-1.294,1.038-1.294C214.314,444.1,214.086,444.865,213.95,445.4Zm25.257,2.87,1.829-6.83.05-.2a.174.174,0,0,0,.009-.06.194.194,0,0,0-.044-.138.421.421,0,0,0-.342-.136H239.18c-.008.029-.049.159-.057.183a.762.762,0,0,1,.268.623,1.16,1.16,0,0,1-.037.282v-.006l-1.813,6.77h.87A.839.839,0,0,0,239.206,448.268Zm13.8,2.094.161-.3h0l3.551-6.467c.007-.021.014-.039.021-.056a.176.176,0,0,0-.007-.136.313.313,0,0,0-.3-.138H255.02c-.011.024-.067.138-.078.157a.558.558,0,0,1,.114.537,1.373,1.373,0,0,1-.086.243l-1.407,2.925h-.02l.226-3.527c0-.021,0-.043,0-.062a.269.269,0,0,0-.074-.136.512.512,0,0,0-.367-.138H252c0,.024,0,.138,0,.157a.653.653,0,0,1,.258.529c.006.079.014.166.014.251l0,4.6-1.137,2.029h.956A1.175,1.175,0,0,0,253.007,450.363Zm-22.124-7.206a1.933,1.933,0,0,0-.787.154,1.958,1.958,0,0,0-.662.484l.006-.011.051-.194a.354.354,0,0,0,.011-.061.227.227,0,0,0-.048-.139.43.43,0,0,0-.344-.136h-1.528a1.718,1.718,0,0,1-.056.181.774.774,0,0,1,.269.622,1.228,1.228,0,0,1-.037.284v0l-1.222,4.421h.869a.841.841,0,0,0,.795-.49l1.01-3.665a.714.714,0,0,1,.683-.5c.49,0,.482.379.344.869l-1.013,3.785h.871a.83.83,0,0,0,.788-.49l1.053-3.913C232.142,443.593,231.614,443.157,230.883,443.157Zm-20.044.723c.057-.211.12-.467.158-.613h-.791s.352-1.294.372-1.358-.059-.153-.131-.125-1.54.612-1.54.612l-.236.871h-.616s-.18.673-.2.765a.143.143,0,0,0,.121.182h.453l-.909,3.379c-.093.343-.152,1.22,1.172,1.22.067,0,.126,0,.186,0a.861.861,0,0,0,.719-.418l.155-.575a1.328,1.328,0,0,1-.277.018c-.5,0-.42-.27-.305-.686l.791-2.934h.268A.738.738,0,0,0,210.839,443.88Zm9.6,3.215c0-.034.011-.069.011-.088a.23.23,0,0,0-.044-.136.419.419,0,0,0-.34-.138h-1.037c-.189.717-.543,1.15-1.02,1.15-.566,0-.612-.351-.159-2.029.3-1.142.51-1.72,1.162-1.72.477,0,.614.273.4,1.09h1.326a.293.293,0,0,0,.247-.17c.29-1.317-.35-1.9-1.708-1.9-2.024,0-2.587,1.283-2.983,2.786-.467,1.72-.527,2.924,1.456,2.924a2.582,2.582,0,0,0,2.66-1.679C220.418,447.15,220.429,447.121,220.436,447.1Zm5.012-3.938a1.857,1.857,0,0,0-1.474.664h-.019l.642-2.383.047-.2a.149.149,0,0,0,.011-.06.215.215,0,0,0-.046-.138.419.419,0,0,0-.341-.136h-1.531a1.869,1.869,0,0,1-.059.183.76.76,0,0,1,.272.623,1.54,1.54,0,0,1-.039.282v-.006l-1.813,6.77h.869a.843.843,0,0,0,.8-.49l.883-3.295c.136-.49.322-.869.812-.869s.477.379.34.869l-1.016,3.785h.868a.836.836,0,0,0,.8-.49l1.053-3.913C226.7,443.593,226.18,443.157,225.448,443.157Zm25.979.384a.211.211,0,0,0-.041-.136.424.424,0,0,0-.343-.138h-.988l-.169.641h-.021a.919.919,0,0,0-1.033-.751c-1.6,0-2.035,1.534-2.353,2.742-.33,1.239-.828,2.782.857,2.782a1.709,1.709,0,0,0,1.344-.644h.019l-.287,1.06c-.137.554-.421.913-.8.913-.238,0-.4-.077-.45-.218a.747.747,0,0,1,.016-.556h-1.5c-.325,1.339.572,1.634,1.714,1.634a2.4,2.4,0,0,0,2.594-1.884l1.439-5.38A.362.362,0,0,0,251.426,443.541ZM249.25,446c-.314,1.162-.545,1.739-1.1,1.739-.739,0-.39-1.04-.253-1.556.452-1.673.658-2.074,1.235-2.074S249.576,444.791,249.25,446Z" transform="translate(-132.405 -440.895)"/>
    </g>
    <g id="그룹_6708" data-name="그룹 6708" transform="translate(263.164 424.554)">
      <g id="그룹_6707" data-name="그룹 6707" transform="translate(30.982)">
        <path id="패스_7917" data-name="패스 7917" class="cls-4" d="M372.591,438.648a1.542,1.542,0,0,0-1.232-.492l-7.717,0c-.02.084-.14.475-.159.551a2.29,2.29,0,0,1,.8,1.855,3.7,3.7,0,0,1-.116.846l-4.347,16.243h5.667a3,3,0,0,0,2.856-1.781l4.376-16.5a.857.857,0,0,0,.032-.227A.783.783,0,0,0,372.591,438.648Z" transform="translate(-359.823 -428.449)"/>
        <path id="패스_7918" data-name="패스 7918" class="cls-4" d="M424.468,438.154l-1.155,4.152h7.165l-4.118,15.343h5.667a3,3,0,0,0,2.859-1.781l3.594-13.562h6.867a1.627,1.627,0,0,0,1.466-1.132l.8-3.021Z" transform="translate(-378.008 -428.449)"/>
        <path id="패스_7919" data-name="패스 7919" class="cls-5" d="M421.486,424.554a13.062,13.062,0,0,1,.217,2.148,12.3,12.3,0,0,1-3.526,8.739c-.161.169-.071.291.131.191,5.563-2.815,9.538-6.672,11.432-11.078Z" transform="translate(-376.513 -424.554)"/>
        <path id="패스_7920" data-name="패스 7920" class="cls-4" d="M398.408,436.667a54.106,54.106,0,0,0-10.192,1.122c-.089.328-.873,3.253-1.1,4.1a33.323,33.323,0,0,1,8.928-1.413v0c1.939-.015,3.006.2,3.678.757a1.452,1.452,0,0,1,.348.436,26.707,26.707,0,0,0,6.911-2.6v0a5.912,5.912,0,0,0-2.062-1.412A15.568,15.568,0,0,0,398.408,436.667Z" transform="translate(-367.639 -428.023)"/>
        <path id="패스_7921" data-name="패스 7921" class="cls-4" d="M406.081,442.108a2.65,2.65,0,0,0-.22-.563,26.526,26.526,0,0,1-6.688,3.566,48.057,48.057,0,0,1-6.962,2.039s-2.949.609-5.049,1.15c-2.176.558-5.453,1.708-6.245,4.369a5.171,5.171,0,0,0,.543,4.376c1.443,1.8,4.347,2.66,9.478,2.6a52.931,52.931,0,0,0,9.929-1.291,3.058,3.058,0,0,0,2.407-2.341l2.734-10.442a8.716,8.716,0,0,0,.3-2.025A4.734,4.734,0,0,0,406.081,442.108Zm-10.495,12.84a1.257,1.257,0,0,1-.941.858,11.58,11.58,0,0,1-2.371.34c-1.959.016-3.056-.394-3.723-1.214a2.36,2.36,0,0,1-.412-2.06v0c.482-2.2,2.922-3.522,8.7-4.426l.5-.083Z" transform="translate(-365.795 -429.42)"/>
      </g>
      <path id="패스_7922" data-name="패스 7922" class="cls-4" d="M332.984,447.93l-.42-.266s9.105-6.812,12.065-8.96l.142-.534h-7.385c-.172.114-9.7,7.326-9.7,7.326l1.619-6.106a.887.887,0,0,0,.031-.224.842.842,0,0,0-.164-.5,1.543,1.543,0,0,0-1.232-.489h-7.718c-.021.078-.139.474-.158.544a2.318,2.318,0,0,1,.8,1.857,3.6,3.6,0,0,1-.116.846L316.4,457.651h5.667a2.986,2.986,0,0,0,2.856-1.759l1.667-6.274.4.313a20.988,20.988,0,0,1,5.956,7.69h10.276A34.8,34.8,0,0,0,332.984,447.93Z" transform="translate(-316.405 -428.454)"/>
    </g>
    <g id="그룹_6714" data-name="그룹 6714" transform="translate(293.681 459.084)">
      <g id="그룹_6713" data-name="그룹 6713">
        <path id="패스_7923" data-name="패스 7923" class="cls-6" d="M362.779,474.421h2.208v.948h-1.464a2.328,2.328,0,0,1,1.065,1.893,2.492,2.492,0,0,1-4.982,0,2.4,2.4,0,0,1,1.042-1.893h-1.476v-.948h2.265v-1.194h1.343Zm.649,2.794a1.345,1.345,0,1,0-2.675,0,1.342,1.342,0,1,0,2.675,0Zm3.678-.746h1.334v.994h-1.334v3.776h-1.237v-7.727h1.237Z" transform="translate(-359.171 -473.024)"/>
        <path id="패스_7924" data-name="패스 7924" class="cls-6" d="M378.664,478.11a13.089,13.089,0,0,0,.377-2.993h-4.608v-1h5.916a19.313,19.313,0,0,1-.437,3.989h2v.946h-3.79v1.727h2.316v3.669h-1.249v-2.711h-4.858v-.958h2.47v-1.727h-3.826v-.946Z" transform="translate(-363.124 -473.28)"/>
        <g id="그룹_6709" data-name="그룹 6709" transform="translate(21.817 0.487)">
          <path id="패스_7925" data-name="패스 7925" class="cls-6" d="M391,485.923V483.3h-1.25v3.6H395.7v-.982Z" transform="translate(-389.745 -476.396)"/>
          <path id="패스_7926" data-name="패스 7926" class="cls-6" d="M397.261,476.582v-2.957h-1.238v7.727h1.238v-3.776h1.332v-.994Z" transform="translate(-391.543 -473.625)"/>
        </g>
        <path id="패스_7927" data-name="패스 7927" class="cls-6" d="M423.454,484.141v-10.5H424.7v10.5Z" transform="translate(-377.583 -473.143)"/>
        <path id="패스_7928" data-name="패스 7928" class="cls-6" d="M430.917,480.672h-4.055v-.91h9.4v.91h-4.029v.97h2.57v2.545h-5.189v.8h5.391v.909h-6.722v-2.555h5.2v-.8h-5.2v-.9h2.631Z" transform="translate(-378.559 -474.896)"/>
        <path id="패스_7929" data-name="패스 7929" class="cls-6" d="M459.93,473.891h2.637v.911h-1.445a1.657,1.657,0,0,1,.579,1.242,2.468,2.468,0,0,1-4.886,0,1.713,1.713,0,0,1,.555-1.242h-1.43v-.911h2.645v-.948h1.344Zm.56,2.152a1.238,1.238,0,1,0-1.242,1.232A1.24,1.24,0,0,0,460.491,476.044Zm-1.237,4.029a2.27,2.27,0,1,1-2.737,2.223A2.535,2.535,0,0,1,459.254,480.072Zm-.021,3.586a1.478,1.478,0,0,0,1.559-1.364,1.426,1.426,0,0,0-1.519-1.355,1.488,1.488,0,0,0-1.559,1.355A1.452,1.452,0,0,0,459.233,483.659Zm-4.5-4.027v-.913h9.033v.913Z" transform="translate(-386.543 -472.943)"/>
        <g id="그룹_6710" data-name="그룹 6710" transform="translate(61.105 0.487)">
          <path id="패스_7930" data-name="패스 7930" class="cls-6" d="M446.05,485.923V483.3H444.8v3.6h5.992v-.982Z" transform="translate(-444.802 -476.396)"/>
          <rect id="사각형_2299" data-name="사각형 2299" class="cls-6" width="1.237" height="7.727" transform="translate(4.515)"/>
        </g>
        <g id="그룹_6711" data-name="그룹 6711" transform="translate(2.219 7.39)">
          <path id="패스_7931" data-name="패스 7931" class="cls-6" d="M363.529,485.923V483.3H362.28v3.6h5.956v-.982Z" transform="translate(-362.28 -483.3)"/>
        </g>
        <path id="패스_7932" data-name="패스 7932" class="cls-6" d="M390.138,474.534v-.579h-1.367v.579a4.74,4.74,0,0,1-2.417,4.545l.666.73a6.237,6.237,0,0,0,2.435-2.538,6.241,6.241,0,0,0,2.435,2.538l.667-.73A4.74,4.74,0,0,1,390.138,474.534Z" transform="translate(-366.957 -473.233)"/>
        <path id="패스_7933" data-name="패스 7933" class="cls-6" d="M432.7,473.793v-.248h-1.392v.248c0,2.018-2.914,2.921-2.914,2.921l.571.792A7.315,7.315,0,0,0,432,475.44a7.337,7.337,0,0,0,3.037,2.067l.574-.792S432.7,475.811,432.7,473.793Z" transform="translate(-378.998 -473.115)"/>
        <path id="패스_7934" data-name="패스 7934" class="cls-6" d="M444.777,475.519c.007-.09.013-.181.016-.273h1.814v-.96H441.6v.96h1.815c0,.093.008.183.015.273a4.249,4.249,0,0,1-2.3,3.714l.746.769a5.9,5.9,0,0,0,2.224-2.24,5.893,5.893,0,0,0,2.224,2.24l.745-.769A4.249,4.249,0,0,1,444.777,475.519Z" transform="translate(-382.646 -473.327)"/>
        <path id="패스_7935" data-name="패스 7935" class="cls-6" d="M405.8,476.63a2.58,2.58,0,1,0-2.579,2.57A2.589,2.589,0,0,0,405.8,476.63Zm-3.947,0a1.378,1.378,0,1,1,1.368,1.551A1.468,1.468,0,0,1,401.85,476.63Z" transform="translate(-371.048 -473.264)"/>
        <path id="패스_7936" data-name="패스 7936" class="cls-6" d="M408.59,483.581h-3.375v-1.136h-1.249v4.215h5.873v-4.215H408.59Zm0,2.132h-3.375v-1.208h3.375Z" transform="translate(-372.001 -475.665)"/>
        <path id="패스_7937" data-name="패스 7937" class="cls-6" d="M409.481,473.648v2.379h-2.443v1.006h2.443v2.378h1.238v-5.763Z" transform="translate(-372.881 -473.145)"/>
        <path id="패스_7938" data-name="패스 7938" class="cls-6" d="M414.637,474.959v.981h3.512a7.646,7.646,0,0,1-3.889,6.422l.7.714a8.364,8.364,0,0,0,4.528-7.629v-.488Z" transform="translate(-374.949 -473.52)"/>
        <g id="그룹_6712" data-name="그룹 6712" transform="translate(78.08 0.498)">
          <path id="패스_7939" data-name="패스 7939" class="cls-6" d="M472.219,482.736v-1.492c1.221-.059,2.3-.155,2.949-.248v-.887c-1.028.117-3.46.27-4.9.27H468.59v.913l2.089-.014h.268v1.456Z" transform="translate(-468.59 -475.493)"/>
          <path id="패스_7940" data-name="패스 7940" class="cls-6" d="M473.159,486.286v-1.717h-1.247v2.7h6.206v-.982Z" transform="translate(-469.541 -476.771)"/>
          <path id="패스_7941" data-name="패스 7941" class="cls-6" d="M478.922,473.641h-1.237v6.143h-2.124v.9h2.124v.978h1.237v-8.022Z" transform="translate(-470.587 -473.641)"/>
          <path id="패스_7942" data-name="패스 7942" class="cls-6" d="M471.829,478.2a2.282,2.282,0,1,0-2.486-2.273A2.406,2.406,0,0,0,471.829,478.2Zm0-3.635a1.35,1.35,0,1,1-1.3,1.35A1.344,1.344,0,0,1,471.829,474.568Z" transform="translate(-468.806 -473.645)"/>
        </g>
      </g>
    </g>
  </g>
</svg>
