<svg xmlns="http://www.w3.org/2000/svg" width="167.619" height="49.591" viewBox="0 0 167.619 49.591">
    <defs>
        <style>
            .cls-3{fill:#474645}
        </style>
    </defs>
    <g id="partners_logo12" transform="translate(-48.613 -79.767)">
        <path id="패스_6188" data-name="패스 6188" d="M86.9 103.433a8.941 8.941 0 0 0-12.718 2.67A8.95 8.95 0 0 1 58 103.642l-.025-.093c-.009-.038-.021-.075-.03-.114a11.482 11.482 0 0 1-.457-3.555c0-8.021 8.226-16.95 20.08-16.95 12.136 0 19.079 9.239 20.868 14.374-.03-.09-.058-.18-.09-.273a25.559 25.559 0 0 0-49.734 8.291c0 12.615 9.1 23.415 21.721 23.415 10.066 0 16.832-5.646 19.935-13.423a9.85 9.85 0 0 0-3.368-11.881" style="fill:#002a56"/>
        <path id="패스_6189" data-name="패스 6189" d="M98.6 97.8c-1.495-5.007-8.492-14.87-21.031-14.87-11.854 0-20.08 8.929-20.08 16.949a11.485 11.485 0 0 0 .457 3.556 7.543 7.543 0 0 1-.235-1.823c0-8.353 8.364-14.141 16.96-14.141a21.072 21.072 0 0 1 21.071 21.07 23.224 23.224 0 0 1-12.877 20.811v.006a25.564 25.564 0 0 0 16.855-24.036A25.21 25.21 0 0 0 98.6 97.8" style="fill:#dc0021"/>
        <path id="패스_6190" data-name="패스 6190" class="cls-3" d="M129.534 108.473v7.12h-2.542v-4.9h-13.44v-2.22h6.848v-3h-8.13v-2.22h18.776v2.22h-8.127v3zm0-12.936v6.09h-2.542V97.78h-13.21v-2.243z"/>
        <path id="패스_6191" data-name="패스 6191" class="cls-3" d="M150.942 108.107H144.3v3.709h8.128v2.22h-18.773v-2.22h8.1v-3.709h-6.593V96.155H150.9v2.22h-13.238v2.656H150.9v2.175h-13.238v2.679h13.28z"/>
        <path id="패스_6192" data-name="패스 6192" class="cls-3" d="M159.5 111.815v-6.342h2.4v6.342h3.412v-6.342h2.427v6.342h6.067v2.222h-18.765v-2.222zm10.256-3.594v-9.8H156.55v-2.266h15.75v12.066z"/>
        <path id="패스_6193" data-name="패스 6193" class="cls-3" d="M194.964 106.8H176.19v-2.084h8.127v-1.326H177.7v-8.037h15.728v2.084h-13.254v1.008h13.255v1.9h-13.255v1.03h13.3v2.015h-6.662v1.328h8.151zm-4.373 5.014a4.2 4.2 0 0 1-.4 1.808 4.806 4.806 0 0 1-1.066 1.466 5.352 5.352 0 0 1-1.58 1.019 4.883 4.883 0 0 1-1.923.378 4.964 4.964 0 0 1-1.935-.378 5.334 5.334 0 0 1-1.592-1.019 4.73 4.73 0 0 1-1.062-1.466 4.15 4.15 0 0 1-.4-1.808 4.085 4.085 0 0 1 .4-1.8 4.773 4.773 0 0 1 1.062-1.454 5.354 5.354 0 0 1 1.592-1.019 4.964 4.964 0 0 1 1.935-.378 4.883 4.883 0 0 1 1.923.378 5.372 5.372 0 0 1 1.58 1.019 4.852 4.852 0 0 1 1.066 1.454 4.138 4.138 0 0 1 .4 1.8m-2.449-.024a2.448 2.448 0 0 0-.733-1.774 2.413 2.413 0 0 0-1.786-.744 2.544 2.544 0 0 0-2.542 2.518 2.383 2.383 0 0 0 .746 1.764 2.467 2.467 0 0 0 1.8.733 2.434 2.434 0 0 0 1.786-.733 2.409 2.409 0 0 0 .733-1.764"/>
        <path id="패스_6194" data-name="패스 6194" class="cls-3" d="M197.459 108.024h18.773v2.243H208.1v5.266h-2.542v-5.266h-8.1zm4.005-9.983H212.2v-2.587h2.518v9.822h-15.75v-9.822h2.5zm10.74 2.2h-10.74v2.816H212.2z"/>
    </g>
</svg>
