<svg xmlns="http://www.w3.org/2000/svg" width="182.605" height="52.259" viewBox="0 0 182.605 52.259">
  <defs>
    <style>
      .cls-1 {
        fill: #dd190a;
      }

      .cls-2, .cls-3 {
        fill: #161615;
      }

      .cls-3 {
        stroke: #161615;
        stroke-width: 0.25px;
      }
    </style>
  </defs>
  <g id="그룹_6908" data-name="그룹 6908" transform="translate(-190.773 -332.273)">
    <path id="패스_9066" data-name="패스 9066" class="cls-1" d="M222.635,368.435c11.961-2.384,18.648,4.417,22.131,10.427a26.6,26.6,0,0,0,2.376-17.087c-26.509-4.665-34.873,15.872-37.489,28.008a25.31,25.31,0,0,0,30.526-4.518c-5.226-16.482-17.544-16.831-17.544-16.831Z" transform="translate(-5.539 -8.456)"/>
    <path id="패스_9067" data-name="패스 9067" class="cls-1" d="M233.05,338.5a34.634,34.634,0,0,1-11.089,12.022c3.6-4.419,5.385-10.677,6.262-15.327a25.173,25.173,0,0,0-11.791-2.918,25.53,25.53,0,0,0-21.567,11.968c3.721,3.226,12.113,8.586,25.77,7.177,0,0-14.658,2.622-28.6-1.114a26.527,26.527,0,0,0,5.532,25.8c7.411-25.214,36.336-26.727,42.95-26.74A26.18,26.18,0,0,0,233.05,338.5Zm-17.442,11.446a4.325,4.325,0,1,1,4.294-4.326,4.31,4.31,0,0,1-4.294,4.326Z" transform="translate(0)"/>
    <path id="패스_9068" data-name="패스 9068" class="cls-2" d="M425.7,346.806a9.3,9.3,0,0,0,1.839,5.816c1.225,1.607,3.643,2.436,5.226,2.728l-1.9,1.675a10.225,10.225,0,0,1-4.8-1.488,6.255,6.255,0,0,1-2.347-3.083,5.848,5.848,0,0,1-2.311,3.07,9.858,9.858,0,0,1-4.629,1.441l-1.931-1.677a8.349,8.349,0,0,0,5.062-2.68,9.373,9.373,0,0,0,1.825-5.8v-2.758c0-.483.035-1.79,0-1.806H425.7c-.018.016,0,1.324,0,1.806v2.758Zm7.54-5.079h3.911c-.035.018-.035,23.691,0,23.725h-3.911c.033-.034.033-23.707,0-23.725Z" transform="translate(-65.733 -2.773)"/>
    <path id="패스_9069" data-name="패스 9069" class="cls-2" d="M321.817,344.757s-6.871-.018-6.888,0v-2.191h17.74v2.191c-.018-.018-6.887,0-6.887,0v.155q0,2.581,2.779,4.553a9.967,9.967,0,0,0,5.752,2l-2.082,1.8a11.644,11.644,0,0,1-4.922-1.353,6.908,6.908,0,0,1-3.508-2.9,6.664,6.664,0,0,1-3.484,2.916,12.547,12.547,0,0,1-5.178,1.21l-1.853-1.675a9.989,9.989,0,0,0,5.765-1.986q2.767-1.96,2.767-4.565v-.155Zm.025,12.457H312.58v-2.192c.034.015,20.792,0,20.792,0,.4,0,1.627.015,1.646,0v2.192h-9.263s-.035,8.191,0,8.227h-3.913c.035-.035,0-8.227,0-8.227Z" transform="translate(-35.733 -3.02)"/>
    <path id="패스_9070" data-name="패스 9070" class="cls-2" d="M393.314,353.345a6.851,6.851,0,0,0,2.205-1.483H400.5v2.759h3.912s-.033-12.876,0-12.894H400.5c.034.018,0,2.269,0,2.269h-4.775a6.157,6.157,0,0,0-2.243-1.663,7.076,7.076,0,0,0-2.922-.606,6.688,6.688,0,0,0-4.683,1.779,5.729,5.729,0,0,0,0,8.6,6.658,6.658,0,0,0,4.683,1.792,6.92,6.92,0,0,0,2.751-.553Zm3.836-6.382a4.923,4.923,0,0,0-.2-.8H400.5V349.7h-3.627a4.023,4.023,0,0,0,.261-.915,6.04,6.04,0,0,0,.078-.968,5.634,5.634,0,0,0-.064-.849Zm-8.492,3.6a5.062,5.062,0,0,1,0-5.493,2.174,2.174,0,0,1,3.834,0,5.073,5.073,0,0,1,0,5.493,2.176,2.176,0,0,1-3.834,0Z" transform="translate(-56.666 -2.773)"/>
    <path id="패스_9071" data-name="패스 9071" class="cls-2" d="M405.712,365.022a2.593,2.593,0,0,0-2.605-2.494H388.367v2.193c.017-.035,13.435,0,13.435,0s.034,6.8,0,6.835h3.912c-.01-.023-.006-3.868,0-6.531Z" transform="translate(-57.966 -8.876)"/>
    <path id="패스_9072" data-name="패스 9072" class="cls-2" d="M357.5,344.649v2.914a20.013,20.013,0,0,1-.1,2.037,6.269,6.269,0,0,1-.418,1.755h3.391a3.9,3.9,0,0,0,.73-1.638,8.9,8.9,0,0,0,.312-2.257v-2.424a2.593,2.593,0,0,0-2.609-2.579H348.4v2.193c.018-.017,9.1,0,9.1,0Z" transform="translate(-46.241 -2.987)"/>
    <path id="패스_9073" data-name="패스 9073" class="cls-2" d="M366.933,346.445s-.035-4.7,0-4.718H363.02c.035.018,0,9.877,0,9.877a10.946,10.946,0,0,1-1.84.437,15.624,15.624,0,0,1-2.518.182h-4.2s-.018-5.167,0-5.184h-3.7c.033.017,0,5.184,0,5.184s-3.617.017-3.651,0v2.192h11.4a11.28,11.28,0,0,0,2.505-.271,9.562,9.562,0,0,0,2.01-.657v2.14h3.913v-6.989s3.9-.016,3.913,0v-2.193c-.017.018-3.913,0-3.913,0Z" transform="translate(-45.862 -2.773)"/>
    <path id="패스_9074" data-name="패스 9074" class="cls-2" d="M367.235,362.553a8.752,8.752,0,0,0-10.106,0,4.724,4.724,0,0,0,0,7.842,8.708,8.708,0,0,0,10.106,0,4.723,4.723,0,0,0,0-7.842Zm-3.371,6.239a3.115,3.115,0,0,1-4.554,0,3.192,3.192,0,0,1-.938-2.266,3.266,3.266,0,0,1,.938-2.3,3.084,3.084,0,0,1,4.554,0,3.271,3.271,0,0,1,.937,2.3,3.2,3.2,0,0,1-.937,2.266Z" transform="translate(-48.189 -8.412)"/>
    <path id="패스_9075" data-name="패스 9075" class="cls-2" d="M290.151,344.356v2.914a20,20,0,0,1-.1,2.037,6.255,6.255,0,0,1-.419,1.754h3.392a3.882,3.882,0,0,0,.731-1.637,8.935,8.935,0,0,0,.312-2.256v-2.424a2.594,2.594,0,0,0-2.609-2.579H281.362v2.191c.018-.016,8.789,0,8.789,0Z" transform="translate(-26.575 -2.902)"/>
    <path id="패스_9076" data-name="패스 9076" class="cls-2" d="M299.584,346.154s-.035-4.7,0-4.72H295.67c.035.018,0,9.877,0,9.877a11.127,11.127,0,0,1-1.84.439,15.9,15.9,0,0,1-2.518.18h-4.2s-.017-5.166,0-5.183h-3.7c.034.017,0,5.183,0,5.183s-3.3.018-3.337,0v2.193h11.086a11.362,11.362,0,0,0,2.5-.271,9.731,9.731,0,0,0,2.01-.659v2.142h3.913v-6.99s3.894-.015,3.913,0v-2.192c-.019.016-3.913,0-3.913,0Z" transform="translate(-26.196 -2.687)"/>
    <path id="패스_9077" data-name="패스 9077" class="cls-2" d="M299.08,362.258a8.751,8.751,0,0,0-10.106,0,4.725,4.725,0,0,0,0,7.843,8.71,8.71,0,0,0,10.106,0,4.723,4.723,0,0,0,0-7.843Zm-2.894,6.24a3.114,3.114,0,0,1-4.554,0,3.2,3.2,0,0,1-.938-2.266,3.27,3.27,0,0,1,.938-2.3,3.086,3.086,0,0,1,4.554,0,3.27,3.27,0,0,1,.938,2.3,3.2,3.2,0,0,1-.938,2.266Z" transform="translate(-28.195 -8.325)"/>
    <path id="패스_9078" data-name="패스 9078" class="cls-2" d="M299.951,393.142l-2.788-11.768H299.6l1.764,8.085,2.149-8.085h2.852l2.035,8.221,1.8-8.221h2.39l-2.829,11.768H307.2l-2.308-8.8-2.341,8.8Z" transform="translate(-31.21 -14.404)"/>
    <path id="패스_9079" data-name="패스 9079" class="cls-2" d="M321.507,388.66l1.595-4.371,1.639,4.371Zm2.981-7.112h-2.51L317.4,393.314h2.523l.972-2.668h4.733l1.012,2.668h2.566l-4.718-11.766Z" transform="translate(-37.147 -14.455)"/>
    <path id="패스_9080" data-name="패스 9080" class="cls-2" d="M335.513,393.314V381.548h2.308l4.837,7.885v-7.885h2.2v11.767h-2.38l-4.766-7.729v7.729Z" transform="translate(-42.461 -14.455)"/>
    <path id="패스_9081" data-name="패스 9081" class="cls-2" d="M356.3,388.91v-1.988h5.123v4.7a6.409,6.409,0,0,1-2.162,1.27,7.875,7.875,0,0,1-2.867.547,6.4,6.4,0,0,1-3.218-.777,4.928,4.928,0,0,1-2.062-2.219,7.2,7.2,0,0,1-.69-3.142,6.824,6.824,0,0,1,.769-3.275,5.181,5.181,0,0,1,2.253-2.2,6.038,6.038,0,0,1,2.812-.589,5.651,5.651,0,0,1,3.419.912,4.141,4.141,0,0,1,1.584,2.528l-2.366.448a2.477,2.477,0,0,0-.931-1.363,2.812,2.812,0,0,0-1.707-.5,3.192,3.192,0,0,0-2.465.991,4.2,4.2,0,0,0-.914,2.945,4.667,4.667,0,0,0,.928,3.161,3.09,3.09,0,0,0,2.436,1.052,4.057,4.057,0,0,0,1.493-.294,5.08,5.08,0,0,0,1.287-.714v-1.5Z" transform="translate(-46.837 -14.366)"/>
    <path id="패스_9082" data-name="패스 9082" class="cls-2" d="M286.775,388.91v-1.988H291.9v4.7a6.392,6.392,0,0,1-2.161,1.27,7.876,7.876,0,0,1-2.868.547,6.4,6.4,0,0,1-3.218-.777,4.936,4.936,0,0,1-2.062-2.219,7.2,7.2,0,0,1-.69-3.142,6.817,6.817,0,0,1,.77-3.275,5.171,5.171,0,0,1,2.254-2.2,6.032,6.032,0,0,1,2.812-.589,5.65,5.65,0,0,1,3.418.912,4.137,4.137,0,0,1,1.584,2.528l-2.366.448a2.469,2.469,0,0,0-.931-1.363,2.8,2.8,0,0,0-1.705-.5,3.2,3.2,0,0,0-2.467.991,4.215,4.215,0,0,0-.914,2.945,4.663,4.663,0,0,0,.929,3.161,3.089,3.089,0,0,0,2.436,1.052,4.069,4.069,0,0,0,1.494-.294,5.07,5.07,0,0,0,1.286-.714v-1.5Z" transform="translate(-26.439 -14.366)"/>
    <path id="패스_9083" data-name="패스 9083" class="cls-2" d="M372.778,381.548h2.381v7.459a7.606,7.606,0,0,1-.256,2.251,3.2,3.2,0,0,1-1.254,1.65,4.161,4.161,0,0,1-2.4.622,3.545,3.545,0,0,1-2.685-.983,4.042,4.042,0,0,1-.95-2.885l2.256-.251a3.235,3.235,0,0,0,.3,1.451,1.263,1.263,0,0,0,1.165.644,1.287,1.287,0,0,0,1.116-.453,3.614,3.614,0,0,0,.327-1.889v-7.617Z" transform="translate(-51.879 -14.455)"/>
    <path id="패스_9084" data-name="패스 9084" class="cls-2" d="M381.378,381.548h2.381v6.389a13.27,13.27,0,0,0,.088,1.969,1.925,1.925,0,0,0,.721,1.162,2.49,2.49,0,0,0,1.56.438,2.359,2.359,0,0,0,1.514-.413,1.634,1.634,0,0,0,.616-1.017,13.232,13.232,0,0,0,.1-2v-6.524h2.382v6.189a16.079,16.079,0,0,1-.193,3,3.308,3.308,0,0,1-.71,1.478,3.565,3.565,0,0,1-1.382.961,6.019,6.019,0,0,1-2.261.356,6.463,6.463,0,0,1-2.551-.391,3.634,3.634,0,0,1-1.375-1.01,3.252,3.252,0,0,1-.664-1.306,14.367,14.367,0,0,1-.232-2.991v-6.285Z" transform="translate(-55.915 -14.455)"/>
    <path id="패스_9085" data-name="패스 9085" class="cls-3" d="M410.346,392.391a5.47,5.47,0,0,1-3.042.854,5.631,5.631,0,0,1-2.382-.51,5.736,5.736,0,0,1-1.965-1.452,6,6,0,0,1-1.082-1.843,6.447,6.447,0,0,1-.376-2.188,5.744,5.744,0,0,1,.451-2.263,5.983,5.983,0,0,1,1.322-1.948,5.614,5.614,0,0,1,4.047-1.648,5.441,5.441,0,0,1,3.087.888,6.053,6.053,0,0,1,2.158,2.671H410.2a3.564,3.564,0,0,0-1.274-1.124,3.776,3.776,0,0,0-1.618-.329,3.636,3.636,0,0,0-1.378.254,3.306,3.306,0,0,0-1.14.793,3.643,3.643,0,0,0-.854,1.257,3.868,3.868,0,0,0-.285,1.466,4.408,4.408,0,0,0,.255,1.511,3.9,3.9,0,0,0,1.994,2.081,3.417,3.417,0,0,0,1.408.3,3.353,3.353,0,0,0,2.8-1.379h2.473a6.5,6.5,0,0,1-2.233,2.608Z" transform="translate(-61.818 -14.41)"/>
    <path id="패스_9086" data-name="패스 9086" class="cls-3" d="M420.11,393.15V381.732h2.105V393.15Z" transform="translate(-67.278 -14.509)"/>
    <path id="패스_9087" data-name="패스 9087" class="cls-3" d="M427.81,393.147v-9.44h-2.218v-1.975h6.534v1.975h-2.232v9.44Z" transform="translate(-68.886 -14.509)"/>
    <path id="패스_9088" data-name="패스 9088" class="cls-3" d="M441.591,393.15h-2.105v-4.211l-3.506-7.208h2.353l2.237,4.885,2.206-4.885h2.337l-3.521,7.3v4.121Z" transform="translate(-71.933 -14.509)"/>
  </g>
</svg>
