<svg xmlns="http://www.w3.org/2000/svg" width="173.425" height="59.057" viewBox="0 0 173.425 59.057">
  <defs>
    <style>
      .cls-1 {
        fill: #817e76;
      }

      .cls-2 {
        fill: #de1a24;
      }

      .cls-3 {
        fill: #74090b;
      }
    </style>
  </defs>
  <g id="partners_logo17" transform="translate(-83.914 -197.41)">
    <g id="그룹_6453" data-name="그룹 6453" transform="translate(83.914 233.86)">
      <path id="패스_6345" data-name="패스 6345" class="cls-1" d="M155.962,310.016v0a18.749,18.749,0,0,1-4.385-.364c-.834-.229-1.269-.634-1.269-1.18,0,0,0,0,0,0h0v-3.659h-3.168v3.659A2.956,2.956,0,0,0,148.3,311c1.134.8,5.634,1.048,7.558,1.046h.1a37.649,37.649,0,0,0,6.922-.771v-2.022A32.774,32.774,0,0,1,155.962,310.016Zm6.732-19.444h-3.167v15.27h3.167Zm-6.3,9.959v-9.5H144.963v9.5a1.536,1.536,0,0,0,1.534,1.532h8.361A1.534,1.534,0,0,0,156.391,300.531Zm-3.166-.442h-5.1V293h5.1Z" transform="translate(-120.775 -290.111)"/>
      <path id="패스_6346" data-name="패스 6346" class="cls-1" d="M103.8,301.407v-1.972H83.914v1.972h8.565v3.064H85.872v1.972H98.666v5.93h3.167V306a1.532,1.532,0,0,0-1.529-1.527H95.647v-3.064Zm-5.082-5.241a12.878,12.878,0,0,1-.413,3.258l2.919.011a8.352,8.352,0,0,0,.66-3.27l0-.053v-2.844a1.534,1.534,0,0,0-1.534-1.533h-14.4v1.975H98.719Z" transform="translate(-83.914 -290.812)"/>
      <path id="패스_6347" data-name="패스 6347" class="cls-1" d="M317.689,302.423h0c-.012,0-.02-.007-.032-.008C317.669,302.416,317.677,302.422,317.689,302.423Zm4.9,6.8V304.63h.021l.152-.009a22.909,22.909,0,0,0,3.733-.518c.049-.013.1-.029.163-.04a2.013,2.013,0,0,0,1.857-2.08V291.736h-3.167v3.988H316.64v-3.988h-3.165v10.247a1.983,1.983,0,0,0,1.721,2.046,25.921,25.921,0,0,0,4.058.586l.171.01v4.6h-8.488V311.2h20.119v-1.975Zm-4.876-6.775h-.009a1.175,1.175,0,0,1-1.068-1.143.157.157,0,0,1,0-.031V297.7h8.708V301.3a1.181,1.181,0,0,1-1.081,1.148,22.332,22.332,0,0,1-6.553,0Z" transform="translate(-220.988 -290.814)"/>
      <path id="패스_6348" data-name="패스 6348" class="cls-1" d="M211.493,297.481h4.176v8.361h3.167v-15.27h-3.166v4.937h-3.76c.025-.245.043-.5.051-.757l.005-.176h.008v-2.01a1.536,1.536,0,0,0-1.534-1.534h-8.96v1.973H208.8v1.384a6.265,6.265,0,0,1-1.945,4.768,8.166,8.166,0,0,1-5.464,1.836v1.973a15.523,15.523,0,0,0,5.812-1.034A7.328,7.328,0,0,0,211.493,297.481Zm.611,12.535v0a18.758,18.758,0,0,1-4.386-.364c-.834-.229-1.269-.634-1.269-1.18v0h0v-3.659h-3.166v3.659A2.954,2.954,0,0,0,204.442,311c1.133.8,5.634,1.048,7.559,1.046h.1a37.653,37.653,0,0,0,6.922-.771v-2.022A32.786,32.786,0,0,1,212.1,310.016Z" transform="translate(-154.845 -290.111)"/>
      <path id="패스_6349" data-name="패스 6349" class="cls-1" d="M369.958,308.652a2,2,0,0,0,1.817,2.07,28.384,28.384,0,0,0,6.033.617,23.761,23.761,0,0,0,5.385-.54,1.532,1.532,0,0,1,.234-.067,2.009,2.009,0,0,0,1.856-2.078v-5.215H369.958Zm3.168-.7v-2.538h8.99v2.538c0,.011,0,.022,0,.034a1.2,1.2,0,0,1-1.155,1.16l-.031.007a20.506,20.506,0,0,1-3.122.216,26.7,26.7,0,0,1-3.52-.221,1.2,1.2,0,0,1-1.163-1.162A.186.186,0,0,1,373.126,307.95Zm8.99-18.08v5.793H379.65a4.746,4.746,0,0,0-1.507-2.3h1.846v-1.973h-4.627v-1.979H372.2v1.979h-4.629v1.973h1.885a4.626,4.626,0,0,0-1.67,3.547c0,2.77,2.462,5.016,6.026,5.016,3.26,0,5.572-1.864,5.961-4.287h2.348v4.126h3.166V289.869Zm-8.309,10.016a2.981,2.981,0,1,1,2.853-2.979A2.879,2.879,0,0,1,373.807,299.886Z" transform="translate(-255.182 -289.408)"/>
      <path id="패스_6350" data-name="패스 6350" class="cls-1" d="M266.916,294.571l.005-.178h.008v-1.826a1.535,1.535,0,0,0-1.534-1.534h-8.961V293h7.318v1.2c0,.006,0,.009,0,.011a5.744,5.744,0,0,1-1.95,4.588,8.615,8.615,0,0,1-5.458,1.647v1.974c.1,0,.216,0,.344,0h.018a14.776,14.776,0,0,0,6.009-1.1C264.9,300.3,266.785,298.374,266.916,294.571Zm6.419-.052v-3.947h-3.167v11.893h3.167v-5.973h2.81v-1.973Zm-7.113,8.281c-4.4,0-7.392,2.22-7.392,4.959s2.887,4.959,7.392,4.959,7.392-2.22,7.392-4.959S270.636,302.8,266.222,302.8Zm0,7.878c-2.4,0-4.012-1.306-4.012-2.919s1.586-2.918,4.012-2.918c2.384,0,4.013,1.306,4.013,2.918S268.706,310.678,266.222,310.678Z" transform="translate(-188.027 -290.111)"/>
    </g>
    <g id="그룹_6455" data-name="그룹 6455" transform="translate(216.076 197.41)">
      <path id="패스_6351" data-name="패스 6351" class="cls-2" d="M437.952,197.411c-11.272.1-20.56,8.345-20.467,18.979a18.231,18.231,0,0,0,7.654,14.3l-1.266,6.119c23.781,6.863,34.963-10.425,34.874-20.743C458.654,205.554,449.425,197.31,437.952,197.411Zm1.6,29.218-.051-2.135c-8.307-.023-11.946-5.221-11.982-9.441-.028-3.235,2.194-6.662,5.884-6.695a5.718,5.718,0,0,1,4.668,2.43,5.38,5.38,0,0,1,4.752-2.529c2.46-.022,5.769,2.046,5.811,6.836C448.67,219.6,445.424,224.533,439.55,226.629Z" transform="translate(-417.484 -197.41)"/>
      <g id="그룹_6454" data-name="그룹 6454" transform="translate(7.655 29.135)">
        <path id="패스_6352" data-name="패스 6352" class="cls-3" d="M451.408,279.182l-.192-8.154c-3.588,1.28-8.154,1.5-13.551-.084l-.86,4.149A22.48,22.48,0,0,0,451.408,279.182Z" transform="translate(-436.804 -270.945)"/>
      </g>
    </g>
    <g id="그룹_6456" data-name="그룹 6456" transform="translate(85.953 217.043)">
      <path id="패스_6353" data-name="패스 6353" class="cls-2" d="M125.134,264.979a1.4,1.4,0,1,0-1.4,1.4,1.4,1.4,0,0,0,1.4-1.4Z" transform="translate(-109.155 -256.998)"/>
      <path id="패스_6354" data-name="패스 6354" class="cls-2" d="M99.648,253.434c-.014-1.152-.49-2.17-2.477-2.181a6.049,6.049,0,0,0-4.388,2.17h0l1.045-5.253,0,.013a3.014,3.014,0,0,0,.07-.564c-.014-.432-.153-.638-.894-.655-1.012.013-1.294.37-1.444,1.066l-2.5,12.546h2.3l.741-3.724a4.426,4.426,0,0,0,.116-.489c.156-.695,2.177-3.5,4.005-3.524a.106.106,0,0,1,.023,0,.96.96,0,0,1,1.036,1.084,3.633,3.633,0,0,1-.071.643l-1.184,6.01h2.3l1.223-6.2A5,5,0,0,0,99.648,253.434Z" transform="translate(-89.06 -246.964)"/>
      <path id="패스_6355" data-name="패스 6355" class="cls-2" d="M149.411,257.784l0,0h-.018c-.878.006-1.23.306-1.392.651l-2.942,6.34-.589-6.386c-.057-.5-.26-.569-.484-.6h-.5a1.271,1.271,0,0,0-1.278.662l-2.937,6.326-.56-6.071c-.1-.823-.237-.893-1.044-.917-.891.016-1.067.339-1.083.9a2.239,2.239,0,0,0,.013.246l.826,8.177h2.366l2.831-5.88.593,5.88h2.366l4.312-8.955h0v0l.036-.073a.3.3,0,0,0,.032-.117C149.954,257.9,149.917,257.793,149.411,257.784Z" transform="translate(-117.752 -253.497)"/>
      <path id="패스_6356" data-name="패스 6356" class="cls-2" d="M173.844,263.066l.081.006s.483.04,1.167.039a7.689,7.689,0,0,0,3.712-.7,2.853,2.853,0,0,0,1.441-2.43c0-.074,0-.149-.008-.223-.071-.953-.97-1.968-3.237-1.974a5.13,5.13,0,0,0-5.4,4.594,7.987,7.987,0,0,0-.085,1.141c.01,2.375,1.227,3.587,3.742,3.724.155.008.3.011.446.011a7.086,7.086,0,0,0,1.136-.086l.1-.017h0a4.215,4.215,0,0,0,1.043-.32,4.491,4.491,0,0,0,1.261-.813l-.949-1.1a4.047,4.047,0,0,1-1.3.632,4.149,4.149,0,0,1-.958.1c-.127,0-.262,0-.405-.013a1.825,1.825,0,0,1-1.817-2.06,3.937,3.937,0,0,1,.024-.441Zm.2-1.25s.383-2.557,2.711-2.655l.107,0a1.41,1.41,0,0,1,1.088.384,1.025,1.025,0,0,1,.265.7c0,.026,0,.05,0,.077-.039.643-.391,1.615-3.252,1.615h-.075q-.355,0-.763-.019l-.092,0Z" transform="translate(-138.847 -253.499)"/>
      <path id="패스_6357" data-name="패스 6357" class="cls-2" d="M196.686,258.664l-.009.063a2.485,2.485,0,0,0-.027.353,1.535,1.535,0,0,0,.941,1.5,2.556,2.556,0,0,0,1.021.19,4.549,4.549,0,0,0,1.947-.486l-.3-1.215a2.218,2.218,0,0,1-.937.324.488.488,0,0,1-.354-.129.6.6,0,0,1-.144-.439,1.728,1.728,0,0,1,.04-.348l1.9-10.162s0-.011,0-.02a.549.549,0,0,1,.012-.116,3.159,3.159,0,0,0,.065-.565c-.015-.435-.142-.638-.831-.655-.845.009-1.135.3-1.3.846Z" transform="translate(-154.022 -246.964)"/>
      <path id="패스_6358" data-name="패스 6358" class="cls-2" d="M210.8,258.63l-.014.1a2.408,2.408,0,0,0-.027.357,1.53,1.53,0,0,0,.941,1.5,2.552,2.552,0,0,0,1.021.19,4.56,4.56,0,0,0,1.948-.486l-.3-1.215a2.209,2.209,0,0,1-.935.324.487.487,0,0,1-.355-.129.6.6,0,0,1-.145-.439,1.745,1.745,0,0,1,.04-.348l1.9-10.168a.752.752,0,0,1,.012-.13,3.283,3.283,0,0,0,.066-.565c-.015-.435-.143-.638-.833-.655-.843.009-1.134.3-1.295.846Z" transform="translate(-162.541 -246.964)"/>
    </g>
  </g>
</svg>
