<svg xmlns="http://www.w3.org/2000/svg" xmlns:xlink="http://www.w3.org/1999/xlink" width="223.046" height="55.608" viewBox="0 0 223.046 55.608">
  <defs>
    <style>
      .cls-1 {
        fill: url(#linear-gradient);
      }

      .cls-2 {
        fill: #585b5b;
      }
    </style>
    <linearGradient id="linear-gradient" x1="0.087" y1="0.5" x2="1" y2="0.5" gradientUnits="objectBoundingBox">
      <stop offset="0" stop-color="#b6c200"/>
      <stop offset="1" stop-color="#009a82"/>
    </linearGradient>
  </defs>
  <g id="그룹_6691" data-name="그룹 6691" transform="translate(-46.113 -53.577)">
    <path id="패스_7782" data-name="패스 7782" class="cls-1" d="M46.246,82.982c0,.015.148.674.148.674l.107.394c.021.064.082.241.082.241a8.927,8.927,0,0,0,4.008,4.934A8.13,8.13,0,0,0,54.14,90.35a2.526,2.526,0,0,1,.728.135,7.187,7.187,0,0,1,4.073,3.168,6.409,6.409,0,0,1,.878,3.217,6.342,6.342,0,0,1-.489,2.441s-.069.143-.155.329a7.626,7.626,0,0,0-.585,2.891,6.649,6.649,0,0,0,1,3.532c2.2,3.318,6.662,4.09,10.606,1.842a9.018,9.018,0,0,0,1.546-1.138v.006c0-.006.155-.148.155-.148s.282-.275.282-.275l.149-.144c.008-.006.1-.1.1-.1l.192-.218a8.394,8.394,0,0,1,4.813-2.676,3.669,3.669,0,0,1,3.016.66,1.05,1.05,0,0,1,.11.119.586.586,0,0,1,.078.125,3.421,3.421,0,0,0,1.661,1.665c1.559.653,3.4.135,5.2-1.449a1.139,1.139,0,0,1,.111-.1l.084-.081c-.012.011.085-.069.085-.069a11.771,11.771,0,0,0,3.253-5.742,9.1,9.1,0,0,0,.2-1.821l-.1-1.121a12.634,12.634,0,0,1,.97-4.187,6.539,6.539,0,0,1,2.276-3.063l.087-.047c.078-.036.263-.146.263-.146a3.171,3.171,0,0,0,.416-.338,6.172,6.172,0,0,0,1.59-3.155c.745-3.286.352-6.71-1-8.722l0-.006A2.471,2.471,0,0,0,92.946,74.5l-.094.027-.075.02-.193.082A4.7,4.7,0,0,0,90.6,76.79l-.092.227A3.2,3.2,0,0,1,87.642,79a4.8,4.8,0,0,1-3.626-2.379l-.041-.07c-.007-.006-.164-.246-.164-.246a6.894,6.894,0,0,0-5.343-3.14,6.82,6.82,0,0,0-4.947,1.947,9.051,9.051,0,0,0-.014,12.716,6.736,6.736,0,0,0,4.916,1.9,6.932,6.932,0,0,0,5.408-3.217l.038-.061.087-.139a4.877,4.877,0,0,1,3.69-2.452A2.831,2.831,0,0,1,90.1,85.175c0,.1.027.655.027.655a8.988,8.988,0,0,1-.744,3.528,6,6,0,0,1-2.846,3.136,6.762,6.762,0,0,0-2.311,1.166c-.027.023-.074.06-.074.06l-.2.155L83.809,94a10.051,10.051,0,0,0-2,2.263,6.443,6.443,0,0,1-4.091,2.352,4.567,4.567,0,0,1-4.243-1.745l-.065-.091L73.3,96.62a7.059,7.059,0,0,0-5.445-2.58,6.236,6.236,0,0,1-4.244-3.1,7.179,7.179,0,0,1-.867-3.445,8.1,8.1,0,0,1,.334-2.282,8.958,8.958,0,0,0,.816-3.7,9.265,9.265,0,0,0-.139-1.578c0-.013-.062-.307-.062-.307-.011-.06-.11-.455-.11-.455s-.2-.651-.2-.651l-.017-.062-.044-.108-.15-.406a7.933,7.933,0,0,1-.409-2.481,7.177,7.177,0,0,1,.889-3.479,6.351,6.351,0,0,1,4.72-3.213c.017,0,.046,0,.046,0,.093-.008.188-.01.188-.01.027,0,.539-.093.539-.093.016,0,.555-.137.555-.137l.194-.047c.038-.017.2-.065.2-.065l.164-.06.359-.139c.013,0,.286-.123.286-.123.019-.009.4-.212.4-.212.052-.029.38-.222.38-.222.02-.009.268-.181.268-.181l.427-.326a.94.94,0,0,0,.1-.083l.248-.232.3-.3c.012-.012.324-.365.324-.365l.165-.239A4.631,4.631,0,0,1,77.8,64.148a6.408,6.408,0,0,1,4.391,2.732l.022.028.137.206a7.779,7.779,0,0,0,4.785,3.27,3.484,3.484,0,0,0,3.1-1.009c1-1.079,1.327-2.913.9-5.032-.777-3.5-3.212-6.569-5.93-7.471a3.425,3.425,0,0,0-4.084,1.262c-.006.015-.131.208-.131.208A3.467,3.467,0,0,1,77.5,59.516a8.551,8.551,0,0,1-4.8-2.667h0c-.067-.078-.177-.211-.177-.211l-.05-.058A9.376,9.376,0,0,0,66.453,53.6a7.779,7.779,0,0,0-2.756.243l-.552.168c-.031.016-.141.065-.141.065.016-.006-.017,0-.044.015l0-.011-.406.172c-.017.006-.345.162-.345.162l0,.013-.149.067a6.449,6.449,0,0,0-2.423,2.246,6.683,6.683,0,0,0-1.012,3.562,7.642,7.642,0,0,0,.59,2.918c.007.015.155.332.155.332a6.589,6.589,0,0,1,.5,2.474,6.523,6.523,0,0,1-.892,3.246,7.186,7.186,0,0,1-4.149,3.193,2.6,2.6,0,0,1-.573.109,8.775,8.775,0,0,0-3.685,1.141,8.964,8.964,0,0,0-4.442,7.732A5.927,5.927,0,0,0,46.246,82.982Z" transform="translate(0 0)"/>
    <g id="그룹_6690" data-name="그룹 6690" transform="translate(107.6 68.947)">
      <path id="패스_7783" data-name="패스 7783" class="cls-2" d="M208.445,77.175l0-6.814h-4.48l0,6.814s.01,8.767-6.5,12.354l1.191,2.389a12.323,12.323,0,0,0,7.559-7.463,12.369,12.369,0,0,0,7.667,7.463l1.186-2.389C208.544,85.941,208.445,77.175,208.445,77.175Z" transform="translate(-118.836 -70.193)"/>
      <path id="패스_7784" data-name="패스 7784" class="cls-2" d="M268,77.175V70.361h-4.486l0,6.814s.007,8.767-6.506,12.354l1.19,2.389a12.319,12.319,0,0,0,7.561-7.463,12.37,12.37,0,0,0,7.665,7.463l1.188-2.389C268.092,85.941,268,77.175,268,77.175Z" transform="translate(-123.257 -70.193)"/>
      <path id="패스_7785" data-name="패스 7785" class="cls-2" d="M153.076,70.471H141.263v3.423l8.5,0v3.132c-.013.649-.06,1.262-.129,1.844a21.692,21.692,0,0,1-.808,3.454c-1.944,5.288-6.5,6.44-8.2,7.037l1.12,2.654a15.32,15.32,0,0,0,10.246-7.245c1.9-2.783,1.978-7.744,1.978-7.744V71.558A1.008,1.008,0,0,0,153.076,70.471Z" transform="translate(-114.617 -70.202)"/>
      <path id="패스_7786" data-name="패스 7786" class="cls-2" d="M160.8,93.266V99.41h1.052a3.163,3.163,0,0,0,3.162-3.162V70.184H160.8Z" transform="translate(-116.114 -70.18)"/>
      <path id="패스_7787" data-name="패스 7787" class="cls-2" d="M131.089,70.184v2.723h-4.8c.049-.514.081-.987.1-1.37l0,0c0-.008,0-.016,0-.027a1,1,0,0,0-.9-1.065H112.9v3.36h8.9l-.006.515s.63,6.425-9.259,9.4l1.548,2.791s8.223-1.939,10.778-7.829a10.656,10.656,0,0,0,.9-2.483h5.336v2.36h-5v3.295h5v4.522a9.172,9.172,0,0,0-4.448-1.14c-4.8,0-8.683,3.578-8.683,7.994s3.887,7.992,8.683,7.992c4.654,0,8.438-3.371,8.664-7.6V70.184ZM126.641,98.26c-2.4,0-4.35-2.251-4.35-5.021s1.947-5.021,4.35-5.021,4.35,2.25,4.35,5.021S129.047,98.26,126.641,98.26Z" transform="translate(-112.531 -70.18)"/>
      <path id="패스_7788" data-name="패스 7788" class="cls-2" d="M252.317,80.446V73.652a3.164,3.164,0,0,0-3.165-3.162H231.321v3.228H248.1v6.688a4.869,4.869,0,0,1-.629,2.409h-4.4V76.958h-4.223v5.856H229.66v3.079H236.2a8.293,8.293,0,0,0-3.7,6.784c0,4.733,4.256,8.576,9.508,8.576s9.5-3.843,9.5-8.576a8.3,8.3,0,0,0-3.7-6.784h6.6V82.815h-2.443A8.382,8.382,0,0,0,252.317,80.446ZM242,98.213a5.551,5.551,0,1,1,5.133-5.535A5.344,5.344,0,0,1,242,98.213Z" transform="translate(-121.227 -70.203)"/>
      <path id="패스_7789" data-name="패스 7789" class="cls-2" d="M283.03,79.625V70.18h-4.214l0,23.082v6.146h1.05a3.161,3.161,0,0,0,3.162-3.162v-13.3h3.4v-3.32Z" transform="translate(-124.876 -70.18)"/>
      <path id="패스_7790" data-name="패스 7790" class="cls-2" d="M219.678,93.264v6.144h1.054a3.163,3.163,0,0,0,3.162-3.161V70.18h-4.217Z" transform="translate(-120.486 -70.18)"/>
      <path id="패스_7791" data-name="패스 7791" class="cls-2" d="M185.1,85.841h8.3V82.479H177.072V73.85h16.337V70.49h-20.6V82.677a3.163,3.163,0,0,0,3.164,3.164h5.136v7.605H170.47v3.367h25.276V93.446H185.1Z" transform="translate(-116.833 -70.203)"/>
    </g>
  </g>
</svg>
