<svg xmlns="http://www.w3.org/2000/svg" width="188.231" height="54.25" viewBox="0 0 188.231 54.25">
  <defs>
    <style>
      .cls-1 {
        fill: #6dad19;
      }

      .cls-1, .cls-2, .cls-3, .cls-4, .cls-6, .cls-7 {
        fill-rule: evenodd;
      }

      .cls-2 {
        fill: #f38200;
      }

      .cls-3 {
        fill: #0082cc;
      }

      .cls-4 {
        fill: #a34e94;
      }

      .cls-5, .cls-6 {
        fill: #e64800;
      }

      .cls-7 {
        fill: #9c9880;
      }

      .cls-8 {
        fill: #003d87;
      }
    </style>
  </defs>
  <g id="그룹_6942" data-name="그룹 6942" transform="translate(-939.029 -608.857)">
    <g id="그룹_6934" data-name="그룹 6934" transform="translate(939.029 608.857)">
      <path id="패스_9283" data-name="패스 9283" class="cls-1" d="M981.376,637c-5-4.72-12.274,1.952-8.087,8.181,2.139,3.187,7.646,5.26,15.547,4.842,1.127-.058,1.5-.306.374-.817C982.3,646.061,985.063,640.479,981.376,637Z" transform="translate(-946.125 -614.563)"/>
      <path id="패스_9284" data-name="패스 9284" class="cls-2" d="M958.127,655.4c.514-.978.652-1.224-.674-.606-7.5,3.484-8.967-2.137-13.95-1.389A5.269,5.269,0,0,0,939.1,659.4c.573,3.486,4.614,4.808,7.828,4.479C953.545,663.2,957.276,657.021,958.127,655.4Z" transform="translate(-939.029 -618.418)"/>
      <path id="패스_9285" data-name="패스 9285" class="cls-3" d="M952.584,649.271c.265.224.61.657-.354.512-11.992-1.81-14.168-8.9-11.051-12.387,1.653-1.85,5.192-2.087,6.883-.223C951.266,640.705,947.815,645.241,952.584,649.271Z" transform="translate(-939.216 -614.667)"/>
      <path id="패스_9286" data-name="패스 9286" class="cls-2" d="M1007.143,616.718c1.17.043,1.468.277.286.751-2.819,1.126-5.663,3.224-5.775,7.967-.163,6.842-10.061,5.027-8.946-2.122C993.967,615.22,1005.788,616.666,1007.143,616.718Z" transform="translate(-950.549 -610.519)"/>
      <path id="패스_9287" data-name="패스 9287" class="cls-4" d="M966.474,657.9c2.034,6.081,10.579,3.961,9.872-1.883-.608-5.031-6.622-3.42-6.622-8.955,0-.674-.057-1.229-.735-.2C967.105,649.745,965.467,654.887,966.474,657.9Z" transform="translate(-944.863 -616.905)"/>
      <path id="패스_9288" data-name="패스 9288" class="cls-1" d="M1009.423,656.594c-5.258,3.717-7.183-.779-10.968-.991-4.361-.243-5.625,6.839-.017,8.143,2.6.615,9.014-.64,11.651-7.025C1010.23,656.384,1010.087,656,1009.423,656.594Z" transform="translate(-950.994 -618.904)"/>
      <path id="패스_9289" data-name="패스 9289" class="cls-2" d="M1009.5,647.462c1.178-5.975-3.783-11.556-4.256-12.149-.124-.155-1.134-1.374-.7.417,1.309,5.347-1.452,6.86-2.291,10.672C1001.044,651.881,1008.466,652.673,1009.5,647.462Z" transform="translate(-952.591 -614.426)"/>
      <path id="패스_9290" data-name="패스 9290" class="cls-5" d="M968.883,635.468c-6.291.636-9.959,2.4-11.937,3.93a5.024,5.024,0,1,0,6.793,7.229c2.743-3.38.058-7.5,5.437-10.619C969.963,635.552,969.469,635.409,968.883,635.468Z" transform="translate(-942.415 -614.575)"/>
      <path id="패스_9291" data-name="패스 9291" class="cls-1" d="M1022.677,636.345a6.2,6.2,0,0,0-2.773,2.547c-.7,1.152-.974,2.505-1.683,3.647a9.638,9.638,0,0,1-2.32,2.63c-.513.382-.8.922.181.721a10.486,10.486,0,0,1,3.242-.183,28.9,28.9,0,0,1,3.953.981,4.6,4.6,0,0,0,4.888-.8c2.063-2.175,1.8-6.205-.224-8.332A4.812,4.812,0,0,0,1022.677,636.345Z" transform="translate(-955.452 -614.692)"/>
      <path id="패스_9292" data-name="패스 9292" class="cls-3" d="M1027.235,651.684c-4.224-.664-6.3,2.553-12.517-1.729-.553-.38-1.017-.7-.608.56.666,2.047,3.633,10.262,9.38,11.72C1031.9,664.372,1034.134,652.957,1027.235,651.684Z" transform="translate(-955.135 -617.619)"/>
      <path id="패스_9293" data-name="패스 9293" class="cls-3" d="M979.944,612.536c-.911,4.673,2.7,6.885,1.812,13.758-.071.55.423.535.558.23,2.741-6.3,6.838-6.057,8.387-10.922C993.022,608.333,981.145,606.372,979.944,612.536Z" transform="translate(-947.792 -608.857)"/>
      <path id="패스_9294" data-name="패스 9294" class="cls-4" d="M955.751,633.125c5.573.437,5.862-3.669,15.765-3.111.806.045.708-.484.19-.641-8.878-2.677-10.389-8.364-15.006-8.541C949.16,620.546,948.093,632.527,955.751,633.125Z" transform="translate(-941.495 -611.43)"/>
      <path id="패스_9295" data-name="패스 9295" class="cls-6" d="M965.5,619.517c3.417,4.39,6.072,1.493,9.988,5.719.573.616,1,.317.559-.4-2.73-4.422.34-8.423-1.954-11.347C969.769,607.973,961.479,614.352,965.5,619.517Z" transform="translate(-944.489 -609.396)"/>
      <path id="패스_9296" data-name="패스 9296" class="cls-6" d="M1006.494,625.87c0,4.657,5.117,6.814,5.447,15.494.019.575.549.59.659.024,1.692-8.648,6.434-10.32,6.842-15.289C1020.075,618.418,1006.494,617.027,1006.494,625.87Z" transform="translate(-953.531 -611.204)"/>
      <path id="패스_9297" data-name="패스 9297" class="cls-4" d="M997.782,642.961a5.272,5.272,0,0,0,.9-7.3c-3.452-3.954-7.157-.016-10.682-6.62-.579-1.086-.957-.851-.745.322.725,4.032-.6,8.042,1.757,11.622C991.352,644.528,995.522,644.922,997.782,642.961Z" transform="translate(-949.384 -613.045)"/>
      <path id="패스_9298" data-name="패스 9298" class="cls-7" d="M985.834,656.529a4.56,4.56,0,0,0-4.562,4.562v12.263H990.4V661.091A4.561,4.561,0,0,0,985.834,656.529Z" transform="translate(-948.109 -619.104)"/>
    </g>
    <g id="그룹_6941" data-name="그룹 6941" transform="translate(1026.563 619.991)">
      <g id="그룹_6935" data-name="그룹 6935" transform="translate(2.249 33.369)">
        <path id="패스_9299" data-name="패스 9299" class="cls-8" d="M1058.8,673.031a7.276,7.276,0,0,1-1.587.217c-2.254,0-3.817-1.126-3.817-3.476,0-2.383,1.453-3.715,3.817-3.715a4.569,4.569,0,0,1,1.576.286l-.1,1.174a2.859,2.859,0,0,0-1.507-.365,2.323,2.323,0,0,0-2.333,2.518,2.3,2.3,0,0,0,2.364,2.485,3.905,3.905,0,0,0,1.525-.29Z" transform="translate(-1053.396 -665.655)"/>
        <path id="패스_9300" data-name="패스 9300" class="cls-8" d="M1061.5,665.545h1.339v3.036h.017a1.913,1.913,0,0,1,1.614-.816c1.219,0,1.745.86,1.745,2.016v3.24h-1.337v-2.745c0-.626-.009-1.472-.864-1.472-.97,0-1.176,1.047-1.176,1.7v2.513H1061.5Z" transform="translate(-1055.138 -665.545)"/>
        <path id="패스_9301" data-name="패스 9301" class="cls-8" d="M1073.52,673.662h-1.268v-.7h-.021a2.132,2.132,0,0,1-1.682.819c-1.213,0-1.744-.857-1.744-2.014v-3.238h1.335v2.739c0,.633.009,1.478.87,1.478.965,0,1.17-1.046,1.17-1.7v-2.514h1.34Z" transform="translate(-1056.708 -666.186)"/>
        <path id="패스_9302" data-name="패스 9302" class="cls-8" d="M1076.318,668.494h1.264v.695h.018a1.936,1.936,0,0,1,1.689-.816c1.211,0,1.74.86,1.74,2.016v3.24H1079.7v-2.745c0-.626-.011-1.472-.868-1.472-.965,0-1.176,1.047-1.176,1.7v2.513h-1.334Z" transform="translate(-1058.323 -666.153)"/>
        <path id="패스_9303" data-name="패스 9303" class="cls-8" d="M1085.94,672.593c-.765,0-1.135-.86-1.135-1.553,0-.79.29-1.627,1.2-1.627.775,0,1.116.719,1.116,1.6C1087.118,671.866,1086.776,672.593,1085.94,672.593Zm1.237-4.1v.695h-.02a1.714,1.714,0,0,0-1.575-.816c-1.53,0-2.172,1.427-2.172,2.667,0,1.372.577,2.589,2.091,2.589a1.839,1.839,0,0,0,1.6-.82h.02c0,.891-.073,1.995-1.547,1.995a3.8,3.8,0,0,1-1.493-.452l-.11,1.141a4.54,4.54,0,0,0,1.775.344,2.409,2.409,0,0,0,2.712-2.7v-4.637Z" transform="translate(-1059.848 -666.153)"/>
        <path id="패스_9304" data-name="패스 9304" class="cls-8" d="M1094.633,669.6a2.04,2.04,0,0,0-.9-.19c-.831,0-1.36.655-1.36,1.627,0,.946.449,1.671,1.386,1.671a2.82,2.82,0,0,0,1.025-.239l.057,1.105a4.222,4.222,0,0,1-1.332.169,2.693,2.693,0,0,1-.053-5.373,4.311,4.311,0,0,1,1.3.172Z" transform="translate(-1061.474 -666.153)"/>
        <path id="패스_9305" data-name="패스 9305" class="cls-8" d="M1096.944,665.545h1.335v3.036h.018a1.921,1.921,0,0,1,1.618-.816c1.214,0,1.74.86,1.74,2.016v3.24h-1.337v-2.745c0-.626-.006-1.472-.865-1.472-.967,0-1.174,1.047-1.174,1.7v2.513h-1.335Z" transform="translate(-1062.757 -665.545)"/>
        <path id="패스_9306" data-name="패스 9306" class="cls-8" d="M1105.257,670.559a1.164,1.164,0,0,1,1.187-1.207c.746,0,1.045.555,1.088,1.207Zm3.169,1.692a3.408,3.408,0,0,1-1.7.52,1.345,1.345,0,0,1-1.468-1.295h3.548c0-1.792-.535-3.1-2.442-3.1-1.593,0-2.381,1.229-2.381,2.711a2.439,2.439,0,0,0,2.683,2.662,3.488,3.488,0,0,0,1.762-.408Z" transform="translate(-1064.269 -666.153)"/>
        <path id="패스_9307" data-name="패스 9307" class="cls-8" d="M1112.35,670.939a1.31,1.31,0,1,1,2.584,0c0,.852-.272,1.772-1.3,1.772S1112.35,671.782,1112.35,670.939Zm-1.392.158a2.686,2.686,0,0,0,5.371,0,2.686,2.686,0,1,0-5.371,0Z" transform="translate(-1065.769 -666.153)"/>
        <path id="패스_9308" data-name="패스 9308" class="cls-8" d="M1118.729,668.494H1120v.695h.02a1.922,1.922,0,0,1,1.685-.816c1.213,0,1.741.86,1.741,2.016v3.24h-1.331v-2.745c0-.626-.015-1.472-.871-1.472-.966,0-1.175,1.047-1.175,1.7v2.513h-1.334Z" transform="translate(-1067.439 -666.153)"/>
        <path id="패스_9309" data-name="패스 9309" class="cls-8" d="M1128.3,672.593c-.765,0-1.138-.86-1.138-1.553,0-.79.288-1.627,1.2-1.627.773,0,1.113.719,1.113,1.6C1129.473,671.866,1129.134,672.593,1128.3,672.593Zm1.235-4.1v.695h-.019a1.716,1.716,0,0,0-1.576-.816c-1.535,0-2.169,1.427-2.169,2.667,0,1.372.573,2.589,2.091,2.589a1.827,1.827,0,0,0,1.593-.82h.019c0,.891-.069,1.995-1.538,1.995a3.789,3.789,0,0,1-1.5-.452l-.112,1.141a4.558,4.558,0,0,0,1.777.344,2.408,2.408,0,0,0,2.711-2.7v-4.637Z" transform="translate(-1068.953 -666.153)"/>
        <path id="패스_9310" data-name="패스 9310" class="cls-8" d="M1133.7,668.494h1.264v.695h.018a1.934,1.934,0,0,1,1.684-.816c1.214,0,1.744.86,1.744,2.016v3.24h-1.336v-2.745c0-.626-.011-1.472-.865-1.472-.966,0-1.176,1.047-1.176,1.7v2.513H1133.7Z" transform="translate(-1070.658 -666.153)"/>
        <path id="패스_9311" data-name="패스 9311" class="cls-8" d="M1142.015,672.139c0-.787.887-.882,1.481-.882h.582a1.71,1.71,0,0,1-.278,1.055,1.135,1.135,0,0,1-.938.458C1142.382,672.771,1142.015,672.583,1142.015,672.139Zm-.677-2.231a2.719,2.719,0,0,1,1.584-.555c.784,0,1.155.283,1.155,1.107h-.737a4.018,4.018,0,0,0-1.722.3,1.5,1.5,0,0,0-.878,1.463,1.638,1.638,0,0,0,1.795,1.525,1.829,1.829,0,0,0,1.581-.885h.022a6.892,6.892,0,0,0,.059.768h1.174c-.027-.4-.049-.757-.056-1.149s-.026-.763-.026-1.287v-.653c0-1.517-.645-2.167-2.208-2.167a4.568,4.568,0,0,0-1.785.393Z" transform="translate(-1072.171 -666.153)"/>
        <path id="패스_9312" data-name="패스 9312" class="cls-8" d="M1147.949,668.494h1.242v.721h.021a1.814,1.814,0,0,1,1.522-.842,1.5,1.5,0,0,1,1.516.912,1.762,1.762,0,0,1,1.6-.912c1.262,0,1.626.868,1.626,2.016v3.24h-1.336v-3.062c0-.48,0-1.155-.764-1.155-.89,0-1,1.053-1,1.725v2.491h-1.337v-3.062c0-.48,0-1.155-.765-1.155-.886,0-1,1.053-1,1.725v2.491h-1.333Z" transform="translate(-1073.72 -666.153)"/>
        <path id="패스_9313" data-name="패스 9313" class="cls-8" d="M1158.58,672.049v-1.094h2.622v1.094Z" transform="translate(-1076.005 -666.708)"/>
        <path id="패스_9314" data-name="패스 9314" class="cls-8" d="M1164.233,670.441c0-.69.239-1.636,1.109-1.636s1.2.915,1.2,1.636-.29,1.662-1.177,1.662S1164.233,671.146,1164.233,670.441Zm2.354,2.58h1.3v-7.476h-1.336v2.944h-.023a1.821,1.821,0,0,0-1.533-.724c-1.578,0-2.153,1.263-2.153,2.675s.575,2.7,2.153,2.7a1.906,1.906,0,0,0,1.573-.7h.019Z" transform="translate(-1076.922 -665.545)"/>
        <path id="패스_9315" data-name="패스 9315" class="cls-8" d="M1171.641,670.939a1.308,1.308,0,1,1,2.58,0c0,.852-.271,1.772-1.291,1.772S1171.641,671.782,1171.641,670.939Zm-1.4.158a2.686,2.686,0,0,0,5.372,0,2.686,2.686,0,1,0-5.372,0Z" transform="translate(-1078.513 -666.153)"/>
      </g>
      <g id="그룹_6940" data-name="그룹 6940" transform="translate(0 0)">
        <g id="그룹_6936" data-name="그룹 6936">
          <path id="패스_9316" data-name="패스 9316" class="cls-8" d="M1064,631.16c1.533,1.809,5.785,3.194,9.589,3.194h.685v-2.922h-.685c-3.082,0-6.242-1.472-7.182-3.362h7.529v-2.933h-7.728a3.925,3.925,0,0,0-.778-2.1h-4.148a4.141,4.141,0,0,1,.688,2.1h-7.9v2.933h7.526c-.938,1.89-4.1,3.362-7.178,3.362h-.684v2.922h.684C1058.218,634.353,1062.464,632.969,1064,631.16Z" transform="translate(-1051.219 -623.039)"/>
          <path id="패스_9317" data-name="패스 9317" class="cls-8" d="M1076.1,641.578v-2.931h-25.565v2.931h10.783V642.7c-3.766.652-6.155,3.146-6.155,6.116,0,3.477,3.256,6.294,8.154,6.294s8.159-2.817,8.159-6.294c0-2.974-2.392-5.465-6.159-6.116v-1.124Zm-8.582,7.241c0,1.849-1.887,3.336-4.2,3.336s-4.195-1.488-4.195-3.336,1.88-3.329,4.195-3.329S1067.514,646.98,1067.514,648.819Z" transform="translate(-1050.531 -626.394)"/>
        </g>
        <g id="그룹_6937" data-name="그룹 6937" transform="translate(79.44 1.369)">
          <path id="패스_9318" data-name="패스 9318" class="cls-8" d="M1164.322,651.221v-6.6h-3.994v6.6h-8.6v2.933h21.256v-2.933Z" transform="translate(-1151.723 -629.048)"/>
          <path id="패스_9319" data-name="패스 9319" class="cls-8" d="M1153.416,635.256a3.831,3.831,0,0,0,3.835,3.835l13.977,0v-2.927h-12.695a1.122,1.122,0,0,1-1.123-1.125v-3.489c0-2.5-.534-3.543-.735-3.841h14.552v-2.931h-18.62s.808.871.808,3.936Z" transform="translate(-1151.913 -624.783)"/>
        </g>
        <g id="그룹_6938" data-name="그룹 6938" transform="translate(53.568 0.572)">
          <path id="패스_9320" data-name="패스 9320" class="cls-8" d="M1139.449,629.461v-4.568a1.124,1.124,0,0,0-1.124-1.125h-2.873v9.866h0a7.351,7.351,0,0,1-3.611.635h-7.152a1.122,1.122,0,0,1-1.122-1.121v-4.543c0-3.068-.913-3.938-.913-3.938h-3.885s.8.87.8,3.938v4.759a3.829,3.829,0,0,0,3.825,3.83h6.98a13.6,13.6,0,0,0,5.074-.725l0-.006v1.631h4v-5.7h3.954v-2.93Z" transform="translate(-1118.766 -623.768)"/>
          <path id="패스_9321" data-name="패스 9321" class="cls-8" d="M1124.878,651.544a3.832,3.832,0,0,0,3.833,3.827h12.051v-11.99h-15.885Zm3.993-5.236h7.9v6.138h-6.773a1.126,1.126,0,0,1-1.122-1.126Z" transform="translate(-1120.08 -627.984)"/>
        </g>
        <g id="그룹_6939" data-name="그룹 6939" transform="translate(27.835 0.034)">
          <path id="패스_9322" data-name="패스 9322" class="cls-8" d="M1102.4,641.7c-4.471,0-8.092,3.154-8.092,7.033s3.621,7.036,8.092,7.036,8.1-3.15,8.1-7.036S1106.873,641.7,1102.4,641.7Zm0,11.112a4.094,4.094,0,1,1,4.134-4.091A4.112,4.112,0,0,1,1102.4,652.811Z" transform="translate(-1087.776 -627.084)"/>
          <path id="패스_9323" data-name="패스 9323" class="cls-8" d="M1111.578,623.8h-2.873v6.288h-4.175v2.93h4.175v5.08h3.99V624.923A1.121,1.121,0,0,0,1111.578,623.8Z" transform="translate(-1089.973 -623.237)"/>
          <path id="패스_9324" data-name="패스 9324" class="cls-8" d="M1093.659,633.513c1.184,1.828,4.641,3.657,7.409,3.657h.265v-3.034c-2.394-.285-5.413-1.8-5.674-5.458h5.272v-2.931h-5.286a4.459,4.459,0,0,0-.848-2.664h-3.948a4.847,4.847,0,0,1,.75,2.664h-5.212v2.931h5.274c-.261,3.663-3.279,5.173-5.675,5.458v3.034h.268C1089.021,637.17,1092.48,635.341,1093.659,633.513Z" transform="translate(-1085.987 -623.082)"/>
        </g>
      </g>
    </g>
  </g>
</svg>
