<svg xmlns="http://www.w3.org/2000/svg" xmlns:xlink="http://www.w3.org/1999/xlink" width="223.045" height="46.04" viewBox="0 0 223.045 46.04">
  <defs>
    <style>
      .cls-1 {
        fill: #003676;
      }

      .cls-2 {
        fill: url(#linear-gradient);
      }

      .cls-3 {
        fill: url(#linear-gradient-2);
      }

      .cls-4 {
        fill: url(#linear-gradient-3);
      }

      .cls-5 {
        fill: url(#linear-gradient-4);
      }

      .cls-6 {
        fill: url(#linear-gradient-5);
      }
    </style>
    <linearGradient id="linear-gradient" x1="3.22" y1="3.675" x2="2.905" y2="4.755" gradientUnits="objectBoundingBox">
      <stop offset="0" stop-color="#f58d00"/>
      <stop offset="0.402" stop-color="#e7560b"/>
      <stop offset="1" stop-color="#d1001f"/>
    </linearGradient>
    <linearGradient id="linear-gradient-2" x1="2.758" y1="4.464" x2="2.762" y2="4.074" gradientUnits="objectBoundingBox">
      <stop offset="0" stop-color="#b1001c"/>
      <stop offset="0.192" stop-color="#ba001c"/>
      <stop offset="0.654" stop-color="#cb001e"/>
      <stop offset="1" stop-color="#d1001f"/>
    </linearGradient>
    <linearGradient id="linear-gradient-3" x1="2.796" y1="6.308" x2="1.689" y2="7.452" xlink:href="#linear-gradient"/>
    <linearGradient id="linear-gradient-4" x1="2.655" y1="4.727" x2="3.084" y2="5.091" xlink:href="#linear-gradient-2"/>
    <linearGradient id="linear-gradient-5" x1="2.819" y1="5.113" x2="3.499" y2="3.929" xlink:href="#linear-gradient"/>
  </defs>
  <g id="그룹_6481" data-name="그룹 6481" transform="translate(-92.81 -229.907)">
    <g id="그룹_6476" data-name="그룹 6476" transform="translate(205.878 240.199)">
      <g id="그룹_6467" data-name="그룹 6467" transform="translate(1.102 16.844)">
        <path id="패스_6427" data-name="패스 6427" class="cls-1" d="M431.735,310.158v.761l-.414-.146a2.835,2.835,0,0,0-.866-.162.982.982,0,0,0-.56.148.517.517,0,0,0-.158.183.616.616,0,0,0-.051.268c0,.22.211.45.629.69l1.177.662a1.356,1.356,0,0,1,.628,1.1,1.179,1.179,0,0,1-.511,1.015,2.3,2.3,0,0,1-1.367.366,4.8,4.8,0,0,1-.9-.085l-.516-.119v-.852a4.632,4.632,0,0,0,.59.3,2.285,2.285,0,0,0,.851.169,1.016,1.016,0,0,0,.7-.217.581.581,0,0,0,.19-.457c0-.283-.209-.552-.631-.81l-1.176-.662a1.279,1.279,0,0,1-.627-1.031,1.08,1.08,0,0,1,.511-.952,2.307,2.307,0,0,1,1.242-.3,5.426,5.426,0,0,1,.769.05Z" transform="translate(-428.732 -309.931)"/>
        <path id="패스_6428" data-name="패스 6428" class="cls-1" d="M440.355,317.894V314.54h.82v.515a1.468,1.468,0,0,1,.289-.375,1.02,1.02,0,0,1,.652-.218.98.98,0,0,1,.574.165.782.782,0,0,1,.315.5,1.134,1.134,0,0,1,.332-.429,1.037,1.037,0,0,1,.672-.24.9.9,0,0,1,.674.261,1.166,1.166,0,0,1,.281.845v2.325h-.822v-1.917a2.038,2.038,0,0,0-.064-.647.311.311,0,0,0-.3-.133c-.213,0-.389.14-.534.42a1.859,1.859,0,0,0-.176.826v1.451h-.82v-1.917a1.891,1.891,0,0,0-.069-.647.308.308,0,0,0-.3-.133c-.211,0-.389.14-.532.42a1.836,1.836,0,0,0-.179.826v1.451Z" transform="translate(-436.405 -312.861)"/>
        <path id="패스_6429" data-name="패스 6429" class="cls-1" d="M457.889,317.894v-.388a.752.752,0,0,1-.3.318,1.2,1.2,0,0,1-.635.148,1.155,1.155,0,0,1-.745-.235.788.788,0,0,1-.29-.645.922.922,0,0,1,.49-.842,2.942,2.942,0,0,1,1.476-.294v-.33a.847.847,0,0,0-.087-.429.436.436,0,0,0-.408-.184.474.474,0,0,0-.539.516h-.8a.969.969,0,0,1,.339-.772,1.485,1.485,0,0,1,1-.292q1.282,0,1.28,1.041v2.39Zm-1.168-.874c0,.268.146.4.437.4a.638.638,0,0,0,.562-.33,1.281,1.281,0,0,0,.169-.677,1.992,1.992,0,0,0-.782.134C456.851,316.656,456.721,316.813,456.721,317.02Z" transform="translate(-446.682 -312.861)"/>
        <path id="패스_6430" data-name="패스 6430" class="cls-1" d="M466.586,315.1v-4.868h.82V315.1Z" transform="translate(-453.721 -310.07)"/>
        <path id="패스_6431" data-name="패스 6431" class="cls-1" d="M471.788,315.1v-4.868h.82V315.1Z" transform="translate(-457.155 -310.07)"/>
        <path id="패스_6432" data-name="패스 6432" class="cls-1" d="M497.929,317.894V314.54h.82v.515a1.468,1.468,0,0,1,.289-.375,1.02,1.02,0,0,1,.652-.218.984.984,0,0,1,.574.165.8.8,0,0,1,.315.5,1.155,1.155,0,0,1,.332-.429,1.037,1.037,0,0,1,.674-.24.884.884,0,0,1,.67.261,1.148,1.148,0,0,1,.283.845v2.325h-.82v-1.917a1.894,1.894,0,0,0-.068-.647.306.306,0,0,0-.294-.133c-.213,0-.392.14-.534.42a1.868,1.868,0,0,0-.176.826v1.451h-.823v-1.917a1.91,1.91,0,0,0-.066-.647.307.307,0,0,0-.3-.133c-.211,0-.39.14-.532.42a1.841,1.841,0,0,0-.178.826v1.451Z" transform="translate(-474.411 -312.861)"/>
        <path id="패스_6433" data-name="패스 6433" class="cls-1" d="M516.144,317.3v.541a3.409,3.409,0,0,1-.984.135,1.688,1.688,0,0,1-1.316-.5,2.03,2.03,0,0,1-.459-1.429,1.7,1.7,0,0,1,.367-1.158,1.43,1.43,0,0,1,1.141-.42,1.291,1.291,0,0,1,1,.367,1.393,1.393,0,0,1,.34.992v.19h-2.085a1.516,1.516,0,0,0,.289.874,1.274,1.274,0,0,0,.445.4,1.225,1.225,0,0,0,.592.133,1.564,1.564,0,0,0,.31-.023c.072-.016.135-.031.181-.043A1.562,1.562,0,0,0,516.144,317.3Zm-1.977-1.756h1.288a.558.558,0,0,0-.621-.576.662.662,0,0,0-.5.211A.79.79,0,0,0,514.167,315.54Z" transform="translate(-484.614 -312.861)"/>
        <path id="패스_6434" data-name="패스 6434" class="cls-1" d="M525.13,315.1v-.465a.888.888,0,0,1-.311.338,1.272,1.272,0,0,1-.285.156.887.887,0,0,1-.3.048,1.017,1.017,0,0,1-.955-.52,2.571,2.571,0,0,1-.251-1.233,2.346,2.346,0,0,1,.279-1.242,1.1,1.1,0,0,1,1.525-.339.931.931,0,0,1,.281.3l.015-1.915h.821V315.1Zm-1.228-1.675a3.778,3.778,0,0,0,.022.449,1.277,1.277,0,0,0,.08.324.52.52,0,0,0,.505.374.538.538,0,0,0,.479-.374,1.916,1.916,0,0,0,.142-.773,1.964,1.964,0,0,0-.135-.8.508.508,0,0,0-.486-.348.526.526,0,0,0-.505.366A2.339,2.339,0,0,0,523.9,313.428Z" transform="translate(-490.981 -310.07)"/>
        <path id="패스_6435" data-name="패스 6435" class="cls-1" d="M534.211,311.009v-.774h.822v.774Zm0,4.094v-3.354h.822V315.1Z" transform="translate(-498.362 -310.07)"/>
        <path id="패스_6436" data-name="패스 6436" class="cls-1" d="M541.3,318.044v-.627a1.3,1.3,0,0,1-.332.444,1.086,1.086,0,0,1-.725.261.89.89,0,0,1-.672-.261,1.172,1.172,0,0,1-.281-.846V314.69h.822V316.6a1.94,1.94,0,0,0,.066.65.308.308,0,0,0,.295.133.712.712,0,0,0,.621-.423,1.658,1.658,0,0,0,.207-.824V314.69h.822v3.354Z" transform="translate(-501.712 -313.011)"/>
        <path id="패스_6437" data-name="패스 6437" class="cls-1" d="M550.171,317.894V314.54h.82v.515a1.423,1.423,0,0,1,.289-.375,1.015,1.015,0,0,1,.651-.218.982.982,0,0,1,.573.165.8.8,0,0,1,.315.5,1.138,1.138,0,0,1,.332-.429,1.037,1.037,0,0,1,.672-.24.891.891,0,0,1,.674.261,1.166,1.166,0,0,1,.281.845v2.325h-.823v-1.917a1.973,1.973,0,0,0-.065-.647.313.313,0,0,0-.3-.133c-.211,0-.389.14-.532.42a1.864,1.864,0,0,0-.178.826v1.451h-.821v-1.917a1.912,1.912,0,0,0-.066-.647.309.309,0,0,0-.3-.133c-.211,0-.39.14-.532.42a1.864,1.864,0,0,0-.178.826v1.451Z" transform="translate(-508.898 -312.861)"/>
        <path id="패스_6438" data-name="패스 6438" class="cls-1" d="M569.914,315.1v-4.868h1.566a1.877,1.877,0,0,1,.933.2,1,1,0,0,1,.518.948,1.1,1.1,0,0,1-.311.813,1.675,1.675,0,0,1-.539.311,1.446,1.446,0,0,1,.71.3,1.181,1.181,0,0,1,.391.952,1.165,1.165,0,0,1-.568,1.121,2.373,2.373,0,0,1-1.134.225Zm.866-4.284v1.416h.345a1.361,1.361,0,0,0,.661-.12.622.622,0,0,0,.264-.6.631.631,0,0,0-.25-.581,1.415,1.415,0,0,0-.675-.12Zm0,2v1.7h.345a1.742,1.742,0,0,0,.8-.141.7.7,0,0,0,.378-.689.733.733,0,0,0-.308-.658,1.53,1.53,0,0,0-.87-.21Z" transform="translate(-521.931 -310.07)"/>
        <path id="패스_6439" data-name="패스 6439" class="cls-1" d="M583.5,318.044v-.627a1.3,1.3,0,0,1-.332.444,1.089,1.089,0,0,1-.725.261.89.89,0,0,1-.672-.261,1.165,1.165,0,0,1-.281-.846V314.69h.82V316.6a1.925,1.925,0,0,0,.068.65.3.3,0,0,0,.295.133.712.712,0,0,0,.621-.423,1.655,1.655,0,0,0,.207-.824V314.69h.822v3.354Z" transform="translate(-529.574 -313.011)"/>
        <path id="패스_6440" data-name="패스 6440" class="cls-1" d="M593.72,314.589v.663l-.393-.163a1.414,1.414,0,0,0-.391-.062.923.923,0,0,0-.385.083.269.269,0,0,0-.163.227q0,.154.775.619c.515.311.773.646.773,1.009a.858.858,0,0,1-.363.749,1.642,1.642,0,0,1-.978.258,3.757,3.757,0,0,1-.462-.024,2.636,2.636,0,0,1-.477-.11v-.675c.061.024.131.05.213.077s.161.053.236.077.148.027.22.035a1.659,1.659,0,0,0,.236.014,1.227,1.227,0,0,0,.38-.05q.233-.078.233-.254c0-.084-.254-.289-.757-.616s-.76-.659-.76-1a.861.861,0,0,1,.344-.722,1.483,1.483,0,0,1,.921-.264,2.553,2.553,0,0,1,.467.042Z" transform="translate(-536.283 -312.861)"/>
        <path id="패스_6441" data-name="패스 6441" class="cls-1" d="M600.1,311.009v-.774h.821v.774Zm0,4.094v-3.354h.821V315.1Z" transform="translate(-541.86 -310.07)"/>
        <path id="패스_6442" data-name="패스 6442" class="cls-1" d="M605.2,317.894V314.54h.82v.628a1.331,1.331,0,0,1,.325-.445,1.112,1.112,0,0,1,.735-.261.888.888,0,0,1,.67.261,1.15,1.15,0,0,1,.283.845v2.325h-.82v-1.917a1.905,1.905,0,0,0-.068-.647.309.309,0,0,0-.295-.133.711.711,0,0,0-.621.42,1.656,1.656,0,0,0-.209.826v1.451Z" transform="translate(-545.222 -312.861)"/>
        <path id="패스_6443" data-name="패스 6443" class="cls-1" d="M618.187,317.3v.541a3.4,3.4,0,0,1-.984.135,1.7,1.7,0,0,1-1.318-.5,2.038,2.038,0,0,1-.457-1.429,1.7,1.7,0,0,1,.366-1.158,1.432,1.432,0,0,1,1.143-.42,1.292,1.292,0,0,1,1,.367,1.391,1.391,0,0,1,.34.992v.19H616.19a1.516,1.516,0,0,0,.289.874,1.3,1.3,0,0,0,.444.4,1.228,1.228,0,0,0,.592.133,1.562,1.562,0,0,0,.31-.023c.072-.016.135-.031.181-.043A1.463,1.463,0,0,0,618.187,317.3Zm-1.977-1.756H617.5a.558.558,0,0,0-.621-.576.667.667,0,0,0-.5.211A.809.809,0,0,0,616.21,315.54Z" transform="translate(-551.976 -312.861)"/>
        <path id="패스_6444" data-name="패스 6444" class="cls-1" d="M627.047,314.589v.663l-.394-.163a1.423,1.423,0,0,0-.391-.062.923.923,0,0,0-.385.083.266.266,0,0,0-.161.227q0,.154.773.619c.515.311.771.646.771,1.009a.862.862,0,0,1-.361.749,1.651,1.651,0,0,1-.981.258,3.743,3.743,0,0,1-.459-.024,2.62,2.62,0,0,1-.477-.11v-.675c.059.024.132.05.213.077s.162.053.236.077.148.027.22.035a1.637,1.637,0,0,0,.236.014,1.256,1.256,0,0,0,.382-.05c.154-.052.232-.137.232-.254,0-.084-.255-.289-.76-.616s-.758-.659-.758-1a.861.861,0,0,1,.344-.722,1.48,1.48,0,0,1,.921-.264,2.535,2.535,0,0,1,.466.042Z" transform="translate(-558.283 -312.861)"/>
        <path id="패스_6445" data-name="패스 6445" class="cls-1" d="M634.664,314.589v.663l-.391-.163a1.418,1.418,0,0,0-.393-.062.93.93,0,0,0-.385.083.266.266,0,0,0-.161.227q0,.154.773.619c.515.311.773.646.773,1.009a.862.862,0,0,1-.361.749,1.654,1.654,0,0,1-.98.258,3.751,3.751,0,0,1-.461-.024,2.632,2.632,0,0,1-.477-.11v-.675c.061.024.13.05.214.077s.159.053.236.077.148.027.22.035a1.616,1.616,0,0,0,.234.014,1.25,1.25,0,0,0,.382-.05c.154-.052.231-.137.231-.254q0-.125-.757-.616c-.507-.326-.76-.659-.76-1a.863.863,0,0,1,.345-.722,1.475,1.475,0,0,1,.921-.264,2.541,2.541,0,0,1,.465.042Z" transform="translate(-563.312 -312.861)"/>
        <path id="패스_6446" data-name="패스 6446" class="cls-1" d="M648.754,314.034v.726a4.2,4.2,0,0,1-.556.176,3.535,3.535,0,0,1-.836.106,1.984,1.984,0,0,1-1.628-.7,2.905,2.905,0,0,1-.516-1.833,4.18,4.18,0,0,1,.11-1.018,2.176,2.176,0,0,1,.347-.765,1.8,1.8,0,0,1,1.554-.7,1.863,1.863,0,0,1,1.3.423,1.282,1.282,0,0,1,.412.987h-.961a1.018,1.018,0,0,0-.125-.558.7.7,0,0,0-.628-.267.9.9,0,0,0-.866.6,3.007,3.007,0,0,0-.192,1.175,2.764,2.764,0,0,0,.3,1.438,1.179,1.179,0,0,0,1.086.571,2.128,2.128,0,0,0,.754-.149Q648.455,314.19,648.754,314.034Z" transform="translate(-571.641 -309.931)"/>
        <path id="패스_6447" data-name="패스 6447" class="cls-1" d="M658.326,317.971a1.453,1.453,0,0,1-1.151-.461,1.9,1.9,0,0,1-.4-1.292,1.92,1.92,0,0,1,.4-1.3,1.667,1.667,0,0,1,2.3.006,1.9,1.9,0,0,1,.41,1.291,1.926,1.926,0,0,1-.4,1.292A1.441,1.441,0,0,1,658.326,317.971Zm-.682-1.753a2.212,2.212,0,0,0,.119.836.563.563,0,0,0,.563.366.57.57,0,0,0,.562-.366,1.589,1.589,0,0,0,.089-.345,3.583,3.583,0,0,0,.029-.492,2.273,2.273,0,0,0-.118-.84.565.565,0,0,0-.562-.366.574.574,0,0,0-.563.366,1.579,1.579,0,0,0-.089.346A3.568,3.568,0,0,0,657.644,316.219Z" transform="translate(-579.269 -312.861)"/>
        <path id="패스_6448" data-name="패스 6448" class="cls-1" d="M667.81,317.894V314.54h.82v.621a2.016,2.016,0,0,1,.378-.463,1.048,1.048,0,0,1,.34-.179,1.561,1.561,0,0,1,.437-.056v.816a1.262,1.262,0,0,0-.889.258,1.2,1.2,0,0,0-.266.885v1.472Z" transform="translate(-586.555 -312.861)"/>
        <path id="패스_6449" data-name="패스 6449" class="cls-1" d="M675.013,319.4V314.54h.822v.465a1.065,1.065,0,0,1,.31-.337.963.963,0,0,1,.577-.2,1.028,1.028,0,0,1,.955.52,2.484,2.484,0,0,1,.258,1.235,2.32,2.32,0,0,1-.281,1.238,1.029,1.029,0,0,1-.932.515.984.984,0,0,1-.583-.176,1.254,1.254,0,0,1-.29-.3l-.014,1.91Zm.822-3.183a1.979,1.979,0,0,0,.125.8.528.528,0,0,0,.918.135,2.442,2.442,0,0,0,0-1.861.5.5,0,0,0-.893.122A1.977,1.977,0,0,0,675.835,316.219Z" transform="translate(-591.31 -312.861)"/>
        <path id="패스_6450" data-name="패스 6450" class="cls-1" d="M686.451,317.971a1.451,1.451,0,0,1-1.151-.461,2.3,2.3,0,0,1-.008-2.589,1.665,1.665,0,0,1,2.3.006,1.879,1.879,0,0,1,.412,1.291,1.915,1.915,0,0,1-.4,1.292A1.44,1.44,0,0,1,686.451,317.971Zm-.68-1.753a2.218,2.218,0,0,0,.118.836.561.561,0,0,0,.562.366.57.57,0,0,0,.562-.366,1.592,1.592,0,0,0,.089-.345,3.536,3.536,0,0,0,.029-.492,2.267,2.267,0,0,0-.118-.84.565.565,0,0,0-.562-.366.574.574,0,0,0-.562.366,1.47,1.47,0,0,0-.089.346A3.61,3.61,0,0,0,685.771,316.219Z" transform="translate(-597.835 -312.861)"/>
        <path id="패스_6451" data-name="패스 6451" class="cls-1" d="M695.934,317.894V314.54h.82v.621a2.018,2.018,0,0,1,.378-.463,1.031,1.031,0,0,1,.34-.179,1.556,1.556,0,0,1,.437-.056v.816a1.261,1.261,0,0,0-.889.258,1.2,1.2,0,0,0-.266.885v1.472Z" transform="translate(-605.121 -312.861)"/>
        <path id="패스_6452" data-name="패스 6452" class="cls-1" d="M704.646,317.894v-.388a.729.729,0,0,1-.3.318,1.2,1.2,0,0,1-.635.148,1.158,1.158,0,0,1-.745-.235.789.789,0,0,1-.292-.645.925.925,0,0,1,.494-.842,2.93,2.93,0,0,1,1.474-.294v-.33a.842.842,0,0,0-.088-.429.435.435,0,0,0-.406-.184.543.543,0,0,0-.437.17.537.537,0,0,0-.1.346h-.8a.969.969,0,0,1,.338-.772,1.489,1.489,0,0,1,1-.292q1.279,0,1.278,1.041v2.39Zm-1.168-.874c0,.268.144.4.437.4a.637.637,0,0,0,.563-.33,1.285,1.285,0,0,0,.169-.677,2.015,2.015,0,0,0-.784.134C703.607,316.656,703.478,316.813,703.478,317.02Z" transform="translate(-609.573 -312.861)"/>
        <path id="패스_6453" data-name="패스 6453" class="cls-1" d="M714.609,315.049v.55a4.693,4.693,0,0,1-.674.056,1.179,1.179,0,0,1-.887-.275.962.962,0,0,1-.192-.649v-1.965h-.689v-.543h.689v-.8l.821-.472v1.27h1.043v.543h-1.043v1.585a1.192,1.192,0,0,0,.089.529.483.483,0,0,0,.465.224l.148-.006A.9.9,0,0,0,714.609,315.049Z" transform="translate(-615.837 -310.544)"/>
        <path id="패스_6454" data-name="패스 6454" class="cls-1" d="M720.968,311.009v-.774h.82v.774Zm0,4.094v-3.354h.82V315.1Z" transform="translate(-621.646 -310.07)"/>
        <path id="패스_6455" data-name="패스 6455" class="cls-1" d="M726.981,317.971a1.452,1.452,0,0,1-1.151-.461,1.9,1.9,0,0,1-.4-1.292,1.92,1.92,0,0,1,.395-1.3,1.667,1.667,0,0,1,2.3.006,1.889,1.889,0,0,1,.41,1.291,1.922,1.922,0,0,1-.4,1.292A1.439,1.439,0,0,1,726.981,317.971Zm-.68-1.753a2.252,2.252,0,0,0,.118.836.562.562,0,0,0,.562.366.569.569,0,0,0,.562-.366,1.571,1.571,0,0,0,.089-.345,3.47,3.47,0,0,0,.029-.492,2.225,2.225,0,0,0-.118-.84.563.563,0,0,0-.562-.366.572.572,0,0,0-.562.366,1.488,1.488,0,0,0-.089.346A3.545,3.545,0,0,0,726.3,316.219Z" transform="translate(-624.591 -312.861)"/>
        <path id="패스_6456" data-name="패스 6456" class="cls-1" d="M736.509,317.894V314.54h.82v.628a1.323,1.323,0,0,1,.325-.445,1.11,1.11,0,0,1,.733-.261.891.891,0,0,1,.673.261,1.159,1.159,0,0,1,.283.845v2.325h-.822v-1.917a1.952,1.952,0,0,0-.067-.647.308.308,0,0,0-.3-.133.716.716,0,0,0-.621.42,1.679,1.679,0,0,0-.207.826v1.451Z" transform="translate(-631.906 -312.861)"/>
        <path id="패스_6457" data-name="패스 6457" class="cls-1" d="M483.214,314.777c-.125-.123-.233-.247-.387-.41a2.07,2.07,0,0,1-1.392.492,1.448,1.448,0,0,1-1.627-1.4,1.593,1.593,0,0,1,.953-1.429v-.024a1.581,1.581,0,0,1-.4-.99,1.287,1.287,0,0,1,1.379-1.268,1.126,1.126,0,0,1,1.231,1.107c0,.515-.3.931-1.02,1.3l-.006.021c.344.4.726.836,1,1.129a3.418,3.418,0,0,0,.447-1.312h.805a3.646,3.646,0,0,1-.769,1.856c.279.308.543.608.843.929Zm-.813-.922c-.3-.31-.769-.836-1.238-1.372a1.023,1.023,0,0,0-.5.837.861.861,0,0,0,.91.871A1.155,1.155,0,0,0,482.4,313.855Zm-1.223-2.926a1.181,1.181,0,0,0,.359.793c.416-.264.659-.492.659-.836a.512.512,0,0,0-.5-.558A.542.542,0,0,0,481.179,310.929Z" transform="translate(-462.449 -309.749)"/>
      </g>
      <g id="그룹_6475" data-name="그룹 6475" transform="translate(0 0)">
        <rect id="사각형_2238" data-name="사각형 2238" class="cls-1" width="2.134" height="12.647" transform="translate(36.529 0.538)"/>
        <rect id="사각형_2239" data-name="사각형 2239" class="cls-1" width="2.136" height="8.699" transform="translate(64.907 0.538)"/>
        <path id="패스_6458" data-name="패스 6458" class="cls-1" d="M599.82,291.486c-3.492,0-3.939-1.243-3.939-2.322v-1.538h2.135V289.2c0,.8.551,1.225,1.6,1.225h5.4v1.057Z" transform="translate(-537.971 -278.301)"/>
        <path id="패스_6459" data-name="패스 6459" class="cls-1" d="M557.349,289.31c-3.493,0-3.943-1.243-3.943-2.322v-2.659h2.138v1.316h4.964v-1.316h2.137v2.659c0,1.079-.45,2.322-3.943,2.322Zm-1.8-2.282c0,.8.553,1.225,1.6,1.225h1.771c1.045,0,1.6-.423,1.6-1.225V286.7h-4.964Z" transform="translate(-509.932 -276.125)"/>
        <g id="그룹_6469" data-name="그룹 6469" transform="translate(27.183 0.538)">
          <g id="그룹_6468" data-name="그룹 6468">
            <path id="패스_6460" data-name="패스 6460" class="cls-1" d="M505.473,271.261a8.747,8.747,0,0,0,3.16-2.121,6.422,6.422,0,0,0,1.6-4.327v-.769h-4.516V263H512.5v1.538a6.652,6.652,0,0,1-2.252,5.326,11.037,11.037,0,0,1-4.343,2.3Z" transform="translate(-505.473 -262.585)"/>
            <rect id="사각형_2240" data-name="사각형 2240" class="cls-1" width="2.134" height="12.647" transform="translate(9.346)"/>
          </g>
        </g>
        <path id="패스_6461" data-name="패스 6461" class="cls-1" d="M595.652,269.962a4.56,4.56,0,0,1-2.066-.78,3.158,3.158,0,0,1-1.358-1.5l-.062-.181-.063.182a3.025,3.025,0,0,1-1.348,1.492,4.761,4.761,0,0,1-2.08.786l-.583-.882a4.435,4.435,0,0,0,1.924-1.264,4.182,4.182,0,0,0,1.073-2.934v-.837h-2.566V263h7.3v1.041h-2.585v.837a4.159,4.159,0,0,0,1.085,2.951,4.467,4.467,0,0,0,1.909,1.244Z" transform="translate(-532.828 -262.047)"/>
        <g id="그룹_6471" data-name="그룹 6471" transform="translate(97.511 0.538)">
          <g id="그룹_6470" data-name="그룹 6470">
            <path id="패스_6462" data-name="패스 6462" class="cls-1" d="M720.108,289.2v-1.578h-2.135v1.538c0,1.079.448,2.322,3.942,2.322h5.191v-1.057h-5.4C720.66,290.429,720.108,290.006,720.108,289.2Z" transform="translate(-716.079 -278.84)"/>
            <path id="패스_6463" data-name="패스 6463" class="cls-1" d="M719.846,268.579v-1.057h-3.713c-1.044,0-1.6-.422-1.6-1.225v-3.209h4.632v-1.041H712.4v4.209c0,1.082.449,2.323,3.941,2.323Z" transform="translate(-712.401 -261.954)"/>
            <path id="패스_6464" data-name="패스 6464" class="cls-1" d="M740.226,264.475v-2.7h-2.137v8.7h2.137v-4.941h1.6v-1.057Z" transform="translate(-729.358 -261.773)"/>
          </g>
        </g>
        <path id="패스_6465" data-name="패스 6465" class="cls-1" d="M640.357,290.39a4.966,4.966,0,0,1-2.794-.773,2.241,2.241,0,0,1-1.147-1.88,2.215,2.215,0,0,1,1.147-1.873,5.491,5.491,0,0,1,5.595,0,2.218,2.218,0,0,1,1.138,1.873,2.243,2.243,0,0,1-1.138,1.88A4.942,4.942,0,0,1,640.357,290.39Zm0-4.366a1.889,1.889,0,0,0-1.335.543,1.606,1.606,0,0,0-.579,1.171,1.563,1.563,0,0,0,.579,1.167,1.957,1.957,0,0,0,2.672,0,1.578,1.578,0,0,0,.577-1.167,1.621,1.621,0,0,0-.577-1.171A1.893,1.893,0,0,0,640.357,286.024Z" transform="translate(-564.729 -276.633)"/>
        <path id="패스_6466" data-name="패스 6466" class="cls-1" d="M549.6,268.131a4.166,4.166,0,0,1-2.718-.925,2.836,2.836,0,0,1,0-4.517,4.5,4.5,0,0,1,5.439,0,2.848,2.848,0,0,1,0,4.517A4.146,4.146,0,0,1,549.6,268.131Zm.036-5.3a1.5,1.5,0,0,0-1.208.692,2.387,2.387,0,0,0-.512,1.454,2.326,2.326,0,0,0,.512,1.453,1.422,1.422,0,0,0,2.414,0,2.323,2.323,0,0,0,.511-1.453,2.383,2.383,0,0,0-.511-1.454A1.493,1.493,0,0,0,549.636,262.83Z" transform="translate(-504.886 -261.235)"/>
        <g id="그룹_6473" data-name="그룹 6473" transform="translate(83.197 0.631)">
          <g id="그룹_6472" data-name="그룹 6472">
            <path id="패스_6467" data-name="패스 6467" class="cls-1" d="M682.14,265.146a9.423,9.423,0,0,1-.061,1.082,3.135,3.135,0,0,1-.209.844h1.837a2.057,2.057,0,0,0,.385-.807,4.166,4.166,0,0,0,.183-1.18v-3.038h-9.57V263.1h7.435Z" transform="translate(-673.203 -262.047)"/>
            <path id="패스_6468" data-name="패스 6468" class="cls-1" d="M676.683,274.385v-2.8h-2.137v2.8h-4.262v.981H683.14v-.981Z" transform="translate(-670.284 -268.346)"/>
            <path id="패스_6469" data-name="패스 6469" class="cls-1" d="M684.239,285.864a5.495,5.495,0,0,0-5.6,0,2.216,2.216,0,0,0-1.143,1.873,2.241,2.241,0,0,0,1.143,1.88,5.453,5.453,0,0,0,5.6,0,2.243,2.243,0,0,0,1.136-1.88A2.218,2.218,0,0,0,684.239,285.864Zm-1.466,3.041a1.957,1.957,0,0,1-2.672,0,1.57,1.57,0,0,1-.579-1.167,1.617,1.617,0,0,1,.577-1.171,1.918,1.918,0,0,1,2.674,0,1.618,1.618,0,0,1,.579,1.171A1.574,1.574,0,0,1,682.773,288.9Z" transform="translate(-675.047 -277.264)"/>
          </g>
        </g>
        <rect id="사각형_2241" data-name="사각형 2241" class="cls-1" width="12.861" height="0.981" transform="translate(69.197 6.67)"/>
        <path id="패스_6470" data-name="패스 6470" class="cls-1" d="M643.186,261.429h-4.079V260.19h-2.152v1.239H632.89v.951h2.731c-.085.042-.171.084-.252.129a1.614,1.614,0,0,0,0,3.046,5.864,5.864,0,0,0,5.306,0,1.62,1.62,0,0,0,0-3.046c-.082-.046-.165-.087-.251-.129h2.761ZM639.279,265a2.068,2.068,0,0,1-2.526,0,1.245,1.245,0,0,1-.553-.97,1.27,1.27,0,0,1,.553-.967,2.008,2.008,0,0,1,2.53,0,1.273,1.273,0,0,1,.551.967A1.241,1.241,0,0,1,639.279,265Z" transform="translate(-562.402 -260.19)"/>
        <path id="패스_6471" data-name="패스 6471" class="cls-1" d="M438.35,280.08v-1.042H425.491v1.042h5.371v1.352a4.7,4.7,0,0,0-1.736.644,1.967,1.967,0,0,0,0,3.572,5.659,5.659,0,0,0,5.6,0,1.972,1.972,0,0,0,0-3.572,4.634,4.634,0,0,0-1.728-.644V280.08Zm-4.516,3.778a1.474,1.474,0,0,1-.579,1.121,2.024,2.024,0,0,1-2.669,0,1.475,1.475,0,0,1-.579-1.121,1.515,1.515,0,0,1,.579-1.117,1.974,1.974,0,0,1,2.669,0A1.514,1.514,0,0,1,433.834,283.858Z" transform="translate(-425.491 -272.632)"/>
        <path id="패스_6472" data-name="패스 6472" class="cls-1" d="M571.513,268.726v-3.4h-1.437V264.29h1.438v-2.516h2.137v6.953Z" transform="translate(-520.936 -261.235)"/>
        <path id="패스_6473" data-name="패스 6473" class="cls-1" d="M436.747,265.132a3.9,3.9,0,0,1-1.84-2.013h3.747v-1.026h-9.741v1.026h3.745a3.9,3.9,0,0,1-1.839,2.013,6.859,6.859,0,0,1-2.507.83l.532.8a9.869,9.869,0,0,0,2.8-.591,5.113,5.113,0,0,0,2.136-1.609,5.134,5.134,0,0,0,2.137,1.609,9.884,9.884,0,0,0,2.8.591l.53-.8A6.852,6.852,0,0,1,436.747,265.132Z" transform="translate(-427.354 -261.446)"/>
        <g id="그룹_6474" data-name="그룹 6474" transform="translate(13.403 0.585)">
          <path id="패스_6474" data-name="패스 6474" class="cls-1" d="M475.859,266.711a3.94,3.94,0,0,1-1.687-3.243v-1.557h-2.138v1.557a3.938,3.938,0,0,1-1.688,3.243A6.272,6.272,0,0,1,467.575,268l.325.872a8.069,8.069,0,0,0,3.143-.806,4.3,4.3,0,0,0,2.061-1.755,4.287,4.287,0,0,0,2.058,1.755,8.079,8.079,0,0,0,3.143.806l.325-.872A6.284,6.284,0,0,1,475.859,266.711Z" transform="translate(-466.675 -261.911)"/>
          <path id="패스_6475" data-name="패스 6475" class="cls-1" d="M472.424,287.066v-2.874h-2.136v2.874h-5.362v.981h12.86v-.981Z" transform="translate(-464.926 -276.62)"/>
        </g>
      </g>
    </g>
    <g id="그룹_6480" data-name="그룹 6480" transform="translate(92.81 229.907)">
      <g id="그룹_6477" data-name="그룹 6477" transform="translate(0 9.948)">
        <path id="패스_6476" data-name="패스 6476" class="cls-1" d="M167.094,271.749a8.219,8.219,0,0,0-2.985-1.373,7.073,7.073,0,0,0,2.19-1.215,4.789,4.789,0,0,0-1.325-8,15.555,15.555,0,0,0-6.142-.974h-7.777v16.839c0,4.793,3.521,5.038,6.395,5.038h1.6c5.084,0,9.878-1.256,9.878-6.181A4.653,4.653,0,0,0,167.094,271.749Zm-11.46-8.173v-1.389h2.592a7.177,7.177,0,0,1,3.884.819,3.031,3.031,0,0,1,1.219,2.732,3.175,3.175,0,0,1-1.531,3.012,7.659,7.659,0,0,1-3.9.789h-2.262ZM163.25,279a6.834,6.834,0,0,1-4.271,1.093,10.766,10.766,0,0,1-2.283-.147c-.731-.134-1.062-.7-1.062-1.629v-6.814h3.156a7.947,7.947,0,0,1,4.125.918,3.442,3.442,0,0,1,1.683,3.108A4.2,4.2,0,0,1,163.25,279Z" transform="translate(-131.259 -259.846)"/>
        <path id="패스_6477" data-name="패스 6477" class="cls-1" d="M217.1,275.677a16.939,16.939,0,0,1-1.007-6.411c0-2.874.547-5.043,1.62-6.451a4.141,4.141,0,0,1,3.477-1.7,3.275,3.275,0,0,1,2.727,1.119,3.941,3.941,0,0,1,.895,2.1h4.433a4.883,4.883,0,0,0-2.118-3.747,10.358,10.358,0,0,0-5.852-1.412c-3.58,0-6.421,1.092-8,3.25-1.276,1.765-1.924,4.328-1.924,7.618,0,3.672.764,6.478,2.272,8.348,1.6,1.984,4.4,2.99,7.861,2.99a22.707,22.707,0,0,0,7.148-1.087v-2.217a13.58,13.58,0,0,1-5.981,1.244A5.34,5.34,0,0,1,217.1,275.677Z" transform="translate(-171.064 -259.178)"/>
        <path id="패스_6478" data-name="패스 6478" class="cls-1" d="M106.214,269.995l-5.815-2.782c-1.994-1.015-3.006-2.124-3.006-3.3a2.521,2.521,0,0,1,1.041-2.084,6.939,6.939,0,0,1,3.478-.717,22.174,22.174,0,0,1,5.777.861v-2.263a46.522,46.522,0,0,0-6.244-.534,11.657,11.657,0,0,0-6.325,1.462,4.732,4.732,0,0,0-2.309,4.181c0,1.934,1.106,3.589,3.309,4.931l5.809,2.782c2,1.055,3.009,2.229,3.009,3.486a2.814,2.814,0,0,1-1.715,2.837c-2.583,1.077-7.933-.16-9.731-1.013l-.344-.163v2.852a23.463,23.463,0,0,0,6.769.853,13.547,13.547,0,0,0,6.765-1.441,5.408,5.408,0,0,0,2.84-4.954C109.519,273.016,108.414,271.34,106.214,269.995Z" transform="translate(-92.81 -259.178)"/>
      </g>
      <g id="그룹_6479" data-name="그룹 6479" transform="translate(63.775 0)">
        <path id="패스_6479" data-name="패스 6479" class="cls-2" d="M345.252,305.831a7.367,7.367,0,0,1,.108-7.514c2.488-3.967,4.978-4.434,7.164-4.679a17,17,0,0,1,6.112.475c-4.68-2.256-10.292-2.14-13.644.492-3.992,3.133-5.576,6.959-5.572,10.466,0,6.292,5.506,10.48,10.831,12.208l8.776-4.113C355.383,312.752,347.919,310.807,345.252,305.831Z" transform="translate(-319.38 -271.239)"/>
        <path id="패스_6480" data-name="패스 6480" class="cls-3" d="M299.888,241.433c-2.8-2.441-3.028-5.547-1.037-6.663,1.8-1.013,5.024.637,6.478,1.806a15.207,15.207,0,0,1,4.22,6.6,6.1,6.1,0,0,0,.215-2.166,12.283,12.283,0,0,0-4.1-7.909c-2.217-2.011-7.206-4.277-11.536-2.629-4.623,1.758-7.528,9.77,1.483,13.944,5.027,2.328,10.628,3.723,11.179,5.8.469,1.773-.444,2.965-1.7,4.05l1.745-.284C313.387,248.207,302.023,243.29,299.888,241.433Z" transform="translate(-286.587 -229.907)"/>
        <path id="패스_6481" data-name="패스 6481" class="cls-4" d="M301.546,281.362c.836,1.063.351,6.444-6.093,8.906-6.294,2.405-9.895.308-9.194-2.519.688-2.785,4.921-4.443,8.263-4.248-.066-.178-.765-.587-2.317-.785a11.485,11.485,0,0,0-10.176,4.018,6.968,6.968,0,0,0-1.537,4.961c.308,2.566,2.763,5.021,7.735,5.469a13.047,13.047,0,0,0,11.877-5.306C305.029,285.1,301.788,281.655,301.546,281.362Z" transform="translate(-280.456 -263.874)"/>
        <g id="그룹_6478" data-name="그룹 6478" transform="translate(24.835 13.04)">
          <path id="패스_6482" data-name="패스 6482" class="cls-5" d="M372.309,281.244a13.293,13.293,0,0,0-3.517-2.689c1.054.759,2.718,3.271,1.039,4.587-.978.773-3.411,1.185-6.958-.12-3.591-1.319-5.815-3.484-6.985-7.728a9.015,9.015,0,0,1,.847-7.02c-1.9,1.282-3.483,6.383-3.162,9.211a13.829,13.829,0,0,0,3.622,7.371c4.721,4.746,12.489,5.486,15.163,2.859C374.261,285.846,373.649,282.76,372.309,281.244Z" transform="translate(-353.53 -268.275)"/>
        </g>
        <path id="패스_6483" data-name="패스 6483" class="cls-6" d="M367.638,237.211c-3.012-.35-8.476,1.124-12.307,7.485a20.3,20.3,0,0,0-2.1,12.253c-.142-1.174.9-11.565,10.181-13.836,4.947-1.209,4.287,3.223,3.609,4.574-1.76,3.524-5.732,4.613-7.016,4.74a3.7,3.7,0,0,0,1.673.37,9.912,9.912,0,0,0,7.265-3.23C372.715,245.568,373.818,237.926,367.638,237.211Z" transform="translate(-328.358 -234.697)"/>
      </g>
    </g>
  </g>
</svg>
