<svg xmlns="http://www.w3.org/2000/svg" width="155.954" height="42.527" viewBox="0 0 155.954 42.527">
    <defs>
        <style>
            .cls-1{fill:#e1a361}.cls-2{fill:#7c0d20}
        </style>
    </defs>
    <g id="partners_logo11" transform="translate(-125.742 -301.341)">
        <path id="패스_6165" data-name="패스 6165" class="cls-1" d="M151.577 343.868a4.855 4.855 0 0 1-3.918-2c-.056-.074-.107-.152-.158-.228-.048.076-.1.154-.155.228a4.843 4.843 0 0 1-5.717 1.652 4.818 4.818 0 0 0-1.813-.363 5.032 5.032 0 0 0-.841.074 6.305 6.305 0 0 1-1.1.1 6.2 6.2 0 0 1-6.125-5.348 4.744 4.744 0 0 0-1.1-2.437 4.835 4.835 0 0 1-.194-5.945c.055-.075.111-.149.169-.221a3.84 3.84 0 0 1-.267-.078 4.837 4.837 0 0 1-3.337-4.926 4.756 4.756 0 0 0-.546-2.615 6.2 6.2 0 0 1 2.759-8.494 4.747 4.747 0 0 0 1.979-1.793 4.839 4.839 0 0 1 5.6-2.024c.088.029.176.061.263.094a4.356 4.356 0 0 1-.009-.279 4.84 4.84 0 0 1 3.655-4.7 4.74 4.74 0 0 0 2.317-1.328 6.2 6.2 0 0 1 8.933 0 4.729 4.729 0 0 0 2.317 1.328 4.841 4.841 0 0 1 3.652 4.7c0 .093 0 .185-.007.279.086-.033.173-.065.261-.094a4.842 4.842 0 0 1 5.6 2.024 4.748 4.748 0 0 0 1.979 1.793 6.2 6.2 0 0 1 2.759 8.5 4.746 4.746 0 0 0-.547 2.613 4.838 4.838 0 0 1-3.336 4.926 3.593 3.593 0 0 1-.269.078c.06.072.117.146.17.221a4.837 4.837 0 0 1-.194 5.945 4.774 4.774 0 0 0-1.1 2.437 6.2 6.2 0 0 1-6.126 5.348 6.3 6.3 0 0 1-1.1-.1 5.044 5.044 0 0 0-.842-.074 4.826 4.826 0 0 0-1.813.363 4.846 4.846 0 0 1-1.8.346"/>
        <path id="패스_6166" data-name="패스 6166" class="cls-2" d="M154.012 305.646a5.81 5.81 0 0 1-2.844-1.635 5.092 5.092 0 0 0-7.332 0 5.813 5.813 0 0 1-2.844 1.633 3.729 3.729 0 0 0-2.056 5.867L147.5 323.3l8.572-11.8a3.727 3.727 0 0 0-2.063-5.857"/>
        <path id="패스_6167" data-name="패스 6167" class="cls-2" d="M132.157 312.065a5.828 5.828 0 0 1-2.433 2.2 5.088 5.088 0 0 0-2.265 6.974 5.825 5.825 0 0 1 .675 3.209 3.728 3.728 0 0 0 4.943 3.768l13.861-4.5-8.574-11.8a3.683 3.683 0 0 0-1.9-1.406 3.727 3.727 0 0 0-4.311 1.556"/>
        <path id="패스_6168" data-name="패스 6168" class="cls-2" d="M131.508 334.835a5.829 5.829 0 0 1 1.34 2.994 5.091 5.091 0 0 0 5.933 4.309 5.808 5.808 0 0 1 3.261.351 3.727 3.727 0 0 0 4.4-1.275 3.689 3.689 0 0 0 .708-2.262v-14.576l-13.872 4.51a3.68 3.68 0 0 0-1.923 1.369 3.727 3.727 0 0 0 .15 4.58"/>
        <path id="패스_6169" data-name="패스 6169" class="cls-2" d="M162.847 312.065a5.828 5.828 0 0 0 2.433 2.2 5.089 5.089 0 0 1 2.264 6.974 5.824 5.824 0 0 0-.674 3.209 3.728 3.728 0 0 1-4.943 3.768l-13.862-4.5 8.575-11.8a3.687 3.687 0 0 1 1.9-1.406 3.727 3.727 0 0 1 4.311 1.556"/>
        <path id="패스_6170" data-name="패스 6170" class="cls-2" d="M163.5 334.835a5.829 5.829 0 0 0-1.34 2.994 5.091 5.091 0 0 1-5.933 4.309 5.807 5.807 0 0 0-3.261.351 3.727 3.727 0 0 1-4.4-1.275 3.689 3.689 0 0 1-.708-2.262v-14.576l13.872 4.51a3.683 3.683 0 0 1 1.923 1.369 3.728 3.728 0 0 1-.15 4.58"/>
        <path id="패스_6171" data-name="패스 6171" class="cls-1" d="m160.913 319.149-5.154 1a.37.37 0 0 1-.375-.574l2.052-2.978a.288.288 0 0 0-.42-.387l-2.969 2.424a8.406 8.406 0 0 0-3.545-2.584l1.394-3.59a.288.288 0 0 0-.5-.279l-2.2 2.873a.372.372 0 0 1-.663-.182l-.643-5.209a.371.371 0 0 0-.736 0l-.643 5.209a.371.371 0 0 1-.662.182l-2.2-2.873a.288.288 0 0 0-.5.279l1.387 3.574a8.415 8.415 0 0 0-3.56 2.565l-2.975-2.428a.289.289 0 0 0-.42.389l2.052 2.976a.37.37 0 0 1-.375.574l-5.154-1a.371.371 0 0 0-.228.7l4.757 2.221a.371.371 0 0 1-.034.686l-3.411 1.2a.288.288 0 0 0 .112.56l3.8-.214a8.357 8.357 0 0 0 1.34 4.2l-3.2 2.062a.288.288 0 0 0 .239.518l3.466-1.031a.37.37 0 0 1 .43.535l-2.542 4.594a.37.37 0 0 0 .6.431l3.583-3.838a.371.371 0 0 1 .642.245l.09 3.617a.288.288 0 0 0 .567.064l.966-3.658a8.393 8.393 0 0 0 4.411.008l.969 3.676a.288.288 0 0 0 .567-.069l.09-3.615a.37.37 0 0 1 .642-.242l3.583 3.836a.371.371 0 0 0 .6-.434l-2.542-4.592a.371.371 0 0 1 .43-.535l3.467 1.031a.287.287 0 0 0 .238-.517l-3.2-2.059a8.369 8.369 0 0 0 1.356-4.185l3.822.215a.289.289 0 0 0 .113-.561l-3.411-1.2a.373.373 0 0 1-.034-.688l4.756-2.22a.371.371 0 0 0-.227-.7"/>
        <path id="패스_6172" data-name="패스 6172" d="M154.941 323.9a7.439 7.439 0 1 1-7.439-7.441 7.439 7.439 0 0 1 7.439 7.441" style="fill:#fff"/>
        <path id="패스_6173" data-name="패스 6173" class="cls-2" d="M146.037 322.739h-1.019a1.447 1.447 0 0 0-.263-.547h.582v-.692h-1.342v-.6h-.866v.605h-1.376v.691h.582a1.413 1.413 0 0 0-.3.869 1.482 1.482 0 0 0 1.509 1.456 1.5 1.5 0 0 0 1.456-1.079h1.036v1.979h.864V320.9h-.864zm-2.492 1.08a.771.771 0 1 1 .626-.758.7.7 0 0 1-.626.758"/>
        <path id="패스_6174" data-name="패스 6174" class="cls-2" d="M143.659 324.96h-.865v1.94h4.106v-.678h-3.243z"/>
        <path id="패스_6175" data-name="패스 6175" class="cls-2" d="M151.908 325.046h-2.254v-.574h-.871v2.428h3.989v-2.433h-.864zm0 1.176h-2.254v-.512h2.254z"/>
        <path id="패스_6176" data-name="패스 6176" class="cls-2" d="M151.908 320.9v1.265h-1.016V321.1h-.866v.75h-1.188v-.737h-.864v2.825h2.918v-1.061h1.016v1.266h.864V320.9zm-1.882 2.365h-1.187v-.752h1.187z"/>
        <path id="패스_6177" data-name="패스 6177" class="cls-2" d="M190.142 320.052h-3.695a5.171 5.171 0 0 0-.947-1.977h2.107v-2.5h-4.867v-2.2h-3.14v2.2h-4.98v2.5h2.107a5.13 5.13 0 0 0-1.087 3.149 5.378 5.378 0 0 0 5.473 5.279 5.441 5.441 0 0 0 5.278-3.9h3.751v7.173h3.136v-16.4h-3.136zm-9.029 3.916a2.795 2.795 0 1 1 2.269-2.744 2.542 2.542 0 0 1-2.269 2.744"/>
        <path id="패스_6178" data-name="패스 6178" class="cls-2" d="M181.523 328.108h-3.135v7.025h14.89v-2.457h-11.755z"/>
        <path id="패스_6179" data-name="패스 6179" class="cls-2" d="M211.42 328.419h-8.167v-2.084H200.1v8.8h14.462v-8.822h-3.142zm0 4.26h-8.167v-1.85h8.167z"/>
        <path id="패스_6180" data-name="패스 6180" class="cls-2" d="M207.737 320.56h3.683v4.589h3.136v-11.777h-3.136v4.59h-3.683v-3.844H204.6v2.713h-4.3v-2.668h-3.135V324.4h10.573zm-3.135 1.386h-4.3v-2.726h4.3z"/>
        <path id="패스_6181" data-name="패스 6181" class="cls-2" d="M234.359 319.62h-1.537v-6.248h-2.661v21.764h2.661v-12.965h1.537v12.965h2.707v-21.764h-2.707z"/>
        <path id="패스_6182" data-name="패스 6182" class="cls-2" d="M226 323.138a13.533 13.533 0 0 1-1.062-5.6v-.558h3.562v-2.457h-10.051v2.457h3.565v.558a13.533 13.533 0 0 1-1.062 5.6 8.785 8.785 0 0 1-3.148 3.9l1.705 1.934a10.064 10.064 0 0 0 3.968-5.194 10.05 10.05 0 0 0 3.968 5.194l1.7-1.934a8.785 8.785 0 0 1-3.148-3.9"/>
        <path id="패스_6183" data-name="패스 6183" class="cls-2" d="M246.146 328.108h-3.135v7.025H257.9v-2.457h-11.754z"/>
        <path id="패스_6184" data-name="패스 6184" class="cls-2" d="M257.947 313.372h-3.183v16.006h3.183v-7.207h2.986v-2.551h-2.986z"/>
        <path id="패스_6185" data-name="패스 6185" class="cls-2" d="M266.029 325.577a13.608 13.608 0 0 0 2.316-1.262 11.657 11.657 0 0 0 1.989-1.693 7.1 7.1 0 0 0 1.358-2.029 7.1 7.1 0 0 0 1.357 2.029 11.694 11.694 0 0 0 1.989 1.693 13.656 13.656 0 0 0 2.317 1.262 12.932 12.932 0 0 0 2.34.756l1.427-2.57a12.814 12.814 0 0 1-5.253-2.547 7.4 7.4 0 0 1-2.563-5.549v-1.148h-3.229v1.148a7.393 7.393 0 0 1-2.562 5.549 12.822 12.822 0 0 1-5.254 2.547l1.428 2.57a12.933 12.933 0 0 0 2.34-.756"/>
        <path id="패스_6186" data-name="패스 6186" class="cls-2" d="M273.271 331.552v-5.43h-3.158v5.43h-8.425v2.457H281.7v-2.457z"/>
        <path id="패스_6187" data-name="패스 6187" class="cls-2" d="M252.956 323.536h-2.419v-6.56h1.963v-2.457h-11.836v2.457h1.962v6.56h-2.419v2.457h12.749zm-7.631-6.56h2.513v6.56h-2.513z"/>
    </g>
</svg>
