<svg xmlns="http://www.w3.org/2000/svg" width="200.066" height="42.734" viewBox="0 0 200.066 42.734">
    <defs>
        <style>
            .cls-2{fill:#161615}.cls-3{fill:#757474}
        </style>
    </defs>
    <g id="partners_logo5" transform="translate(-163.309 -159.308)">
        <g id="그룹_6410" data-name="그룹 6410" transform="translate(163.309 159.308)">
            <path id="패스_6119" data-name="패스 6119" d="M251.469 184.318v-.014a35.674 35.674 0 0 0 .6-4.875c0-1.339-.191-2.069-.577-2.228h-.425l-.973.37-.539.218a4.718 4.718 0 0 0-.612.485l-1 .921c-.005.009-1.843 2.223-1.843 2.223l-.017.019v1.075a25.57 25.57 0 0 1-.572 6.231l-.007.808a3.95 3.95 0 0 1-.336 1.289l-.395.978a11.6 11.6 0 0 1-1.627.4 7.814 7.814 0 0 1-1.911.13l-2.094-.191c-.013 0-2.64.317-2.64.317l-1.359-.126a10.187 10.187 0 0 0-2.931.506c-.565-.166-.666-.291-.678-.346l.1-.111.385-2.267.579-2.845c.34-1.5.585-2.5.727-2.965.286-1.267.511-2.392.664-3.344a3.607 3.607 0 0 0 .365-1.355 1.7 1.7 0 0 0-.626-1.456 2.879 2.879 0 0 0-1.728-.453 3.019 3.019 0 0 0-1.531.31l-1.611 1.267-.015.013-.007.016a3.089 3.089 0 0 0-.235.765 5.506 5.506 0 0 0-.085 1.25l-.213 2.006c-.429 3.986-.893 7.3-1.387 9.863a6.478 6.478 0 0 1-.978 1.809 8.882 8.882 0 0 0-1.013 1.579l-.006.024v.02a13.678 13.678 0 0 0 1.662 3.411.986.986 0 0 0-.121.574c0-.008-.088.63-.088.63v.018l.007.015a2.97 2.97 0 0 1 .062.81 17.248 17.248 0 0 0 .3 2.732l.235 1.987c.217 1.521.331 1.8.407 1.883.114.207.417.317.881.317a4.449 4.449 0 0 0 3.354-1.648 16.518 16.518 0 0 0 2.063-3.251l.009-.009v-.017c0-.229-.234-.346-.694-.346l-.267.047c-.006 0-.2.045-.2.045l-.3.428-.425.422a1.2 1.2 0 0 1-.255.021c-.569 0-.859-.965-.859-2.863l.384-3.645.772-.733s.945-.632 1.025-.688a6.741 6.741 0 0 0 2.834-.6 19.873 19.873 0 0 1 4.5-.741l1.977-.257s1.56-.282 1.935-.348a7.439 7.439 0 0 1-.084.915l-.276 1.28-.812 3.772-.666 2.673a13.134 13.134 0 0 1-.531 2.5c-.005.014-.174 2.859-.174 2.861l-.255.691-.219.768.219.938.106.871v.032l.03.015a1.488 1.488 0 0 0 .56.223l.831.131h.02l.764-.395c.01 0 .483-.325.483-.325a6.239 6.239 0 0 0 .727-1.879l.453-1.648c.448-1.386.747-2.4.916-3.089l1-2.841c0-.012.172-1.086.172-1.086a6.94 6.94 0 0 0 .088-1.017 1.537 1.537 0 0 1 .3-.767 2.589 2.589 0 0 0 .365-.737 9.682 9.682 0 0 1 .4-2.033l.6-2.229a5.5 5.5 0 0 0 .362-2.014 29.445 29.445 0 0 0 1.755-6.411l.089-.448.131-.485-.127-.611c.031-.036.126-.165.126-.165z" transform="translate(-199.287 -169.756)" style="fill:#64a51c"/>
            <path id="패스_6120" data-name="패스 6120" class="cls-2" d="M187.936 175.505a5.267 5.267 0 0 0-1.45.168l-.446.162-1.846.679-2.481.918a36.419 36.419 0 0 0-8.825 4.78 13.981 13.981 0 0 0-3.893 5.7 6.461 6.461 0 0 1-.085 1.351 4.126 4.126 0 0 0 .661 1.913c.329.489.6.735.822.779l-.034.212a1.521 1.521 0 0 0 .494 1.1 36.992 36.992 0 0 1 5.4 5.66 3.24 3.24 0 0 1 .859 1.885s-.023.214-.035.3a5.261 5.261 0 0 0-.755.548 1.716 1.716 0 0 0-.614.842l-.189.142a1.694 1.694 0 0 0-.379.447l-.009.012v.356l-.895.709-1.259.873a2.936 2.936 0 0 1-.987.428c-.036-.043-.124-.142-.124-.142a.6.6 0 0 1-.054-.057.944.944 0 0 1 .366-.377l1.457-.506a.723.723 0 0 0 .451-.685.554.554 0 0 0-.618-.556l-.449.015-5.788 2.228-1.022.387-.886.449-.837.379-.806.579a1.462 1.462 0 0 0-.368 1.093.878.878 0 0 0 .274.707 2.511 2.511 0 0 0 1.141.625l1.256.381a5.1 5.1 0 0 0 1.8-.262l1.881-.657 1.412-.56a20.448 20.448 0 0 1 2.9-1.559l2.633-1.225a18.174 18.174 0 0 0 1.6-1.094l.687-.624a3.485 3.485 0 0 1 .52-.389c.269-.04.537-.072.806-.087a6.365 6.365 0 0 0 .933-.1 6.639 6.639 0 0 1 2.242-.082l.037.005.028-.039.139-.165a1 1 0 0 1 .325-.218c0 .006.807.06.81.064l.65.166.027.008.236-.124c0-.005.311-.192.311-.192.324-.278.485-.5.5-.7a.328.328 0 0 0-.083-.251l-.013-.009-.014-.007a30.713 30.713 0 0 0-3.977-1.32.932.932 0 0 0-.46-.129 5.51 5.51 0 0 0 .158-1.328 6.706 6.706 0 0 0-1.337-3.629 3768.63 3768.63 0 0 1-2.593-3.019 18.363 18.363 0 0 1-2.084-2.943 11.5 11.5 0 0 1-.621-1.164 5.214 5.214 0 0 1-.42-1.985 7.708 7.708 0 0 1 2.266-3.2 11.3 11.3 0 0 1 3.91-2.38l.129-.044a.832.832 0 0 1 .163.1 1.015 1.015 0 0 1-.639.7l-1.327.683a2.22 2.22 0 0 0-.782.868v.2c0 .359.209.589.63.68.026 0 .512-.083.512-.083a36.227 36.227 0 0 0 8.685-4.405.421.421 0 0 0 .211-.141 4.293 4.293 0 0 0 .261-.529c.253-.58.429-1.016.518-1.288a2.472 2.472 0 0 0 .046-.495c-.014-1.018-.568-1.532-1.663-1.532z" transform="translate(-163.309 -168.768)"/>
            <path id="패스_6121" data-name="패스 6121" class="cls-2" d="M179.2 167.664a1.583 1.583 0 0 0 2.031 1.017 38.759 38.759 0 0 1 4.368-.972h.017l1.963-1.965c.011-.016 1.475-2.935 1.475-2.935l.005-.013v-2.484l-1.507-1h-1.983l-2.448 1.47-2.457 1.471s-.47 1.406-.48 1.458c-.14.071-1.552.842-1.552 2.015a1.576 1.576 0 0 0 .078.483z" transform="translate(-172.261 -159.308)"/>
        </g>
        <g id="그룹_6411" data-name="그룹 6411" transform="translate(226.369 160.296)">
            <path id="패스_6122" data-name="패스 6122" class="cls-3" d="M361.487 167.48h-7.768v-.916h7.768zm-1.687 3.32h-.972v-1.958h-3.474v-.925h4.446zm-.017-4.712h-4.394v-3.575h4.339v.916h-3.375v.391h3.265v.926h-3.265v.426h3.43z" transform="translate(-337.575 -162.17)"/>
            <path id="패스_6123" data-name="패스 6123" class="cls-3" d="M377.487 166.065h-3.694v-3.775h.963v1.089h1.76v-1.089h.971zm-.971-.916v-.849h-1.76v.852zm3.866 5.264h-4.33v-2.278h3.266v-.471h-3.311v-.917h4.283v2.278h-3.269v.471h3.362zm-.092-3.93h-.976v-.88h-1.537v-.903h1.537v-.653h-1.537v-.916h1.537v-1.28h.976z" transform="translate(-349.299 -161.779)"/>
            <path id="패스_6124" data-name="패스 6124" class="cls-3" d="m319.925 166.985-.661.69-1.844-1.8a4.22 4.22 0 0 1-.866 1.094 5.8 5.8 0 0 1-1 .73l-.644-.735a3.819 3.819 0 0 0 .93-.636 3.64 3.64 0 0 0 .63-.762 3.125 3.125 0 0 0 .473-1.633v-1.27h1.015v1.089a4.469 4.469 0 0 1-.039.608 6.93 6.93 0 0 1-.106.563zm2.106 3.425h-.962v-5.166h-2.005v-.926h2.005v-2.468h.962z" transform="translate(-314.908 -161.78)"/>
            <path id="패스_6125" data-name="패스 6125" class="cls-3" d="M341.68 166.392h-3.439v.455h1.706v2.133h-3.294v.408h3.418v.926h-4.417V168.1h3.285v-.364h-3.33v-.889h1.661v-.455h-3.37v-.907h7.776zm-1.814-2.921a1.513 1.513 0 0 1-.168.712 1.827 1.827 0 0 1-.449.558 2.154 2.154 0 0 1-.685.354 2.767 2.767 0 0 1-.858.128 2.81 2.81 0 0 1-.822-.118 2.2 2.2 0 0 1-.685-.344 1.693 1.693 0 0 1-.458-.549 1.552 1.552 0 0 1-.168-.73 1.652 1.652 0 0 1 .163-.74 1.68 1.68 0 0 1 .453-.567 2.011 2.011 0 0 1 .672-.362 2.854 2.854 0 0 1 1.683 0 2.092 2.092 0 0 1 .686.362 1.7 1.7 0 0 1 .463.558 1.589 1.589 0 0 1 .173.738zm-1-.009a.781.781 0 0 0-.345-.673 1.384 1.384 0 0 0-.817-.245 1.363 1.363 0 0 0-.822.241.786.786 0 0 0-.33.676.757.757 0 0 0 .33.653 1.381 1.381 0 0 0 .822.236 1.494 1.494 0 0 0 .817-.218.735.735 0 0 0 .346-.669z" transform="translate(-326.002 -161.684)"/>
            <path id="패스_6126" data-name="패스 6126" class="cls-3" d="m396.582 167.012-.662.69-1.834-1.806a4.048 4.048 0 0 1-.858 1.1 5.494 5.494 0 0 1-1.02.73l-.643-.735a4.442 4.442 0 0 0 .938-.663 3.874 3.874 0 0 0 .631-.753 3.347 3.347 0 0 0 .349-.807 3.02 3.02 0 0 0 .114-.807v-1.3h1.017v1.116a4.218 4.218 0 0 1-.042.6q-.041.287-.1.549zm1.988 3.4h-.97v-8.561h.972z" transform="translate(-359.678 -161.78)"/>
        </g>
        <g id="그룹_6412" data-name="그룹 6412" transform="translate(224.579 173.185)">
            <path id="패스_6127" data-name="패스 6127" class="cls-3" d="M565.918 205.539h-19.4v-2.267h7.118v-3.694h2.464v3.694h9.814zm-4.123-10.926q0 1.406-.046 2.54c-.03.755-.069 1.45-.113 2.084-.061.65-.139 1.262-.239 1.836s-.223 1.133-.373 1.678h-2.515c.136-.469.251-.963.351-1.485s.176-1.038.238-1.552q.087-.794.135-1.507c.03-.475.054-.9.067-1.281h-8.793v-2.312zm-.3 16.41a4.038 4.038 0 0 1-.407 1.8 4.226 4.226 0 0 1-1.134 1.418 4.9 4.9 0 0 1-1.689.94 6.74 6.74 0 0 1-2.141.328 6.424 6.424 0 0 1-2.041-.317 5.527 5.527 0 0 1-1.677-.884 4.456 4.456 0 0 1-1.122-1.417 4.038 4.038 0 0 1-.42-1.847 4.306 4.306 0 0 1 .4-1.858 4.176 4.176 0 0 1 1.1-1.428 5.472 5.472 0 0 1 1.678-.918 6.357 6.357 0 0 1 2.086-.328 6.6 6.6 0 0 1 2.1.328 5.4 5.4 0 0 1 1.712.918 4.385 4.385 0 0 1 1.146 1.417 4.046 4.046 0 0 1 .414 1.848zm-2.495-.045a2.028 2.028 0 0 0-.837-1.7 3.284 3.284 0 0 0-2.04-.635 3.178 3.178 0 0 0-2.007.623 2.047 2.047 0 0 0-.8 1.711 1.973 1.973 0 0 0 .827 1.677 3.243 3.243 0 0 0 1.984.612 3.5 3.5 0 0 0 2.051-.578 1.95 1.95 0 0 0 .822-1.71z" transform="translate(-448.386 -193.804)"/>
            <path id="패스_6128" data-name="패스 6128" class="cls-3" d="m606.571 205.5-1.653 1.723-4.6-4.488a10.624 10.624 0 0 1-2.165 2.731 14.55 14.55 0 0 1-2.5 1.825l-1.61-1.837a9.641 9.641 0 0 0 2.324-1.586 9.407 9.407 0 0 0 1.575-1.9 7.786 7.786 0 0 0 1.178-4.081v-3.173h2.539v2.72a10.8 10.8 0 0 1-.1 1.519c-.069.483-.155.953-.26 1.405zm8.365-4.011h-3.694v12.541h-2.448v-21.362h2.448v6.532h3.694z" transform="translate(-476.14 -192.668)"/>
            <path id="패스_6129" data-name="패스 6129" class="cls-3" d="M324.817 212.626h-2.448v-10.28h-1.723a5.708 5.708 0 0 1-.612 1.678 5.126 5.126 0 0 1-1.065 1.336 4.459 4.459 0 0 1-1.474.907 5.086 5.086 0 0 1-1.813.318 4.849 4.849 0 0 1-2.063-.431 4.955 4.955 0 0 1-1.609-1.178 5.24 5.24 0 0 1-1.043-1.734 6.047 6.047 0 0 1 0-4.126 5.225 5.225 0 0 1 2.652-2.935 4.645 4.645 0 0 1 2.063-.454 4.7 4.7 0 0 1 3.3 1.237 5.384 5.384 0 0 1 1.688 3.071h1.7v-6.913h2.448zm-6.573-11.458a3.943 3.943 0 0 0-.635-2.2 2.14 2.14 0 0 0-1.926-.974 2.3 2.3 0 0 0-1.145.272 2.393 2.393 0 0 0-.8.724 3.015 3.015 0 0 0-.475 1 4.25 4.25 0 0 0-.159 1.156 4.166 4.166 0 0 0 .171 1.189 3.176 3.176 0 0 0 .487 1.009 2.515 2.515 0 0 0 .816.714 2.272 2.272 0 0 0 1.111.26 2.172 2.172 0 0 0 1.915-.94 3.809 3.809 0 0 0 .64-2.211zm10.721 12.863h-2.38v-21.363h2.38z" transform="translate(-310.605 -192.668)"/>
            <path id="패스_6130" data-name="패스 6130" class="cls-3" d="M377.976 211.038h-19.607v-2.311h19.607zm-2.4-6.618-1.609 1.745-5.967-4.987a12.234 12.234 0 0 1-5.96 5.032l-1.609-1.814a12.056 12.056 0 0 0 4.51-3.15 8.834 8.834 0 0 0 1.371-2.2 6.1 6.1 0 0 0 .509-2.448v-1.814h2.539v1.816a6.756 6.756 0 0 1-.1 1.167 11.76 11.76 0 0 1-.261 1.144z" transform="translate(-338.501 -193.905)"/>
            <path id="패스_6131" data-name="패스 6131" class="cls-3" d="M421.384 212.626h-2.447v-10.28h-1.723a5.7 5.7 0 0 1-.613 1.678 5.09 5.09 0 0 1-1.064 1.336 4.46 4.46 0 0 1-1.473.907 5.082 5.082 0 0 1-1.812.318 4.852 4.852 0 0 1-2.064-.431 4.951 4.951 0 0 1-1.609-1.178 5.243 5.243 0 0 1-1.044-1.734 6.066 6.066 0 0 1 0-4.126 5.235 5.235 0 0 1 2.653-2.935 4.649 4.649 0 0 1 2.064-.454 4.7 4.7 0 0 1 3.3 1.237 5.378 5.378 0 0 1 1.687 3.071h1.7v-6.913h2.447zm-6.572-11.458a3.94 3.94 0 0 0-.634-2.2 2.143 2.143 0 0 0-1.926-.974 2.3 2.3 0 0 0-1.145.272 2.388 2.388 0 0 0-.805.724 3.06 3.06 0 0 0-.477 1 4.266 4.266 0 0 0-.158 1.156 4.181 4.181 0 0 0 .171 1.189 3.221 3.221 0 0 0 .487 1.009 2.526 2.526 0 0 0 .817.714 2.27 2.27 0 0 0 1.111.26 2.171 2.171 0 0 0 1.914-.94 3.8 3.8 0 0 0 .645-2.211zm10.72 12.863h-2.379v-21.363h2.379z" transform="translate(-367.005 -192.668)"/>
            <path id="패스_6132" data-name="패스 6132" class="cls-3" d="M467.031 201.167a5.615 5.615 0 0 1-.4 2.119 5.045 5.045 0 0 1-1.118 1.714 4.965 4.965 0 0 1-1.679 1.168 5.319 5.319 0 0 1-2.131.42 5.377 5.377 0 0 1-2.152-.42 4.93 4.93 0 0 1-1.677-1.168 5.057 5.057 0 0 1-1.088-1.711 5.776 5.776 0 0 1-.386-2.119 5.5 5.5 0 0 1 1.541-3.854 5.28 5.28 0 0 1 1.678-1.156 5.1 5.1 0 0 1 2.084-.431 5.206 5.206 0 0 1 2.131.431 5.1 5.1 0 0 1 1.679 1.179 5.018 5.018 0 0 1 1.121 1.723 5.635 5.635 0 0 1 .397 2.105zm-2.493 0a3.5 3.5 0 0 0-.192-1.133 3.4 3.4 0 0 0-.555-1.02 2.61 2.61 0 0 0-.873-.736 2.549 2.549 0 0 0-1.215-.283 2.433 2.433 0 0 0-1.179.283 3.063 3.063 0 0 0-.884.713 3.356 3.356 0 0 0-.554 1.021 3.51 3.51 0 0 0-.193 1.134 3.647 3.647 0 0 0 .193 1.178 3.089 3.089 0 0 0 .578 1.02 2.881 2.881 0 0 0 .884.7 2.455 2.455 0 0 0 1.155.272 2.682 2.682 0 0 0 1.192-.26 2.6 2.6 0 0 0 .9-.714 3.1 3.1 0 0 0 .555-1 3.641 3.641 0 0 0 .188-1.175zm8.591 12.863H470.7v-21.362h2.424z" transform="translate(-395.754 -192.668)"/>
            <path id="패스_6133" data-name="패스 6133" class="cls-3" d="m513.707 205.882-1.655 1.745q-1.225-.952-1.926-1.518-.726-.59-1.927-1.541a15.079 15.079 0 0 1-2.472 1.813 13.783 13.783 0 0 1-2.606 1.2l-1.494-1.836a14.053 14.053 0 0 0 2.233-.94 14.747 14.747 0 0 0 2.026-1.281 10.89 10.89 0 0 0 1.668-1.553 6.951 6.951 0 0 0 1.1-1.688h-5.871v-2.289h9.017a8.579 8.579 0 0 1-.656 2.561 10.9 10.9 0 0 1-1.315 2.244zm-3.061-9.044c-.317.031-.854.057-1.608.08s-1.6.019-2.54-.012a6.3 6.3 0 0 1-1.948-.487 5.667 5.667 0 0 1-.973-.533l.747-1.858.341.137c.151.06.323.12.521.181s.445.116.7.17a5.517 5.517 0 0 0 .84.1q1.224.069 2.333.023t1.587-.091zm7.707 17.192h-2.4v-21.362h2.4z" transform="translate(-422.168 -192.668)"/>
        </g>
    </g>
</svg>
