<svg xmlns="http://www.w3.org/2000/svg" xmlns:xlink="http://www.w3.org/1999/xlink" width="145.991" height="54.662" viewBox="0 0 145.991 54.662">
  <defs>
    <style>
      .cls-1 {
        fill: url(#radial-gradient);
      }

      .cls-2 {
        fill: url(#radial-gradient-2);
      }

      .cls-3 {
        fill: #004593;
      }

      .cls-4 {
        fill: #5f5e5e;
      }
    </style>
    <radialGradient id="radial-gradient" cx="0.277" cy="0.206" r="0.837" gradientTransform="translate(-0.077) scale(0.887 1)" gradientUnits="objectBoundingBox">
      <stop offset="0.1" stop-color="#e0d800"/>
      <stop offset="0.9" stop-color="#8cb808"/>
      <stop offset="1" stop-color="#a9c300"/>
    </radialGradient>
    <radialGradient id="radial-gradient-2" cx="0.396" cy="0.217" r="0.833" gradientTransform="translate(0.734) scale(0.887 1)" xlink:href="#radial-gradient"/>
  </defs>
  <g id="그룹_6466" data-name="그룹 6466" transform="translate(-55.105 -59.697)">
    <g id="그룹_6465" data-name="그룹 6465">
      <g id="그룹_6461" data-name="그룹 6461">
        <g id="그룹_6459" data-name="그룹 6459">
          <path id="패스_6408" data-name="패스 6408" class="cls-1" d="M94.273,72.267c2.735,4,3.929,4.593,3.929,4.593s-1.194.594-3.929,4.584a8.612,8.612,0,0,1-7.189,4c-4.874,0-8.228-3.6-8.228-8.58s3.354-8.579,8.228-8.579A8.648,8.648,0,0,1,94.273,72.267Z"/>
          <path id="패스_6409" data-name="패스 6409" class="cls-2" d="M106.057,67.688C100.583,75.669,98.2,76.86,98.2,76.86s2.381,1.192,7.855,9.182c3.346,4.879,8.348,7.981,14.367,7.981,9.748,0,16.463-7.2,16.463-17.163S130.172,59.7,120.424,59.7C114.4,59.7,109.4,62.805,106.057,67.688Z"/>
        </g>
        <g id="그룹_6460" data-name="그룹 6460">
          <path id="패스_6410" data-name="패스 6410" class="cls-3" d="M55.1,91.164h6.032v18.387H73.448v4.476H58.993a3.883,3.883,0,0,1-3.888-3.882Z"/>
          <path id="패스_6411" data-name="패스 6411" class="cls-3" d="M92.167,91.164v8.92H82.71v-8.92H76.683v22.863H82.71V103.149a3.884,3.884,0,0,0,3,1.407h6.459v9.471H98.2V91.164Z"/>
        </g>
      </g>
      <g id="그룹_6464" data-name="그룹 6464">
        <g id="그룹_6463" data-name="그룹 6463">
          <g id="그룹_6462" data-name="그룹 6462">
            <path id="패스_6412" data-name="패스 6412" class="cls-4" d="M118.848,102.574v2.8h1.742V106.4h-1.742v4.37h-1.631v-8.2Z"/>
            <path id="패스_6413" data-name="패스 6413" class="cls-4" d="M165.835,109.135v1.019h-4.65V114.1H159.56v-3.944h-4.645v-1.019Z"/>
            <path id="패스_6414" data-name="패스 6414" class="cls-4" d="M115.951,103.463h-2.395v-1.136h-1.627v1.136H109.37v1.018h1.655l-.129.093a2.484,2.484,0,0,0-1.127,2.01,2.916,2.916,0,0,0,5.8,0,2.5,2.5,0,0,0-1.113-2.01l-.13-.093h1.628Zm-3.283,4.705a1.579,1.579,0,0,1,0-3.149,1.541,1.541,0,0,1,1.451,1.57A1.557,1.557,0,0,1,112.668,108.168Z"/>
            <path id="패스_6415" data-name="패스 6415" class="cls-4" d="M183.654,109.247c-1.829,0-3.273,1.2-3.273,2.547s1.444,2.565,3.273,2.565,3.274-1.2,3.274-2.565S185.519,109.247,183.654,109.247Zm0,4.122a1.573,1.573,0,1,1,0-3.131,1.671,1.671,0,0,1,1.727,1.561A1.7,1.7,0,0,1,183.654,113.369Z"/>
            <path id="패스_6416" data-name="패스 6416" class="cls-4" d="M153.611,102.57V114.1h-1.627V102.57Z"/>
            <path id="패스_6417" data-name="패스 6417" class="cls-4" d="M199.348,102.57v3.514H201.1v1.032h-1.748V114.1H197.72V102.57Z"/>
            <path id="패스_6418" data-name="패스 6418" class="cls-4" d="M112.918,110.262v2.705h6.137v1.018h-6.562c-.853,0-1.2-.3-1.2-1.055v-2.668Z"/>
            <path id="패스_6419" data-name="패스 6419" class="cls-4" d="M127.956,107.093a2.7,2.7,0,0,0,.527-1.794V103.78h-6.344v-1.013h6.769c.857,0,1.207.307,1.207,1.05v1.328a2.34,2.34,0,0,1-.793,1.948h2.046v1.014h-4.441v1.912h1.957c.853,0,1.2.308,1.2,1.055V114.1h-1.63v-3.056h-6.362v-1.023H125.3v-1.912h-4.351v-1.014Z"/>
            <path id="패스_6420" data-name="패스 6420" class="cls-4" d="M186.81,107.658h2.3v1.02H178.2v-1.02h3.99V105.72h1.621v1.938h1.653a3,3,0,0,0,.577-1.854v-2.033h-6.463v-1.019h6.888c.85,0,1.2.313,1.2,1.052v1.845A2.506,2.506,0,0,1,186.81,107.658Z"/>
            <path id="패스_6421" data-name="패스 6421" class="cls-4" d="M175.643,110.023c.855,0,1.2.308,1.2,1.051V114.1h-1.629v-3.051h-6.652v-1.024Z"/>
            <path id="패스_6422" data-name="패스 6422" class="cls-4" d="M133.663,108.584V104.07c0-.743.351-1.047,1.2-1.047h6.846v1.019h-6.42V105.8h6.091v1.018h-6.091v1.794h6.577v1.029h-3.407v2.14h4.647V112.8H132.2v-1.019h4.631v-2.14h-1.968C134.014,109.645,133.663,109.331,133.663,108.584Z"/>
            <path id="패스_6423" data-name="패스 6423" class="cls-4" d="M176.847,102.57v6.477h-1.531V105.9h-1.04v3.146h-1.53v-1.085l-.089.1a4.019,4.019,0,0,1-2.173.542h-1.85l-.4,0c-.85,0-1.2-.3-1.2-1.047v-3.687c0-.743.351-1.047,1.2-1.047h3.313v1.024h-2.913v1.312h2.7v1.033h-2.7v1.4h2.329a3.609,3.609,0,0,0,1.757-.4l.028-.013V102.57h1.53v2.449h1.04V102.57Z"/>
          </g>
          <path id="패스_6424" data-name="패스 6424" class="cls-4" d="M147.293,108.027a5.208,5.208,0,0,1-3.044,2.781c-.04-.051-.582-.719-.656-.808a4.841,4.841,0,0,0,2.873-4.646v-1.345h-2.281V102.99H150.4v1.019H148.12v1.345A4.844,4.844,0,0,0,150.989,110c-.072.089-.616.757-.651.808A5.183,5.183,0,0,1,147.293,108.027Z"/>
          <path id="패스_6425" data-name="패스 6425" class="cls-4" d="M160.372,105.99s-.715,1.631-4.224,2.2l-.514-.887c1.839-.346,3.916-1.468,3.916-3.379v-.116h-3.418V102.78h8.481v1.029H161.19v.116c0,1.911,2.084,3.033,3.92,3.379l-.513.887C161.09,107.621,160.372,105.99,160.372,105.99Z"/>
          <path id="패스_6426" data-name="패스 6426" class="cls-4" d="M194.059,105.425a4.472,4.472,0,0,0,2.869,4.533c-.071.089-.618.757-.655.8a4.668,4.668,0,0,1-3.042-2.589,4.663,4.663,0,0,1-3.042,2.589c-.04-.047-.579-.715-.654-.8a4.476,4.476,0,0,0,2.869-4.533v-2.579h1.655Z"/>
        </g>
      </g>
    </g>
  </g>
</svg>
