<svg xmlns="http://www.w3.org/2000/svg" width="219.619" height="34.049" viewBox="0 0 219.619 34.049">
  <defs>
    <style>
      .cls-1 {
        fill: #1a1311;
      }

      .cls-2 {
        fill: #003e92;
      }
    </style>
  </defs>
  <g id="그룹_6689" data-name="그룹 6689" transform="translate(-582.113 -252.514)">
    <g id="그룹_6688" data-name="그룹 6688" transform="translate(582.113 252.514)">
      <g id="그룹_6687" data-name="그룹 6687">
        <g id="그룹_6686" data-name="그룹 6686">
          <g id="그룹_6685" data-name="그룹 6685">
            <g id="그룹_6657" data-name="그룹 6657" transform="translate(69.072 2.543)">
              <path id="패스_7704" data-name="패스 7704" class="cls-1" d="M601.942,264.19h0a2.439,2.439,0,0,1-2.436-2.436l-.012-8.6h2.746v8.528h16.11v-1.7H605.86v-2.508h12.49v-4.32h2.726v19.508h-2.726V264.21Z" transform="translate(-599.494 -253.154)"/>
            </g>
            <g id="그룹_6658" data-name="그룹 6658" transform="translate(93.3 2.544)">
              <path id="패스_7705" data-name="패스 7705" class="cls-1" d="M613.214,272.656l.037-19.5h-2.736l-.033,19.5Z" transform="translate(-591.046 -253.151)"/>
              <path id="패스_7706" data-name="패스 7706" class="cls-1" d="M614.486,257.493l5.576,6.689,3.222-.006-7.022-8.493h6.923v-2.528l-17.5,0v2.534h6.926l-7.023,8.489,3.217,0,5.579-6.685Z" transform="translate(-605.591 -253.154)"/>
            </g>
            <g id="그룹_6659" data-name="그룹 6659" transform="translate(118.229 2.544)">
              <path id="패스_7707" data-name="패스 7707" class="cls-1" d="M611.864,256.529h2.73l-.016,3.569,19.453.052v2.476l-19.238.02a2.966,2.966,0,0,1-2.929-2.98h0Z" transform="translate(-611.863 -243.118)"/>
              <path id="패스_7708" data-name="패스 7708" class="cls-1" d="M629.523,255.671v4.313h-2.732v-4.313H611.864v-2.517h17.659v2.517" transform="translate(-611.864 -253.154)"/>
              <path id="패스_7709" data-name="패스 7709" class="cls-1" d="M619.5,259.975h2.222v-2.5H619.5l0-4.317H616.75v11.033H619.5Z" transform="translate(-597.334 -253.154)"/>
              <path id="패스_7710" data-name="패스 7710" class="cls-1" d="M629.514,258.452v2.5h-17.65v-2.5l5.986,0v-4.207h2.717v4.207Z" transform="translate(-611.864 -249.923)"/>
            </g>
            <g id="그룹_6660" data-name="그룹 6660" transform="translate(145.328 2.543)">
              <path id="패스_7711" data-name="패스 7711" class="cls-1" d="M636.292,264.19v-2.5H621.437l-.02-1.693,14.855-.024.008-6.823h-17.6V255.7H633.57l-.008,1.788H618.7v4.61h0a2.114,2.114,0,0,0,2.118,2.114Z" transform="translate(-618.683 -253.154)"/>
              <rect id="사각형_2290" data-name="사각형 2290" class="cls-1" width="2.75" height="19.49" transform="translate(19.433 0.017)"/>
            </g>
            <g id="그룹_6661" data-name="그룹 6661" transform="translate(195.137 2.544)">
              <path id="패스_7712" data-name="패스 7712" class="cls-1" d="M631.217,256.527h2.726l-.012,3.573h19.456v2.52l-19.238.028a2.973,2.973,0,0,1-2.933-2.984h0Z" transform="translate(-631.217 -243.124)"/>
              <path id="패스_7713" data-name="패스 7713" class="cls-1" d="M638.78,259.957h2.3v-2.486h-2.3l-.014-4.317h-2.635v11.033h2.635Z" transform="translate(-616.602 -253.154)"/>
              <path id="패스_7714" data-name="패스 7714" class="cls-1" d="M648.756,264.172v-2.49H633.982l-.019-6h14.794v-2.532H631.24V264.2Z" transform="translate(-631.148 -253.154)"/>
            </g>
            <g id="그룹_6662" data-name="그룹 6662" transform="translate(43.372 2.543)">
              <rect id="사각형_2291" data-name="사각형 2291" class="cls-1" width="2.725" height="19.551" transform="translate(19.871 0.087)"/>
              <path id="패스_7715" data-name="패스 7715" class="cls-1" d="M607.949,253.241v4.3l-3.68,0a5.677,5.677,0,1,0,.036,2.508l3.644.008v12.737h2.722V253.241Zm-9.227,8.8a3.187,3.187,0,1,1,3.191-3.191A3.193,3.193,0,0,1,598.722,262.04Z" transform="translate(-593.027 -253.154)"/>
            </g>
            <g id="그룹_6663" data-name="그룹 6663" transform="translate(170.324 2.544)">
              <path id="패스_7716" data-name="패스 7716" class="cls-1" d="M647.216,253.172v6.813h-2.748l.013-4.3H624.973v-2.532Z" transform="translate(-624.973 -253.154)"/>
              <rect id="사각형_2292" data-name="사각형 2292" class="cls-1" width="2.738" height="4.199" transform="translate(8.13 4.329)"/>
              <rect id="사각형_2293" data-name="사각형 2293" class="cls-1" width="22.243" height="2.509" transform="translate(0 8.538)"/>
              <path id="패스_7717" data-name="패스 7717" class="cls-1" d="M631.917,256.016a5.57,5.57,0,1,0,5.571,5.572A5.571,5.571,0,0,0,631.917,256.016Zm0,8.806a3.239,3.239,0,1,1,3.239-3.235A3.239,3.239,0,0,1,631.917,264.822Z" transform="translate(-620.905 -244.644)"/>
            </g>
            <g id="그룹_6682" data-name="그룹 6682" transform="translate(44.818 26.777)">
              <path id="패스_7718" data-name="패스 7718" class="cls-1" d="M637.063,260.024h-1.649v3.664h-.874v-3.664h-1.832v-.771h4.355Z" transform="translate(-476.464 -259.249)"/>
              <path id="패스_7719" data-name="패스 7719" class="cls-1" d="M625.8,260.024h-1.649v3.664h-.87v-3.664h-1.836v-.771H625.8Z" transform="translate(-509.966 -259.249)"/>
              <g id="그룹_6664" data-name="그룹 6664" transform="translate(100.394 0.004)">
                <path id="패스_7720" data-name="패스 7720" class="cls-1" d="M619.56,261.852v1.069h3.628v.767H619.6a.976.976,0,0,1-.664-.234.709.709,0,0,1-.282-.564v-2.833a.732.732,0,0,1,.278-.572,1,1,0,0,1,.668-.231h3.588v.771H619.56v1.065" transform="translate(-618.654 -259.253)"/>
                <path id="패스_7721" data-name="패스 7721" class="cls-1" d="M619.715,259.67h2.778v.759h-2.734a1.032,1.032,0,0,1-.672-.227.664.664,0,0,1-.274-.532Z" transform="translate(-618.181 -258.013)"/>
              </g>
              <g id="그룹_6665" data-name="그룹 6665" transform="translate(89.18 0.004)">
                <path id="패스_7722" data-name="패스 7722" class="cls-1" d="M616.738,261.852v1.069h3.628v.767h-3.6a.99.99,0,0,1-.664-.234.713.713,0,0,1-.274-.564v-2.833a.728.728,0,0,1,.274-.572,1,1,0,0,1,.664-.231h3.6v.771h-3.628v1.065" transform="translate(-615.832 -259.253)"/>
                <path id="패스_7723" data-name="패스 7723" class="cls-1" d="M616.9,259.67h2.774v.759h-2.738a1.017,1.017,0,0,1-.664-.227.657.657,0,0,1-.278-.532Z" transform="translate(-615.362 -258.013)"/>
              </g>
              <g id="그룹_6666" data-name="그룹 6666" transform="translate(16.389 0.004)">
                <path id="패스_7724" data-name="패스 7724" class="cls-1" d="M598.417,261.852v1.069h3.624v.767h-3.589a.969.969,0,0,1-.664-.234.713.713,0,0,1-.274-.564v-2.833a.718.718,0,0,1,.27-.572,1,1,0,0,1,.667-.231h3.589v.771h-3.624v1.065" transform="translate(-597.515 -259.253)"/>
                <path id="패스_7725" data-name="패스 7725" class="cls-1" d="M598.578,259.67h2.774v.759h-2.738a1.018,1.018,0,0,1-.664-.227.658.658,0,0,1-.278-.532Z" transform="translate(-597.048 -258.013)"/>
              </g>
              <g id="그룹_6667" data-name="그룹 6667" transform="translate(28.915 0.004)">
                <path id="패스_7726" data-name="패스 7726" class="cls-1" d="M601.573,261.852v1.069H605.2v.767h-3.592a.99.99,0,0,1-.664-.234.705.705,0,0,1-.278-.564v-2.833a.731.731,0,0,1,.27-.572,1.02,1.02,0,0,1,.672-.231H605.2v.771h-3.628v1.065" transform="translate(-600.667 -259.253)"/>
                <path id="패스_7727" data-name="패스 7727" class="cls-1" d="M601.731,259.67h2.778v.759h-2.742a1.025,1.025,0,0,1-.664-.227.669.669,0,0,1-.278-.532Z" transform="translate(-600.197 -258.013)"/>
              </g>
              <g id="그룹_6668" data-name="그룹 6668" transform="translate(39.529 0.004)">
                <path id="패스_7728" data-name="패스 7728" class="cls-1" d="M604.244,261.852v1.069h3.632v.767h-3.6a.983.983,0,0,1-.664-.234.716.716,0,0,1-.278-.564v-2.833a.734.734,0,0,1,.274-.572,1.016,1.016,0,0,1,.668-.231h3.6v.771h-3.632v1.065" transform="translate(-603.338 -259.253)"/>
                <path id="패스_7729" data-name="패스 7729" class="cls-1" d="M604.406,259.67h2.774v.759h-2.742a1,1,0,0,1-.659-.227.652.652,0,0,1-.282-.532Z" transform="translate(-602.868 -258.013)"/>
              </g>
              <path id="패스_7730" data-name="패스 7730" class="cls-1" d="M598.037,263.688h-1.287l-2.456-1.836.008,1.836h-.91v-4.435h.91l-.008,1.836,2.456-1.836h1.287l-2.794,2.225Z" transform="translate(-593.391 -259.249)"/>
              <path id="패스_7731" data-name="패스 7731" class="cls-1" d="M639.067,260.056v2.833a.73.73,0,0,1-.271.576,1.016,1.016,0,0,1-.667.223h-3.708v-3.632a.722.722,0,0,1,.274-.572,1,1,0,0,1,.668-.231h2.786a.938.938,0,0,1,.656.238A.719.719,0,0,1,639.067,260.056Zm-.906,2.865v-2.9h-2.837v2.9Z" transform="translate(-471.369 -259.249)"/>
              <path id="패스_7732" data-name="패스 7732" class="cls-1" d="M633.313,260.056v2.833a.739.739,0,0,1-.266.576,1.051,1.051,0,0,1-.672.223h-3.708v-3.632a.718.718,0,0,1,.27-.572,1.012,1.012,0,0,1,.672-.231H632.4a.952.952,0,0,1,.656.238A.719.719,0,0,1,633.313,260.056Zm-.906,2.865v-2.9H629.57v2.9Z" transform="translate(-488.478 -259.249)"/>
              <path id="패스_7733" data-name="패스 7733" class="cls-1" d="M629.263,260.056v2.833a.747.747,0,0,1-.274.576,1.017,1.017,0,0,1-.667.223h-3.708v-3.632a.726.726,0,0,1,.266-.572,1.046,1.046,0,0,1,.676-.231h2.79a.953.953,0,0,1,.656.238A.732.732,0,0,1,629.263,260.056Zm-.9,2.865v-2.9h-2.845v2.9Z" transform="translate(-500.535 -259.249)"/>
              <path id="패스_7734" data-name="패스 7734" class="cls-1" d="M599.4,260.056v2.837a.741.741,0,0,1-.271.572,1.035,1.035,0,0,1-.671.223h-3.708v-3.632a.725.725,0,0,1,.27-.572,1.028,1.028,0,0,1,.672-.231h2.786a.955.955,0,0,1,.66.238A.72.72,0,0,1,599.4,260.056Zm-.906,2.873v-2.905h-2.837v2.905Z" transform="translate(-589.355 -259.249)"/>
              <g id="그룹_6669" data-name="그룹 6669" transform="translate(10.964)">
                <path id="패스_7735" data-name="패스 7735" class="cls-1" d="M597.223,259.728h2.154v.771h-2.122a.979.979,0,0,1-.667-.242.651.651,0,0,1-.278-.529Z" transform="translate(-595.677 -257.837)"/>
                <path id="패스_7736" data-name="패스 7736" class="cls-1" d="M597.056,261.263v2.42h-.906v-4.431h3.592a1.02,1.02,0,0,1,.671.23.728.728,0,0,1,.27.568v1.073a.716.716,0,0,1-.274.56.973.973,0,0,1-.664.23Zm2.722-1.244h-2.722v1.133h2.722Z" transform="translate(-596.15 -259.252)"/>
                <path id="패스_7737" data-name="패스 7737" class="cls-1" d="M597.054,259.807a1,1,0,0,1,.671.23.736.736,0,0,1,.27.572v1.431h-.938" transform="translate(-593.462 -257.602)"/>
              </g>
              <g id="그룹_6670" data-name="그룹 6670" transform="translate(129.651)">
                <path id="패스_7738" data-name="패스 7738" class="cls-1" d="M627.084,259.728h2.154v.771H627.12a.979.979,0,0,1-.667-.242.651.651,0,0,1-.278-.529Z" transform="translate(-625.546 -257.837)"/>
                <path id="패스_7739" data-name="패스 7739" class="cls-1" d="M626.922,261.263v2.42h-.906v-4.431H629.6a1.02,1.02,0,0,1,.672.23.728.728,0,0,1,.27.568v1.073a.716.716,0,0,1-.274.56.966.966,0,0,1-.664.23Zm2.714-1.244h-2.714v1.133h2.714Z" transform="translate(-626.016 -259.252)"/>
                <path id="패스_7740" data-name="패스 7740" class="cls-1" d="M626.919,259.807a1,1,0,0,1,.672.23.736.736,0,0,1,.27.572v1.431h-.938" transform="translate(-623.33 -257.602)"/>
              </g>
              <g id="그룹_6671" data-name="그룹 6671" transform="translate(145.622)">
                <path id="패스_7741" data-name="패스 7741" class="cls-1" d="M631.1,259.728h2.154v.771h-2.114a.97.97,0,0,1-.664-.242.655.655,0,0,1-.282-.529Z" transform="translate(-629.565 -257.837)"/>
                <path id="패스_7742" data-name="패스 7742" class="cls-1" d="M630.937,261.263v2.42h-.9v-4.431h3.589a1,1,0,0,1,.668.23.733.733,0,0,1,.274.568v1.073a.729.729,0,0,1-.274.56.97.97,0,0,1-.66.23Zm2.722-1.244h-2.722v1.133h2.722Z" transform="translate(-630.035 -259.252)"/>
                <path id="패스_7743" data-name="패스 7743" class="cls-1" d="M630.938,259.807a.982.982,0,0,1,.668.23.741.741,0,0,1,.274.572v1.431h-.934" transform="translate(-627.349 -257.602)"/>
              </g>
              <g id="그룹_6672" data-name="그룹 6672" transform="translate(44.727)">
                <path id="패스_7744" data-name="패스 7744" class="cls-1" d="M605.715,259.728h2.158v.771h-2.126a.961.961,0,0,1-.66-.242.645.645,0,0,1-.282-.529Z" transform="translate(-604.173 -257.837)"/>
                <path id="패스_7745" data-name="패스 7745" class="cls-1" d="M605.552,261.263v2.42h-.906v-4.431h3.6a1.035,1.035,0,0,1,.671.23.742.742,0,0,1,.271.568v1.073a.722.722,0,0,1-.278.56.957.957,0,0,1-.66.23Zm2.722-1.244h-2.722v1.133h2.722Z" transform="translate(-604.646 -259.252)"/>
                <path id="패스_7746" data-name="패스 7746" class="cls-1" d="M605.551,259.807a1.013,1.013,0,0,1,.671.23.749.749,0,0,1,.271.572v1.431h-.938" transform="translate(-601.955 -257.602)"/>
              </g>
              <g id="그룹_6673" data-name="그룹 6673" transform="translate(21.658 0.004)">
                <path id="패스_7747" data-name="패스 7747" class="cls-1" d="M599.908,259.73h2.158v.763H599.94a1.019,1.019,0,0,1-.66-.23.674.674,0,0,1-.282-.533Z" transform="translate(-598.374 -257.834)"/>
                <path id="패스_7748" data-name="패스 7748" class="cls-1" d="M602.433,259.253a1.028,1.028,0,0,1,.672.231.739.739,0,0,1,.266.572v3.632h-.906v-2.182h-2.718v2.182h-.906v-3.632a.71.71,0,0,1,.274-.572,1.007,1.007,0,0,1,.664-.231Zm.032,2.162v-1.391h-2.718v1.391Z" transform="translate(-598.841 -259.253)"/>
              </g>
              <g id="그룹_6674" data-name="그룹 6674" transform="translate(150.987 0.004)">
                <path id="패스_7749" data-name="패스 7749" class="cls-1" d="M632.449,259.73h2.158v.763h-2.122a1.03,1.03,0,0,1-.664-.23.67.67,0,0,1-.278-.533Z" transform="translate(-630.915 -257.834)"/>
                <path id="패스_7750" data-name="패스 7750" class="cls-1" d="M634.981,259.253a1.013,1.013,0,0,1,.664.231.736.736,0,0,1,.271.572v3.632h-.9v-2.182h-2.722v2.182h-.906v-3.632a.716.716,0,0,1,.274-.572,1.021,1.021,0,0,1,.672-.231Zm.032,2.162v-1.391h-2.722v1.391Z" transform="translate(-631.385 -259.253)"/>
              </g>
              <g id="그룹_6675" data-name="그룹 6675" transform="translate(67.104 0.004)">
                <path id="패스_7751" data-name="패스 7751" class="cls-1" d="M611.345,259.73h2.15v.763h-2.118a1.006,1.006,0,0,1-.664-.23.659.659,0,0,1-.278-.533Z" transform="translate(-609.807 -257.834)"/>
                <path id="패스_7752" data-name="패스 7752" class="cls-1" d="M613.865,259.253a1,1,0,0,1,.668.231.728.728,0,0,1,.274.572v3.632H613.9v-2.182h-2.718v2.182h-.906v-3.632a.724.724,0,0,1,.27-.572,1.013,1.013,0,0,1,.672-.231Zm.036,2.162v-1.391h-2.718v1.391Z" transform="translate(-610.277 -259.253)"/>
              </g>
              <g id="그룹_6676" data-name="그룹 6676" transform="translate(78.224 0.004)">
                <path id="패스_7753" data-name="패스 7753" class="cls-1" d="M614.137,259.73h2.158v.763h-2.118a1.032,1.032,0,0,1-.667-.23.669.669,0,0,1-.278-.533Z" transform="translate(-612.611 -257.834)"/>
                <path id="패스_7754" data-name="패스 7754" class="cls-1" d="M616.664,259.253a1.006,1.006,0,0,1,.664.231.732.732,0,0,1,.278.572v3.632H616.7v-2.182h-2.726v2.182h-.9v-3.632a.719.719,0,0,1,.266-.572,1.016,1.016,0,0,1,.668-.231Zm.036,2.162v-1.391h-2.726v1.391Z" transform="translate(-613.075 -259.253)"/>
              </g>
              <path id="패스_7755" data-name="패스 7755" class="cls-1" d="M605.651,262.337v-3.084h.91v4.435h-.918l-2.714-3.092v3.092h-.906v-4.435h.91Z" transform="translate(-567.72 -259.249)"/>
              <path id="패스_7756" data-name="패스 7756" class="cls-1" d="M609.966,261.467v2.221h-.906v-2.221l-1.812-2.214h.906l1.359,1.55,1.355-1.55h.914Z" transform="translate(-552.181 -259.249)"/>
              <path id="패스_7757" data-name="패스 7757" class="cls-1" d="M615.3,262.337v-3.084h.906v4.435h-.91l-2.718-3.092v3.092h-.9v-4.435h.906Z" transform="translate(-539.012 -259.249)"/>
              <path id="패스_7758" data-name="패스 7758" class="cls-1" d="M623.692,262.337v-3.084h.9v4.435h-.91l-2.718-3.092v3.092h-.9v-4.435h.91Z" transform="translate(-514.066 -259.249)"/>
              <path id="패스_7759" data-name="패스 7759" class="cls-1" d="M624.143,262.929h3.624v.759h-3.589a.983.983,0,0,1-.664-.234.712.712,0,0,1-.274-.564v-2.833a.732.732,0,0,1,.266-.572,1.02,1.02,0,0,1,.672-.231h3.589v.771h-3.624Z" transform="translate(-504.618 -259.249)"/>
              <g id="그룹_6677" data-name="그룹 6677" transform="translate(134.924 0.004)">
                <path id="패스_7760" data-name="패스 7760" class="cls-1" d="M628.388,259.732h2.15v.771h-2.114a.981.981,0,0,1-.66-.238.656.656,0,0,1-.286-.533Z" transform="translate(-626.942 -257.829)"/>
                <path id="패스_7761" data-name="패스 7761" class="cls-1" d="M628.245,261.327v2.361h-.9v-4.435h3.588a1.02,1.02,0,0,1,.672.231.736.736,0,0,1,.27.572v1.073a.722.722,0,0,1-.274.56,1,1,0,0,1-.668.238Zm2.722-1.3h-2.722v1.133h2.722Z" transform="translate(-627.343 -259.253)"/>
              </g>
              <path id="패스_7762" data-name="패스 7762" class="cls-1" d="M634.928,259.254v4.431h-.91v-4.431" transform="translate(-472.568 -259.246)"/>
              <g id="그룹_6678" data-name="그룹 6678" transform="translate(49.929 0.004)">
                <path id="패스_7763" data-name="패스 7763" class="cls-1" d="M607.228,259.67h2.178v.759h-2.142a1,1,0,0,1-.664-.227.662.662,0,0,1-.282-.532Z" transform="translate(-604.876 -258.013)"/>
                <path id="패스_7764" data-name="패스 7764" class="cls-1" d="M610.485,262.905l-.854.767-.187.016h-2.555a.983.983,0,0,1-.664-.234.708.708,0,0,1-.27-.564v-2.833a.726.726,0,0,1,.266-.572,1,1,0,0,1,.668-.231h3.6v.771h-3.628v2.9h2.722v-1.542h-1.673v-.29h2.579Z" transform="translate(-605.955 -259.253)"/>
                <path id="패스_7765" data-name="패스 7765" class="cls-1" d="M608.374,259.951v.862a.734.734,0,0,1-.274.576,1.035,1.035,0,0,1-.671.223h-.763" transform="translate(-603.844 -257.177)"/>
              </g>
              <g id="그룹_6679" data-name="그룹 6679" transform="translate(83.723 0.004)">
                <path id="패스_7766" data-name="패스 7766" class="cls-1" d="M615.734,259.67h2.174v.759h-2.142a1.017,1.017,0,0,1-.664-.227.669.669,0,0,1-.278-.532Z" transform="translate(-613.374 -258.013)"/>
                <path id="패스_7767" data-name="패스 7767" class="cls-1" d="M618.993,262.905l-.846.767-.195.016H615.4a.973.973,0,0,1-.66-.234.705.705,0,0,1-.278-.564v-2.833a.728.728,0,0,1,.274-.572,1,1,0,0,1,.664-.231h3.6v.771h-3.624v2.9h2.718v-1.542h-1.669v-.29h2.575Z" transform="translate(-614.459 -259.253)"/>
                <path id="패스_7768" data-name="패스 7768" class="cls-1" d="M616.883,259.951v.862a.738.738,0,0,1-.278.576,1.025,1.025,0,0,1-.668.223h-.767" transform="translate(-612.345 -257.177)"/>
              </g>
              <path id="패스_7769" data-name="패스 7769" class="cls-1" d="M639.366,262.337v-3.084h.906v4.435h-.91l-2.714-3.092v3.092h-.906v-4.435h.906Z" transform="translate(-467.441 -259.249)"/>
              <g id="그룹_6680" data-name="그룹 6680" transform="translate(61.636 0.004)">
                <path id="패스_7770" data-name="패스 7770" class="cls-1" d="M609.8,263.688h-.9v-4.435h.906Z" transform="translate(-608.901 -259.253)"/>
                <path id="패스_7771" data-name="패스 7771" class="cls-1" d="M610.721,263.688h-.9v-4.435h.906Z" transform="translate(-606.171 -259.253)"/>
                <path id="패스_7772" data-name="패스 7772" class="cls-1" d="M610.507,262.563c-.239,0-.509-.441-.509-.441l-.874-1.407v-1.462l1.383,2.142Z" transform="translate(-608.238 -259.253)"/>
                <path id="패스_7773" data-name="패스 7773" class="cls-1" d="M609.472,262.563c.234,0,.5-.441.5-.441l.882-1.407v-1.462l-1.379,2.142Z" transform="translate(-607.203 -259.253)"/>
              </g>
              <g id="그룹_6681" data-name="그룹 6681" transform="translate(94.775 0.004)">
                <path id="패스_7774" data-name="패스 7774" class="cls-1" d="M618.142,263.688h-.9v-4.435h.906Z" transform="translate(-617.24 -259.253)"/>
                <path id="패스_7775" data-name="패스 7775" class="cls-1" d="M619.056,263.688h-.9v-4.435h.906Z" transform="translate(-614.51 -259.253)"/>
                <path id="패스_7776" data-name="패스 7776" class="cls-1" d="M618.842,262.563c-.235,0-.5-.441-.5-.441l-.882-1.407v-1.462l1.379,2.142Z" transform="translate(-616.577 -259.253)"/>
                <path id="패스_7777" data-name="패스 7777" class="cls-1" d="M617.81,262.563c.234,0,.5-.441.5-.441l.878-1.407v-1.462l-1.383,2.142Z" transform="translate(-615.545 -259.253)"/>
              </g>
            </g>
            <g id="그룹_6683" data-name="그룹 6683">
              <path id="패스_7778" data-name="패스 7778" class="cls-2" d="M600.62,252.514h0c-11.441.3-18.507,8.393-18.507,17.024v0c0,8.623,7.066,16.714,18.507,17.021h0c11.441-.306,18.511-8.4,18.511-17.021v0C619.13,260.907,612.061,252.816,600.62,252.514Zm16.667,17.024c0,8.067-5.086,15.8-16.667,16.186h0c-11.576-.385-16.659-8.119-16.659-16.186h0c0-8.075,5.083-15.808,16.659-16.19h0c11.58.382,16.667,8.115,16.667,16.19Z" transform="translate(-582.113 -252.514)"/>
            </g>
            <g id="그룹_6684" data-name="그룹 6684" transform="translate(7.32 0.833)">
              <path id="패스_7779" data-name="패스 7779" class="cls-2" d="M586.771,260.871Z" transform="translate(-575.582 -228.493)"/>
              <path id="패스_7780" data-name="패스 7780" class="cls-2" d="M586.771,252.724Z" transform="translate(-575.582 -252.724)"/>
              <path id="패스_7781" data-name="패스 7781" class="cls-2" d="M604.544,264.169v0l-9.2,11.2-.87-1.168,9.124-11.183-3.736-4.542L590.719,269.6l-.87-1.168,9.068-11.115-3.775-4.59-9.4,11.445a7.3,7.3,0,0,0-1.788,4.745v0a7.29,7.29,0,0,0,1.788,4.733l9.4,11.449,9.4-11.449a7.3,7.3,0,0,0,1.784-4.733v0A7.31,7.31,0,0,0,604.544,264.169Z" transform="translate(-583.955 -252.722)"/>
            </g>
          </g>
        </g>
      </g>
    </g>
  </g>
</svg>
