<svg xmlns="http://www.w3.org/2000/svg" xmlns:xlink="http://www.w3.org/1999/xlink" width="208.562" height="33.183" viewBox="0 0 208.562 33.183">
  <defs>
    <style>
      .cls-1 {
        fill: #1a1311;
      }

      .cls-2 {
        fill: url(#radial-gradient);
      }

      .cls-3 {
        fill: #003288;
      }
    </style>
    <radialGradient id="radial-gradient" cx="0.792" cy="0.491" r="0.62" gradientTransform="translate(-63.802 14.605) scale(1.45 0.909)" gradientUnits="objectBoundingBox">
      <stop offset="0" stop-color="#c8e9fb"/>
      <stop offset="0.534" stop-color="#3ab9ef"/>
      <stop offset="1" stop-color="#008fd6"/>
    </radialGradient>
  </defs>
  <g id="그룹_6738" data-name="그룹 6738" transform="translate(-104.723 -55.325)">
    <g id="그룹_6733" data-name="그룹 6733">
      <g id="그룹_6731" data-name="그룹 6731">
        <g id="그룹_6730" data-name="그룹 6730">
          <g id="그룹_6729" data-name="그룹 6729">
            <g id="그룹_6728" data-name="그룹 6728">
              <path id="패스_7989" data-name="패스 7989" class="cls-1" d="M235.854,56.617h-1.879v10.8h1.879v-5.6h1.9v-1.7h-1.9Z"/>
              <path id="패스_7990" data-name="패스 7990" class="cls-1" d="M226.207,69.926V66.6h-1.893v3.6c0,1.126.625,1.906,2.237,1.906h9.47V70.395h-9.47C226.185,70.395,226.207,70.2,226.207,69.926Z"/>
              <path id="패스_7991" data-name="패스 7991" class="cls-1" d="M227.8,66.2a4.059,4.059,0,0,0,3.447-6.375h1.527V58.057h-3.988v-1.75H226.93v1.75h-4.059v1.767h1.463a4.138,4.138,0,0,0-.709,2.287A4.008,4.008,0,0,0,227.8,66.2Zm-.106-6.375h.106a2.309,2.309,0,1,1-.106,0Z"/>
              <path id="패스_7992" data-name="패스 7992" class="cls-1" d="M251.074,58.7c0-1.108-.625-1.89-2.254-1.89h-8.851v1.681h8.851c.383,0,.383.138.383.433v3.813H238.6v1.7h6.016v2.2h1.871v-2.2h6.092v-1.7h-1.508Z"/>
              <path id="패스_7993" data-name="패스 7993" class="cls-1" d="M248.82,66.637h-8.851v1.681h8.851c.383,0,.383.139.383.434v3.375h1.871v-3.6C251.074,67.418,250.449,66.637,248.82,66.637Z"/>
              <path id="패스_7994" data-name="패스 7994" class="cls-1" d="M266.273,56.617H264.4V62.39h-7.8c-.363,0-.363-.122-.363-.4V56.808h-1.857V62.2c0,1.11.611,1.89,2.22,1.89h7.8v.969h1.871V61.332h1.871V59.65h-1.871Z"/>
              <path id="패스_7995" data-name="패스 7995" class="cls-1" d="M276.9,62.6h4.719V60.879h-9.078c-.381,0-.381-.137-.381-.4V58.506h9.3v-1.7H270.283v3.88c0,1.13.625,1.909,2.254,1.909h2.486v1.212h-6.111v1.734h3.68a4.244,4.244,0,0,0-1.285,3,4.643,4.643,0,0,0,9.281,0,4.216,4.216,0,0,0-1.315-3h3.709V63.809H276.9Zm1.844,5.973a2.795,2.795,0,0,1-5.586,0,2.707,2.707,0,0,1,2.67-2.615h.125A2.735,2.735,0,0,1,278.74,68.57Z"/>
              <path id="패스_7996" data-name="패스 7996" class="cls-1" d="M286.666,70.027V69.58h9.973l.023-.5v-1.9c0-1.109-.6-1.89-2.234-1.89l-9.635.025v1.7l9.635-.009c.365,0,.365.1.365.382v.451l-.024.042h-9.976v2.354c0,1.112.605,1.891,2.238,1.891h9.783V70.411h-9.783C286.666,70.411,286.666,70.307,286.666,70.027Z"/>
              <path id="패스_7997" data-name="패스 7997" class="cls-1" d="M293.068,64.328V56.617H291.2v2.391h-5.051V56.617h-1.869v5.875c0,1.074.621,1.836,2.233,1.836Zm-6.922-2.043V60.656H291.2v2.009H286.51C286.162,62.665,286.146,62.561,286.146,62.285Z"/>
              <path id="패스_7998" data-name="패스 7998" class="cls-1" d="M296.639,56.617H294.77v7.938h1.869V61.278h1.869v-1.7h-1.869Z"/>
              <path id="패스_7999" data-name="패스 7999" class="cls-1" d="M307.34,61.625h3.137v5.806h1.873V56.617h-1.873v3.311H307.34Z"/>
              <path id="패스_8000" data-name="패스 8000" class="cls-1" d="M304.055,62.023a9.19,9.19,0,0,0,4.257,3.293l.969-1.3c-2.324-1.127-4.308-2.842-4.308-4.939v-.487h3.771V56.86h-9.088v1.732h3.461v.487c0,2.1-1.937,3.9-4.223,5.025l1,1.316A9.282,9.282,0,0,0,304.055,62.023Z"/>
              <path id="패스_8001" data-name="패스 8001" class="cls-1" d="M266.277,67.486c0-1.125-.627-1.9-2.236-1.9l-6.928,0h-1.89v1.716h0V70.2c0,1.126.619,1.906,2.234,1.906h6.926v0h1.89V70.393h0Zm-8.816,2.907c-.365,0-.348-.19-.348-.467V67.295l6.93,0c.361,0,.342.188.342.466v2.629Z"/>
            </g>
            <path id="패스_8002" data-name="패스 8002" class="cls-1" d="M302.525,69.908V66.264h-1.892v3.921c0,1.128.625,1.906,2.234,1.906h9.483V70.375h-9.483C302.5,70.375,302.525,70.185,302.525,69.908Z"/>
          </g>
        </g>
      </g>
      <g id="그룹_6732" data-name="그룹 6732">
        <path id="패스_8003" data-name="패스 8003" class="cls-1" d="M231.293,85.383,227.16,80.94l3.871-3.62c.053-.048.069-.105-.006-.105h-1.763a.118.118,0,0,0-.1.049L225.8,80.518v-3.2c0-.1,0-.1-.1-.1h-1.291c-.1,0-.1.029-.1.1v8.019c0,.121,0,.125.1.125h1.291c.1,0,.1,0,.1-.1v-3.92l3.166,3.545a1.248,1.248,0,0,0,1.1.475h1.178C231.281,85.459,231.346,85.448,231.293,85.383Z"/>
        <path id="패스_8004" data-name="패스 8004" class="cls-1" d="M254.191,84.214h-4.14V81.8h3.736c.094,0,.1,0,.1-.1v-1.01c0-.1-.006-.1-.1-.1h-3.736V78.449h3.972c.1,0,.1,0,.1-.1V77.315c0-.1,0-.1-.1-.1h-5.246c-.095,0-.1,0-.1.1v8.044c0,.1,0,.1.1.1h5.414c.1,0,.1,0,.1-.1V84.314C254.291,84.218,254.287,84.214,254.191,84.214Z"/>
        <path id="패스_8005" data-name="패스 8005" class="cls-1" d="M238.367,78.2a4.067,4.067,0,0,0-1.385-.877,4.976,4.976,0,0,0-3.474,0,4.171,4.171,0,0,0-1.379.877,3.972,3.972,0,0,0-.906,1.365,4.857,4.857,0,0,0,0,3.5,4.014,4.014,0,0,0,2.285,2.268,4.846,4.846,0,0,0,3.474,0,4.1,4.1,0,0,0,1.385-.894,4.153,4.153,0,0,0,.914-1.374,4.545,4.545,0,0,0,.33-1.747,4.6,4.6,0,0,0-.33-1.759A4.035,4.035,0,0,0,238.367,78.2Zm-.435,4.326a2.965,2.965,0,0,1-.577.975,2.711,2.711,0,0,1-.914.65,3.018,3.018,0,0,1-1.2.236,2.9,2.9,0,0,1-1.184-.236,2.679,2.679,0,0,1-.906-.65,2.917,2.917,0,0,1-.58-.975,3.464,3.464,0,0,1-.209-1.2,3.421,3.421,0,0,1,.209-1.186,3.042,3.042,0,0,1,.576-.979,2.705,2.705,0,0,1,.9-.66,2.9,2.9,0,0,1,1.2-.24,2.96,2.96,0,0,1,1.2.238,2.816,2.816,0,0,1,.907.662,2.942,2.942,0,0,1,.58.979,3.353,3.353,0,0,1,.207,1.186A3.445,3.445,0,0,1,237.932,82.529Z"/>
        <path id="패스_8006" data-name="패스 8006" class="cls-1" d="M263.125,85.383l-3.336-8.061c-.027-.064-.041-.107-.111-.107H258.7c-.07,0-.086.043-.113.107l-3.3,8.033c-.027.067-.021.1.055.1h.9a.668.668,0,0,0,.721-.516l.613-1.491h3.262l.611,1.491a.669.669,0,0,0,.721.516h.914C263.125,85.459,263.152,85.448,263.125,85.383Zm-5.072-3.165.082-.21,1.043-2.559,1.144,2.769Z"/>
        <path id="패스_8007" data-name="패스 8007" class="cls-1" d="M305.887,77.215h1.156a.625.625,0,0,1,.576.328l1.932,3.156,1.965-3.179a.609.609,0,0,1,.562-.305h1.1c.066,0,.138-.006.093.058l-3.041,4.592-.021.037v3.457c0,.1-.027.1-.123.1h-1.135c-.1,0-.123,0-.123-.1V81.9l-3.006-4.552C305.762,77.26,305.771,77.215,305.887,77.215Z"/>
        <path id="패스_8008" data-name="패스 8008" class="cls-1" d="M305.176,78.349l-.752.782c-.033.033-.074.083-.164,0a3.145,3.145,0,0,0-.891-.608,3.1,3.1,0,0,0-1.191-.227,2.987,2.987,0,0,0-1.215.243,2.779,2.779,0,0,0-.922.662,3.035,3.035,0,0,0-.584.983,3.4,3.4,0,0,0-.207,1.192,3.5,3.5,0,0,0,.207,1.209,2.929,2.929,0,0,0,.584.98,2.657,2.657,0,0,0,.93.652,3.1,3.1,0,0,0,1.236.238,4.807,4.807,0,0,0,1.01-.1,3.281,3.281,0,0,0,.633-.2l.089-.045V82.088h-1.67c-.093,0-.1,0-.1-.1v-1c0-.1,0-.1.1-.1H305.2c.1,0,.1.006.1.1v3.894a.132.132,0,0,1-.09.126,5.86,5.86,0,0,1-1.383.519,7.111,7.111,0,0,1-1.656.184,4.81,4.81,0,0,1-1.768-.318,4,4,0,0,1-2.3-2.27,4.848,4.848,0,0,1,0-3.506,4.054,4.054,0,0,1,.92-1.363,4.254,4.254,0,0,1,1.391-.88,4.8,4.8,0,0,1,1.74-.311,4.982,4.982,0,0,1,1.756.29,3.943,3.943,0,0,1,1.254.749c.082.074.121.1.088.156A.446.446,0,0,1,305.176,78.349Z"/>
        <path id="패스_8009" data-name="패스 8009" class="cls-1" d="M281.691,77.215h-1.144c-.1,0-.123,0-.123.1v6.163l-.291-.455-.024-.033c-.568-.885-2.488-3.871-3.3-5.07l-.052-.088a1.133,1.133,0,0,0-1.08-.617H274.8c-.1,0-.1,0-.1.1v8.021c0,.1-.006.123.072.123H276c.07,0,.074,0,.074-.1V79.2l3.662,5.639a1.138,1.138,0,0,0,1.08.617h.873c.1,0,.1,0,.1-.123V77.289C281.791,77.219,281.789,77.215,281.691,77.215Z"/>
        <path id="패스_8010" data-name="패스 8010" class="cls-1" d="M294.967,81.76l.2-.059a2.533,2.533,0,0,0,1.084-.635,2.052,2.052,0,0,0,.578-1.511,2.308,2.308,0,0,0-.238-1.093,2.048,2.048,0,0,0-.656-.73,2.848,2.848,0,0,0-.952-.394,5.112,5.112,0,0,0-1.123-.123h-2.89c-.1,0-.125.029-.125.125v8c0,.1.029.123.125.123h1.119c.1,0,.125-.026.125-.123V81.9h1.324l.045.079,1.607,2.812c.3.509.467.666.967.666h.987c.062,0,.054-.043.023-.1Zm-.557-1.11a3.653,3.653,0,0,1-.707.066h-1.49v-2.3h1.57a3.466,3.466,0,0,1,.664.061,1.621,1.621,0,0,1,.526.191.985.985,0,0,1,.345.349,1.008,1.008,0,0,1,.129.538,1.024,1.024,0,0,1-.129.539.974.974,0,0,1-.355.352A1.767,1.767,0,0,1,294.41,80.65Z"/>
        <path id="패스_8011" data-name="패스 8011" class="cls-1" d="M244.992,81.759l.2-.06a2.511,2.511,0,0,0,1.084-.634,2.042,2.042,0,0,0,.578-1.51,2.291,2.291,0,0,0-.24-1.094,2.012,2.012,0,0,0-.654-.729,2.918,2.918,0,0,0-.951-.4,5.108,5.108,0,0,0-1.121-.121h-2.895c-.094,0-.123.029-.123.124v8c0,.1.029.125.123.125h1.121c.1,0,.125-.028.125-.125V81.9h1.324l.045.078,1.606,2.813c.3.509.469.666.969.666h.986c.062,0,.057-.043.025-.1Zm-.555-1.111a3.682,3.682,0,0,1-.709.066h-1.49v-2.3h1.571a3.4,3.4,0,0,1,.664.061,1.618,1.618,0,0,1,.527.189,1.052,1.052,0,0,1,.346.35,1.033,1.033,0,0,1,.129.539,1.05,1.05,0,0,1-.129.54,1.019,1.019,0,0,1-.358.35A1.745,1.745,0,0,1,244.437,80.648Z"/>
        <path id="패스_8012" data-name="패스 8012" class="cls-1" d="M273.057,84.214h-4.141V81.8h3.734c.1,0,.1,0,.1-.1V80.691c0-.1,0-.1-.1-.1h-3.734V78.449h3.973c.093,0,.1,0,.1-.1V77.315c0-.1-.006-.1-.1-.1h-5.246c-.1,0-.1,0-.1.1v8.044c0,.1,0,.1.1.1h5.414c.1,0,.1,0,.1-.1V84.314C273.156,84.219,273.152,84.214,273.057,84.214Z"/>
        <path id="패스_8013" data-name="패스 8013" class="cls-1" d="M289.2,84.214h-4.142V81.8h3.736c.094,0,.1,0,.1-.1V80.691c0-.1,0-.1-.1-.1h-3.736V78.449h3.972c.1,0,.1,0,.1-.1V77.315c0-.1,0-.1-.1-.1h-5.244c-.094,0-.1,0-.1.1v8.044c0,.1.005.1.1.1H289.2c.1,0,.1,0,.1-.1V84.314C289.293,84.219,289.291,84.214,289.2,84.214Z"/>
      </g>
    </g>
    <g id="그룹_6737" data-name="그룹 6737">
      <g id="그룹_6736" data-name="그룹 6736">
        <path id="패스_8014" data-name="패스 8014" class="cls-2" d="M146.055,72.729a13.1,13.1,0,0,1,6.121-11.935,11.04,11.04,0,0,0-6.436-1.585c-6.535.419-11.541,6.472-11.183,13.52s5.945,12.42,12.478,12a11.207,11.207,0,0,0,5.049-1.588A12.833,12.833,0,0,1,146.055,72.729Z"/>
        <g id="그룹_6735" data-name="그룹 6735">
          <g id="그룹_6734" data-name="그룹 6734">
            <path id="패스_8015" data-name="패스 8015" class="cls-3" d="M163.814,79.512c-.32,0-.449-.059-.379-.467l.758-4.139.1-.509c.051-.346.182-.4.412-.4h13.6c.644,0,.654-.46.736-1.011l.646-4.293c.049-.362.041-.6-.437-.6H165.941c-.322,0-.453-.06-.379-.467l.758-4.138c.049-.345.182-.4.412-.4H177.1c2.122,0,4.782-.54,5.35-3.955l.215-1.7c.033-.305.051-.616-.428-.616H156.48a3.683,3.683,0,0,1-1.437-.317,26.341,26.341,0,0,0-4.965-1.059c-10.943-1.171-18.4,6.442-18.644,16.075-.182,7.04,4.867,16.989,16.025,16.989a26.882,26.882,0,0,0,10.912-2.38,5.245,5.245,0,0,1,2.1-.618h17.464c.565,0,.711-.164.791-.714l.717-4.7c.039-.246.078-.586-.367-.586H163.814ZM160.766,63.6c-.846.518-2.282,1.485-2.754,1.809-.766.527-.887.661-.493,1.748a.237.237,0,0,1,.008.031,14.76,14.76,0,0,1,.688,4.021c.359,7.048-4.649,13.1-11.18,13.521s-12.119-4.955-12.478-12,4.648-13.1,11.183-13.52a11.077,11.077,0,0,1,6.574,1.665c.008,0,.014.008.022.011.06.042.119.088.18.135a2.454,2.454,0,0,1,.23.138c2.412,1.65,2.648,1.968,5.613,1.968h2.307C161.144,63.126,161.1,63.391,160.766,63.6Z"/>
          </g>
          <path id="패스_8016" data-name="패스 8016" class="cls-3" d="M203.182,78.755l-.452-1.391a.58.58,0,0,1-.023-.065l-5.443-16.746c-.907-2.6-2-3.733-4.817-3.733h-6.67c-.494,0-.695.1-.765.584L180.8,85c-.063.394.135.515.457.515H187.3c.383,0,.531-.146.6-.613l3.313-21.98s.088-.214.16.014c.7,2.206,4.537,14.2,5.941,18.489A5.466,5.466,0,0,0,203,85.51h5.613c.457,0,.692-.278.764-.75,1.031-6.814,4.215-27.373,4.215-27.373a.449.449,0,0,0-.489-.567h-6.082c-.492,0-.736.1-.806.584L203.33,78.762C203.307,78.869,203.223,78.88,203.182,78.755Z"/>
          <path id="패스_8017" data-name="패스 8017" class="cls-3" d="M114.873,71.033s-1.629,10.3-2.178,13.73c-.07.451-.17.736-.636.736h-6.813c-.281,0-.551-.146-.521-.489l4.07-27.7a.512.512,0,0,1,.539-.467h7.019c.311,0,.508.2.459.478l-1.755,12.26c-.024.147.117.212.25.083L126.627,57.5a1.318,1.318,0,0,1,1.228-.49h7.825c.277,0,.425.249.187.544L123.9,70.443c-.246.278-.094.423.115.755L134.17,84.913c.123.173.146.3.1.4-.043.131-.17.19-.367.19h-3.433c-2.643,0-4.965.085-7.61-3.65l-7.687-10.834C115.1,70.878,114.926,70.745,114.873,71.033Z"/>
        </g>
      </g>
    </g>
  </g>
</svg>
