<svg xmlns="http://www.w3.org/2000/svg" width="197.011" height="46.684" viewBox="0 0 197.011 46.684">
    <defs>
        <style>
            .cls-3{fill:#474645}
        </style>
    </defs>
    <g id="partners_logo3" transform="translate(-292.964 -315.181)">
        <path id="패스_6092" data-name="패스 6092" d="M329.007 337.46a8.417 8.417 0 0 0-11.973 2.513 8.426 8.426 0 0 1-15.231-2.317l-.024-.088a1.85 1.85 0 0 1-.027-.107 10.81 10.81 0 0 1-.43-3.347c0-7.551 7.744-15.957 18.9-15.957 11.424 0 17.96 8.7 19.644 13.532a11 11 0 0 0-.085-.257 24.061 24.061 0 0 0-46.819 7.805c0 11.876 8.565 22.042 20.447 22.042 9.478 0 15.846-5.314 18.767-12.636a9.272 9.272 0 0 0-3.172-11.184" style="fill:#002a56"/>
        <path id="패스_6093" data-name="패스 6093" d="M340.538 332.344a21.209 21.209 0 0 0-19.8-14c-11.159 0-18.9 8.406-18.9 15.957a10.81 10.81 0 0 0 .43 3.347 7.065 7.065 0 0 1-.222-1.717c0-7.862 7.875-13.311 15.966-13.311a19.837 19.837 0 0 1 19.838 19.835 21.866 21.866 0 0 1-12.124 19.593 24.064 24.064 0 0 0 15.874-22.625 23.733 23.733 0 0 0-1.058-7.079" transform="translate(-.52 -.185)" style="fill:#dc0021"/>
        <path id="패스_6094" data-name="패스 6094" class="cls-3" d="M372.868 343.163v6.7h-2.392v-4.612h-12.654v-2.091h6.446v-2.82h-7.652v-2.091h17.675v2.091h-7.652v2.823zm0-12.179v5.734h-2.392V333.1h-12.438v-2.113z" transform="translate(-3.73 -.926)"/>
        <path id="패스_6095" data-name="패스 6095" class="cls-3" d="M378 344.877v-2.113h17.674v2.113h-7.652v4.957h-2.392v-4.957zm1.422-13.709h14.829v8.579h-14.828zm12.459 2.091h-10.108v4.4h10.109z" transform="translate(-4.982 -.937)"/>
        <path id="패스_6096" data-name="패스 6096" class="cls-3" d="M406.781 339.513v-2.005h2.393v2.005h7.652v1.961H399.15v-1.961zm-6.315-5.454v-2.005h6.273v-2.068h2.478v2.068h6.273v2.005h-6.057l6.229 3.147-1.056 1.7-6.616-3.427-6.618 3.427-1.056-1.7 6.229-3.147zm11.983 12.286a3.738 3.738 0 0 1-.355 1.616 4.238 4.238 0 0 1-.959 1.315 4.513 4.513 0 0 1-3.146 1.251 4.511 4.511 0 0 1-1.736-.335 4.461 4.461 0 0 1-1.412-.916 4.253 4.253 0 0 1-.959-1.315 3.738 3.738 0 0 1-.355-1.616 3.662 3.662 0 0 1 .355-1.605 4.573 4.573 0 0 1 .959-1.326 4.339 4.339 0 0 1 1.412-.906 4.823 4.823 0 0 1 3.47 0 4.339 4.339 0 0 1 1.412.906 4.556 4.556 0 0 1 .959 1.326 3.662 3.662 0 0 1 .355 1.605m-2.283-.043a2.177 2.177 0 1 0-4.354 0 2.132 2.132 0 0 0 .635 1.552 2.162 2.162 0 0 0 3.082 0 2.134 2.134 0 0 0 .637-1.552" transform="translate(-6.222 -.867)"/>
        <path id="패스_6097" data-name="패스 6097" class="cls-3" d="M432.034 347.148h-10.583v-8.795h7.415v-4.483h-7.415v-2.112h9.808v8.686h-7.436v4.613h8.212zm3.017-16.576h2.393V349.8h-2.393z" transform="translate(-7.528 -.902)"/>
        <path id="패스_6098" data-name="패스 6098" class="cls-3" d="M442.836 331.628h2.35v4.807h5.172v-4.807h2.35v15.52h-9.872zm7.522 6.876h-5.172v6.575h5.172zm6.079-7.932h2.392V349.8h-2.392z" transform="translate(-8.781 -.902)"/>
        <path id="패스_6099" data-name="패스 6099" class="cls-3" d="m468.645 330.7 6.336 15.542-2.132.927-4.2-10.541-4.182 10.691-2.156-.948zm8.513 8.579h-3.771v-2.112h3.771v-6.6h2.392V349.8h-2.392z" transform="translate(-9.922 -.902)"/>
        <path id="패스_6100" data-name="패스 6100" class="cls-3" d="m489.907 330.3 6.058 7.544-1.7 1.379-4.354-5.5-4.331 5.669-1.746-1.4zm-4.073 10.325h15.11v5.259h-12.718v1.616h12.932v1.962h-15.324v-5.367h12.717V342.5h-12.717zm12.717-10.066h2.393v8.731h-2.393z" transform="translate(-11.183 -.886)"/>
    </g>
</svg>
