<svg xmlns="http://www.w3.org/2000/svg" width="200.531" height="60.009" viewBox="0 0 200.531 60.009">
  <defs>
    <style>
      .cls-1 {
        fill: #1a1818;
      }

      .cls-1, .cls-2, .cls-3, .cls-4, .cls-5, .cls-6, .cls-7 {
        fill-rule: evenodd;
      }

      .cls-2 {
        fill: #818386;
      }

      .cls-3 {
        fill: #65c4ef;
      }

      .cls-4 {
        fill: #2899c8;
      }

      .cls-5 {
        fill: #00608e;
      }

      .cls-6 {
        fill: #00122b;
      }

      .cls-7 {
        fill: #003e67;
      }
    </style>
  </defs>
  <g id="그룹_6810" data-name="그룹 6810" transform="translate(-100.381 -213.621)">
    <path id="패스_8538" data-name="패스 8538" class="cls-1" d="M312.2,248.38h2.036v4.036h7.74v2.133H311.523v-5.48a21.118,21.118,0,0,1-1.847,1.547l-1.427-2.007c1-.758,2.313-1.859,2.615-3.086h-4.059v-2.131h2.865a3.84,3.84,0,0,1-2.056-3.252c0-2.219,2.233-4.019,4.987-4.019s4.987,1.8,4.987,4.019a3.838,3.838,0,0,1-2.056,3.252h3.626V236.3h2.715v14.526h-2.715v-1.842h-3.032v-2.13h3.032v-1.327H313.94a7.337,7.337,0,0,1-1.737,2.857Zm-132.417-5.606c-1.466,2.16-4.065,3.563-6.738,4.562l-1.092-1.862c3.748-1.612,6.288-3.463,6.562-6.561h-3.491a6.335,6.335,0,0,1-3.071-.752l1.015-1.865a4.11,4.11,0,0,0,2.056.486h6.309v1.23a7.767,7.767,0,0,1-.394,2.491H184.3V236.3h2.716v12.963H184.3v-6.625H179.88l-.094.14Zm-.234,4.43h-2.716v7.345h10.455v-2.132h-7.739V247.2Zm30.988-7.771a5.922,5.922,0,0,0-.85-3.314l-2.474.977a4.317,4.317,0,0,1,.61,2.477v8.266h4.441v3.519h-7.109v2.132h16.989v-2.132h-7.165V247.84h4.5V236.3h-2.715V240.5H210.54v-1.069Zm6.225,6.274H210.54v-3.073h6.225v3.073Zm79.037-6.794h-3.063a6.334,6.334,0,0,1-3.072-.752l1.015-1.865a4.112,4.112,0,0,0,2.058.486h6.179a30.278,30.278,0,0,1-.743,5.745,14.309,14.309,0,0,1-7.266,9.429l-1.422-1.9c3.564-2.149,6.225-5.135,6.316-11.147Zm7.836-2.617h-2.716v18.253h2.716V242.635h2.27V240.5h-2.271V236.3Zm-20.4,12.3a2.125,2.125,0,1,1-2.339,2.114,2.235,2.235,0,0,1,2.339-2.114Zm5.123-12.3h-2.716v2.562h-2.559v2.058h2.559v1.632h-2.559v1.269h-1.155v-4.9h.79v-2.132H275.9a4.116,4.116,0,0,1-2.058-.486l-1.014,1.865a6.334,6.334,0,0,0,3.072.752h3.322v4.9h-2V239.8h-2.569v4.014h-1.507v2.132h10.224v-1.342h2.27v1.95h2.716V236.3Zm-5.123,10.262c-2.923,0-5.29,1.859-5.29,4.154s2.367,4.154,5.29,4.154,5.291-1.859,5.291-4.154-2.369-4.154-5.291-4.154ZM269.806,236.3H267.09v18.253h2.716V242.635H272.3V240.5h-2.494V236.3Zm-5.036,15.26-4.043-5.057a19.232,19.232,0,0,1-4.066,5l-1.542-1.861a15.66,15.66,0,0,0,2.974-3.895,12.3,12.3,0,0,0,1.3-5.561V236.3H262.2v3.331a22.226,22.226,0,0,1-.361,4.1l4.9,5.758-1.967,2.074Zm-13.343.86h-4.8v-3.1h4.8v3.1Zm2.715-16.119h-2.715v10.262h2.715V236.3Zm-9.943,6.357c-.689,1.346-3,3.129-4.414,3.905l-1.4-1.857a11.579,11.579,0,0,0,2.9-2.4,7.543,7.543,0,0,0,1.4-4.451V236.3h2.769v1.556a12.206,12.206,0,0,1-.267,2.526l5.035,4.081L248.6,246.51l-4.4-3.856Zm-.287,4.518v7.378h10.231v-7.378Zm-12.7-8.44H226.7a6.346,6.346,0,0,1-3.072-.752l1.015-1.866a4.1,4.1,0,0,0,2.057.486h4.517v2.132Zm3.569,13.685h-4.8v-3.1h4.8v3.1Zm-7.516-5.244v7.378H237.5v-7.378Zm4.324-5.972-2.391.924a.8.8,0,0,1,.482.651,1.849,1.849,0,0,1-2.041,1.819c-1.186,0-1.979-.64-1.979-1.639.054-1.759,2.05-1.981,3.027-1.981h3.946v1.66h2.147v3.923H237.5V236.3h-2.715V240.7h-1.5v-1.66H222.74v1.929h1.169a2.716,2.716,0,0,0-.934,2.218c0,2.244,2.12,3.366,4.665,3.366s4.6-1.147,4.6-3.366a3.134,3.134,0,0,0-.652-1.993Zm-33.778,5.359c2.921,0,5.29,1.859,5.29,4.154s-2.369,4.154-5.29,4.154-5.291-1.859-5.291-4.154,2.369-4.154,5.291-4.154Zm5.043-10.262H200.14v10.262h2.715v-3.923H204.9V240.5h-2.041V236.3Zm-5.045,12.3a2.125,2.125,0,1,0,2.339,2.114,2.234,2.234,0,0,0-2.339-2.114Zm-.836-5.823a8.116,8.116,0,0,0,1.552-4.762v-1.23h-6.31a4.107,4.107,0,0,1-2.056-.486l-1.015,1.865a6.341,6.341,0,0,0,3.072.752h3.49c-.275,3.1-2.815,4.948-6.562,6.561l1.092,1.862c2.674-1,5.271-2.4,6.738-4.562ZM312.6,237.963a2.22,2.22,0,1,0,2.209,2.22A2.215,2.215,0,0,0,312.6,237.963Z" transform="translate(-21.067 -6.62)"/>
    <path id="패스_8539" data-name="패스 8539" class="cls-2" d="M171.956,269.309h.891v1.965h1.632v-1.965h.891V274h-.891v-2.19h-1.632V274h-.891v-4.693Zm4.205,0H178.9v.537h-1.85v1.442h1.754v.538h-1.754v1.611h1.912V274h-2.8v-4.693Zm4.451,0h.912L183.156,274h-.946l-.408-1.334h-1.6L179.782,274h-.788l1.618-4.693Zm-.251,2.864h1.291l-.633-2.074h-.012l-.646,2.074Zm3.1-2.864h.891v4.127H186.1V274h-2.646v-4.693Zm3.574.537V274h.89v-4.156h1.129v-.537H185.9v.537Zm2.321-.537h.891v1.965h1.633v-1.965h.891V274h-.891v-2.19h-1.633V274h-.891v-4.693Zm6.426,0h.892V274h-.892v-4.693Zm1.7,0h.972l1.817,3.482h.012v-3.482h.728V274h-.883l-1.905-3.653H198.2V274h-.728v-4.693Zm6.824.782c-.041-.018-.106-.045-.194-.081s-.191-.073-.31-.109a3.307,3.307,0,0,0-.38-.091,2.224,2.224,0,0,0-.409-.037.752.752,0,0,0-.463.132.416.416,0,0,0-.176.351.536.536,0,0,0,.171.4,2.17,2.17,0,0,0,.425.315q.254.15.551.3a3.645,3.645,0,0,1,.55.344,1.807,1.807,0,0,1,.426.452,1.108,1.108,0,0,1,.169.62,1.4,1.4,0,0,1-.136.646,1.164,1.164,0,0,1-.37.432,1.564,1.564,0,0,1-.562.242,3.163,3.163,0,0,1-.7.074,3,3,0,0,1-.411-.027c-.133-.018-.258-.039-.372-.061s-.212-.045-.3-.068-.149-.042-.19-.054v-.831c.091.055.19.113.3.174a2.9,2.9,0,0,0,.344.164,2.731,2.731,0,0,0,.379.119,1.662,1.662,0,0,0,.394.048,1.185,1.185,0,0,0,.237-.027.835.835,0,0,0,.243-.092.535.535,0,0,0,.183-.176.5.5,0,0,0,.071-.276.664.664,0,0,0-.164-.452,1.829,1.829,0,0,0-.411-.344c-.165-.1-.346-.207-.538-.307a3.358,3.358,0,0,1-.537-.344,1.78,1.78,0,0,1-.412-.447,1.147,1.147,0,0,1-.163-.63,1.068,1.068,0,0,1,.411-.891,1.885,1.885,0,0,1,1.174-.319c.123,0,.244,0,.367.017s.236.023.34.037.2.028.276.042.142.025.187.034v.728Zm4.178,2.312a3.779,3.779,0,0,1-.049.616,1.227,1.227,0,0,1-.227.538,1.215,1.215,0,0,1-.519.378,2.393,2.393,0,0,1-.911.143,2.343,2.343,0,0,1-.9-.143,1.194,1.194,0,0,1-.512-.378,1.238,1.238,0,0,1-.223-.538,3.628,3.628,0,0,1-.051-.616v-3.094h.89V272.4a4.157,4.157,0,0,0,.028.5,1.031,1.031,0,0,0,.116.385.632.632,0,0,0,.241.248.828.828,0,0,0,.412.089.91.91,0,0,0,.433-.089.594.594,0,0,0,.243-.248,1.1,1.1,0,0,0,.112-.385,4.318,4.318,0,0,0,.028-.5v-3.094h.89V272.4Zm.744-3.094h1.068a6.344,6.344,0,0,1,.745.041,1.957,1.957,0,0,1,.629.169,1.058,1.058,0,0,1,.435.371,1.13,1.13,0,0,1,.163.643.985.985,0,0,1-.334.778,1.091,1.091,0,0,1-.315.2,2.557,2.557,0,0,1-.33.112v.015a1.132,1.132,0,0,1,.418.152.83.83,0,0,1,.252.251,1.294,1.294,0,0,1,.142.33c.035.123.066.252.092.387l.266,1.246h-.892l-.169-.885a5.545,5.545,0,0,0-.129-.543,1.175,1.175,0,0,0-.174-.364.587.587,0,0,0-.269-.2,1.223,1.223,0,0,0-.429-.062h-.278V274h-.892v-4.693Zm.892,2.142h.176a2.37,2.37,0,0,0,.435-.037.923.923,0,0,0,.34-.133.639.639,0,0,0,.224-.26.93.93,0,0,0,.081-.421.875.875,0,0,0-.091-.438.582.582,0,0,0-.241-.237.928.928,0,0,0-.347-.1,3.731,3.731,0,0,0-.4-.02h-.176v1.646Zm3.933-2.142L212.428,274h.79l.422-1.334h1.6l.41,1.334h.945l-1.633-4.693Zm-.252,2.864.646-2.074h.013l.633,2.074Zm3.1-2.864h.973l1.816,3.482h.014v-3.482h.728V274h-.885l-1.9-3.653h-.014V274h-.728v-4.693Zm7.513,4.475c-.15.059-.338.123-.562.19a2.6,2.6,0,0,1-.765.1,2.019,2.019,0,0,1-.946-.2,1.8,1.8,0,0,1-.633-.551,2.353,2.353,0,0,1-.356-.8,4.04,4.04,0,0,1-.014-1.842,2.109,2.109,0,0,1,.327-.742,1.641,1.641,0,0,1,.6-.509,1.924,1.924,0,0,1,.9-.191,1.8,1.8,0,0,1,1.241.367,1.264,1.264,0,0,1,.405.986h-1.013a1.752,1.752,0,0,0-.028-.3.935.935,0,0,0-.1-.3.615.615,0,0,0-.211-.224.625.625,0,0,0-.347-.089.638.638,0,0,0-.48.184,1.228,1.228,0,0,0-.278.447,2.433,2.433,0,0,0-.134.569,5.006,5.006,0,0,0-.033.533c0,.091,0,.205.007.343a3.53,3.53,0,0,0,.044.442,2.792,2.792,0,0,0,.116.466,1.477,1.477,0,0,0,.22.419,1.168,1.168,0,0,0,.358.306,1.074,1.074,0,0,0,.527.119,1.44,1.44,0,0,0,.408-.055,1.95,1.95,0,0,0,.33-.129,1.87,1.87,0,0,0,.255-.153c.073-.052.129-.095.171-.126v.735Zm.526-4.475h2.741v.537h-1.85v1.442h1.755v.538h-1.755v1.611h1.912V274h-2.8v-4.693Zm5.557,0h1.067a6.348,6.348,0,0,1,.746.041,1.952,1.952,0,0,1,.629.169,1.058,1.058,0,0,1,.435.371,1.13,1.13,0,0,1,.164.643,1.024,1.024,0,0,1-.1.462,1.014,1.014,0,0,1-.237.315,1.121,1.121,0,0,1-.318.2,2.549,2.549,0,0,1-.329.112v.015a1.122,1.122,0,0,1,.418.152.83.83,0,0,1,.252.251,1.27,1.27,0,0,1,.143.33c.034.123.066.252.092.387L233.72,274h-.891l-.17-.885a5.332,5.332,0,0,0-.13-.543,1.129,1.129,0,0,0-.174-.364.576.576,0,0,0-.269-.2,1.215,1.215,0,0,0-.428-.062h-.279V274h-.891v-4.693Zm.891,2.142h.176a2.367,2.367,0,0,0,.436-.037.918.918,0,0,0,.34-.133.646.646,0,0,0,.224-.26.939.939,0,0,0,.082-.421.882.882,0,0,0-.092-.438.58.58,0,0,0-.242-.237.921.921,0,0,0-.346-.1,3.79,3.79,0,0,0-.4-.02h-.176v1.646Zm2.812-2.142h2.742v.537h-1.85v1.442h1.755v.538h-1.755v1.611h1.911V274h-2.8v-4.693Zm2.716,0,1.6,4.693h.918l1.626-4.693h-.79l-1.217,3.619h-.013l-1.2-3.619Zm4.321,0h.891V274h-.891v-4.693Zm1.689,0h2.742v.537h-1.85v1.442h1.755v.538h-1.755v1.611h1.912V274h-2.8v-4.693Zm2.988,0h.83l.68,3.571h.013l1.244-3.571h.47l1.238,3.571h.014l.687-3.571h.687L250.843,274h-.789l-1.231-3.374h-.013L247.633,274h-.8l-.932-4.693Zm9.135,2.849a.873.873,0,0,0,.048.919.694.694,0,0,0,.652.394,1.4,1.4,0,0,0,.81-.38l-1.04-1.476a1.811,1.811,0,0,0-.47.544Zm.551-2.761a.443.443,0,0,0-.211.483,1.584,1.584,0,0,0,.2.579l.169.292a1.323,1.323,0,0,0,.348-.552.845.845,0,0,0-.049-.693.3.3,0,0,0-.462-.109Zm1.666,3.509.653.891h-.858l-.312-.428a2.151,2.151,0,0,1-1.4.49,1.233,1.233,0,0,1-1.068-.49,1.108,1.108,0,0,1-.211-.891,1.539,1.539,0,0,1,.5-.857,5.6,5.6,0,0,1,.607-.469q-.457-.844-.464-.851a.892.892,0,0,1,.171-.877,1.174,1.174,0,0,1,1.075-.354.792.792,0,0,1,.462.177.806.806,0,0,1,.279.367,1.172,1.172,0,0,1-.183,1.061,1.841,1.841,0,0,1-.456.5l1,1.436a.885.885,0,0,0,.246-.537c0-.037.006-.243.006-.62h.4l.021.429a1.332,1.332,0,0,1-.457,1.026Zm4.408-3.6h.912L264.211,274h-.946l-.408-1.334h-1.6L260.837,274h-.79l1.619-4.693Zm-.251,2.864h1.292l-.632-2.074h-.013l-.646,2.074ZM267,270.091l-.193-.081c-.089-.037-.193-.073-.31-.109a3.36,3.36,0,0,0-.381-.091,2.211,2.211,0,0,0-.408-.037.743.743,0,0,0-.461.132.414.414,0,0,0-.178.351.536.536,0,0,0,.171.4,2.208,2.208,0,0,0,.424.315c.171.1.354.2.552.3a3.651,3.651,0,0,1,.55.344,1.827,1.827,0,0,1,.425.452,1.1,1.1,0,0,1,.171.62,1.4,1.4,0,0,1-.137.646,1.161,1.161,0,0,1-.371.432,1.554,1.554,0,0,1-.56.242,3.179,3.179,0,0,1-.7.074,3.006,3.006,0,0,1-.411-.027c-.134-.018-.258-.039-.372-.061s-.212-.045-.3-.068-.15-.042-.191-.054v-.831q.137.083.3.174a2.742,2.742,0,0,0,.721.282,1.667,1.667,0,0,0,.394.048,1.2,1.2,0,0,0,.239-.027.842.842,0,0,0,.241-.092.533.533,0,0,0,.183-.176.494.494,0,0,0,.072-.276.666.666,0,0,0-.163-.452,1.834,1.834,0,0,0-.411-.344q-.249-.157-.538-.307a3.335,3.335,0,0,1-.538-.344,1.778,1.778,0,0,1-.411-.447,1.159,1.159,0,0,1-.163-.63,1.067,1.067,0,0,1,.411-.891,1.882,1.882,0,0,1,1.173-.319c.123,0,.244,0,.368.017s.235.023.339.037.2.028.275.042.142.025.188.034v.728Zm3.329,0-.195-.081c-.088-.037-.191-.073-.309-.109a3.356,3.356,0,0,0-.381-.091,2.222,2.222,0,0,0-.408-.037.751.751,0,0,0-.464.132.416.416,0,0,0-.176.351.539.539,0,0,0,.171.4,2.171,2.171,0,0,0,.425.315q.254.15.551.3a3.658,3.658,0,0,1,.551.344,1.826,1.826,0,0,1,.425.452,1.109,1.109,0,0,1,.17.62,1.4,1.4,0,0,1-.136.646,1.184,1.184,0,0,1-.37.432,1.577,1.577,0,0,1-.561.242,3.179,3.179,0,0,1-.7.074,3,3,0,0,1-.411-.027c-.136-.018-.258-.039-.372-.061s-.213-.045-.3-.068-.15-.042-.191-.054v-.831q.137.083.3.174a2.79,2.79,0,0,0,.343.164,2.827,2.827,0,0,0,.377.119,1.693,1.693,0,0,0,.4.048,1.19,1.19,0,0,0,.237-.027.816.816,0,0,0,.242-.092.529.529,0,0,0,.183-.176.5.5,0,0,0,.072-.276.664.664,0,0,0-.164-.452,1.818,1.818,0,0,0-.411-.344c-.165-.1-.345-.207-.537-.307a3.333,3.333,0,0,1-.538-.344,1.777,1.777,0,0,1-.411-.447,1.153,1.153,0,0,1-.164-.63,1.067,1.067,0,0,1,.411-.891,1.886,1.886,0,0,1,1.174-.319c.122,0,.244,0,.367.017s.236.023.339.037.2.028.276.042.142.025.188.034v.728Zm.831-.782H273.9v.537h-1.85v1.442h1.754v.538h-1.754v1.611h1.912V274h-2.8v-4.693Zm5.825.782c-.041-.018-.106-.045-.194-.081s-.192-.073-.31-.109a3.322,3.322,0,0,0-.381-.091,2.211,2.211,0,0,0-.408-.037.75.75,0,0,0-.463.132.416.416,0,0,0-.176.351.54.54,0,0,0,.169.4,2.2,2.2,0,0,0,.426.315q.254.15.551.3a3.688,3.688,0,0,1,.55.344,1.856,1.856,0,0,1,.426.452,1.109,1.109,0,0,1,.17.62,1.409,1.409,0,0,1-.136.646,1.169,1.169,0,0,1-.372.432,1.544,1.544,0,0,1-.561.242,3.148,3.148,0,0,1-.7.074,3.031,3.031,0,0,1-.411-.027c-.134-.018-.258-.039-.37-.061s-.213-.045-.3-.068-.15-.042-.191-.054v-.831c.09.055.191.113.3.174a2.865,2.865,0,0,0,.344.164,2.764,2.764,0,0,0,.377.119,1.682,1.682,0,0,0,.4.048,1.185,1.185,0,0,0,.237-.027.844.844,0,0,0,.243-.092.541.541,0,0,0,.183-.176.512.512,0,0,0,.071-.276.663.663,0,0,0-.164-.452,1.83,1.83,0,0,0-.411-.344c-.167-.1-.345-.207-.538-.307a3.4,3.4,0,0,1-.538-.344,1.79,1.79,0,0,1-.411-.447,1.147,1.147,0,0,1-.163-.63,1.063,1.063,0,0,1,.411-.891,1.88,1.88,0,0,1,1.174-.319c.121,0,.245,0,.367.017s.236.023.34.037.2.028.276.042.142.025.187.034v.728Zm3.329,0c-.041-.018-.106-.045-.194-.081s-.192-.073-.31-.109a3.321,3.321,0,0,0-.381-.091,2.222,2.222,0,0,0-.408-.037.75.75,0,0,0-.463.132.416.416,0,0,0-.176.351.536.536,0,0,0,.17.4,2.155,2.155,0,0,0,.426.315c.169.1.354.2.55.3a3.616,3.616,0,0,1,.55.344,1.858,1.858,0,0,1,.426.452,1.108,1.108,0,0,1,.169.62,1.418,1.418,0,0,1-.135.646,1.169,1.169,0,0,1-.372.432,1.549,1.549,0,0,1-.561.242,3.148,3.148,0,0,1-.7.074,3.041,3.041,0,0,1-.412-.027c-.133-.018-.256-.039-.37-.061s-.213-.045-.3-.068-.149-.042-.191-.054v-.831q.137.083.3.174a2.852,2.852,0,0,0,.344.164,2.773,2.773,0,0,0,.378.119,1.678,1.678,0,0,0,.4.048,1.185,1.185,0,0,0,.237-.027.831.831,0,0,0,.242-.092.534.534,0,0,0,.183-.176.506.506,0,0,0,.072-.276.663.663,0,0,0-.164-.452,1.823,1.823,0,0,0-.412-.344q-.249-.157-.536-.307a3.4,3.4,0,0,1-.538-.344,1.78,1.78,0,0,1-.412-.447,1.153,1.153,0,0,1-.162-.63,1.064,1.064,0,0,1,.411-.891,1.883,1.883,0,0,1,1.174-.319c.123,0,.245,0,.366.017s.236.023.341.037.2.028.276.042.142.025.187.034v.728Zm.838-.782h1.1l1.354,3.829h.014l1.319-3.829h1.129V274h-.79v-4.019h-.013L283.888,274h-.681l-1.38-3.924h-.015V274h-.659v-4.693Zm5.716,0h2.741v.537h-1.85v1.442h1.754v.538h-1.754v1.611h1.912V274h-2.8v-4.693Zm3.335,0h.973l1.816,3.482h.013v-3.482h.729V274h-.885l-1.9-3.653h-.014V274H290.2v-4.693Zm4.961.537h-1.13v-.537h3.15v.537h-1.129V274h-.891v-4.156Zm7.033.245c-.041-.018-.105-.045-.194-.081s-.191-.073-.308-.109a3.371,3.371,0,0,0-.382-.091,2.211,2.211,0,0,0-.408-.037.747.747,0,0,0-.462.132.415.415,0,0,0-.177.351.536.536,0,0,0,.171.4,2.186,2.186,0,0,0,.424.315q.255.15.551.3a3.658,3.658,0,0,1,.551.344,1.84,1.84,0,0,1,.425.452,1.1,1.1,0,0,1,.171.62,1.408,1.408,0,0,1-.136.646,1.173,1.173,0,0,1-.371.432,1.549,1.549,0,0,1-.561.242,3.164,3.164,0,0,1-.7.074,3.012,3.012,0,0,1-.411-.027c-.135-.018-.258-.039-.371-.061s-.213-.045-.3-.068-.15-.042-.191-.054v-.831q.135.083.3.174a2.777,2.777,0,0,0,.72.282,1.682,1.682,0,0,0,.4.048,1.2,1.2,0,0,0,.238-.027.826.826,0,0,0,.241-.092.528.528,0,0,0,.183-.176.5.5,0,0,0,.072-.276.66.66,0,0,0-.164-.452,1.807,1.807,0,0,0-.412-.344q-.248-.157-.536-.307a3.335,3.335,0,0,1-.538-.344,1.793,1.793,0,0,1-.412-.447,1.153,1.153,0,0,1-.162-.63,1.063,1.063,0,0,1,.411-.891,1.881,1.881,0,0,1,1.174-.319c.122,0,.245,0,.367.017s.236.023.34.037.2.028.276.042.141.025.186.034v.728Zm.833-.782h2.74v.537h-1.85v1.442h1.755v.538h-1.755v1.611h1.911V274h-2.8v-4.693Zm3.335,0h1.068a6.332,6.332,0,0,1,.744.041,1.957,1.957,0,0,1,.629.169,1.058,1.058,0,0,1,.435.371,1.124,1.124,0,0,1,.163.643,1.015,1.015,0,0,1-.1.462,1,1,0,0,1-.238.315,1.114,1.114,0,0,1-.316.2,2.6,2.6,0,0,1-.33.112v.015a1.136,1.136,0,0,1,.418.152.843.843,0,0,1,.251.251,1.271,1.271,0,0,1,.143.33c.034.123.065.252.092.387L309.6,274h-.891l-.172-.885a5.176,5.176,0,0,0-.128-.543,1.174,1.174,0,0,0-.174-.364.587.587,0,0,0-.269-.2,1.224,1.224,0,0,0-.428-.062h-.279V274h-.891v-4.693Zm.891,2.142h.176a2.376,2.376,0,0,0,.435-.037.909.909,0,0,0,.339-.133.642.642,0,0,0,.225-.26.939.939,0,0,0,.081-.421.874.874,0,0,0-.092-.438.582.582,0,0,0-.241-.237.921.921,0,0,0-.347-.1,3.731,3.731,0,0,0-.4-.02h-.176v1.646Zm2.2-2.142,1.6,4.693h.917l1.626-4.693h-.788l-1.218,3.619h-.014l-1.2-3.619Zm4.321,0h.891V274h-.891v-4.693Zm4.873,4.475c-.15.059-.337.123-.562.19a2.6,2.6,0,0,1-.766.1,2.012,2.012,0,0,1-.944-.2,1.786,1.786,0,0,1-.633-.551,2.369,2.369,0,0,1-.358-.8,3.991,3.991,0,0,1-.111-.951,3.911,3.911,0,0,1,.1-.891,2.11,2.11,0,0,1,.327-.742,1.651,1.651,0,0,1,.595-.509,1.926,1.926,0,0,1,.9-.191,1.8,1.8,0,0,1,1.241.367,1.266,1.266,0,0,1,.405.986h-1.014a1.681,1.681,0,0,0-.028-.3.9.9,0,0,0-.1-.3.6.6,0,0,0-.557-.313.638.638,0,0,0-.48.184,1.238,1.238,0,0,0-.279.447,2.4,2.4,0,0,0-.133.569,4.843,4.843,0,0,0-.034.533q0,.137.006.343a3.651,3.651,0,0,0,.044.442,2.939,2.939,0,0,0,.116.466,1.478,1.478,0,0,0,.221.419,1.165,1.165,0,0,0,.357.306,1.078,1.078,0,0,0,.527.119,1.449,1.449,0,0,0,.409-.055,1.918,1.918,0,0,0,.33-.129,1.825,1.825,0,0,0,.255-.153c.073-.052.13-.095.171-.126v.735Zm.525-4.475h2.741v.537h-1.85v1.442h1.754v.538h-1.754v1.611h1.911V274h-2.8Z" transform="translate(-21.067 -16.32)"/>
    <g id="그룹_6809" data-name="그룹 6809" transform="translate(100.381 213.621)">
      <path id="패스_8540" data-name="패스 8540" class="cls-3" d="M134.419,238.328c-1.682,1.438-3.9,2.233-5.167,3.2-.8.608-1.378,1.157-1.378,2.1a1.914,1.914,0,0,1,.987-1.615c1.277-.869,3.95-.83,5.208-2.949A4.547,4.547,0,0,0,134.419,238.328Zm0,0a7.159,7.159,0,0,0,.39-1.551,14.243,14.243,0,0,0,1.774-1.893,6.388,6.388,0,0,1-2.164,3.444Zm2.164-3.444a8.843,8.843,0,0,0,1.808-4.567,16.029,16.029,0,0,1-1.544,2.413,8.9,8.9,0,0,1-.264,2.154Zm1.808-4.567a9.487,9.487,0,0,0-.126-2.755,21.238,21.238,0,0,0,1.341-2.847,10.568,10.568,0,0,1-1.214,5.6Zm1.214-5.6c1.2-3.218,1.087-6.023-.819-8.028a11.853,11.853,0,0,0-8.011-3.068,6.841,6.841,0,0,0-2.506.43c-2.315.939-3.022,3.475-3.205,7.167a4.93,4.93,0,0,1,2.583-3.653c2.641-1.2,7.5-.04,9.994,2.607a7.392,7.392,0,0,1,1.965,4.544Zm-15.832,31.043a18.369,18.369,0,0,1-.447-4.3,12.648,12.648,0,0,1,.161-1.9,8.9,8.9,0,0,0,.135-1.907,12.289,12.289,0,0,1,.21,3.382c-.032,1.132-.085,2.264-.085,3.4C123.747,254.869,123.755,255.316,123.772,255.759Zm0,0a17.325,17.325,0,0,0,.43,3.42c-.032-.724-.044-1.458-.034-2.183a8.858,8.858,0,0,1-.4-1.237Zm.43,3.42a8.88,8.88,0,0,0,.384,1.21c0,.77.013,1.513.047,2.219a17.986,17.986,0,0,1-.43-3.428Zm.43,3.428a18.4,18.4,0,0,0,.431,3.425c-.035-.707-.051-1.455-.055-2.245a8.545,8.545,0,0,1-.376-1.179Zm14.972-.073c1.2,3.218,1.087,6.022-.819,8.028a11.86,11.86,0,0,1-8.011,3.068,6.826,6.826,0,0,1-2.506-.431c-2.315-.938-3.022-3.475-3.205-7.166a4.931,4.931,0,0,0,2.583,3.653c2.641,1.2,7.5.04,9.994-2.607a7.4,7.4,0,0,0,1.965-4.544Zm-1.214-5.6a9.491,9.491,0,0,1-.126,2.756,21.245,21.245,0,0,1,1.341,2.847,10.573,10.573,0,0,0-1.214-5.6Zm-1.808-4.566a8.84,8.84,0,0,1,1.808,4.566,15.94,15.94,0,0,0-1.544-2.411,8.908,8.908,0,0,0-.264-2.155Zm-2.164-3.443a7.163,7.163,0,0,1,.39,1.55,14.287,14.287,0,0,1,1.774,1.893,6.384,6.384,0,0,0-2.164-3.443Zm0,0c-1.682-1.439-3.9-2.233-5.167-3.2-.8-.608-1.378-1.158-1.378-2.1a1.913,1.913,0,0,0,.987,1.615c1.277.87,3.95.829,5.208,2.949a4.546,4.546,0,0,1,.351.733ZM123.772,231.49a18.378,18.378,0,0,0-.447,4.3,12.665,12.665,0,0,0,.161,1.9,8.88,8.88,0,0,1,.135,1.905,12.289,12.289,0,0,0,.21-3.382c-.032-1.133-.085-2.263-.085-3.4C123.747,232.381,123.755,231.934,123.772,231.49Zm0,0a17.34,17.34,0,0,1,.43-3.421c-.032.725-.044,1.459-.034,2.184a8.951,8.951,0,0,0-.4,1.237Zm.43-3.421a8.934,8.934,0,0,1,.384-1.209c0-.77.013-1.512.047-2.219a17.978,17.978,0,0,0-.43,3.427Zm.43-3.427a18.394,18.394,0,0,1,.431-3.424c-.035.707-.051,1.456-.055,2.245a8.515,8.515,0,0,0-.376,1.179ZM123.622,239.6a3.455,3.455,0,0,1-6.477,0,3.543,3.543,0,0,0,6.477,0ZM117,231.49c.017.443.025.891.025,1.334,0,1.133-.052,2.264-.084,3.4a12.261,12.261,0,0,0,.209,3.382,8.926,8.926,0,0,1,.135-1.905,12.665,12.665,0,0,0,.162-1.9A18.38,18.38,0,0,0,117,231.49Zm0,0a8.86,8.86,0,0,0-.4-1.237c.011-.725,0-1.459-.034-2.184a17.341,17.341,0,0,1,.43,3.421Zm-.43-3.421a17.979,17.979,0,0,0-.43-3.427c.033.707.045,1.449.047,2.219a8.935,8.935,0,0,1,.384,1.209Zm-.43-3.427a8.422,8.422,0,0,0-.376-1.179c0-.789-.02-1.538-.055-2.245a18.334,18.334,0,0,1,.431,3.424Zm-14.972.074a7.392,7.392,0,0,1,1.965-4.544c2.493-2.648,7.352-3.807,9.994-2.607a4.93,4.93,0,0,1,2.583,3.653c-.183-3.691-.89-6.228-3.205-7.167a6.841,6.841,0,0,0-2.506-.43,11.853,11.853,0,0,0-8.011,3.068c-1.906,2-2.02,4.81-.819,8.028Zm0,37.818c-1.2,3.218-1.087,6.022.819,8.028a11.86,11.86,0,0,0,8.011,3.068,6.826,6.826,0,0,0,2.506-.431c2.315-.938,3.022-3.475,3.205-7.166a4.931,4.931,0,0,1-2.583,3.653c-2.641,1.2-7.5.04-9.994-2.607a7.4,7.4,0,0,1-1.965-4.544ZM117,255.759a18.37,18.37,0,0,0,.447-4.3,12.648,12.648,0,0,0-.162-1.9,8.942,8.942,0,0,1-.135-1.907,12.261,12.261,0,0,0-.209,3.382c.032,1.132.084,2.264.084,3.4C117.02,254.869,117.012,255.316,117,255.759Zm0,0a17.326,17.326,0,0,1-.43,3.42c.032-.724.044-1.458.034-2.183a8.769,8.769,0,0,0,.4-1.237Zm-.43,3.42a8.881,8.881,0,0,1-.384,1.21c0,.77-.013,1.513-.047,2.219a17.987,17.987,0,0,0,.43-3.428Zm-.43,3.428a18.343,18.343,0,0,1-.431,3.425c.035-.707.051-1.455.055-2.245a8.451,8.451,0,0,0,.376-1.179Zm7.487-14.961a3.455,3.455,0,0,0-6.477,0,3.542,3.542,0,0,1,6.477,0Zm-21.245-17.33a10.568,10.568,0,0,1-1.214-5.6,21.159,21.159,0,0,0,1.341,2.847,9.461,9.461,0,0,0-.127,2.755Zm1.808,4.567a8.9,8.9,0,0,1-.264-2.154,16.084,16.084,0,0,1-1.544-2.413,8.848,8.848,0,0,0,1.808,4.567Zm2.164,3.444a6.385,6.385,0,0,1-2.164-3.444,14.2,14.2,0,0,0,1.775,1.893,7.077,7.077,0,0,0,.39,1.551Zm0,10.594a7.081,7.081,0,0,0-.39,1.55,14.247,14.247,0,0,0-1.775,1.893,6.381,6.381,0,0,1,2.164-3.443Zm-2.164,3.443a8.846,8.846,0,0,0-1.808,4.566,15.994,15.994,0,0,1,1.544-2.411,8.907,8.907,0,0,1,.264-2.155Zm-1.808,4.566a9.465,9.465,0,0,0,.127,2.756,21.166,21.166,0,0,0-1.341,2.847,10.573,10.573,0,0,1,1.214-5.6Zm3.972-18.6c1.682,1.438,3.9,2.233,5.166,3.2.8.608,1.378,1.157,1.378,2.1a1.916,1.916,0,0,0-.987-1.615c-1.278-.869-3.95-.83-5.208-2.949a4.545,4.545,0,0,1-.35-.733Zm0,10.595c1.682-1.439,3.9-2.233,5.166-3.2.8-.608,1.378-1.158,1.378-2.1a1.915,1.915,0,0,1-.987,1.615c-1.278.87-3.95.829-5.208,2.949A4.543,4.543,0,0,0,106.349,248.923Z" transform="translate(-100.381 -213.621)"/>
      <path id="패스_8541" data-name="패스 8541" class="cls-4" d="M120.71,243.453a3.429,3.429,0,0,0,3.238-2.4,3.455,3.455,0,0,1-6.477,0,3.429,3.429,0,0,0,3.238,2.4Zm4.2-15.144c0-.771.013-1.514.047-2.219a8.719,8.719,0,0,1,.375-1.18q0,1.272.006,2.544a6.041,6.041,0,0,0-.427.855Zm-.418,3.393a5.938,5.938,0,0,1,.445-.892c-.013-.833-.027-1.666-.027-2.5a8.861,8.861,0,0,0-.384,1.208c-.032.725-.044,1.458-.034,2.185Zm-.546,9.348a12.289,12.289,0,0,0,.21-3.382c-.032-1.132-.085-2.264-.085-3.4,0-.442.008-.89.025-1.333a8.821,8.821,0,0,1,.4-1.236c.022,3.432.3,7.1-.546,9.348Zm-6.477,0c-.847-2.252-.568-5.916-.546-9.348a8.731,8.731,0,0,1,.4,1.236c.017.443.025.891.025,1.333,0,1.133-.052,2.264-.084,3.4a12.261,12.261,0,0,0,.209,3.382Zm-.546-9.348c.011-.727,0-1.46-.034-2.185a8.862,8.862,0,0,0-.384-1.208c0,.835-.013,1.668-.027,2.5a5.872,5.872,0,0,1,.445.892Zm-.418-3.393a6.118,6.118,0,0,0-.427-.855q.008-1.271,0-2.544a8.526,8.526,0,0,1,.375,1.18c.033.706.045,1.448.047,2.219Zm22.082.7a21.192,21.192,0,0,0,1.341-2.847,7.394,7.394,0,0,0-1.965-4.544c-2.493-2.647-7.352-3.807-9.994-2.607a4.929,4.929,0,0,0-2.583,3.652c-.035.707-.051,1.455-.056,2.245a4.372,4.372,0,0,1,2.017-2.382c2.438-1.251,6.891-.188,9.3,2.5a8.325,8.325,0,0,1,1.936,3.98Zm-1.418,5.169a9.985,9.985,0,0,0-.3-2.425c.628-.922,1.211-1.842,1.715-2.744a9.49,9.49,0,0,1,.126,2.756,16.028,16.028,0,0,1-1.544,2.413Zm-2.038,4.046a14.378,14.378,0,0,0,1.774-1.893,8.909,8.909,0,0,0,.264-2.154c-.6.787-1.266,1.552-1.955,2.291A9.7,9.7,0,0,1,135.134,238.225Zm0,0a7,7,0,0,1-.39,1.55c-1.682,1.439-3.9,2.233-5.167,3.2-.8.608-1.378,1.159-1.378,2.1,0-1.118.689-1.733,1.641-2.641,1.3-1.211,3.458-2.547,5.293-4.207Zm0,13.7a7.007,7.007,0,0,0-.39-1.55c-1.682-1.439-3.9-2.233-5.167-3.2-.8-.608-1.378-1.16-1.378-2.1,0,1.118.689,1.733,1.641,2.641,1.3,1.21,3.458,2.548,5.293,4.207Zm0,0a14.3,14.3,0,0,1,1.774,1.893,8.911,8.911,0,0,1,.264,2.154,30.1,30.1,0,0,0-1.955-2.291,9.709,9.709,0,0,0-.083-1.756Zm2.038,4.048a9.974,9.974,0,0,1-.3,2.424c.628.922,1.211,1.842,1.715,2.744a9.489,9.489,0,0,0,.126-2.756,15.947,15.947,0,0,0-1.544-2.412Zm1.418,5.168a21.2,21.2,0,0,1,1.341,2.847,7.4,7.4,0,0,1-1.965,4.544c-2.493,2.647-7.352,3.806-9.994,2.607a4.93,4.93,0,0,1-2.583-3.653c-.035-.707-.051-1.455-.056-2.245a4.368,4.368,0,0,0,2.017,2.382c2.438,1.251,6.891.188,9.3-2.5a8.322,8.322,0,0,0,1.936-3.98Zm-13.678.7c0,.771.013,1.514.047,2.22a8.666,8.666,0,0,0,.375,1.178q0-1.271.006-2.542a6.088,6.088,0,0,1-.427-.856Zm-.418-3.393a5.906,5.906,0,0,0,.445.892c-.013.833-.027,1.667-.027,2.5a8.811,8.811,0,0,1-.384-1.209c-.032-.724-.044-1.457-.034-2.184Zm-.546-9.347a12.287,12.287,0,0,1,.21,3.382c-.032,1.132-.085,2.262-.085,3.4,0,.443.008.89.025,1.334a8.832,8.832,0,0,0,.4,1.235c.022-3.432.3-7.1-.546-9.347Zm-3.238-2.4a3.428,3.428,0,0,1,3.238,2.4,3.454,3.454,0,0,0-6.477,0,3.428,3.428,0,0,1,3.238-2.4Zm-3.238,2.4c-.847,2.25-.568,5.916-.546,9.347a8.742,8.742,0,0,0,.4-1.235c.017-.445.025-.891.025-1.334,0-1.133-.052-2.264-.084-3.4a12.259,12.259,0,0,1,.209-3.382Zm-.546,9.347c.011.727,0,1.46-.034,2.184a8.812,8.812,0,0,1-.384,1.209c0-.834-.013-1.667-.027-2.5a5.841,5.841,0,0,0,.445-.892Zm-.418,3.393a6.167,6.167,0,0,1-.427.856q.008,1.271,0,2.542a8.475,8.475,0,0,0,.375-1.178c.033-.706.045-1.449.047-2.22Zm-13.677-.7a8.321,8.321,0,0,0,1.935,3.98c2.412,2.689,6.865,3.753,9.3,2.5a4.36,4.36,0,0,0,2.017-2.382c0,.79-.021,1.538-.056,2.245a4.93,4.93,0,0,1-2.583,3.653c-2.641,1.2-7.5.04-9.994-2.607a7.4,7.4,0,0,1-1.965-4.544,21.125,21.125,0,0,1,1.341-2.847Zm1.417-5.168a16,16,0,0,0-1.544,2.412,9.465,9.465,0,0,0,.127,2.756c.5-.9,1.086-1.821,1.714-2.744a9.976,9.976,0,0,1-.3-2.424Zm2.039-4.048a9.644,9.644,0,0,0-.083,1.756,29.937,29.937,0,0,0-1.955,2.291,8.909,8.909,0,0,1,.264-2.154,14.254,14.254,0,0,1,1.775-1.893Zm0,0a6.967,6.967,0,0,1,.39-1.55c1.682-1.439,3.9-2.233,5.166-3.2.8-.608,1.378-1.16,1.378-2.1,0,1.118-.689,1.733-1.641,2.641-1.3,1.21-3.458,2.548-5.292,4.207Zm0-13.7a6.957,6.957,0,0,0,.39,1.55c1.682,1.439,3.9,2.233,5.166,3.2.8.608,1.378,1.159,1.378,2.1,0-1.118-.689-1.733-1.641-2.641-1.3-1.211-3.458-2.547-5.292-4.207Zm0,0a14.334,14.334,0,0,1-1.775-1.893,8.908,8.908,0,0,1-.264-2.154c.6.787,1.266,1.552,1.955,2.291a9.633,9.633,0,0,0,.083,1.756Zm-2.039-4.046a9.987,9.987,0,0,1,.3-2.425c-.628-.922-1.211-1.842-1.714-2.744a9.466,9.466,0,0,0-.127,2.756,16.085,16.085,0,0,0,1.544,2.413Zm-1.417-5.169a8.324,8.324,0,0,1,1.935-3.98c2.412-2.689,6.865-3.753,9.3-2.5a4.363,4.363,0,0,1,2.017,2.382c0-.79-.021-1.538-.056-2.245a4.929,4.929,0,0,0-2.583-3.652c-2.641-1.2-7.5-.04-9.994,2.607a7.394,7.394,0,0,0-1.965,4.544A21.117,21.117,0,0,0,102.83,229.01Z" transform="translate(-100.707 -215.069)"/>
      <path id="패스_8542" data-name="패스 8542" class="cls-5" d="M116.64,228.9c0,.929-.008,1.86-.006,2.789a4.531,4.531,0,0,1,.406.567c.013-.833.027-1.666.027-2.5a6.051,6.051,0,0,0-.427-.856Zm1.39,13.6c-1.122-2.321-1.051-6.387-.99-10.24a5.954,5.954,0,0,1,.445.893c-.022,3.431-.3,7.1.545,9.346Zm6.477,0c1.123-2.321,1.052-6.387.991-10.24a5.954,5.954,0,0,0-.445.893c.022,3.431.3,7.1-.546,9.346Zm1.391-13.6c0,.929.008,1.86.006,2.789a4.531,4.531,0,0,0-.406.567c-.013-.833-.027-1.666-.027-2.5a5.975,5.975,0,0,1,.427-.856Zm11.536,4.3c.628-.922,1.211-1.842,1.715-2.744a8.328,8.328,0,0,0-1.936-3.981c-2.412-2.689-6.865-3.753-9.3-2.5a4.377,4.377,0,0,0-2.018,2.382q0,1.272.006,2.544a3.94,3.94,0,0,1,1.388-1.412c2.237-1.3,6.284-.332,8.488,2.322a8.551,8.551,0,0,1,1.66,3.39Zm-1.658,4.716a10.347,10.347,0,0,0-.281-2.011c.665-.891,1.323-1.8,1.939-2.7a9.982,9.982,0,0,1,.3,2.425C137.13,236.411,136.465,237.176,135.776,237.915Zm0,0c-1.882,2.013-3.913,3.881-5.206,5.309-.8.887-1.811,1.844-1.811,3.293,0-1.111.689-1.732,1.641-2.641,1.292-1.2,3.458-2.547,5.293-4.206a9.7,9.7,0,0,0,.083-1.756Zm0,17.208c-1.882-2.013-3.913-3.881-5.206-5.311-.8-.886-1.811-1.844-1.811-3.293,0,1.111.689,1.732,1.641,2.641,1.292,1.2,3.458,2.547,5.293,4.207A9.7,9.7,0,0,1,135.776,255.123Zm0,0a10.348,10.348,0,0,1-.281,2.01c.665.892,1.323,1.8,1.939,2.7a9.976,9.976,0,0,0,.3-2.424c-.6-.788-1.266-1.553-1.955-2.291Zm1.658,4.715c.628.922,1.211,1.842,1.715,2.744a8.328,8.328,0,0,1-1.936,3.981c-2.412,2.689-6.865,3.752-9.3,2.5a4.377,4.377,0,0,1-2.018-2.382q0-1.272.006-2.543a3.951,3.951,0,0,0,1.388,1.412c2.237,1.3,6.284.332,8.488-2.323a8.539,8.539,0,0,0,1.66-3.389Zm-11.536,4.3c0-.93.008-1.86.006-2.789a4.439,4.439,0,0,1-.406-.567c-.013.833-.027,1.667-.027,2.5a6.031,6.031,0,0,0,.427.857Zm-1.391-13.6c1.123,2.321,1.052,6.388.991,10.239a5.856,5.856,0,0,1-.445-.893C125.075,256.458,125.356,252.793,124.507,250.542Zm0,0a3.331,3.331,0,0,0-6.477,0,3.384,3.384,0,0,1,6.477,0Zm-6.477,0c-.847,2.251-.567,5.916-.545,9.346a5.856,5.856,0,0,1-.445.893c-.061-3.851-.132-7.918.99-10.239Zm-1.39,13.6a6.108,6.108,0,0,0,.427-.857c0-.833-.013-1.666-.027-2.5a4.439,4.439,0,0,1-.406.567c0,.929,0,1.859.006,2.789Zm-11.536-4.3a8.539,8.539,0,0,0,1.66,3.389c2.2,2.655,6.251,3.621,8.487,2.323a3.953,3.953,0,0,0,1.389-1.412q.007,1.271.006,2.543a4.375,4.375,0,0,1-2.019,2.382c-2.437,1.25-6.891.188-9.3-2.5a8.321,8.321,0,0,1-1.936-3.981c.5-.9,1.087-1.821,1.715-2.744Zm1.658-4.715c-.689.738-1.355,1.5-1.955,2.291a9.976,9.976,0,0,0,.3,2.424c.616-.906,1.274-1.813,1.94-2.7a10.242,10.242,0,0,1-.282-2.01Zm0,0a9.7,9.7,0,0,1,.083-1.756c1.835-1.66,4-3,5.292-4.207.953-.908,1.641-1.53,1.641-2.641,0,1.449-1.008,2.406-1.811,3.293-1.293,1.43-3.323,3.3-5.206,5.311Zm0-17.208c1.883,2.013,3.913,3.881,5.206,5.309.8.887,1.811,1.844,1.811,3.293,0-1.111-.689-1.732-1.641-2.641-1.292-1.2-3.458-2.547-5.292-4.206a9.7,9.7,0,0,1-.083-1.756Zm0,0a10.242,10.242,0,0,1,.282-2.011c-.666-.891-1.324-1.8-1.94-2.7a9.982,9.982,0,0,0-.3,2.425c.6.788,1.266,1.552,1.955,2.291ZM105.1,233.2c-.628-.922-1.211-1.842-1.715-2.744a8.321,8.321,0,0,1,1.936-3.981c2.411-2.689,6.865-3.753,9.3-2.5a4.375,4.375,0,0,1,2.019,2.382q0,1.272-.006,2.544a3.942,3.942,0,0,0-1.389-1.412c-2.236-1.3-6.284-.332-8.487,2.322a8.551,8.551,0,0,0-1.66,3.39Zm19.4,9.3a3.384,3.384,0,0,1-6.477,0,3.331,3.331,0,0,0,6.477,0Z" transform="translate(-101.266 -216.514)"/>
      <path id="패스_8543" data-name="패스 8543" class="cls-6" d="M122.793,248.081a2.944,2.944,0,0,0,3.238-2.7c1.22-2.086,1.3-5.6,1.357-7.764q.038-1.521.04-3.042a3.6,3.6,0,0,1,.76-.687c2.034-1.346,5.678-.476,7.557,2.068a7.969,7.969,0,0,1,1.274,2.835c-1.841,2.463-3.734,4.794-4.94,6.611-1.777,2.512-1.8,3.072-1.8,4s.019,1.49,1.8,4c1.207,1.816,3.1,4.149,4.94,6.611a7.972,7.972,0,0,1-1.274,2.835c-1.878,2.543-5.522,3.413-7.557,2.068a3.577,3.577,0,0,1-.76-.687q0-1.521-.04-3.041c-.057-2.169-.137-5.678-1.357-7.765a3.292,3.292,0,0,0-6.477,0c-1.219,2.087-1.3,5.6-1.357,7.765q-.038,1.52-.04,3.041a3.577,3.577,0,0,1-.76.687c-2.034,1.346-5.678.476-7.557-2.068a7.959,7.959,0,0,1-1.274-2.835c1.841-2.463,3.733-4.795,4.94-6.611,1.777-2.513,1.8-3.072,1.8-4s-.019-1.491-1.8-4c-1.207-1.817-3.1-4.149-4.94-6.611a7.956,7.956,0,0,1,1.274-2.835c1.878-2.544,5.523-3.414,7.557-2.068a3.6,3.6,0,0,1,.76.687q0,1.521.04,3.042c.057,2.168.138,5.678,1.357,7.764A2.944,2.944,0,0,0,122.793,248.081Z" transform="translate(-102.791 -219.401)"/>
      <path id="패스_8544" data-name="패스 8544" class="cls-7" d="M129.474,247.964c0,1.449,1.009,2.406,1.811,3.293,1.293,1.43,3.324,3.3,5.206,5.311a10.347,10.347,0,0,1-.281,2.01c-1.841-2.463-3.734-4.795-4.94-6.611-1.777-2.513-1.8-3.072-1.8-4Zm0,0c0-1.449,1.009-2.406,1.811-3.293,1.293-1.428,3.324-3.3,5.206-5.309a10.346,10.346,0,0,0-.281-2.011c-1.841,2.463-3.734,4.794-4.94,6.611-1.777,2.512-1.8,3.072-1.8,4Zm-14.98,0c0,1.449-1.008,2.406-1.811,3.293-1.293,1.43-3.323,3.3-5.206,5.311a10.3,10.3,0,0,0,.282,2.01c1.841-2.463,3.733-4.795,4.94-6.611,1.777-2.513,1.8-3.072,1.8-4Zm0,0c0-1.449-1.008-2.406-1.811-3.293-1.293-1.428-3.323-3.3-5.206-5.309a10.294,10.294,0,0,1,.282-2.011c1.841,2.463,3.733,4.794,4.94,6.611,1.777,2.512,1.8,3.072,1.8,4Zm11.72,14.264a4.367,4.367,0,0,0,.405.567q0-1.522-.04-3.042c-.057-2.167-.137-5.676-1.355-7.761,1.121,2.321,1.05,6.385.989,10.236Zm.393,3.346c.01-.919.014-1.849.012-2.778a3.539,3.539,0,0,0,.76.687c2.034,1.346,5.678.476,7.557-2.068a7.973,7.973,0,0,0,1.274-2.835c.665.892,1.323,1.8,1.939,2.7a8.539,8.539,0,0,1-1.66,3.389c-2.2,2.655-6.25,3.621-8.487,2.323a3.964,3.964,0,0,1-1.4-1.423Zm-8.852-3.346a4.439,4.439,0,0,1-.406.567q0-1.522.04-3.042c.057-2.167.137-5.676,1.355-7.761-1.121,2.321-1.05,6.385-.989,10.236Zm-.394,3.346c-.01-.919-.014-1.849-.012-2.778a3.555,3.555,0,0,1-.76.687c-2.034,1.346-5.678.476-7.557-2.068a7.959,7.959,0,0,1-1.274-2.835c-.666.892-1.324,1.8-1.94,2.7a8.539,8.539,0,0,0,1.66,3.389c2.2,2.655,6.251,3.621,8.487,2.323a3.964,3.964,0,0,0,1.4-1.423Zm.394-31.872a4.535,4.535,0,0,0-.406-.567q0,1.521.04,3.042c.057,2.167.137,5.675,1.355,7.762-1.121-2.322-1.05-6.387-.989-10.237Zm-.394-3.346a3.96,3.96,0,0,0-1.4-1.422c-2.236-1.3-6.284-.332-8.487,2.322a8.551,8.551,0,0,0-1.66,3.39c.616.907,1.274,1.814,1.94,2.7a7.956,7.956,0,0,1,1.274-2.835c1.878-2.544,5.523-3.414,7.557-2.068a3.613,3.613,0,0,1,.76.687c0-.929,0-1.859.012-2.779Zm8.853,3.346a4.46,4.46,0,0,1,.405-.567q0,1.521-.04,3.042c-.057,2.167-.137,5.675-1.355,7.762,1.121-2.322,1.05-6.387.989-10.237Zm.393-3.346a3.96,3.96,0,0,1,1.4-1.422c2.237-1.3,6.283-.332,8.487,2.322a8.551,8.551,0,0,1,1.66,3.39c-.616.907-1.274,1.814-1.939,2.7a7.969,7.969,0,0,0-1.274-2.835c-1.878-2.544-5.523-3.414-7.557-2.068a3.6,3.6,0,0,0-.76.687c0-.929,0-1.859-.012-2.779Zm-7.861,13.587a3.331,3.331,0,0,0,6.477,0,3.292,3.292,0,0,1-6.477,0Zm0,8.044a3.331,3.331,0,0,1,6.477,0,3.292,3.292,0,0,0-6.477,0Z" transform="translate(-101.981 -217.959)"/>
    </g>
  </g>
</svg>
