<svg xmlns="http://www.w3.org/2000/svg" xmlns:xlink="http://www.w3.org/1999/xlink" width="249.449" height="34.252" viewBox="0 0 249.449 34.252">
  <defs>
    <style>
      .cls-1 {
        fill: none;
      }

      .cls-2 {
        fill: #002e5c;
      }

      .cls-3 {
        fill: #fff;
      }

      .cls-4 {
        fill: #d2d1d1;
      }

      .cls-5 {
        fill: #d2d2d2;
      }

      .cls-6 {
        fill: #d3d3d3;
      }

      .cls-7 {
        fill: #d4d4d4;
      }

      .cls-8 {
        fill: #d5d5d5;
      }

      .cls-9 {
        fill: #d6d6d6;
      }

      .cls-10 {
        fill: #d7d7d6;
      }

      .cls-11 {
        fill: #d8d7d7;
      }

      .cls-12 {
        fill: #d8d8d8;
      }

      .cls-13 {
        fill: #d9d9d9;
      }

      .cls-14 {
        fill: #dadada;
      }

      .cls-15 {
        fill: #dbdbdb;
      }

      .cls-16 {
        fill: #dcdcdc;
      }

      .cls-17 {
        fill: #dddddc;
      }

      .cls-18 {
        fill: #dedddd;
      }

      .cls-19 {
        fill: #dedede;
      }

      .cls-20 {
        fill: #dfdfdf;
      }

      .cls-21 {
        fill: #e0e0e0;
      }

      .cls-22 {
        fill: #e1e1e1;
      }

      .cls-23 {
        fill: #e2e2e2;
      }

      .cls-24 {
        fill: #e3e3e3;
      }

      .cls-25 {
        fill: #e4e4e3;
      }

      .cls-26 {
        fill: #e5e4e4;
      }

      .cls-27 {
        fill: #e5e5e5;
      }

      .cls-28 {
        fill: #e6e6e6;
      }

      .cls-29 {
        fill: #e7e7e7;
      }

      .cls-30 {
        fill: #e8e8e8;
      }

      .cls-31 {
        fill: #e9e9e9;
      }

      .cls-32 {
        fill: #eaeaea;
      }

      .cls-33 {
        fill: #ebebeb;
      }

      .cls-34 {
        fill: #ecebeb;
      }

      .cls-35 {
        fill: #ececec;
      }

      .cls-36 {
        fill: #ededed;
      }

      .cls-37 {
        fill: #eee;
      }

      .cls-38 {
        fill: #efefef;
      }

      .cls-39 {
        fill: #f0f0f0;
      }

      .cls-40 {
        fill: #f1f1f1;
      }

      .cls-41 {
        fill: #f2f2f2;
      }

      .cls-42 {
        fill: #f3f3f2;
      }

      .cls-43 {
        fill: #f3f3f3;
      }

      .cls-44 {
        fill: #f4f4f4;
      }

      .cls-45 {
        fill: #f5f5f5;
      }

      .cls-46 {
        fill: #f6f6f6;
      }

      .cls-47 {
        fill: #f7f7f7;
      }

      .cls-48 {
        fill: #f8f8f8;
      }

      .cls-49 {
        fill: #f9f9f9;
      }

      .cls-50 {
        fill: #fafafa;
      }

      .cls-51 {
        fill: #fbfbfb;
      }

      .cls-52 {
        clip-path: url(#clip-path);
      }

      .cls-53 {
        fill: #0075bc;
      }

      .cls-54 {
        fill: #0076bc;
      }

      .cls-55 {
        fill: #0077bc;
      }

      .cls-56 {
        fill: #0077bd;
      }

      .cls-57 {
        fill: #0078bd;
      }

      .cls-58 {
        fill: #0079be;
      }

      .cls-59 {
        fill: #007abe;
      }

      .cls-60 {
        fill: #007abf;
      }

      .cls-61 {
        fill: #007bbf;
      }

      .cls-62 {
        fill: #007cbf;
      }

      .cls-63 {
        fill: #007cc0;
      }

      .cls-64 {
        fill: #007dc0;
      }

      .cls-65 {
        fill: #007ec0;
      }

      .cls-66 {
        fill: #007ec1;
      }

      .cls-67 {
        fill: #007fc1;
      }

      .cls-68 {
        fill: #0080c1;
      }

      .cls-69 {
        fill: #0080c2;
      }

      .cls-70 {
        fill: #0081c2;
      }

      .cls-71 {
        fill: #0082c2;
      }

      .cls-72 {
        fill: #0082c3;
      }

      .cls-73 {
        fill: #0083c3;
      }

      .cls-74 {
        fill: #0084c3;
      }

      .cls-75 {
        fill: #0085c4;
      }

      .cls-76 {
        fill: #0086c4;
      }

      .cls-77 {
        fill: #0087c5;
      }

      .cls-78 {
        fill: #0088c6;
      }

      .cls-79 {
        fill: #0089c6;
      }

      .cls-80 {
        fill: #008ac7;
      }

      .cls-81 {
        fill: #008bc7;
      }

      .cls-82 {
        fill: #008cc7;
      }

      .cls-83 {
        fill: #008cc8;
      }

      .cls-84 {
        fill: #008dc8;
      }

      .cls-85 {
        fill: #008ec8;
      }

      .cls-86 {
        fill: #008fc9;
      }

      .cls-87 {
        fill: #0090c9;
      }

      .cls-88 {
        fill: #0091c9;
      }

      .cls-89 {
        fill: #0092ca;
      }

      .cls-90 {
        fill: #0093ca;
      }

      .cls-91 {
        fill: #0094cb;
      }

      .cls-92 {
        fill: #0695cb;
      }

      .cls-93 {
        fill: #0c96cb;
      }

      .cls-94 {
        fill: #1196cc;
      }

      .cls-95 {
        fill: #1497cc;
      }

      .cls-96 {
        fill: #1798cc;
      }

      .cls-97 {
        fill: #1a99cc;
      }

      .cls-98 {
        fill: #1d99cd;
      }

      .cls-99 {
        fill: #209acd;
      }

      .cls-100 {
        fill: #34731c;
      }

      .cls-101 {
        fill: #34741c;
      }

      .cls-102 {
        fill: #35751c;
      }

      .cls-103 {
        fill: #35761c;
      }

      .cls-104 {
        fill: #36761c;
      }

      .cls-105 {
        fill: #36771c;
      }

      .cls-106 {
        fill: #37771c;
      }

      .cls-107 {
        fill: #37781c;
      }

      .cls-108 {
        fill: #38791c;
      }

      .cls-109 {
        fill: #387a1c;
      }

      .cls-110 {
        fill: #397a1c;
      }

      .cls-111 {
        fill: #397b1d;
      }

      .cls-112 {
        fill: #3a7c1d;
      }

      .cls-113 {
        fill: #3b7d1d;
      }

      .cls-114 {
        fill: #3c7e1d;
      }

      .cls-115 {
        fill: #3c7f1d;
      }

      .cls-116 {
        fill: #3d801d;
      }

      .cls-117 {
        fill: #3e811d;
      }

      .cls-118 {
        fill: #3e821d;
      }

      .cls-119 {
        fill: #3f821d;
      }

      .cls-120 {
        fill: #3f831d;
      }

      .cls-121 {
        fill: #40831d;
      }

      .cls-122 {
        fill: #40841d;
      }

      .cls-123 {
        fill: #41851e;
      }

      .cls-124 {
        fill: #41861e;
      }

      .cls-125 {
        fill: #42861e;
      }

      .cls-126 {
        fill: #42871e;
      }

      .cls-127 {
        fill: #43871e;
      }

      .cls-128 {
        fill: #43881e;
      }

      .cls-129 {
        fill: #44881e;
      }

      .cls-130 {
        fill: #44891e;
      }

      .cls-131 {
        fill: #458a1e;
      }

      .cls-132 {
        fill: #458b1e;
      }

      .cls-133 {
        fill: #468b1e;
      }

      .cls-134 {
        fill: #468c1e;
      }

      .cls-135 {
        fill: #478d1e;
      }

      .cls-136 {
        fill: #488e1e;
      }

      .cls-137 {
        fill: #498f1e;
      }

      .cls-138 {
        fill: #4a901e;
      }

      .cls-139 {
        fill: #4a911e;
      }

      .cls-140 {
        fill: #4b911e;
      }

      .cls-141 {
        fill: #4b921e;
      }

      .cls-142 {
        fill: #4c921e;
      }

      .cls-143 {
        fill: #4c931e;
      }

      .cls-144 {
        fill: #4d941f;
      }

      .cls-145 {
        fill: #4e951f;
      }

      .cls-146 {
        fill: #4f961f;
      }

      .cls-147 {
        fill: #4f971f;
      }

      .cls-148 {
        fill: #50971f;
      }

      .cls-149 {
        fill: #50981f;
      }

      .cls-150 {
        fill: url(#linear-gradient);
      }

      .cls-151 {
        fill: url(#linear-gradient-2);
      }

      .cls-152 {
        fill: url(#linear-gradient-3);
      }

      .cls-153 {
        fill: url(#linear-gradient-4);
      }

      .cls-154 {
        fill: url(#linear-gradient-5);
      }

      .cls-155 {
        fill: url(#linear-gradient-6);
      }

      .cls-156 {
        fill: url(#linear-gradient-7);
      }
    </style>
    <clipPath id="clip-path">
      <path id="패스_8376" data-name="패스 8376" class="cls-1" d="M146.3,577.187a18.392,18.392,0,0,0-9.394,2.57V587.8h24.628C159.6,581.637,153.645,577.206,146.3,577.187Z" transform="translate(-136.906 -577.187)"/>
    </clipPath>
    <linearGradient id="linear-gradient" x1="3.871" y1="0.563" x2="4.869" y2="0.563" gradientUnits="objectBoundingBox">
      <stop offset="0" stop-color="#ffc33b"/>
      <stop offset="0.736" stop-color="#f9962c"/>
    </linearGradient>
    <linearGradient id="linear-gradient-2" x1="34.636" y1="2.329" x2="35.644" y2="2.329" gradientUnits="objectBoundingBox">
      <stop offset="0.079" stop-color="#f9962c"/>
      <stop offset="1" stop-color="#c5681f"/>
    </linearGradient>
    <linearGradient id="linear-gradient-3" x1="4.012" y1="1.75" x2="5.005" y2="1.75" gradientUnits="objectBoundingBox">
      <stop offset="0" stop-color="#ded200"/>
      <stop offset="0.579" stop-color="#97b000"/>
      <stop offset="0.815" stop-color="#6ea117"/>
      <stop offset="1" stop-color="#50981f"/>
    </linearGradient>
    <linearGradient id="linear-gradient-4" x1="3.871" y1="0.612" x2="4.871" y2="0.612" gradientUnits="objectBoundingBox">
      <stop offset="0" stop-color="#ba8c00"/>
      <stop offset="0.545" stop-color="#aa8100"/>
    </linearGradient>
    <linearGradient id="linear-gradient-5" x1="19.801" y1="0.699" x2="20.804" y2="0.699" gradientUnits="objectBoundingBox">
      <stop offset="0" stop-color="#aa8100"/>
      <stop offset="1" stop-color="#785b0a"/>
    </linearGradient>
    <linearGradient id="linear-gradient-6" x1="3.184" y1="-0.033" x2="3.376" y2="0.703" gradientUnits="objectBoundingBox">
      <stop offset="0" stop-color="#4d921e"/>
      <stop offset="1" stop-color="#29771f"/>
    </linearGradient>
    <linearGradient id="linear-gradient-7" x1="4.61" y1="0.418" x2="4.61" y2="1.335" gradientUnits="objectBoundingBox">
      <stop offset="0.084" stop-color="#29771f"/>
      <stop offset="1" stop-color="#005922"/>
    </linearGradient>
  </defs>
  <g id="그룹_6801" data-name="그룹 6801" transform="translate(-136.906 -554.201)">
    <g id="그룹_6799" data-name="그룹 6799" transform="translate(136.906 554.201)">
      <g id="그룹_6788" data-name="그룹 6788" transform="translate(32.09 5.336)">
        <path id="패스_8270" data-name="패스 8270" class="cls-2" d="M247.537,560.869a9.174,9.174,0,0,1,9.175,9.172v19.743H177V560.869Z" transform="translate(-177.004 -560.869)"/>
        <g id="그룹_6787" data-name="그룹 6787" transform="translate(8.802 6.992)">
          <path id="패스_8271" data-name="패스 8271" class="cls-3" d="M211.012,578.618h6.082V575.8h-6.082v-3.334h6.495v-2.785H207.043v15.235h10.465V582.14h-6.5Z" transform="translate(-191.804 -569.621)"/>
          <path id="패스_8272" data-name="패스 8272" class="cls-3" d="M235.676,574.384c-.153-3.258-2.308-4.723-5.535-4.7h-6.358v15.234h3.973V572.491h.733c1.471,0,3.121.469,3.121,2.23s-1.65,2.222-3.121,2.222l-.723,0,4.323,7.978h4.53l-3.836-6.376C234.639,578.294,235.776,576.464,235.676,574.384Z" transform="translate(-195.147 -569.621)"/>
          <rect id="사각형_2311" data-name="사각형 2311" class="cls-3" width="3.973" height="15.235" transform="translate(43.758 0.059)"/>
          <path id="패스_8273" data-name="패스 8273" class="cls-3" d="M200.9,569.668h-4.744l-4.159,7.559v-7.622H188V584.9h3.992v-7.668l4.159,7.672h4.828l-4.631-7.657Z" transform="translate(-188.002 -569.605)"/>
          <path id="패스_8274" data-name="패스 8274" class="cls-3" d="M262.763,580.065a4.39,4.39,0,0,1-1.665,3.561A6.9,6.9,0,0,1,256.573,585a11.492,11.492,0,0,1-2.885-.322,13.86,13.86,0,0,1-2.3-.816v-3.352l.872.515a10.575,10.575,0,0,0,1.866.785,8.65,8.65,0,0,0,2.547.456,7.1,7.1,0,0,0,.825-.059,3.093,3.093,0,0,0,.833-.2,2.1,2.1,0,0,0,.646-.451,1.233,1.233,0,0,0-.114-1.642,2.458,2.458,0,0,0-1.086-.543c-.5-.133-1.032-.256-1.586-.374a11.136,11.136,0,0,1-1.569-.444,4.868,4.868,0,0,1-2.41-1.647,4.384,4.384,0,0,1-.733-2.586,4.112,4.112,0,0,1,1.661-3.382,6.716,6.716,0,0,1,4.282-1.31,12.021,12.021,0,0,1,2.595.284,11.073,11.073,0,0,1,2.218.711v3.255l-.563-.278c-.712-.356-1-.436-1.773-.758a6.169,6.169,0,0,0-2.375-.48,5.786,5.786,0,0,0-.854.064,2.96,2.96,0,0,0-.811.244,1.571,1.571,0,0,0-.6.451,1.049,1.049,0,0,0-.254.691,1.076,1.076,0,0,0,.4.9,4.191,4.191,0,0,0,1.522.572c.483.113.949.224,1.4.33a14.1,14.1,0,0,1,1.459.438,4.774,4.774,0,0,1,2.252,1.52A4.023,4.023,0,0,1,262.763,580.065Z" transform="translate(-200.66 -569.609)"/>
        </g>
      </g>
      <g id="그룹_6798" data-name="그룹 6798">
        <g id="그룹_6789" data-name="그룹 6789">
          <path id="패스_8275" data-name="패스 8275" class="cls-4" d="M165.413,554.2H145.4a8.493,8.493,0,0,0-8.493,8.493v20.512h28.967v-29Z" transform="translate(-136.906 -554.201)"/>
          <path id="패스_8276" data-name="패스 8276" class="cls-5" d="M145.437,554.272a8.461,8.461,0,0,0-8.461,8.461V582.7l0,.455.456,0h27.938l.455,0,0-.455V554.731l0-.456-.455,0Z" transform="translate(-136.92 -554.215)"/>
          <path id="패스_8277" data-name="패스 8277" class="cls-6" d="M145.474,554.344a8.426,8.426,0,0,0-8.426,8.426v19.894s0,.449,0,.452.447,0,.452,0h27.826s.449,0,.451,0,0-.448,0-.452V554.8s0-.448,0-.451-.447,0-.451,0Z" transform="translate(-136.934 -554.23)"/>
          <path id="패스_8278" data-name="패스 8278" class="cls-7" d="M145.513,554.415a8.392,8.392,0,0,0-8.394,8.392v19.815c0,.007,0,.444.006.449s.442.006.448.006h27.717c.006,0,.443,0,.447-.006s.007-.442.007-.449V554.869c0-.006,0-.443-.007-.447s-.44-.007-.447-.007Z" transform="translate(-136.949 -554.244)"/>
          <path id="패스_8279" data-name="패스 8279" class="cls-8" d="M145.55,554.485a8.36,8.36,0,0,0-8.361,8.36v19.737c0,.009,0,.438.01.443s.435.01.444.01H165.25c.009,0,.437,0,.443-.01s.009-.435.009-.443V554.939c0-.009,0-.439-.009-.444s-.435-.01-.443-.01Z" transform="translate(-136.963 -554.258)"/>
          <path id="패스_8280" data-name="패스 8280" class="cls-9" d="M145.587,554.557a8.326,8.326,0,0,0-8.326,8.326V582.54c0,.012,0,.433.012.44s.428.012.439.012h27.5c.011,0,.432,0,.439-.012s.012-.428.012-.44V555.008c0-.011,0-.432-.012-.439s-.427-.011-.439-.011Z" transform="translate(-136.977 -554.272)"/>
          <path id="패스_8281" data-name="패스 8281" class="cls-10" d="M145.625,554.628a8.292,8.292,0,0,0-8.293,8.293V582.5c0,.014,0,.427.014.435s.422.014.435.014h27.387c.014,0,.427-.006.435-.014s.014-.422.014-.435V555.077c0-.013-.006-.427-.014-.435s-.422-.014-.435-.014Z" transform="translate(-136.991 -554.286)"/>
          <path id="패스_8282" data-name="패스 8282" class="cls-11" d="M145.663,554.7a8.259,8.259,0,0,0-8.26,8.26v19.5c0,.015.006.42.017.431s.415.016.431.016h27.277c.016,0,.421-.006.431-.016s.017-.415.017-.431V555.146c0-.016-.006-.421-.017-.431s-.415-.017-.431-.017Z" transform="translate(-137.005 -554.3)"/>
          <path id="패스_8283" data-name="패스 8283" class="cls-12" d="M145.7,554.77A8.226,8.226,0,0,0,137.474,563v19.422c0,.018.007.416.018.428s.41.018.427.018h27.166c.018,0,.416-.007.427-.018s.018-.41.018-.428v-27.2c0-.018-.007-.415-.018-.427s-.41-.019-.427-.019Z" transform="translate(-137.019 -554.315)"/>
          <path id="패스_8284" data-name="패스 8284" class="cls-13" d="M145.738,554.841a8.193,8.193,0,0,0-8.193,8.193v19.344c0,.019.008.41.021.423s.4.022.423.022h27.056c.02,0,.409-.009.422-.022s.022-.4.022-.423V555.285c0-.02-.008-.41-.022-.423s-.4-.021-.422-.021Z" transform="translate(-137.034 -554.329)"/>
          <path id="패스_8285" data-name="패스 8285" class="cls-14" d="M145.776,554.912a8.159,8.159,0,0,0-8.16,8.159v19.266a3.961,3.961,0,0,0,.023.419,3.965,3.965,0,0,0,.419.023H165a3.953,3.953,0,0,0,.419-.023,3.959,3.959,0,0,0,.024-.419V555.355a3.975,3.975,0,0,0-.024-.419c-.014-.014-.4-.023-.419-.023Z" transform="translate(-137.048 -554.343)"/>
          <path id="패스_8286" data-name="패스 8286" class="cls-15" d="M145.813,554.983a8.126,8.126,0,0,0-8.126,8.127v19.185a3.489,3.489,0,0,0,.026.415,3.5,3.5,0,0,0,.415.026h26.836a3.665,3.665,0,0,0,.415-.025,3.51,3.51,0,0,0,.026-.416V555.424a3.472,3.472,0,0,0-.026-.415,3.325,3.325,0,0,0-.415-.026Z" transform="translate(-137.062 -554.357)"/>
          <path id="패스_8287" data-name="패스 8287" class="cls-16" d="M145.851,555.055a8.092,8.092,0,0,0-8.093,8.093v19.107a3.11,3.11,0,0,0,.028.411,3.1,3.1,0,0,0,.411.028h26.727a3.225,3.225,0,0,0,.41-.027,3.134,3.134,0,0,0,.028-.411V555.494a3.093,3.093,0,0,0-.028-.411,3.092,3.092,0,0,0-.41-.028Z" transform="translate(-137.076 -554.372)"/>
          <path id="패스_8288" data-name="패스 8288" class="cls-17" d="M145.889,555.126a8.059,8.059,0,0,0-8.06,8.059v19.029a2.761,2.761,0,0,0,.031.406,2.662,2.662,0,0,0,.406.031h26.616a2.914,2.914,0,0,0,.407-.03,3.03,3.03,0,0,0,.03-.407V555.563a3.049,3.049,0,0,0-.03-.407,2.906,2.906,0,0,0-.407-.03Z" transform="translate(-137.09 -554.386)"/>
          <path id="패스_8289" data-name="패스 8289" class="cls-18" d="M145.927,555.2a8.026,8.026,0,0,0-8.027,8.026v18.949a2.612,2.612,0,0,0,.033.4,2.52,2.52,0,0,0,.4.033h26.507a2.512,2.512,0,0,0,.4-.033,2.513,2.513,0,0,0,.033-.4V555.632a2.522,2.522,0,0,0-.033-.4,2.609,2.609,0,0,0-.4-.032Z" transform="translate(-137.105 -554.4)"/>
          <path id="패스_8290" data-name="패스 8290" class="cls-19" d="M145.964,555.269a7.992,7.992,0,0,0-7.993,7.992v18.871a2.367,2.367,0,0,0,.035.4,2.365,2.365,0,0,0,.4.035h26.4a2.372,2.372,0,0,0,.4-.035,2.455,2.455,0,0,0,.034-.4V555.7a2.455,2.455,0,0,0-.034-.4,2.373,2.373,0,0,0-.4-.034Z" transform="translate(-137.119 -554.414)"/>
          <path id="패스_8291" data-name="패스 8291" class="cls-20" d="M146,555.339a7.96,7.96,0,0,0-7.96,7.96v18.793a2.154,2.154,0,0,0,.038.394,2.158,2.158,0,0,0,.394.038H164.76a2.29,2.29,0,0,0,.393-.037,2.17,2.17,0,0,0,.038-.395V555.77a2.147,2.147,0,0,0-.038-.394,2.073,2.073,0,0,0-.393-.038Z" transform="translate(-137.133 -554.428)"/>
          <path id="패스_8292" data-name="패스 8292" class="cls-21" d="M146.039,555.41a7.926,7.926,0,0,0-7.926,7.926v18.713a1.975,1.975,0,0,0,.04.391,1.976,1.976,0,0,0,.39.039h26.176a.31.31,0,0,0,.429-.43V555.84a2.022,2.022,0,0,0-.039-.39,1.966,1.966,0,0,0-.39-.04Z" transform="translate(-137.147 -554.442)"/>
          <path id="패스_8293" data-name="패스 8293" class="cls-22" d="M146.077,555.481a7.893,7.893,0,0,0-7.893,7.893v18.635a1.8,1.8,0,0,0,.042.385,1.756,1.756,0,0,0,.385.042h26.066a1.812,1.812,0,0,0,.386-.042,1.868,1.868,0,0,0,.042-.386v-26.1a.31.31,0,0,0-.428-.428Z" transform="translate(-137.161 -554.457)"/>
          <path id="패스_8294" data-name="패스 8294" class="cls-23" d="M146.115,555.553a7.859,7.859,0,0,0-7.86,7.859v18.557a1.7,1.7,0,0,0,.045.381,1.676,1.676,0,0,0,.381.045h25.957a.309.309,0,0,0,.425-.426v-25.99a.309.309,0,0,0-.425-.426Z" transform="translate(-137.175 -554.471)"/>
          <path id="패스_8295" data-name="패스 8295" class="cls-24" d="M146.152,555.623a7.826,7.826,0,0,0-7.826,7.826v18.478a.309.309,0,0,0,.424.424H164.6a1.623,1.623,0,0,0,.377-.046,1.6,1.6,0,0,0,.047-.378v-25.88a1.584,1.584,0,0,0-.047-.377,1.544,1.544,0,0,0-.377-.047Z" transform="translate(-137.19 -554.485)"/>
          <path id="패스_8296" data-name="패스 8296" class="cls-25" d="M146.19,555.694a7.794,7.794,0,0,0-7.793,7.794v18.4a1.434,1.434,0,0,0,.05.374,1.466,1.466,0,0,0,.373.049h25.736a1.506,1.506,0,0,0,.373-.048,1.482,1.482,0,0,0,.049-.375V556.117a.309.309,0,0,0-.422-.423Z" transform="translate(-137.204 -554.499)"/>
          <path id="패스_8297" data-name="패스 8297" class="cls-26" d="M146.228,555.766a7.759,7.759,0,0,0-7.76,7.76v18.32a.309.309,0,0,0,.421.42h25.626a1.392,1.392,0,0,0,.368-.051,1.365,1.365,0,0,0,.051-.369v-25.66a.309.309,0,0,0-.419-.42Z" transform="translate(-137.218 -554.514)"/>
          <path id="패스_8298" data-name="패스 8298" class="cls-27" d="M146.265,555.837a7.726,7.726,0,0,0-7.726,7.726V581.8a.31.31,0,0,0,.419.42h25.516a1.3,1.3,0,0,0,.364-.054,1.274,1.274,0,0,0,.054-.366V556.256a.309.309,0,0,0-.419-.419Z" transform="translate(-137.232 -554.528)"/>
          <path id="패스_8299" data-name="패스 8299" class="cls-28" d="M146.3,555.908a7.693,7.693,0,0,0-7.693,7.692v18.164a1.188,1.188,0,0,0,.057.361,1.208,1.208,0,0,0,.36.056h25.406a1.246,1.246,0,0,0,.361-.055,1.224,1.224,0,0,0,.055-.362V556.325a.309.309,0,0,0-.416-.417Z" transform="translate(-137.246 -554.542)"/>
          <path id="패스_8300" data-name="패스 8300" class="cls-29" d="M146.341,555.979a7.66,7.66,0,0,0-7.66,7.66v18.084a.31.31,0,0,0,.415.416h25.3a1.158,1.158,0,0,0,.357-.058,1.145,1.145,0,0,0,.058-.359V556.394a.31.31,0,0,0-.415-.415Z" transform="translate(-137.26 -554.556)"/>
          <path id="패스_8301" data-name="패스 8301" class="cls-30" d="M146.379,556.051a7.625,7.625,0,0,0-7.627,7.626v18.005a1.04,1.04,0,0,0,.062.353,1.062,1.062,0,0,0,.351.061h25.187a1.1,1.1,0,0,0,.352-.06,1.089,1.089,0,0,0,.061-.354V556.463a1.079,1.079,0,0,0-.061-.352,1.064,1.064,0,0,0-.352-.06Z" transform="translate(-137.275 -554.57)"/>
          <path id="패스_8302" data-name="패스 8302" class="cls-31" d="M146.416,556.121a7.593,7.593,0,0,0-7.593,7.593v17.927a.311.311,0,0,0,.411.411h25.077a.31.31,0,0,0,.411-.411V556.533a1.013,1.013,0,0,0-.062-.349,1,1,0,0,0-.348-.063Z" transform="translate(-137.289 -554.584)"/>
          <path id="패스_8303" data-name="패스 8303" class="cls-32" d="M146.454,556.192a7.56,7.56,0,0,0-7.56,7.56V581.6a.944.944,0,0,0,.066.344.921.921,0,0,0,.344.066H164.27a.971.971,0,0,0,.344-.064.96.96,0,0,0,.066-.346v-25a.312.312,0,0,0-.41-.41Z" transform="translate(-137.303 -554.599)"/>
          <path id="패스_8304" data-name="패스 8304" class="cls-33" d="M146.492,556.264a7.527,7.527,0,0,0-7.527,7.526v17.769a.313.313,0,0,0,.408.409h24.856a.313.313,0,0,0,.408-.409V556.671a.312.312,0,0,0-.408-.407Z" transform="translate(-137.317 -554.613)"/>
          <path id="패스_8305" data-name="패스 8305" class="cls-34" d="M146.529,556.335a7.492,7.492,0,0,0-7.492,7.492v17.691a.313.313,0,0,0,.4.407h24.746a.873.873,0,0,0,.336-.07.851.851,0,0,0,.07-.337V556.741a.313.313,0,0,0-.407-.406Z" transform="translate(-137.332 -554.627)"/>
          <path id="패스_8306" data-name="패스 8306" class="cls-35" d="M146.567,556.406a7.46,7.46,0,0,0-7.46,7.46v17.611a.315.315,0,0,0,.4.4h24.636a.807.807,0,0,0,.331-.072.8.8,0,0,0,.073-.333V556.81a.314.314,0,0,0-.4-.4Z" transform="translate(-137.346 -554.641)"/>
          <path id="패스_8307" data-name="패스 8307" class="cls-36" d="M146.6,556.478a7.426,7.426,0,0,0-7.426,7.425v17.534a.316.316,0,0,0,.4.4h24.526a.772.772,0,0,0,.327-.074.756.756,0,0,0,.075-.329V556.879a.752.752,0,0,0-.075-.327.763.763,0,0,0-.327-.074Z" transform="translate(-137.36 -554.656)"/>
          <path id="패스_8308" data-name="패스 8308" class="cls-37" d="M146.642,556.548a7.393,7.393,0,0,0-7.393,7.393V581.4a.709.709,0,0,0,.078.323.7.7,0,0,0,.323.078h24.415a.317.317,0,0,0,.4-.4V556.949a.318.318,0,0,0-.4-.4Z" transform="translate(-137.374 -554.67)"/>
          <path id="패스_8309" data-name="패스 8309" class="cls-38" d="M146.68,556.619a7.36,7.36,0,0,0-7.36,7.359v17.376a.32.32,0,0,0,.4.4h24.305a.7.7,0,0,0,.319-.078.693.693,0,0,0,.08-.321V557.018a.32.32,0,0,0-.4-.4Z" transform="translate(-137.388 -554.684)"/>
          <path id="패스_8310" data-name="패스 8310" class="cls-39" d="M146.718,556.69a7.326,7.326,0,0,0-7.326,7.327v17.3a.321.321,0,0,0,.4.4h24.2a.321.321,0,0,0,.4-.4V557.088a.321.321,0,0,0-.4-.4Z" transform="translate(-137.402 -554.698)"/>
          <path id="패스_8311" data-name="패스 8311" class="cls-40" d="M146.755,556.762a7.293,7.293,0,0,0-7.293,7.292v17.219a.325.325,0,0,0,.4.4h24.086a.615.615,0,0,0,.311-.084.623.623,0,0,0,.084-.311V557.157a.323.323,0,0,0-.4-.395Z" transform="translate(-137.416 -554.712)"/>
          <path id="패스_8312" data-name="패스 8312" class="cls-41" d="M146.793,556.833a7.259,7.259,0,0,0-7.259,7.259v17.14a.578.578,0,0,0,.086.307.584.584,0,0,0,.307.086H163.9a.325.325,0,0,0,.394-.394V557.226a.59.59,0,0,0-.086-.307.584.584,0,0,0-.307-.086Z" transform="translate(-137.431 -554.727)"/>
          <path id="패스_8313" data-name="패스 8313" class="cls-42" d="M146.831,556.9a7.226,7.226,0,0,0-7.227,7.227v17.061a.33.33,0,0,0,.392.391h23.865a.328.328,0,0,0,.392-.391V557.3a.329.329,0,0,0-.392-.391Z" transform="translate(-137.445 -554.741)"/>
          <path id="패스_8314" data-name="패스 8314" class="cls-43" d="M146.868,556.975a7.194,7.194,0,0,0-7.193,7.193V581.15a.333.333,0,0,0,.39.39h23.756a.331.331,0,0,0,.39-.39V557.365a.332.332,0,0,0-.39-.39Z" transform="translate(-137.459 -554.755)"/>
          <path id="패스_8315" data-name="패스 8315" class="cls-44" d="M146.905,557.046a7.16,7.16,0,0,0-7.159,7.159v16.9a.338.338,0,0,0,.388.389H163.78a.336.336,0,0,0,.388-.389V557.433a.335.335,0,0,0-.388-.387Z" transform="translate(-137.473 -554.769)"/>
          <path id="패스_8316" data-name="패스 8316" class="cls-45" d="M146.944,557.117a7.127,7.127,0,0,0-7.127,7.126v16.825a.341.341,0,0,0,.387.387h23.535a.494.494,0,0,0,.291-.094.489.489,0,0,0,.1-.292V557.5a.34.34,0,0,0-.387-.387Z" transform="translate(-137.487 -554.783)"/>
          <path id="패스_8317" data-name="패스 8317" class="cls-46" d="M146.981,557.188a7.093,7.093,0,0,0-7.092,7.093v16.747a.345.345,0,0,0,.384.384H163.7a.343.343,0,0,0,.384-.384V557.572a.345.345,0,0,0-.384-.384Z" transform="translate(-137.502 -554.797)"/>
          <path id="패스_8318" data-name="패스 8318" class="cls-47" d="M147.019,557.26a7.06,7.06,0,0,0-7.06,7.059v16.668a.351.351,0,0,0,.383.383h23.315a.348.348,0,0,0,.383-.383V557.642a.435.435,0,0,0-.1-.282.441.441,0,0,0-.282-.1Z" transform="translate(-137.516 -554.812)"/>
          <path id="패스_8319" data-name="패스 8319" class="cls-48" d="M147.057,557.331a7.026,7.026,0,0,0-7.026,7.025v16.59a.355.355,0,0,0,.38.38h23.205a.352.352,0,0,0,.381-.38V557.711a.421.421,0,0,0-.1-.278.426.426,0,0,0-.279-.1Z" transform="translate(-137.53 -554.826)"/>
          <path id="패스_8320" data-name="패스 8320" class="cls-49" d="M147.094,557.4a6.994,6.994,0,0,0-6.993,6.994V580.9a.363.363,0,0,0,.379.379h23.095a.359.359,0,0,0,.379-.379V557.78a.36.36,0,0,0-.379-.379Z" transform="translate(-137.544 -554.84)"/>
          <path id="패스_8321" data-name="패스 8321" class="cls-50" d="M147.132,557.473a6.959,6.959,0,0,0-6.959,6.959v16.432a.369.369,0,0,0,.376.378h22.986a.4.4,0,0,0,.27-.106.394.394,0,0,0,.107-.271V557.849a.387.387,0,0,0-.107-.27.392.392,0,0,0-.27-.106Z" transform="translate(-137.558 -554.854)"/>
          <path id="패스_8322" data-name="패스 8322" class="cls-51" d="M140.619,581.2h22.876a.373.373,0,0,0,.375-.376v-22.9a.374.374,0,0,0-.375-.375H147.17a6.926,6.926,0,0,0-6.926,6.926v16.353a.377.377,0,0,0,.375.376Z" transform="translate(-137.573 -554.869)"/>
        </g>
        <g id="그룹_6793" data-name="그룹 6793" transform="translate(0 18.396)">
          <g id="그룹_6792" data-name="그룹 6792">
            <g id="그룹_6791" data-name="그룹 6791" class="cls-52">
              <g id="그룹_6790" data-name="그룹 6790" transform="translate(0 0)">
                <path id="패스_8323" data-name="패스 8323" class="cls-53" d="M146.3,577.187a18.143,18.143,0,0,0-9.394,2.207v8.4h24.628C159.6,581.637,153.645,577.206,146.3,577.187Z" transform="translate(-136.906 -577.187)"/>
                <path id="패스_8324" data-name="패스 8324" class="cls-54" d="M146.313,577.187a18.1,18.1,0,0,0-9.343,2.185v7.915l0,.456.457,0h24.1C159.579,581.614,153.636,577.206,146.313,577.187Z" transform="translate(-136.919 -577.187)"/>
                <path id="패스_8325" data-name="패스 8325" class="cls-55" d="M146.325,577.187a18.074,18.074,0,0,0-9.291,2.162v7.887s0,.451,0,.454.449,0,.452,0h24.024C159.556,581.589,153.627,577.206,146.325,577.187Z" transform="translate(-136.932 -577.187)"/>
                <path id="패스_8326" data-name="패스 8326" class="cls-56" d="M146.338,577.187a18.053,18.053,0,0,0-9.241,2.138v7.861c0,.006,0,.445.006.449s.443.006.449.006H161.5C159.533,581.566,153.618,577.206,146.338,577.187Z" transform="translate(-136.944 -577.187)"/>
                <path id="패스_8327" data-name="패스 8327" class="cls-57" d="M146.351,577.187a18.024,18.024,0,0,0-9.189,2.115v7.835c0,.008,0,.44.008.446s.438.008.445.008H161.5C159.51,581.543,153.611,577.206,146.351,577.187Z" transform="translate(-136.957 -577.187)"/>
                <path id="패스_8328" data-name="패스 8328" class="cls-57" d="M146.364,577.187a17.989,17.989,0,0,0-9.139,2.093v7.808c0,.01,0,.435.011.441s.431.011.441.011h23.809C159.488,581.519,153.6,577.206,146.364,577.187Z" transform="translate(-136.97 -577.187)"/>
                <path id="패스_8329" data-name="패스 8329" class="cls-58" d="M146.376,577.187a17.964,17.964,0,0,0-9.087,2.069v7.782c0,.012,0,.43.013.438s.426.013.438.013h23.737C159.464,581.494,153.593,577.206,146.376,577.187Z" transform="translate(-136.982 -577.187)"/>
                <path id="패스_8330" data-name="패스 8330" class="cls-59" d="M146.389,577.187a17.94,17.94,0,0,0-9.036,2.046v7.755c0,.014.006.425.014.434s.421.014.435.014h23.665C159.442,581.471,153.584,577.206,146.389,577.187Z" transform="translate(-136.995 -577.187)"/>
                <path id="패스_8331" data-name="패스 8331" class="cls-60" d="M146.4,577.187a17.906,17.906,0,0,0-8.984,2.023v7.728c0,.017.006.42.017.431s.415.018.431.018h23.593C159.419,581.447,153.575,577.205,146.4,577.187Z" transform="translate(-137.008 -577.187)"/>
                <path id="패스_8332" data-name="패스 8332" class="cls-61" d="M146.415,577.187a17.891,17.891,0,0,0-8.934,2v7.7c0,.018.007.415.019.427s.409.018.427.018h23.522C159.4,581.423,153.567,577.206,146.415,577.187Z" transform="translate(-137.021 -577.187)"/>
                <path id="패스_8333" data-name="패스 8333" class="cls-62" d="M146.427,577.187a17.85,17.85,0,0,0-8.882,1.978v7.674c0,.02.008.411.021.423s.4.022.423.022h23.449C159.374,581.4,153.558,577.205,146.427,577.187Z" transform="translate(-137.034 -577.187)"/>
                <path id="패스_8334" data-name="패스 8334" class="cls-63" d="M146.439,577.187a17.831,17.831,0,0,0-8.83,1.955v7.647a3.968,3.968,0,0,0,.023.419,3.768,3.768,0,0,0,.419.023h23.377C159.351,581.376,153.549,577.205,146.439,577.187Z" transform="translate(-137.046 -577.187)"/>
                <path id="패스_8335" data-name="패스 8335" class="cls-64" d="M146.453,577.187a17.807,17.807,0,0,0-8.78,1.933v7.62a3.7,3.7,0,0,0,.025.416,3.7,3.7,0,0,0,.416.025h23.305C159.328,581.353,153.54,577.206,146.453,577.187Z" transform="translate(-137.059 -577.187)"/>
                <path id="패스_8336" data-name="패스 8336" class="cls-65" d="M146.466,577.187a17.789,17.789,0,0,0-8.729,1.909v7.595a3.246,3.246,0,0,0,.027.411,3.13,3.13,0,0,0,.412.028H161.41C159.306,581.328,153.532,577.205,146.466,577.187Z" transform="translate(-137.072 -577.187)"/>
                <path id="패스_8337" data-name="패스 8337" class="cls-66" d="M146.479,577.187a17.77,17.77,0,0,0-8.678,1.885v7.568a3.061,3.061,0,0,0,.029.408,2.949,2.949,0,0,0,.409.03H161.4C159.283,581.3,153.524,577.205,146.479,577.187Z" transform="translate(-137.085 -577.187)"/>
                <path id="패스_8338" data-name="패스 8338" class="cls-67" d="M146.491,577.187a17.743,17.743,0,0,0-8.627,1.863v7.54a2.615,2.615,0,0,0,.032.4,2.551,2.551,0,0,0,.4.032h23.091C159.26,581.281,153.515,577.205,146.491,577.187Z" transform="translate(-137.097 -577.187)"/>
                <path id="패스_8339" data-name="패스 8339" class="cls-68" d="M146.5,577.187a17.731,17.731,0,0,0-8.576,1.84v7.514a2.478,2.478,0,0,0,.034.4,2.49,2.49,0,0,0,.4.034h23.019C159.237,581.256,153.506,577.205,146.5,577.187Z" transform="translate(-137.11 -577.187)"/>
                <path id="패스_8340" data-name="패스 8340" class="cls-69" d="M146.517,577.187A17.713,17.713,0,0,0,137.992,579v7.487a2.356,2.356,0,0,0,.036.4,2.274,2.274,0,0,0,.4.036h22.947C159.214,581.232,153.5,577.205,146.517,577.187Z" transform="translate(-137.123 -577.187)"/>
                <path id="패스_8341" data-name="패스 8341" class="cls-70" d="M146.53,577.187a17.689,17.689,0,0,0-8.473,1.794v7.46a2.124,2.124,0,0,0,.038.392,2.079,2.079,0,0,0,.393.038h22.876C159.191,581.209,153.489,577.205,146.53,577.187Z" transform="translate(-137.136 -577.187)"/>
                <path id="패스_8342" data-name="패스 8342" class="cls-71" d="M146.542,577.187a17.672,17.672,0,0,0-8.422,1.771v7.433a2.021,2.021,0,0,0,.04.39,1.971,1.971,0,0,0,.39.04h22.8A15.6,15.6,0,0,0,146.542,577.187Z" transform="translate(-137.148 -577.187)"/>
                <path id="패스_8343" data-name="패스 8343" class="cls-72" d="M146.555,577.187a17.663,17.663,0,0,0-8.371,1.748v7.407a.31.31,0,0,0,.428.428h22.731A15.6,15.6,0,0,0,146.555,577.187Z" transform="translate(-137.161 -577.187)"/>
                <path id="패스_8344" data-name="패스 8344" class="cls-73" d="M146.568,577.187a17.635,17.635,0,0,0-8.32,1.725v7.38a.31.31,0,0,0,.426.427h22.66A15.609,15.609,0,0,0,146.568,577.187Z" transform="translate(-137.174 -577.187)"/>
                <path id="패스_8345" data-name="패스 8345" class="cls-74" d="M146.581,577.187a17.637,17.637,0,0,0-8.269,1.7v7.354a.309.309,0,0,0,.424.424h22.588A15.611,15.611,0,0,0,146.581,577.187Z" transform="translate(-137.187 -577.187)"/>
                <path id="패스_8346" data-name="패스 8346" class="cls-75" d="M146.593,577.187a17.621,17.621,0,0,0-8.217,1.679v7.327a1.507,1.507,0,0,0,.048.374,1.486,1.486,0,0,0,.375.05h22.516A15.613,15.613,0,0,0,146.593,577.187Z" transform="translate(-137.2 -577.187)"/>
                <path id="패스_8347" data-name="패스 8347" class="cls-75" d="M146.606,577.187a17.608,17.608,0,0,0-8.166,1.657v7.3a1.411,1.411,0,0,0,.05.371,1.378,1.378,0,0,0,.371.05h22.445A15.618,15.618,0,0,0,146.606,577.187Z" transform="translate(-137.212 -577.187)"/>
                <path id="패스_8348" data-name="패스 8348" class="cls-76" d="M146.619,577.187a17.6,17.6,0,0,0-8.115,1.633v7.273a.309.309,0,0,0,.419.419H161.3A15.622,15.622,0,0,0,146.619,577.187Z" transform="translate(-137.225 -577.187)"/>
                <path id="패스_8349" data-name="패스 8349" class="cls-77" d="M146.632,577.187a17.587,17.587,0,0,0-8.065,1.61v7.247a1.25,1.25,0,0,0,.055.362,1.233,1.233,0,0,0,.363.055h22.3A15.625,15.625,0,0,0,146.632,577.187Z" transform="translate(-137.238 -577.187)"/>
                <path id="패스_8350" data-name="패스 8350" class="cls-77" d="M146.645,577.187a17.582,17.582,0,0,0-8.013,1.588v7.219a1.175,1.175,0,0,0,.057.36,1.15,1.15,0,0,0,.359.057h22.229A15.63,15.63,0,0,0,146.645,577.187Z" transform="translate(-137.251 -577.187)"/>
                <path id="패스_8351" data-name="패스 8351" class="cls-78" d="M146.657,577.187a17.577,17.577,0,0,0-7.962,1.565v7.193a1.12,1.12,0,0,0,.059.355,1.1,1.1,0,0,0,.355.059h22.158A15.634,15.634,0,0,0,146.657,577.187Z" transform="translate(-137.263 -577.187)"/>
                <path id="패스_8352" data-name="패스 8352" class="cls-79" d="M146.67,577.187a17.591,17.591,0,0,0-7.911,1.541v7.166a1.052,1.052,0,0,0,.062.352,1.016,1.016,0,0,0,.351.062h22.086A15.639,15.639,0,0,0,146.67,577.187Z" transform="translate(-137.276 -577.187)"/>
                <path id="패스_8353" data-name="패스 8353" class="cls-79" d="M146.683,577.187a17.573,17.573,0,0,0-7.86,1.519v7.139a1,1,0,0,0,.063.347.984.984,0,0,0,.348.064h22.015A15.646,15.646,0,0,0,146.683,577.187Z" transform="translate(-137.289 -577.187)"/>
                <path id="패스_8354" data-name="패스 8354" class="cls-80" d="M146.7,577.187a17.579,17.579,0,0,0-7.809,1.5v7.112a.956.956,0,0,0,.066.345.938.938,0,0,0,.344.066h21.943A15.651,15.651,0,0,0,146.7,577.187Z" transform="translate(-137.302 -577.187)"/>
                <path id="패스_8355" data-name="패스 8355" class="cls-81" d="M146.708,577.187a17.576,17.576,0,0,0-7.757,1.473v7.087a.313.313,0,0,0,.408.408h21.87A15.657,15.657,0,0,0,146.708,577.187Z" transform="translate(-137.314 -577.187)"/>
                <path id="패스_8356" data-name="패스 8356" class="cls-82" d="M146.721,577.187a17.587,17.587,0,0,0-7.706,1.449V585.7a.858.858,0,0,0,.07.337.837.837,0,0,0,.337.07h21.8A15.666,15.666,0,0,0,146.721,577.187Z" transform="translate(-137.327 -577.187)"/>
                <path id="패스_8357" data-name="패스 8357" class="cls-83" d="M146.734,577.187a17.587,17.587,0,0,0-7.655,1.427v7.032a.314.314,0,0,0,.4.406H161.21A15.673,15.673,0,0,0,146.734,577.187Z" transform="translate(-137.34 -577.187)"/>
                <path id="패스_8358" data-name="패스 8358" class="cls-84" d="M146.747,577.187a17.6,17.6,0,0,0-7.6,1.4V585.6a.777.777,0,0,0,.074.329.762.762,0,0,0,.33.074H161.2A15.683,15.683,0,0,0,146.747,577.187Z" transform="translate(-137.353 -577.187)"/>
                <path id="패스_8359" data-name="패스 8359" class="cls-85" d="M146.759,577.187a17.607,17.607,0,0,0-7.552,1.38v6.979a.74.74,0,0,0,.076.326.721.721,0,0,0,.325.076h21.584A15.692,15.692,0,0,0,146.759,577.187Z" transform="translate(-137.366 -577.187)"/>
                <path id="패스_8360" data-name="패스 8360" class="cls-86" d="M146.772,577.187a17.607,17.607,0,0,0-7.5,1.358V585.5a.319.319,0,0,0,.4.4h21.512A15.7,15.7,0,0,0,146.772,577.187Z" transform="translate(-137.378 -577.187)"/>
                <path id="패스_8361" data-name="패스 8361" class="cls-86" d="M146.785,577.187a17.64,17.64,0,0,0-7.451,1.334v6.927a.321.321,0,0,0,.4.4h21.44A15.708,15.708,0,0,0,146.785,577.187Z" transform="translate(-137.391 -577.187)"/>
                <path id="패스_8362" data-name="패스 8362" class="cls-87" d="M146.8,577.187a17.652,17.652,0,0,0-7.4,1.312v6.9a.644.644,0,0,0,.082.315.636.636,0,0,0,.314.082h21.368A15.721,15.721,0,0,0,146.8,577.187Z" transform="translate(-137.404 -577.187)"/>
                <path id="패스_8363" data-name="패스 8363" class="cls-88" d="M146.81,577.187a17.653,17.653,0,0,0-7.348,1.289v6.872a.605.605,0,0,0,.085.31.6.6,0,0,0,.311.086h21.3A15.73,15.73,0,0,0,146.81,577.187Z" transform="translate(-137.416 -577.187)"/>
                <path id="패스_8364" data-name="패스 8364" class="cls-89" d="M146.823,577.187a17.668,17.668,0,0,0-7.3,1.266V585.3a.327.327,0,0,0,.394.394h21.224A15.741,15.741,0,0,0,146.823,577.187Z" transform="translate(-137.429 -577.187)"/>
                <path id="패스_8365" data-name="패스 8365" class="cls-89" d="M146.836,577.187a17.712,17.712,0,0,0-7.246,1.243v6.819a.563.563,0,0,0,.089.3.556.556,0,0,0,.3.089h21.153A15.753,15.753,0,0,0,146.836,577.187Z" transform="translate(-137.442 -577.187)"/>
                <path id="패스_8366" data-name="패스 8366" class="cls-90" d="M146.849,577.187a17.734,17.734,0,0,0-7.195,1.22V585.2a.536.536,0,0,0,.09.3.529.529,0,0,0,.3.092h21.081A15.766,15.766,0,0,0,146.849,577.187Z" transform="translate(-137.455 -577.187)"/>
                <path id="패스_8367" data-name="패스 8367" class="cls-91" d="M146.861,577.187a17.758,17.758,0,0,0-7.143,1.2v6.766a.335.335,0,0,0,.389.388h21.009A15.778,15.778,0,0,0,146.861,577.187Z" transform="translate(-137.468 -577.187)"/>
                <path id="패스_8368" data-name="패스 8368" class="cls-92" d="M146.874,577.187a17.8,17.8,0,0,0-7.092,1.174V585.1a.493.493,0,0,0,.1.292.486.486,0,0,0,.292.1h20.937A15.788,15.788,0,0,0,146.874,577.187Z" transform="translate(-137.48 -577.187)"/>
                <path id="패스_8369" data-name="패스 8369" class="cls-93" d="M146.887,577.187a17.844,17.844,0,0,0-7.041,1.151v6.712a.343.343,0,0,0,.386.386H161.1A15.8,15.8,0,0,0,146.887,577.187Z" transform="translate(-137.493 -577.187)"/>
                <path id="패스_8370" data-name="패스 8370" class="cls-94" d="M146.9,577.187a17.877,17.877,0,0,0-6.99,1.128V585a.457.457,0,0,0,.1.285.452.452,0,0,0,.284.1h20.793A15.818,15.818,0,0,0,146.9,577.187Z" transform="translate(-137.506 -577.187)"/>
                <path id="패스_8371" data-name="패스 8371" class="cls-95" d="M146.913,577.187a17.913,17.913,0,0,0-6.939,1.105v6.659a.435.435,0,0,0,.1.28.431.431,0,0,0,.281.1h20.722A15.835,15.835,0,0,0,146.913,577.187Z" transform="translate(-137.519 -577.187)"/>
                <path id="패스_8372" data-name="패스 8372" class="cls-96" d="M146.925,577.187a17.972,17.972,0,0,0-6.887,1.082V584.9a.42.42,0,0,0,.1.277.416.416,0,0,0,.277.1h20.65A15.849,15.849,0,0,0,146.925,577.187Z" transform="translate(-137.531 -577.187)"/>
                <path id="패스_8373" data-name="패스 8373" class="cls-97" d="M146.938,577.187a18.006,18.006,0,0,0-6.837,1.06v6.6a.362.362,0,0,0,.379.379h20.578A15.868,15.868,0,0,0,146.938,577.187Z" transform="translate(-137.544 -577.187)"/>
                <path id="패스_8374" data-name="패스 8374" class="cls-98" d="M146.951,577.187a18.1,18.1,0,0,0-6.786,1.036V584.8a.37.37,0,0,0,.378.378h20.506A15.881,15.881,0,0,0,146.951,577.187Z" transform="translate(-137.557 -577.187)"/>
                <path id="패스_8375" data-name="패스 8375" class="cls-99" d="M146.964,577.187a18.138,18.138,0,0,0-6.734,1.013v6.552a.376.376,0,0,0,.11.266.37.37,0,0,0,.266.11h20.434A15.9,15.9,0,0,0,146.964,577.187Z" transform="translate(-137.57 -577.187)"/>
              </g>
            </g>
          </g>
        </g>
        <g id="그룹_6794" data-name="그룹 6794" transform="translate(6.068 10.895)">
          <path id="패스_8377" data-name="패스 8377" class="cls-100" d="M156.906,567.815l-12.413,7.809a18.508,18.508,0,0,0,10.261,10.3h12.634v-9.25A26.085,26.085,0,0,0,156.906,567.815Z" transform="translate(-144.489 -567.815)"/>
          <path id="패스_8378" data-name="패스 8378" class="cls-101" d="M167.345,585.422v-8.8a26.043,26.043,0,0,0-10.439-8.806l-12.413,7.809a18.778,18.778,0,0,0,6.738,8.424,17.914,17.914,0,0,0,3.483,1.834h12.173l.456,0Z" transform="translate(-144.489 -567.815)"/>
          <path id="패스_8379" data-name="패스 8379" class="cls-102" d="M167.3,585.381v-8.812a25.994,25.994,0,0,0-10.4-8.753l-12.413,7.808a18.778,18.778,0,0,0,6.721,8.411,17.854,17.854,0,0,0,3.46,1.8h12.171s.451,0,.453,0S167.3,585.385,167.3,585.381Z" transform="translate(-144.489 -567.815)"/>
          <path id="패스_8380" data-name="패스 8380" class="cls-102" d="M167.258,585.339v-8.823a25.957,25.957,0,0,0-10.353-8.7l-12.412,7.808a18.769,18.769,0,0,0,6.7,8.4,17.85,17.85,0,0,0,3.438,1.773H166.8s.446,0,.45,0S167.258,585.345,167.258,585.339Z" transform="translate(-144.489 -567.815)"/>
          <path id="패스_8381" data-name="패스 8381" class="cls-103" d="M167.215,585.3v-8.834a25.929,25.929,0,0,0-10.31-8.647l-12.413,7.808a18.767,18.767,0,0,0,6.686,8.385,17.987,17.987,0,0,0,3.416,1.745h12.167c.007,0,.442,0,.446-.007S167.215,585.3,167.215,585.3Z" transform="translate(-144.489 -567.815)"/>
          <path id="패스_8382" data-name="패스 8382" class="cls-104" d="M167.172,585.255V576.41a25.9,25.9,0,0,0-10.267-8.594l-12.413,7.808a18.764,18.764,0,0,0,6.67,8.372,17.868,17.868,0,0,0,3.393,1.713h12.165c.008,0,.438,0,.443-.009S167.172,585.264,167.172,585.255Z" transform="translate(-144.489 -567.815)"/>
          <path id="패스_8383" data-name="패스 8383" class="cls-105" d="M167.128,585.214v-8.857a25.868,25.868,0,0,0-10.225-8.542l-12.412,7.808a18.779,18.779,0,0,0,6.653,8.36,17.844,17.844,0,0,0,3.371,1.683h12.161c.01,0,.434,0,.441-.011S167.128,585.224,167.128,585.214Z" transform="translate(-144.489 -567.815)"/>
          <path id="패스_8384" data-name="패스 8384" class="cls-106" d="M167.085,585.173v-8.867a25.811,25.811,0,0,0-10.181-8.489l-12.412,7.807a18.764,18.764,0,0,0,6.635,8.346,17.878,17.878,0,0,0,3.348,1.653h12.161c.011,0,.429,0,.436-.012S167.085,585.185,167.085,585.173Z" transform="translate(-144.489 -567.815)"/>
          <path id="패스_8385" data-name="패스 8385" class="cls-107" d="M167.042,585.131v-8.879a25.792,25.792,0,0,0-10.138-8.435l-12.412,7.807a18.755,18.755,0,0,0,6.618,8.333,17.917,17.917,0,0,0,3.326,1.625h12.157c.014,0,.425-.006.434-.014S167.042,585.145,167.042,585.131Z" transform="translate(-144.489 -567.815)"/>
          <path id="패스_8386" data-name="패스 8386" class="cls-108" d="M167,585.089V576.2a25.74,25.74,0,0,0-10.095-8.383l-12.411,7.807a18.758,18.758,0,0,0,6.6,8.321,17.925,17.925,0,0,0,3.3,1.593h12.156c.015,0,.42-.006.43-.016S167,585.1,167,585.089Z" transform="translate(-144.489 -567.815)"/>
          <path id="패스_8387" data-name="패스 8387" class="cls-108" d="M166.956,585.048v-8.9a25.726,25.726,0,0,0-10.053-8.33l-12.411,7.807a18.75,18.75,0,0,0,6.583,8.307,17.853,17.853,0,0,0,3.282,1.563H166.51c.017,0,.417-.006.427-.017S166.956,585.064,166.956,585.048Z" transform="translate(-144.489 -567.815)"/>
          <path id="패스_8388" data-name="패스 8388" class="cls-109" d="M166.912,585.007v-8.912a25.7,25.7,0,0,0-10.009-8.277l-12.411,7.806a18.752,18.752,0,0,0,6.566,8.294,18,18,0,0,0,3.259,1.533h12.151c.018,0,.412-.007.424-.019S166.912,585.024,166.912,585.007Z" transform="translate(-144.489 -567.816)"/>
          <path id="패스_8389" data-name="패스 8389" class="cls-110" d="M166.868,584.964v-8.922a25.652,25.652,0,0,0-9.966-8.225l-12.411,7.807a18.761,18.761,0,0,0,6.55,8.281,18.055,18.055,0,0,0,3.236,1.5h12.149c.02,0,.408-.008.422-.022S166.868,584.985,166.868,584.964Z" transform="translate(-144.489 -567.815)"/>
          <path id="패스_8390" data-name="패스 8390" class="cls-111" d="M166.825,584.922v-8.933a25.631,25.631,0,0,0-9.923-8.171l-12.411,7.805a18.752,18.752,0,0,0,6.533,8.269,18.018,18.018,0,0,0,3.214,1.473h12.146a4.163,4.163,0,0,0,.418-.022A4,4,0,0,0,166.825,584.922Z" transform="translate(-144.489 -567.816)"/>
          <path id="패스_8391" data-name="패스 8391" class="cls-112" d="M166.783,584.881v-8.945a25.609,25.609,0,0,0-9.88-8.118l-12.41,7.806a18.75,18.75,0,0,0,6.514,8.256,18.16,18.16,0,0,0,3.192,1.442h12.145a3.668,3.668,0,0,0,.415-.024A3.528,3.528,0,0,0,166.783,584.881Z" transform="translate(-144.489 -567.816)"/>
          <path id="패스_8392" data-name="패스 8392" class="cls-112" d="M166.739,584.84v-8.956a25.558,25.558,0,0,0-9.837-8.065l-12.409,7.805a18.743,18.743,0,0,0,6.5,8.242,18.141,18.141,0,0,0,3.169,1.413H166.3a3.42,3.42,0,0,0,.412-.026A3.306,3.306,0,0,0,166.739,584.84Z" transform="translate(-144.489 -567.816)"/>
          <path id="패스_8393" data-name="패스 8393" class="cls-113" d="M166.7,584.8v-8.967a25.533,25.533,0,0,0-9.795-8.013l-12.409,7.805a18.746,18.746,0,0,0,6.48,8.229,18.243,18.243,0,0,0,3.147,1.383h12.14a3.366,3.366,0,0,0,.409-.027A3.121,3.121,0,0,0,166.7,584.8Z" transform="translate(-144.489 -567.816)"/>
          <path id="패스_8394" data-name="패스 8394" class="cls-113" d="M166.652,584.756v-8.977a25.505,25.505,0,0,0-9.752-7.96l-12.409,7.805a18.749,18.749,0,0,0,6.463,8.217,18.289,18.289,0,0,0,3.125,1.353h12.137a2.885,2.885,0,0,0,.406-.03A2.8,2.8,0,0,0,166.652,584.756Z" transform="translate(-144.489 -567.816)"/>
          <path id="패스_8395" data-name="패스 8395" class="cls-114" d="M166.609,584.715v-8.989a25.49,25.49,0,0,0-9.708-7.907l-12.409,7.8a18.736,18.736,0,0,0,6.446,8.2,18.444,18.444,0,0,0,3.1,1.324h12.136a2.713,2.713,0,0,0,.4-.032A2.64,2.64,0,0,0,166.609,584.715Z" transform="translate(-144.489 -567.816)"/>
          <path id="패스_8396" data-name="패스 8396" class="cls-115" d="M166.566,584.673v-9a25.464,25.464,0,0,0-9.665-7.854l-12.409,7.805a18.748,18.748,0,0,0,6.429,8.191,18.62,18.62,0,0,0,3.08,1.292h12.133a2.566,2.566,0,0,0,.4-.034A2.492,2.492,0,0,0,166.566,584.673Z" transform="translate(-144.489 -567.816)"/>
          <path id="패스_8397" data-name="패스 8397" class="cls-115" d="M166.522,584.632V575.62a25.435,25.435,0,0,0-9.622-7.8l-12.409,7.8A18.736,18.736,0,0,0,150.9,583.8a18.487,18.487,0,0,0,3.057,1.263h12.13a2.255,2.255,0,0,0,.4-.035A2.275,2.275,0,0,0,166.522,584.632Z" transform="translate(-144.489 -567.816)"/>
          <path id="패스_8398" data-name="패스 8398" class="cls-116" d="M166.479,584.589v-9.022a25.414,25.414,0,0,0-9.58-7.748l-12.409,7.8a18.745,18.745,0,0,0,6.394,8.165,18.61,18.61,0,0,0,3.035,1.232h12.128a2.206,2.206,0,0,0,.393-.037A2.173,2.173,0,0,0,166.479,584.589Z" transform="translate(-144.489 -567.816)"/>
          <path id="패스_8399" data-name="패스 8399" class="cls-116" d="M166.436,584.549v-9.033a25.392,25.392,0,0,0-9.536-7.7l-12.409,7.8a18.748,18.748,0,0,0,6.377,8.152,18.971,18.971,0,0,0,3.012,1.2h12.126a2.1,2.1,0,0,0,.391-.038A2.053,2.053,0,0,0,166.436,584.549Z" transform="translate(-144.489 -567.816)"/>
          <path id="패스_8400" data-name="패스 8400" class="cls-117" d="M166.393,584.507v-9.045a25.383,25.383,0,0,0-9.493-7.642l-12.409,7.8a18.729,18.729,0,0,0,6.36,8.139,18.921,18.921,0,0,0,2.99,1.173h12.124a1.939,1.939,0,0,0,.387-.041A1.9,1.9,0,0,0,166.393,584.507Z" transform="translate(-144.489 -567.816)"/>
          <path id="패스_8401" data-name="패스 8401" class="cls-118" d="M166.35,584.465V575.41a25.348,25.348,0,0,0-9.45-7.589l-12.409,7.8a18.739,18.739,0,0,0,6.342,8.126,19.075,19.075,0,0,0,2.968,1.141h12.121a.309.309,0,0,0,.427-.427Z" transform="translate(-144.489 -567.816)"/>
          <path id="패스_8402" data-name="패스 8402" class="cls-119" d="M166.306,584.423v-9.067a25.361,25.361,0,0,0-9.408-7.536l-12.408,7.8a18.733,18.733,0,0,0,6.326,8.113,19.233,19.233,0,0,0,2.945,1.112h12.12a1.7,1.7,0,0,0,.38-.044A1.676,1.676,0,0,0,166.306,584.423Z" transform="translate(-144.489 -567.816)"/>
          <path id="패스_8403" data-name="패스 8403" class="cls-120" d="M166.263,584.382V575.3a25.32,25.32,0,0,0-9.364-7.484l-12.408,7.8a18.726,18.726,0,0,0,6.308,8.1,19.386,19.386,0,0,0,2.923,1.083h12.117a1.672,1.672,0,0,0,.378-.046A1.6,1.6,0,0,0,166.263,584.382Z" transform="translate(-144.489 -567.816)"/>
          <path id="패스_8404" data-name="패스 8404" class="cls-121" d="M166.22,584.34v-9.089a25.313,25.313,0,0,0-9.322-7.43l-12.407,7.8a18.741,18.741,0,0,0,6.291,8.087,19.6,19.6,0,0,0,2.9,1.052H165.8a1.558,1.558,0,0,0,.375-.046A1.5,1.5,0,0,0,166.22,584.34Z" transform="translate(-144.489 -567.816)"/>
          <path id="패스_8405" data-name="패스 8405" class="cls-122" d="M166.177,584.3v-9.1a25.3,25.3,0,0,0-9.279-7.377l-12.407,7.8a18.738,18.738,0,0,0,6.274,8.074,19.671,19.671,0,0,0,2.878,1.021h12.112a.309.309,0,0,0,.422-.422Z" transform="translate(-144.489 -567.816)"/>
          <path id="패스_8406" data-name="패스 8406" class="cls-122" d="M166.133,584.257v-9.111a25.3,25.3,0,0,0-9.235-7.325l-12.408,7.8a18.745,18.745,0,0,0,6.258,8.061,20.044,20.044,0,0,0,2.855.992h12.11a1.387,1.387,0,0,0,.368-.051A1.34,1.34,0,0,0,166.133,584.257Z" transform="translate(-144.488 -567.816)"/>
          <path id="패스_8407" data-name="패스 8407" class="cls-123" d="M166.089,584.215v-9.122a25.281,25.281,0,0,0-9.192-7.272l-12.407,7.8a18.746,18.746,0,0,0,6.24,8.049,20.4,20.4,0,0,0,2.833.962h12.108a.309.309,0,0,0,.419-.419Z" transform="translate(-144.488 -567.816)"/>
          <path id="패스_8408" data-name="패스 8408" class="cls-124" d="M166.047,584.174v-9.132a25.279,25.279,0,0,0-9.15-7.219l-12.407,7.8a18.744,18.744,0,0,0,6.223,8.035,20.43,20.43,0,0,0,2.811.932h12.105a1.274,1.274,0,0,0,.363-.054A1.239,1.239,0,0,0,166.047,584.174Z" transform="translate(-144.488 -567.816)"/>
          <path id="패스_8409" data-name="패스 8409" class="cls-125" d="M166,584.132v-9.144a25.266,25.266,0,0,0-9.107-7.166l-12.407,7.8a18.743,18.743,0,0,0,6.206,8.023,20.874,20.874,0,0,0,2.788.9h12.1a1.2,1.2,0,0,0,.359-.057A1.179,1.179,0,0,0,166,584.132Z" transform="translate(-144.488 -567.816)"/>
          <path id="패스_8410" data-name="패스 8410" class="cls-126" d="M165.96,584.09v-9.155a25.264,25.264,0,0,0-9.064-7.113l-12.406,7.8a18.751,18.751,0,0,0,6.189,8.008,21.015,21.015,0,0,0,2.766.872h12.1a.31.31,0,0,0,.415-.416Z" transform="translate(-144.488 -567.816)"/>
          <path id="패스_8411" data-name="패스 8411" class="cls-127" d="M165.917,584.049v-9.166a25.247,25.247,0,0,0-9.021-7.06l-12.406,7.8a18.751,18.751,0,0,0,6.171,8,21.55,21.55,0,0,0,2.743.842h12.1a1.1,1.1,0,0,0,.353-.059A1.077,1.077,0,0,0,165.917,584.049Z" transform="translate(-144.488 -567.817)"/>
          <path id="패스_8412" data-name="패스 8412" class="cls-128" d="M165.873,584.007V574.83a25.253,25.253,0,0,0-8.977-7.007l-12.406,7.8a18.746,18.746,0,0,0,6.154,7.984,21.9,21.9,0,0,0,2.72.812h12.1a1.038,1.038,0,0,0,.35-.062A1.007,1.007,0,0,0,165.873,584.007Z" transform="translate(-144.488 -567.817)"/>
          <path id="패스_8413" data-name="패스 8413" class="cls-129" d="M165.83,583.965v-9.187a25.246,25.246,0,0,0-8.935-6.955l-12.405,7.8a18.752,18.752,0,0,0,6.137,7.971,22.366,22.366,0,0,0,2.7.782h12.094a.311.311,0,0,0,.411-.412Z" transform="translate(-144.488 -567.817)"/>
          <path id="패스_8414" data-name="패스 8414" class="cls-130" d="M165.787,583.923v-9.2a25.253,25.253,0,0,0-8.891-6.9l-12.405,7.8a18.76,18.76,0,0,0,6.12,7.958,22.851,22.851,0,0,0,2.675.751h12.092a.956.956,0,0,0,.343-.065A.926.926,0,0,0,165.787,583.923Z" transform="translate(-144.488 -567.817)"/>
          <path id="패스_8415" data-name="패스 8415" class="cls-131" d="M165.743,583.883v-9.211a25.26,25.26,0,0,0-8.848-6.848l-12.405,7.8a18.744,18.744,0,0,0,6.1,7.945,23.381,23.381,0,0,0,2.654.722h12.09a.312.312,0,0,0,.407-.408Z" transform="translate(-144.488 -567.817)"/>
          <path id="패스_8416" data-name="패스 8416" class="cls-131" d="M165.7,583.84v-9.221a25.267,25.267,0,0,0-8.806-6.8l-12.4,7.8a18.757,18.757,0,0,0,6.085,7.932,23.911,23.911,0,0,0,2.631.691h12.088a.891.891,0,0,0,.338-.068A.86.86,0,0,0,165.7,583.84Z" transform="translate(-144.488 -567.817)"/>
          <path id="패스_8417" data-name="패스 8417" class="cls-132" d="M165.657,583.8v-9.232a25.27,25.27,0,0,0-8.762-6.743l-12.405,7.8a18.768,18.768,0,0,0,6.069,7.919,24.573,24.573,0,0,0,2.609.661h12.085a.827.827,0,0,0,.334-.07A.818.818,0,0,0,165.657,583.8Z" transform="translate(-144.488 -567.817)"/>
          <path id="패스_8418" data-name="패스 8418" class="cls-133" d="M165.614,583.757v-9.243a25.266,25.266,0,0,0-8.72-6.691l-12.4,7.8a18.762,18.762,0,0,0,6.05,7.906,24.907,24.907,0,0,0,2.587.631H165.21a.314.314,0,0,0,.4-.4Z" transform="translate(-144.488 -567.817)"/>
          <path id="패스_8419" data-name="패스 8419" class="cls-134" d="M165.57,583.716v-9.255a25.29,25.29,0,0,0-8.677-6.636l-12.4,7.8a18.779,18.779,0,0,0,6.034,7.893,26.127,26.127,0,0,0,2.564.6h12.08a.771.771,0,0,0,.328-.074A.759.759,0,0,0,165.57,583.716Z" transform="translate(-144.488 -567.817)"/>
          <path id="패스_8420" data-name="패스 8420" class="cls-135" d="M165.527,583.674v-9.265a25.311,25.311,0,0,0-8.634-6.584l-12.4,7.8a18.769,18.769,0,0,0,6.017,7.88c.332.227,2.158.419,2.542.571h12.079a.316.316,0,0,0,.4-.4Z" transform="translate(-144.488 -567.817)"/>
          <path id="패스_8421" data-name="패스 8421" class="cls-135" d="M165.484,583.633v-9.277a25.343,25.343,0,0,0-8.59-6.53l-12.4,7.8a18.773,18.773,0,0,0,6,7.867c.315.215,2.156.4,2.519.541h12.077a.707.707,0,0,0,.321-.077A.7.7,0,0,0,165.484,583.633Z" transform="translate(-144.488 -567.817)"/>
          <path id="패스_8422" data-name="패스 8422" class="cls-136" d="M165.441,583.59V574.3a25.337,25.337,0,0,0-8.548-6.478l-12.4,7.8a18.787,18.787,0,0,0,5.982,7.854c.3.2,2.154.375,2.5.511h12.074a.319.319,0,0,0,.4-.4Z" transform="translate(-144.488 -567.817)"/>
          <path id="패스_8423" data-name="패스 8423" class="cls-136" d="M165.4,583.549v-9.3a25.375,25.375,0,0,0-8.5-6.426l-12.4,7.8a18.786,18.786,0,0,0,5.965,7.841c.279.19,2.152.353,2.475.481H165a.651.651,0,0,0,.315-.081A.643.643,0,0,0,165.4,583.549Z" transform="translate(-144.488 -567.817)"/>
          <path id="패스_8424" data-name="패스 8424" class="cls-137" d="M165.354,583.508V574.2a25.388,25.388,0,0,0-8.462-6.372l-12.4,7.8a18.8,18.8,0,0,0,5.948,7.829c.262.178,2.15.331,2.452.451h12.069a.632.632,0,0,0,.313-.082A.623.623,0,0,0,165.354,583.508Z" transform="translate(-144.488 -567.817)"/>
          <path id="패스_8425" data-name="패스 8425" class="cls-137" d="M165.311,583.466v-9.321a25.414,25.414,0,0,0-8.419-6.319l-12.4,7.8a18.793,18.793,0,0,0,5.931,7.815c.245.167,2.147.31,2.429.421h12.068a.605.605,0,0,0,.309-.084A.6.6,0,0,0,165.311,583.466Z" transform="translate(-144.488 -567.817)"/>
          <path id="패스_8426" data-name="패스 8426" class="cls-138" d="M165.268,583.424v-9.331a25.454,25.454,0,0,0-8.376-6.266l-12.4,7.8a18.785,18.785,0,0,0,5.913,7.8c.227.156,2.145.287,2.407.391h12.064a.327.327,0,0,0,.394-.395Z" transform="translate(-144.488 -567.817)"/>
          <path id="패스_8427" data-name="패스 8427" class="cls-139" d="M165.225,583.383V574.04a25.48,25.48,0,0,0-8.333-6.214l-12.4,7.8a18.8,18.8,0,0,0,5.9,7.789c.21.143,2.143.265,2.385.361h12.063a.329.329,0,0,0,.392-.392Z" transform="translate(-144.488 -567.817)"/>
          <path id="패스_8428" data-name="패스 8428" class="cls-140" d="M165.181,583.342v-9.355a25.519,25.519,0,0,0-8.29-6.16l-12.4,7.8a18.812,18.812,0,0,0,5.879,7.777c.192.131,2.141.242,2.362.331h12.06a.541.541,0,0,0,.3-.09A.535.535,0,0,0,165.181,583.342Z" transform="translate(-144.488 -567.817)"/>
          <path id="패스_8429" data-name="패스 8429" class="cls-141" d="M165.138,583.3v-9.364a25.559,25.559,0,0,0-8.247-6.108l-12.4,7.8a18.8,18.8,0,0,0,5.861,7.763c.175.12,2.138.221,2.34.3h12.059a.334.334,0,0,0,.389-.39Z" transform="translate(-144.488 -567.817)"/>
          <path id="패스_8430" data-name="패스 8430" class="cls-142" d="M165.095,583.258v-9.375a25.616,25.616,0,0,0-8.2-6.055s-12.4,7.8-12.4,7.8a18.823,18.823,0,0,0,5.845,7.75c.158.108,2.136.2,2.318.271h12.056a.511.511,0,0,0,.294-.093A.5.5,0,0,0,165.095,583.258Z" transform="translate(-144.488 -567.817)"/>
          <path id="패스_8431" data-name="패스 8431" class="cls-143" d="M165.052,583.217v-9.387a25.671,25.671,0,0,0-8.161-6s-12.4,7.8-12.4,7.8a18.834,18.834,0,0,0,5.828,7.737c.14.1,2.134.177,2.3.241h12.054a.34.34,0,0,0,.387-.387Z" transform="translate(-144.488 -567.817)"/>
          <path id="패스_8432" data-name="패스 8432" class="cls-144" d="M165.008,583.174v-9.4a25.729,25.729,0,0,0-8.118-5.949s-12.4,7.8-12.4,7.8a18.829,18.829,0,0,0,5.811,7.725c.122.083,2.131.154,2.272.21h12.052a.342.342,0,0,0,.386-.385Z" transform="translate(-144.488 -567.817)"/>
          <path id="패스_8433" data-name="패스 8433" class="cls-144" d="M164.965,583.133v-9.409a25.784,25.784,0,0,0-8.076-5.9s-12.4,7.8-12.4,7.8a18.846,18.846,0,0,0,5.793,7.712c.1.071,2.13.132,2.25.18h12.049a.346.346,0,0,0,.384-.384Z" transform="translate(-144.488 -567.818)"/>
          <path id="패스_8434" data-name="패스 8434" class="cls-145" d="M164.921,583.091v-9.42a25.817,25.817,0,0,0-8.032-5.843s-12.4,7.8-12.4,7.8a18.847,18.847,0,0,0,5.777,7.7c.087.06,2.126.11,2.227.15h12.047a.348.348,0,0,0,.383-.383Z" transform="translate(-144.488 -567.818)"/>
          <path id="패스_8435" data-name="패스 8435" class="cls-145" d="M164.879,583.05v-9.432a25.915,25.915,0,0,0-7.989-5.79s-12.4,7.8-12.4,7.8a18.839,18.839,0,0,0,5.759,7.685c.07.048,2.125.088,2.206.12H164.5a.354.354,0,0,0,.382-.381Z" transform="translate(-144.488 -567.818)"/>
          <path id="패스_8436" data-name="패스 8436" class="cls-146" d="M164.836,583.008v-9.443a25.985,25.985,0,0,0-7.947-5.737s-12.4,7.8-12.4,7.8a18.858,18.858,0,0,0,5.742,7.672c.052.036,2.122.066,2.182.09h12.043a.357.357,0,0,0,.38-.379Z" transform="translate(-144.488 -567.818)"/>
          <path id="패스_8437" data-name="패스 8437" class="cls-147" d="M164.792,582.967v-9.453a26.03,26.03,0,0,0-7.9-5.685s-12.4,7.8-12.4,7.8a18.865,18.865,0,0,0,5.725,7.66c.035.024,2.12.044,2.161.06h12.04a.362.362,0,0,0,.378-.379Z" transform="translate(-144.488 -567.818)"/>
          <path id="패스_8438" data-name="패스 8438" class="cls-148" d="M164.749,582.924V573.46a26.132,26.132,0,0,0-7.861-5.631s-12.4,7.8-12.4,7.8a18.874,18.874,0,0,0,5.708,7.647c.018.012,2.118.022,2.138.03h12.038a.369.369,0,0,0,.378-.378Z" transform="translate(-144.488 -567.818)"/>
          <path id="패스_8439" data-name="패스 8439" class="cls-149" d="M156.888,567.829l-12.4,7.8h0a18.879,18.879,0,0,0,5.69,7.633H164.33a.372.372,0,0,0,.375-.375v-9.476A26.193,26.193,0,0,0,156.888,567.829Z" transform="translate(-144.488 -567.818)"/>
        </g>
        <g id="그룹_6795" data-name="그룹 6795" transform="translate(17.578 2.819)">
          <path id="패스_8440" data-name="패스 8440" class="cls-150" d="M170.259,557.724a16.834,16.834,0,0,0-3.7,1.388c-6,3.1-9.148,9.054-7.024,13.3,1.657,3.316,6.032,4.6,10.726,3.538Z" transform="translate(-158.87 -557.724)"/>
          <path id="패스_8441" data-name="패스 8441" class="cls-151" d="M169.765,558.628v17.678a14.422,14.422,0,0,0,2.67-.352V557.724A16.629,16.629,0,0,0,169.765,558.628Z" transform="translate(-161.046 -557.724)"/>
        </g>
        <path id="패스_8442" data-name="패스 8442" class="cls-152" d="M142.866,564.912a19.263,19.263,0,0,0,6.951,17.736h14.152a.372.372,0,0,0,.375-.375V572.8A26.055,26.055,0,0,0,142.866,564.912Z" transform="translate(-138.058 -556.312)"/>
        <g id="그룹_6796" data-name="그룹 6796" transform="translate(17.583 10.895)">
          <path id="패스_8443" data-name="패스 8443" class="cls-153" d="M159.778,567.815a7.505,7.505,0,0,0-.243,6.615c1.657,3.316,6.032,4.6,10.726,3.538v-1.294A26.091,26.091,0,0,0,159.778,567.815Z" transform="translate(-158.876 -567.815)"/>
          <path id="패스_8444" data-name="패스 8444" class="cls-154" d="M169.765,574.817v4.9a14.423,14.423,0,0,0,2.67-.352v-1.294A25.733,25.733,0,0,0,169.765,574.817Z" transform="translate(-161.051 -569.213)"/>
        </g>
        <g id="그룹_6797" data-name="그룹 6797" transform="translate(6.061 18.396)">
          <path id="패스_8445" data-name="패스 8445" class="cls-155" d="M147.812,577.187a18.363,18.363,0,0,0-3.333.3A18.514,18.514,0,0,0,154.751,587.8h8.3C161.114,581.637,155.157,577.206,147.812,577.187Z" transform="translate(-144.479 -577.187)"/>
          <path id="패스_8446" data-name="패스 8446" class="cls-156" d="M163.311,587.109H151.6a17.886,17.886,0,0,0,4.57,2.668h8.3A14.439,14.439,0,0,0,163.311,587.109Z" transform="translate(-145.902 -579.168)"/>
        </g>
      </g>
    </g>
    <g id="그룹_6800" data-name="그룹 6800" transform="translate(255.082 566.698)">
      <path id="패스_8447" data-name="패스 8447" class="cls-2" d="M291.288,572.589h1v-.006h.894v-1.406h-2.977v-1.361h-2.651v1.361h-2.984v1.406h.886v.006h1.02a3.538,3.538,0,0,0-1,1.168,3.2,3.2,0,0,0-.372,1.5,3.289,3.289,0,0,0,1.116,2.488,3.918,3.918,0,0,0,5.321,0,3.316,3.316,0,0,0,1.106-2.488,3.131,3.131,0,0,0-.373-1.5,3.574,3.574,0,0,0-.99-1.168m-1.385,4.222a1.243,1.243,0,0,1-1.025.655,1.257,1.257,0,0,1-1.012-.655,2.89,2.89,0,0,1,0-3.092,1.25,1.25,0,0,1,1.012-.646,1.237,1.237,0,0,1,1.025.646,2.93,2.93,0,0,1,0,3.092Z" transform="translate(-284.571 -569.817)"/>
      <path id="패스_8448" data-name="패스 8448" class="cls-2" d="M297.02,586.068h-6.614v-3.585h-2.435v3.331a1.588,1.588,0,0,0,.477,1.222,1.671,1.671,0,0,0,1.211.458h8.455v-1.425Z" transform="translate(-285.25 -572.346)"/>
      <path id="패스_8449" data-name="패스 8449" class="cls-2" d="M364.487,572.589h1v-.006h.9v-1.406H363.4v-1.361h-2.643v1.361h-2.984v1.406h.882v.006h1.02a3.522,3.522,0,0,0-.992,1.168,3.139,3.139,0,0,0-.372,1.5,3.276,3.276,0,0,0,1.11,2.488,3.919,3.919,0,0,0,5.322,0,3.279,3.279,0,0,0,1.108-2.488,3.1,3.1,0,0,0-.377-1.5,3.458,3.458,0,0,0-.988-1.168m-1.388,4.222a1.228,1.228,0,0,1-1.021.655,1.254,1.254,0,0,1-1.012-.655,2.877,2.877,0,0,1,0-3.092,1.248,1.248,0,0,1,1.012-.646,1.222,1.222,0,0,1,1.021.646,2.934,2.934,0,0,1,0,3.092Z" transform="translate(-299.19 -569.817)"/>
      <path id="패스_8450" data-name="패스 8450" class="cls-2" d="M361.583,583.911H368.2l0,3.583h2.449l-.009-3.328a1.63,1.63,0,0,0-.483-1.233,1.7,1.7,0,0,0-1.21-.45h-8.451v1.428Z" transform="translate(-299.733 -572.346)"/>
      <path id="패스_8451" data-name="패스 8451" class="cls-2" d="M330.078,583.758v-5.717h-2.035v5.717h-1.236l0-5.717h-2.031v5.717l-2.37-.008v1.431h12.752V583.75Z" transform="translate(-292.127 -571.459)"/>
      <path id="패스_8452" data-name="패스 8452" class="cls-2" d="M386.277,573.133a3.328,3.328,0,0,1-1.733-2.819h0v-.4h-2.473v.384a3.329,3.329,0,0,1-1.721,2.835,6.884,6.884,0,0,1-3.595,1.074l1.157,1.091a8.6,8.6,0,0,0,3.2-.671,3.781,3.781,0,0,0,2.2-1.747,3.885,3.885,0,0,0,2.219,1.747,8.616,8.616,0,0,0,3.18.671l1.159-1.091A6.908,6.908,0,0,1,386.277,573.133Z" transform="translate(-302.98 -569.836)"/>
      <path id="패스_8453" data-name="패스 8453" class="cls-2" d="M400.745,578.287a4.59,4.59,0,0,0,2.322.965l1.184-1.058a4.235,4.235,0,0,1-2.624-1.509,5.051,5.051,0,0,1-1.149-3.414v-.319h2.784V571.52h-8v1.432h2.746v.319a5.088,5.088,0,0,1-1.137,3.406,4.213,4.213,0,0,1-2.635,1.516l1.2,1.058a4.824,4.824,0,0,0,2.319-.97,3.674,3.674,0,0,0,1.482-1.851A3.9,3.9,0,0,0,400.745,578.287Z" transform="translate(-306.472 -570.157)"/>
      <path id="패스_8454" data-name="패스 8454" class="cls-2" d="M409.607,579.746l0-8.23h-2.444l0,2.882h-2.882v1.43h2.882v3.919Z" transform="translate(-308.478 -570.156)"/>
      <path id="패스_8455" data-name="패스 8455" class="cls-2" d="M421.627,582.448V579.71h3.917l-.006-8.19H423.1v2.457h-5.4V571.52h-2.442l0,6.525a1.658,1.658,0,0,0,.458,1.212,1.716,1.716,0,0,0,1.236.453h2.225v2.738h-5.444v1.431H427.07v-1.431h-5.443M417.7,578.28v-2.874h5.4v2.874Z" transform="translate(-310.367 -570.157)"/>
      <path id="패스_8456" data-name="패스 8456" class="cls-2" d="M433.891,576.184a4.141,4.141,0,0,0,5.212,0,2.876,2.876,0,0,0,1.069-2.252,2.906,2.906,0,0,0-1.069-2.267,4.119,4.119,0,0,0-5.212,0,2.906,2.906,0,0,0-1.074,2.267,2.876,2.876,0,0,0,1.074,2.252m1.661-3.566a1.148,1.148,0,0,1,.943-.521,1.136,1.136,0,0,1,.934.521,2.091,2.091,0,0,1,.4,1.314,2.122,2.122,0,0,1-.4,1.305,1.131,1.131,0,0,1-.934.527,1.143,1.143,0,0,1-.943-.527,2.156,2.156,0,0,1-.391-1.305A2.124,2.124,0,0,1,435.552,572.618Z" transform="translate(-314.176 -570.001)"/>
      <path id="패스_8457" data-name="패스 8457" class="cls-2" d="M431.7,579.154v1.352h3.33v1.657h2.438v-1.657h3.538v-1.352Z" transform="translate(-313.954 -571.682)"/>
      <path id="패스_8458" data-name="패스 8458" class="cls-2" d="M446.816,582.479V571.517h-2.439v7.845h-2.112v1.261h2.112l0,1.857Z" transform="translate(-316.063 -570.156)"/>
      <path id="패스_8459" data-name="패스 8459" class="cls-2" d="M437.535,586.262v-2.809h-2.444l0,2.559a1.606,1.606,0,0,0,.48,1.224,1.674,1.674,0,0,0,1.211.457H445.9v-1.431Z" transform="translate(-314.63 -572.54)"/>
      <path id="패스_8460" data-name="패스 8460" class="cls-2" d="M352.958,578.565v-1.423h-3.742c.167-.11.335-.222.5-.351a3.186,3.186,0,0,0,0-5.079,5.013,5.013,0,0,0-6.153,0,3.182,3.182,0,0,0,0,5.079,5.476,5.476,0,0,0,.49.351h-3.741v1.423h3.407v1.557h-2.664v1.428h8.831v3.583h2.443V581.8a1.621,1.621,0,0,0-.484-1.232,1.692,1.692,0,0,0-1.206-.45H349.4v-1.557Zm-7.682-5.936a1.69,1.69,0,0,1,2.711,0,2.435,2.435,0,0,1,.562,1.627,2.471,2.471,0,0,1-.562,1.633,1.7,1.7,0,0,1-2.711,0,2.441,2.441,0,0,1-.56-1.633A2.4,2.4,0,0,1,345.276,572.629Zm2,7.492h-1.421v-1.557h1.421Z" transform="translate(-295.702 -569.985)"/>
      <path id="패스_8461" data-name="패스 8461" class="cls-2" d="M389.693,579.317v-1.425H377.049v1.425h4.932V580.5H378.1v1.412l7.8,0v.942h-7.813l0,2.044a1.611,1.611,0,0,0,.468,1.214,1.7,1.7,0,0,0,1.24.466h8.577v-1.433l-7.844,0V584.2h7.812v-3.7h-3.933v-1.179Z" transform="translate(-303.039 -571.43)"/>
      <path id="패스_8462" data-name="패스 8462" class="cls-2" d="M401.24,587.7a5.031,5.031,0,0,0,6.15,0,3.186,3.186,0,0,0,1.26-2.532,3.227,3.227,0,0,0-1.26-2.552,5.031,5.031,0,0,0-6.15,0,3.215,3.215,0,0,0-1.267,2.552,3.175,3.175,0,0,0,1.267,2.532M403,583.6a1.647,1.647,0,0,1,1.307-.643,1.67,1.67,0,0,1,1.314.643,2.562,2.562,0,0,1,0,3.124,1.65,1.65,0,0,1-1.314.638,1.627,1.627,0,0,1-1.307-.638,2.511,2.511,0,0,1,0-3.124Z" transform="translate(-307.617 -572.163)"/>
      <path id="패스_8463" data-name="패스 8463" class="cls-2" d="M316.462,578.136v-1.424h-1.168a3.262,3.262,0,0,0,.423-1.074,5.891,5.891,0,0,0,.177-1.4v-1.116h-.012a1.64,1.64,0,0,0-1.649-1.628l0,0v-.01h-9.59v1.43h8.815v1.389c0,.442-.021.866-.054,1.286a4.519,4.519,0,0,1-.238,1.12h-9.349v1.424h4.934v2.151h-4.182v1.428H313.4V585.3h2.447l-.01-3.328a1.624,1.624,0,0,0-.479-1.233,1.7,1.7,0,0,0-1.209-.45h-2.964v-2.151Z" transform="translate(-288.414 -570.151)"/>
      <path id="패스_8464" data-name="패스 8464" class="cls-2" d="M333.047,571.517H323.026v1.412l9.1.023v2.534q0,1.729-.094,2.853a4.572,4.572,0,0,1-.571,1.936H333.6a6.292,6.292,0,0,0,.688-1.889,13.6,13.6,0,0,0,.239-2.715v-2.6A1.629,1.629,0,0,0,333.047,571.517Z" transform="translate(-292.251 -570.156)"/>
      <path id="패스_8465" data-name="패스 8465" class="cls-2" d="M372.438,571.511v0h-.69a1.635,1.635,0,0,0-1.629,1.573l0,6.03h2.443l0-6.187h1.872v-1.421Z" transform="translate(-301.655 -570.155)"/>
      <path id="패스_8466" data-name="패스 8466" class="cls-2" d="M299.365,571.49h-.827a1.638,1.638,0,0,0-1.616,1.562l0,8.211h2.442v-8.353h1.88V571.49Z" transform="translate(-287.038 -570.151)"/>
    </g>
  </g>
</svg>
