<svg xmlns="http://www.w3.org/2000/svg" width="115.031" height="33.085" viewBox="0 0 115.031 33.085">
    <path data-name="패스 6160" d="M185.289 340.919h-21.4c-5.545 0-8.922 2.569-8.922 7.876V374h9.469v-23.95h5.429V374h9.447v-23.95h5.432V374h9.469v-25.2c-.002-5.311-3.381-7.881-8.924-7.881zm62.269 24.118V349.99h22.307v-9.066h-23.353c-5.724 0-8.743 3.043-8.743 7.812v17.588c0 4.338 2.516 7.68 8.9 7.68H270v-8.966zm-24.632-8.692v8.638H208.9v-14.956h14.028v6.287c4.888 0 10.216-1.983 10.216-7.461 0-5.365-4.131-7.837-10.72-7.934h-23.142V374h23.336c6.607 0 12.508-2.415 12.508-8.812-.002-6.316-5.207-8.843-12.2-8.843z" transform="translate(-154.965 -340.919)" style="fill:#253643"/>
</svg>
