<svg xmlns="http://www.w3.org/2000/svg" xmlns:xlink="http://www.w3.org/1999/xlink" width="43.571" height="35.556" viewBox="0 0 43.571 35.556">
    <defs>
        <radialGradient id="c" cx="1.182" cy=".473" r=".404" gradientTransform="matrix(253.844 0 0 1 -31168.277 0)" gradientUnits="objectBoundingBox">
            <stop offset="0" stop-color="#fff"/>
            <stop offset="1" stop-color="#161615"/>
        </radialGradient>
        <radialGradient id="f" cx=".91" cy=".968" r=".404" gradientTransform="matrix(2.13 0 0 1 -3.325 0)" xlink:href="#c"/>
        <radialGradient id="g" cx=".047" cy=".039" r=".675" gradientTransform="matrix(1.714 0 0 1 -1.478 0)" xlink:href="#c"/>
        <radialGradient id="h" cx="1.181" cy=".473" r=".404" gradientTransform="matrix(181.08 0 0 1 -23880.107 0)" xlink:href="#c"/>
        <radialGradient id="i" cx=".303" cy=".95" r="1.143" gradientTransform="matrix(.413 0 0 1 1.198 0)" xlink:href="#c"/>
        <radialGradient id="j" cx=".44" cy=".953" r="1.071" gradientTransform="matrix(.51 0 0 1 .744 0)" xlink:href="#c"/>
        <radialGradient id="l" cx=".243" cy=".764" r=".291" gradientTransform="matrix(1.219 0 0 1 -.332 0)" xlink:href="#c"/>
        <radialGradient id="n" cx=".23" cy="1" r="4.208" gradientTransform="matrix(.146 0 0 1 1.629 0)" xlink:href="#c"/>
        <radialGradient id="o" cx=".09" cy=".031" r=".399" gradientTransform="matrix(-2.17 0 0 -1 1522.9 193.652)" xlink:href="#c"/>
        <radialGradient id="r" cx=".036" cy=".709" r="7.143" gradientTransform="matrix(.134 0 0 1 .318 0)" gradientUnits="objectBoundingBox">
            <stop offset="0" stop-color="#100f0c"/>
            <stop offset=".236" stop-color="#fff"/>
            <stop offset=".758" stop-color="#fff"/>
            <stop offset=".785" stop-color="#fafafa"/>
            <stop offset=".815" stop-color="#ececeb"/>
            <stop offset=".848" stop-color="#d5d4d4"/>
            <stop offset=".883" stop-color="#b4b4b3"/>
            <stop offset=".919" stop-color="#8a8a88"/>
            <stop offset=".956" stop-color="#575755"/>
            <stop offset=".993" stop-color="#1c1b19"/>
            <stop offset="1" stop-color="#100f0c"/>
        </radialGradient>
        <linearGradient id="a" x1=".5" y1="1.282" x2=".5" y2="-.254" gradientUnits="objectBoundingBox">
            <stop offset="0" stop-color="#383534"/>
            <stop offset="1" stop-color="#232423"/>
        </linearGradient>
        <linearGradient id="b" x1=".5" y1="-.224" x2=".5" y2="1.227" gradientUnits="objectBoundingBox">
            <stop offset="0" stop-color="#333"/>
            <stop offset="1"/>
        </linearGradient>
        <linearGradient id="d" x1=".5" y1="1.017" x2=".5" y2="-.004" xlink:href="#a"/>
        <linearGradient id="e" x1=".5" y1="0" x2=".5" y2=".982" xlink:href="#b"/>
        <linearGradient id="k" x1=".5" y1=".997" x2=".5" y2=".629" gradientUnits="objectBoundingBox">
            <stop offset="0" stop-color="#fff"/>
            <stop offset="1" stop-color="#201c1a"/>
        </linearGradient>
        <linearGradient id="m" x1=".5" y1=".691" x2=".5" y2=".384" gradientUnits="objectBoundingBox">
            <stop offset="0" stop-color="#fff"/>
            <stop offset=".534" stop-color="#201c1a"/>
            <stop offset="1" stop-color="#fff"/>
        </linearGradient>
        <linearGradient id="p" x1=".994" y1=".03" x2="-.002" y2="1.081" gradientUnits="objectBoundingBox">
            <stop offset="0" stop-color="#bf0011"/>
            <stop offset=".478" stop-color="#900911"/>
            <stop offset=".588" stop-color="#930811"/>
            <stop offset=".682" stop-color="#9d0611"/>
            <stop offset=".769" stop-color="#af0311"/>
            <stop offset=".826" stop-color="#bf0011"/>
            <stop offset=".927" stop-color="#880a10"/>
            <stop offset=".947" stop-color="#850a10"/>
            <stop offset=".961" stop-color="#7b0b10"/>
            <stop offset=".973" stop-color="#6b0d10"/>
            <stop offset=".985" stop-color="#550f10"/>
            <stop offset=".996" stop-color="#391210"/>
            <stop offset="1" stop-color="#2b1411"/>
        </linearGradient>
        <linearGradient id="q" x1=".272" y1="-.174" x2=".799" y2="1.387" gradientUnits="objectBoundingBox">
            <stop offset="0" stop-color="#a70011"/>
            <stop offset=".017" stop-color="#c60010"/>
            <stop offset=".032" stop-color="#cd1219"/>
            <stop offset=".066" stop-color="#db362b"/>
            <stop offset=".094" stop-color="#e34b36"/>
            <stop offset=".112" stop-color="#e7543b"/>
            <stop offset=".273" stop-color="#e13129"/>
            <stop offset=".478" stop-color="#da0010"/>
            <stop offset=".708" stop-color="#da0010"/>
            <stop offset="1" stop-color="#c60010"/>
        </linearGradient>
    </defs>
    <path data-name="패스 6143" d="m-3857.379-214.47-6.9-8.491 10.021-12.34h-5.474a6.711 6.711 0 0 0-5.624 2.5l-5.281 6.494v-17.846h-5.3a2.26 2.26 0 0 0-2.253 2.261v33.292h5.3a2.259 2.259 0 0 0 2.253-2.261v-8.858l4.292 5.268 3.65 4.495a3.4 3.4 0 0 0 2.7 1.352h7.392z" style="fill:url(#a)" transform="translate(3878.185 244.157)"/>
    <path data-name="패스 6144" d="M-3851.718-206.976c-.433-.471-2.131-2.712-4.265-5.23-2.822-3.33-5.7-7.144-6.419-7.992 1.1-1.357 8.293-10.208 9.15-11.255l.376-.444h-4.394a6.624 6.624 0 0 0-4.771 2.182l-6.3 7.752a.121.121 0 0 1-.091.043.121.121 0 0 1-.12-.122v-18.709h-4.636a1.6 1.6 0 0 0-1.591 1.6v32.632h4.636a1.6 1.6 0 0 0 1.591-1.6v-10.551a.119.119 0 0 1 .12-.12.118.118 0 0 1 .088.038l5.314 6.547 3.7 4.545a3.1 3.1 0 0 0 2.214 1.141h5.813z" transform="translate(3875.442 241.414)" style="fill:url(#b)"/>
    <path data-name="패스 6145" d="M-3730.119-208.6a6.578 6.578 0 0 1-6.9-6.9v-26.4a2.263 2.263 0 0 1 2.262-2.257h5.3v27.24a2.03 2.03 0 0 0 2.025 2.031h5.395v4.024a2.264 2.264 0 0 1-2.263 2.261z" transform="translate(3764.517 244.157)" style="fill:url(#d)"/>
    <path data-name="패스 6146" d="M-3727.385-206.548a5.921 5.921 0 0 1-6.243-6.24v-26.4a1.6 1.6 0 0 1 1.6-1.6h4.639v26.582a2.693 2.693 0 0 0 2.688 2.693h4.734v3.362a1.6 1.6 0 0 1-1.6 1.6z" transform="translate(3761.783 241.446)" style="fill:url(#e)"/>
    <path data-name="사각형 2194" transform="translate(.663 11.542)" style="fill:url(#c);isolation:isolate;mix-blend-mode:screen;opacity:.5" d="M0 0h.092v23.321H0z"/>
    <path data-name="패스 6147" d="M-3871.869-114.827h4.138a1.613 1.613 0 0 0 1.522-1.671v-10.386h-.094v10.384a1.554 1.554 0 0 1-1.428 1.575h-4.138z" transform="translate(3873.099 149.725)" style="fill:url(#f);opacity:.25;isolation:isolate;mix-blend-mode:screen"/>
    <path data-name="패스 6148" d="M-3733.532-230.093v-9.2a1.529 1.529 0 0 1 1.407-1.4h4.643l.094-.095h-4.737a1.627 1.627 0 0 0-1.5 1.5v9.2z" transform="translate(3761.783 241.446)" style="fill:url(#g);opacity:.25;isolation:isolate;mix-blend-mode:screen"/>
    <path data-name="패스 6149" d="M-3733.532-168.128v-17.385h-.1v17.385z" transform="translate(3761.783 196.935)" style="fill:url(#h);opacity:.25;isolation:isolate;mix-blend-mode:screen"/>
    <path data-name="패스 6150" d="M-3702.1-105.894a4.285 4.285 0 0 0 .089.957 2.694 2.694 0 0 0 .871 1.448 3.016 3.016 0 0 0 2.065.695h4.477v-.1c-.666 0-4.543.008-4.543.008a2.713 2.713 0 0 1-2.217-.943 2.644 2.644 0 0 1-.577-1.135 4.213 4.213 0 0 1-.071-.933z" transform="translate(3736.398 132.824)" style="fill:url(#i);isolation:isolate;mix-blend-mode:screen;opacity:.5"/>
    <path data-name="패스 6151" d="M-3721.457-90.258h-5.832a5.71 5.71 0 0 1-6.017-5.995h-.095a5.806 5.806 0 0 0 6.112 6.091h5.832z" transform="translate(3761.601 125.062)" style="fill:url(#j);opacity:.25;isolation:isolate;mix-blend-mode:screen"/>
    <path data-name="패스 6152" d="M-3733.628-171.469h6.24v-4h-6.24z" transform="translate(3761.783 188.847)" style="fill:url(#k);mix-blend-mode:multiply;isolation:isolate"/>
    <path data-name="패스 6153" d="M-3811.83-182.463s8.364-10.293 9.292-11.43h-.121l-9.259 11.395z" transform="translate(3824.825 203.683)" style="fill:url(#l);opacity:.25;isolation:isolate;mix-blend-mode:screen"/>
    <path data-name="패스 6154" d="M-3830.191-195.578a6.43 6.43 0 0 0-4.622 2.11l-6.287 7.735 5.827 1.865s8.476-10.435 9.417-11.584c-1.129-.001-4.335-.126-4.335-.126z" transform="translate(3848.323 205.04)" style="fill:url(#m);mix-blend-mode:multiply;isolation:isolate"/>
    <path data-name="패스 6155" d="M-3794.942-70.391a3.009 3.009 0 0 0 2.1 1.05h5.109l-.086-.093h-5.023a3.424 3.424 0 0 1-2.1-.956z" transform="translate(3811.155 104.236)" style="fill:url(#n);opacity:.25;isolation:isolate;mix-blend-mode:screen"/>
    <path data-name="패스 6156" d="M-3869.119-240.751h-4.137a1.614 1.614 0 0 0-1.523 1.671v10.613h.094v-10.613a1.554 1.554 0 0 1 1.429-1.575h4.137z" transform="translate(3875.442 241.414)" style="fill:url(#o);opacity:.25;isolation:isolate;mix-blend-mode:screen"/>
    <g data-name="그룹 6416">
        <path data-name="패스 6157" d="M-3806.392-200.592c-4.276 0-19.782.01-19.782.01a6.866 6.866 0 0 0-5.7 2.469l-3.829 4.719s0-.009-.006-.005a8.818 8.818 0 0 1 5.254-1.687h24.062c3.05 0 5.982-.934 5.982-3.337a20.283 20.283 0 0 0-.275-3.723s-1.431 1.554-5.706 1.554z" transform="translate(3843.98 210.329)" style="fill:url(#p)"/>
    </g>
    <path data-name="패스 6158" d="m-3835.412-198.815 4.426-5.453a6.433 6.433 0 0 1 5.566-2.577h19.266c4.075 0 5.5-1.448 5.51-1.462l.469-.494v5.019a2.06 2.06 0 0 1-.6 1.449c-.929 1.019-2.738 1.536-5.375 1.536h-24.095a8.138 8.138 0 0 0-5.167 1.982z" transform="translate(3843.743 215.687)" style="fill:url(#q)"/>
    <path data-name="패스 6159" d="M-3800.295-181.714c-.024.483-.663 2.616-5.946 2.616h-23.724a7.775 7.775 0 0 0-5.513 2.051l-.042.048a8.161 8.161 0 0 1 5.555-2h23.724c5.958 0 5.946-2.714 5.946-2.714z" transform="translate(3843.83 193.876)" style="opacity:.7;fill:url(#r);isolation:isolate;mix-blend-mode:screen"/>
</svg>
