<svg xmlns="http://www.w3.org/2000/svg" width="211.174" height="32.997" viewBox="0 0 211.174 32.997">
    <defs>
        <style>
            .cls-1{fill:#00827d}
        </style>
    </defs>
    <g id="그룹_6760" data-name="그룹 6760" transform="translate(-29.657 -121.105)">
        <g id="그룹_6758" data-name="그룹 6758" transform="translate(29.657 123.577)">
            <g id="그룹_6755" data-name="그룹 6755" transform="translate(0 21.685)">
                <path id="패스_8066" data-name="패스 8066" class="cls-1" d="M36.931 268.312a1.78 1.78 0 0 1-.6-.127 4.478 4.478 0 0 1-1.484-1.137c-.393-.362-2.346-2.381-2.729-2.794.323-.355 1.966-1.931 2.2-2.161a3.717 3.717 0 0 1 1.071-.856 1.463 1.463 0 0 1 .538-.133c.083 0 .163-.027.163-.08s-.084-.08-.213-.08c-.256 0-.923.021-.966.021-.24 0-.521-.021-.728-.021-.1 0-.183.019-.184.08s.086.064.13.084c.062.028.087.05.09.152s-.242.4-.526.683c-.334.36-1.9 1.959-2.289 2.364v-.484c0-1.573 0-1.854.021-2.172.027-.353.082-.468.319-.517a1.408 1.408 0 0 1 .242-.029c.053 0 .14-.024.143-.069 0-.093-.118-.091-.223-.091-.305 0-.864.021-.949.021-.054 0-.624-.021-1.079-.021-.1 0-.224 0-.225.091 0 .045.091.069.145.069a1.78 1.78 0 0 1 .326.028c.312.077.356.178.383.518.023.319.023.6.023 2.172v1.772c0 .968 0 1.764-.051 2.181-.041.3-.093.477-.242.5a1.573 1.573 0 0 1-.288.039c-.083 0-.145.031-.145.069 0 .093.119.088.225.088.3 0 .862-.02.937-.02s.635.02 1.13.02c.112 0 .22.02.224-.088 0-.036-.062-.069-.142-.069a3.681 3.681 0 0 1-.386-.039c-.263-.039-.3-.2-.338-.5-.05-.417-.05-1.213-.05-2.181v-.871c.589.7 2.573 2.839 3.02 3.209a2.029 2.029 0 0 0 1.253.52c.227.018.362.018.643.018h.514c.166 0 .277.03.286-.088-.015-.117-.12-.068-.189-.071z" transform="translate(-29.657 -260.943)"/>
                <path id="패스_8067" data-name="패스 8067" class="cls-1" d="M75.529 273.348a1.167 1.167 0 0 1-.336-.047c-.169-.049-.407-.159-.725-.9-.538-1.276-1.923-4.741-2.057-5.064-.107-.253-.139-.325-.247-.335-.114.012-.139.093-.246.362l-2 5.215c-.16.421-.323.708-.7.756-.069.006-.191.015-.249.015s-.132-.019-.136.058c.008.108.117.073.224.073.416 0 .9-.015 1-.015s.473.015.688.015c.077 0 .185.008.189-.073 0-.052-.08-.058-.144-.058h-.09c-.136 0-.28-.066-.28-.189a1.639 1.639 0 0 1 .12-.545l.529-1.487c.016-.032.02-.031.037-.032H73c.031 0 .011-.006.032.022l.818 2.062a.224.224 0 0 1 .017.082c0 .052-.025.069-.036.073-.078.013-.1.029-.1.066.021.078.134.05.318.059a77.18 77.18 0 0 0 1.388.021c.091 0 .216.025.233-.073.003-.049-.093-.061-.141-.061zm-4.3-2.664.772-2.255c0-.013.008-.024.013-.036a.291.291 0 0 0 .012.036l.834 2.255z" transform="translate(-62.066 -265.952)"/>
                <path id="패스_8068" data-name="패스 8068" class="cls-1" d="M389.7 273.348a1.16 1.16 0 0 1-.333-.047c-.17-.049-.408-.159-.727-.9-.537-1.276-1.921-4.741-2.056-5.064-.107-.253-.139-.325-.248-.335-.114.012-.138.093-.246.362l-2 5.215c-.159.421-.324.708-.7.756-.067.006-.191.015-.248.015s-.131-.019-.135.058c.007.108.116.073.225.073.416 0 .9-.015 1-.015s.474.015.689.015c.077 0 .184.008.188-.073 0-.052-.079-.058-.143-.058h-.09c-.135 0-.28-.066-.281-.189a1.643 1.643 0 0 1 .122-.545l.529-1.487c.018-.032.02-.031.037-.032h1.9c.028 0 .009-.006.029.022l.82 2.062a.227.227 0 0 1 .017.082c0 .052-.027.069-.037.073-.08.013-.1.029-.1.066.022.078.134.05.319.059a77.12 77.12 0 0 0 1.389.021c.092 0 .217.025.231-.073-.005-.049-.1-.061-.151-.061zm-4.295-2.664.775-2.255c0-.013.009-.024.012-.036a.308.308 0 0 1 .013.036l.834 2.255z" transform="translate(-321.963 -265.952)"/>
                <path id="패스_8069" data-name="패스 8069" class="cls-1" d="M116.87 267.207c-.347 0-.629.02-.713.02s-.495-.02-.873-.02c-.088 0-.21-.01-.222.069 0 .04.043.064.121.064a2.259 2.259 0 0 1 .4.041c.224.062.273.2.286.747l.089 4.128c-.348-.371-1.168-1.287-1.92-2.09a239.586 239.586 0 0 1-2.668-2.909c-.091-.082-.191-.257-.341-.257-.143.025-.133.153-.14.475l-.007 4.811c0 .771-.056.982-.214 1.015a1.211 1.211 0 0 1-.33.047c-.094 0-.121.032-.121.058 0 .07.094.074.19.074.379 0 .736-.015.8-.015s.409.015.891.015c.173 0 .2-.029.2-.074 0-.026-.027-.058-.121-.058a1.877 1.877 0 0 1-.405-.047c-.186-.054-.27-.232-.288-.924l-.107-3.877c.358.4 1.218 1.352 2.1 2.3a107.55 107.55 0 0 0 2.181 2.282c.448.44.536.536.656.549s.132-.109.137-.648l.016-4.924c.006-.512.027-.642.268-.693a.632.632 0 0 1 .191-.027c.071 0 .144-.01.145-.064-.005-.075-.122-.068-.201-.068z" transform="translate(-96.299 -265.952)"/>
                <path id="패스_8070" data-name="패스 8070" class="cls-1" d="M299.455 267.207c-.346 0-.629.02-.713.02s-.494-.02-.874-.02c-.087 0-.208-.01-.221.069 0 .04.043.064.123.064a2.292 2.292 0 0 1 .4.041c.224.062.272.2.285.747l.088 4.128c-.346-.371-1.168-1.287-1.919-2.09-1.293-1.385-2.544-2.771-2.669-2.909-.092-.082-.19-.257-.341-.257-.143.025-.133.153-.138.475l-.009 4.811c0 .771-.053.982-.213 1.015a1.2 1.2 0 0 1-.33.047c-.094 0-.12.032-.12.058 0 .07.093.074.188.074.38 0 .736-.015.806-.015s.41.015.891.015c.173 0 .2-.029.2-.074 0-.026-.027-.058-.121-.058a1.862 1.862 0 0 1-.4-.047c-.187-.054-.272-.232-.288-.924l-.106-3.877c.358.4 1.216 1.352 2.095 2.3a107.55 107.55 0 0 0 2.181 2.282c.448.44.536.536.655.549.135 0 .133-.109.137-.648l.017-4.924c.007-.512.03-.642.269-.693a.63.63 0 0 1 .19-.027c.07 0 .145-.01.146-.064-.013-.075-.128-.068-.209-.068z" transform="translate(-247.341 -265.952)"/>
                <path id="패스_8071" data-name="패스 8071" class="cls-1" d="M429.886 267.207c-.347 0-.627.02-.713.02s-.495-.02-.874-.02c-.086 0-.209-.01-.221.069 0 .04.043.064.121.064a2.236 2.236 0 0 1 .4.041c.225.062.275.2.288.747l.088 4.128c-.348-.371-1.169-1.287-1.921-2.09a244.792 244.792 0 0 1-2.667-2.909c-.093-.082-.191-.257-.343-.257-.142.025-.132.153-.138.475l-.008 4.811c0 .771-.056.982-.213 1.015a1.222 1.222 0 0 1-.329.047c-.1 0-.121.032-.121.058 0 .07.093.074.187.074.379 0 .735-.015.805-.015s.41.015.892.015c.173 0 .2-.029.2-.074 0-.026-.027-.058-.12-.058a1.888 1.888 0 0 1-.406-.047c-.186-.054-.27-.232-.287-.924l-.106-3.877c.357.4 1.216 1.352 2.1 2.3.891.963 2.081 2.192 2.179 2.282.448.44.537.536.656.549s.131-.109.137-.648l.016-4.924c.005-.512.028-.642.269-.693a.611.611 0 0 1 .189-.027c.069 0 .144-.01.145-.064-.009-.075-.126-.068-.205-.068z" transform="translate(-355.238 -265.952)"/>
                <path id="패스_8072" data-name="패스 8072" class="cls-1" d="M160.82 270.407c-.255 0-.786.024-.822.024s-.573-.024-.949-.024c-.089 0-.189.018-.189.076 0 .039.075.058.12.058a1.2 1.2 0 0 1 .274.026c.315.1.326.119.338.813v1.427a.249.249 0 0 1-.141.245 2.218 2.218 0 0 1-.932.17 2.988 2.988 0 0 1-2.161-.884 3.361 3.361 0 0 1-.874-2.286 2.345 2.345 0 0 1 2.575-2.633 2.383 2.383 0 0 1 1.927.654 1.267 1.267 0 0 1 .17.529c.009.066 0 .167.064.177s.084-.106.084-.231a10.428 10.428 0 0 1 .059-1.192c.007-.057-.009-.127-.1-.127a4.051 4.051 0 0 1-.627-.083 7.119 7.119 0 0 0-1.3-.146 4.188 4.188 0 0 0-2.261.536 3.243 3.243 0 0 0-1.428 2.81 3.334 3.334 0 0 0 1.017 2.432 4.636 4.636 0 0 0 4.605.529c.122-.068.143-.138.136-.5v-.943c0-.351 0-.6.017-.87.024-.291.069-.387.265-.428a1.149 1.149 0 0 1 .2-.026c.044 0 .117-.019.121-.058-.002-.057-.101-.075-.188-.075z" transform="translate(-133.051 -265.952)"/>
                <path id="패스_8073" data-name="패스 8073" class="cls-1" d="M202.787 267.927c-.261 0-.627.02-.678.02-.072 0-.429-.02-.857-.02-.094 0-.194.012-.2.069s.067.066.128.066c.386.01.421.082.425.2a1.821 1.821 0 0 1-.092.524c-.279 1.026-1 3.307-1.259 4.175l-1.636-4.659c-.107-.281-.129-.4-.26-.43-.108.014-.13.086-.259.421l-1.733 4.661c-.206-.735-.971-3.436-1.088-3.932a6.9 6.9 0 0 1-.158-.761.172.172 0 0 1 .08-.155.833.833 0 0 1 .306-.043c.04 0 .138-.013.138-.066-.005-.069-.063-.069-.2-.069-.422 0-.8.02-.872.02-.089 0-.561-.02-1-.02-.078 0-.172.007-.178.069 0 .045.078.066.121.066a1.4 1.4 0 0 1 .366.046c.2.081.292.178.428.622l1.5 4.979c.173.564.195.681.347.7.153-.012.192-.135.325-.48.29-.746 1.357-3.6 1.712-4.546l1.605 4.553c.122.322.156.457.3.472.161-.02.181-.143.4-.758.329-.941 1.177-3.612 1.545-4.678.158-.463.3-.8.515-.873a1.02 1.02 0 0 1 .266-.039c.068 0 .128-.03.128-.076-.002-.071-.093-.056-.165-.058z" transform="translate(-165.111 -266.673)"/>
                <g id="그룹_6754" data-name="그룹 6754" transform="translate(37.955 1.048)">
                    <path id="패스_8074" data-name="패스 8074" class="cls-1" d="M252.716 267a3.124 3.124 0 0 1 3.355 3.2 3.358 3.358 0 0 1-3.405 3.486 3.208 3.208 0 0 1-3.31-3.354 3.306 3.306 0 0 1 3.36-3.332zm.176 6.265c.74-.006 2.261-.41 2.264-2.828 0-1.993-1.2-3.045-2.5-3.046-1.376 0-2.393.893-2.4 2.709 0 1.934 1.155 3.162 2.634 3.164z" transform="translate(-249.355 -267)"/>
                </g>
                <path id="패스_8075" data-name="패스 8075" class="cls-1" d="M356.187 267.077c-.064 0-.095.106-.1.185a1.3 1.3 0 0 1-.248.572c-.209.262-.632.281-1.169.279a6.654 6.654 0 0 1-2.07-.214c-.148-.129-.209-.786-.2-2.263v-1.82c0-1.573 0-1.854.019-2.172.027-.353.078-.465.341-.517a2.1 2.1 0 0 1 .321-.029c.054 0 .141-.024.144-.069 0-.07-.121-.092-.225-.092-.3 0-1.012.031-1.057.031s-.657-.031-1.11-.031c-.106 0-.224.022-.224.092 0 .045.09.069.144.069a1.764 1.764 0 0 1 .325.028c.314.075.356.178.385.518.02.319.02.6.02 2.172v1.772c0 .968 0 1.764-.049 2.181-.04.3-.093.477-.243.5a1.421 1.421 0 0 1-.289.039.178.178 0 0 0-.143.07c0 .07.119.088.226.088.3 0 .872-.028.958-.028.58 0 2.124.06 3.575.06h.119c.42 0 .413.015.469-.211a6.109 6.109 0 0 0 .154-1c-.003-.092-.008-.208-.073-.21z" transform="translate(-295.158 -260.936)"/>
                <path id="패스_8076" data-name="패스 8076" class="cls-1" d="M473.108 269.071a4 4 0 0 0-3.057-.887h-.348c-.506 0-1.038.011-1.135.011-.038 0-.569-.011-.95-.011-.087 0-.186 0-.186.077 0 .056.072.056.122.056a1.566 1.566 0 0 1 .271.026c.258.063.3.148.321.429.016.265.016.5.016 1.812v1.477c0 .807 0 1.47-.042 1.816-.032.246-.077.4-.2.416a1.225 1.225 0 0 1-.241.032c-.068 0-.121.027-.121.058 0 .077.1.074.188.074.253 0 .785-.008.823-.008.075 0 1.141.085 1.866.085a3.416 3.416 0 0 0 2.579-.891 3.49 3.49 0 0 0 .922-2.4 3.047 3.047 0 0 0-.828-2.172zm-.032 2.431a2.88 2.88 0 0 1-.655 1.966 2.769 2.769 0 0 1-1.963.766c-.986 0-1.295-.178-1.383-.31a1.941 1.941 0 0 1-.083-.611 69.482 69.482 0 0 1-.016-1.82v-1.041c0-.647 0-1.505.008-1.789.005-.083.008-.086.069-.121a2.327 2.327 0 0 1 .524-.053 3.407 3.407 0 0 1 2.708.931 2.963 2.963 0 0 1 .79 2.08z" transform="translate(-391.801 -266.932)"/>
            </g>
            <g id="그룹_6757" data-name="그룹 6757" transform="translate(18.354)">
                <g id="그룹_6756" data-name="그룹 6756">
                    <path id="패스_8077" data-name="패스 8077" class="cls-1" d="m204.357 160.393-.655-1.632c-10.1 0-10.99-4.254-15.978-4.254s-5.88 4.254-15.976 4.254l-.658 1.632c10.519 0 11.6-5.408 16.633-5.408s6.117 5.408 16.634 5.408z" transform="translate(-165.011 -151.208)"/>
                    <path id="패스_8078" data-name="패스 8078" class="cls-1" d="m221.2 138.694-.343-1.089c-7.884 0-8.448-2.191-11.846-2.191s-3.961 2.191-11.845 2.191l-.342 1.089c7.641 0 8.3-2.836 12.187-2.836s4.551 2.836 12.189 2.836z" transform="translate(-186.302 -135.414)"/>
                    <path id="패스_8079" data-name="패스 8079" class="cls-1" d="m213.477 149.19-.4-1.222c-8.737 0-9.387-3.136-13.822-3.136s-5.083 3.136-13.82 3.136l-.405 1.222c9.031 0 9.748-3.906 14.226-3.906s5.19 3.906 14.221 3.906z" transform="translate(-176.538 -143.205)"/>
                    <path id="패스_8080" data-name="패스 8080" class="cls-1" d="M180.419 185.111c-13.961 0-15.4-7.942-21.809-7.942s-7.847 7.942-21.807 7.942l-.906 2.111c14.9 0 16.6-9.494 22.713-9.494s7.818 9.494 22.713 9.494z" transform="translate(-135.897 -169.955)"/>
                    <path id="패스_8081" data-name="패스 8081" class="cls-1" d="m194.264 172.88-.655-1.689c-11.922 0-12.968-5.872-18.644-5.872s-6.719 5.872-18.643 5.872l-.655 1.689c12.395 0 13.564-6.985 19.3-6.985s6.902 6.985 19.297 6.985z" transform="translate(-152.252 -160.153)"/>
                </g>
            </g>
        </g>
        <g id="그룹_6759" data-name="그룹 6759" transform="translate(113.584 121.105)">
            <path id="패스_8082" data-name="패스 8082" class="cls-1" d="m517.706 141.6-2.252-2.139c7.788-1.755 11.582-6.987 12.144-11.793h-10.11v-3.126h15.55c-.416 9.407-7.338 15.439-15.332 17.058zm15.578 14.182c-4.6 0-8.387-3.4-8.387-7.515 0-4.138 3.79-7.545 8.387-7.545s8.422 3.407 8.422 7.545c-.001 4.107-3.823 7.512-8.423 7.512zm0-11.971a4.47 4.47 0 0 0 0 8.883 4.47 4.47 0 0 0 0-8.883zm9.829-10.947v4.493a20.438 20.438 0 0 1-.282 3.683h-4.175v-14.569a8.072 8.072 0 0 0-.562-3.339h5.02v6.6h4.561v3.126z" transform="translate(-515.454 -122.782)"/>
            <path id="패스_8083" data-name="패스 8083" class="cls-1" d="M710.4 138.587V135.5h16.357a28.4 28.4 0 0 0 5.161-.42v2.774a20.27 20.27 0 0 1-5.9.737h-3.755v4.634h-4.492v-4.634zm10.357-4.283c-4.108 0-7.408-2.946-7.408-6.6s3.3-6.6 7.408-6.6 7.406 2.95 7.406 6.6-3.307 6.596-7.41 6.596zm-2.039 19.272a1.152 1.152 0 0 1-1.122-1.094v-4.558a7.759 7.759 0 0 0-.563-3.3h5.021v5.828h16.779v3.124zm2.039-29.382a3.545 3.545 0 1 0 3.053 3.509 3.338 3.338 0 0 0-3.057-3.509zm17.442 21.131h-4.176v-2h-6.773v-3.089h6.773v-15.442a8.1 8.1 0 0 0-.561-3.339h5.02v20.183a20.712 20.712 0 0 1-.287 3.687z" transform="translate(-676.718 -121.105)"/>
            <path id="패스_8084" data-name="패스 8084" class="cls-1" d="M909.279 141.7h-9.193a1.118 1.118 0 0 1-1.091-1.088v-5.83a9.137 9.137 0 0 0-.42-2.946H907v-3.649h-8.181v-3.124h12.636v9.719h-8.034v3.795h6.244a25.272 25.272 0 0 0 5.338-.561v-11.545a8.172 8.172 0 0 0-.529-3.339h4.7v8.491h2.494v-5.153a8.153 8.153 0 0 0-.53-3.339h4.7v19.132a21.117 21.117 0 0 1-.274 3.687h-3.9v-11.2h-2.494v7.51a20.752 20.752 0 0 1-.281 3.687H915v-5.058a20.883 20.883 0 0 1-5.721.811zm-3.193 13.551a1.154 1.154 0 0 1-1.125-1.094V148.2a7.921 7.921 0 0 0-.56-3.3h5.014v7.231H926.2v3.124z" transform="translate(-832.387 -122.782)"/>
            <path id="패스_8085" data-name="패스 8085" class="cls-1" d="M1073.207 165.173v-3.121h30.893v3.121zm5.157-9.965a1.146 1.146 0 0 1-1.121-1.087v-11.409a7.807 7.807 0 0 0-.56-3.3h23.549v3.121H1081.7v9.547h18.713v3.124z" transform="translate(-976.849 -136.252)"/>
        </g>
    </g>
</svg>
