<svg xmlns="http://www.w3.org/2000/svg" width="215.878" height="57.327" viewBox="0 0 215.878 57.327">
    <defs>
        <style>
            .cls-3{fill:#302d2c}
        </style>
    </defs>
    <g id="그룹_6904" data-name="그룹 6904" transform="translate(-21.542 -225.572)">
        <g id="그룹_6891" data-name="그룹 6891" transform="translate(21.542 225.572)">
            <path id="패스_8980" data-name="패스 8980" d="M47.6 269.37c0-1.021-.448-1.327-1.316-1.205a17.853 17.853 0 0 0-4.537 1.35c-.431.2-.654-.277-.265-.515 12.732-7.816 18.048 3.127 9.343 9.911-.331.258-.238.581.24.557 9.62-.584 10.25 16.27-11.132 21.488-.415.1-.373.6.068.6 35.215.481 37.452-29.139 19.85-26.178 10.606-7.448 5.247-18.145-12.251-11.464v-5.053H35.659v11.777c-18.76 14.576-17.065 28.664-5.17 28.664 6.063 0 17.111-4.023 17.111-19.069zm-11.941 12.245c0 9.3-4.848 12.389-7.937 12.389-4.853 0-5.871-9.111 7.937-20.572z" transform="translate(-21.542 -244.239)" style="fill:#003e92"/>
            <path id="패스_8981" data-name="패스 8981" d="M68.345 232.71c-4.5 3.133-11.341 4.421-13.623 4.991-.564.146-.795-.01-.908-.466-1.588-11 11.072-14.911 9.172-8.737 7.741-4.28 10.1.916 5.359 4.212" transform="translate(-39.56 -225.572)" style="fill:#e12f15"/>
        </g>
        <g id="그룹_6893" data-name="그룹 6893" transform="translate(74.484 271.218)">
            <g id="그룹_6892" data-name="그룹 6892">
                <path id="패스_8982" data-name="패스 8982" class="cls-3" d="M142.055 334.307a1.674 1.674 0 0 0 .719.146c.471 0 .812-.334.812-1.309v-3.431h1.592v3.909a1.885 1.885 0 0 1-2.139 2.164 4.115 4.115 0 0 1-.983-.162z" transform="translate(-142.055 -329.611)"/>
                <path id="패스_8983" data-name="패스 8983" class="cls-3" d="M151.6 329.714h4.2v1.128h-2.616v1.233h2.472v1.13h-2.472v1.351h2.71v1.129h-4.3z" transform="translate(-147.404 -329.611)"/>
                <path id="패스_8984" data-name="패스 8984" class="cls-3" d="M166.078 329.479a3.089 3.089 0 1 1-2.994 3.088 2.761 2.761 0 0 1 2.994-3.088zm0 5c.965 0 1.351-.924 1.351-1.908 0-1.035-.386-1.907-1.351-1.907s-1.352.872-1.352 1.907c.001.98.385 1.904 1.352 1.904z" transform="translate(-153.846 -329.479)"/>
                <path id="패스_8985" data-name="패스 8985" class="cls-3" d="M178.739 329.714h1.591v4.786h2.464v1.182h-4.055z" transform="translate(-162.624 -329.611)"/>
                <path id="패스_8986" data-name="패스 8986" class="cls-3" d="M189.566 329.714h1.59v4.786h2.465v1.182h-4.055z" transform="translate(-168.694 -329.611)"/>
                <path id="패스_8987" data-name="패스 8987" class="cls-3" d="M201.16 329.714h1.949l2.3 5.971h-1.744l-.444-1.275h-2.241l-.47 1.275h-1.618zm.975 1.231h-.017l-.771 2.335h1.5z" transform="translate(-173.923 -329.611)"/>
                <path id="패스_8988" data-name="패스 8988" class="cls-3" d="M215.055 329.714h2.745c1.111 0 1.941.488 1.941 1.513a1.353 1.353 0 0 1-1.053 1.395v.017c.8.163 1.207.59 1.207 1.318 0 1.428-1.257 1.727-2.327 1.727h-2.514zm1.591 2.361h.444c.523 0 1.061-.129 1.061-.634 0-.547-.513-.6-1.044-.6h-.461zm0 2.481h.47c.583 0 1.19-.085 1.19-.694 0-.65-.624-.709-1.171-.709h-.489z" transform="translate(-182.986 -329.611)"/>
                <path id="패스_8989" data-name="패스 8989" class="cls-3" d="M233.181 333.418c0 1.634-1.061 2.368-2.617 2.368s-2.617-.734-2.617-2.368v-3.7h1.591v3.439c0 .786.213 1.454 1.027 1.454s1.027-.668 1.027-1.454v-3.439h1.591z" transform="translate(-190.214 -329.611)"/>
                <path id="패스_8990" data-name="패스 8990" class="cls-3" d="M242.2 329.714h1.591v2.439h.017l1.8-2.439h1.916l-2.207 2.78 2.378 3.191h-2.026l-1.857-2.711h-.017v2.711H242.2z" transform="translate(-198.206 -329.611)"/>
                <path id="패스_8991" data-name="패스 8991" class="cls-3" d="M256.257 329.714h2.174c2.077 0 3.532.65 3.532 2.959 0 2.233-1.5 3.012-3.532 3.012h-2.174zm1.591 4.789h.617a1.805 1.805 0 1 0 0-3.609h-.617z" transform="translate(-206.088 -329.611)"/>
                <path id="패스_8992" data-name="패스 8992" class="cls-3" d="M273.895 329.479a3.089 3.089 0 1 1-2.994 3.088 2.761 2.761 0 0 1 2.994-3.088zm0 5c.965 0 1.35-.924 1.35-1.908 0-1.035-.385-1.907-1.35-1.907s-1.351.872-1.351 1.907c0 .98.385 1.904 1.351 1.904z" transform="translate(-214.299 -329.479)"/>
                <path id="패스_8993" data-name="패스 8993" class="cls-3" d="M295 329.479a3.089 3.089 0 1 1-2.993 3.088 2.762 2.762 0 0 1 2.993-3.088zm0 5c.968 0 1.353-.924 1.353-1.908 0-1.035-.385-1.907-1.353-1.907s-1.35.872-1.35 1.907c.001.98.385 1.904 1.35 1.904z" transform="translate(-226.134 -329.479)"/>
                <path id="패스_8994" data-name="패스 8994" class="cls-3" d="M307.566 329.714h3.995v1.128h-2.4v1.31h2.3v1.128h-2.3v2.4h-1.59z" transform="translate(-234.857 -329.611)"/>
                <path id="패스_8995" data-name="패스 8995" class="cls-3" d="M318.394 329.714h3.993v1.128h-2.4v1.31h2.3v1.128h-2.3v2.4h-1.589z" transform="translate(-240.928 -329.611)"/>
                <path id="패스_8996" data-name="패스 8996" class="cls-3" d="M329.489 329.714h1.592v5.971h-1.592z" transform="translate(-247.149 -329.611)"/>
                <path id="패스_8997" data-name="패스 8997" class="cls-3" d="M340.513 335.416a6.613 6.613 0 0 1-1.769.239c-1.591 0-3.431-.8-3.431-3.062 0-2.078 1.454-3.114 3.422-3.114a6.193 6.193 0 0 1 1.772.309l-.128 1.29a3.13 3.13 0 0 0-1.556-.418 1.909 1.909 0 1 0 .127 3.815 4.176 4.176 0 0 0 1.488-.308z" transform="translate(-250.414 -329.479)"/>
                <path id="패스_8998" data-name="패스 8998" class="cls-3" d="M348.71 329.714h4.208v1.128H350.3v1.233h2.474v1.13H350.3v1.351h2.714v1.129h-4.3z" transform="translate(-257.926 -329.611)"/>
                <path id="패스_8999" data-name="패스 8999" class="cls-3" d="M369.15 329.479a3.089 3.089 0 1 1-2.994 3.088 2.76 2.76 0 0 1 2.994-3.088zm0 5c.966 0 1.352-.924 1.352-1.908 0-1.035-.385-1.907-1.352-1.907s-1.352.872-1.352 1.907c.002.98.386 1.904 1.352 1.904z" transform="translate(-267.708 -329.479)"/>
                <path id="패스_9000" data-name="패스 9000" class="cls-3" d="M381.714 329.714h4v1.128h-2.4v1.31h2.3v1.128h-2.3v2.4h-1.592z" transform="translate(-276.431 -329.611)"/>
                <path id="패스_9001" data-name="패스 9001" class="cls-3" d="M398.5 329.714h4.209v1.128h-2.617v1.233h2.472v1.13h-2.472v1.351h2.708v1.129h-4.3z" transform="translate(-285.843 -329.611)"/>
                <path id="패스_9002" data-name="패스 9002" class="cls-3" d="M410.494 329.714h2.173c2.078 0 3.532.65 3.532 2.959 0 2.233-1.5 3.012-3.532 3.012h-2.173zm1.59 4.789h.616a1.805 1.805 0 1 0 0-3.609h-.616z" transform="translate(-292.568 -329.611)"/>
                <path id="패스_9003" data-name="패스 9003" class="cls-3" d="M430.683 333.418c0 1.634-1.061 2.368-2.618 2.368s-2.617-.734-2.617-2.368v-3.7h1.59v3.439c0 .786.215 1.454 1.026 1.454s1.028-.668 1.028-1.454v-3.439h1.589z" transform="translate(-300.953 -329.611)"/>
                <path id="패스_9004" data-name="패스 9004" class="cls-3" d="M444.4 335.416a6.617 6.617 0 0 1-1.77.239c-1.592 0-3.431-.8-3.431-3.062 0-2.078 1.455-3.114 3.423-3.114a6.2 6.2 0 0 1 1.771.309l-.13 1.29a3.118 3.118 0 0 0-1.555-.418 1.909 1.909 0 1 0 .128 3.815 4.174 4.174 0 0 0 1.488-.308z" transform="translate(-308.661 -329.479)"/>
                <path id="패스_9005" data-name="패스 9005" class="cls-3" d="M453.847 329.714h1.953l2.3 5.971h-1.746l-.443-1.275h-2.243l-.469 1.275h-1.617zm.977 1.231h-.018l-.771 2.335h1.5z" transform="translate(-315.606 -329.611)"/>
                <path id="패스_9006" data-name="패스 9006" class="cls-3" d="M466.976 330.894h-1.471v-1.18h4.533v1.18h-1.47v4.791h-1.592z" transform="translate(-323.413 -329.611)"/>
                <path id="패스_9007" data-name="패스 9007" class="cls-3" d="M477.519 329.714h1.591v5.971h-1.591z" transform="translate(-330.149 -329.611)"/>
                <path id="패스_9008" data-name="패스 9008" class="cls-3" d="M486.337 329.479a3.089 3.089 0 1 1-2.994 3.088 2.76 2.76 0 0 1 2.994-3.088zm0 5c.966 0 1.35-.924 1.35-1.908 0-1.035-.384-1.907-1.35-1.907s-1.353.872-1.353 1.907c0 .98.386 1.904 1.353 1.904z" transform="translate(-333.415 -329.479)"/>
                <path id="패스_9009" data-name="패스 9009" class="cls-3" d="M499.054 329.714h2.029l2.018 4.055h.017l-.026-4.055h1.456v5.971h-1.977l-2.088-4.08h-.017l.052 4.08h-1.464z" transform="translate(-342.224 -329.611)"/>
            </g>
        </g>
        <g id="그룹_6903" data-name="그룹 6903" transform="translate(74.484 242.656)">
            <path id="패스_9010" data-name="패스 9010" class="cls-3" d="M378.952 266.762h-17.278v2.906h13.486v12.022h-2.674v-7.523h-3.779v7.523h-1.961v-7.523h-3.783v7.523h-3.5v2.91h21.816v-2.91h-2.325z" transform="translate(-263.954 -265.751)"/>
            <g id="그룹_6894" data-name="그룹 6894" transform="translate(24.424 .84)">
                <path id="패스_9011" data-name="패스 9011" class="cls-3" d="M238.474 274.655v-2.907h-3.483v-5.374h-3.784v21.4h3.784v-13.119z" transform="translate(-216.466 -266.374)"/>
                <path id="패스_9012" data-name="패스 9012" class="cls-3" d="M210 283.153v-2.91h-8.562v-3.561h7.862v-9.269h-11.648v2.9h7.862v3.448h-7.862v6.968a2.315 2.315 0 0 0 2.5 2.42z" transform="translate(-197.652 -266.957)"/>
            </g>
            <path id="패스_9013" data-name="패스 9013" class="cls-3" d="M326.5 281.688h-9.015v-4.011h6.692v-2.9h-13.422v-5.121h13.425v-2.9h-17.21v8.5a2.33 2.33 0 0 0 2.492 2.419h4.246v4.011h-9.015v2.914H326.5z" transform="translate(-233.246 -265.748)"/>
            <g id="그룹_6896" data-name="그룹 6896" transform="translate(0 .84)">
                <path id="패스_9014" data-name="패스 9014" class="cls-3" d="M149.032 275.525a9.5 9.5 0 0 0 6.974 3.523v-2.836a5.845 5.845 0 0 1-4.927-5.885h4.221v-2.907h-12.536v2.907h4.219a5.846 5.846 0 0 1-4.928 5.885v2.836a9.507 9.507 0 0 0 6.977-3.523z" transform="translate(-142.055 -266.96)"/>
                <g id="그룹_6895" data-name="그룹 6895" transform="translate(3.691)">
                    <path id="패스_9015" data-name="패스 9015" class="cls-3" d="M175.424 270.877h-3.481v2.905h3.481v6.641h3.786v-14.049h-3.786z" transform="translate(-162.505 -266.374)"/>
                    <path id="패스_9016" data-name="패스 9016" class="cls-3" d="M167.171 301.657h-12.929v-5.336h-3.784v5.819a2.325 2.325 0 0 0 2.5 2.423h14.214z" transform="translate(-150.458 -283.165)"/>
                </g>
            </g>
            <g id="그룹_6897" data-name="그룹 6897" transform="translate(47.726 1.126)">
                <path id="패스_9017" data-name="패스 9017" class="cls-3" d="M273.045 267.025h-3.789v1.475h-9.67v-1.474H255.8v6.2a2.367 2.367 0 0 0 2.5 2.423h12.257a2.294 2.294 0 0 0 2.49-2.424zm-3.789 5.793h-9.67v-1.488h9.67z" transform="translate(-253.558 -267.025)"/>
                <path id="패스_9018" data-name="패스 9018" class="cls-3" d="M252.978 295.944h13.428v4.493h3.784v-7.4h-6.66v-1.166h8.986v-2.908h-21.82v2.908h8.986v1.166h-6.7z" transform="translate(-250.695 -279.324)"/>
            </g>
            <path id="선_85" data-name="선 85" class="cls-3" transform="translate(52.465 9.75)" d="M0 0h12.256"/>
            <path id="선_86" data-name="선 86" class="cls-3" transform="translate(53.753 2.601)" d="M9.67 0H0"/>
            <g id="그룹_6899" data-name="그룹 6899" transform="translate(118.876 .518)">
                <g id="그룹_6898" data-name="그룹 6898" transform="translate(0 9.855)">
                    <path id="패스_9019" data-name="패스 9019" class="cls-3" d="M412.657 288.073v2.913h5.138v1.4h-3.213v2.914h13.78v4.642h3.785v-7.548h-2.816v-1.4h5.135v-2.913zm8.909 4.318v-1.4h3.991v1.4z" transform="translate(-412.657 -288.073)"/>
                </g>
                <path id="패스_9020" data-name="패스 9020" class="cls-3" d="M430.847 270.271c0 .919-2.2 1.662-5.1 1.662s-5.1-.744-5.1-1.662 2.2-1.663 5.1-1.663 5.1.745 5.1 1.663zm-5.1-4.631c-5.135 0-9.144 1.989-9.144 4.631s4.009 4.631 9.144 4.631 9.146-1.99 9.146-4.631-4.013-4.631-9.148-4.631z" transform="translate(-414.868 -265.64)"/>
            </g>
            <g id="그룹_6902" data-name="그룹 6902" transform="translate(142.057)">
                <g id="그룹_6901" data-name="그룹 6901" transform="translate(13.13 .84)">
                    <g id="그룹_6900" data-name="그룹 6900">
                        <path id="패스_9021" data-name="패스 9021" class="cls-3" d="M502.582 266.374H498.8v4.273h-3.483v2.907h3.483v4.088h3.785z" transform="translate(-495.313 -266.374)"/>
                    </g>
                </g>
                <path id="패스_9022" data-name="패스 9022" class="cls-3" d="M472.232 272.975c2.274 3.072 6.806 3.216 6.806 3.216v-2.77s-4.33-.68-4.73-4.186h4.024v-2.9h-4.024v-1.874h-4.152v1.874h-4.024v2.9h4.024c-.4 3.506-4.73 4.186-4.73 4.186v2.77s4.53-.144 6.806-3.216z" transform="translate(-465.425 -264.461)"/>
                <path id="패스_9023" data-name="패스 9023" class="cls-3" d="M487.084 298.184c0 1.271-1.943 2.3-4.5 2.3s-4.5-1.028-4.5-2.3 1.944-2.3 4.5-2.3 4.5 1.03 4.5 2.3zm-4.5-5.208c-4.8 0-8.549 2.238-8.549 5.208s3.751 5.208 8.549 5.208 8.549-2.24 8.549-5.208-3.754-5.208-8.553-5.208z" transform="translate(-470.25 -280.449)"/>
            </g>
        </g>
    </g>
</svg>
