<svg xmlns="http://www.w3.org/2000/svg" width="215.606" height="52.259" viewBox="0 0 215.606 52.259">
  <defs>
    <style>
      .cls-1 {
        fill: #1a1311;
      }

      .cls-2 {
        fill: #de0d09;
      }

      .cls-3 {
        fill: #003a88;
      }

      .cls-4 {
        fill: #309024;
      }
    </style>
  </defs>
  <g id="그룹_6919" data-name="그룹 6919" transform="translate(-45.588 -538.989)">
    <g id="그룹_6910" data-name="그룹 6910" transform="translate(98.433 580.35)">
      <g id="그룹_6909" data-name="그룹 6909">
        <path id="패스_9089" data-name="패스 9089" class="cls-1" d="M167.363,634.523a2.425,2.425,0,0,1,3.5.219,1.868,1.868,0,0,1,.356.97h-1.08a1.476,1.476,0,0,0-.266-.563,1.082,1.082,0,0,0-.862-.334,1.062,1.062,0,0,0-.916.478,2.338,2.338,0,0,0-.335,1.354,2.052,2.052,0,0,0,.353,1.311,1.1,1.1,0,0,0,.9.436,1.019,1.019,0,0,0,.851-.372,1.658,1.658,0,0,0,.269-.607h1.08a2.341,2.341,0,0,1-.714,1.381,2.081,2.081,0,0,1-1.472.532,2.207,2.207,0,0,1-1.746-.719,3.414,3.414,0,0,1,.087-4.085Z" transform="translate(-166.64 -633.817)"/>
        <path id="패스_9090" data-name="패스 9090" class="cls-1" d="M178.559,639.3v-5.207h1.08v1.986h2.032v-1.986h1.08V639.3h-1.08v-2.315h-2.032V639.3Z" transform="translate(-173.356 -633.936)"/>
        <path id="패스_9091" data-name="패스 9091" class="cls-1" d="M189.973,634.092h1.108v3.2a1.811,1.811,0,0,0,.127.786,1.069,1.069,0,0,0,1.722,0,1.818,1.818,0,0,0,.127-.786v-3.2h1.108v3.2a2.666,2.666,0,0,1-.258,1.292,2.419,2.419,0,0,1-3.675,0,2.666,2.666,0,0,1-.258-1.292Z" transform="translate(-179.787 -633.936)"/>
        <path id="패스_9092" data-name="패스 9092" class="cls-1" d="M201.389,634.092h1.134l2.07,3.619v-3.619H205.6V639.3h-1.081l-2.122-3.693V639.3h-1.007Z" transform="translate(-186.219 -633.936)"/>
        <path id="패스_9093" data-name="패스 9093" class="cls-1" d="M215.99,635.555a1.014,1.014,0,0,0-.6-.743,1.483,1.483,0,0,0-.6-.116,1.3,1.3,0,0,0-1.032.474,2.147,2.147,0,0,0-.4,1.424,1.77,1.77,0,0,0,.438,1.356,1.443,1.443,0,0,0,1,.4,1.3,1.3,0,0,0,.9-.313,1.351,1.351,0,0,0,.43-.822h-1.2v-.87h2.178v2.792h-.723l-.114-.65a2.5,2.5,0,0,1-.566.519,2.033,2.033,0,0,1-1.06.258,2.21,2.21,0,0,1-1.7-.714,2.718,2.718,0,0,1-.689-1.966,2.878,2.878,0,0,1,.7-2.024,2.385,2.385,0,0,1,1.844-.76,2.416,2.416,0,0,1,1.6.5,1.87,1.87,0,0,1,.692,1.254Z" transform="translate(-192.332 -633.77)"/>
        <path id="패스_9094" data-name="패스 9094" class="cls-1" d="M225.363,634.523a2.426,2.426,0,0,1,3.5.219,1.867,1.867,0,0,1,.356.97h-1.08a1.483,1.483,0,0,0-.266-.563,1.082,1.082,0,0,0-.862-.334,1.062,1.062,0,0,0-.916.478,2.338,2.338,0,0,0-.335,1.354,2.055,2.055,0,0,0,.353,1.311,1.105,1.105,0,0,0,.9.436,1.019,1.019,0,0,0,.851-.372,1.665,1.665,0,0,0,.268-.607h1.08a2.339,2.339,0,0,1-.714,1.381,2.081,2.081,0,0,1-1.472.532,2.208,2.208,0,0,1-1.746-.719,3.417,3.417,0,0,1,.087-4.085Z" transform="translate(-199.321 -633.817)"/>
        <path id="패스_9095" data-name="패스 9095" class="cls-1" d="M236.559,639.3v-5.207h1.08v1.986h2.032v-1.986h1.08V639.3h-1.08v-2.315h-2.032V639.3Z" transform="translate(-206.036 -633.936)"/>
        <path id="패스_9096" data-name="패스 9096" class="cls-1" d="M251.819,635.025h-2.7v1.1h2.471v.906H249.12v1.336h2.828v.934h-3.89v-5.207h3.761Z" transform="translate(-212.515 -633.936)"/>
        <path id="패스_9097" data-name="패스 9097" class="cls-1" d="M262.248,638.637a2.718,2.718,0,0,1-3.423,0,2.8,2.8,0,0,1-.794-2.148,2.749,2.749,0,0,1,.794-2.149,2.718,2.718,0,0,1,3.423,0,2.756,2.756,0,0,1,.79,2.149A2.81,2.81,0,0,1,262.248,638.637Zm-.672-.8a2.56,2.56,0,0,0,0-2.693,1.258,1.258,0,0,0-1.035-.476,1.276,1.276,0,0,0-1.04.474,2.535,2.535,0,0,0,0,2.7,1.279,1.279,0,0,0,1.04.473A1.264,1.264,0,0,0,261.576,637.837Z" transform="translate(-218.135 -633.734)"/>
        <path id="패스_9098" data-name="패스 9098" class="cls-1" d="M270.812,634.092h1.134l2.07,3.619v-3.619h1.006V639.3h-1.08l-2.123-3.693V639.3h-1.007Z" transform="translate(-225.336 -633.936)"/>
        <path id="패스_9099" data-name="패스 9099" class="cls-1" d="M285.414,635.555a1.014,1.014,0,0,0-.6-.743,1.481,1.481,0,0,0-.6-.116,1.3,1.3,0,0,0-1.032.474,2.15,2.15,0,0,0-.4,1.424,1.768,1.768,0,0,0,.438,1.356,1.442,1.442,0,0,0,1,.4,1.294,1.294,0,0,0,.9-.313,1.349,1.349,0,0,0,.431-.822h-1.2v-.87h2.178v2.792h-.723l-.114-.65a2.512,2.512,0,0,1-.565.519,2.037,2.037,0,0,1-1.061.258,2.208,2.208,0,0,1-1.7-.714,2.719,2.719,0,0,1-.69-1.966,2.878,2.878,0,0,1,.7-2.024,2.386,2.386,0,0,1,1.845-.76,2.418,2.418,0,0,1,1.6.5,1.867,1.867,0,0,1,.691,1.254Z" transform="translate(-231.449 -633.77)"/>
        <path id="패스_9100" data-name="패스 9100" class="cls-1" d="M294.567,634.092H295.7l2.069,3.619v-3.619h1.008V639.3H297.7l-2.123-3.693V639.3h-1.007Z" transform="translate(-238.721 -633.936)"/>
        <path id="패스_9101" data-name="패스 9101" class="cls-1" d="M307.006,634.092h1.23l1.847,5.207H308.9l-.341-1.062h-1.928l-.351,1.062h-1.137Zm-.074,3.24h1.337l-.659-2.049Z" transform="translate(-244.68 -633.936)"/>
        <path id="패스_9102" data-name="패스 9102" class="cls-1" d="M320.885,634.092h1.564V639.3h-1.007v-3.52c0-.1,0-.244,0-.426s0-.323,0-.421l-1,4.367h-1.068l-.988-4.367c0,.1,0,.24,0,.421s0,.324,0,.426v3.52H317.4v-5.207h1.582l.957,4.1Z" transform="translate(-251.584 -633.936)"/>
        <path id="패스_9103" data-name="패스 9103" class="cls-1" d="M333.707,634.205a1.722,1.722,0,0,1,.888.663,2.3,2.3,0,0,1,.372.838,4.046,4.046,0,0,1,.1.864,3.454,3.454,0,0,1-.417,1.758,1.885,1.885,0,0,1-1.748.971h-2.246v-5.207H332.9A2.717,2.717,0,0,1,333.707,634.205Zm-1.991.792v3.4h1a1.084,1.084,0,0,0,1.074-.759,2.689,2.689,0,0,0,.166-.992,2.439,2.439,0,0,0-.249-1.219,1.051,1.051,0,0,0-.991-.426Z" transform="translate(-259.054 -633.936)"/>
        <path id="패스_9104" data-name="패스 9104" class="cls-1" d="M345.846,638.637a2.718,2.718,0,0,1-3.423,0,2.8,2.8,0,0,1-.794-2.148,2.748,2.748,0,0,1,.794-2.149,2.718,2.718,0,0,1,3.423,0,2.757,2.757,0,0,1,.79,2.149A2.812,2.812,0,0,1,345.846,638.637Zm-.673-.8a2.559,2.559,0,0,0,0-2.693,1.258,1.258,0,0,0-1.035-.476,1.275,1.275,0,0,0-1.04.474,2.532,2.532,0,0,0,0,2.7,1.277,1.277,0,0,0,1.04.473A1.264,1.264,0,0,0,345.173,637.837Z" transform="translate(-265.238 -633.734)"/>
        <path id="패스_9105" data-name="패스 9105" class="cls-1" d="M362.219,638.637a2.718,2.718,0,0,1-3.423,0,2.8,2.8,0,0,1-.793-2.148,2.749,2.749,0,0,1,.793-2.149,2.718,2.718,0,0,1,3.423,0,2.757,2.757,0,0,1,.791,2.149A2.812,2.812,0,0,1,362.219,638.637Zm-.673-.8a2.56,2.56,0,0,0,0-2.693,1.257,1.257,0,0,0-1.035-.476,1.275,1.275,0,0,0-1.04.474,2.534,2.534,0,0,0,0,2.7,1.277,1.277,0,0,0,1.04.473A1.263,1.263,0,0,0,361.546,637.837Z" transform="translate(-274.464 -633.734)"/>
        <path id="패스_9106" data-name="패스 9106" class="cls-1" d="M370.783,634.111H374.5v.915h-2.636v1.2h2.307v.906h-2.307v2.178h-1.08Z" transform="translate(-281.665 -633.946)"/>
        <path id="패스_9107" data-name="패스 9107" class="cls-1" d="M380.35,634.111h3.715v.915h-2.636v1.2h2.307v.906h-2.307v2.178H380.35Z" transform="translate(-287.055 -633.946)"/>
        <path id="패스_9108" data-name="패스 9108" class="cls-1" d="M390.786,639.3h-1.08v-5.207h1.08Z" transform="translate(-292.327 -633.936)"/>
        <path id="패스_9109" data-name="패스 9109" class="cls-1" d="M394.169,634.523a2.424,2.424,0,0,1,3.5.219,1.857,1.857,0,0,1,.356.97h-1.08a1.47,1.47,0,0,0-.266-.563,1.08,1.08,0,0,0-.861-.334,1.065,1.065,0,0,0-.918.478,2.345,2.345,0,0,0-.335,1.354,2.055,2.055,0,0,0,.353,1.311,1.106,1.106,0,0,0,.9.436,1.018,1.018,0,0,0,.851-.372,1.657,1.657,0,0,0,.269-.607h1.079a2.34,2.34,0,0,1-.713,1.381,2.082,2.082,0,0,1-1.472.532,2.21,2.21,0,0,1-1.746-.719,2.906,2.906,0,0,1-.635-1.985A2.873,2.873,0,0,1,394.169,634.523Z" transform="translate(-294.434 -633.817)"/>
        <path id="패스_9110" data-name="패스 9110" class="cls-1" d="M409.209,635.025h-2.7v1.1h2.471v.906H406.51v1.336h2.828v.934h-3.89v-5.207h3.761Z" transform="translate(-301.197 -633.936)"/>
        <path id="패스_9111" data-name="패스 9111" class="cls-1" d="M425,638.637a2.719,2.719,0,0,1-3.423,0,2.807,2.807,0,0,1-.793-2.148,2.752,2.752,0,0,1,.793-2.149,2.719,2.719,0,0,1,3.423,0,2.759,2.759,0,0,1,.79,2.149A2.813,2.813,0,0,1,425,638.637Zm-.673-.8a2.562,2.562,0,0,0,0-2.693,1.258,1.258,0,0,0-1.035-.476,1.275,1.275,0,0,0-1.04.474,2.537,2.537,0,0,0,0,2.7,1.277,1.277,0,0,0,1.04.473A1.264,1.264,0,0,0,424.328,637.837Z" transform="translate(-309.838 -633.734)"/>
        <path id="패스_9112" data-name="패스 9112" class="cls-1" d="M433.564,634.111h3.716v.915h-2.636v1.2h2.307v.906h-2.307v2.178h-1.08Z" transform="translate(-317.039 -633.946)"/>
        <path id="패스_9113" data-name="패스 9113" class="cls-1" d="M452.34,635.025h-2.7v1.1h2.471v.906H449.64v1.336h2.828v.934h-3.89v-5.207h3.762Z" transform="translate(-325.498 -633.936)"/>
        <path id="패스_9114" data-name="패스 9114" class="cls-1" d="M462.046,634.205a1.721,1.721,0,0,1,.887.663,2.283,2.283,0,0,1,.372.838,4.107,4.107,0,0,1,.1.864,3.454,3.454,0,0,1-.418,1.758,1.886,1.886,0,0,1-1.747.971h-2.246v-5.207h2.246A2.722,2.722,0,0,1,462.046,634.205Zm-1.992.792v3.4h1a1.083,1.083,0,0,0,1.073-.759,2.68,2.68,0,0,0,.165-.992,2.439,2.439,0,0,0-.249-1.219,1.05,1.05,0,0,0-.99-.426Z" transform="translate(-331.366 -633.936)"/>
        <path id="패스_9115" data-name="패스 9115" class="cls-1" d="M470.407,634.092h1.108v3.2a1.819,1.819,0,0,0,.127.786,1.07,1.07,0,0,0,1.723,0,1.819,1.819,0,0,0,.127-.786v-3.2H474.6v3.2a2.671,2.671,0,0,1-.258,1.292,2.419,2.419,0,0,1-3.675,0,2.66,2.66,0,0,1-.259-1.292Z" transform="translate(-337.798 -633.936)"/>
        <path id="패스_9116" data-name="패스 9116" class="cls-1" d="M482.043,634.523a2.425,2.425,0,0,1,3.5.219,1.86,1.86,0,0,1,.356.97h-1.08a1.47,1.47,0,0,0-.266-.563,1.082,1.082,0,0,0-.862-.334,1.063,1.063,0,0,0-.916.478,2.338,2.338,0,0,0-.335,1.354,2.058,2.058,0,0,0,.352,1.311,1.107,1.107,0,0,0,.9.436,1.019,1.019,0,0,0,.851-.372,1.68,1.68,0,0,0,.269-.607h1.08a2.336,2.336,0,0,1-.714,1.381,2.08,2.08,0,0,1-1.472.532,2.208,2.208,0,0,1-1.746-.719,2.9,2.9,0,0,1-.635-1.985A2.873,2.873,0,0,1,482.043,634.523Z" transform="translate(-343.947 -633.817)"/>
        <path id="패스_9117" data-name="패스 9117" class="cls-1" d="M494.261,634.092h1.229l1.848,5.207h-1.182l-.341-1.062h-1.927l-.352,1.062H492.4Zm-.073,3.24h1.336l-.658-2.049Z" transform="translate(-350.189 -633.936)"/>
        <path id="패스_9118" data-name="패스 9118" class="cls-1" d="M506.692,634.092v.924h-1.565V639.3h-1.1v-4.283h-1.565v-.924Z" transform="translate(-355.86 -633.936)"/>
        <path id="패스_9119" data-name="패스 9119" class="cls-1" d="M513.864,639.3h-1.08v-5.207h1.08Z" transform="translate(-361.675 -633.936)"/>
        <path id="패스_9120" data-name="패스 9120" class="cls-1" d="M520.8,638.637a2.718,2.718,0,0,1-3.423,0,2.805,2.805,0,0,1-.793-2.148,2.751,2.751,0,0,1,.793-2.149,2.718,2.718,0,0,1,3.423,0,2.754,2.754,0,0,1,.791,2.149A2.809,2.809,0,0,1,520.8,638.637Zm-.673-.8a2.557,2.557,0,0,0,0-2.693,1.255,1.255,0,0,0-1.035-.476,1.277,1.277,0,0,0-1.04.474,2.535,2.535,0,0,0,0,2.7,1.279,1.279,0,0,0,1.04.473A1.261,1.261,0,0,0,520.131,637.837Z" transform="translate(-363.818 -633.734)"/>
        <path id="패스_9121" data-name="패스 9121" class="cls-1" d="M529.369,634.092H530.5l2.07,3.619v-3.619h1.007V639.3H532.5l-2.122-3.693V639.3h-1.007Z" transform="translate(-371.02 -633.936)"/>
      </g>
    </g>
    <g id="그룹_6911" data-name="그룹 6911" transform="translate(45.588 538.989)">
      <path id="패스_9122" data-name="패스 9122" class="cls-2" d="M113.644,541.254c-1.049-2.262-4.382-2.944-7.445-1.525s-4.7,4.407-3.654,6.667,4.386,2.945,7.451,1.524S114.692,543.515,113.644,541.254Z" transform="translate(-77.502 -538.989)"/>
      <path id="패스_9123" data-name="패스 9123" class="cls-3" d="M73.385,599.364c1.064-.38-2.659,1.4-3.616,1.9a37.008,37.008,0,0,1-9.214,2.97c-5.46,1.165-10.165.337-12.822-2.757-5.313-6.19-.417-19.1,10.935-28.847,5.674-4.872,11.889-8.028,17.349-9.192a18.479,18.479,0,0,1,7.463-.222s6.137,1.023,3.143,8.548c0,0-7.8,16.956-29.733,26.307,0,0,14.07-9.868,20.857-22.186,0,0,5.388-8.877-2.854-8.717,0,0-3.505-.027-8.925,3.134a30.844,30.844,0,0,0-14.1,15.682S46.207,599.5,61.9,600.93A30.143,30.143,0,0,0,73.385,599.364Z" transform="translate(-45.588 -552.483)"/>
      <path id="패스_9124" data-name="패스 9124" class="cls-4" d="M123.763,591.828c-.879,1.31-2.6,3.809-4.324,5.985,2.007.162,3.981.7,2.573,4.617,0,0-2.323,6.015-9.1,12.1,0,0,11.455-6.667,15.566-15.43C128.474,599.1,133.263,589.842,123.763,591.828Z" transform="translate(-83.519 -568.604)"/>
    </g>
    <g id="그룹_6918" data-name="그룹 6918" transform="translate(97.85 552.964)">
      <g id="그룹_6912" data-name="그룹 6912" transform="translate(24.482 0.242)">
        <rect id="사각형_2343" data-name="사각형 2343" class="cls-1" width="4.244" height="2.138" transform="translate(14.22 5.181)"/>
        <path id="패스_9125" data-name="패스 9125" class="cls-1" d="M227.128,578.941a8.75,8.75,0,0,1-5.744,6.88l1.379,1.766s6.265-1.935,7.253-8.286Z" transform="translate(-221.384 -575.717)"/>
        <path id="패스_9126" data-name="패스 9126" class="cls-1" d="M238.557,578.941a8.75,8.75,0,0,0,5.744,6.88l-1.38,1.766s-6.264-1.935-7.253-8.286Z" transform="translate(-229.432 -575.717)"/>
        <rect id="사각형_2344" data-name="사각형 2344" class="cls-1" width="3.205" height="2.382" transform="translate(5.805 0.007)"/>
        <path id="패스_9127" data-name="패스 9127" class="cls-1" d="M236.307,576.266a1.061,1.061,0,0,1-1.061,1.061h-11.79a1.061,1.061,0,0,1-1.061-1.061h0a1.06,1.06,0,0,1,1.061-1.06h11.79a1.059,1.059,0,0,1,1.061,1.06Z" transform="translate(-221.954 -573.612)"/>
        <path id="패스_9128" data-name="패스 9128" class="cls-1" d="M262.83,589.732c0,.824-.667.478-1.491.478h0a1.491,1.491,0,0,1-1.491-1.491V573.046a1.491,1.491,0,0,1,1.491-1.491h0a1.491,1.491,0,0,1,1.491,1.491Z" transform="translate(-243.057 -571.555)"/>
        <path id="패스_9129" data-name="패스 9129" class="cls-1" d="M244.364,605.945c0,2.953-3.868,5.348-8.641,5.348s-8.641-2.4-8.641-5.348,3.869-5.348,8.641-5.348S244.364,602.991,244.364,605.945Zm-8.641-3.374c-2.974,0-5.386,1.51-5.386,3.374s2.411,3.374,5.386,3.374,5.386-1.511,5.386-3.374S238.7,602.571,235.723,602.571Z" transform="translate(-224.595 -587.919)"/>
      </g>
      <rect id="사각형_2345" data-name="사각형 2345" class="cls-1" width="4.244" height="2.138" transform="translate(157.792 5.423)"/>
      <path id="패스_9130" data-name="패스 9130" class="cls-1" d="M499.924,578.941a8.749,8.749,0,0,1-5.744,6.88l1.38,1.766s6.264-1.935,7.252-8.286Z" transform="translate(-350.609 -575.475)"/>
      <path id="패스_9131" data-name="패스 9131" class="cls-1" d="M511.356,578.941a8.748,8.748,0,0,0,5.744,6.88l-1.38,1.766s-6.265-1.935-7.252-8.286Z" transform="translate(-358.659 -575.475)"/>
      <rect id="사각형_2346" data-name="사각형 2346" class="cls-1" width="3.205" height="2.382" transform="translate(149.376 0.249)"/>
      <path id="패스_9132" data-name="패스 9132" class="cls-1" d="M509.1,576.266a1.06,1.06,0,0,1-1.06,1.061h-11.79a1.061,1.061,0,0,1-1.061-1.061h0a1.06,1.06,0,0,1,1.061-1.06h11.79a1.059,1.059,0,0,1,1.06,1.06Z" transform="translate(-351.18 -573.37)"/>
      <path id="패스_9133" data-name="패스 9133" class="cls-1" d="M535.627,589.732c0,.824-.667.478-1.49.478h0a1.491,1.491,0,0,1-1.492-1.491V573.046a1.492,1.492,0,0,1,1.492-1.491h0a1.491,1.491,0,0,1,1.49,1.491Z" transform="translate(-372.283 -571.313)"/>
      <path id="패스_9134" data-name="패스 9134" class="cls-1" d="M517.163,605.945c0,2.953-3.87,5.348-8.641,5.348s-8.641-2.4-8.641-5.348,3.869-5.348,8.641-5.348S517.163,602.991,517.163,605.945Zm-8.641-3.374c-2.975,0-5.387,1.51-5.387,3.374s2.411,3.374,5.387,3.374,5.385-1.511,5.385-3.374S511.5,602.571,508.521,602.571Z" transform="translate(-353.821 -587.677)"/>
      <g id="그룹_6913" data-name="그룹 6913" transform="translate(48.476 0.242)">
        <rect id="사각형_2347" data-name="사각형 2347" class="cls-1" width="4.243" height="2.139" transform="translate(17.073 4.504)"/>
        <path id="패스_9135" data-name="패스 9135" class="cls-1" d="M297.447,620.387a1.061,1.061,0,0,1-1.06,1.061H282.958a1.061,1.061,0,0,1-1.062-1.061h0a1.06,1.06,0,0,1,1.062-1.06h13.429a1.06,1.06,0,0,1,1.06,1.06Z" transform="translate(-279.474 -598.472)"/>
        <path id="패스_9136" data-name="패스 9136" class="cls-1" d="M291.173,593.187a1.061,1.061,0,0,1-1.062,1.06h-10.4a1.061,1.061,0,0,1-1.061-1.06h0a1.061,1.061,0,0,1,1.061-1.062h10.4a1.062,1.062,0,0,1,1.062,1.062Z" transform="translate(-277.645 -583.145)"/>
        <path id="패스_9137" data-name="패스 9137" class="cls-1" d="M315.11,583.973V573.046a1.491,1.491,0,0,0-2.982,0v10.927Z" transform="translate(-296.508 -571.555)"/>
        <path id="패스_9138" data-name="패스 9138" class="cls-1" d="M315.11,612.271v-8.115c0-.613-.667-1.111-1.49-1.111s-1.491.5-1.491,1.111v8.115Z" transform="translate(-296.508 -589.298)"/>
        <path id="패스_9139" data-name="패스 9139" class="cls-1" d="M279.33,581.682v-7.43a1.491,1.491,0,1,0-2.982,0v7.43Z" transform="translate(-276.348 -572.234)"/>
        <path id="패스_9140" data-name="패스 9140" class="cls-1" d="M303.092,590.891h2.091a3.083,3.083,0,0,0,2.16-.947l.231,1.761a5.83,5.83,0,0,1-4.339,1.313" transform="translate(-291.417 -581.916)"/>
        <rect id="사각형_2348" data-name="사각형 2348" class="cls-1" width="17.053" height="1.985" transform="translate(1.553 13.68)"/>
        <path id="패스_9141" data-name="패스 9141" class="cls-1" d="M279.987,592.855a1.8,1.8,0,0,1-3.6,0" transform="translate(-276.367 -583.556)"/>
        <path id="패스_9142" data-name="패스 9142" class="cls-1" d="M283.117,590.857a.943.943,0,0,1-.943-.943l-.771.286.028,1.314,1.572.172Z" transform="translate(-279.196 -581.899)"/>
        <path id="패스_9143" data-name="패스 9143" class="cls-1" d="M286.686,618.11a.944.944,0,0,1-.943-.943l-.771.286.028,1.314,1.572.172Z" transform="translate(-281.207 -597.255)"/>
        <path id="패스_9144" data-name="패스 9144" class="cls-1" d="M282.887,610.5v-7.612H279.9v7.555Z" transform="translate(-278.352 -589.212)"/>
        <path id="패스_9145" data-name="패스 9145" class="cls-1" d="M279.909,619.4a1.8,1.8,0,1,0,3.605,0l-2-.482Z" transform="translate(-278.354 -598.243)"/>
      </g>
      <g id="그룹_6914" data-name="그룹 6914" transform="translate(71.723 0.779)">
        <path id="패스_9146" data-name="패스 9146" class="cls-1" d="M351.068,608.316a1.06,1.06,0,0,1-1.06,1.06H330.66a1.061,1.061,0,0,1-1.06-1.06h0a1.059,1.059,0,0,1,1.06-1.06h19.348a1.059,1.059,0,0,1,1.06,1.06Z" transform="translate(-329.6 -592.208)"/>
        <path id="패스_9147" data-name="패스 9147" class="cls-1" d="M352.284,573.848a1.061,1.061,0,0,1-1.061,1.06H335.828a1.061,1.061,0,0,1-1.061-1.06h0a1.061,1.061,0,0,1,1.061-1.062h15.395a1.061,1.061,0,0,1,1.061,1.062Z" transform="translate(-332.511 -572.786)"/>
        <path id="패스_9148" data-name="패스 9148" class="cls-1" d="M353.127,591.709a1.042,1.042,0,0,1-1.022,1.062H337.284a1.042,1.042,0,0,1-1.021-1.062h0a1.041,1.041,0,0,1,1.021-1.06H352.1a1.042,1.042,0,0,1,1.022,1.06Z" transform="translate(-333.354 -582.851)"/>
        <path id="패스_9149" data-name="패스 9149" class="cls-1" d="M353.75,603.731v-3.575a1.527,1.527,0,0,0-3.053,0v3.575Z" transform="translate(-341.487 -587.368)"/>
        <path id="패스_9150" data-name="패스 9150" class="cls-1" d="M340.73,589.451a.943.943,0,0,1-.944-.943l-.772.286.029,1.315,1.572.172Z" transform="translate(-334.904 -581.645)"/>
        <path id="패스_9151" data-name="패스 9151" class="cls-1" d="M333.962,590.724a1.8,1.8,0,0,0,3.605,0l-2-.485Z" transform="translate(-332.058 -582.62)"/>
        <path id="패스_9152" data-name="패스 9152" class="cls-1" d="M336.949,581.29V572.8h-2.982v8.156Z" transform="translate(-332.061 -572.796)"/>
      </g>
      <g id="그룹_6915" data-name="그룹 6915" transform="translate(95.917 0.779)">
        <path id="패스_9153" data-name="패스 9153" class="cls-1" d="M406.36,608.469a1.06,1.06,0,0,1-1.061,1.061H386.082a1.06,1.06,0,0,1-1.061-1.061h0a1.061,1.061,0,0,1,1.061-1.06H405.3a1.061,1.061,0,0,1,1.061,1.06Z" transform="translate(-385.021 -592.294)"/>
        <path id="패스_9154" data-name="패스 9154" class="cls-1" d="M412.227,598.2v-5.723a1.491,1.491,0,1,0-2.982,0V598.2Z" transform="translate(-398.67 -583.04)"/>
        <path id="패스_9155" data-name="패스 9155" class="cls-1" d="M398.586,598.2v-5.723a1.491,1.491,0,1,0-2.982,0V598.2Z" transform="translate(-390.984 -583.04)"/>
        <path id="패스_9156" data-name="패스 9156" class="cls-1" d="M421.444,593.771v3.1s-.143,2.435-1.1,3.2l2.184-.252s1.879-1.327,1.879-6.053Z" transform="translate(-404.925 -584.61)"/>
        <path id="패스_9157" data-name="패스 9157" class="cls-1" d="M420.641,576.562a.943.943,0,0,1,.943.942l.771-.285-.028-1.313-1.572-.173Z" transform="translate(-405.091 -574.446)"/>
        <path id="패스_9158" data-name="패스 9158" class="cls-1" d="M424.995,574.6a1.8,1.8,0,1,0-3.6,0l2,.483Z" transform="translate(-405.514 -572.793)"/>
        <path id="패스_9159" data-name="패스 9159" class="cls-1" d="M422.823,577v7.381H425.8v-7.451Z" transform="translate(-406.321 -575.12)"/>
        <path id="패스_9160" data-name="패스 9160" class="cls-1" d="M404.982,572.786H390.058a1.061,1.061,0,1,0,0,2.122h14.924Z" transform="translate(-387.261 -572.786)"/>
      </g>
      <g id="그룹_6916" data-name="그룹 6916" transform="translate(119.908)">
        <path id="패스_9161" data-name="패스 9161" class="cls-1" d="M461.316,597.632a1.06,1.06,0,0,1-1.061,1.061H441.039a1.06,1.06,0,0,1-1.062-1.061h0a1.06,1.06,0,0,1,1.062-1.061h19.217a1.06,1.06,0,0,1,1.061,1.061Z" transform="translate(-439.977 -585.408)"/>
        <path id="패스_9162" data-name="패스 9162" class="cls-1" d="M462.06,576.034c0,2.78-3.869,5.036-8.643,5.036s-8.644-2.255-8.644-5.036,3.87-5.033,8.644-5.033S462.06,573.254,462.06,576.034Zm-8.643-3.176c-2.976,0-5.388,1.423-5.388,3.176s2.412,3.177,5.388,3.177,5.387-1.423,5.387-3.177S456.393,572.858,453.417,572.858Z" transform="translate(-442.679 -571.001)"/>
        <path id="패스_9163" data-name="패스 9163" class="cls-1" d="M456.017,602.324v-3.963a1.491,1.491,0,1,0-2.982,0v3.963Z" transform="translate(-447.335 -585.577)"/>
        <path id="패스_9164" data-name="패스 9164" class="cls-1" d="M472.936,602.324v-3.963a1.49,1.49,0,1,0-2.981,0v3.963Z" transform="translate(-456.868 -585.577)"/>
        <path id="패스_9165" data-name="패스 9165" class="cls-1" d="M476.283,610.659a.944.944,0,0,1,.943.943l.771-.285L477.969,610l-1.571-.172Z" transform="translate(-460.434 -592.879)"/>
        <path id="패스_9166" data-name="패스 9166" class="cls-1" d="M480.8,608.63a1.8,1.8,0,0,0-1.8-1.8,1.673,1.673,0,0,0-1.643,1.8l1.838.484Z" transform="translate(-461.036 -591.187)"/>
        <rect id="사각형_2349" data-name="사각형 2349" class="cls-1" width="2.983" height="5.778" transform="translate(16.784 17.418)"/>
        <path id="패스_9167" data-name="패스 9167" class="cls-1" d="M459.926,606.842h-15.26a1.061,1.061,0,0,0,0,2.123h15.26Z" transform="translate(-442.021 -591.196)"/>
      </g>
      <g id="그룹_6917" data-name="그룹 6917" transform="translate(0 0.249)">
        <rect id="사각형_2350" data-name="사각형 2350" class="cls-1" width="3.265" height="2.382" transform="translate(9.081)"/>
        <rect id="사각형_2351" data-name="사각형 2351" class="cls-1" width="3.265" height="2.381" transform="translate(9.081 11.908)"/>
        <path id="패스_9168" data-name="패스 9168" class="cls-1" d="M187.208,576.266a1.076,1.076,0,0,1-1.091,1.061H169.9a1.076,1.076,0,0,1-1.09-1.061h0a1.075,1.075,0,0,1,1.09-1.06h16.22a1.075,1.075,0,0,1,1.091,1.06Z" transform="translate(-167.278 -573.619)"/>
        <path id="패스_9169" data-name="패스 9169" class="cls-1" d="M186.773,596.974a1.061,1.061,0,0,1-1.061,1.061H166.364a1.061,1.061,0,0,1-1.06-1.061h0a1.061,1.061,0,0,1,1.06-1.062h19.348a1.061,1.061,0,0,1,1.061,1.062Z" transform="translate(-165.304 -585.286)"/>
        <path id="패스_9170" data-name="패스 9170" class="cls-1" d="M178.678,575.564s.306,7.359-10.636,7.359l-.831-1.874s8.778.05,8.227-5.779Z" transform="translate(-166.378 -573.655)"/>
        <path id="패스_9171" data-name="패스 9171" class="cls-1" d="M186.417,575.564s-.306,7.359,10.636,7.359l.831-1.874s-8.778.05-8.228-5.779Z" transform="translate(-177.2 -573.655)"/>
        <path id="패스_9172" data-name="패스 9172" class="cls-1" d="M187.348,607.931c0,2.608-4.007,4.723-8.951,4.723s-8.953-2.116-8.953-4.723,4.008-4.722,8.953-4.722S187.348,605.322,187.348,607.931Zm-8.951-2.976c-3.058,0-5.537,1.332-5.537,2.973s2.479,2.973,5.537,2.973,5.535-1.331,5.535-2.973S181.454,604.955,178.4,604.955Z" transform="translate(-167.637 -589.397)"/>
      </g>
    </g>
  </g>
</svg>
