<svg xmlns="http://www.w3.org/2000/svg" width="195.974" height="35.781" viewBox="0 0 195.974 35.781">
  <defs>
    <style>
      .cls-1 {
        fill: #004097;
      }

      .cls-2 {
        fill: #02983b;
      }
    </style>
  </defs>
  <g id="그룹_6837" data-name="그룹 6837" transform="translate(-115.971 -333.089)">
    <g id="그룹_6833" data-name="그룹 6833" transform="translate(224.338 333.089)">
      <rect id="사각형_2333" data-name="사각형 2333" class="cls-1" width="4.422" height="27.298" transform="translate(51.846 0)"/>
      <path id="패스_8615" data-name="패스 8615" class="cls-1" d="M451.9,336.749h-5.812c.032-.329.049-.665.049-1.013v-1.571H431.131v3.142h10.493c-.279,1.593-2.233,6.258-11.341,8.95l1.192,2.487s10.547-2.015,13.752-8.854H451.9V342.8h-7.735v3.142H451.9v4.415a16.671,16.671,0,0,0-6.385-1.129c-6.748,0-10.81,2.939-10.81,6.566s4.062,6.564,10.81,6.564,10.807-2.939,10.808-6.56V333.089H451.9Zm-6.388,22.468c-3.989,0-6.388-1.53-6.388-3.422s2.4-3.422,6.388-3.422S451.9,353.9,451.9,355.8,449.5,359.217,445.515,359.217Z" transform="translate(-430.283 -333.089)"/>
      <path id="패스_8616" data-name="패스 8616" class="cls-1" d="M622.63,351.186h8.6v-3.14H613.9v-8.693h17.33v-3.142h-21.76v12.466a2.507,2.507,0,0,0,2.509,2.508h6.229V357.8H607.093v3.141H633.74V357.8H622.63Z" transform="translate(-546.133 -335.135)"/>
      <path id="패스_8617" data-name="패스 8617" class="cls-1" d="M520.72,339.353h10.39a19.812,19.812,0,0,1-11.551,15.729l1.408,2.779a22.413,22.413,0,0,0,14.945-20.709v-.941H520.72Z" transform="translate(-488.779 -335.135)"/>
    </g>
    <g id="그룹_6836" data-name="그룹 6836" transform="translate(115.971 333.093)">
      <g id="그룹_6834" data-name="그룹 6834" transform="translate(33.731)">
        <rect id="사각형_2334" data-name="사각형 2334" class="cls-2" width="29.511" height="10.013"/>
        <path id="패스_8618" data-name="패스 8618" class="cls-1" d="M240.19,374.241,213.8,387.905V377.268l29.511-15.128V368.8A5.858,5.858,0,0,1,240.19,374.241Z" transform="translate(-213.805 -352.127)"/>
      </g>
      <rect id="사각형_2335" data-name="사각형 2335" class="cls-2" width="30.178" height="10.013" transform="translate(67.465)"/>
      <g id="그룹_6835" data-name="그룹 6835" transform="translate(0)">
        <rect id="사각형_2336" data-name="사각형 2336" class="cls-2" width="29.508" height="10.013"/>
        <path id="패스_8619" data-name="패스 8619" class="cls-1" d="M142.354,374.241l-26.383,13.664V377.268l29.508-15.128V368.8A5.86,5.86,0,0,1,142.354,374.241Z" transform="translate(-115.971 -352.127)"/>
      </g>
      <path id="패스_8620" data-name="패스 8620" class="cls-1" d="M311.648,387.526v5.136a4.878,4.878,0,0,0,4.879,4.878h25.3V387.526Z" transform="translate(-244.183 -368.761)"/>
    </g>
  </g>
</svg>
