<svg xmlns="http://www.w3.org/2000/svg" width="203.985" height="28.558" viewBox="0 0 203.985 28.558">
  <defs>
    <style>
      .cls-1 {
        fill: #bababa;
      }

      .cls-2 {
        fill: #ec6500;
      }

      .cls-3 {
        fill: #d9000d;
      }

      .cls-4 {
        fill: #5d5c5c;
      }
    </style>
  </defs>
  <g id="그룹_6832" data-name="그룹 6832" transform="translate(-110.7 -254.484)">
    <g id="그룹_6826" data-name="그룹 6826" transform="translate(110.7 254.484)">
      <path id="패스_8595" data-name="패스 8595" class="cls-1" d="M146.066,255.094a14.22,14.22,0,0,0-2.64-.521l-9.936,8.161-20.123,13.575a14.221,14.221,0,0,0,1.081,1.511l19.587-14.937Z" transform="translate(-111.223 -254.501)"/>
      <path id="패스_8596" data-name="패스 8596" class="cls-1" d="M151.647,258.055a14.306,14.306,0,0,0-1.86-1.261l-14.6,11.475-17.963,12.005a14.243,14.243,0,0,0,1.969,1.353l15.449-12.417Z" transform="translate(-111.978 -254.937)"/>
      <path id="패스_8597" data-name="패스 8597" class="cls-1" d="M153.992,260.141a14.434,14.434,0,0,0-1.467-1.441L135.83,271.514,120,282.151a14.12,14.12,0,0,0,2.139.939l13.836-10.982Z" transform="translate(-112.523 -255.31)"/>
      <path id="패스_8598" data-name="패스 8598" class="cls-1" d="M142.5,254.5q-.387-.021-.782-.021a14.374,14.374,0,0,0-3,.318l-5.294,4.845L112,274.131a14.33,14.33,0,0,0,.879,1.791l20.4-15.681Z" transform="translate(-110.954 -254.484)"/>
      <path id="패스_8599" data-name="패스 8599" class="cls-1" d="M124.979,254.484a14.289,14.289,0,0,0-13.453,19.077l21.346-16.7A14.2,14.2,0,0,0,124.979,254.484Z" transform="translate(-110.7 -254.484)"/>
      <path id="패스_8600" data-name="패스 8600" class="cls-1" d="M149.035,256.353a14.145,14.145,0,0,0-2.091-.912l-11.594,9.246-20.331,13.6a14.081,14.081,0,0,0,1.623,1.6l17.272-13.611Z" transform="translate(-111.546 -254.672)"/>
      <path id="패스_8601" data-name="패스 8601" class="cls-1" d="M138.891,282.779a14.283,14.283,0,0,0,21.465-16.788Z" transform="translate(-116.224 -256.739)"/>
      <path id="패스_8602" data-name="패스 8602" class="cls-1" d="M157.935,265.06a14.009,14.009,0,0,0-.959-1.922L137.854,277.93l-10.562,6.776c.312.021.624.031.938.031a14.341,14.341,0,0,0,2.579-.235l5.557-4.941Z" transform="translate(-113.951 -256.18)"/>
      <path id="패스_8603" data-name="패스 8603" class="cls-1" d="M156.008,262.461a14.626,14.626,0,0,0-1.184-1.631l-17.256,13.23-14.515,9.55a14.106,14.106,0,0,0,2.745.585l10.384-8.5Z" transform="translate(-113.121 -255.728)"/>
    </g>
    <g id="그룹_6829" data-name="그룹 6829" transform="translate(117.237 258.479)">
      <g id="그룹_6827" data-name="그룹 6827" transform="translate(24.122)">
        <rect id="사각형_2329" data-name="사각형 2329" class="cls-2" width="1.084" height="3.894" transform="translate(4.953 6.97)"/>
        <rect id="사각형_2330" data-name="사각형 2330" class="cls-2" width="3.895" height="1.084" transform="translate(7.026 4.9)"/>
        <rect id="사각형_2331" data-name="사각형 2331" class="cls-2" width="3.895" height="1.084" transform="translate(0 4.9)"/>
        <rect id="사각형_2332" data-name="사각형 2332" class="cls-2" width="1.084" height="3.895" transform="translate(4.953)"/>
      </g>
      <g id="그룹_6828" data-name="그룹 6828" transform="translate(0 5.984)">
        <path id="패스_8604" data-name="패스 8604" class="cls-3" d="M121.172,278.11H118.83V266.895h2.342v4.56l4.28-4.56h3.03l-4.577,4.591,4.842,6.624h-3.014l-3.469-4.92-1.093,1.124Z" transform="translate(-118.83 -266.895)"/>
        <path id="패스_8605" data-name="패스 8605" class="cls-3" d="M132.909,274.018c0-1.312.469-2.548,1.859-2.548,1.5,0,1.875,1.344,1.875,2.672,0,1.234-.548,2.39-1.937,2.39C133.3,276.531,132.909,275,132.909,274.018Zm5.827-7.123h-2.187v3.983h-.031a2.666,2.666,0,0,0-2.406-1.3c-1.827,0-3.452,1.405-3.452,4.281,0,2.28,1.032,4.466,3.5,4.466a2.635,2.635,0,0,0,2.4-1.264h.031v1.046h2.142Z" transform="translate(-121.148 -266.895)"/>
        <path id="패스_8606" data-name="패스 8606" class="cls-3" d="M150.646,278.764h-2.188v-5.045c0-.609-.031-1.641-1.422-1.641A1.7,1.7,0,0,0,145.319,274v4.763h-2.188v-8.311h2.094v1.219h.03a2.678,2.678,0,0,1,2.5-1.438,2.652,2.652,0,0,1,2.891,2.781Z" transform="translate(-123.592 -267.549)"/>
      </g>
    </g>
    <g id="그룹_6831" data-name="그룹 6831" transform="translate(161.04 254.601)">
      <g id="그룹_6830" data-name="그룹 6830" transform="translate(0)">
        <path id="패스_8607" data-name="패스 8607" class="cls-4" d="M241.812,282.709v-26.9h5.015v11.958h.084a51.825,51.825,0,0,1,3.15-6.459l2.93-5.5h5.673l-6.635,11.568L259,282.709h-5.675l-4.744-10.6-1.751,2.9v7.7Z" transform="translate(-186.733 -254.86)"/>
        <path id="패스_8608" data-name="패스 8608" class="cls-4" d="M323.028,282.709h-1.6v-26.9h1.6Z" transform="translate(-202.334 -254.86)"/>
        <path id="패스_8609" data-name="패스 8609" class="cls-4" d="M364.011,282.709h-1.6v-26.9h1.6Z" transform="translate(-210.366 -254.86)"/>
        <path id="패스_8610" data-name="패스 8610" class="cls-4" d="M271.53,278.763v-19h3.318c3,0,3.638,2.513,3.638,8.865,0,7.773-.284,10.132-4.777,10.132Zm4.279,3.945a7.319,7.319,0,0,0,3.708-.71c4.138-2.4,4.138-8.544,4.138-13.841,0-4.444-.32-7.42-1.459-9.291a6.245,6.245,0,0,0-5.2-3.059H266.517v26.9Z" transform="translate(-191.574 -254.86)"/>
        <path id="패스_8611" data-name="패스 8611" class="cls-4" d="M304.773,255.809h5.014v26.9h-5.239l-3.9-9.575a90.34,90.34,0,0,1-3.592-10.687h-.072c.191,2.226.392,4.952.544,7.679.143,2.691.25,5.38.25,7.535v5.049h-5.024v-26.9h5.2l3.909,9.8a89.069,89.069,0,0,1,3.579,10.69h.073c-.166-2.443-.367-5.061-.5-7.645-.146-2.585-.25-5.156-.25-7.56Z" transform="translate(-196.716 -254.86)"/>
        <path id="패스_8612" data-name="패스 8612" class="cls-4" d="M182.718,262.878a3.718,3.718,0,0,1,.865,2.464,3.771,3.771,0,0,1-.865,2.487,2.26,2.26,0,0,1-3.734,0,4.049,4.049,0,0,1,0-4.939,2.241,2.241,0,0,1,3.734-.012Zm12.622,16.209H179.945v-5.141H175.12v9.065H195.34Zm-5.123-23.865v19.64h4.826V265.2h2.723v-3.935h-2.723v-6.046Zm-16.152,7.135a5.817,5.817,0,0,0-.756,2.986,7.106,7.106,0,0,0,2.18,5.25,7.739,7.739,0,0,0,10.726,0,7.167,7.167,0,0,0,2.193-5.25,5.971,5.971,0,0,0-.783-3.022,7.758,7.758,0,0,0-1.979-2.25H188.1v-3.937h-4.835v-1.5h-4.823v1.5H173.6v3.937h2.419A9.149,9.149,0,0,0,174.065,262.356Z" transform="translate(-173.309 -254.629)"/>
        <path id="패스_8613" data-name="패스 8613" class="cls-4" d="M228.947,274.988h-4.835v-9.954h-3.318V261.1h3.318v-5.75h4.835Zm.293,4.22h-15.7v-5.132H208.7v9.067h20.536Zm-16.9-18.228a8.135,8.135,0,0,1-.96,3.937,7.769,7.769,0,0,1-2.583,2.761,16.268,16.268,0,0,1-2.158,1.209c-.566.25-.877.367-.923.392l2.061,3.588a5.739,5.739,0,0,0,.78-.224,14.7,14.7,0,0,0,2.5-1.221,12.484,12.484,0,0,0,2.657-1.956q.994-1,1.032-1.067c.045.047.4.4,1.064,1.067a12.24,12.24,0,0,0,2.68,1.933,27.1,27.1,0,0,0,2.5,1.207c.486.178.746.261.772.261l1.98-3.613a7.652,7.652,0,0,0-.843-.392,18.227,18.227,0,0,1-2.11-1.184,7.636,7.636,0,0,1-2.678-2.822,8.037,8.037,0,0,1-.949-3.97v-.994h5.142v-3.923H207.2v3.923h5.143Z" transform="translate(-179.661 -254.77)"/>
        <path id="패스_8614" data-name="패스 8614" class="cls-4" d="M351.495,270.938v3.922h-8.767v8.462h-4.836V274.86h-8.747v-3.922Zm-14.5-10.868h-6.943v-3.918h20.522v3.918h-7.18a6.753,6.753,0,0,0,1.685,2.23,15.347,15.347,0,0,0,3.694,2.3c.6.26,1.175.5,1.768.7s.912.307.957.331l-2.12,3.838c-.021,0-.294-.082-.794-.239a26.708,26.708,0,0,1-2.6-.98,13.576,13.576,0,0,1-4.172-2.562c-.972-.948-1.472-1.443-1.505-1.516-.047.073-.546.568-1.507,1.505a14.389,14.389,0,0,1-4.15,2.631,16.122,16.122,0,0,1-2.53.973c-.523.118-.82.188-.855.188l-2.112-3.838c.053-.024.36-.13.952-.319a13.771,13.771,0,0,0,1.777-.712,14.836,14.836,0,0,0,3.39-2.287A8.361,8.361,0,0,0,336.991,260.07Z" transform="translate(-203.847 -254.927)"/>
      </g>
    </g>
  </g>
</svg>
