<svg xmlns="http://www.w3.org/2000/svg" width="224.883" height="56.875" viewBox="0 0 224.883 56.875">
  <defs>
    <style>
      .cls-1 {
        fill: #5d5c5c;
      }

      .cls-2 {
        fill: #006ab9;
      }

      .cls-3 {
        fill: #6fa317;
      }

      .cls-4 {
        fill: #0069b7;
      }

      .cls-5 {
        fill: #e95a00;
      }

      .cls-6 {
        fill: #ffa900;
      }

      .cls-7 {
        fill: #006b36;
      }

      .cls-8 {
        fill: #002675;
      }

      .cls-9 {
        fill: #df2818;
      }
    </style>
  </defs>
  <g id="그룹_6978" data-name="그룹 6978" transform="translate(-130.091 -674.8)">
    <g id="그룹_6975" data-name="그룹 6975" transform="translate(218.715 686.151)">
      <path id="패스_9479" data-name="패스 9479" class="cls-1" d="M306.6,698.669v-1.605h-1.217v1.6a7.881,7.881,0,0,1-.559,3.164,6.327,6.327,0,0,1-1.969,2.459l.7.9a5.777,5.777,0,0,0,1.515-1.443,5.219,5.219,0,0,0,.946-1.957,6.231,6.231,0,0,0,1.078,1.959,5.153,5.153,0,0,0,1.42,1.325l.665-.9A6.511,6.511,0,0,1,306.6,698.669Zm6.506,1.738h-1.677l.008-3.478H310.25V706.5a1.311,1.311,0,0,0,.563.133,1.3,1.3,0,0,0,.626-.164l-.007-5.048h1.677Z" transform="translate(-302.858 -696.929)"/>
      <path id="패스_9480" data-name="패스 9480" class="cls-1" d="M353.117,696.929V706.5a1.273,1.273,0,0,0,1.2-.029v-9.544Zm-4.489.11a2.87,2.87,0,0,0-2.2.876,3.816,3.816,0,0,0-.007,4.732,3.221,3.221,0,0,0,4.406,0,3.827,3.827,0,0,0,0-4.732A2.863,2.863,0,0,0,348.628,697.039Zm1.339,4.869a1.791,1.791,0,0,1-2.68,0,2.862,2.862,0,0,1,0-3.262,1.8,1.8,0,0,1,2.68,0,2.857,2.857,0,0,1,0,3.262Z" transform="translate(-323.677 -696.929)"/>
      <path id="패스_9481" data-name="패스 9481" class="cls-1" d="M443.633,706.517a1.3,1.3,0,0,0,.537.12,1.324,1.324,0,0,0,.649-.175v-9.533h-1.186v5.406c0,.516-.552.9-1.656,1.157a11.16,11.16,0,0,1-2.32.18,5.2,5.2,0,0,1-1.287-.109.516.516,0,0,1-.384-.564v-5.9H436.8v6.357a1.551,1.551,0,0,0,.195.861,1.038,1.038,0,0,0,.726.377,8.81,8.81,0,0,0,1.414.087,11.358,11.358,0,0,0,2.688-.236,3.906,3.906,0,0,0,1.806-.848Z" transform="translate(-368.094 -696.929)"/>
      <path id="패스_9482" data-name="패스 9482" class="cls-1" d="M464.929,700.348v-3.419H463.75v5.41q0,.836-1.219,1.207a8.55,8.55,0,0,1-2.266.2,5.59,5.59,0,0,1-1.518-.143.4.4,0,0,1-.292-.437v-5.025h3.42v-1.02h-4.6v6.151a2.478,2.478,0,0,0,.137,1,.945.945,0,0,0,.733.442,8.894,8.894,0,0,0,1.484.106,11.3,11.3,0,0,0,2.774-.263,2.716,2.716,0,0,0,1.346-.656v2.585a1.3,1.3,0,0,0,.6.151,1.286,1.286,0,0,0,.582-.145v-5.129h1.839v-1.016Z" transform="translate(-378.064 -696.929)"/>
      <path id="패스_9483" data-name="패스 9483" class="cls-1" d="M332.99,699.291l.012-2.362h-1.195v3.583a.94.94,0,0,1-.463.851,3.541,3.541,0,0,1-.977.316,12.865,12.865,0,0,1-2.354.147,9.579,9.579,0,0,1-1.26-.06.467.467,0,0,1-.483-.5v-.917h3.454a.471.471,0,0,0,.384-.524v-2.068c.022-.447-.173-.673-.58-.673H325.11v.959h3.4c.251,0,.375.149.375.45v.918h-3.414a.465.465,0,0,0-.381.522v1.69a1.436,1.436,0,0,0,.215.881,1.02,1.02,0,0,0,.7.346,8.693,8.693,0,0,0,1.26.075,11.8,11.8,0,0,0,3.02-.287,3.106,3.106,0,0,0,1.526-.74v1.233a1.328,1.328,0,0,0,.576.135,1.3,1.3,0,0,0,.619-.159l-.012-2.8h1.68v-1.018Zm-.44,4.686h-6.1v3.15a1.057,1.057,0,0,0,.177.69.817.817,0,0,0,.62.192h5.321a.551.551,0,0,0,.453-.619v-2.855C333.041,704.166,332.882,703.978,332.551,703.978Zm-.777,2.66s0,.357-.259.357h-3.459c-.28,0-.418-.146-.418-.439v-1.561h3.826c.209,0,.31.12.31.358Z" transform="translate(-313.685 -696.929)"/>
      <path id="패스_9484" data-name="패스 9484" class="cls-1" d="M378.17,702.129v-5.066h-1.186v1.692H374.2v-1.692h-1.18v4.742a1.1,1.1,0,0,0,.192.717.854.854,0,0,0,.677.225h3.83A.552.552,0,0,0,378.17,702.129Zm-1.186-.761s0,.362-.258.362H374.65a.4.4,0,0,1-.451-.463v-1.5h2.785Zm4.068-1.769.008-2.67h-1.193v7.243a1.273,1.273,0,0,0,1.193.017l-.008-3.573h1.675V699.6Zm-5.238,6.646.009-2.172h-1.192v2.883a.847.847,0,0,0,.148.568.724.724,0,0,0,.538.162h6.133v-1.02h-5.216A.371.371,0,0,1,375.813,706.245Z" transform="translate(-337.028 -696.929)"/>
      <path id="패스_9485" data-name="패스 9485" class="cls-1" d="M397.806,701.286a5.423,5.423,0,0,0,1.266-3.377.657.657,0,0,0-.746-.788h-4.054v1.02H397.4c.272,0,.39.158.357.475-.2,1.668-1.452,2.864-3.755,3.6l.44.942A6.637,6.637,0,0,0,397.806,701.286Zm3.026,3.345h-4.119v-1.249h-1.195v3.746a1.054,1.054,0,0,0,.179.69.822.822,0,0,0,.619.192h5.277a.556.556,0,0,0,.435-.617v-4.011h-1.2Zm0,2.007s0,.357-.259.357h-3.437a.381.381,0,0,1-.423-.438v-.911h4.119Zm1.185-7.386.011-2.322h-1.2v5.791a1.275,1.275,0,0,0,1.193-.006l-.008-2.443H403.7v-1.019Z" transform="translate(-347.249 -696.929)"/>
      <path id="패스_9486" data-name="패스 9486" class="cls-1" d="M417.81,700.27a3.136,3.136,0,0,0,1.367-1.419,3.458,3.458,0,0,0,1.5,1.443,6.047,6.047,0,0,0,2.182.765l.365-.96a6.035,6.035,0,0,1-2.518-1.116,2.364,2.364,0,0,1-.935-1.862v-.192h-1.215v.181q0,2.189-3.387,2.97l.368.979A6.773,6.773,0,0,0,417.81,700.27Zm-3.452,1.691v.979h9.613v-.979Zm7.128,2.86h-4.623v-.977H415.68v3.265a1.01,1.01,0,0,0,.182.685.829.829,0,0,0,.625.2h5.732a.557.557,0,0,0,.456-.62v-3.528h-1.189Zm0,1.816s0,.357-.26.357h-3.935a.383.383,0,0,1-.428-.438V705.8h4.623Z" transform="translate(-357.162 -696.929)"/>
    </g>
    <g id="그룹_6976" data-name="그룹 6976" transform="translate(217.952 702.695)">
      <path id="패스_9487" data-name="패스 9487" class="cls-2" d="M301.37,763.753h5.062v6.509h2.9v-6.509h5.876v6.509h2.909v-6.509h5.067v-2.6H301.37Z" transform="translate(-301.37 -744.749)"/>
      <path id="패스_9488" data-name="패스 9488" class="cls-2" d="M360.823,772.911v-6.339h-2.9v6.339a3.3,3.3,0,0,0,.883,2.669,4.446,4.446,0,0,0,2.764.709H371.7v-2.6H361.566A.68.68,0,0,1,360.823,772.911Z" transform="translate(-328.911 -747.391)"/>
      <path id="패스_9489" data-name="패스 9489" class="cls-3" d="M533.859,743.813a5.593,5.593,0,0,0,1.846,1.132,7.453,7.453,0,0,0,4.925,0,5.538,5.538,0,0,0,1.85-1.132,4.826,4.826,0,0,0,1.157-1.65,5.026,5.026,0,0,0,0-3.954,4.626,4.626,0,0,0-1.157-1.627,5.6,5.6,0,0,0-1.85-1.12,7.5,7.5,0,0,0-4.925,0,5.631,5.631,0,0,0-1.846,1.12,4.606,4.606,0,0,0-1.159,1.627,5.044,5.044,0,0,0,0,3.954A4.837,4.837,0,0,0,533.859,743.813ZM536,738.382a3.577,3.577,0,0,1,4.339,0,2.376,2.376,0,0,1,.8,1.806,2.408,2.408,0,0,1-.8,1.835,3.571,3.571,0,0,1-4.339,0,2.418,2.418,0,0,1-.8-1.835A2.382,2.382,0,0,1,536,738.382Z" transform="translate(-413.839 -732.037)"/>
      <path id="패스_9490" data-name="패스 9490" class="cls-3" d="M544.03,776.4c-.2-.117-.3-.21-.3-.586v-3.355h-2.9v3.484a2.936,2.936,0,0,0,.88,2.507,4.44,4.44,0,0,0,2.762.708h10.547v-2.6H544.623A1.24,1.24,0,0,1,544.03,776.4Z" transform="translate(-417.994 -750.257)"/>
      <path id="패스_9491" data-name="패스 9491" class="cls-3" d="M504.625,761.164h-21.36v2.609h9.459v6.958h2.9v-6.958h9.463v-2.609Z" transform="translate(-389.959 -744.757)"/>
      <path id="패스_9492" data-name="패스 9492" class="cls-2" d="M421.995,731.172a9.4,9.4,0,0,0-2.051-1.424,1.337,1.337,0,0,0-.678-.2,1.386,1.386,0,0,0-1.386,1.388,1.36,1.36,0,0,0,.691,1.166,4.046,4.046,0,0,1,.837.606,1.71,1.71,0,0,1,.377,1.143V753.3h2.9V733.7A3.97,3.97,0,0,0,421.995,731.172Z" transform="translate(-358.115 -729.357)"/>
      <path id="패스_9493" data-name="패스 9493" class="cls-2" d="M464.589,731.172a9.393,9.393,0,0,0-2.05-1.424,1.362,1.362,0,0,0-.682-.2,1.386,1.386,0,0,0-1.386,1.388,1.362,1.362,0,0,0,.7,1.166,4,4,0,0,1,.836.606,1.713,1.713,0,0,1,.377,1.143V753.3h2.9V733.7A3.983,3.983,0,0,0,464.589,731.172Z" transform="translate(-378.858 -729.357)"/>
      <path id="패스_9494" data-name="패스 9494" class="cls-3" d="M559.3,731.284c-.027-.034-.044-.079-.072-.112v-.007a9.571,9.571,0,0,0-2.051-1.418,1.347,1.347,0,0,0-.681-.2,1.384,1.384,0,0,0-1.382,1.388,1.356,1.356,0,0,0,.691,1.165,4.038,4.038,0,0,1,.837.607,1.512,1.512,0,0,1,.222.395c.015.044.049.072.065.115a2.08,2.08,0,0,1,.09.634V747.88h-5.8v2.531h5.8v1.5h0v1.012h2.9V733.7A4.122,4.122,0,0,0,559.3,731.284Z" transform="translate(-423.056 -729.357)"/>
      <path id="패스_9495" data-name="패스 9495" class="cls-2" d="M322.976,737.83H307.542v2.531h2.884l-.071.083a4.27,4.27,0,0,0-.695,1.182,4.054,4.054,0,0,0-.252,1.454,4.487,4.487,0,0,0,.486,2.128,4.709,4.709,0,0,0,1.307,1.539,5.665,5.665,0,0,0,1.874.936,7.737,7.737,0,0,0,2.193.314,7.883,7.883,0,0,0,2.2-.314,5.669,5.669,0,0,0,1.887-.937,4.623,4.623,0,0,0,1.3-1.538,4.419,4.419,0,0,0,.494-2.128,4.223,4.223,0,0,0-.871-2.636l-.065-.083h2.757Zm-5.5,7.016a3.641,3.641,0,0,1-2.207.623,3.449,3.449,0,0,1-2.2-.657,2.172,2.172,0,0,1-.832-1.792,2.242,2.242,0,0,1,.832-1.839,3.878,3.878,0,0,1,4.409.032,2.31,2.31,0,0,1,.848,1.865A2.1,2.1,0,0,1,317.475,744.846Z" transform="translate(-304.376 -733.393)"/>
      <path id="패스_9496" data-name="패스 9496" class="cls-2" d="M320,729.966q-.785.028-1.614.013a9.525,9.525,0,0,1-1.335-.091,9,9,0,0,1-2.245-.594.85.85,0,0,0-.41-.114,1.011,1.011,0,0,0-.941,1.068c0,.458.606,1.017.606,1.017a5.307,5.307,0,0,0,.759.468,6.176,6.176,0,0,0,.885.352,5.092,5.092,0,0,0,1.162.225,12.345,12.345,0,0,0,1.486.074h1.669c.523-.017,1.161-.04,1.91-.074v-2.421C321.165,729.922,320.519,729.955,320,729.966Z" transform="translate(-307.255 -729.18)"/>
      <path id="패스_9497" data-name="패스 9497" class="cls-2" d="M365.862,731.164a.884.884,0,0,0-.183-.171,11.79,11.79,0,0,0-1.88-1.245,1.354,1.354,0,0,0-.678-.2,1.386,1.386,0,0,0-1.387,1.388,1.361,1.361,0,0,0,.691,1.166,4.035,4.035,0,0,1,.837.606,1.721,1.721,0,0,1,.378,1.143v4.541h-4.473v-4.708H347.911v9.2a3.288,3.288,0,0,0,.881,2.667,4.4,4.4,0,0,0,2.761.71h3.968a4.406,4.406,0,0,0,2.765-.71,3.293,3.293,0,0,0,.88-2.667v-1.892h4.473v10.572h2.918V733.7A4,4,0,0,0,365.862,731.164Zm-9.6,11.713a.679.679,0,0,1-.742.776h-3.962a.68.68,0,0,1-.743-.776v-6.589h5.446Z" transform="translate(-324.037 -729.357)"/>
      <path id="패스_9498" data-name="패스 9498" class="cls-2" d="M398.172,745.141a27.049,27.049,0,0,0,.413-5.614h-2.962c0,1.5-.045,2.737-.135,3.786a8.428,8.428,0,0,1-.7,2.843,5.95,5.95,0,0,1-1.691,2.151,12.554,12.554,0,0,1-3.069,1.712l1.422,2.429a11.609,11.609,0,0,0,1.51-.672,8.449,8.449,0,0,0,1.571-1,12.93,12.93,0,0,0,2.5-2.651l4.688,4.76,2.067-2.041Z" transform="translate(-344.55 -734.219)"/>
      <path id="패스_9499" data-name="패스 9499" class="cls-3" d="M497.731,740.056a13.391,13.391,0,0,0,.611-3.279h-2.885a8.548,8.548,0,0,1-.546,3.121,6.642,6.642,0,0,1-1.5,2.263,6.959,6.959,0,0,1-2.189,1.418,14.432,14.432,0,0,1-2.593.769l.972,2.476a9.831,9.831,0,0,0,2.224-.556,11.729,11.729,0,0,0,2.182-1.1,9.915,9.915,0,0,0,1.779-1.479,6.926,6.926,0,0,0,.857-1.116l6.342,4.7,1.643-2.072Z" transform="translate(-392.572 -732.88)"/>
      <path id="패스_9500" data-name="패스 9500" class="cls-4" d="M447.892,748.994a10.067,10.067,0,0,1-4.347.838h-4.816c-.491,0-.738-.258-.738-.768v-2.709h7.746v-2.488h-7.746v-3.355h8.049v-2.6H435.081v11.333a3.2,3.2,0,0,0,.813,2.457,4.172,4.172,0,0,0,2.777.734h4.874a13.356,13.356,0,0,0,4.975-.92Z" transform="translate(-366.492 -733.433)"/>
      <path id="패스_9501" data-name="패스 9501" class="cls-3" d="M544.136,755.486a19.521,19.521,0,0,1-5.167.833H528.574v2.57h6.344v3.636h2.912v-3.636h1.325v-.005a15.262,15.262,0,0,0,5.551-.863Z" transform="translate(-412.026 -741.992)"/>
    </g>
    <g id="그룹_6977" data-name="그룹 6977" transform="translate(130.091 674.8)">
      <path id="패스_9502" data-name="패스 9502" class="cls-5" d="M233.06,683.763c1-.327,2.525-.64,1.738-1.526-.535-.6-1.89-.433-2.132-1.358-.171-.652.41-1.5.051-2.121-.486-.844-1.733.865-2.175,1.131s-1.109-.084-1.529-.217c-.587-.194-1.259-.194-1.246.569.017.868,1.059,1.546.414,2.456-.249.35-2.243,1.631-1.14,2.107,1.133.49,2.491-1.157,3.484-.078a18.648,18.648,0,0,0,1.453,1.923c.455.424.675.091.736-.15a5.92,5.92,0,0,0-.044-2.147A.491.491,0,0,1,233.06,683.763Z" transform="translate(-177.148 -676.615)"/>
      <path id="패스_9503" data-name="패스 9503" class="cls-2" d="M261.754,698.181c-.328-.968,3.749-.175,4.352-3.317.241-1.251-.8-3.014.061-2.714,1.605.561,4.369,3.723,2.144,6.433-1.364,1.661-4.118,1.464-6.12.027a3.455,3.455,0,0,1-.292-.226A.519.519,0,0,1,261.754,698.181Z" transform="translate(-194.206 -683.233)"/>
      <path id="패스_9504" data-name="패스 9504" class="cls-3" d="M147.069,688.909a3.194,3.194,0,0,1-.551.235,1.866,1.866,0,0,0-1.415,1.608c-.018.9.619,1.774.515,2.678a2.723,2.723,0,0,1-1.288,1.953c-1.14.493-1.5-2.3-1.8-2.905-.246-.49-.509-.457-1.07-.2-.232.107-1.546,1.518-2.054,1.127a3.2,3.2,0,0,1-.761-1.157c-.12-.294-.229-.7.035-.95.285-.272.917-.27,1.264-.354,1.026-.244,1.429-.741.743-1.379-.508-.469-1.057-.781-1.592-1.192-.578-.446-.6-.918.153-1.179a2.585,2.585,0,0,1,2.594.379c.352.251.655.657,1.086.77.839.217,1.452-.336,2.205-.55a3.071,3.071,0,0,1,2.035.31C147.766,688.374,147.463,688.691,147.069,688.909Z" transform="translate(-134.195 -680.744)"/>
      <path id="패스_9505" data-name="패스 9505" class="cls-3" d="M147.061,725.8c-3.653.557-4.291-3.306-1.175-4.752.316-.145,1.04-.457,1.989-.853.045-.274.087-.528.112-.67.243-1.447.67-4.181.712-4.4.61-3.2-4.533-4.3-5.429-1.633-.481,1.426-.979,3.036-2,6.459a1.048,1.048,0,0,1-.876.716c-.161.029-.491.044-.915.07-1,.06-3.007.271-6.4.349-1.809.043-2.98.676-2.987,2.333-.012,2.064,2.165,2.315,3.529,2.478,1.6.188,3.381.207,4.414.457.862.208,1.071.536,1.064,1.224,0,.229-1.092,13.555-1.078,13.734,0,.267-.184,4.007-.184,5.634,0,2.609,1.685,2.784,1.685,2.784,2.284.326,2.481-2.275,2.481-2.275s.039-.675.083-1.576a4.089,4.089,0,0,0,.76-.032c.06.451.127,1.046.2,1.494.445,2.581,2.123,2.418,2.123,2.418,2.3-.069,2.052-2.621,2.052-2.621-.062-1.08-.3-12.919-.116-16.872.054-1.148,1.077-.518,1.077-.518l2.552,1.685c1.967,1.393,3.247.959,3.842.244a2.474,2.474,0,0,0-.509-3.4c-.707-.609-2.18-1.98-3.476-3.207-.531.112-1.069.228-1.59.348C147.977,725.644,147.13,725.787,147.061,725.8Z" transform="translate(-130.091 -692.912)"/>
      <path id="패스_9506" data-name="패스 9506" class="cls-6" d="M182.132,708.9a20.272,20.272,0,0,1,2.027.463c.508.142.992.285,1.507.433,1.838-1.826,3.6-3.78,4.405-4.653a5.05,5.05,0,0,0,1.225-1.818,2.178,2.178,0,0,0-1.418-2.922,3.183,3.183,0,0,0-2.447.341c-1.971,1.034-4.7,3.546-6.077,4.432a1.563,1.563,0,0,1-2.558-.628c-1.358-2.361-3.3-6.266-3.75-6.886-.985-1.347-3.222-1.3-4.789-.123a2.709,2.709,0,0,0-1.285,2.824c.2,1.1,2.265,6.81,2.509,7.549.25.756.106,1.68-1.245,2.391-.628.33-2.842,1.253-4.773,2.054-.311.127-.605.254-.882.369-.08.479-.167,1.022-.177,1.14a1.464,1.464,0,0,0,.462,1.408c.053.058,1.159,1.121,2.432,2.324,2.044-.429,3.921-.777,3.921-.777s1.753-.219,1.793,2.117c.1,5.425.137,15.691-.106,19.429a9.465,9.465,0,0,0,0,1.7,2.286,2.286,0,0,0,2.273,2.22c1.059.042,2.615,0,3.082-3.071.088-.573.141-1.15.2-1.721a5.144,5.144,0,0,0,.966,0c.047.539.088,1.117.117,1.467a12.591,12.591,0,0,0,.149,1.433c.2.941.7,2,2.667,1.891,0,0,2.6-.056,2.4-3.627-.511-11.473-1.127-18.4-1.4-21.673-.059-.724-.1-1.28-.123-1.668-.008-.17-.013-.324-.019-.479a20.9,20.9,0,0,1-3.344-1.613C177.892,711.9,178.769,708.306,182.132,708.9Z" transform="translate(-146.799 -685.442)"/>
      <path id="패스_9507" data-name="패스 9507" class="cls-7" d="M161.262,730.533a1.464,1.464,0,0,1-.462-1.408c.01-.118.1-.661.177-1.14-.949.4-1.673.708-1.989.853-3.116,1.446-2.478,5.309,1.175,4.752.069-.012.916-.155,1.942-.385.521-.12,1.059-.236,1.59-.348C162.421,731.655,161.315,730.592,161.262,730.533Z" transform="translate(-143.193 -700.703)"/>
      <path id="패스_9508" data-name="패스 9508" class="cls-5" d="M223.585,715.832a2.325,2.325,0,0,1-.225-1.308c-1.969.4-4.035.944-5.684,1.253-.871.164-.814-.8-.827-1.491-.015-.835.284-6.455.251-7.441-.044-1.292-.889-2.319-2.74-2.5a2.808,2.808,0,0,0-3.244,2.007c-.5,1.882-1.213,4.978-1.654,6.576-.541,1.966-1.452,1.792-2.855,1.439-1.288-.325-2.227-.59-3.077-.837-.362.358-.726.711-1.084,1.052a5.408,5.408,0,0,0-.791.9,4.832,4.832,0,0,0-.566,3.1c.156.067.316.133.483.2,1.235.524,2.245.939,3.554,1.591,1.74.872,2.157,1.231,2.174,2.1.021.975-1.217,19.706-1.253,20.327-.186,3.127,2.379,3.221,2.379,3.221,2.36.2,2.633-2.474,2.633-2.474s.086-.851.21-1.87a4.267,4.267,0,0,0,.857,0c.031.511.066,1.019.117,1.527.282,2.927,2.533,2.82,2.533,2.82,2.589.016,2.548-2.883,2.548-2.883-.122-.861-.471-17.346-.4-18.479.058-.975-.006-1.988.864-2.505.907-.546,5-1.967,7.559-2.9a.331.331,0,0,0-.023-.042C224.654,717.959,223.951,716.621,223.585,715.832Z" transform="translate(-164.664 -689.181)"/>
      <path id="패스_9509" data-name="패스 9509" class="cls-2" d="M257.37,721.312a1.76,1.76,0,0,0-1.362-.86,2.966,2.966,0,0,0-2.64,1.371c-.347.422-3.4,4.121-3.66,4.491-.159.236-.506.573-.9.069-.1-.124-3.732-5.452-4.271-6.029a2.433,2.433,0,0,0-3.113-.274,3,3,0,0,0-1.366,1.624,1.979,1.979,0,0,0-.062.282c.048-.009.1-.021.149-.03.118-.027.241-.053.361-.074a8.147,8.147,0,0,1,2.777-.227c2.75.661,2.379,3.652-.07,4.6-.111.043-.237.09-.369.138-.225.088-.482.181-.749.279-.038.013-.077.027-.116.042.159.3.318.6.468.874.638,1.184.976,1.9.976,1.9s.269.538-.447.588c0,0-4.005.229-5.565.451a2.26,2.26,0,0,0-2.157,1.673,1.951,1.951,0,0,0,1.889,2.224c.265.033,4.581.639,5.949.763a1.679,1.679,0,0,1,1.585.943,4.321,4.321,0,0,1,.221,1.674c-.023,1.074-.272,9.445-.486,12.392a7.417,7.417,0,0,0,.027,1.884,1.838,1.838,0,0,0,2.1,1.406c.558-.034,1.514-.18,1.828-2.377.063-.432.067-.881.132-1.31a4.009,4.009,0,0,0,.724,0,13.14,13.14,0,0,0,.191,2.349,1.8,1.8,0,0,0,1.619,1.354c1.437.144,2.239-.756,2.239-2.732,0-1.543-.8-14.749-.8-14.749l-.055-.6a9.13,9.13,0,0,1,.919-4.752c.172-.311,3.161-5.437,3.161-5.437a16.975,16.975,0,0,0,.912-1.764A2.453,2.453,0,0,0,257.37,721.312Z" transform="translate(-181.297 -696.643)"/>
      <path id="패스_9510" data-name="패스 9510" class="cls-8" d="M247.344,728.248c.132-.048.258-.1.369-.138,2.448-.952,2.819-3.942.07-4.6a8.147,8.147,0,0,0-2.777.227c-.12.021-.243.048-.361.074-.052.009-.1.021-.149.03a2.325,2.325,0,0,0,.225,1.308c.367.789,1.07,2.127,1.734,3.38a.324.324,0,0,1,.023.042c.039-.015.078-.029.116-.042C246.862,728.429,247.119,728.336,247.344,728.248Z" transform="translate(-185.8 -698.496)"/>
      <path id="패스_9511" data-name="패스 9511" class="cls-9" d="M197.494,723.309a5.411,5.411,0,0,1,.791-.9c.358-.341.723-.695,1.084-1.052-.515-.149-1-.291-1.507-.433a20.288,20.288,0,0,0-2.027-.463c-3.363-.592-4.24,3-2.251,4.327a20.894,20.894,0,0,0,3.344,1.613A4.832,4.832,0,0,1,197.494,723.309Z" transform="translate(-160.502 -697.008)"/>
      <path id="패스_9512" data-name="패스 9512" class="cls-6" d="M193.159,676.766a2.728,2.728,0,0,0-1.124-.761c-1.418-.489-2.949.355-4.02.995a6.8,6.8,0,0,0-2.1-1.685l-.071-.032a5.515,5.515,0,0,0-.756-.342,2.4,2.4,0,0,0-.667-.137,1.7,1.7,0,0,0-1.463.695,3.726,3.726,0,0,0-.62,2.432,2.641,2.641,0,0,0,.618,1.591,2.325,2.325,0,0,0,.944.621c1.215.421,2.627-.213,3.688-.814a6.12,6.12,0,0,0,1.761,1.6,3.561,3.561,0,0,0,.518.226,2.524,2.524,0,0,0,3.21-1.069C193.095,680.058,194.2,677.924,193.159,676.766Zm-8.43,2.443a.689.689,0,0,1-.285-.194,1.253,1.253,0,0,1-.21-.7,3.3,3.3,0,0,1,.14-1.2c.123-.375.372-.371.635-.258.146.064.308.14.456.215l.1.051a6.345,6.345,0,0,1,1.795,1.364A4.123,4.123,0,0,1,184.729,679.209Zm6.822-.177c-.309.585-1.116.358-1.356.276a2.119,2.119,0,0,1-.319-.141,5.1,5.1,0,0,1-1.374-1.234c.98-.57,2.2-1.191,2.977-.922a.708.708,0,0,1,.45.885A4.412,4.412,0,0,1,191.552,679.032Z" transform="translate(-155.534 -674.8)"/>
    </g>
  </g>
</svg>
