<svg xmlns="http://www.w3.org/2000/svg" width="213.796" height="48.84" viewBox="0 0 213.796 48.84">
  <defs>
    <style>
      .cls-1 {
        fill: #4a004e;
      }

      .cls-2 {
        fill: #d55710;
      }

      .cls-3 {
        fill: #cea073;
      }
    </style>
  </defs>
  <g id="그룹_6786" data-name="그룹 6786" transform="translate(-290.384 -109.823)">
    <g id="그룹_6782" data-name="그룹 6782" transform="translate(345.482 129.999)">
      <path id="패스_8244" data-name="패스 8244" class="cls-1" d="M535.67,142.545V134.27a.455.455,0,0,0-.456-.5h-3.3c-.453,0-.281.155,0,.314s.674.342.674.705v11.874a21.618,21.618,0,0,1-4.82.577h-4.054v-5.981a.457.457,0,0,0-.457-.5h-3.3c-.447,0-.277.152.007.32s.676.335.676.7v5.464h-4.9v1.346h11.719a27.458,27.458,0,0,0,5.131-.526v5.353h3.078v-9.578H539.7v-1.294Z" transform="translate(-381.001 -133.774)"/>
      <path id="패스_8245" data-name="패스 8245" class="cls-1" d="M526.193,145.583h3.139s.676-4.481.928-8.761c.022-.425.022-.874-.771-.874H517.863v1.3h9.167A63.353,63.353,0,0,1,526.193,145.583Z" transform="translate(-381.335 -134.117)"/>
      <path id="패스_8246" data-name="패스 8246" class="cls-1" d="M472.809,134.27a.454.454,0,0,0-.453-.5h-3.3c-.451,0-.284.155,0,.314s.674.342.674.705v15.456a21.613,21.613,0,0,1-4.679.54h-2.72v-3.33a5.217,5.217,0,0,0,4.691-5.251,5.023,5.023,0,0,0-2.367-4.382h3.224v-1.339h-5.509V134.27a.452.452,0,0,0-.456-.5h-3.3c-.451,0-.283.155,0,.314s.674.342.674.705v1.695h-5.712v1.339h3.231a5.026,5.026,0,0,0-2.368,4.382c0,2.591,1.659,4.765,4.814,5.278v3.3h-6.2v1.35H464.74a27.361,27.361,0,0,0,4.99-.5v6.981h3.079V143.839h4.027v-1.294h-4.027Zm-15.177,7.939c0-2.092.993-4.006,3.1-4.006s3.1,1.914,3.1,4.006-.94,4.016-3.1,4.016S457.632,144.309,457.632,142.209Z" transform="translate(-371.12 -133.774)"/>
      <path id="패스_8247" data-name="패스 8247" class="cls-1" d="M505.618,133.774h-3.3c-.447,0-.279.155,0,.314s.678.342.678.705v15.247a21.808,21.808,0,0,1-5.518.749h-2.72v-3.33a5.223,5.223,0,0,0,4.7-5.251,5.032,5.032,0,0,0-2.369-4.382H500.3v-1.339h-5.512V134.27a.45.45,0,0,0-.45-.5h-3.3c-.449,0-.281.155,0,.314s.678.342.678.705v1.695H486v1.339h3.226a5.037,5.037,0,0,0-2.366,4.382c0,2.591,1.659,4.765,4.813,5.278v3.3h-6.2v1.35h11.69a27.9,27.9,0,0,0,5.828-.665v7.149h3.076V134.27A.45.45,0,0,0,505.618,133.774Zm-15.561,8.435c0-2.092.989-4.006,3.1-4.006s3.1,1.914,3.1,4.006-.943,4.016-3.1,4.016S490.057,144.309,490.057,142.209Z" transform="translate(-376.23 -133.774)"/>
      <path id="패스_8248" data-name="패스 8248" class="cls-1" d="M421.482,150.33h10.866v5.5H435.3v-5.5H444.4v-1.341H421.482Z" transform="translate(-366.144 -136.172)"/>
      <path id="패스_8249" data-name="패스 8249" class="cls-1" d="M429.445,159.742v-5.409a.458.458,0,0,0-.455-.5h-3.3c-.451,0-.28.157,0,.32s.675.343.675.7V159.6c0,1.3.473,2.187,2.157,2.187h13.17v-1.339H430.111C429.516,160.446,429.445,160.153,429.445,159.742Z" transform="translate(-366.764 -136.935)"/>
      <path id="패스_8250" data-name="패스 8250" class="cls-1" d="M524.315,159.742v-5.409a.463.463,0,0,0-.461-.5h-3.3c-.448,0-.281.157,0,.32s.68.343.68.7V159.6c0,1.3.466,2.187,2.154,2.187h13.171v-1.339H524.974C524.382,160.446,524.315,160.153,524.315,159.742Z" transform="translate(-381.715 -136.935)"/>
      <path id="패스_8251" data-name="패스 8251" class="cls-1" d="M425.811,135.543c.28.163.675.337.675.7v6.02c0,1.3.473,2.191,2.153,2.191h12.327v-8.737a.45.45,0,0,0-.449-.494h-14.71C425.357,135.224,425.528,135.38,425.811,135.543Zm3.752,6.743v-5.721h8.328v6.422h-7.66C429.639,142.987,429.563,142.7,429.563,142.287Z" transform="translate(-366.782 -134.003)"/>
      <path id="패스_8252" data-name="패스 8252" class="cls-1" d="M392.567,144.04c.358.3,3.166-.22,5.648-1.109a30.168,30.168,0,0,0,4.682-2.224,48.242,48.242,0,0,1,7.331,4.114l1.183-1.366s.6-.8-.2-1.158c-2.7-1.167-6.991-2.407-6.991-2.407a12.868,12.868,0,0,0,4.182-3.852c.335-.556.275-1.112-.522-1.112H394.133V136.4H403.7c-2.691,3.979-8.535,6.263-10.511,6.881C393.189,143.28,392,143.581,392.567,144.04Z" transform="translate(-361.563 -133.955)"/>
      <path id="패스_8253" data-name="패스 8253" class="cls-1" d="M402.953,148.142v-3.029a.454.454,0,0,0-.451-.5h-3.3c-.45,0-.281.158,0,.324s.675.329.675.7v2.507h-9.922v1.345h22.9v-1.345h-9.9Z" transform="translate(-361.176 -135.483)"/>
      <path id="패스_8254" data-name="패스 8254" class="cls-1" d="M402.234,151.689c-4.378,0-7.164,2.253-7.164,5.42s2.786,5.421,7.164,5.421,7.169-2.25,7.169-5.421S406.619,151.689,402.234,151.689Zm0,9.5a3.757,3.757,0,0,1-3.869-4.077c0-2.3,1.318-4.072,3.869-4.072a4.08,4.08,0,0,1,0,8.149Z" transform="translate(-361.982 -136.598)"/>
      <path id="패스_8255" data-name="패스 8255" class="cls-1" d="M364.3,143.685a18.71,18.71,0,0,0,2.231-6.666.76.76,0,0,0-.7-.929s-2.313-.458-3.081-.55c-.385-.051-.358.083-.068.323a1.163,1.163,0,0,1,.516.986,20.13,20.13,0,0,1-7,13.156s-.621.514-.335.81c.149.164.461.251,1.275-.131a19.349,19.349,0,0,0,6.58-6.068,39.935,39.935,0,0,1,4.726,6.889,16.4,16.4,0,0,0,1.9-1.563c.23-.248.254-.457-.023-.814A41.819,41.819,0,0,0,364.3,143.685Z" transform="translate(-355.791 -134.051)"/>
      <path id="패스_8256" data-name="패스 8256" class="cls-1" d="M383.34,133.774h-3.3c-.447,0-.28.155.005.314s.675.342.675.705v23.83h3.076V134.27A.453.453,0,0,0,383.34,133.774Z" transform="translate(-359.569 -133.774)"/>
      <path id="패스_8257" data-name="패스 8257" class="cls-1" d="M376.256,133.774h-3.2c-.45,0-.277.155,0,.314s.677.342.677.705v6.516h-4.347V142.7h4.347v15.922h2.976V134.27A.453.453,0,0,0,376.256,133.774Z" transform="translate(-357.934 -133.774)"/>
    </g>
    <g id="그룹_6784" data-name="그룹 6784" transform="translate(290.384 109.824)">
      <path id="패스_8258" data-name="패스 8258" class="cls-2" d="M326.561,152.96c-1.553,5.2-8.535,6.481-12.487,6.059A25.9,25.9,0,0,1,295.7,147.433c-3.692-5.548-4.308-13.634.406-18.836,5.943-6.539,16.52-3.721,19.124,4.792.107.369.094.085.094.085.559.2,1.248.383,1.788.636.539-6.612-8.124-11.268-14.858-9.655a14.9,14.9,0,0,0-11.667,12.37c-1.006,6.725,1.881,13.393,6.8,17.929a24.514,24.514,0,0,0,16.607,6.163c5.054-.073,12.1-2.37,13.369-8.265a4.055,4.055,0,0,1-.77.3Z" transform="translate(-290.384 -112.079)"/>
      <path id="패스_8259" data-name="패스 8259" class="cls-1" d="M333.551,157.477c0,.038-.013.078-.016.1A.813.813,0,0,0,333.551,157.477Z" transform="translate(-297.185 -117.334)"/>
      <path id="패스_8260" data-name="패스 8260" class="cls-3" d="M328.622,153.793c-3.769,1.429-9.409,1.4-14.73-.559-5.369-1.975-14.1-9.533-8.8-15.823,2.036-2.413,6.1-2.515,8.81-1.723a12.374,12.374,0,0,1,3.573,1.563c.018-.664,1.735-.969,1.518-1.571a17.835,17.835,0,0,1-1.887-.744c-5.9-1.969-10.047-.061-11.956,1.709a9.593,9.593,0,0,0-2.3,9.824c1.457,4.016,5.687,7.033,9.623,8.3,10.171,3.26,16.8-.549,16.775-.544a.235.235,0,0,1-.215-.293C329.038,153.852,328.613,153.852,328.622,153.793Z" transform="translate(-292.269 -113.65)"/>
      <path id="패스_8261" data-name="패스 8261" class="cls-1" d="M333.554,157.474Z" transform="translate(-297.188 -117.331)"/>
      <path id="패스_8262" data-name="패스 8262" class="cls-3" d="M321.526,138.182a30.874,30.874,0,0,1,3.749,2.661c3.514,3,7.17,7.971,6.37,13.245h.013c.261-.11.434-.162.688-.293,1.133-8.3-4.033-14.9-10.33-17.819-.029.246-.112.826-.164,1.09A8.307,8.307,0,0,1,321.526,138.182Z" transform="translate(-295.292 -113.945)"/>
      <g id="그룹_6783" data-name="그룹 6783" transform="translate(21.42)">
        <path id="패스_8263" data-name="패스 8263" class="cls-1" d="M339.3,134.172a13.148,13.148,0,0,0-3.369-5.5c-3.106-3.2-7.149-5.293-10.965-7.526-2.632-1.537-9.019-4.836-7.083-8.816.778-1.594,2.859-1.952,4.382-1.355,2.107.826,3.344,2.758,3.968,5.659H327.5v-4.88c-1.9-1.172-4.488-2.413-7.208-1.732a5.8,5.8,0,0,0-1.58.659,5.929,5.929,0,0,0-2.9,5.309,9.16,9.16,0,0,0,2.347,5.407,19.97,19.97,0,0,0,1.728,1.843c3.455,3.267,7.747,5.412,11.482,8.32,3.23,2.513,6.524,6.2,5.972,10.71-.418,3.4-2.892,6.272-6.6,7.7,0,0-.113.548-.184.79a13.7,13.7,0,0,0,8.82-9.42A14,14,0,0,0,339.3,134.172Z" transform="translate(-315.812 -109.824)"/>
      </g>
      <path id="패스_8264" data-name="패스 8264" class="cls-1" d="M318.165,135.093a7.287,7.287,0,0,1-.359,4.523,2.468,2.468,0,0,1-3,1.662c-1.528-.28-2.29-1.985-3.841-2.221a1.639,1.639,0,0,0-1.665,2.507,4.24,4.24,0,0,0,3.34,1.79,6.4,6.4,0,0,0,4.379-1.22,6.086,6.086,0,0,0,1.173-1.141,9.6,9.6,0,0,0,1.861-5.157A19.964,19.964,0,0,0,318.165,135.093Z" transform="translate(-293.327 -113.806)"/>
    </g>
    <g id="그룹_6785" data-name="그룹 6785" transform="translate(352.393 112.843)">
      <path id="패스_8265" data-name="패스 8265" class="cls-1" d="M368.69,117.284a4.338,4.338,0,0,0,1.05,3.044,3.957,3.957,0,0,0,1.953,1.335c.042.01.062.027.062.049a.1.1,0,0,1-.024.061l-.814.981a4.9,4.9,0,0,1-1.714-.99,3.933,3.933,0,0,1-1.232-1.562.1.1,0,0,0-.093-.082.125.125,0,0,0-.1.082,4.089,4.089,0,0,1-1.23,1.562,4.762,4.762,0,0,1-1.717.99l-.812-.981a.072.072,0,0,1-.02-.061.078.078,0,0,1,.06-.049,4.239,4.239,0,0,0,1.965-1.356,4.288,4.288,0,0,0,1.034-3.022v-1.6a.6.6,0,0,0-.138-.389.5.5,0,0,0-.411-.172h-.236v-.669h2.42Zm4.364.423h-2.9v1.269h2.9V126.4h1.558v-12.55h-2.344v.681h.263a.449.449,0,0,1,.393.191.7.7,0,0,1,.131.4Z" transform="translate(-363.994 -113.477)"/>
      <path id="패스_8266" data-name="패스 8266" class="cls-1" d="M381.03,120.668v-1.2h11.524v1.2H387.67v.776h3.3a.144.144,0,0,1,.1.029c.021.018.031.058.031.12v2.594a.282.282,0,0,1-.057.184.252.252,0,0,1-.2.076h-6.366v.571a.1.1,0,0,0,.032.082.15.15,0,0,0,.1.03h6.629v1.2h-7.321a1.082,1.082,0,0,1-.815-.253,1.283,1.283,0,0,1-.235-.879v-.669a.6.6,0,0,0-.131-.394.465.465,0,0,0-.393-.164h-.131v-.683H389.5v-.668h-7.163v-1.174h3.574v-.776Zm5.761-7.26a2.988,2.988,0,0,1,2.1.805,2.621,2.621,0,0,1,0,3.9,3.15,3.15,0,0,1-4.205,0,2.625,2.625,0,0,1,0-3.9A2.988,2.988,0,0,1,386.791,113.408Zm0,1.227a1.277,1.277,0,0,0-.981.452,1.634,1.634,0,0,0,0,2.156,1.3,1.3,0,0,0,1.964,0,1.631,1.631,0,0,0,0-2.156A1.278,1.278,0,0,0,386.791,114.635Z" transform="translate(-366.679 -113.408)"/>
      <path id="패스_8267" data-name="패스 8267" class="cls-1" d="M397.741,120.657h11.528v1.227H397.741Zm3.014-2.429a.265.265,0,0,0,.072.206.243.243,0,0,0,.175.067h7.113v1.215h-7.544a1.5,1.5,0,0,1-1.113-.34,1.753,1.753,0,0,1-.327-1.214V115.54a.608.608,0,0,0-.131-.394.475.475,0,0,0-.392-.163h-.264V114.3h9.641v1.241h-7.231v.917h7.123v1.212h-7.123Zm7.009,4.542a.123.123,0,0,1,.1.035.144.144,0,0,1,.032.1v3.559h-1.635v-2.332a.144.144,0,0,0-.033-.1.13.13,0,0,0-.1-.035h-7v-1.228Z" transform="translate(-369.313 -113.548)"/>
      <path id="패스_8268" data-name="패스 8268" class="cls-1" d="M423.743,115.592v-.478a.7.7,0,0,0-.131-.4.449.449,0,0,0-.393-.191h-.265v-.681h2.359V120.6h-1.57v-1.706h-2.477v.163a1.135,1.135,0,0,1-.275.826,1.016,1.016,0,0,1-.758.279h-3.824a1.021,1.021,0,0,1-.762-.279,1.135,1.135,0,0,1-.274-.826v-3.465a.441.441,0,0,0-.123-.334.455.455,0,0,0-.322-.116h-.145v-.75h2.162v1.881h2.75v-.831a.429.429,0,0,0-.126-.334.448.448,0,0,0-.322-.117h-.141v-.736h2.159v1.337Zm-6.339,8.854a.62.62,0,0,0-.131-.4.474.474,0,0,0-.393-.163h-.13v-.682h6.967v-.874h-6.838v-1.186h8.172a.23.23,0,0,1,.2.088.315.315,0,0,1,.066.2v2.687a.289.289,0,0,1-.058.184.245.245,0,0,1-.2.075h-6.038v.708a.09.09,0,0,0,.035.082.141.141,0,0,0,.1.03h6.3v1.2h-7a1.068,1.068,0,0,1-.811-.253,1.273,1.273,0,0,1-.236-.879Zm-.458-6.93v1.215c0,.1.016.159.044.177a.37.37,0,0,0,.165.026h2.33a.222.222,0,0,0,.165-.048.241.241,0,0,0,.046-.168v-1.2Zm4.321-.765v.984h2.477v-.984Z" transform="translate(-371.999 -113.477)"/>
      <path id="패스_8269" data-name="패스 8269" class="cls-1" d="M435.548,117.284a4.336,4.336,0,0,0,1.046,3.044,3.965,3.965,0,0,0,1.953,1.335c.045.01.066.027.066.049a.083.083,0,0,1-.026.061l-.812.981a4.933,4.933,0,0,1-1.717-.99,3.95,3.95,0,0,1-1.231-1.562c-.019-.053-.049-.082-.091-.082a.113.113,0,0,0-.1.082,4.151,4.151,0,0,1-1.233,1.562,4.8,4.8,0,0,1-1.713.99l-.813-.981a.064.064,0,0,1-.021-.061c0-.022.024-.039.059-.049a4.458,4.458,0,0,0,3-4.379v-1.6a.594.594,0,0,0-.136-.389.5.5,0,0,0-.413-.172h-.235v-.669h2.424Zm5.92,9.113v-12.55h-2.346v.681h.261a.448.448,0,0,1,.394.191.677.677,0,0,1,.13.4V126.4Z" transform="translate(-374.531 -113.477)"/>
    </g>
  </g>
</svg>
