<svg xmlns="http://www.w3.org/2000/svg" width="191.282" height="48.755" viewBox="0 0 191.282 48.755">
  <defs>
    <style>
      .cls-1 {
        fill: #5c6367;
      }

      .cls-2 {
        fill: #0072c0;
      }

      .cls-3 {
        fill: #8abb2a;
      }
    </style>
  </defs>
  <g id="그룹_6825" data-name="그룹 6825" transform="translate(-99.792 -258)">
    <g id="그룹_6819" data-name="그룹 6819" transform="translate(167.095 296.273)">
      <path id="패스_8558" data-name="패스 8558" class="cls-1" d="M322.011,384.637h.785v2.3h0l1.622-2.3h.783l-1.725,2.373,1.923,2.827h-.927l-1.676-2.513h0v2.513h-.785Z" transform="translate(-322.011 -384.556)"/>
      <path id="패스_8559" data-name="패스 8559" class="cls-1" d="M337.522,387.05c0-.916.122-2.215,1.092-2.215s1.1,1.3,1.1,2.215c0,.932-.138,2.237-1.1,2.237S337.522,387.982,337.522,387.05Zm1.092,2.687c1.378,0,1.939-1.11,1.939-2.687,0-1.56-.561-2.681-1.939-2.681s-1.928,1.121-1.928,2.681C336.685,388.626,337.221,389.737,338.613,389.737Z" transform="translate(-332.241 -384.369)"/>
      <path id="패스_8560" data-name="패스 8560" class="cls-1" d="M356.951,385.136h.3c.723,0,1.121.2,1.121.9,0,.823-.628.986-1.121.986h-.3Zm-.791,4.7h.791v-2.3h.3c.758,0,.9.477,1,.916l.282,1.387h.793l-.26-1.354c-.122-.607-.214-1.11-.975-1.246v-.016a1.208,1.208,0,0,0,1.07-1.213c0-1.235-1.1-1.37-1.915-1.37H356.16Z" transform="translate(-345.817 -384.556)"/>
      <path id="패스_8561" data-name="패스 8561" class="cls-1" d="M373.06,384.637h2.608v.5h-1.82v1.755h1.725v.5h-1.725v1.9h1.874v.547H373.06Z" transform="translate(-357.599 -384.556)"/>
      <path id="패스_8562" data-name="패스 8562" class="cls-1" d="M387.644,385.379h.008l.707,2.421h-1.411Zm-1.993,4.458h.691l.453-1.544H388.5l.447,1.544h.815l-1.655-5.2h-.815Z" transform="translate(-366.376 -384.556)"/>
      <path id="패스_8563" data-name="패스 8563" class="cls-1" d="M415.713,389.412a2.608,2.608,0,0,1-1.322.325c-1.516,0-2.067-1.327-2.067-2.784,0-1.256.431-2.583,1.947-2.583a1.452,1.452,0,0,1,1.647,1.484H415c0-.423-.135-1.019-.788-1.019-.91,0-1.043,1.257-1.043,1.988,0,1.175.255,2.367,1.351,2.367a1.817,1.817,0,0,0,1.195-.493Z" transform="translate(-384.972 -384.369)"/>
      <path id="패스_8564" data-name="패스 8564" class="cls-1" d="M430.366,385.136h.292c.745,0,1.129.2,1.129.9,0,.823-.623.986-1.129.986h-.292Zm-.783,4.7h.783v-2.3h.292c.767,0,.907.477,1.021.916l.271,1.387h.807l-.271-1.354c-.119-.607-.217-1.11-.97-1.246v-.016a1.22,1.22,0,0,0,1.07-1.213c0-1.235-1.1-1.37-1.928-1.37h-1.075Z" transform="translate(-397.003 -384.556)"/>
      <path id="패스_8565" data-name="패스 8565" class="cls-1" d="M446.475,384.637h2.61v.5h-1.809v1.755h1.712v.5h-1.712v1.9h1.858v.547h-2.658Z" transform="translate(-408.779 -384.556)"/>
      <path id="패스_8566" data-name="패스 8566" class="cls-1" d="M461.729,385.136h.3c.85,0,1.473.217,1.473,2.047,0,1.4-.244,2.172-1.473,2.172h-.3Zm-.791,4.7h1.094c1.381,0,2.259-.482,2.259-2.654,0-2.058-.888-2.546-2.259-2.546h-1.094Z" transform="translate(-418.861 -384.556)"/>
      <path id="패스_8567" data-name="패스 8567" class="cls-1" d="M478.371,384.637h.8v5.2h-.8Z" transform="translate(-431.014 -384.556)"/>
      <path id="패스_8568" data-name="패스 8568" class="cls-1" d="M487.471,385.136h-1.213v-.5h3.19v.5h-1.2v4.7h-.78Z" transform="translate(-436.513 -384.556)"/>
      <path id="패스_8569" data-name="패스 8569" class="cls-1" d="M512.364,389.239a2.627,2.627,0,0,1-1.538.5c-1.511,0-2.069-1.268-2.069-2.816,0-1.381.423-2.551,1.912-2.551,1.338,0,1.647.78,1.7,1.468h-.91c0-.531-.162-1-.785-1-1,0-1.083,1.257-1.083,2.086,0,1.316.276,2.367,1.333,2.367a.9.9,0,0,0,.666-.26v-1.841H510.6v-.509h1.766Z" transform="translate(-452.197 -384.369)"/>
      <path id="패스_8570" data-name="패스 8570" class="cls-1" d="M530.946,388c0,.953-.157,1.928-1.685,1.928s-1.674-.975-1.674-1.928v-3.359h.8V388c0,.823.049,1.478.878,1.478s.894-.655.894-1.478v-3.359h.791Z" transform="translate(-465.325 -384.556)"/>
      <path id="패스_8571" data-name="패스 8571" class="cls-1" d="M544.911,385.379h.016l.694,2.421h-1.409Zm-2.015,4.458h.7l.46-1.544h1.69l.455,1.544h.823l-1.647-5.2h-.818Z" transform="translate(-475.997 -384.556)"/>
      <path id="패스_8572" data-name="패스 8572" class="cls-1" d="M562.228,385.136h.3c.748,0,1.132.2,1.132.9,0,.823-.628.986-1.132.986h-.3Zm-.786,4.7h.786v-2.3h.3c.775,0,.91.477,1.013.916l.293,1.387h.791l-.271-1.354c-.125-.607-.233-1.11-.953-1.246v-.016a1.208,1.208,0,0,0,1.051-1.213c0-1.235-1.089-1.37-1.923-1.37h-1.089Z" transform="translate(-488.926 -384.556)"/>
      <path id="패스_8573" data-name="패스 8573" class="cls-1" d="M577.787,385.379h.027l.688,2.421h-1.414Zm-1.983,4.458h.7l.439-1.544h1.712l.444,1.544h.818l-1.657-5.2h-.812Z" transform="translate(-498.938 -384.556)"/>
      <path id="패스_8574" data-name="패스 8574" class="cls-1" d="M594.313,384.637h.878l1.966,4.122h.005v-4.122h.655v5.2H597l-2.015-4.23h-.032v4.23h-.639Z" transform="translate(-511.841 -384.556)"/>
      <path id="패스_8575" data-name="패스 8575" class="cls-1" d="M612.281,385.136h-1.192v-.5h3.169v.5h-1.2v4.7h-.78Z" transform="translate(-523.536 -384.556)"/>
      <path id="패스_8576" data-name="패스 8576" class="cls-1" d="M626.809,384.637h2.6v.5h-1.82v1.755h1.717v.5h-1.717v1.9h1.879v.547h-2.66Z" transform="translate(-534.495 -384.556)"/>
      <path id="패스_8577" data-name="패스 8577" class="cls-1" d="M641.492,384.637h2.616v.5h-1.831v1.755H644v.5h-1.722v1.9h1.885v.547h-2.67Z" transform="translate(-544.731 -384.556)"/>
      <path id="패스_8578" data-name="패스 8578" class="cls-1" d="M664.687,384.637H667.2v.5h-1.728v1.755h1.641v.5h-1.641v2.443h-.785Z" transform="translate(-560.901 -384.556)"/>
      <path id="패스_8579" data-name="패스 8579" class="cls-1" d="M682.14,388c0,.953-.141,1.928-1.658,1.928-1.538,0-1.684-.975-1.684-1.928v-3.359h.78V388c0,.823.06,1.478.9,1.478.829,0,.883-.655.883-1.478v-3.359h.774Z" transform="translate(-570.738 -384.556)"/>
      <path id="패스_8580" data-name="패스 8580" class="cls-1" d="M697.219,384.637h.872l1.971,4.122h.016v-4.122h.661v5.2h-.823l-2.031-4.23h-.005v4.23h-.661Z" transform="translate(-583.58 -384.556)"/>
      <path id="패스_8581" data-name="패스 8581" class="cls-1" d="M717.134,385.136h.32c.823,0,1.473.217,1.473,2.047,0,1.4-.244,2.172-1.473,2.172h-.32Zm-.78,4.7h1.1c1.365,0,2.242-.482,2.242-2.654,0-2.058-.877-2.546-2.242-2.546h-1.1Z" transform="translate(-596.919 -384.556)"/>
    </g>
    <g id="그룹_6820" data-name="그룹 6820" transform="translate(207.477 273.442)">
      <rect id="사각형_2325" data-name="사각형 2325" class="cls-1" width="2.026" height="10.99" transform="translate(10.572 0.802)"/>
      <path id="패스_8582" data-name="패스 8582" class="cls-1" d="M557.005,321.926v4.214h-5.059v1.891h12.593V326.14h-5.454v-4.214h4.436v-8.932h-2.037v2.443h-6.5v-2.443h-2.036v8.932Zm-2.02-4.636h6.5v2.762h-6.5Z" transform="translate(-522.687 -311.78)"/>
      <path id="패스_8583" data-name="패스 8583" class="cls-1" d="M474.573,351.314v-1.89h-7.836v-4.2h-2.042v6.094Z" transform="translate(-461.861 -334.247)"/>
      <path id="패스_8584" data-name="패스 8584" class="cls-1" d="M514.676,315.1a2.907,2.907,0,0,0,1.609-2.671c0-2.242-2.075-3.445-5.259-3.445-3.217,0-5.292,1.2-5.292,3.445a2.931,2.931,0,0,0,1.614,2.671v1.96h-2.741v1.874h12.816v-1.874h-2.746Zm-3.651-4.29c1.928,0,3.18.558,3.18,1.619s-1.251,1.642-3.18,1.642c-1.945,0-3.207-.58-3.207-1.642S509.081,310.813,511.026,310.813Zm-1.631,4.956a11.419,11.419,0,0,0,1.631.119,11.673,11.673,0,0,0,1.614-.119v1.294H509.4Z" transform="translate(-489.686 -308.987)"/>
      <path id="패스_8585" data-name="패스 8585" class="cls-1" d="M463.037,321.3l1.733-1.251s-3.434-3.569-3.753-7.718h-1.944c-.3,4.149-3.732,7.718-3.732,7.718l1.728,1.251a15.664,15.664,0,0,0,2.974-4.913A16.047,16.047,0,0,0,463.037,321.3Z" transform="translate(-455.341 -311.319)"/>
      <path id="패스_8586" data-name="패스 8586" class="cls-1" d="M692.8,350.366h10.573v-6.505H692.8Zm8.531-1.89h-6.5v-2.725h6.5Z" transform="translate(-620.882 -333.299)"/>
      <path id="패스_8587" data-name="패스 8587" class="cls-1" d="M512.934,344.559c-3.4,0-5.59,1.235-5.59,3.548s2.193,3.553,5.59,3.553c3.38,0,5.573-1.246,5.573-3.553S516.314,344.559,512.934,344.559Zm0,5.3c-2.14,0-3.5-.628-3.5-1.755,0-1.149,1.365-1.75,3.5-1.75,2.107,0,3.477.6,3.477,1.75C516.411,349.233,515.041,349.862,512.934,349.862Z" transform="translate(-491.594 -333.785)"/>
      <rect id="사각형_2326" data-name="사각형 2326" class="cls-1" width="12.815" height="1.874" transform="translate(43.369 8.076)"/>
      <path id="패스_8588" data-name="패스 8588" class="cls-1" d="M606.813,344.559c-3.38,0-5.579,1.235-5.579,3.548s2.2,3.553,5.579,3.553c3.4,0,5.6-1.246,5.6-3.553S610.215,344.559,606.813,344.559Zm0,5.3c-2.112,0-3.477-.628-3.477-1.755,0-1.149,1.365-1.75,3.477-1.75,2.134,0,3.51.6,3.51,1.75C610.323,349.233,608.947,349.862,606.813,349.862Z" transform="translate(-557.047 -333.785)"/>
      <path id="패스_8589" data-name="패스 8589" class="cls-1" d="M700.588,312.332H690.427v1.88h8.131v1.029a19.054,19.054,0,0,1-.249,2.979H689.1v1.874h12.8V318.22h-1.646a16.8,16.8,0,0,0,.336-2.979Z" transform="translate(-618.302 -311.319)"/>
      <path id="패스_8590" data-name="패스 8590" class="cls-1" d="M600.144,316.985l1.294,1.641a11.8,11.8,0,0,0,4.615-2.914,11.96,11.96,0,0,0,4.637,2.914l1.273-1.641a9.785,9.785,0,0,1-4.588-2.822h3.9v-1.831H600.832v1.831h3.922A9.877,9.877,0,0,1,600.144,316.985Z" transform="translate(-556.288 -311.319)"/>
      <rect id="사각형_2327" data-name="사각형 2327" class="cls-1" width="2.031" height="16.466" transform="translate(67.039 0.802)"/>
      <path id="패스_8591" data-name="패스 8591" class="cls-1" d="M644.122,314.863h5.168c-.3,5.124-5.281,8.959-5.921,9.43l1.566,1.376s6.7-4.42,6.7-12.675h-7.513Z" transform="translate(-586.421 -311.78)"/>
    </g>
    <g id="그룹_6824" data-name="그룹 6824" transform="translate(99.792 258)">
      <g id="그룹_6822" data-name="그룹 6822" transform="translate(37.057 0)">
        <g id="그룹_6821" data-name="그룹 6821">
          <path id="패스_8592" data-name="패스 8592" class="cls-2" d="M249.458,274.244c0-8.965-7-16.244-15.613-16.244h-11.7v32.51h10a9.715,9.715,0,0,0,.076-1.321,10.523,10.523,0,0,0-.815-4.089c-.062-.152-.122-.3-.2-.45h-2.565v-20.8h4.068a10.245,10.245,0,0,1,10.08,10.394,10.516,10.516,0,0,1-3.778,8.119,17.834,17.834,0,0,1,1.332,6.657A16.271,16.271,0,0,0,249.458,274.244Z" transform="translate(-222.145 -258)"/>
        </g>
        <rect id="사각형_2328" data-name="사각형 2328" class="cls-2" width="6.503" height="32.51" transform="translate(29.91)"/>
        <path id="패스_8593" data-name="패스 8593" class="cls-2" d="M375.643,258H350.938v5.85h9.1v26.66h6.513V263.85h9.089Z" transform="translate(-311.93 -258)"/>
      </g>
      <g id="그룹_6823" data-name="그룹 6823" transform="translate(0 0)">
        <path id="패스_8594" data-name="패스 8594" class="cls-3" d="M144,273.177v7.783a11.162,11.162,0,0,1,3.58,8.228,10.73,10.73,0,1,1-11.388-11.006v-6.517a17.565,17.565,0,0,0-15.518,10.709l-8.859-8.455L127.1,258h-8.777l-12.041,12.658V258H99.792v32.51h6.492V277.186l13.059,13.379A17.555,17.555,0,1,0,144,273.177Z" transform="translate(-99.792 -258)"/>
      </g>
    </g>
  </g>
</svg>
