<svg xmlns="http://www.w3.org/2000/svg" width="191.26" height="59.659" viewBox="0 0 191.26 59.659">
  <defs>
    <style>
      .cls-1 {
        fill: #ff6640;
      }

      .cls-2 {
        fill: #91c3e1;
      }

      .cls-3 {
        fill: #565a5c;
      }
    </style>
  </defs>
  <g id="partners_logo20" transform="translate(-105.219 -104.957)">
    <path id="패스_6371" data-name="패스 6371" class="cls-1" d="M133.158,138.387a13.949,13.949,0,0,1-7.736-2.326,6.547,6.547,0,1,1-3.97-3.968l5.537-5.538a14.034,14.034,0,1,0,6.293,11.831h-.125" transform="translate(0 -5.366)"/>
    <path id="패스_6372" data-name="패스 6372" class="cls-2" d="M124.621,118.862a13.976,13.976,0,0,1,7.737,2.327,6.547,6.547,0,1,1,3.971,3.97l-5.538,5.536a14.033,14.033,0,1,0-6.292-11.83l.123,0" transform="translate(-5.369 0)"/>
    <path id="패스_6373" data-name="패스 6373" class="cls-3" d="M181.489,180.034H180.8c-.177,0-.19-.028-.258-.149l-2.452-4.932-1.248,1.61v3.3c0,.163-.025.176-.176.176h-.6c-.149,0-.176-.013-.176-.176V170.83c0-.162.027-.176.176-.176h.6c.151,0,.176.014.176.176v4.243l3.131-4.271c.095-.121.082-.148.258-.148H181c.123,0,.176.069.123.163l-2.4,3.281,2.887,5.774c.054.093,0,.162-.121.162" transform="translate(-19.68 -18.294)"/>
    <path id="패스_6374" data-name="패스 6374" class="cls-3" d="M190.1,175.784c0-.884-.3-1.208-1.613-1.208s-1.613.324-1.613,1.208v3.09c0,.88.3,1.206,1.613,1.206s1.613-.326,1.613-1.206Zm-1.613,5.231c-1.817,0-2.562-.678-2.562-2.142v-3.09c0-1.467.745-2.143,2.562-2.143s2.561.676,2.561,2.143v3.09c0,1.463-.745,2.142-2.561,2.142" transform="translate(-22.473 -19.126)"/>
    <path id="패스_6375" data-name="패스 6375" class="cls-3" d="M200.08,176.591h-.6c-.149,0-.176-.015-.176-.178v-.786c0-.717-.284-1.057-1-1.057-.787,0-1.6.624-1.6,1.981v4.133c0,.163-.027.176-.177.176h-.6c-.149,0-.175-.013-.175-.176v-4.893a3.048,3.048,0,0,0-.488-1.573c-.054-.095,0-.123.039-.149l.639-.338c.055-.042.1-.052.135.014a6.053,6.053,0,0,1,.473,1,1.865,1.865,0,0,1,1.75-1.124,1.809,1.809,0,0,1,1.952,2.005v.786c0,.162-.027.178-.177.178" transform="translate(-25.07 -19.121)"/>
    <path id="패스_6376" data-name="패스 6376" class="cls-3" d="M208.206,175.784c0-.884-.3-1.208-1.613-1.208s-1.613.324-1.613,1.208v.906h3.226Zm.761,1.855h-3.973v1.235c0,.825.218,1.191,1.423,1.191h.761a1.736,1.736,0,0,0,1.123-.366c.042-.026.069-.026.1.015l.475.678c.027.039.04.054-.014.1a2.792,2.792,0,0,1-1.68.527h-.761c-1.6,0-2.385-.678-2.385-2.142v-3.09c0-1.467.746-2.143,2.563-2.143s2.562.676,2.562,2.143v1.693c0,.162-.028.162-.189.162" transform="translate(-27.515 -19.126)"/>
    <path id="패스_6377" data-name="패스 6377" class="cls-3" d="M217.433,177.639h-1.626c-1.1,0-1.588.286-1.588,1.235,0,.907.49,1.191,1.6,1.191a1.793,1.793,0,0,0,1.613-1.976Zm1.5,3.227h-.745a.22.22,0,0,1-.23-.137,4.434,4.434,0,0,1-.379-.84,1.758,1.758,0,0,1-1.763,1.126c-1.884,0-2.548-.786-2.548-2.142-.014-1.383.637-2.183,2.548-2.183h1.626v-.906c0-.829-.285-1.195-1.409-1.195a2.833,2.833,0,0,0-1.655.517c-.081.054-.093.066-.149-.017l-.42-.593c-.054-.082-.081-.11.027-.191a3.965,3.965,0,0,1,2.2-.664c1.368,0,2.357.53,2.357,2.143v3.063a3.764,3.764,0,0,0,.612,1.882c.067.109.053.137-.069.137" transform="translate(-30.089 -19.126)"/>
    <path id="패스_6378" data-name="패스 6378" class="cls-3" d="M230.913,180.152a2.431,2.431,0,0,1-2.71-2.548v-4.555a2.712,2.712,0,0,1,5.407-.027c0,.095-.027.164-.122.164l-.678.039c-.093,0-.135-.027-.148-.135a1.759,1.759,0,0,0-3.51.147v4.217a1.606,1.606,0,0,0,1.761,1.747,1.573,1.573,0,0,0,1.735-1.544c.014-.136.04-.177.149-.177l.691.041c.1,0,.122.067.122.176a2.418,2.418,0,0,1-2.7,2.454" transform="translate(-34.247 -18.263)"/>
    <path id="패스_6379" data-name="패스 6379" class="cls-3" d="M242.315,175.784c0-.884-.3-1.208-1.613-1.208s-1.614.324-1.614,1.208v3.09c0,.88.3,1.206,1.614,1.206s1.613-.326,1.613-1.206Zm-1.613,5.231c-1.815,0-2.561-.678-2.561-2.142v-3.09c0-1.467.745-2.143,2.561-2.143s2.561.676,2.561,2.143v3.09c0,1.463-.745,2.142-2.561,2.142" transform="translate(-37.014 -19.126)"/>
    <path id="패스_6380" data-name="패스 6380" class="cls-3" d="M252.887,180.866H252.3c-.149,0-.177-.013-.177-.176v-4.379c0-1.328-.556-1.722-1.639-1.722a1.77,1.77,0,0,0-1.613,1.979v4.121c0,.163-.027.176-.177.176h-.6c-.149,0-.176-.013-.176-.176v-4.948a3.02,3.02,0,0,0-.475-1.571c-.039-.1.015-.121.055-.151l.639-.336c.053-.043.095-.056.135.01a4.136,4.136,0,0,1,.474,1.14c.447-.88.854-1.193,1.736-1.193,1.558,0,2.575.732,2.575,2.67v4.379c0,.163-.027.176-.177.176" transform="translate(-39.603 -19.126)"/>
    <path id="패스_6381" data-name="패스 6381" class="cls-3" d="M260.346,181.015a2.6,2.6,0,0,1-2.657-1.884c-.027-.082,0-.123.095-.15l.583-.175c.1-.041.149-.069.19.055a1.813,1.813,0,0,0,1.79,1.192c.949,0,1.585-.245,1.585-1.247,0-.9-.732-1.045-1.193-1.112a9.387,9.387,0,0,1-1.8-.395,1.627,1.627,0,0,1-.989-1.72c.014-1.206.854-1.939,2.4-1.939a2.746,2.746,0,0,1,2.318,1.18c.053.066.053.1-.015.149l-.527.46c-.095.082-.136.082-.2-.014a1.839,1.839,0,0,0-1.572-.814c-.882,0-1.451.218-1.451,1.016,0,.963.678.95,2.211,1.152a1.93,1.93,0,0,1,1.761,2.05c0,1.341-.868,2.195-2.521,2.195" transform="translate(-42.455 -19.126)"/>
    <path id="패스_6382" data-name="패스 6382" class="cls-3" d="M272.8,180.9h-.745a.221.221,0,0,1-.231-.137,3.15,3.15,0,0,1-.379-.84,1.746,1.746,0,0,1-1.762,1.126c-1.558,0-2.575-.732-2.575-2.671V173.93c0-.163.026-.177.176-.177h.582c.151,0,.177.014.177.177v4.445c0,1.329.556,1.721,1.641,1.721a1.767,1.767,0,0,0,1.611-1.976V173.93c0-.163.028-.177.178-.177h.6c.148,0,.177.014.177.177v4.948a3.645,3.645,0,0,0,.624,1.882c.068.109.053.137-.069.137" transform="translate(-45.08 -19.157)"/>
    <path id="패스_6383" data-name="패스 6383" class="cls-3" d="M285.4,180.866h-.6c-.149,0-.178-.013-.178-.176v-4.906c0-.854-.392-1.181-1.069-1.181-.706,0-1.533.543-1.533,1.965v4.121c0,.163-.027.176-.175.176h-.6c-.149,0-.179-.013-.179-.176v-4.906c0-.854-.406-1.181-1.084-1.181a1.8,1.8,0,0,0-1.53,1.965v4.121c0,.163-.027.176-.177.176h-.6c-.151,0-.177-.013-.177-.176v-4.88a3.093,3.093,0,0,0-.474-1.639c-.042-.1.014-.121.054-.151l.636-.336c.055-.043.1-.056.136.01a4.853,4.853,0,0,1,.474,1.167c.448-.976.937-1.22,1.653-1.22a1.887,1.887,0,0,1,1.9,1.206,1.776,1.776,0,0,1,1.532-1.206,1.929,1.929,0,0,1,2.155,2.143v4.906c0,.163-.027.176-.176.176" transform="translate(-47.84 -19.126)"/>
    <path id="패스_6384" data-name="패스 6384" class="cls-3" d="M295.809,175.784c0-.884-.3-1.208-1.613-1.208s-1.614.324-1.614,1.208v.906h3.227Zm.76,1.855H292.6v1.235c0,.825.216,1.191,1.422,1.191h.76a1.739,1.739,0,0,0,1.126-.366c.039-.026.067-.026.1.015l.473.678c.027.039.04.054-.014.1a2.786,2.786,0,0,1-1.68.527h-.76c-1.6,0-2.385-.678-2.385-2.142v-3.09c0-1.467.745-2.143,2.563-2.143s2.56.676,2.56,2.143v1.693c0,.162-.027.162-.188.162" transform="translate(-51.91 -19.126)"/>
    <path id="패스_6385" data-name="패스 6385" class="cls-3" d="M305.6,176.591h-.594c-.151,0-.179-.015-.179-.178v-.786c0-.717-.284-1.057-1-1.057-.785,0-1.6.624-1.6,1.981v4.133c0,.163-.027.176-.176.176h-.6c-.148,0-.178-.013-.178-.176v-4.893a3.035,3.035,0,0,0-.488-1.573c-.053-.095,0-.123.04-.149l.638-.338c.053-.042.1-.052.135.014a6.187,6.187,0,0,1,.476,1,1.862,1.862,0,0,1,1.747-1.124,1.809,1.809,0,0,1,1.952,2.005v.786c0,.162-.027.178-.178.178" transform="translate(-54.454 -19.121)"/>
    <path id="패스_6386" data-name="패스 6386" class="cls-3" d="M316.147,172.891a9.071,9.071,0,0,1-.339-1.56,12.833,12.833,0,0,1-.367,1.56l-.839,2.97h2.372Zm2.916,7.145h-.734c-.121,0-.161,0-.2-.137l-.922-3.09h-2.859l-.91,3.09c-.038.137-.081.137-.2.137H312.5c-.066,0-.079,0-.053-.094l2.67-9.192c.027-.1.041-.1.122-.1h1.11c.082,0,.1,0,.123.1l2.645,9.192c.026.094.013.094-.055.094" transform="translate(-57.702 -18.294)"/>
    <path id="패스_6387" data-name="패스 6387" class="cls-3" d="M338.083,175.786c0-.883-.3-1.208-1.613-1.208s-1.613.325-1.613,1.208v.908h3.226Zm.76,1.857h-3.973v1.233c0,.827.217,1.193,1.424,1.193h.761a1.748,1.748,0,0,0,1.124-.366c.04-.027.066-.027.095.014l.475.679c.027.04.04.053-.014.1a2.8,2.8,0,0,1-1.68.527h-.761c-1.6,0-2.385-.679-2.385-2.142v-3.09c0-1.465.743-2.143,2.561-2.143s2.564.678,2.564,2.143v1.693c0,.163-.027.163-.19.163" transform="translate(-63.682 -19.127)"/>
    <path id="패스_6388" data-name="패스 6388" class="cls-3" d="M348.75,180.869h-.582c-.149,0-.177-.014-.177-.176v-4.38c0-1.328-.556-1.721-1.639-1.721a1.768,1.768,0,0,0-1.612,1.978v4.123c0,.162-.028.176-.177.176h-.6c-.149,0-.177-.014-.177-.176v-4.95a3.039,3.039,0,0,0-.474-1.572c-.041-.1.014-.121.053-.149l.638-.338c.054-.041.1-.053.135.012a4.142,4.142,0,0,1,.476,1.14c.447-.882.855-1.193,1.735-1.193,1.559,0,2.576.732,2.576,2.67v4.38c0,.162-.027.176-.177.176" transform="translate(-66.297 -19.127)"/>
    <path id="패스_6389" data-name="패스 6389" class="cls-3" d="M356.421,181.018c-1.817,0-2.564-.679-2.564-2.142v-3.09c0-1.465.747-2.143,2.564-2.143s2.562.678,2.562,2.143c0,.108-.027.175-.123.175l-.678.042c-.094,0-.148-.027-.148-.136v-.082c0-.883-.3-1.208-1.614-1.208s-1.615.325-1.615,1.208v3.09c0,.882.3,1.208,1.615,1.208s1.614-.326,1.6-1.208c0-.175.039-.218.146-.218l.692.043c.1,0,.123.068.123.175,0,1.463-.747,2.142-2.562,2.142" transform="translate(-69.237 -19.127)"/>
    <path id="패스_6390" data-name="패스 6390" class="cls-3" d="M365.478,179.747c-.161.585-.516,2.116-.771,2.7a2.451,2.451,0,0,1-2.482,1.329,3.948,3.948,0,0,1-2.2-.665c-.11-.081-.081-.106-.028-.188l.421-.6c.056-.082.069-.069.15-.014a2.829,2.829,0,0,0,1.653.514c.746,0,1.234-.067,1.6-.745.135-.338.258-.8.638-2.155h-.692c-.148,0-.148,0-.19-.136l-1.761-5.871c-.055-.162-.028-.162.136-.162h.677c.121,0,.135,0,.175.149l1.71,5.749,1.545-5.749c.04-.149.053-.149.176-.149h.677c.165,0,.179,0,.136.162Z" transform="translate(-70.935 -19.158)"/>
    <path id="패스_6391" data-name="패스 6391" class="cls-3" d="M327.663,178.425a1.437,1.437,0,0,1-1.587,1.639c-1.087,0-1.64-.393-1.64-1.707v-2.062c0-1.328.6-1.735,1.64-1.735a1.793,1.793,0,0,1,1.587,2Zm1.4-4.407-.637-.338c-.055-.041-.1-.053-.136.012a4.862,4.862,0,0,0-.474,1.059,1.851,1.851,0,0,0-1.735-1.124c-1.56,0-2.576.731-2.576,2.668v2.062a2.319,2.319,0,0,0,2.576,2.657,2.1,2.1,0,0,0,1.6-.623v.668c0,1.395-.554,1.73-1.681,1.73a2.827,2.827,0,0,1-1.653-.514c-.079-.054-.1-.067-.149.014l-.42.6c-.054.082-.08.107.027.188a3.948,3.948,0,0,0,2.2.665c1.642,0,2.629-.718,2.629-2.679v-5.265a3.1,3.1,0,0,1,.486-1.627c.041-.1-.012-.121-.053-.149" transform="translate(-60.784 -19.122)"/>
    <path id="패스_6392" data-name="패스 6392" class="cls-3" d="M177.5,129.171v1.88h-4.724c-.559,0-.83.236-.83.722a.752.752,0,0,0,.8.8h11.269a.741.741,0,0,0,.83-.828c0-.346-.1-.7-.83-.7h-4.671v-1.88c0-.431-.4-.723-.991-.723-.537,0-.856.271-.856.723" transform="translate(-18.581 -6.541)"/>
    <path id="패스_6393" data-name="패스 6393" class="cls-3" d="M176.989,150.833c-.3,0-.7.072-.7.7,0,.281.131.615.75.615h.967v4.186c0,1.38.784,1.663,1.959,1.663h11.348c.437,0,.885-.1.885-.831,0-.467-.3-.7-.912-.7H179.913V151.5a.586.586,0,0,0-.617-.67Z" transform="translate(-19.792 -12.775)"/>
    <path id="패스_6394" data-name="패스 6394" class="cls-3" d="M176.116,140.6a2.651,2.651,0,0,1,2.893-2.7,2.762,2.762,0,0,1,2.972,2.724,2.791,2.791,0,0,1-3.024,2.725,2.736,2.736,0,0,1-2.841-2.751m-1.821,0a4.4,4.4,0,0,0,4.686,4.279c2.751,0,4.823-1.827,4.823-4.251,0-2.481-1.993-4.281-4.742-4.281s-4.766,1.789-4.766,4.253" transform="translate(-19.235 -8.741)"/>
    <path id="패스_6395" data-name="패스 6395" class="cls-3" d="M191.518,128.187c-.337,0-.723.08-.723.7,0,.473.387.644.75.644h1.45v15.294c0,.551.333.856.938.856.63,0,.963-.3.963-.882v-6.337h3.169a.786.786,0,0,0,.857-.8.755.755,0,0,0-.857-.778H194.9v-8.1a.534.534,0,0,0-.535-.589Z" transform="translate(-23.83 -6.469)"/>
    <path id="패스_6396" data-name="패스 6396" class="cls-3" d="M206.153,142.675c-.545,0-.776.216-.776.723,0,.53.255.776.8.776h8.641v3.662H208.7c-.544,0-.83.268-.83.778a.76.76,0,0,0,.8.749h12.586v5.93a.841.841,0,0,0,.937.911.862.862,0,0,0,.964-.911v-6.143c0-.787-.214-1.313-1.259-1.313h-5.178v-3.662h8.694c.716,0,.777-.4.777-.8,0-.475-.265-.7-.832-.7Z" transform="translate(-27.891 -10.503)"/>
    <path id="패스_6397" data-name="패스 6397" class="cls-3" d="M248.629,144.7c-.375,0-.535.206-.535.7,0,.434.183.642.561.642h.941v4.484h-9.015c-.538,0-.778.23-.778.751a.706.706,0,0,0,.8.8h19.235c.718,0,.777-.429.777-.83,0-.487-.271-.723-.83-.723H251.5v-5.235a.589.589,0,0,0-.59-.587Z" transform="translate(-37.477 -11.066)"/>
    <path id="패스_6398" data-name="패스 6398" class="cls-3" d="M251.2,130.046h-2.574c-.412,0-.832.083-.832.7,0,.638.448.722.885.722h1.074c0,.1-.027.806-.027.806-.392,3.809-4.9,6.529-7.819,7.168a.564.564,0,0,0-.426.311.662.662,0,0,0-.061.291,1.079,1.079,0,0,0,.128.494.867.867,0,0,0,1.133.4c3.24-.875,6.829-3.714,8.064-6.357,1.31,2.653,5.27,5.442,8.058,6.3.714.219.986.133,1.269-.4a.851.851,0,0,0,0-.72.766.766,0,0,0-.492-.4c-3.649-.967-7.479-3.751-7.742-7.2V130.8a.682.682,0,0,0-.639-.75h0Z" transform="translate(-37.927 -6.986)"/>
    <path id="패스_6399" data-name="패스 6399" class="cls-3" d="M209.664,130.2c-.544,0-.83.268-.83.776a.761.761,0,0,0,.8.75h12.586v5.391a.842.842,0,0,0,.937.912.863.863,0,0,0,.964-.912v-5.6c0-.787-.214-1.313-1.259-1.313Z" transform="translate(-28.853 -7.028)"/>
    <path id="패스_6400" data-name="패스 6400" class="cls-3" d="M283.708,144.2H276.89v-5.235h6.818Zm-9.874-12.751c-.347,0-.563.257-.563.67a.59.59,0,0,0,.615.616h1.1v11.248c0,1.187.613,1.742,1.932,1.742h6.894c1.242,0,1.823-.639,1.823-2.009V132.154c0-.487-.21-.7-.7-.7h-2.307a.6.6,0,0,0-.615.67.617.617,0,0,0,.67.616h1.02v4.7H276.89v-5.212c0-.516-.234-.777-.7-.777Z" transform="translate(-46.796 -7.378)"/>
    <path id="패스_6401" data-name="패스 6401" class="cls-3" d="M295,128.187c-.481,0-.724.227-.724.67,0,.6.573.642.749.642h1.477V149.81a.887.887,0,0,0,.965.939.908.908,0,0,0,.964-.966V128.751a.537.537,0,0,0-.535-.564Z" transform="translate(-52.647 -6.469)"/>
    <path id="패스_6402" data-name="패스 6402" class="cls-3" d="M362.677,128.187c-.337,0-.723.08-.723.7,0,.473.386.642.75.642h1.451v14.989h-5.119c-.53,0-.778.222-.778.7s.262.723.778.723h6.083a.847.847,0,0,0,.964-.886V128.776a.552.552,0,0,0-.564-.589Z" transform="translate(-70.463 -6.469)"/>
    <path id="패스_6403" data-name="패스 6403" class="cls-3" d="M348.746,134.342c0-1.691,1.479-2.447,2.947-2.447,1.417,0,2.945.766,2.945,2.447,0,1.715-1.527,2.5-2.945,2.5s-2.947-.783-2.947-2.5m1.981-4.992v1.088c-2.4.51-3.783,1.93-3.783,3.9,0,2.727,2.461,3.97,4.749,3.97s4.746-1.243,4.746-3.97c0-1.993-1.389-3.412-3.81-3.9V129.35c0-.391-.39-.642-.991-.642-.792,0-.911.4-.911.642" transform="translate(-67.312 -6.614)"/>
    <path id="패스_6404" data-name="패스 6404" class="cls-3" d="M348.023,152.577c-.3,0-.695.072-.695.7,0,.279.13.614.749.614h.968v2.927c0,1.38.782,1.663,1.958,1.663h12.012c.437,0,.884-.1.884-.831,0-.467-.3-.7-.912-.7h-12.04v-3.7a.588.588,0,0,0-.617-.671Z" transform="translate(-67.419 -13.261)"/>
    <path id="패스_6405" data-name="패스 6405" class="cls-3" d="M357.347,144.437H343.769c-.543,0-.775.216-.775.722,0,.53.255.776.8.776h5.84v2.22a.841.841,0,0,0,.936.912.864.864,0,0,0,.965-.912v-2.22H357.4c.717,0,.776-.4.776-.8,0-.475-.263-.7-.83-.7" transform="translate(-66.212 -10.994)"/>
    <path id="패스_6406" data-name="패스 6406" class="cls-3" d="M320.917,145.708h0l0,0v0m-11.6-14.25c-.185,0-.75,0-.75.641,0,.562.268.858.777.858h4.292V134.6a13,13,0,0,1-5.342,10.28,1.056,1.056,0,0,0-.473.707.813.813,0,0,0-.009.118.747.747,0,0,0,.177.487.907.907,0,0,0,1.275.116,16.015,16.015,0,0,0,5.309-7.4,14.081,14.081,0,0,0,4.984,6.78c.63.439.985.445,1.354.023a.906.906,0,0,0,.216-.613c0-.037,0-.071,0-.107a.827.827,0,0,0-.381-.623,11.182,11.182,0,0,1-5.153-9.877v-1.531h4.264c.682,0,.776-.387.776-.8s-.13-.7-.776-.7Z" transform="translate(-56.417 -7.38)"/>
    <path id="패스_6407" data-name="패스 6407" class="cls-3" d="M328.244,128.187c-.31,0-.722.069-.722.67,0,.473.387.642.749.642h1.478v20.3a.871.871,0,0,0,.937.937.905.905,0,0,0,.963-.964V138.831h3.383a.766.766,0,0,0,.829-.8.733.733,0,0,0-.829-.748h-3.383v-8.532a.542.542,0,0,0-.561-.561Z" transform="translate(-61.904 -6.469)"/>
  </g>
</svg>
