<svg xmlns="http://www.w3.org/2000/svg" width="230.505" height="31.861" viewBox="0 0 230.505 31.861">
  <defs>
    <style>
      .cls-1 {
        fill: #003f98;
      }
    </style>
  </defs>
  <g id="그룹_7008" data-name="그룹 7008" transform="translate(-231.575 -391.183)">
    <g id="그룹_7001" data-name="그룹 7001" transform="translate(231.575 391.183)">
      <path id="패스_9637" data-name="패스 9637" class="cls-1" d="M327.486,398.769c-1.307-7.491-23.822-9.832-50.293-5.224a142.746,142.746,0,0,0-28.967,8,3.8,3.8,0,0,1,2.637.843,2.349,2.349,0,0,1,.632,1.728v.74H248.9v-.654a.822.822,0,0,0-.908-.885.8.8,0,0,0-.889.655,1.389,1.389,0,0,0,.014.517c.277,1.138,4.13,1.837,4.553,3.937a5.142,5.142,0,0,1,.009,1.671c-.241,1.692-1.725,2.344-3.615,2.344-2.636,0-3.709-1.251-3.709-2.979v-.807h2.784l.006,1.016a.873.873,0,0,0,.975.885.854.854,0,0,0,.96-.659,1.347,1.347,0,0,0-.022-.73c-.516-1.293-4.115-1.895-4.559-3.985a3.543,3.543,0,0,1-.023-1.372,2.539,2.539,0,0,1,.23-.723c-8.67,4.052-13.741,8.514-13.073,12.366,1.31,7.494,23.822,9.832,50.288,5.224a140.453,140.453,0,0,0,30.051-8.453c-.113.007-.224.013-.34.013-1.814,0-3.436-.678-3.6-2.527a5.688,5.688,0,0,1-.04-.668l0-4.265c0-.178.022-.5.04-.669.218-1.79,1.63-2.527,3.592-2.527,1.515,0,3.377.434,3.582,2.532a6.154,6.154,0,0,1,.024.632h0v.4h-2.621v-.6a3.076,3.076,0,0,0-.033-.381,1.025,1.025,0,0,0-1.951,0,2.679,2.679,0,0,0-.036.473v4.628a2.083,2.083,0,0,0,.02.382,1.061,1.061,0,0,0,2,0,1.99,1.99,0,0,0,.022-.382v-1.434h-1.031V406.3h3.647v2.746a6.508,6.508,0,0,1-.033.668,2.67,2.67,0,0,1-.434,1.247c8.44-4.009,13.356-8.4,12.7-12.192M258.85,412.046l-1.324-9.021h-.049l-1.36,9.021h-2.8l1.879-10.188h4.572l1.873,10.188Zm13.465,0-.065-8.847h-.045l-1.645,8.847h-2.627L266.3,403.2h-.047l-.062,8.847h-2.6l.228-10.188H268l1.217,7.573h.062l1.22-7.573h4.184l.218,10.188Zm12.254-1.972c-.284,1.972-2.215,2.315-3.58,2.315-2.27,0-3.676-.968-3.676-2.94l.009-.807h2.745v1a.867.867,0,0,0,.978.878.853.853,0,0,0,.949-.651,1.335,1.335,0,0,0-.02-.723c-.508-1.266-4.079-1.883-4.513-3.94a3.535,3.535,0,0,1-.023-1.365c.3-1.86,2.091-2.251,3.529-2.251a3.836,3.836,0,0,1,2.788.845,2.332,2.332,0,0,1,.629,1.709v.74h-2.57v-.652a.816.816,0,0,0-.9-.875.8.8,0,0,0-.888.651,1.246,1.246,0,0,0,.016.51c.276,1.128,4.092,1.82,4.515,3.893a5.241,5.241,0,0,1,.009,1.659m9.522-.924c0,.188-.017.572-.027.671-.155,1.676-1.36,2.53-3.564,2.53s-3.411-.853-3.565-2.53c-.006-.1-.023-.483-.023-.671v-7.3h2.629v7.525a1.781,1.781,0,0,0,.024.381.877.877,0,0,0,.935.712.893.893,0,0,0,.948-.712,2.6,2.6,0,0,0,.019-.381v-7.525h2.624Zm11.326,2.794h-3.654l-2.458-8.07h-.04l.134,8.07h-2.55V401.857h3.812l2.274,7.754h.05l-.132-7.754h2.564Z" transform="translate(-231.575 -391.183)"/>
    </g>
    <path id="패스_9638" data-name="패스 9638" class="cls-1" d="M322.457,404.935H315.4v4.3h7.056Zm-9.488-2.057h11.918V411.3H312.969Z" transform="translate(35.522 5.104)"/>
    <g id="그룹_7002" data-name="그룹 7002" transform="translate(345.372 397.207)">
      <path id="패스_9639" data-name="패스 9639" class="cls-1" d="M317.345,395.377s-.329,5.572,4.171,7.88l-1.291,1.8s-3.305-2.182-4.088-4.566c-.748,2.384-4.052,4.566-4.052,4.566l-1.287-1.8c4.506-2.308,4.171-7.88,4.171-7.88Z" transform="translate(-310.798 -395.377)"/>
    </g>
    <path id="패스_9640" data-name="패스 9640" class="cls-1" d="M319.538,395.114v10.307h2.48V401.58h2.162v-2.1h-2.162v-4.366Z" transform="translate(38.389 1.716)"/>
    <g id="그룹_7003" data-name="그룹 7003" transform="translate(362.38 397.207)">
      <path id="패스_9641" data-name="패스 9641" class="cls-1" d="M335.06,407.215c0-1.564-1.9-2.823-4.187-2.823s-4.156,1.258-4.156,2.823c0,1.543,1.859,2.8,4.156,2.8s4.187-1.258,4.187-2.8m-4.187,4.933c-3.7,0-6.682-2.222-6.682-4.933,0-2.731,2.985-4.927,6.682-4.927s6.714,2.2,6.714,4.927c0,2.711-3.028,4.933-6.714,4.933" transform="translate(-321.96 -392.361)"/>
      <path id="패스_9642" data-name="패스 9642" class="cls-1" d="M327.747,400.485c-.751,2.386-3.769,4.388-3.769,4.388l-1.34-1.8c4.273-2.122,3.939-7.695,3.939-7.695h2.341s-.333,5.573,3.9,7.695l-1.3,1.8s-3.018-2-3.772-4.388" transform="translate(-322.638 -395.377)"/>
    </g>
    <path id="패스_9643" data-name="패스 9643" class="cls-1" d="M334.9,395.114v10.307h-2.518v-4.73h-3.219v-2.1h3.219v-3.476Z" transform="translate(42.591 1.716)"/>
    <path id="패스_9644" data-name="패스 9644" class="cls-1" d="M337.662,411.238h12.083v-2.132H340.2v-6.083h-2.542Z" transform="translate(46.298 5.167)"/>
    <rect id="사각형_2353" data-name="사각형 2353" class="cls-1" width="2.463" height="11.977" transform="translate(393.623 396.85)"/>
    <path id="패스_9645" data-name="패스 9645" class="cls-1" d="M342.506,400.718h-1.641V398.56h1.641v-3.432h2.507v12.078h-2.507Z" transform="translate(47.696 1.722)"/>
    <g id="그룹_7004" data-name="그룹 7004" transform="translate(379.887 396.83)">
      <path id="패스_9646" data-name="패스 9646" class="cls-1" d="M339.3,402.408a2.518,2.518,0,1,1,2.041-2.468,2.285,2.285,0,0,1-2.041,2.468m.059-7.294a4.827,4.827,0,1,0,4.515,4.819,4.688,4.688,0,0,0-4.515-4.819" transform="translate(-334.826 -395.114)"/>
    </g>
    <rect id="사각형_2354" data-name="사각형 2354" class="cls-1" width="2.553" height="19.577" transform="translate(411.288 396.83)"/>
    <g id="그룹_7005" data-name="그룹 7005" transform="translate(398.475 398.043)">
      <path id="패스_9647" data-name="패스 9647" class="cls-1" d="M353.418,405.938a14.36,14.36,0,0,0,3.792,4.7l1.856-1.467c-4.489-3.877-4.226-8.037-4.224-11.185v-2.025h-2.847l0,2.025c0,3.149.307,7.224-4.222,11.185l1.862,1.467a14.279,14.279,0,0,0,3.789-4.7" transform="translate(-347.767 -395.959)"/>
    </g>
    <rect id="사각형_2355" data-name="사각형 2355" class="cls-1" width="9.104" height="2.113" transform="translate(399.58 397.621)"/>
    <rect id="사각형_2356" data-name="사각형 2356" class="cls-1" width="2.549" height="19.617" transform="translate(426.558 396.83)"/>
    <path id="패스_9648" data-name="패스 9648" class="cls-1" d="M362.672,407.654V395.517h-2.549v14.209l8.8-.26v-1.923Z" transform="translate(56.101 1.891)"/>
    <g id="그룹_7006" data-name="그룹 7006" transform="translate(449.855 407.297)">
      <path id="패스_9649" data-name="패스 9649" class="cls-1" d="M389.609,409.237c-1.882,0-3.406-1.029-3.406-2.284s1.524-2.277,3.406-2.277,3.4,1.02,3.4,2.277-1.517,2.284-3.4,2.284m.04-6.836c-3.386,0-6.113,2.038-6.113,4.556s2.728,4.556,6.113,4.556,6.112-2.041,6.112-4.556-2.738-4.556-6.112-4.556" transform="translate(-383.536 -402.401)"/>
    </g>
    <rect id="사각형_2357" data-name="사각형 2357" class="cls-1" width="2.535" height="9.976" transform="translate(459.406 396.83)"/>
    <path id="패스_9650" data-name="패스 9650" class="cls-1" d="M382.7,398.79v5.392l8.794-.217v-2l-6.28.149v-1.254h5.538V395.5h-8.07v2.057h5.528v1.236Z" transform="translate(65.945 1.883)"/>
    <path id="패스_9651" data-name="패스 9651" class="cls-1" d="M379.964,404.33h-2.236v-2.067h2.236v-7.149h2.542v19.568h-2.542Z" transform="translate(63.784 1.716)"/>
    <g id="그룹_7007" data-name="그룹 7007" transform="translate(431.418 397.403)">
      <path id="패스_9652" data-name="패스 9652" class="cls-1" d="M375.526,409.647c-1.273,0-1.952-2.68-1.952-5.978s.68-5.978,1.952-5.978,1.954,2.672,1.954,5.978-.675,5.978-1.954,5.978m0-14.134c-3.041,0-4.825,3.651-4.825,8.156s1.784,8.16,4.825,8.16,4.821-3.657,4.821-8.16-1.78-8.156-4.821-8.156" transform="translate(-370.701 -395.513)"/>
    </g>
  </g>
</svg>
