<svg xmlns="http://www.w3.org/2000/svg" width="211.909" height="54.274" viewBox="0 0 211.909 54.274">
  <defs>
    <style>
      .cls-1 {
        fill: #f16012;
      }

      .cls-1, .cls-2, .cls-3, .cls-4 {
        fill-rule: evenodd;
      }

      .cls-2 {
        fill: #009148;
      }

      .cls-3 {
        fill: #003b82;
      }

      .cls-4, .cls-5 {
        fill: #313133;
      }
    </style>
  </defs>
  <g id="그룹_6974" data-name="그룹 6974" transform="translate(-74.295 -154.021)">
    <path id="패스_9446" data-name="패스 9446" class="cls-1" d="M117.929,159.4a5.378,5.378,0,1,1-5.384-5.382A5.379,5.379,0,0,1,117.929,159.4Z" transform="translate(-17.398)"/>
    <path id="패스_9447" data-name="패스 9447" class="cls-2" d="M92.517,213.13c-2.174-3.6-8.3-6.593-18.222-5.728v-7.064c14.49-.662,18.222,4.671,18.222,10.209Z" transform="translate(0 -24.481)"/>
    <path id="패스_9448" data-name="패스 9448" class="cls-2" d="M92.517,191.6v-3.183c0-7.239-7.746-10.235-18.222-9.8v7.023C84.228,185.047,90.95,188.279,92.517,191.6Z" transform="translate(0 -12.993)"/>
    <path id="패스_9449" data-name="패스 9449" class="cls-3" d="M97.782,188.412c0-7.239,7.751-10.235,18.23-9.8v28.649a11.925,11.925,0,0,1-6,10.393c-3.691,2.342-8.963,3.631-14.861,3.631-5.88,0-11.157-1.289-14.855-3.631a11.925,11.925,0,0,1-6-10.393v-8.126c9.436-1.273,18.222,3.064,18.222,9.844v1.7a2.63,2.63,0,0,0,5.26-.02Z" transform="translate(0 -12.993)"/>
    <path id="패스_9450" data-name="패스 9450" class="cls-4" d="M297.478,187.537a28.172,28.172,0,0,1-.357,5.265h3.215s.7-1.4.7-5.7v-8.38a.744.744,0,0,0-.728-.758H284.59v1.95h12.888Zm5.72,10.029v-1.95h-7.781v-8.282h-4.07a.186.186,0,0,0-.07.355c.331.209.581.478.581,1.6v6.332h-2.009v-8.282h-4.071c-.213,0-.224.264-.069.355.331.209.578.478.578,1.6v6.332h-3.854v1.95Zm35.46,1.98a3.735,3.735,0,1,1,3.489-3.722A3.617,3.617,0,0,1,338.659,199.546Zm0-9.388c-3.9,0-7.066,2.533-7.066,5.665s3.167,5.656,7.066,5.656,7.072-2.531,7.072-5.656S342.561,190.159,338.659,190.159Zm-5.731-4.913a9.943,9.943,0,0,0,6.9,4.245v-1.95a7.273,7.273,0,0,1-5.083-6.719l4.321,0v-1.951H334.7v-2.511H330.63c-.21,0-.224.255-.067.349.333.212.581.486.581,1.59v.572H326.8v1.951h4.331a7.3,7.3,0,0,1-5.094,6.721v1.95A9.911,9.911,0,0,0,332.928,185.246Zm8.724-8.155c-.2,0-.218.253-.066.36.335.2.586.475.586,1.589v3.381h-3.929l0,1.961h3.926v5.905h3.558v-13.2ZM194.718,185.9a9.786,9.786,0,0,0,6.929,5.019v-2.073s-5.051-1.155-5.14-8.928h4.341v-1.95H188.594v1.95h4.345c-.09,7.773-5.134,8.928-5.134,8.928v2.073A9.753,9.753,0,0,0,194.718,185.9Zm8.93-8.447c.331.2.588.475.588,1.589v3.724H200.3l.005,1.952h3.935v10.443h3.549V177.09h-4.068C203.509,177.09,203.493,177.344,203.648,177.45Zm-8.334,21.074v-5.783h-4.075c-.2,0-.224.252-.07.36.339.2.587.475.587,1.578v3.909a2.062,2.062,0,0,0,2.068,2.062h14.105V198.7H195.5A.174.174,0,0,1,195.314,198.524Zm54.162-9.648v-1.955h-8.6a.18.18,0,0,1-.178-.183V177.7l.008-.006h-4.08c-.205,0-.22.26-.066.363.32.2.557.459.577,1.441v7.307a2.074,2.074,0,0,0,2.069,2.071Zm2.042,9.648-.173.172h-8.138l-.178-.171V193.29h8.49Zm2.836-7.184h-15.4c-.211,0-.226.259-.065.349.328.209.577.484.577,1.6v5.3a2.061,2.061,0,0,0,2.067,2.062h11.476a2.062,2.062,0,0,0,2.068-2.062v-6.5A.739.739,0,0,0,254.354,191.341Zm.725-14.25H251c-.2,0-.221.253-.067.36.333.2.581.475.581,1.589v10.326h3.561V184.2h3.649v-1.948h-3.649Zm-38.735,16.015v-6.354H223.9v-8.027a.738.738,0,0,0-.723-.758H212.8v1.95h7.553V184.8h-8.071c-.2,0-.217.261-.065.363.33.2.573.462.582,1.521v6.486a2.067,2.067,0,0,0,2.062,2.072h10.269V193.29h-8.6A.189.189,0,0,1,216.344,193.106Zm14.383-16.015h-4.072c-.2,0-.219.253-.065.36.334.2.582.475.582,1.589V201.1h3.555v-14.73h3.649v-1.944h-3.649Zm30.973,1.228c.333.206.581.484.581,1.594v8.159a2.071,2.071,0,0,0,2.063,2.067h14.4v-1.95H266.021l-.184-.178v-8.094h12.909v-1.95H261.769C261.568,177.966,261.551,178.225,261.7,178.318Zm10.593,13.3h-4.071c-.2,0-.224.265-.069.353.328.212.586.489.586,1.593v2.057h-8.607v1.95h20.773v-1.95h-8.613Zm42.345-13.9a3.633,3.633,0,1,1-3.175,3.6A3.417,3.417,0,0,1,314.639,177.719Zm0,9.165c3.729,0,6.742-2.488,6.742-5.564s-3.013-5.553-6.742-5.553-6.741,2.491-6.741,5.553S310.918,186.884,314.639,186.884Zm-2.015,3.027h4.03v3.556h-4.03Zm-8.365,0h4.812v3.556h-2.927v1.952h13.44V201.1h3.564v-6.88a.742.742,0,0,0-.727-.755h-2.208v-3.556h4.819v-1.952H304.259Z" transform="translate(-60.068 -11.508)"/>
    <g id="그룹_6973" data-name="그룹 6973" transform="translate(127.792 196.025)">
      <path id="패스_9451" data-name="패스 9451" class="cls-5" d="M188.82,244.331V244.1h3.225v.228h-.272a.764.764,0,0,0-.672.3,2.067,2.067,0,0,0-.133.949v4.091a5.166,5.166,0,0,1-.186,1.529,2.394,2.394,0,0,1-.641,1.021,1.532,1.532,0,0,1-1.1.434,1.136,1.136,0,0,1-.821-.286.884.884,0,0,1-.3-.657.661.661,0,0,1,.139-.456.571.571,0,0,1,.427-.191.457.457,0,0,1,.319.129,2.121,2.121,0,0,1,.358.691c.085.222.194.333.327.333.1,0,.193-.068.281-.2a1.426,1.426,0,0,0,.131-.721v-5.712a3.064,3.064,0,0,0-.072-.838.535.535,0,0,0-.234-.266.943.943,0,0,0-.505-.148Z" transform="translate(-187.921 -243.695)"/>
      <path id="패스_9452" data-name="패스 9452" class="cls-5" d="M198.918,251.8a3.111,3.111,0,0,0,.55,1.972,1.619,1.619,0,0,0,1.3.716,1.321,1.321,0,0,0,.869-.306,2.285,2.285,0,0,0,.619-1.045l.172.123a3.087,3.087,0,0,1-.677,1.54,1.736,1.736,0,0,1-1.4.694,1.972,1.972,0,0,1-1.568-.792,3.249,3.249,0,0,1-.653-2.132,3.456,3.456,0,0,1,.669-2.26,2.087,2.087,0,0,1,1.679-.812,1.786,1.786,0,0,1,1.4.626,2.448,2.448,0,0,1,.549,1.676Zm0-.359h2.354a2.67,2.67,0,0,0-.117-.765,1.211,1.211,0,0,0-.414-.542.965.965,0,0,0-.574-.2,1.093,1.093,0,0,0-.824.4A1.821,1.821,0,0,0,198.918,251.442Z" transform="translate(-193.323 -246.551)"/>
      <path id="패스_9453" data-name="패스 9453" class="cls-5" d="M211.634,249.513a2.178,2.178,0,0,1,1.854.974,3.213,3.213,0,0,1,.594,1.912,3.928,3.928,0,0,1-.327,1.535,2.589,2.589,0,0,1-.9,1.171,2.2,2.2,0,0,1-1.279.4,2.092,2.092,0,0,1-1.826-1.018,3.391,3.391,0,0,1-.572-1.925,3.721,3.721,0,0,1,.347-1.545,2.56,2.56,0,0,1,.914-1.136A2.172,2.172,0,0,1,211.634,249.513Zm-.172.4a1.067,1.067,0,0,0-.591.194,1.338,1.338,0,0,0-.48.681,3.615,3.615,0,0,0-.183,1.251,4.768,4.768,0,0,0,.441,2.129,1.322,1.322,0,0,0,1.162.895,1.05,1.05,0,0,0,.888-.493,3.05,3.05,0,0,0,.35-1.7,4.186,4.186,0,0,0-.583-2.368A1.171,1.171,0,0,0,211.462,249.914Z" transform="translate(-199.168 -246.558)"/>
      <path id="패스_9454" data-name="패스 9454" class="cls-5" d="M223.33,243.237v7.494a2.28,2.28,0,0,0,.069.7.524.524,0,0,0,.214.261,1.112,1.112,0,0,0,.539.089v.223h-2.492v-.223a.986.986,0,0,0,.477-.08.52.52,0,0,0,.2-.265,2.3,2.3,0,0,0,.072-.71V245.6a9.81,9.81,0,0,0-.039-1.175.539.539,0,0,0-.125-.3.311.311,0,0,0-.219-.08.933.933,0,0,0-.367.1l-.095-.216,1.516-.692Z" transform="translate(-205.724 -243.237)"/>
      <path id="패스_9455" data-name="패스 9455" class="cls-5" d="M230.448,243.237v7.494a2.279,2.279,0,0,0,.069.7.524.524,0,0,0,.214.261,1.112,1.112,0,0,0,.539.089v.223h-2.493v-.223a.985.985,0,0,0,.477-.08.517.517,0,0,0,.2-.265,2.281,2.281,0,0,0,.073-.71V245.6a9.864,9.864,0,0,0-.039-1.175.538.538,0,0,0-.125-.3.31.31,0,0,0-.219-.08.933.933,0,0,0-.367.1l-.094-.216,1.515-.692Z" transform="translate(-209.492 -243.237)"/>
      <path id="패스_9456" data-name="패스 9456" class="cls-5" d="M238.774,254.515a8.324,8.324,0,0,1-.982.777,1.373,1.373,0,0,1-.638.155,1.09,1.09,0,0,1-.869-.4,1.571,1.571,0,0,1-.341-1.055,1.459,1.459,0,0,1,.167-.716,2.311,2.311,0,0,1,.791-.789,11.752,11.752,0,0,1,1.873-.9v-.223a2.007,2.007,0,0,0-.241-1.16.834.834,0,0,0-.7-.315.74.74,0,0,0-.555.211.657.657,0,0,0-.21.481l.01.357a.663.663,0,0,1-.13.439.427.427,0,0,1-.342.153.414.414,0,0,1-.336-.16.677.677,0,0,1-.13-.438,1.3,1.3,0,0,1,.488-.974,1.964,1.964,0,0,1,1.371-.444,2.169,2.169,0,0,1,1.11.253,1.123,1.123,0,0,1,.483.6,3.728,3.728,0,0,1,.1,1.085v1.918c0,.54.009.869.027.991a.442.442,0,0,0,.092.244.2.2,0,0,0,.147.061.283.283,0,0,0,.155-.043,3.664,3.664,0,0,0,.45-.45v.345q-.622.925-1.188.925a.517.517,0,0,1-.433-.209A1.232,1.232,0,0,1,238.774,254.515Zm0-.4v-2.153a10.4,10.4,0,0,0-1.082.525,1.91,1.91,0,0,0-.627.566,1.178,1.178,0,0,0-.189.648,1.128,1.128,0,0,0,.239.737.7.7,0,0,0,.549.293A1.934,1.934,0,0,0,238.774,254.114Z" transform="translate(-213.334 -246.558)"/>
      <path id="패스_9457" data-name="패스 9457" class="cls-5" d="M248.123,250.71q.893-1.2,1.7-1.2a1.134,1.134,0,0,1,.717.232,1.547,1.547,0,0,1,.477.761,3.905,3.905,0,0,1,.122,1.136v2.411a2.231,2.231,0,0,0,.077.728.5.5,0,0,0,.2.242,1.03,1.03,0,0,0,.5.085v.223H249.4v-.223h.106a.78.78,0,0,0,.5-.12.64.64,0,0,0,.2-.355,4.065,4.065,0,0,0,.022-.58V251.74a2.587,2.587,0,0,0-.179-1.12.631.631,0,0,0-.609-.349,1.784,1.784,0,0,0-1.315.8v2.978a2.339,2.339,0,0,0,.062.71.552.552,0,0,0,.214.263,1.205,1.205,0,0,0,.552.082v.223h-2.515v-.223h.112a.568.568,0,0,0,.524-.218,1.753,1.753,0,0,0,.136-.836v-2.1a10.029,10.029,0,0,0-.042-1.241.547.547,0,0,0-.127-.3.325.325,0,0,0-.231-.08.981.981,0,0,0-.372.092l-.083-.223,1.532-.69h.239Z" transform="translate(-218.842 -246.558)"/>
      <path id="패스_9458" data-name="패스 9458" class="cls-5" d="M262.387,254.515a8.321,8.321,0,0,1-.982.777,1.374,1.374,0,0,1-.638.155,1.09,1.09,0,0,1-.869-.4,1.571,1.571,0,0,1-.341-1.055,1.459,1.459,0,0,1,.166-.716,2.311,2.311,0,0,1,.791-.789,11.752,11.752,0,0,1,1.873-.9v-.223a2.007,2.007,0,0,0-.241-1.16.834.834,0,0,0-.7-.315.74.74,0,0,0-.555.211.658.658,0,0,0-.211.481l.011.357a.663.663,0,0,1-.13.439.427.427,0,0,1-.342.153.414.414,0,0,1-.336-.16.675.675,0,0,1-.13-.438,1.3,1.3,0,0,1,.488-.974,1.964,1.964,0,0,1,1.371-.444,2.17,2.17,0,0,1,1.11.253,1.123,1.123,0,0,1,.483.6,3.728,3.728,0,0,1,.1,1.085v1.918c0,.54.009.869.027.991a.442.442,0,0,0,.092.244.2.2,0,0,0,.147.061.284.284,0,0,0,.155-.043,3.662,3.662,0,0,0,.45-.45v.345q-.622.925-1.188.925a.517.517,0,0,1-.433-.209A1.232,1.232,0,0,1,262.387,254.515Zm0-.4v-2.153a10.471,10.471,0,0,0-1.082.525,1.92,1.92,0,0,0-.627.566,1.182,1.182,0,0,0-.188.648,1.127,1.127,0,0,0,.239.737.694.694,0,0,0,.549.293A1.934,1.934,0,0,0,262.387,254.114Z" transform="translate(-225.829 -246.558)"/>
      <path id="패스_9459" data-name="패스 9459" class="cls-5" d="M271.795,250.715q.554-.616.655-.709a1.989,1.989,0,0,1,.538-.364,1.382,1.382,0,0,1,.572-.129,1.19,1.19,0,0,1,.822.308,1.573,1.573,0,0,1,.46.894,3.9,3.9,0,0,1,.966-.97,1.578,1.578,0,0,1,.811-.232,1.176,1.176,0,0,1,.718.232,1.526,1.526,0,0,1,.5.754,3.765,3.765,0,0,1,.122,1.124v2.429a2.454,2.454,0,0,0,.072.728.505.505,0,0,0,.206.232.939.939,0,0,0,.488.094v.223h-2.509v-.223h.106a.816.816,0,0,0,.51-.141.557.557,0,0,0,.183-.314,4.439,4.439,0,0,0,.022-.6v-2.429a2.251,2.251,0,0,0-.15-.974.732.732,0,0,0-.694-.4,1.21,1.21,0,0,0-.591.164,3.254,3.254,0,0,0-.719.607l-.01.068.01.266v2.694a2.545,2.545,0,0,0,.059.723.5.5,0,0,0,.219.237,1.142,1.142,0,0,0,.549.094v.223h-2.57v-.223a1.075,1.075,0,0,0,.58-.11.574.574,0,0,0,.219-.333,3.593,3.593,0,0,0,.028-.611v-2.429a2.006,2.006,0,0,0-.183-.993.761.761,0,0,0-.683-.4,1.128,1.128,0,0,0-.594.18,2.319,2.319,0,0,0-.71.61v3.028a2.3,2.3,0,0,0,.069.723.512.512,0,0,0,.205.25,1.207,1.207,0,0,0,.552.082v.223h-2.514v-.223a1.025,1.025,0,0,0,.488-.082.521.521,0,0,0,.21-.266,2.243,2.243,0,0,0,.072-.707v-2.159a8.659,8.659,0,0,0-.05-1.2.511.511,0,0,0-.122-.282.323.323,0,0,0-.227-.076.977.977,0,0,0-.372.092l-.083-.223,1.532-.69h.239Z" transform="translate(-231.369 -246.558)"/>
      <path id="패스_9460" data-name="패스 9460" class="cls-5" d="M293.385,251.373a2.627,2.627,0,0,1-.728.62,1.6,1.6,0,0,1-.766.189,1.831,1.831,0,0,1-1.455-.774,3.08,3.08,0,0,1-.622-1.99,3.86,3.86,0,0,1,.689-2.223,2.072,2.072,0,0,1,1.771-1.009,1.446,1.446,0,0,1,1.11.476v-1.042a9.425,9.425,0,0,0-.042-1.19.541.541,0,0,0-.131-.3.32.32,0,0,0-.222-.08,1.053,1.053,0,0,0-.383.1l-.072-.216,1.515-.692h.251v6.532a9.609,9.609,0,0,0,.041,1.212.563.563,0,0,0,.133.306.3.3,0,0,0,.214.086,1.123,1.123,0,0,0,.4-.1l.061.216-1.509.7h-.255Zm0-.432V248.03a2.149,2.149,0,0,0-.2-.765,1.243,1.243,0,0,0-.442-.521.987.987,0,0,0-.535-.176,1.1,1.1,0,0,0-.871.488,2.98,2.98,0,0,0-.505,1.875,3.178,3.178,0,0,0,.489,1.909,1.366,1.366,0,0,0,1.088.664A1.314,1.314,0,0,0,293.385,250.941Z" transform="translate(-241.842 -243.237)"/>
      <path id="패스_9461" data-name="패스 9461" class="cls-5" d="M304.771,249.513a2.18,2.18,0,0,1,1.855.974,3.215,3.215,0,0,1,.593,1.912,3.928,3.928,0,0,1-.328,1.535,2.583,2.583,0,0,1-.9,1.171,2.206,2.206,0,0,1-1.28.4,2.1,2.1,0,0,1-1.827-1.018,3.394,3.394,0,0,1-.572-1.925,3.716,3.716,0,0,1,.348-1.545,2.562,2.562,0,0,1,.913-1.136A2.172,2.172,0,0,1,304.771,249.513Zm-.172.4a1.064,1.064,0,0,0-.59.194,1.336,1.336,0,0,0-.48.681,3.615,3.615,0,0,0-.184,1.251,4.755,4.755,0,0,0,.441,2.129,1.323,1.323,0,0,0,1.163.895,1.051,1.051,0,0,0,.888-.493,3.053,3.053,0,0,0,.35-1.7,4.182,4.182,0,0,0-.583-2.368A1.172,1.172,0,0,0,304.6,249.914Z" transform="translate(-248.455 -246.558)"/>
      <path id="패스_9462" data-name="패스 9462" class="cls-5" d="M325.037,243.7a3.267,3.267,0,0,1,2.539,1.237,4.543,4.543,0,0,1,1.074,3.087,4.683,4.683,0,0,1-1.081,3.164,3.378,3.378,0,0,1-5.233.032,4.7,4.7,0,0,1-1.057-3.178,4.475,4.475,0,0,1,1.221-3.251A3.414,3.414,0,0,1,325.037,243.7Zm-.107.451a1.913,1.913,0,0,0-1.621.833,5.094,5.094,0,0,0-.76,3.034,5.379,5.379,0,0,0,.788,3.152,1.885,1.885,0,0,0,1.6.838,2.108,2.108,0,0,0,1.751-.919,4.855,4.855,0,0,0,.69-2.9,5.49,5.49,0,0,0-.759-3.2A1.975,1.975,0,0,0,324.93,244.146Z" transform="translate(-258.492 -243.479)"/>
      <path id="패스_9463" data-name="패스 9463" class="cls-5" d="M341.114,246.818v3.713a1.986,1.986,0,0,0,.154,1,.652.652,0,0,0,.55.27h.46v.223h-3.036V251.8h.228a.71.71,0,0,0,.405-.122.631.631,0,0,0,.251-.333,3.05,3.05,0,0,0,.07-.814v-3.713h-.988v-.444h.988V246a3.692,3.692,0,0,1,.245-1.43,2.175,2.175,0,0,1,.746-.948,1.893,1.893,0,0,1,1.129-.359,1.612,1.612,0,0,1,1.072.418.815.815,0,0,1,.322.624.521.521,0,0,1-.144.348.416.416,0,0,1-.312.164.471.471,0,0,1-.27-.1,1.564,1.564,0,0,1-.346-.437,1.49,1.49,0,0,0-.378-.453.661.661,0,0,0-.384-.117.644.644,0,0,0-.432.151.865.865,0,0,0-.256.469,9.789,9.789,0,0,0-.077,1.638v.407h1.31v.444Z" transform="translate(-267.98 -243.252)"/>
      <path id="패스_9464" data-name="패스 9464" class="cls-5" d="M349.128,246.818v3.713a1.987,1.987,0,0,0,.154,1,.653.653,0,0,0,.55.27h.46v.223h-3.036V251.8h.228a.709.709,0,0,0,.405-.122.634.634,0,0,0,.252-.333,3.1,3.1,0,0,0,.069-.814v-3.713h-.987v-.444h.987V246a3.692,3.692,0,0,1,.245-1.43,2.179,2.179,0,0,1,.746-.948,1.893,1.893,0,0,1,1.129-.359,1.612,1.612,0,0,1,1.072.418.814.814,0,0,1,.323.624.521.521,0,0,1-.144.348.417.417,0,0,1-.312.164.469.469,0,0,1-.269-.1,1.564,1.564,0,0,1-.346-.437,1.5,1.5,0,0,0-.377-.453.664.664,0,0,0-.384-.117.643.643,0,0,0-.432.151.866.866,0,0,0-.256.469,9.735,9.735,0,0,0-.077,1.638v.407h1.31v.444Z" transform="translate(-272.222 -243.252)"/>
      <path id="패스_9465" data-name="패스 9465" class="cls-5" d="M357.229,246.192v4.539a2.292,2.292,0,0,0,.069.707.53.53,0,0,0,.205.263,1.013,1.013,0,0,0,.5.085v.223h-2.471v-.223a1.052,1.052,0,0,0,.5-.08.528.528,0,0,0,.2-.265,2.177,2.177,0,0,0,.075-.71v-2.178a8.571,8.571,0,0,0-.049-1.19.513.513,0,0,0-.123-.274.32.32,0,0,0-.227-.076,1.03,1.03,0,0,0-.378.092l-.077-.223,1.532-.69Zm-.461-2.955a.515.515,0,0,1,.4.183.634.634,0,0,1,.164.441.65.65,0,0,1-.164.444.51.51,0,0,1-.4.185.517.517,0,0,1-.4-.185.646.646,0,0,1-.167-.444.632.632,0,0,1,.164-.441A.521.521,0,0,1,356.767,243.237Z" transform="translate(-276.576 -243.237)"/>
      <path id="패스_9466" data-name="패스 9466" class="cls-5" d="M366.975,253.183a3.175,3.175,0,0,1-.805,1.717,1.838,1.838,0,0,1-1.326.6,1.888,1.888,0,0,1-1.51-.808,3.4,3.4,0,0,1-.645-2.183,3.208,3.208,0,0,1,.713-2.165,2.179,2.179,0,0,1,1.713-.833,1.754,1.754,0,0,1,1.232.441,1.256,1.256,0,0,1,.484.915.533.533,0,0,1-.136.38.5.5,0,0,1-.381.145.565.565,0,0,1-.493-.234,1.04,1.04,0,0,1-.126-.494.849.849,0,0,0-.225-.555.746.746,0,0,0-.539-.185,1.057,1.057,0,0,0-.893.457,2.609,2.609,0,0,0-.451,1.6,3.5,3.5,0,0,0,.448,1.786,1.351,1.351,0,0,0,1.206.774,1.378,1.378,0,0,0,.976-.413,2.815,2.815,0,0,0,.595-1.03Z" transform="translate(-280.406 -246.558)"/>
      <path id="패스_9467" data-name="패스 9467" class="cls-5" d="M374.677,251.8a3.123,3.123,0,0,0,.549,1.972,1.622,1.622,0,0,0,1.305.716,1.321,1.321,0,0,0,.869-.306,2.285,2.285,0,0,0,.618-1.045l.172.123a3.074,3.074,0,0,1-.677,1.54,1.733,1.733,0,0,1-1.4.694,1.972,1.972,0,0,1-1.569-.792,3.254,3.254,0,0,1-.651-2.132,3.458,3.458,0,0,1,.668-2.26,2.088,2.088,0,0,1,1.679-.812,1.785,1.785,0,0,1,1.4.626,2.446,2.446,0,0,1,.549,1.676Zm0-.359h2.354a2.617,2.617,0,0,0-.117-.765,1.2,1.2,0,0,0-.413-.542.962.962,0,0,0-.574-.2,1.091,1.091,0,0,0-.823.4A1.819,1.819,0,0,0,374.677,251.442Z" transform="translate(-286.333 -246.551)"/>
      <path id="패스_9468" data-name="패스 9468" class="cls-5" d="M395.174,243.7a3.268,3.268,0,0,1,2.539,1.237,4.545,4.545,0,0,1,1.074,3.087,4.679,4.679,0,0,1-1.082,3.164,3.377,3.377,0,0,1-5.232.032,4.694,4.694,0,0,1-1.057-3.178,4.473,4.473,0,0,1,1.221-3.251A3.416,3.416,0,0,1,395.174,243.7Zm-.106.451a1.914,1.914,0,0,0-1.621.833,5.091,5.091,0,0,0-.759,3.034,5.379,5.379,0,0,0,.788,3.152,1.883,1.883,0,0,0,1.6.838,2.109,2.109,0,0,0,1.751-.919,4.854,4.854,0,0,0,.691-2.9,5.49,5.49,0,0,0-.759-3.2A1.975,1.975,0,0,0,395.067,244.146Z" transform="translate(-295.607 -243.479)"/>
      <path id="패스_9469" data-name="패스 9469" class="cls-5" d="M411.25,246.818v3.713a1.979,1.979,0,0,0,.155,1,.652.652,0,0,0,.55.27h.46v.223h-3.036V251.8h.228a.708.708,0,0,0,.405-.122.629.629,0,0,0,.252-.333,3.076,3.076,0,0,0,.069-.814v-3.713h-.987v-.444h.987V246a3.7,3.7,0,0,1,.245-1.43,2.18,2.18,0,0,1,.747-.948,1.892,1.892,0,0,1,1.129-.359,1.614,1.614,0,0,1,1.072.418.815.815,0,0,1,.322.624.519.519,0,0,1-.144.348.416.416,0,0,1-.312.164.47.47,0,0,1-.269-.1,1.564,1.564,0,0,1-.346-.437,1.49,1.49,0,0,0-.377-.453.662.662,0,0,0-.384-.117.643.643,0,0,0-.432.151.869.869,0,0,0-.256.469,9.731,9.731,0,0,0-.077,1.638v.407h1.31v.444Z" transform="translate(-305.096 -243.252)"/>
      <path id="패스_9470" data-name="패스 9470" class="cls-5" d="M425.952,244.559v3.307h1.654a1.244,1.244,0,0,0,.86-.216,1.483,1.483,0,0,0,.323-1h.2v2.911h-.2a3.477,3.477,0,0,0-.156-.782.738.738,0,0,0-.327-.34,1.531,1.531,0,0,0-.7-.122h-1.654v2.756a2.866,2.866,0,0,0,.044.676.372.372,0,0,0,.156.191.847.847,0,0,0,.421.072h1.277a3.146,3.146,0,0,0,.927-.1,1.378,1.378,0,0,0,.555-.389,4.837,4.837,0,0,0,.705-1.153h.223l-.651,2.1h-5.8v-.227h.266a.981.981,0,0,0,.5-.143.5.5,0,0,0,.241-.3,3.186,3.186,0,0,0,.064-.808v-5.434a1.975,1.975,0,0,0-.144-.981.813.813,0,0,0-.666-.247h-.266V244.1h5.8l.084,1.831h-.218a3.15,3.15,0,0,0-.257-.907.915.915,0,0,0-.42-.376,2.26,2.26,0,0,0-.783-.093Z" transform="translate(-312.75 -243.695)"/>
      <path id="패스_9471" data-name="패스 9471" class="cls-5" d="M442.842,251.373a2.636,2.636,0,0,1-.726.62,1.606,1.606,0,0,1-.766.189,1.828,1.828,0,0,1-1.454-.774,3.08,3.08,0,0,1-.622-1.99,3.854,3.854,0,0,1,.689-2.223,2.071,2.071,0,0,1,1.77-1.009,1.444,1.444,0,0,1,1.11.476v-1.042a9.507,9.507,0,0,0-.041-1.19.538.538,0,0,0-.131-.3.319.319,0,0,0-.221-.08,1.05,1.05,0,0,0-.384.1l-.072-.216,1.515-.692h.251v6.532a9.6,9.6,0,0,0,.041,1.212.562.562,0,0,0,.133.306.3.3,0,0,0,.213.086,1.129,1.129,0,0,0,.4-.1l.061.216-1.51.7h-.256Zm0-.432V248.03a2.1,2.1,0,0,0-.2-.765,1.236,1.236,0,0,0-.442-.521.986.986,0,0,0-.536-.176,1.1,1.1,0,0,0-.871.488,2.989,2.989,0,0,0-.5,1.875,3.185,3.185,0,0,0,.489,1.909,1.366,1.366,0,0,0,1.088.664A1.312,1.312,0,0,0,442.842,250.941Z" transform="translate(-320.933 -243.237)"/>
      <path id="패스_9472" data-name="패스 9472" class="cls-5" d="M455.78,249.867v3.423a9.454,9.454,0,0,0,.041,1.2.566.566,0,0,0,.133.306.3.3,0,0,0,.215.086.919.919,0,0,0,.388-.1l.077.216-1.52.7h-.25v-1.2a4.844,4.844,0,0,1-1,.993,1.407,1.407,0,0,1-.728.2,1.094,1.094,0,0,1-.741-.275,1.443,1.443,0,0,1-.435-.706,4.7,4.7,0,0,1-.122-1.222v-2.522a1.4,1.4,0,0,0-.077-.556.555.555,0,0,0-.231-.237,1.231,1.231,0,0,0-.553-.077v-.228h1.783v3.781a1.519,1.519,0,0,0,.248,1.036.809.809,0,0,0,.6.246,1.139,1.139,0,0,0,.541-.166,2.993,2.993,0,0,0,.719-.635v-3.2a.977.977,0,0,0-.159-.651.948.948,0,0,0-.657-.182v-.228Z" transform="translate(-327.127 -246.745)"/>
      <path id="패스_9473" data-name="패스 9473" class="cls-5" d="M468.551,253.183a3.176,3.176,0,0,1-.8,1.717,1.837,1.837,0,0,1-1.326.6,1.887,1.887,0,0,1-1.51-.808,3.409,3.409,0,0,1-.644-2.183,3.208,3.208,0,0,1,.713-2.165,2.178,2.178,0,0,1,1.713-.833,1.752,1.752,0,0,1,1.231.441,1.254,1.254,0,0,1,.484.915.533.533,0,0,1-.136.38.5.5,0,0,1-.381.145.566.566,0,0,1-.493-.234,1.035,1.035,0,0,1-.125-.494.851.851,0,0,0-.225-.555.746.746,0,0,0-.539-.185,1.058,1.058,0,0,0-.893.457,2.609,2.609,0,0,0-.45,1.6,3.5,3.5,0,0,0,.448,1.786,1.35,1.35,0,0,0,1.206.774,1.381,1.381,0,0,0,.977-.413,2.834,2.834,0,0,0,.594-1.03Z" transform="translate(-334.159 -246.558)"/>
      <path id="패스_9474" data-name="패스 9474" class="cls-5" d="M478.26,254.515a8.23,8.23,0,0,1-.983.777,1.371,1.371,0,0,1-.638.155,1.091,1.091,0,0,1-.869-.4,1.569,1.569,0,0,1-.341-1.055,1.464,1.464,0,0,1,.166-.716,2.322,2.322,0,0,1,.79-.789,11.761,11.761,0,0,1,1.874-.9v-.223a2.007,2.007,0,0,0-.241-1.16.833.833,0,0,0-.7-.315.735.735,0,0,0-.554.211.655.655,0,0,0-.212.481l.012.357a.666.666,0,0,1-.13.439.428.428,0,0,1-.341.153.413.413,0,0,1-.336-.16.672.672,0,0,1-.13-.438,1.3,1.3,0,0,1,.488-.974,1.967,1.967,0,0,1,1.371-.444,2.169,2.169,0,0,1,1.11.253,1.115,1.115,0,0,1,.483.6,3.727,3.727,0,0,1,.1,1.085v1.918a9.792,9.792,0,0,0,.028.991.442.442,0,0,0,.092.244.2.2,0,0,0,.146.061.283.283,0,0,0,.156-.043,3.548,3.548,0,0,0,.449-.45v.345q-.622.925-1.187.925a.518.518,0,0,1-.433-.209A1.232,1.232,0,0,1,478.26,254.515Zm0-.4v-2.153a10.4,10.4,0,0,0-1.082.525,1.927,1.927,0,0,0-.628.566,1.182,1.182,0,0,0-.188.648,1.123,1.123,0,0,0,.239.737.7.7,0,0,0,.549.293A1.931,1.931,0,0,0,478.26,254.114Z" transform="translate(-340.066 -246.558)"/>
      <path id="패스_9475" data-name="패스 9475" class="cls-5" d="M487.652,245.924v1.856h1.188v.432h-1.188v3.664a1.33,1.33,0,0,0,.143.74.429.429,0,0,0,.362.192.594.594,0,0,0,.356-.127.8.8,0,0,0,.267-.373h.216a1.944,1.944,0,0,1-.549.909,1.114,1.114,0,0,1-.733.3.945.945,0,0,1-.86-.606,2.586,2.586,0,0,1-.117-.9v-3.8h-.805v-.2a2.113,2.113,0,0,0,.625-.46,3.636,3.636,0,0,0,.569-.767,7.389,7.389,0,0,0,.355-.857Z" transform="translate(-345.624 -244.659)"/>
      <path id="패스_9476" data-name="패스 9476" class="cls-5" d="M495.3,246.192v4.539a2.312,2.312,0,0,0,.069.707.531.531,0,0,0,.206.263,1.01,1.01,0,0,0,.5.085v.223H493.6v-.223a1.055,1.055,0,0,0,.5-.08.531.531,0,0,0,.2-.265,2.176,2.176,0,0,0,.075-.71v-2.178a8.56,8.56,0,0,0-.049-1.19.509.509,0,0,0-.122-.274.323.323,0,0,0-.228-.076,1.028,1.028,0,0,0-.377.092l-.077-.223,1.531-.69Zm-.461-2.955a.515.515,0,0,1,.4.183.634.634,0,0,1,.164.441.65.65,0,0,1-.164.444.51.51,0,0,1-.4.185.517.517,0,0,1-.4-.185.646.646,0,0,1-.167-.444.634.634,0,0,1,.164-.441A.522.522,0,0,1,494.838,243.237Z" transform="translate(-349.641 -243.237)"/>
      <path id="패스_9477" data-name="패스 9477" class="cls-5" d="M503.207,249.513a2.179,2.179,0,0,1,1.855.974,3.212,3.212,0,0,1,.593,1.912,3.929,3.929,0,0,1-.328,1.535,2.577,2.577,0,0,1-.9,1.171,2.206,2.206,0,0,1-1.279.4,2.1,2.1,0,0,1-1.827-1.018,3.391,3.391,0,0,1-.572-1.925,3.715,3.715,0,0,1,.348-1.545,2.559,2.559,0,0,1,.913-1.136A2.171,2.171,0,0,1,503.207,249.513Zm-.172.4a1.062,1.062,0,0,0-.59.194,1.338,1.338,0,0,0-.48.681,3.59,3.59,0,0,0-.184,1.251,4.762,4.762,0,0,0,.441,2.129,1.324,1.324,0,0,0,1.164.895,1.051,1.051,0,0,0,.887-.493,3.054,3.054,0,0,0,.35-1.7,4.179,4.179,0,0,0-.584-2.368A1.17,1.17,0,0,0,503.034,249.914Z" transform="translate(-353.464 -246.558)"/>
      <path id="패스_9478" data-name="패스 9478" class="cls-5" d="M514.331,250.71q.894-1.2,1.7-1.2a1.137,1.137,0,0,1,.717.232,1.56,1.56,0,0,1,.477.761,3.914,3.914,0,0,1,.121,1.136v2.411a2.236,2.236,0,0,0,.079.728.491.491,0,0,0,.2.242,1.026,1.026,0,0,0,.5.085v.223h-2.514v-.223h.1a.782.782,0,0,0,.5-.12.639.639,0,0,0,.2-.355,3.745,3.745,0,0,0,.023-.58V251.74a2.578,2.578,0,0,0-.18-1.12.631.631,0,0,0-.608-.349,1.782,1.782,0,0,0-1.315.8v2.978a2.391,2.391,0,0,0,.06.71.558.558,0,0,0,.214.263,1.21,1.21,0,0,0,.552.082v.223h-2.515v-.223h.112a.567.567,0,0,0,.523-.218,1.751,1.751,0,0,0,.136-.836v-2.1a10.074,10.074,0,0,0-.041-1.241.557.557,0,0,0-.128-.3.322.322,0,0,0-.23-.08.993.993,0,0,0-.373.092l-.083-.223,1.533-.69h.239Z" transform="translate(-359.715 -246.558)"/>
    </g>
  </g>
</svg>
