<svg xmlns="http://www.w3.org/2000/svg" width="200.26" height="45.087" viewBox="0 0 200.26 45.087">
  <defs>
    <style>
      .cls-1 {
        fill: #c8001a;
      }

      .cls-2 {
        fill: #00275e;
      }

      .cls-3 {
        fill: #3a3939;
      }
    </style>
  </defs>
  <g id="그룹_6703" data-name="그룹 6703" transform="translate(-196.039 -928.489)">
    <path id="패스_7868" data-name="패스 7868" class="cls-1" d="M250.715,932.589v10.188h3.938V928.489H196.039v14.288h3.934V932.589Z"/>
    <path id="패스_7869" data-name="패스 7869" class="cls-2" d="M199.973,969.474V959.292h-3.934v14.284h58.614V959.292h-3.938v10.182Z"/>
    <rect id="사각형_2296" data-name="사각형 2296" class="cls-2" width="3.4" height="13.3" transform="translate(231.463 944.372)"/>
    <path id="패스_7870" data-name="패스 7870" class="cls-2" d="M214.74,944.372h-4.625l-6.662,6.189v-6.189h-3.481v13.3h3.481v-6.2l6.662,6.2H214.8l-6.977-6.647,6.977-6.652Z"/>
    <path id="패스_7871" data-name="패스 7871" class="cls-2" d="M243.545,947.81h7.17v-3.438h-7a6.519,6.519,0,0,0-4.738,1.822,7.253,7.253,0,0,0,0,9.646,6.509,6.509,0,0,0,4.738,1.824h7v-3.433h-7.17a3.218,3.218,0,0,1,0-6.421"/>
    <path id="패스_7872" data-name="패스 7872" class="cls-2" d="M223.082,944.372h-7.471V957.7h7.471a6.664,6.664,0,1,0,0-13.325m.174,9.884h-4.24v-6.442h4.24a3.23,3.23,0,0,1,0,6.442"/>
    <path id="패스_7873" data-name="패스 7873" class="cls-3" d="M369.152,949.811l-.271-.406a5.715,5.715,0,0,0-1.371-1.351,7.933,7.933,0,0,0-2.4-1.145,10.382,10.382,0,0,0-2.937-.409,10.249,10.249,0,0,0-2.965.417,7.924,7.924,0,0,0-2.375,1.178,5.354,5.354,0,0,0-1.615,1.763,4.64,4.64,0,0,0,0,4.46,5.369,5.369,0,0,0,1.615,1.765,7.941,7.941,0,0,0,2.375,1.174,10.259,10.259,0,0,0,2.965.416,10.423,10.423,0,0,0,2.937-.407,8.036,8.036,0,0,0,2.4-1.142,5.793,5.793,0,0,0,1.369-1.354l.271-.408.274-.545a4.537,4.537,0,0,0,.334-1.724,4.588,4.588,0,0,0-.334-1.74Zm-2.531,2.256h0v.043h0a3,3,0,0,1-.363,1.445,4.086,4.086,0,0,1-.959,1.186,4.269,4.269,0,0,1-1.4.794,5.165,5.165,0,0,1-1.72.285,5.23,5.23,0,0,1-1.754-.285,4.233,4.233,0,0,1-1.41-.794,3.832,3.832,0,0,1-.938-1.186,3.211,3.211,0,0,1-.349-1.445h0v-.043h0a3.2,3.2,0,0,1,.349-1.445,3.866,3.866,0,0,1,.938-1.189,4.325,4.325,0,0,1,1.41-.8,5.306,5.306,0,0,1,1.754-.284,5.241,5.241,0,0,1,1.72.284,4.363,4.363,0,0,1,1.4.8,4.125,4.125,0,0,1,.959,1.189,2.989,2.989,0,0,1,.363,1.445Z"/>
    <rect id="사각형_2297" data-name="사각형 2297" class="cls-3" width="2.99" height="22.212" transform="translate(279.68 934.317)"/>
    <path id="패스_7874" data-name="패스 7874" class="cls-3" d="M369.613,941.5a15.709,15.709,0,0,0,.17-2.32V934.81H354.392v1.978h12.4v2.365a17.132,17.132,0,0,1-.155,2.328,10.484,10.484,0,0,1-.468,2.022h-4.194v-3.789h-2.943V943.5h-7.219v1.976H372.6V943.5h-3.416a15.353,15.353,0,0,0,.428-2"/>
    <path id="패스_7875" data-name="패스 7875" class="cls-3" d="M302.863,941.277a15.114,15.114,0,0,0,.172-2.319V934.81H287.644v1.978h12.4v2.148a16.467,16.467,0,0,1-.159,2.32,10.1,10.1,0,0,1-.466,2.027H285.058v1.972h20.793v-1.972h-3.414a15.341,15.341,0,0,0,.426-2.006"/>
    <path id="패스_7876" data-name="패스 7876" class="cls-3" d="M319.287,947.9h6.493V934.81h-2.988v4.678h-9.966V934.81h-2.991V945a2.822,2.822,0,0,0,.825,2.068,2.673,2.673,0,0,0,1.938.828h3.673v4.016h-9.315v1.972H328.6v-1.972h-9.311Zm-5.15-1.978a1.481,1.481,0,0,1-.918-.3,1.013,1.013,0,0,1-.393-.832V941.46h9.966v4.461Z"/>
    <path id="패스_7877" data-name="패스 7877" class="cls-3" d="M333.463,953.614a3.1,3.1,0,0,0,.728,2.076,2.249,2.249,0,0,0,1.754.839h12.621v-7.737h-15.1Zm3-2.846h9.119v3.788H337.8a1.745,1.745,0,0,1-.94-.247.8.8,0,0,1-.4-.719Z"/>
    <path id="패스_7878" data-name="패스 7878" class="cls-3" d="M287.913,953.614a3.064,3.064,0,0,0,.721,2.076,2.238,2.238,0,0,0,1.75.839h12.621v-8.56H287.913Zm2.985-3.666h9.115v4.608h-7.777a1.773,1.773,0,0,1-.943-.247.8.8,0,0,1-.395-.719Z"/>
    <path id="패스_7879" data-name="패스 7879" class="cls-3" d="M383.5,944.863a10.225,10.225,0,0,1-1.293-5.309V934.81h-3.135v4.7a11.936,11.936,0,0,1-.383,2.842,10.13,10.13,0,0,1-1.011,2.494,7.755,7.755,0,0,1-1.553,1.951,6.415,6.415,0,0,1-2.037,1.256v2.078a6.994,6.994,0,0,0,2.068-.62,10.478,10.478,0,0,0,1.975-1.183,8.528,8.528,0,0,0,1.566-1.531,4.888,4.888,0,0,0,.889-1.681,4.35,4.35,0,0,0,.863,1.658,9.33,9.33,0,0,0,1.612,1.554,9.979,9.979,0,0,0,2.009,1.183,7.248,7.248,0,0,0,2.118.62v-2.078a7.014,7.014,0,0,1-3.688-3.185"/>
    <path id="패스_7880" data-name="패스 7880" class="cls-3" d="M392.879,941.306v-6.988H389.9v22.212h2.982V943.284h3.42v-1.978Z"/>
    <path id="패스_7881" data-name="패스 7881" class="cls-3" d="M274.66,937.9h-2.875a5.942,5.942,0,0,0-.451-.718,5.407,5.407,0,0,0-1.779-1.565,5.011,5.011,0,0,0-4.588,0,5.3,5.3,0,0,0-1.78,1.565,7.146,7.146,0,0,0-1.138,2.412,10.788,10.788,0,0,0-.373,3.123,11.072,11.072,0,0,0,.353,3.06,7.449,7.449,0,0,0,1.129,2.421,4.961,4.961,0,0,0,1.768,1.607,5.1,5.1,0,0,0,4.668,0,5.017,5.017,0,0,0,1.767-1.607,5.355,5.355,0,0,0,.412-.664h2.887v9h2.992V934.317H274.66Zm-5.553,8.99c-.494,1-1.107,1.506-1.849,1.506s-1.356-.5-1.848-1.506a9.6,9.6,0,0,1-.744-4.173,9.468,9.468,0,0,1,.767-4.112c.518-1.047,1.122-1.566,1.825-1.566s1.312.519,1.824,1.566a9.4,9.4,0,0,1,.767,4.112,9.6,9.6,0,0,1-.742,4.173m5.553-1.334h-2.123a13.328,13.328,0,0,0,0-5.679h2.121v5.679Z"/>
    <path id="패스_7882" data-name="패스 7882" class="cls-3" d="M345.578,940.491H341.73c-.046-.139-.105-.283-.162-.418a4.824,4.824,0,0,0-1.254-1.679c-.123-.108-.252-.209-.382-.306h2.789V936.11H337.8v-1.793h-3.162v1.793h-4.922v1.978h2.7c-.127.1-.258.2-.379.306a4.829,4.829,0,0,0-1.256,1.679,5.429,5.429,0,0,0,0,4.342,4.8,4.8,0,0,0,1.256,1.68,5.667,5.667,0,0,0,1.859,1.077,6.969,6.969,0,0,0,4.557,0,5.666,5.666,0,0,0,1.861-1.077,4.8,4.8,0,0,0,1.254-1.68,5.164,5.164,0,0,0,.44-1.95h3.57v5.09h2.988V934.317h-2.988Zm-7.373,4.172a2.658,2.658,0,0,1-4.061,0,3.958,3.958,0,0,1,0-4.835,2.654,2.654,0,0,1,4.061,0,3.943,3.943,0,0,1,0,4.835"/>
    <path id="패스_7883" data-name="패스 7883" class="cls-3" d="M262.645,961.39h1.109v2.7h.032l1.73-2.7H266.8l-2.07,3,2.232,3.367h-1.347l-1.828-3h-.032v3h-1.109Z"/>
    <path id="패스_7884" data-name="패스 7884" class="cls-3" d="M268.937,962.986c.915,0,1.969.5,1.969,2.419,0,1.973-1.054,2.43-1.969,2.43s-1.977-.457-1.977-2.43c0-1.916,1.063-2.419,1.977-2.419m0,4.046c.7,0,.854-.845.854-1.627s-.157-1.615-.854-1.615-.86.83-.86,1.615.166,1.627.86,1.627"/>
    <path id="패스_7885" data-name="패스 7885" class="cls-3" d="M271.639,963.062h1.012v.854h.021a1.259,1.259,0,0,1,1.137-.93,1.4,1.4,0,0,1,.184.028v1.058a1.125,1.125,0,0,0-.306-.049c-.441,0-.929.286-.929,1.16v2.579h-1.119Z"/>
    <path id="패스_7886" data-name="패스 7886" class="cls-3" d="M279.184,963.336a2.982,2.982,0,0,1,1.418-.35c1.4,0,1.716.714,1.716,1.893v2.056a6.687,6.687,0,0,0,.06.827H281.4a2.349,2.349,0,0,1-.061-.639h-.017a1.432,1.432,0,0,1-1.254.712,1.318,1.318,0,0,1-1.343-1.377c0-1.279.991-1.6,2.359-1.6h.22v-.175a.794.794,0,0,0-.834-.9,2.2,2.2,0,0,0-1.291.459Zm2.125,2.122h-.1c-.926,0-1.471.205-1.471.889a.666.666,0,0,0,.687.722c.647,0,.879-.5.879-1.343Z"/>
    <path id="패스_7887" data-name="패스 7887" class="cls-3" d="M285.743,961.39h1.586c1.9,0,2.909,1.078,2.909,3.183,0,2.149-1.22,3.189-2.909,3.189h-1.586Zm1.112,5.477h.381c1.248,0,1.817-.9,1.817-2.294s-.569-2.285-1.817-2.285h-.381Z"/>
    <path id="패스_7888" data-name="패스 7888" class="cls-3" d="M294.06,967.532a3.154,3.154,0,0,1-1.343.3c-1.446,0-2.075-1.088-2.075-2.355,0-1.408.7-2.494,1.85-2.494.959,0,1.789.595,1.789,2.512v.218h-2.6c0,.8.307,1.287,1.147,1.287a1.89,1.89,0,0,0,1.23-.383ZM293.238,965c0-.829-.264-1.25-.746-1.25-.565,0-.809.631-.809,1.25Z"/>
    <path id="패스_7889" data-name="패스 7889" class="cls-3" d="M294.951,963.062H296v.728h.023a1.207,1.207,0,0,1,1.194-.8c1.113,0,1.578,1.115,1.578,2.419,0,1.534-.582,2.43-1.549,2.43a1.2,1.2,0,0,1-1.16-.75h-.02v2.646h-1.113ZM296.9,967c.6,0,.807-.609.807-1.551,0-1.091-.166-1.637-.789-1.637s-.858.722-.858,1.611c0,.91.244,1.577.84,1.577"/>
    <path id="패스_7890" data-name="패스 7890" class="cls-3" d="M301.271,962.986c.913,0,1.965.5,1.965,2.419,0,1.973-1.052,2.43-1.965,2.43s-1.979-.457-1.979-2.43c0-1.916,1.063-2.419,1.979-2.419m0,4.046c.7,0,.851-.845.851-1.627s-.156-1.615-.851-1.615-.865.83-.865,1.615.166,1.627.865,1.627"/>
    <path id="패스_7891" data-name="패스 7891" class="cls-3" d="M303.807,966.665a3.079,3.079,0,0,0,1.173.312c.391,0,.7-.1.7-.468,0-.182-.089-.354-.478-.592l-.447-.273c-.45-.285-.944-.588-.944-1.325a1.449,1.449,0,0,1,1.546-1.333,3.418,3.418,0,0,1,1.124.192v.876a2.751,2.751,0,0,0-1.012-.211c-.429,0-.619.173-.619.455,0,.259.193.394.507.605l.527.355c.561.372.843.637.843,1.189,0,.864-.7,1.388-1.677,1.388a3.388,3.388,0,0,1-1.239-.231Z"/>
    <path id="패스_7892" data-name="패스 7892" class="cls-3" d="M307.518,961.065h1.111v1.11h-1.111Zm.019,2h1.076v4.7h-1.076Z"/>
    <path id="패스_7893" data-name="패스 7893" class="cls-3" d="M310.062,961.919h1.082v1.143h.894v.828h-.894v2.437c0,.5.172.65.486.65a.817.817,0,0,0,.408-.1v.8a1.548,1.548,0,0,1-.722.158c-.8,0-1.254-.385-1.254-1.369V963.89h-.716v-.828h.716Z"/>
    <rect id="사각형_2298" data-name="사각형 2298" class="cls-3" width="1.113" height="6.371" transform="translate(315.959 961.39)"/>
    <path id="패스_7894" data-name="패스 7894" class="cls-3" d="M318.178,963.062h1.064c.007.236,0,.479,0,.718a1.3,1.3,0,0,1,1.192-.794c1.021,0,1.324.794,1.324,1.745v3.031h-1.082v-2.821c0-.72-.172-1.025-.614-1.025-.568,0-.77.5-.77,1.1v2.741h-1.114Z"/>
    <path id="패스_7895" data-name="패스 7895" class="cls-3" d="M329.732,967.762h-1.048v-.721l-.021-.009,0,.009a1.305,1.305,0,0,1-1.191.794c-1.024,0-1.323-.794-1.323-1.742v-3.031h1.08v2.816c0,.724.191,1.024.643,1.024.578,0,.74-.546.74-1.153v-2.687h1.117Z"/>
    <path id="패스_7896" data-name="패스 7896" class="cls-3" d="M345.32,967.642a2.99,2.99,0,0,1-1.062.193c-1.481,0-2.108-1.088-2.108-2.422a2.13,2.13,0,0,1,2.17-2.427,3.287,3.287,0,0,1,1,.192v.894a2.3,2.3,0,0,0-.879-.229c-.818,0-1.176.577-1.176,1.583,0,.871.4,1.551,1.227,1.551a1.96,1.96,0,0,0,.828-.23Z"/>
    <path id="패스_7897" data-name="패스 7897" class="cls-3" d="M356.764,967.622a3.206,3.206,0,0,1-1.322.23c-1.842,0-2.791-1.416-2.791-3.279s.949-3.275,2.758-3.275a3.818,3.818,0,0,1,1.355.264v1.048a2.606,2.606,0,0,0-1.211-.342c-.927,0-1.717.654-1.717,2.3s.79,2.313,1.717,2.313a2.043,2.043,0,0,0,1.211-.332Z"/>
    <path id="패스_7898" data-name="패스 7898" class="cls-3" d="M359.086,962.986c.916,0,1.969.5,1.969,2.419,0,1.973-1.053,2.43-1.969,2.43s-1.979-.457-1.979-2.43c0-1.916,1.065-2.419,1.979-2.419m0,4.046c.7,0,.854-.845.854-1.627s-.157-1.615-.854-1.615-.861.83-.861,1.615.16,1.627.861,1.627"/>
    <path id="패스_7899" data-name="패스 7899" class="cls-3" d="M371.135,962.986c.918,0,1.969.5,1.969,2.419,0,1.973-1.051,2.43-1.969,2.43s-1.975-.457-1.975-2.43c0-1.916,1.059-2.419,1.975-2.419m0,4.046c.7,0,.859-.845.859-1.627s-.16-1.615-.859-1.615-.861.83-.861,1.615.166,1.627.861,1.627"/>
    <path id="패스_7900" data-name="패스 7900" class="cls-3" d="M377.1,963.336a2.916,2.916,0,0,1,1.414-.35c1.394,0,1.717.714,1.717,1.893v2.056a6.372,6.372,0,0,0,.058.827h-.976a2.352,2.352,0,0,1-.059-.639h-.019a1.427,1.427,0,0,1-1.254.712,1.318,1.318,0,0,1-1.34-1.377c0-1.279,1-1.6,2.359-1.6h.219v-.175a.794.794,0,0,0-.836-.9,2.015,2.015,0,0,0-1.23.459Zm2.119,2.122h-.1c-.925,0-1.468.205-1.468.889a.666.666,0,0,0,.687.722c.643,0,.879-.5.879-1.343Z"/>
    <path id="패스_7901" data-name="패스 7901" class="cls-3" d="M384.518,961.065h1.111v1.11h-1.111Zm.017,2h1.078v4.7h-1.078Z"/>
    <path id="패스_7902" data-name="패스 7902" class="cls-3" d="M388.406,962.986c.9,0,1.963.5,1.963,2.419,0,1.973-1.059,2.43-1.963,2.43s-1.979-.457-1.979-2.43c0-1.916,1.061-2.419,1.979-2.419m0,4.046c.693,0,.848-.845.848-1.627s-.155-1.615-.848-1.615-.865.83-.865,1.615.164,1.627.865,1.627"/>
    <path id="패스_7903" data-name="패스 7903" class="cls-3" d="M277.845,967.532a3.135,3.135,0,0,1-1.341.3c-1.446,0-2.075-1.088-2.075-2.355,0-1.408.705-2.494,1.848-2.494.961,0,1.791.595,1.791,2.512v.218h-2.6c0,.8.307,1.287,1.143,1.287a1.88,1.88,0,0,0,1.23-.383ZM277.027,965c0-.829-.266-1.25-.75-1.25-.564,0-.805.631-.805,1.25Z"/>
    <path id="패스_7904" data-name="패스 7904" class="cls-3" d="M322.559,966.665a3.08,3.08,0,0,0,1.175.312c.39,0,.694-.1.694-.468,0-.182-.086-.354-.48-.592l-.443-.273c-.45-.285-.946-.588-.946-1.325a1.45,1.45,0,0,1,1.548-1.333,3.439,3.439,0,0,1,1.125.192v.876a2.79,2.79,0,0,0-1.015-.211c-.431,0-.621.173-.621.455,0,.259.2.394.511.605l.532.355c.557.372.836.637.836,1.189,0,.864-.7,1.388-1.672,1.388a3.4,3.4,0,0,1-1.244-.231Z"/>
    <path id="패스_7905" data-name="패스 7905" class="cls-3" d="M333.8,963.336a2.992,2.992,0,0,1,1.42-.35c1.4,0,1.714.714,1.714,1.893v2.056a6.029,6.029,0,0,0,.064.827h-.973a2.273,2.273,0,0,1-.061-.639h-.019a1.436,1.436,0,0,1-1.257.712,1.319,1.319,0,0,1-1.341-1.377c0-1.279.994-1.6,2.358-1.6h.222v-.175a.8.8,0,0,0-.838-.9,2.2,2.2,0,0,0-1.289.459Zm2.127,2.122h-.1c-.923,0-1.471.205-1.471.889a.667.667,0,0,0,.689.722c.647,0,.879-.5.879-1.343Z"/>
    <path id="패스_7906" data-name="패스 7906" class="cls-3" d="M330.721,963.062h1.012v.854h.018a1.272,1.272,0,0,1,1.142-.93,1.511,1.511,0,0,1,.182.028v1.058a1.11,1.11,0,0,0-.3-.049c-.443,0-.933.286-.933,1.16v2.579h-1.117Z"/>
    <path id="패스_7907" data-name="패스 7907" class="cls-3" d="M337.885,963.062h1.061c.011.236,0,.479,0,.718a1.309,1.309,0,0,1,1.191-.794c1.019,0,1.326.794,1.326,1.745v3.031h-1.08v-2.821c0-.72-.174-1.025-.619-1.025-.561,0-.766.5-.766,1.1v2.741h-1.113Z"/>
    <path id="패스_7908" data-name="패스 7908" class="cls-3" d="M349.2,967.532a3.143,3.143,0,0,1-1.341.3c-1.444,0-2.075-1.088-2.075-2.355,0-1.408.707-2.494,1.848-2.494.963,0,1.789.595,1.789,2.512v.218H346.83c0,.8.309,1.287,1.145,1.287a1.878,1.878,0,0,0,1.228-.383Zm-.82-2.529c0-.829-.264-1.25-.748-1.25-.566,0-.805.631-.805,1.25Z"/>
    <path id="패스_7909" data-name="패스 7909" class="cls-3" d="M361.787,963.062h1.01v.854h.021a1.262,1.262,0,0,1,1.137-.93,1.489,1.489,0,0,1,.186.028v1.058a1.113,1.113,0,0,0-.307-.049c-.44,0-.932.286-.932,1.16v2.579h-1.115Z"/>
    <path id="패스_7910" data-name="패스 7910" class="cls-3" d="M373.891,963.062H374.9v.854h.016a1.269,1.269,0,0,1,1.139-.93,1.531,1.531,0,0,1,.185.028v1.058a1.106,1.106,0,0,0-.306-.049c-.44,0-.929.286-.929,1.16v2.579h-1.119Z"/>
    <path id="패스_7911" data-name="패스 7911" class="cls-3" d="M381.6,961.919h1.08v1.143h.9v.828h-.9v2.437c0,.5.177.65.486.65a.809.809,0,0,0,.409-.1v.8a1.54,1.54,0,0,1-.718.158c-.8,0-1.257-.385-1.257-1.369V963.89h-.717v-.828h.717Z"/>
    <path id="패스_7912" data-name="패스 7912" class="cls-3" d="M390.9,963.062h1.062c.012.236,0,.479,0,.718a1.314,1.314,0,0,1,1.192-.794c1.021,0,1.324.794,1.324,1.745v3.031h-1.076v-2.821c0-.72-.176-1.025-.619-1.025-.565,0-.77.5-.77,1.1v2.741H390.9Z"/>
    <path id="패스_7913" data-name="패스 7913" class="cls-3" d="M364.812,963.062h1.046v.728h.025a1.2,1.2,0,0,1,1.192-.8c1.112,0,1.573,1.115,1.573,2.419,0,1.534-.577,2.43-1.546,2.43a1.207,1.207,0,0,1-1.16-.75h-.018v2.646h-1.112ZM366.764,967c.6,0,.807-.609.807-1.551,0-1.091-.164-1.637-.789-1.637s-.858.722-.858,1.611c0,.91.243,1.577.84,1.577"/>
  </g>
</svg>
