<svg xmlns="http://www.w3.org/2000/svg" width="194.847" height="41.563" viewBox="0 0 194.847 41.563">
  <defs>
    <style>
      .cls-1 {
        fill: #1c9229;
      }

      .cls-2 {
        fill: #00236a;
      }

      .cls-3 {
        fill: #052971;
      }
    </style>
  </defs>
  <g id="그룹_6856" data-name="그룹 6856" transform="translate(-192.262 -408.846)">
    <g id="그룹_6854" data-name="그룹 6854" transform="translate(192.262 408.846)">
      <g id="그룹_6849" data-name="그룹 6849">
        <path id="패스_8677" data-name="패스 8677" class="cls-1" d="M212.919,429.558l-1.856-20.474a8.586,8.586,0,0,0-5.373,10.74,8.6,8.6,0,0,0-12.036,2.049Z" transform="translate(-192.363 -408.863)"/>
        <path id="패스_8678" data-name="패스 8678" class="cls-1" d="M212.277,432.837l-20.015-4.69a8.586,8.586,0,0,0,8.5,8.484,8.6,8.6,0,0,0-1.849,12.069Z" transform="translate(-192.262 -410.249)"/>
        <path id="패스_8679" data-name="패스 8679" class="cls-1" d="M214.812,434.24l-10.561,17.638a8.59,8.59,0,0,0,10.669-5.515,8.6,8.6,0,0,0,10.932,5.436Z" transform="translate(-193.134 -410.692)"/>
        <path id="패스_8680" data-name="패스 8680" class="cls-1" d="M216.63,429.54l18.912-8.058a8.587,8.587,0,0,0-11.871-1.812,8.6,8.6,0,0,0-5.649-10.824Z" transform="translate(-194.034 -408.846)"/>
        <path id="패스_8681" data-name="패스 8681" class="cls-1" d="M217.243,432.65l13.525,15.482a8.585,8.585,0,0,0-1.958-11.848,8.6,8.6,0,0,0,8.539-8.726Z" transform="translate(-194.078 -410.206)"/>
      </g>
      <path id="패스_8682" data-name="패스 8682" class="cls-2" d="M250.256,414.734H261.8v3.342H254.18v12.512H264.3v-16.38h4.152v7.621h1.99v-7.621H274.6v24.569h-4.152V425.242h-1.99v13.535H264.3v-4.72H250.256Z" transform="translate(-196.478 -409.236)"/>
      <g id="그룹_6850" data-name="그룹 6850" transform="translate(82.256 4.404)">
        <path id="패스_8683" data-name="패스 8683" class="cls-2" d="M280.967,414.208v3.413H289.1l-8.134,8.2,2.858,2.531,5.915-6.085,5.858,6.085,2.9-2.531-7.791-8.2H298.5v-3.413Z" transform="translate(-280.967 -413.639)"/>
        <path id="패스_8684" data-name="패스 8684" class="cls-2" d="M283.682,431.074V440H305.8v-3.689H287.548v-5.24Z" transform="translate(-281.164 -414.866)"/>
        <path id="패스_8685" data-name="패스 8685" class="cls-2" d="M298.463,419.346v3.135h4.265v9.392h4.151V413.595h-4.151v5.751Z" transform="translate(-282.239 -413.595)"/>
      </g>
      <g id="그룹_6851" data-name="그룹 6851" transform="translate(111.319 4.404)">
        <path id="패스_8686" data-name="패스 8686" class="cls-2" d="M313,414.163v3.413h13.422v4.9h-4.606v-3.135h-4.153v3.135h-5.359v3.3h20.886v1.593H337.4v-6.314h3.412v-3.483H337.4v-3.982h-4.209v8.886h-2.673v-8.318Z" transform="translate(-312.309 -413.595)"/>
        <path id="패스_8687" data-name="패스 8687" class="cls-2" d="M326.148,427.7c-6.308,0-11.421,2.7-11.421,6.033s5.112,6.032,11.421,6.032,11.421-2.7,11.421-6.032S332.456,427.7,326.148,427.7Zm0,8.928c-3.865,0-7-1.3-7-2.9s3.133-2.9,7-2.9,7,1.3,7,2.9S330.013,436.625,326.148,436.625Z" transform="translate(-312.484 -414.62)"/>
      </g>
      <g id="그룹_6852" data-name="그룹 6852" transform="translate(141.76 4.411)">
        <path id="패스_8688" data-name="패스 8688" class="cls-2" d="M366.8,413.6v2.744h-6.065a10.049,10.049,0,0,0-6.674-2.379c-4.931,0-8.928,3.169-8.928,7.078s4,7.078,8.928,7.078a9.909,9.909,0,0,0,7.011-2.7H366.8v2.629h3.868V413.6Zm-12.739,11.223c-2.665,0-4.827-1.691-4.827-3.78s2.162-3.781,4.827-3.781,4.826,1.692,4.826,3.781S356.73,424.826,354.065,424.826Zm12.739-2.565h-3.946a5.6,5.6,0,0,0-.077-2.743H366.8Z" transform="translate(-345.137 -413.603)"/>
        <path id="패스_8689" data-name="패스 8689" class="cls-2" d="M347.773,430.768v3.243H367v5.928h3.868v-9.171Z" transform="translate(-345.329 -414.851)"/>
      </g>
      <g id="그룹_6853" data-name="그룹 6853" transform="translate(170.48 4.922)">
        <path id="패스_8690" data-name="패스 8690" class="cls-2" d="M385.435,415.267l-9.326,15.64,3.469,1.933,5.857-9.612,6.085,9.612,3.584-1.933Z" transform="translate(-376.108 -414.235)"/>
        <rect id="사각형_2337" data-name="사각형 2337" class="cls-2" width="3.868" height="24.576" transform="translate(20.499)"/>
      </g>
    </g>
    <g id="그룹_6855" data-name="그룹 6855" transform="translate(246.395 442.452)">
      <path id="패스_8691" data-name="패스 8691" class="cls-3" d="M251.523,450.6v-4.637h1.525a1.775,1.775,0,0,1,1.512.621,2.844,2.844,0,0,1,.469,1.743,3.33,3.33,0,0,1-.065.63,2.445,2.445,0,0,1-.368.938,1.562,1.562,0,0,1-.822.617,2.459,2.459,0,0,1-.718.087Zm-.884.7h2.583a2.382,2.382,0,0,0,2.322-1.37,3.9,3.9,0,0,0,.384-1.741,3.142,3.142,0,0,0-.649-2.045,2.5,2.5,0,0,0-2.047-.886h-2.592Z" transform="translate(-250.639 -445.099)"/>
      <path id="패스_8692" data-name="패스 8692" class="cls-3" d="M258.818,448.824l1.036-2.667,1,2.667Zm-1.861,2.477h.9l.7-1.811h2.54l.677,1.811h.96l-2.347-6.041h-.99Z" transform="translate(-251.098 -445.099)"/>
      <path id="패스_8693" data-name="패스 8693" class="cls-3" d="M264.019,445.259h4.724V446h-3.869v1.84h3.579v.7h-3.579v2.058H268.8v.709h-4.782Z" transform="translate(-251.612 -445.099)"/>
      <path id="패스_8694" data-name="패스 8694" class="cls-3" d="M273.464,449.5a2.4,2.4,0,0,1-.242,1.184,1.8,1.8,0,0,1-1.71.775,2.09,2.09,0,0,1-1.243-.368,1.509,1.509,0,0,1-.515-1.314v-.433h.825v.44a1.08,1.08,0,0,0,.234.756.942.942,0,0,0,.728.254.9.9,0,0,0,.907-.452,2.737,2.737,0,0,0,.132-1.043v-4.04h.884Z" transform="translate(-252.029 -445.099)"/>
      <path id="패스_8695" data-name="패스 8695" class="cls-3" d="M275.178,445.259H279.9V446h-3.868v1.84h3.578v.7h-3.578v2.058h3.926v.709h-4.781Z" transform="translate(-252.423 -445.099)"/>
      <path id="패스_8696" data-name="패스 8696" class="cls-3" d="M284.324,450.738a2.114,2.114,0,0,1-1.766-.69,2.657,2.657,0,0,1-.544-1.7,2.61,2.61,0,0,1,.634-1.906,2.2,2.2,0,0,1,1.64-.645,2.1,2.1,0,0,1,1.634.653,2.45,2.45,0,0,1,.6,1.722,3.146,3.146,0,0,1-.518,1.79A1.87,1.87,0,0,1,284.324,450.738Zm-.083-5.651a2.9,2.9,0,0,0-2.474,1.115,3.388,3.388,0,0,0-.651,2.09,3.317,3.317,0,0,0,.761,2.238,3.046,3.046,0,0,0,2.346.917,3,3,0,0,0,2.46-1.05,3.417,3.417,0,0,0,.735-2.242,3.172,3.172,0,0,0-.642-2.047A3.065,3.065,0,0,0,284.241,445.087Z" transform="translate(-252.855 -445.087)"/>
      <path id="패스_8697" data-name="패스 8697" class="cls-3" d="M288.945,445.259h1.036l3.224,4.883v-4.883h.84V451.3h-.989l-3.271-4.877V451.3h-.841Z" transform="translate(-253.424 -445.099)"/>
      <path id="패스_8698" data-name="패스 8698" class="cls-3" d="M301.068,445.259h1.26l1.862,5.111,1.844-5.111h1.249V451.3h-.84v-3.564c0-.123,0-.328.015-.612s.014-.591.014-.918l-1.856,5.095h-.868l-1.869-5.095v.185q0,.221.015.677c.009.3.015.526.015.668V451.3h-.841Z" transform="translate(-254.305 -445.099)"/>
      <path id="패스_8699" data-name="패스 8699" class="cls-3" d="M309.184,445.259h4.723V446h-3.869v1.84h3.579v.7h-3.579v2.058h3.927v.709h-4.781Z" transform="translate(-254.895 -445.099)"/>
      <path id="패스_8700" data-name="패스 8700" class="cls-3" d="M320.118,445.259v.709h-2.173V451.3h-.885v-5.332h-2.173v-.709Z" transform="translate(-255.31 -445.099)"/>
      <path id="패스_8701" data-name="패스 8701" class="cls-3" d="M322.335,448.026v-2.058h2.059a1.61,1.61,0,0,1,.69.123.882.882,0,0,1,.483.877.922.922,0,0,1-.345.827,1.674,1.674,0,0,1-.938.23Zm-.884,3.274h.884v-2.593h1.91a1.84,1.84,0,0,1,.754.115.838.838,0,0,1,.452.793l.072,1.006a3.472,3.472,0,0,0,.04.481.7.7,0,0,0,.065.2h1.083v-.13a.516.516,0,0,1-.286-.37,2.37,2.37,0,0,1-.062-.514l-.029-.814a1.058,1.058,0,0,0-.786-1.142,1.714,1.714,0,0,0,.676-.556,1.526,1.526,0,0,0,.24-.887,1.422,1.422,0,0,0-.891-1.427,3.041,3.041,0,0,0-1.193-.2h-2.928Z" transform="translate(-255.787 -445.099)"/>
      <path id="패스_8702" data-name="패스 8702" class="cls-3" d="M331.1,450.738a2.114,2.114,0,0,1-1.766-.69,2.658,2.658,0,0,1-.545-1.7,2.61,2.61,0,0,1,.636-1.906,2.2,2.2,0,0,1,1.638-.645,2.1,2.1,0,0,1,1.634.653,2.447,2.447,0,0,1,.6,1.722,3.146,3.146,0,0,1-.518,1.79A1.872,1.872,0,0,1,331.1,450.738Zm-.083-5.651a2.9,2.9,0,0,0-2.473,1.115,3.383,3.383,0,0,0-.653,2.09,3.313,3.313,0,0,0,.762,2.238,3.047,3.047,0,0,0,2.346.917,3,3,0,0,0,2.459-1.05,3.407,3.407,0,0,0,.735-2.242,3.167,3.167,0,0,0-.642-2.047A3.063,3.063,0,0,0,331.02,445.087Z" transform="translate(-256.256 -445.087)"/>
      <path id="패스_8703" data-name="패스 8703" class="cls-3" d="M339.729,447a.9.9,0,0,1-.363.825,1.711,1.711,0,0,1-.944.233H336.7v-2.086h1.721a1.982,1.982,0,0,1,.787.128A.9.9,0,0,1,339.729,447Zm-3.912,4.3h.884v-2.55h2.008a1.854,1.854,0,0,0,1.442-.524,1.772,1.772,0,0,0,.478-1.235,1.593,1.593,0,0,0-.533-1.276,2.068,2.068,0,0,0-1.39-.456h-2.888Z" transform="translate(-256.832 -445.099)"/>
      <path id="패스_8704" data-name="패스 8704" class="cls-3" d="M344.964,450.738a2.117,2.117,0,0,1-1.767-.69,2.662,2.662,0,0,1-.543-1.7,2.614,2.614,0,0,1,.634-1.906,2.2,2.2,0,0,1,1.64-.645,2.1,2.1,0,0,1,1.633.653,2.447,2.447,0,0,1,.6,1.722,3.153,3.153,0,0,1-.518,1.79A1.872,1.872,0,0,1,344.964,450.738Zm-.084-5.651a2.9,2.9,0,0,0-2.473,1.115,3.387,3.387,0,0,0-.651,2.09,3.316,3.316,0,0,0,.76,2.238,3.048,3.048,0,0,0,2.347.917,3,3,0,0,0,2.46-1.05,3.417,3.417,0,0,0,.735-2.242,3.162,3.162,0,0,0-.644-2.047A3.062,3.062,0,0,0,344.88,445.087Z" transform="translate(-257.264 -445.087)"/>
      <path id="패스_8705" data-name="패스 8705" class="cls-3" d="M349.6,445.259h.884v5.332h3.232v.709H349.6Z" transform="translate(-257.834 -445.099)"/>
      <path id="패스_8706" data-name="패스 8706" class="cls-3" d="M355.116,445.259H356V451.3h-.884Z" transform="translate(-258.235 -445.099)"/>
      <path id="패스_8707" data-name="패스 8707" class="cls-3" d="M362.14,445.259v.709h-2.174V451.3h-.884v-5.332h-2.174v-.709Z" transform="translate(-258.365 -445.099)"/>
      <path id="패스_8708" data-name="패스 8708" class="cls-3" d="M363.912,448.824l1.035-2.667,1,2.667Zm-1.861,2.477h.9l.7-1.811h2.542l.676,1.811h.961l-2.347-6.041h-.99Z" transform="translate(-258.739 -445.099)"/>
      <path id="패스_8709" data-name="패스 8709" class="cls-3" d="M369.019,445.259h1.037l3.223,4.883v-4.883h.84V451.3h-.988l-3.272-4.877V451.3h-.841Z" transform="translate(-259.246 -445.099)"/>
      <path id="패스_8710" data-name="패스 8710" class="cls-3" d="M385.722,445.688a2.083,2.083,0,0,1,.746,1.37h-.855a1.629,1.629,0,0,0-.569-.923,1.9,1.9,0,0,0-1.2-.338,1.97,1.97,0,0,0-1.52.627,2.755,2.755,0,0,0-.58,1.924,2.713,2.713,0,0,0,.523,1.728,1.867,1.867,0,0,0,1.559.662,1.672,1.672,0,0,0,1.451-.7,2.591,2.591,0,0,0,.394-.968h.855a2.658,2.658,0,0,1-.75,1.6,2.756,2.756,0,0,1-2.058.774,2.809,2.809,0,0,1-1.873-.638,3.741,3.741,0,0,1-.249-4.793,2.813,2.813,0,0,1,2.237-.929A2.737,2.737,0,0,1,385.722,445.688Z" transform="translate(-260.106 -445.087)"/>
      <path id="패스_8711" data-name="패스 8711" class="cls-3" d="M388.306,445.259h.884V451.3h-.884Z" transform="translate(-260.648 -445.099)"/>
      <path id="패스_8712" data-name="패스 8712" class="cls-3" d="M395.329,445.259v.709h-2.174V451.3h-.884v-5.332H390.1v-.709Z" transform="translate(-260.778 -445.099)"/>
      <path id="패스_8713" data-name="패스 8713" class="cls-3" d="M395.99,445.259h1.031l1.862,2.9,1.858-2.9h1.03l-2.446,3.609V451.3h-.884v-2.432Z" transform="translate(-261.207 -445.099)"/>
    </g>
  </g>
</svg>
