<svg xmlns="http://www.w3.org/2000/svg" width="193.565" height="54.46" viewBox="0 0 193.565 54.46">
  <defs>
    <style>
      .cls-1 {
        fill: #151f6a;
      }

      .cls-2 {
        fill: #fff;
      }

      .cls-3 {
        fill: #0091d9;
      }
    </style>
  </defs>
  <g id="그룹_6997" data-name="그룹 6997" transform="translate(-62.948 -54.504)">
    <path id="패스_9572" data-name="패스 9572" class="cls-1" d="M62.948,91.856s.08,2.034,1.675,2.256c2.169.3,16.6,5.032,24.321,19.568h0c7.721-14.535,22.155-19.265,24.323-19.568,1.595-.221,1.675-2.256,1.675-2.256Z" transform="translate(0 -8.34)"/>
    <path id="패스_9573" data-name="패스 9573" class="cls-2" d="M115.333,118.943c-.11-.019-11.049-1.873-15.086-5.561l-.024-.021-.024-.019a13.243,13.243,0,0,1-4.141-6.094l-.615-2.009-.624,2.005a8.331,8.331,0,0,0,.956,6.22,27.271,27.271,0,0,1-2.534-3.339c-.107-.163-.192-.29-.259-.385-1.795-2.552-3.765-3.695-6.023-3.492a6.807,6.807,0,0,0-5.755,4.574l-.061.2.033.1a7.981,7.981,0,0,0-3.216,2.688,4.728,4.728,0,0,0-4.444.263,5.625,5.625,0,0,0-2.243,5.8l1.272-.047a3.228,3.228,0,0,1,2.318-2.445,3.909,3.909,0,0,1,3.4.465l.632.512.363-.73a5.189,5.189,0,0,1,4.642-2.545,6.8,6.8,0,0,1,3.607,1.086l.256.143c.182.108,2.864,1.7,3.551,2.033a18.76,18.76,0,0,0,4.768,1.647,21.751,21.751,0,0,0,4.86.265l.134-.009.117-.06.673-.334a26.909,26.909,0,0,0,2.736.231h.024a6.74,6.74,0,0,0,1.16-.076l-.026-.722a45.227,45.227,0,0,0,9.468.944Z" transform="translate(-1.832 -11.328)"/>
    <path id="패스_9574" data-name="패스 9574" class="cls-1" d="M140.283,111.548a2.358,2.358,0,0,0,.315-1.289,1.883,1.883,0,0,0-.666-1.565,3.313,3.313,0,0,0-2.082-.531l-3.146,0a.985.985,0,0,1,.665.728V115.2h1.813v-2.746L138.8,115.2h2.156l-1.929-2.826A2.007,2.007,0,0,0,140.283,111.548Zm-1.969-.2a2.446,2.446,0,0,1-.974.137h-.158v-1.841h.158a1.777,1.777,0,0,1,1.16.276.857.857,0,0,1,.217.659A.769.769,0,0,1,138.314,111.35Z" transform="translate(-16.023 -11.981)"/>
    <path id="패스_9575" data-name="패스 9575" class="cls-1" d="M143.069,108.165a.971.971,0,0,1,.675.8V115.2h4.313v-1.574h-2.442v-1.192h2.3v-1.505h-2.3V109.7h2.442v-1.535Z" transform="translate(-17.89 -11.981)"/>
    <path id="패스_9576" data-name="패스 9576" class="cls-1" d="M155.636,108.663a3.818,3.818,0,0,0-2.214-.5l-3.034,0a1.071,1.071,0,0,1,.76.965V115.2h1.811v-2.323h.541a3.812,3.812,0,0,0,2.156-.472,2.109,2.109,0,0,0,.759-1.841A2.2,2.2,0,0,0,155.636,108.663Zm-1.438,2.561a1.964,1.964,0,0,1-.787.109h-.453v-1.656h.315a2.274,2.274,0,0,1,.95.158.687.687,0,0,1,.33.69A.707.707,0,0,1,154.2,111.224Z" transform="translate(-19.525 -11.981)"/>
    <path id="패스_9577" data-name="패스 9577" class="cls-1" d="M165.671,111.163v-3l-2.586,0a.955.955,0,0,1,.688.9l.007,2.779a2.935,2.935,0,0,1-.3,1.6,1.079,1.079,0,0,1-.924.334,1.059,1.059,0,0,1-1.093-.6,3.978,3.978,0,0,1-.148-1.338v-3.672l-2.582,0a.965.965,0,0,1,.683.852v2.875a3.871,3.871,0,0,0,.753,2.668,3.1,3.1,0,0,0,2.388.818,4.412,4.412,0,0,0,2.117-.4,1.8,1.8,0,0,0,.857-1.092,6.331,6.331,0,0,0,.148-1.616c-.007-.177-.009-.357-.009-.541Z" transform="translate(-21.389 -11.981)"/>
    <path id="패스_9578" data-name="패스 9578" class="cls-1" d="M173.528,111.41a1.906,1.906,0,0,0,1.044-.62,1.448,1.448,0,0,0,.236-.868,1.474,1.474,0,0,0-.847-1.487,5.647,5.647,0,0,0-2.108-.274l-2.922,0a.978.978,0,0,1,.668.75V115.2h2.491a3.885,3.885,0,0,0,2.5-.61,2.013,2.013,0,0,0,.02-2.727A1.9,1.9,0,0,0,173.528,111.41Zm-2.136-1.851h.512a2.488,2.488,0,0,1,.757.078.576.576,0,0,1,.356.6.638.638,0,0,1-.346.631,1.734,1.734,0,0,1-.709.108l-.57-.01Zm1.486,4.095a2.317,2.317,0,0,1-.866.119h-.62V112.2h.668a1.757,1.757,0,0,1,.995.217.618.618,0,0,1,.247.541A.7.7,0,0,1,172.877,113.654Z" transform="translate(-23.665 -11.981)"/>
    <path id="패스_9579" data-name="패스 9579" class="cls-1" d="M180.364,108.162l-2.6,0a.97.97,0,0,1,.677.826V115.2h4.312v-1.653h-2.391Z" transform="translate(-25.638 -11.981)"/>
    <path id="패스_9580" data-name="패스 9580" class="cls-1" d="M184.784,108.165a.956.956,0,0,1,.687.9l0-.016V115.2h1.939v-7.038Z" transform="translate(-27.205 -11.981)"/>
    <path id="패스_9581" data-name="패스 9581" class="cls-1" d="M190.863,109.209a3.831,3.831,0,0,0-.807,2.431,3.714,3.714,0,0,0,.915,2.53,3.286,3.286,0,0,0,2.6,1.153,4.615,4.615,0,0,0,1.87-.433v-2.1a3.468,3.468,0,0,1-.984.729,1.681,1.681,0,0,1-.679.137,1.633,1.633,0,0,1-1.428-.718,2.195,2.195,0,0,1-.4-1.3,1.953,1.953,0,0,1,.621-1.525,1.738,1.738,0,0,1,1.2-.474,1.908,1.908,0,0,1,.845.2,3.811,3.811,0,0,1,.818.641v-2.1a4.409,4.409,0,0,0-1.87-.423A3.24,3.24,0,0,0,190.863,109.209Z" transform="translate(-28.382 -11.936)"/>
    <path id="패스_9582" data-name="패스 9582" class="cls-1" d="M206.25,107.959a3.554,3.554,0,0,0-2.865,1.26,3.652,3.652,0,0,0-.9,2.421,3.457,3.457,0,0,0,1.22,2.747,3.887,3.887,0,0,0,5.175-.1,3.439,3.439,0,0,0,1.108-2.614,3.7,3.7,0,0,0-.916-2.471A3.519,3.519,0,0,0,206.25,107.959Zm1.191,5.306a1.72,1.72,0,0,1-1.191.463,1.649,1.649,0,0,1-1.417-.69,2.3,2.3,0,0,1-.414-1.389,2.2,2.2,0,0,1,.517-1.48,1.654,1.654,0,0,1,1.314-.606,1.635,1.635,0,0,1,1.438.739,2.375,2.375,0,0,1,.393,1.369A2.041,2.041,0,0,1,207.441,113.265Z" transform="translate(-31.158 -11.936)"/>
    <path id="패스_9583" data-name="패스 9583" class="cls-1" d="M213.079,108.163a.975.975,0,0,1,.674.8v6.24h1.871v-2.767h2.3v-1.505h-2.3V109.7h2.442v-1.535Z" transform="translate(-33.523 -11.981)"/>
    <path id="패스_9584" data-name="패스 9584" class="cls-1" d="M231.489,108.162h-2.255l-2.206,3.188v-3.188h-2.6a.991.991,0,0,1,.689.922V115.2h1.911v-3.15l2.284,3.15H231.7l-2.826-3.593Z" transform="translate(-36.057 -11.981)"/>
    <path id="패스_9585" data-name="패스 9585" class="cls-1" d="M237.649,107.959a3.554,3.554,0,0,0-2.865,1.26,3.653,3.653,0,0,0-.9,2.421,3.458,3.458,0,0,0,1.221,2.747,3.885,3.885,0,0,0,5.174-.1,3.434,3.434,0,0,0,1.108-2.614,3.7,3.7,0,0,0-.917-2.471A3.514,3.514,0,0,0,237.649,107.959Zm1.191,5.306a1.724,1.724,0,0,1-1.191.463,1.653,1.653,0,0,1-1.418-.69,2.3,2.3,0,0,1-.412-1.389,2.2,2.2,0,0,1,.517-1.48,1.654,1.654,0,0,1,1.314-.606,1.634,1.634,0,0,1,1.437.739,2.37,2.37,0,0,1,.395,1.369A2.044,2.044,0,0,1,238.84,113.265Z" transform="translate(-38.169 -11.936)"/>
    <path id="패스_9586" data-name="패스 9586" class="cls-1" d="M249.686,111.548a2.358,2.358,0,0,0,.315-1.289,1.885,1.885,0,0,0-.666-1.565,3.312,3.312,0,0,0-2.081-.531l-3.162,0a.965.965,0,0,1,.68.844v6.19h1.812v-2.746L248.2,115.2h2.155l-1.929-2.826A2.005,2.005,0,0,0,249.686,111.548Zm-1.968-.2a2.455,2.455,0,0,1-.975.137h-.158v-1.841h.158a1.786,1.786,0,0,1,1.161.276.86.86,0,0,1,.216.659A.769.769,0,0,1,247.718,111.35Z" transform="translate(-40.448 -11.981)"/>
    <path id="패스_9587" data-name="패스 9587" class="cls-1" d="M252.479,108.167a.977.977,0,0,1,.673.785V115.2h4.312v-1.574h-2.442v-1.192h2.3v-1.505h-2.3V109.7h2.442v-1.535Z" transform="translate(-42.321 -11.981)"/>
    <path id="패스_9588" data-name="패스 9588" class="cls-1" d="M261.411,108.167c.151.005.625.132.427.84l-2.13,6.192h1.911l.363-1.27h2.726l.346,1.27h1.918l-2.44-7.038Zm.995,4.395.708-2.324a8.843,8.843,0,0,0,.227-.944q.148.629.256.944l.708,2.324Z" transform="translate(-43.935 -11.981)"/>
    <path id="패스_9589" data-name="패스 9589" class="cls-1" d="M279.818,112.522l-3.219-4.36h-2.53a.969.969,0,0,1,.679.829V115.2h1.811v-4.491l3.231,4.491h1.84v-7.038h-1.812Z" transform="translate(-47.142 -11.981)"/>
    <path id="패스_9590" data-name="패스 9590" class="cls-1" d="M286.488,108.162s.663.036.5.651l-2.2,6.387h1.91l.365-1.27h2.725l.346,1.27h1.919l-2.44-7.038Zm1,4.4.708-2.324a9.251,9.251,0,0,0,.227-.944q.148.629.256.944l.708,2.324Z" transform="translate(-49.535 -11.981)"/>
    <path id="패스_9591" data-name="패스 9591" class="cls-1" d="M296.152,112.781c-.038-.191-1.644-4.619-1.644-4.619l-2.531.005c.1.005.5.068.8.7l2.649,6.331h1.466l2.945-7.038h-2.049Z" transform="translate(-51.14 -11.981)"/>
    <path id="패스_9592" data-name="패스 9592" class="cls-1" d="M307.548,108.162s-1.171,2.227-1.192,2.292c-.012-.047-1.171-2.292-1.171-2.292l-2.607.005a1.193,1.193,0,0,1,.784.6l2.071,3.223V115.2h1.851v-3.209l2.461-3.829Z" transform="translate(-53.507 -11.981)"/>
    <path id="패스_9593" data-name="패스 9593" class="cls-1" d="M292.07,108.169h0Z" transform="translate(-51.161 -11.983)"/>
    <path id="패스_9594" data-name="패스 9594" class="cls-1" d="M198.015,85.7a1.77,1.77,0,0,0,1.258.522h10.21V74.846l-13.173,0a1.668,1.668,0,0,1,1.192,1.522v8.1A1.729,1.729,0,0,0,198.015,85.7Zm3-7.848h4.766v5.511h-4.766Z" transform="translate(-29.779 -4.541)"/>
    <path id="패스_9595" data-name="패스 9595" class="cls-1" d="M201.687,96.792V91.348h-3.835V97.88a1.781,1.781,0,0,0,1.767,1.772h18.068v-2.86Z" transform="translate(-30.123 -8.227)"/>
    <path id="패스_9596" data-name="패스 9596" class="cls-1" d="M189.88,74.69l-4.947.005a1.661,1.661,0,0,1,1.195,1.569v0l-.007,9.947h3.759V81.75h2.3V78.734h-2.3Z" transform="translate(-27.238 -4.507)"/>
    <path id="패스_9597" data-name="패스 9597" class="cls-1" d="M169.574,96.93V92.641H165.73v5.3a1.9,1.9,0,0,0,.56,1.353,1.933,1.933,0,0,0,1.377.567h17.908V96.93Z" transform="translate(-22.95 -8.516)"/>
    <path id="패스_9598" data-name="패스 9598" class="cls-1" d="M262.934,74.359V73.223h-4.021v1.136h-4.947a1.669,1.669,0,0,1,1.189,1.48v1.489h2.528a5.559,5.559,0,0,0-2.263,4.455,5.538,5.538,0,1,0,11.077,0,5.556,5.556,0,0,0-2.264-4.455h2.579V74.359Zm-1.99,9.62a2.274,2.274,0,1,1,2.273-2.273A2.275,2.275,0,0,1,260.944,83.98Z" transform="translate(-42.653 -4.18)"/>
    <path id="패스_9599" data-name="패스 9599" class="cls-1" d="M165.3,81.8a5.539,5.539,0,1,0,8.814-4.455h2.579V74.378H172.81v-1.07h-4.022v1.07l-4.931.005a1.689,1.689,0,0,1,1.174,1.316v1.648h2.529A5.558,5.558,0,0,0,165.3,81.8Zm3.8-1.8a2.438,2.438,0,1,1-.713,1.724A2.428,2.428,0,0,1,169.1,80Z" transform="translate(-22.532 -4.199)"/>
    <path id="패스_9600" data-name="패스 9600" class="cls-1" d="M276.043,74.658a1.7,1.7,0,0,1,1.164,1.255l.006,4.033h-1.585V74.66h-4.771a1.656,1.656,0,0,1,1.194,1.565l0-.019V95.893h3.574V82.962h1.585V95.893h3.373V74.652Z" transform="translate(-46.424 -4.499)"/>
    <path id="패스_9601" data-name="패스 9601" class="cls-1" d="M134.18,74.827a1.715,1.715,0,0,1,1.171,1.306v9.514a1.752,1.752,0,0,0,.51,1.256,1.683,1.683,0,0,0,1.2.493h7.624V84.471h-5.518V77.693l5.518.006V74.822Z" transform="translate(-15.905 -4.537)"/>
    <path id="패스_9602" data-name="패스 9602" class="cls-1" d="M154.786,74.658a1.745,1.745,0,0,1,1.157,1.241l.005,4.049h-1.585V74.663l-3.308,0h-1.427a1.74,1.74,0,0,1,1.161,1.263V95.895h3.574V82.963h1.585V95.895h3.374V74.658Z" transform="translate(-19.355 -4.5)"/>
    <path id="패스_9603" data-name="패스 9603" class="cls-1" d="M218.2,76.259l.006-.041-.005,9.989h3.758V74.69H217A1.662,1.662,0,0,1,218.2,76.259Z" transform="translate(-34.399 -4.507)"/>
    <path id="패스_9604" data-name="패스 9604" class="cls-1" d="M246.31,88.031l-.011-2.878H226.4v2.878h7.157v2.628H226.4v2.892h15.89v4.694h3.924V92.587a1.922,1.922,0,0,0-.563-1.369,1.9,1.9,0,0,0-1.356-.559h-6.9V88.031Z" transform="translate(-36.498 -6.844)"/>
    <path id="패스_9605" data-name="패스 9605" class="cls-1" d="M226.1,77.442V77.6h15.888v3.681h3.948V76.66a1.943,1.943,0,0,0-.566-1.391,1.863,1.863,0,0,0-1.325-.545H226.1v0h-1.191a1.664,1.664,0,0,1,1.191,1.538Z" transform="translate(-36.164 -4.515)"/>
    <path id="패스_9606" data-name="패스 9606" class="cls-1" d="M286.273,77.751h15.89v3.63h3.922V76.807a1.928,1.928,0,0,0-.567-1.376,1.9,1.9,0,0,0-1.35-.558l-19.078,0s1.183.4,1.183,1.4Z" transform="translate(-49.602 -4.547)"/>
    <path id="패스_9607" data-name="패스 9607" class="cls-1" d="M286.613,85.258v2.871h7.859v3.9h3.841v-3.9h8.143V85.258Z" transform="translate(-49.943 -6.867)"/>
    <path id="패스_9608" data-name="패스 9608" class="cls-1" d="M290.41,96.925V92.234h-3.845l0,5.655a1.927,1.927,0,0,0,1.936,1.924h17.908V96.925Z" transform="translate(-49.932 -8.425)"/>
    <path id="패스_9609" data-name="패스 9609" class="cls-1" d="M95.459,88.107V65.518h6.952l1.355-2.293H83.984l1.331,2.293H92.1V88.107Z" transform="translate(-4.697 -1.947)"/>
    <path id="패스_9610" data-name="패스 9610" class="cls-1" d="M95.515,54.5a3.7,3.7,0,1,0,3.7,3.7A3.7,3.7,0,0,0,95.515,54.5Zm0,5.5a1.8,1.8,0,1,1,1.8-1.8A1.806,1.806,0,0,1,95.515,60.006Z" transform="translate(-6.446)"/>
    <path id="패스_9611" data-name="패스 9611" class="cls-1" d="M93.037,91.514a12.281,12.281,0,1,1,12.281-12.281A12.281,12.281,0,0,1,93.037,91.514Z" transform="translate(-3.976 -2.78)"/>
    <path id="패스_9612" data-name="패스 9612" class="cls-2" d="M96.147,70.909a9.449,9.449,0,1,0,6.9,11.445A9.449,9.449,0,0,0,96.147,70.909Z" transform="translate(-4.795 -3.601)"/>
    <path id="패스_9613" data-name="패스 9613" class="cls-2" d="M94.078,89.021A8.578,8.578,0,1,0,85.5,80.442,8.579,8.579,0,0,0,94.078,89.021Z" transform="translate(-5.036 -3.877)"/>
    <path id="패스_9614" data-name="패스 9614" class="cls-1" d="M94.46,80.883a8.388,8.388,0,0,1-1.049,2.447,4.27,4.27,0,0,1-7.547-1.468,5.608,5.608,0,0,1-.056-2.108,8.578,8.578,0,0,0,16.3,5.261,6.3,6.3,0,0,0,.238-.84,4.267,4.267,0,0,0-2.969-5.416A4.122,4.122,0,0,0,94.46,80.883Z" transform="translate(-5.044 -5.379)"/>
    <path id="패스_9615" data-name="패스 9615" class="cls-3" d="M102.356,108.069s-1.93,6.19,5.79,9.8c0,0,5.011,2.352,14,2.352,0,0-11.19-1.861-15.418-5.722A13.774,13.774,0,0,1,102.356,108.069Z" transform="translate(-8.752 -11.961)"/>
    <path id="패스_9616" data-name="패스 9616" class="cls-3" d="M108.7,119.852c-4.934-.862-6.655-2.391-7.515-2.975a22.721,22.721,0,0,1-5.662-6.293c-2.252-3.2-4.324-3.32-5.432-3.22a6.206,6.206,0,0,0-5.2,4.12h0a5.833,5.833,0,0,1,2.7-1.394c1.087-.249,3.155-.411,5.821,2.454a22.68,22.68,0,0,0,6.461,5.471c.933.462,2.813,1.709,7.82,1.894A7.474,7.474,0,0,0,108.7,119.852Z" transform="translate(-4.899 -11.798)"/>
    <path id="패스_9617" data-name="패스 9617" class="cls-3" d="M101.088,121.328a21.3,21.3,0,0,1-4.692-.253,17.986,17.986,0,0,1-4.612-1.6c-.68-.329-3.511-2.012-3.511-2.012a7.939,7.939,0,0,0-4.2-1.316,5.859,5.859,0,0,0-5.213,2.91,4.556,4.556,0,0,0-3.985-.588,3.89,3.89,0,0,0-2.783,2.967,5.012,5.012,0,0,1,1.974-5.112,4.171,4.171,0,0,1,4.314.038,6.9,6.9,0,0,1,5.661-3.434,7.858,7.858,0,0,1,4.967,1.751c2.7,2.054,3.795,3.664,6.807,5.087a15.242,15.242,0,0,0,5.276,1.556Z" transform="translate(-2.019 -13.047)"/>
  </g>
</svg>
