<svg xmlns="http://www.w3.org/2000/svg" width="218.453" height="47.491" viewBox="0 0 218.453 47.491">
  <defs>
    <style>
      .cls-1 {
        fill: #00408a;
      }

      .cls-1, .cls-2, .cls-3, .cls-4, .cls-5 {
        fill-rule: evenodd;
      }

      .cls-2 {
        fill: #fff;
      }

      .cls-3 {
        fill: #ffdf00;
      }

      .cls-4 {
        fill: #f18734;
      }

      .cls-5 {
        fill: #008931;
      }

      .cls-6 {
        fill: #161615;
      }
    </style>
  </defs>
  <g id="그룹_6924" data-name="그룹 6924" transform="translate(-174.999 -400.081)">
    <g id="그룹_6920" data-name="그룹 6920" transform="translate(174.999 400.081)">
      <path id="패스_9173" data-name="패스 9173" class="cls-1" d="M215.526,410.168c.775.165,4.889.725,6.441,1.87s2.913,2.657,2.991,4.582-1.759,4.938-5.64,6.082-6.775,2.348-6.775,2.03c0-.154.056,1.487.313,3.178.291,1.916.8,4,.959,5.3.308,2.451,1.711,9.651,1.091,11.285s-6.21,1.309-7.14,1.309-14.821-.579-16.062-.411-7.446.084-7.065.084-3.185,0-1.171-5.072c.725-1.82,1.317-3.2,1.976-4.732a31.221,31.221,0,0,0,1.681-5.085l.389-5.153s1.473-.9-3.494-2.048-8.742-2.343-9-5.236,2.59-4.632,4.3-5.286,8.122-1.258,8.122-1.258,2.425-1.246,1.805-2.721c-.253-.6-.955-1.2-1.142-2.115a4.916,4.916,0,0,1,.392-3.533c.931-1.311.976-2.1,2.836-2.1s2.8,1.372,2.641,1.977l-.69,2.6-.652,2.044L191,409.487s-.623,2.123.935,2.123c.433,0,.969.293,1.53.2a34.664,34.664,0,0,0,3.678-1.327,32.937,32.937,0,0,1,3.633-.5s1.16-1.266.157-1.8-.966-3.959-1.035-4.273-.023-3.385,2.518-3.742,2.667.492,2.864,1.8a8.007,8.007,0,0,1,.162,1.511,12.277,12.277,0,0,1-.352,2.579l-.526,1.037-.905.99s-.8,1.507.283,1.835a7.344,7.344,0,0,0,1.347.212c.536.047,1.125.076,1.631.092.276.01.532-.019.739-.016a5.365,5.365,0,0,1,.572.039c.219.067.3.092.378.177.219.229.3.5.51.62,1.2.7,2.3-.083,3.068-.306a.564.564,0,0,0,.48-.063c.333-.264.288-.9.271-1.369-.006-.173.139-.479-.054-.595-.39-.236-.211-.337-.649-.838a5.806,5.806,0,0,1-.951-1.2,6.307,6.307,0,0,1-.234-2.906c.308-2.451,2.782-3.009,3.558-2.516a3,3,0,0,1,1.621,3.034,11.2,11.2,0,0,1-.559,2.928,2.665,2.665,0,0,1-.745,1.314c-.336.332.308,1.586.6,1.65Z" transform="translate(-174.999 -400.081)"/>
      <path id="패스_9174" data-name="패스 9174" class="cls-2" d="M225.7,416.589c-.932.123-.188.807-.684,2.148a7.909,7.909,0,0,1-.982,1.487,26.869,26.869,0,0,0-2.6,4.49,8.889,8.889,0,0,0,1.449-.28,9.325,9.325,0,0,0,2.9-1.317,23.349,23.349,0,0,1,2.135-1.042c1.22-.689,2.146-1.491,1.735-2.467-.62-1.474-2.716-3.181-3.956-3.02Z" transform="translate(-182.763 -402.84)"/>
      <path id="패스_9175" data-name="패스 9175" class="cls-3" d="M214.586,419.223c.71-.568,1.386-1.406,2.019-1.982a2.806,2.806,0,0,1,1.44-.767c1.086-.162,2.283.668,1.415,1.969s-2.537,3.6-2.659,3.723-1.948,1.935-1.948,3.409c0,.545-1.319.411-2.64.351a16.363,16.363,0,0,0-2.457.075,6.313,6.313,0,0,0,.808-1.153c.317-.567.576-1.341,1.038-2.029a20.328,20.328,0,0,1,2.984-3.6Z" transform="translate(-180.811 -402.819)"/>
      <path id="패스_9176" data-name="패스 9176" class="cls-4" d="M205.5,416.407l4.109.057s1.331-.013-.627,2.126c-.351.388-.57.988-1.122,1.582a7.426,7.426,0,0,0-1.023,1.591,15.434,15.434,0,0,0-.8,1.337c-1.482,3.837-1.556,2.328-1.556,2.328a22.438,22.438,0,0,1-2.573-6.082c-.774-3.273,3.279-2.946,3.589-2.941Z" transform="translate(-179.483 -402.809)"/>
      <path id="패스_9177" data-name="패스 9177" class="cls-5" d="M191.77,420.647a2.039,2.039,0,0,1,.5-2.239,1.21,1.21,0,0,1,1.442-.377,5.769,5.769,0,0,1,3.018,3.762c.283,1.071.932,3.6.932,3.6a31.046,31.046,0,0,1-4.035,0c-1.4-.166-1.4-3.273-1.862-4.747Z" transform="translate(-177.782 -403.064)"/>
      <path id="패스_9178" data-name="패스 9178" class="cls-3" d="M208.256,433.219a9.861,9.861,0,0,1,2.683-1.282,7.543,7.543,0,0,1,2.077-.8c1.107-.095.468,1.552.58,2.526.055.454.078,1.526.2,2.089a8.941,8.941,0,0,1,.478,1.762c.108,1.1.253,2.229.327,3.3.082,1.218.032,2.8.107,3.747.112,1.475.035,2.114-.495,2.114-.29,0-1.171.022-2.2.133-1.325.136-2.91.371-3.984.436-.806.05-.714-1.159-.714-.754,0,4.849.056-3.653.049-6.277a29.894,29.894,0,0,1,.055-4.221c.2-1.292.295-2.308.834-2.771Z" transform="translate(-180.403 -405.273)"/>
      <path id="패스_9179" data-name="패스 9179" class="cls-5" d="M199.836,434.865a6.106,6.106,0,0,0,.055,1.63,5.692,5.692,0,0,1,.314,1.2c0,.53-.3,1.255-.345,1.818a29.316,29.316,0,0,1-.4,4.224,16.24,16.24,0,0,0-.156,2.288c-.121.65-.281,1.048-.62,1.051l-5.9.064c-.433.006-.256-1.186.316-2.484.245-.555.08-1.31.247-1.77.315-.87.687-2.057,1.138-3.338a7.637,7.637,0,0,0,.627-2.8,33.114,33.114,0,0,0-.367-3.517l-.129-2.682s.6.162,1.572.442a5.205,5.205,0,0,1,1.81.7c1.553,1.143,1.99,1.866,1.836,3.175Z" transform="translate(-177.933 -405.175)"/>
      <path id="패스_9180" data-name="패스 9180" class="cls-2" d="M183.716,417.428c1.151-.3.989.476.944,1.361-.04.784-.043,1.246-.045,1.267a2.121,2.121,0,0,0,.251,1.3c.789,1.058.761.9,1.318,1.676a5.279,5.279,0,0,1,.553.823c.375.761-.439.774-3.394-.312a11.5,11.5,0,0,1-2.79-1.272c-.979-.7-1.551-1.672-1.179-2.563.621-1.472,3.125-1.97,4.341-2.283Z" transform="translate(-175.712 -402.971)"/>
    </g>
    <g id="그룹_6923" data-name="그룹 6923" transform="translate(224.646 416.874)">
      <g id="그룹_6921" data-name="그룹 6921" transform="translate(2.393 21.112)">
        <path id="패스_9181" data-name="패스 9181" class="cls-6" d="M243.653,450.843a3.945,3.945,0,0,1-.9,1.72,2.581,2.581,0,0,1-2.089.839,2.807,2.807,0,0,1-2.333-1.073,4.476,4.476,0,0,1-.847-2.852,4.382,4.382,0,0,1,.847-2.818,2.819,2.819,0,0,1,2.333-1.059,2.647,2.647,0,0,1,2.1.814,3.578,3.578,0,0,1,.871,1.533h-1.008a2.648,2.648,0,0,0-.607-1,1.771,1.771,0,0,0-1.36-.474,1.9,1.9,0,0,0-1.62.814,3.655,3.655,0,0,0-.591,2.194,3.762,3.762,0,0,0,.591,2.228,1.884,1.884,0,0,0,1.62.829,1.728,1.728,0,0,0,1.36-.525,2.6,2.6,0,0,0,.617-1.164Z" transform="translate(-237.488 -445.598)"/>
        <path id="패스_9182" data-name="패스 9182" class="cls-6" d="M246.645,445.789v2.687a3.243,3.243,0,0,1,.8-.61,1.933,1.933,0,0,1,1.2-.2,1.435,1.435,0,0,1,1.164.72,2.453,2.453,0,0,1,.343,1.179v3.668h-.9v-3.247a1.591,1.591,0,0,0-.284-1.055,1.11,1.11,0,0,0-.879-.325,1.336,1.336,0,0,0-1.018.455,1.566,1.566,0,0,0-.421,1.1v3.068h-.9v-7.444Z" transform="translate(-238.869 -445.63)"/>
        <path id="패스_9183" data-name="패스 9183" class="cls-6" d="M255.517,453.637v-.709a2.106,2.106,0,0,1-.67.629,1.929,1.929,0,0,1-1.052.28,1.854,1.854,0,0,1-1.223-.484,1.885,1.885,0,0,1-.568-1.513v-3.588h.911v3.268a1.531,1.531,0,0,0,.327,1.084,1.092,1.092,0,0,0,.915.3,1.451,1.451,0,0,0,.969-.44,1.591,1.591,0,0,0,.391-1.159v-3.058h.9v5.386Z" transform="translate(-239.915 -446.042)"/>
        <path id="패스_9184" data-name="패스 9184" class="cls-6" d="M259.292,448.205v.63a3.2,3.2,0,0,1,.8-.61,1.939,1.939,0,0,1,1.2-.2,1.437,1.437,0,0,1,1.166.72,2.451,2.451,0,0,1,.341,1.179v3.667h-.9v-3.248a1.591,1.591,0,0,0-.283-1.053,1.111,1.111,0,0,0-.881-.325,1.335,1.335,0,0,0-1.018.455,1.566,1.566,0,0,0-.421,1.1v3.068h-.9v-5.386Z" transform="translate(-240.984 -446.001)"/>
        <path id="패스_9185" data-name="패스 9185" class="cls-6" d="M268.418,448.154h.9v5.095a2.043,2.043,0,0,1-.749,1.814,2.814,2.814,0,0,1-1.629.515,2.487,2.487,0,0,1-1.723-.563,1.829,1.829,0,0,1-.665-1.275h.929a1.056,1.056,0,0,0,.376.7,1.57,1.57,0,0,0,1.091.32,1.435,1.435,0,0,0,1.111-.391,1.564,1.564,0,0,0,.357-1.1v-.78a2.456,2.456,0,0,1-.764.59,2.062,2.062,0,0,1-.929.22,2.241,2.241,0,0,1-1.707-.769,2.989,2.989,0,0,1-.03-3.831,2.247,2.247,0,0,1,1.737-.745,2.2,2.2,0,0,1,.944.2,2.253,2.253,0,0,1,.749.565Zm-2.677,1.139a1.832,1.832,0,0,0-.425,1.309,1.927,1.927,0,0,0,.425,1.333,1.43,1.43,0,0,0,1.12.476,1.447,1.447,0,0,0,1.126-.476,1.917,1.917,0,0,0,.431-1.333,1.823,1.823,0,0,0-.431-1.309,1.488,1.488,0,0,0-1.126-.451A1.472,1.472,0,0,0,265.741,449.293Z" transform="translate(-241.973 -445.992)"/>
        <path id="패스_9186" data-name="패스 9186" class="cls-6" d="M275.874,451.9a2.721,2.721,0,0,1-.772,1.329,2.213,2.213,0,0,1-1.606.57,2.314,2.314,0,0,1-1.869-.815,3.484,3.484,0,0,1,0-4.151,2.306,2.306,0,0,1,1.869-.819,2.21,2.21,0,0,1,1.639.614,2.49,2.49,0,0,1,.739,1.293h-1.027a1.671,1.671,0,0,0-.386-.7,1.2,1.2,0,0,0-.964-.361,1.35,1.35,0,0,0-1.139.57,2.77,2.77,0,0,0,0,2.953,1.353,1.353,0,0,0,1.139.563,1.277,1.277,0,0,0,.9-.315,1.415,1.415,0,0,0,.44-.734Z" transform="translate(-243.082 -446.003)"/>
        <path id="패스_9187" data-name="패스 9187" class="cls-6" d="M278.335,445.789v2.687a3.249,3.249,0,0,1,.8-.61,1.93,1.93,0,0,1,1.2-.2,1.435,1.435,0,0,1,1.164.72,2.453,2.453,0,0,1,.343,1.179v3.668h-.9v-3.247a1.591,1.591,0,0,0-.284-1.055,1.114,1.114,0,0,0-.881-.325,1.335,1.335,0,0,0-1.018.455,1.566,1.566,0,0,0-.421,1.1v3.068h-.9v-7.444Z" transform="translate(-244.168 -445.63)"/>
        <path id="패스_9188" data-name="패스 9188" class="cls-6" d="M287.618,448.773a3.2,3.2,0,0,1,.739,2.452h-4.091a1.8,1.8,0,0,0,.48,1.244,1.428,1.428,0,0,0,1.067.484,1.284,1.284,0,0,0,.909-.284,1.469,1.469,0,0,0,.4-.565h1.048a2.809,2.809,0,0,1-.71,1.149,2.178,2.178,0,0,1-1.63.55,2.352,2.352,0,0,1-1.849-.82,3.02,3.02,0,0,1-.724-2.078,3.072,3.072,0,0,1,.7-2.073,2.325,2.325,0,0,1,1.855-.814A2.515,2.515,0,0,1,287.618,448.773Zm-.279,1.653a1.739,1.739,0,0,0-.441-1.128,1.411,1.411,0,0,0-1.086-.43,1.44,1.44,0,0,0-1.042.39,1.807,1.807,0,0,0-.485,1.168Z" transform="translate(-245.142 -446.003)"/>
        <path id="패스_9189" data-name="패스 9189" class="cls-6" d="M291.972,448.019a2.3,2.3,0,0,1,1.865.814,3.509,3.509,0,0,1,0,4.151,2.533,2.533,0,0,1-3.732,0,3.485,3.485,0,0,1,0-4.151A2.313,2.313,0,0,1,291.972,448.019Zm-1.135,1.412a2.747,2.747,0,0,0,0,2.953,1.357,1.357,0,0,0,1.135.569,1.339,1.339,0,0,0,1.136-.569,2.8,2.8,0,0,0,0-2.953,1.345,1.345,0,0,0-1.136-.564A1.363,1.363,0,0,0,290.837,449.431Z" transform="translate(-246.172 -446.003)"/>
        <path id="패스_9190" data-name="패스 9190" class="cls-6" d="M297.008,448.205v.63a3.236,3.236,0,0,1,.8-.61,1.939,1.939,0,0,1,1.2-.2,1.434,1.434,0,0,1,1.164.72,2.444,2.444,0,0,1,.342,1.179v3.667h-.9v-3.248a1.592,1.592,0,0,0-.282-1.053,1.112,1.112,0,0,0-.881-.325,1.335,1.335,0,0,0-1.018.455,1.566,1.566,0,0,0-.421,1.1v3.068h-.9v-5.386Z" transform="translate(-247.291 -446.001)"/>
        <path id="패스_9191" data-name="패스 9191" class="cls-6" d="M306.135,448.154h.9v5.095a2.043,2.043,0,0,1-.749,1.814,2.812,2.812,0,0,1-1.63.515,2.482,2.482,0,0,1-1.721-.563,1.828,1.828,0,0,1-.666-1.275h.93a1.056,1.056,0,0,0,.376.7,1.57,1.57,0,0,0,1.091.32,1.434,1.434,0,0,0,1.111-.391,1.567,1.567,0,0,0,.357-1.1v-.78a2.465,2.465,0,0,1-.764.59,2.061,2.061,0,0,1-.929.22,2.239,2.239,0,0,1-1.708-.769,2.986,2.986,0,0,1-.03-3.831,2.248,2.248,0,0,1,1.738-.745,2.2,2.2,0,0,1,.943.2,2.248,2.248,0,0,1,.75.565Zm-2.677,1.139a1.832,1.832,0,0,0-.426,1.309,1.928,1.928,0,0,0,.426,1.333,1.563,1.563,0,0,0,2.245,0,1.913,1.913,0,0,0,.431-1.333,1.819,1.819,0,0,0-.431-1.309,1.487,1.487,0,0,0-1.125-.451A1.472,1.472,0,0,0,303.458,449.293Z" transform="translate(-248.28 -445.992)"/>
        <path id="패스_9192" data-name="패스 9192" class="cls-6" d="M310.08,453.233h-.9v-7.444h.9v2.667a2.279,2.279,0,0,1,3.44.011,3.57,3.57,0,0,1,0,4.161,2.17,2.17,0,0,1-1.747.8,2.176,2.176,0,0,1-1.693-.779Zm.411-4.146a2.832,2.832,0,0,0,0,2.937,1.377,1.377,0,0,0,1.145.519,1.334,1.334,0,0,0,1.14-.55,2.759,2.759,0,0,0,0-2.877,1.338,1.338,0,0,0-1.14-.55A1.376,1.376,0,0,0,310.491,449.087Z" transform="translate(-249.477 -445.63)"/>
        <path id="패스_9193" data-name="패스 9193" class="cls-6" d="M319.266,453.637v-.709a2.115,2.115,0,0,1-.67.629,1.932,1.932,0,0,1-1.053.28,1.852,1.852,0,0,1-1.223-.484,1.879,1.879,0,0,1-.568-1.513v-3.588h.911v3.268a1.535,1.535,0,0,0,.326,1.084,1.094,1.094,0,0,0,.915.3,1.449,1.449,0,0,0,.969-.44,1.588,1.588,0,0,0,.392-1.159v-3.058h.9v5.386Z" transform="translate(-250.576 -446.042)"/>
        <path id="패스_9194" data-name="패스 9194" class="cls-6" d="M323.04,453.233h-.9v-7.444h.9v4.286l2.318-2.3H326.5l-2.164,2.189,2.565,3.268h-1.047l-2.134-2.7-.685.63Z" transform="translate(-251.644 -445.63)"/>
        <path id="패스_9195" data-name="패스 9195" class="cls-6" d="M329.431,450.466h-2.243v-.9h2.243Z" transform="translate(-252.488 -446.262)"/>
        <path id="패스_9196" data-name="패스 9196" class="cls-6" d="M334.493,453.233v-.58a2.329,2.329,0,0,1-.749.575,2.3,2.3,0,0,1-2.691-.6,3.566,3.566,0,0,1,0-4.161,2.185,2.185,0,0,1,1.747-.789,2.15,2.15,0,0,1,.944.2,2.338,2.338,0,0,1,.749.574v-2.667h.9v7.444Zm0-2.677a2.311,2.311,0,0,0-.411-1.469,1.374,1.374,0,0,0-1.144-.52,1.346,1.346,0,0,0-1.144.55,2.717,2.717,0,0,0,0,2.877,1.342,1.342,0,0,0,1.144.55,1.375,1.375,0,0,0,1.144-.519A2.313,2.313,0,0,0,334.493,450.556Z" transform="translate(-253.023 -445.63)"/>
        <path id="패스_9197" data-name="패스 9197" class="cls-6" d="M339.522,448.019a2.3,2.3,0,0,1,1.864.814,3.5,3.5,0,0,1,0,4.151,2.533,2.533,0,0,1-3.733,0,3.485,3.485,0,0,1,0-4.151A2.314,2.314,0,0,1,339.522,448.019Zm-1.136,1.412a2.751,2.751,0,0,0,0,2.953,1.357,1.357,0,0,0,1.136.569,1.338,1.338,0,0,0,1.135-.569,2.8,2.8,0,0,0,0-2.953,1.344,1.344,0,0,0-1.135-.564A1.363,1.363,0,0,0,338.386,449.431Z" transform="translate(-254.124 -446.003)"/>
        <path id="패스_9198" data-name="패스 9198" class="cls-6" d="M352.607,449.485a4.4,4.4,0,0,1-.871,2.853,2.859,2.859,0,0,1-2.338,1.073,2.828,2.828,0,0,1-2.335-1.073,4.451,4.451,0,0,1-.856-2.853,4.372,4.372,0,0,1,.856-2.823A2.835,2.835,0,0,1,349.4,445.6a2.866,2.866,0,0,1,2.338,1.063A4.321,4.321,0,0,1,352.607,449.485Zm-1,0a3.679,3.679,0,0,0-.593-2.188,2,2,0,0,0-3.248,0,3.679,3.679,0,0,0-.592,2.188,3.743,3.743,0,0,0,.592,2.214,2,2,0,0,0,3.248,0A3.743,3.743,0,0,0,351.608,449.485Z" transform="translate(-255.669 -445.598)"/>
        <path id="패스_9199" data-name="패스 9199" class="cls-6" d="M354.055,448.687v-.8h.646v-.63a3.408,3.408,0,0,1,.043-.635,1.041,1.041,0,0,1,.182-.395,1.393,1.393,0,0,1,.326-.31.823.823,0,0,1,.475-.13h.625v.8c-.083,0-.18,0-.287.006a.39.39,0,0,0-.278.124.478.478,0,0,0-.158.285,3.514,3.514,0,0,0-.018.386v.5h.742v.8h-.742v4.546h-.91v-4.546Z" transform="translate(-256.981 -445.63)"/>
        <path id="패스_9200" data-name="패스 9200" class="cls-6" d="M356.891,448.687v-.8h.646v-.63a3.332,3.332,0,0,1,.043-.635,1.048,1.048,0,0,1,.181-.395,1.417,1.417,0,0,1,.328-.31.825.825,0,0,1,.475-.13h.626v.8c-.084,0-.181,0-.288.006a.394.394,0,0,0-.279.124.485.485,0,0,0-.157.285,3.289,3.289,0,0,0-.019.386v.5h.744v.8h-.744v4.546h-.909v-4.546Z" transform="translate(-257.455 -445.63)"/>
        <path id="패스_9201" data-name="패스 9201" class="cls-6" d="M360.313,453.205V447.76h.9v5.446Zm0-6.545v-1h.9v1Z" transform="translate(-258.028 -445.609)"/>
        <path id="패스_9202" data-name="패스 9202" class="cls-6" d="M366.912,451.9a2.725,2.725,0,0,1-.771,1.329,2.213,2.213,0,0,1-1.606.57,2.313,2.313,0,0,1-1.869-.815,3.485,3.485,0,0,1,0-4.151,2.305,2.305,0,0,1,1.869-.819,2.214,2.214,0,0,1,1.639.614,2.494,2.494,0,0,1,.738,1.293h-1.026a1.692,1.692,0,0,0-.387-.7,1.2,1.2,0,0,0-.964-.361,1.354,1.354,0,0,0-1.141.57,2.774,2.774,0,0,0,0,2.953,1.357,1.357,0,0,0,1.141.563,1.271,1.271,0,0,0,.9-.315,1.416,1.416,0,0,0,.441-.734Z" transform="translate(-258.307 -446.003)"/>
        <path id="패스_9203" data-name="패스 9203" class="cls-6" d="M372.27,448.773a3.191,3.191,0,0,1,.74,2.452h-4.09a1.8,1.8,0,0,0,.48,1.244,1.426,1.426,0,0,0,1.066.484,1.282,1.282,0,0,0,.909-.284,1.484,1.484,0,0,0,.4-.565h1.046a2.8,2.8,0,0,1-.71,1.149,2.174,2.174,0,0,1-1.628.55,2.358,2.358,0,0,1-1.85-.82,3.024,3.024,0,0,1-.725-2.078,3.072,3.072,0,0,1,.7-2.073,2.327,2.327,0,0,1,1.855-.814A2.51,2.51,0,0,1,372.27,448.773Zm-.278,1.653a1.735,1.735,0,0,0-.441-1.128,1.41,1.41,0,0,0-1.086-.43,1.444,1.444,0,0,0-1.042.39,1.8,1.8,0,0,0-.485,1.168Z" transform="translate(-259.298 -446.003)"/>
        <path id="패스_9204" data-name="패스 9204" class="cls-6" d="M379.5,448.019a2.3,2.3,0,0,1,1.865.814,3.509,3.509,0,0,1,0,4.151,2.533,2.533,0,0,1-3.732,0,3.481,3.481,0,0,1,0-4.151A2.313,2.313,0,0,1,379.5,448.019Zm-1.134,1.412a2.747,2.747,0,0,0,0,2.953,1.417,1.417,0,0,0,2.27,0,2.8,2.8,0,0,0,0-2.953,1.424,1.424,0,0,0-2.27,0Z" transform="translate(-260.808 -446.003)"/>
        <path id="패스_9205" data-name="패스 9205" class="cls-6" d="M382.966,448.687v-.8h.646v-.63a3.408,3.408,0,0,1,.043-.635,1.04,1.04,0,0,1,.182-.395,1.41,1.41,0,0,1,.326-.31.828.828,0,0,1,.476-.13h.625v.8c-.084,0-.181,0-.288.006a.392.392,0,0,0-.278.124.481.481,0,0,0-.157.285,3.289,3.289,0,0,0-.019.386v.5h.743v.8h-.743v4.546h-.91v-4.546Z" transform="translate(-261.816 -445.63)"/>
        <path id="패스_9206" data-name="패스 9206" class="cls-6" d="M389.291,453.233v-7.444h4.843v.889H390.19v2.258h3.767v.88H390.19v2.537h4.022v.88Z" transform="translate(-262.873 -445.63)"/>
        <path id="패스_9207" data-name="패스 9207" class="cls-6" d="M399.548,453.233v-.58a2.332,2.332,0,0,1-.747.575,2.3,2.3,0,0,1-2.692-.6,3.563,3.563,0,0,1,0-4.161,2.313,2.313,0,0,1,2.692-.585,2.341,2.341,0,0,1,.747.574v-2.667h.9v7.444Zm0-2.677a2.311,2.311,0,0,0-.411-1.469,1.372,1.372,0,0,0-1.144-.52,1.35,1.35,0,0,0-1.145.55,2.73,2.73,0,0,0,0,2.877,1.346,1.346,0,0,0,1.145.55,1.373,1.373,0,0,0,1.144-.519A2.313,2.313,0,0,0,399.548,450.556Z" transform="translate(-263.901 -445.63)"/>
        <path id="패스_9208" data-name="패스 9208" class="cls-6" d="M405.974,453.637v-.709a2.132,2.132,0,0,1-.67.629,1.929,1.929,0,0,1-1.052.28,1.853,1.853,0,0,1-1.223-.484,1.882,1.882,0,0,1-.567-1.513v-3.588h.909v3.268a1.527,1.527,0,0,0,.328,1.084,1.093,1.093,0,0,0,.915.3,1.451,1.451,0,0,0,.969-.44,1.6,1.6,0,0,0,.391-1.159v-3.058h.9v5.386Z" transform="translate(-265.076 -446.042)"/>
        <path id="패스_9209" data-name="패스 9209" class="cls-6" d="M413.26,451.9a2.736,2.736,0,0,1-.774,1.329,2.209,2.209,0,0,1-1.6.57,2.317,2.317,0,0,1-1.87-.815,3.491,3.491,0,0,1,0-4.151,2.309,2.309,0,0,1,1.87-.819,2.207,2.207,0,0,1,1.638.614,2.5,2.5,0,0,1,.74,1.293h-1.028a1.671,1.671,0,0,0-.386-.7,1.2,1.2,0,0,0-.964-.361,1.351,1.351,0,0,0-1.14.57,2.779,2.779,0,0,0,0,2.953,1.353,1.353,0,0,0,1.14.563,1.275,1.275,0,0,0,.9-.315,1.418,1.418,0,0,0,.441-.734Z" transform="translate(-266.057 -446.003)"/>
        <path id="패스_9210" data-name="패스 9210" class="cls-6" d="M419.031,452.743a2.393,2.393,0,0,0,.195.86h-.958a1.2,1.2,0,0,1-.132-.37,2.222,2.222,0,0,1-.034-.391,2.7,2.7,0,0,1-.744.63,2.4,2.4,0,0,1-1.105.33,2.357,2.357,0,0,1-1.326-.29,1.352,1.352,0,0,1-.67-1.059,1.451,1.451,0,0,1,.27-1.17,1.99,1.99,0,0,1,.924-.588,3.855,3.855,0,0,1,.959-.179,7.121,7.121,0,0,0,.939-.122,3.911,3.911,0,0,0,.5-.134c.166-.057.25-.2.25-.446a1,1,0,0,0-.289-.674,1.309,1.309,0,0,0-1.013-.325,1.5,1.5,0,0,0-1.038.3.8.8,0,0,0-.264.73h-.939a1.393,1.393,0,0,1,.622-1.363,2.823,2.823,0,0,1,1.619-.464,2.679,2.679,0,0,1,1.556.464,1.5,1.5,0,0,1,.675,1.3Zm-.929-1.938a.662.662,0,0,1-.206.145,1.425,1.425,0,0,1-.313.116,8.122,8.122,0,0,1-.809.124,3.449,3.449,0,0,0-.708.135,1.794,1.794,0,0,0-.665.355.7.7,0,0,0-.187.635.669.669,0,0,0,.406.574,1.57,1.57,0,0,0,.729.115,1.932,1.932,0,0,0,1.307-.55,1.384,1.384,0,0,0,.445-.9Z" transform="translate(-267.045 -446.003)"/>
        <path id="패스_9211" data-name="패스 9211" class="cls-6" d="M421.849,451.7c0,.147,0,.269.009.365a.506.506,0,0,0,.436.415,2.635,2.635,0,0,0,.3.021v.8h-.627a.827.827,0,0,1-.474-.129,1.422,1.422,0,0,1-.328-.311,1.143,1.143,0,0,1-.181-.4,3.243,3.243,0,0,1-.044-.63v-3.078h-.646v-.8h.646v-1.7h.91v1.7h.744v.8h-.744Z" transform="translate(-268.058 -445.708)"/>
        <path id="패스_9212" data-name="패스 9212" class="cls-6" d="M423.716,453.205V447.76h.9v5.446Zm0-6.545v-1h.9v1Z" transform="translate(-268.63 -445.609)"/>
        <path id="패스_9213" data-name="패스 9213" class="cls-6" d="M427.9,448.019a2.3,2.3,0,0,1,1.865.814,3.505,3.505,0,0,1,0,4.151,2.534,2.534,0,0,1-3.733,0,3.488,3.488,0,0,1,0-4.151A2.316,2.316,0,0,1,427.9,448.019Zm-1.135,1.412a2.751,2.751,0,0,0,0,2.953,1.358,1.358,0,0,0,1.135.569,1.337,1.337,0,0,0,1.135-.569,2.8,2.8,0,0,0,0-2.953,1.343,1.343,0,0,0-1.135-.564A1.364,1.364,0,0,0,426.76,449.431Z" transform="translate(-268.902 -446.003)"/>
        <path id="패스_9214" data-name="패스 9214" class="cls-6" d="M432.931,448.205v.63a3.235,3.235,0,0,1,.8-.61,1.938,1.938,0,0,1,1.2-.2,1.432,1.432,0,0,1,1.164.72,2.434,2.434,0,0,1,.342,1.179v3.667h-.9v-3.248a1.577,1.577,0,0,0-.285-1.053,1.1,1.1,0,0,0-.879-.325,1.335,1.335,0,0,0-1.018.455,1.566,1.566,0,0,0-.421,1.1v3.068h-.9v-5.386Z" transform="translate(-270.021 -446.001)"/>
      </g>
      <g id="그룹_6922" data-name="그룹 6922">
        <path id="패스_9215" data-name="패스 9215" class="cls-6" d="M245.755,425.729s1.731,2.164,8.224,2.308l1.586-1.587s-6.79,0-7.843-2.308h6.689V422.41H247.2v-2.164h-2.742v2.164H237.53v1.731h6.73c-.3.8-1.735,2.123-8.028,2.019l1.443,1.731S243.734,428.325,245.755,425.729Z" transform="translate(-234.885 -420.246)"/>
        <path id="패스_9216" data-name="패스 9216" class="cls-6" d="M234.615,432.738h9.518v.923c-2.275.463-3.939,1.919-3.939,3.647,0,2.1,2.455,3.8,5.482,3.8s5.482-1.7,5.482-3.8c0-1.728-1.663-3.184-3.939-3.647v-.923h9.422v-1.924H234.615Zm13.6,4.569a2.544,2.544,0,1,1-2.488-2.013A2.288,2.288,0,0,1,248.213,437.307Z" transform="translate(-234.615 -422.013)"/>
        <path id="패스_9217" data-name="패스 9217" class="cls-6" d="M279.176,432.9c-3.2,0-5.8,1.844-5.8,4.116s2.6,4.117,5.8,4.117,5.8-1.844,5.8-4.117S282.378,432.9,279.176,432.9Zm.051,6.3a2.218,2.218,0,1,1,2.632-2.179A2.437,2.437,0,0,1,279.227,439.194Z" transform="translate(-241.097 -422.362)"/>
        <path id="패스_9218" data-name="패스 9218" class="cls-6" d="M277.236,430.32l1.815-1.389s-5.079-.784-5.52-3.844h4.345v-1.815h-4.592V420.71h-2.99v2.562h-4.7v1.815H270.2c-.281.979-1.407,3.34-5.784,3.844l1.923,1.389s3.844-.428,5.553-2.884C271.9,427.436,272.857,429.786,277.236,430.32Z" transform="translate(-239.599 -420.324)"/>
        <path id="패스_9219" data-name="패스 9219" class="cls-6" d="M284.251,425.878h-4.7v1.815h4.7v3.417h2.99V420.966h-2.99Z" transform="translate(-242.13 -420.366)"/>
        <path id="패스_9220" data-name="패스 9220" class="cls-6" d="M427.3,433.072c-3.2,0-5.8,1.842-5.8,4.116s2.6,4.116,5.8,4.116,5.8-1.842,5.8-4.116S430.506,433.072,427.3,433.072Zm.051,6.295a2.218,2.218,0,1,1,2.631-2.179A2.437,2.437,0,0,1,427.354,439.367Z" transform="translate(-265.868 -422.391)"/>
        <path id="패스_9221" data-name="패스 9221" class="cls-6" d="M425.363,430.494l1.816-1.389s-5.08-.784-5.52-3.844H426v-1.815h-4.593v-2.563h-2.99v2.563h-4.7v1.815h4.609c-.281.978-1.406,3.339-5.783,3.844l1.922,1.389s3.846-.428,5.553-2.884C420.024,427.61,420.987,429.958,425.363,430.494Z" transform="translate(-264.37 -420.352)"/>
        <path id="패스_9222" data-name="패스 9222" class="cls-6" d="M432.379,421.139v4.912h-4.7v1.816h4.7v3.416h2.99V421.139Z" transform="translate(-266.901 -420.395)"/>
        <path id="패스_9223" data-name="패스 9223" class="cls-6" d="M394.969,428.565c3.2,0,5.8-1.842,5.8-4.116s-2.6-4.116-5.8-4.116-5.8,1.842-5.8,4.116S391.766,428.565,394.969,428.565Zm.051-6.295a2.217,2.217,0,1,1-2.631,2.179A2.437,2.437,0,0,1,395.019,422.27Z" transform="translate(-260.461 -420.261)"/>
        <path id="패스_9224" data-name="패스 9224" class="cls-6" d="M299.021,428.74h12.921s1.922,0,1.815-1.6v-5.66h-2.883v2.029H300.73v-1.815h-3.1v5.553S297.847,428.632,299.021,428.74Zm11.854-3.418v1.708H300.73v-1.708Z" transform="translate(-245.153 -420.452)"/>
        <path id="패스_9225" data-name="패스 9225" class="cls-6" d="M294.17,433.661h9.185v1.275h-6.622v1.925h13.348v3.954h3.1v-5.879h-6.514v-1.275h9.291v-1.929H294.17Z" transform="translate(-244.574 -422.167)"/>
        <path id="패스_9226" data-name="패스 9226" class="cls-6" d="M330.458,430.47h13.135v-1.815H330.245v-4.7h13.241v-1.709H327.254v5.766C327.254,431.005,330.458,430.47,330.458,430.47Z" transform="translate(-250.107 -420.581)"/>
        <path id="패스_9227" data-name="패스 9227" class="cls-6" d="M336.267,433.66h-3.1v3.524h-9.5V439h22v-1.815h-9.4Z" transform="translate(-249.506 -422.489)"/>
        <path id="패스_9228" data-name="패스 9228" class="cls-6" d="M370.075,429.808s-.178,3.116-1.158,3.74h2.85a5.959,5.959,0,0,0,1.336-4.275v-6.859H356.537V424.2h13.538Z" transform="translate(-255.004 -420.609)"/>
        <path id="패스_9229" data-name="패스 9229" class="cls-6" d="M367.27,429.367h-2.939v7.1h-2.494v-7.1H358.9v7.1h-5.288v1.815h21.644v-1.815H367.27Z" transform="translate(-254.514 -421.771)"/>
        <path id="패스_9230" data-name="패스 9230" class="cls-6" d="M382.954,433.289h6.056V434.9h-3.237v1.9h13.348v3.9h3.1V434.9h-3.143v-1.608h5.7V431.5H382.954Zm13,1.608h-4.1v-1.608h4.1Z" transform="translate(-259.421 -422.128)"/>
      </g>
    </g>
  </g>
</svg>
