<svg xmlns="http://www.w3.org/2000/svg" width="186.474" height="54.47" viewBox="0 0 186.474 54.47">
  <defs>
    <style>
      .cls-1 {
        fill: #008d68;
      }

      .cls-2 {
        fill: #ffae00;
      }

      .cls-3 {
        fill: #003a87;
      }

      .cls-4 {
        fill: #1a1311;
      }
    </style>
  </defs>
  <g id="그룹_6840" data-name="그룹 6840" transform="translate(-106.999 -337.611)">
    <g id="그룹_6838" data-name="그룹 6838" transform="translate(106.999 337.611)">
      <path id="패스_8621" data-name="패스 8621" class="cls-1" d="M240.807,354.792c0-1.8.853-1.828.643-3.613s.279-1.844.068-3.628-.52-1.749-.731-3.535.676-2.491-.4-3.93c-.563-.75-1.184,1.43-2.06,1.764l-.061.2c.019-.034.043-.066.061-.1,0,0,3.552,21.5-30.978,37.586l-.076.033c.676.287.7.857,1.661,1.022,1.133.193,1.373-.928,2.505-.735s1.1.38,2.236.581c1.529.272,1.384,1.078,2.911,1.358s1.522.311,3.049.591,1.564.078,3.091.359c1.452.266,1.41.647,3.054.658,1.884.012,1.817-.9,3.683-1.159s1.875-.195,3.742-.453a15.766,15.766,0,0,1,3.8-.478c1.981.054,2.259,1.044,3.824-.006.711-.477.391-1.211.127-2.027s-.667-.816-.933-1.631.251-.851-.014-1.666a7.453,7.453,0,0,1-.366-2.163c-.066-1.075-.488-.845-.338-1.911s-.458-.5-.307-1.568.327-1.059.477-2.125.784-.955.94-2.021c.207-1.415-1.135-1.614-.923-3.029s.664-1.347.876-2.762-.067-1.457.147-2.872A12,12,0,0,0,240.807,354.792Z" transform="translate(-159.871 -338.833)"/>
      <path id="패스_8622" data-name="패스 8622" class="cls-2" d="M224.355,341.142c-.876.334-1.294-.759-2.171-.425s-.622.814-1.558.879c-1.145.081-1.279-.476-2.411-.669s-1.067.832-2.2.639-1.138.1-2.27-.1-1.061-.621-2.192-.822c-1.529-.272-1.482-.537-3.009-.818s-1.68.551-3.207.271-1.407-.94-2.935-1.22-1.472-1.259-3.025-1.27c-1.883-.012-1.906.555-3.772.814s-1.782.874-3.647,1.133-1.916-.1-3.782.159-1.379-1.662-2.912-.566c-.751.536-.493,1.961-.225,2.844s.485.816.752,1.7-.39,1.081-.124,1.965.99.723,1.046,1.644c.065,1.075-.488.651-.638,1.717s-.514,1.41-.664,2.477.364,1.139.214,2.205-.191,1.06-.347,2.125c-.208,1.415.5,1.521.287,2.936s-1.07,1.132-1.282,2.546.58,1.688.366,3.1a12.311,12.311,0,0,0-.436,2.746,15.583,15.583,0,0,0,.256,3.04c3.159-3.773,5.676-6.272,5.676-6.272s7.464-8.251,26.475-15.748l.109-.044s6.912-2.773,9.378-7.3l.061-.2A7.44,7.44,0,0,0,224.355,341.142Z" transform="translate(-147.712 -337.611)"/>
      <path id="패스_8623" data-name="패스 8623" class="cls-3" d="M132.671,436.04a42.246,42.246,0,0,1,3.306-6.714h-.209c-15.889,0-28.769,2.489-28.769,5.558s12.88,5.557,28.769,5.557,28.769-2.488,28.769-5.557c0-2.457-8.26-4.541-19.706-5.275-.91.232-1.5.376-1.5.376A25.948,25.948,0,0,0,132.671,436.04Z" transform="translate(-106.999 -385.97)"/>
    </g>
    <g id="그룹_6839" data-name="그룹 6839" transform="translate(204.073 351.854)">
      <path id="패스_8624" data-name="패스 8624" class="cls-4" d="M352.379,369.79h-3.934v12.873h3.934V377.24h3.643v-3.465h-3.643Z" transform="translate(-331.384 -368.821)"/>
      <path id="패스_8625" data-name="패스 8625" class="cls-4" d="M334.379,399.4c-4.013,0-7.268,2.8-7.268,6.91s3.255,6.911,7.268,6.911,7.268-2.8,7.268-6.911S338.393,399.4,334.379,399.4Zm0,10.278a3.369,3.369,0,1,1,3.452-3.368A3.263,3.263,0,0,1,334.379,409.68Z" transform="translate(-320.134 -384.435)"/>
      <path id="패스_8626" data-name="패스 8626" class="cls-4" d="M319.99,382.861h3.934V370.406H312.353v3.466h7.637Z" transform="translate(-312.353 -369.146)"/>
      <path id="패스_8627" data-name="패스 8627" class="cls-4" d="M416.215,390.341h3.936V369.7h-3.936v5.62h-3.569v3.3h3.569Z" transform="translate(-365.235 -368.773)"/>
      <path id="패스_8628" data-name="패스 8628" class="cls-4" d="M390.6,378.289c3.378,0,6.116-1.895,6.116-5.274s-2.738-5.274-6.116-5.274-6.116,1.9-6.116,5.274S387.218,378.289,390.6,378.289Zm0-7.434a2.184,2.184,0,1,1-2.5,2.16A2.234,2.234,0,0,1,390.6,370.855Z" transform="translate(-350.384 -367.741)"/>
      <path id="패스_8629" data-name="패스 8629" class="cls-4" d="M396.342,408.52H392.4v5.821h.005a2.019,2.019,0,0,0,2.018,2.007h15.5V412.88H396.342Z" transform="translate(-354.563 -389.243)"/>
      <path id="패스_8630" data-name="패스 8630" class="cls-4" d="M387.391,397.978h3.937V394.91h5.512v-3.3H382.9v3.3h4.495Z" transform="translate(-349.549 -380.326)"/>
      <path id="패스_8631" data-name="패스 8631" class="cls-4" d="M468.764,392.92v-7.789h7.983v-3.467H460.409v-7.495h16.353V370.7H456.294v12.42h0a2.019,2.019,0,0,0,2.018,2.008h6.335v7.789h-8.927v3.465H477.35V392.92Z" transform="translate(-387.95 -369.303)"/>
    </g>
  </g>
</svg>
