<svg xmlns="http://www.w3.org/2000/svg" xmlns:xlink="http://www.w3.org/1999/xlink" width="220.226" height="56.796" viewBox="0 0 220.226 56.796">
  <defs>
    <style>
      .cls-1 {
        fill: #0052a0;
      }

      .cls-2 {
        fill: url(#linear-gradient);
      }

      .cls-3 {
        fill: #757474;
      }
    </style>
    <linearGradient id="linear-gradient" x1="0.943" y1="0.034" x2="0.231" y2="0.943" gradientUnits="objectBoundingBox">
      <stop offset="0" stop-color="#0052a0"/>
      <stop offset="0.557" stop-color="#0052a0"/>
      <stop offset="1" stop-color="#fff"/>
    </linearGradient>
  </defs>
  <g id="그룹_6637" data-name="그룹 6637" transform="translate(-158.243 -197.15)">
    <g id="그룹_6633" data-name="그룹 6633" transform="translate(158.243 197.15)">
      <g id="그룹_6632" data-name="그룹 6632">
        <g id="그룹_6631" data-name="그룹 6631" transform="translate(0 14.192)">
          <rect id="사각형_2289" data-name="사각형 2289" class="cls-1" width="4.926" height="23.92" transform="translate(0 0.185)"/>
          <path id="패스_7668" data-name="패스 7668" class="cls-1" d="M195.715,232.092l-16.928,11.132a.9.9,0,0,0,0,1.655l16.928,11.133H187.5l-13.168-8.665a3.662,3.662,0,0,1,0-6.589l13.168-8.665Z" transform="translate(-166.5 -231.907)"/>
          <path id="패스_7669" data-name="패스 7669" class="cls-1" d="M263.285,238.951c0-4.325-4.117-6.859-9.575-6.859H232.079v3.4h20.585c2.978,0,5.4,1.12,5.4,3.458s-2.42,3.458-5.4,3.458h-7.5c-2.309,0-4.11.67-4.82,1.794-.55.87-.667,2.265,1.9,3.948l11.97,7.86h8.21l-15.54-10.2h6.829C259.167,245.81,263.285,243.275,263.285,238.951Z" transform="translate(-201.699 -231.907)"/>
          <path id="패스_7670" data-name="패스 7670" class="cls-1" d="M345.129,255.747l-14.5-21.765a5.343,5.343,0,0,0-8.839,0l-14.5,21.765h6.069s10.809-16.226,12.852-19.287c2.038,3.061,12.847,19.287,12.847,19.287Z" transform="translate(-245.963 -231.642)"/>
        </g>
        <path id="패스_7671" data-name="패스 7671" class="cls-2" d="M230.837,233.117a35.792,35.792,0,0,0,6.608,20.828l3.369-2.388a31.887,31.887,0,0,1,26.056-50.278l.006-4.129A36.046,36.046,0,0,0,230.837,233.117Z" transform="translate(-200.968 -197.15)"/>
      </g>
    </g>
    <g id="그룹_6636" data-name="그룹 6636" transform="translate(266.976 211.265)">
      <g id="그룹_6634" data-name="그룹 6634" transform="translate(0)">
        <path id="패스_7672" data-name="패스 7672" class="cls-3" d="M435.41,236.375v-2.04h-4.687v-2.881h-3.532v2.881h-4.686v2.04h3.025l-.176.14a5.7,5.7,0,0,0-1.471,1.8,4.871,4.871,0,0,0-.566,2.305,5.139,5.139,0,0,0,1.664,3.817,5.755,5.755,0,0,0,7.966,0,5.157,5.157,0,0,0,1.651-3.819,4.889,4.889,0,0,0-.566-2.305,5.716,5.716,0,0,0-1.473-1.8l-.174-.14Zm-4.841,6.691h0a1.954,1.954,0,0,1-1.6,1.057,1.977,1.977,0,0,1-1.608-1.057,4.326,4.326,0,0,1-.692-2.45,4.279,4.279,0,0,1,.692-2.44,1.985,1.985,0,0,1,1.608-1.041,1.956,1.956,0,0,1,1.6,1.042,4.35,4.35,0,0,1,.678,2.439A4.406,4.406,0,0,1,430.569,243.066Z" transform="translate(-422.505 -231.454)"/>
        <path id="패스_7673" data-name="패스 7673" class="cls-3" d="M447.7,279.306v-2.068H436.027v-5.574h-3.535v5.1a2.391,2.391,0,0,0,2.487,2.54Z" transform="translate(-428.383 -255.119)"/>
        <path id="패스_7674" data-name="패스 7674" class="cls-3" d="M462.426,232.092h-3.534v17.641h3.534V239.709h3.69v-2.068h-3.69Z" transform="translate(-443.921 -231.829)"/>
      </g>
      <path id="패스_7675" data-name="패스 7675" class="cls-3" d="M499.086,243.61v-2.067h-3.6l.085-.122a4.918,4.918,0,0,0,.617-1.647,9.746,9.746,0,0,0,.259-2.156v-5.21H480.874v2.069h12.042v3.246c0,.676-.027,1.352-.079,2.008a6.5,6.5,0,0,1-.371,1.763l-.019.05H478.339v2.067h8.53v4.008h-6.1v2.068h12.09V256.2h3.532v-8.585H490.4V243.61Z" transform="translate(-455.366 -232.015)"/>
      <g id="그룹_6635" data-name="그룹 6635" transform="translate(46.605 0.262)">
        <path id="패스_7676" data-name="패스 7676" class="cls-3" d="M546.949,234H535.772v11.988a2.518,2.518,0,0,0,.672,1.831,2.4,2.4,0,0,0,1.789.683h8.717Zm-7.646,2.067h4.113v10.366H539.3Z" transform="translate(-535.772 -233.215)"/>
        <path id="패스_7677" data-name="패스 7677" class="cls-3" d="M573.723,232.092H570.19v23.925h3.534V240.048h3.691v-2.066h-3.691Z" transform="translate(-556.028 -232.092)"/>
      </g>
      <path id="패스_7678" data-name="패스 7678" class="cls-3" d="M601.742,246.755a6.7,6.7,0,0,1-3.876-2.889,10.034,10.034,0,0,1-1.754-5.946v-4.555h-3.584v4.555a10.146,10.146,0,0,1-1.732,5.934,6.594,6.594,0,0,1-3.893,2.9l1.7,1.576a6.756,6.756,0,0,0,3.5-1.624,5.826,5.826,0,0,0,2.158-3.073l.073-.3.079.3a6.3,6.3,0,0,0,2.187,3.088,6.429,6.429,0,0,0,3.494,1.611Z" transform="translate(-519.26 -232.579)"/>
      <path id="패스_7679" data-name="패스 7679" class="cls-3" d="M629.3,232.092h-3.533v23.925H629.3v-16.1h3.69v-2.069H629.3Z" transform="translate(-542.13 -231.829)"/>
      <path id="패스_7680" data-name="패스 7680" class="cls-3" d="M663.049,231.9v15.132l-.051.019a9.868,9.868,0,0,1-1.691.395,14.158,14.158,0,0,1-2.207.159h-2.907v-1.888l.056-.019a5.634,5.634,0,0,0,2.711-1.975,5.145,5.145,0,0,0,1.055-3.159,4.933,4.933,0,0,0-.437-2.048,5.612,5.612,0,0,0-1.163-1.692l-.135-.135h2.677v-2.043h-4.764v-2.878H652.66v2.878h-4.74V236.7H650.6l-.14.135a5.369,5.369,0,0,0-1.175,1.69,5.224,5.224,0,0,0,.634,5.208,5.486,5.486,0,0,0,2.683,1.951l.056.017v1.915h-4.87v2.069h11.178a9.54,9.54,0,0,0,2.18-.247,10.181,10.181,0,0,0,1.792-.583l.109-.051v7.032h3.538V231.9Zm-8.611,12.145a1.886,1.886,0,0,1-1.569-1.057,4.812,4.812,0,0,1,0-4.847,1.7,1.7,0,0,1,3.155,0,4.921,4.921,0,0,1,0,4.847A1.882,1.882,0,0,1,654.438,244.05Z" transform="translate(-555.094 -231.642)"/>
    </g>
  </g>
</svg>
