<svg xmlns="http://www.w3.org/2000/svg" width="206.661" height="27.072" viewBox="0 0 206.661 27.072">
    <defs>
        <style>
            .cls-1{fill:#004a87}
        </style>
    </defs>
    <g id="partners_logo16" transform="translate(-155.589 -240.945)">
        <g id="그룹_6450" data-name="그룹 6450" transform="translate(216.01 248.606)">
            <path id="패스_6324" data-name="패스 6324" class="cls-1" d="M463.644 265.932h2.344v-2.945a33.244 33.244 0 0 0 4.651-.378v-1.891c-.941.129-2.222.225-3.259.277a4.044 4.044 0 0 0 1.74-3.351 4.258 4.258 0 0 0-8.512 0 4.041 4.041 0 0 0 1.8 3.394h-2.922v2.031h4.158zm-.644-8.287a1.867 1.867 0 1 1 1.845 2.041 1.918 1.918 0 0 1-1.845-2.041z" transform="translate(-328.002 -253.239)"/>
            <path id="사각형_2200" data-name="사각형 2200" class="cls-1" transform="translate(110.515 .404)" d="M0 0h2.378v19.006H0z"/>
            <path id="패스_6325" data-name="패스 6325" class="cls-1" d="M343.916 257.442h-2.9a4.647 4.647 0 1 0 .007 2.126h2.893v3.694h2.376v-9.545h-2.376zm-7.369 3.6a2.541 2.541 0 1 1 2.165-2.525 2.281 2.281 0 0 1-2.165 2.527z" transform="translate(-281.006 -253.313)"/>
            <path id="패스_6326" data-name="패스 6326" class="cls-1" d="M345.978 272.1h-6.069v-1.474h-2.354v8.112h10.8v-8.112h-2.376zm0 4.487h-6.069v-2.443h6.069z" transform="translate(-283.068 -259.545)"/>
            <path id="사각형_2201" data-name="사각형 2201" class="cls-1" transform="translate(78.17 .404)" d="M0 0h2.374v19.006H0z"/>
            <path id="패스_6327" data-name="패스 6327" class="cls-1" d="M358.5 256.588h5.615a9.813 9.813 0 0 1-6.359 7.919l1.218 2.1a12.657 12.657 0 0 0 7.8-12.169H358.5z" transform="translate(-290.512 -253.579)"/>
            <path id="패스_6328" data-name="패스 6328" class="cls-1" d="M439.494 279.059h10.543V271.5h-10.543zm2.33-5.415h5.881v3.264h-5.881z" transform="translate(-320.634 -259.865)"/>
            <path id="패스_6329" data-name="패스 6329" class="cls-1" d="M312.432 272.041h-2.355v7.219h10.757v-2.151h-8.4z" transform="translate(-272.942 -260.065)"/>
            <path id="패스_6330" data-name="패스 6330" class="cls-1" d="M271.86 253.717h-2.35v14.128h2.35v-8.24h2.106v-2.123h-2.106z" transform="translate(-257.992 -253.313)"/>
            <path id="패스_6331" data-name="패스 6331" class="cls-1" d="M325.384 253.717h-2.374v14.128h2.374v-8.24h2.086v-2.123h-2.086z" transform="translate(-277.708 -253.313)"/>
            <path id="패스_6332" data-name="패스 6332" class="cls-1" d="M258.922 272.041h-2.376v7.219H267.3v-2.151h-8.375z" transform="translate(-253.214 -260.065)"/>
            <path id="패스_6333" data-name="패스 6333" class="cls-1" d="M381.473 266.874h6.627v1.334h-4.25v1.972h8.688v1.158h-8.688v5.27h11.209v-1.974H386.2v-1.354h8.708v-5.072h-4.264v-1.334h6.621v-2.031h-15.8z" transform="translate(-299.252 -257.413)"/>
            <path id="패스_6334" data-name="패스 6334" class="cls-1" d="m314.162 264.728 1.412-1.809a9.132 9.132 0 0 1-4.244-7.591v-1.385h-2.493v1.385a9.133 9.133 0 0 1-4.241 7.591l1.404 1.809a11.818 11.818 0 0 0 4.082-4.36 11.6 11.6 0 0 0 4.08 4.36z" transform="translate(-270.922 -253.396)"/>
            <path id="패스_6335" data-name="패스 6335" class="cls-1" d="M413.848 256.375v-2.432h-2.494v2.432c0 5.349-4.554 8.235-4.554 8.235l1.377 1.766a14.515 14.515 0 0 0 4.422-4.868 14.815 14.815 0 0 0 4.424 4.868l1.376-1.766s-4.551-2.886-4.551-8.235z" transform="translate(-308.586 -253.396)"/>
            <path id="패스_6336" data-name="패스 6336" class="cls-1" d="M291.877 254.44H280.3v2.148h8.939s-.1 2.946-1.091 4.057h-9.9v2.03h6.427v3.072h-4.557v2.047h9.715v5.2h2.351v-7.242h-4.978v-3.072h6.872v-2.03h-3.24c.796-1.05 1.007-3.49 1.039-6.21z" transform="translate(-261.213 -253.579)"/>
            <path id="패스_6337" data-name="패스 6337" class="cls-1" d="M260.683 259.046a3.554 3.554 0 0 0-.894-2.4h1.6V254.6h-3.837v-1.527h-2.443v1.527h-3.839v2.046h1.6a3.569 3.569 0 0 0-.892 2.4 4.354 4.354 0 1 0 8.708 0zm-6.343.091a2.006 2.006 0 1 1 2 2.275 2.059 2.059 0 0 1-2-2.275z" transform="translate(-251.27 -253.077)"/>
            <path id="패스_6338" data-name="패스 6338" class="cls-1" d="M445.453 257.931h-2.8a3.668 3.668 0 0 0-.721-1.281h1.6v-2.05h-3.872v-1.527h-2.418v1.527h-3.86v2.046H435a3.464 3.464 0 0 0-.918 2.4 4.373 4.373 0 0 0 8.622 1.032h2.745v3.473h2.331v-10.07h-2.331zm-7 3.481a2.279 2.279 0 1 1 2-2.275 2.067 2.067 0 0 1-2.002 2.275z" transform="translate(-318.382 -253.077)"/>
            <path id="패스_6339" data-name="패스 6339" class="cls-1" d="M473.091 266.617h3.634v1.645h2.32v-14.545h-2.32v10.928h-3.634z" transform="translate(-333.016 -253.313)"/>
            <path id="패스_6340" data-name="패스 6340" class="cls-1" d="M468.414 278.094v-3.381h-2.344v5.532h10.6v-2.151z" transform="translate(-330.428 -261.05)"/>
            <path id="패스_6341" data-name="패스 6341" class="cls-1" d="M390.189 256.171a11.6 11.6 0 0 0 5.6 3.231l.7-1.842c-2.165-.53-5.013-2.215-5.013-4.244h-2.612c0 2.028-2.85 3.714-5.016 4.244l.715 1.842a11.8 11.8 0 0 0 5.626-3.231z" transform="translate(-300.13 -253.165)"/>
        </g>
        <g id="그룹_6452" data-name="그룹 6452" transform="translate(155.589 240.945)">
            <g id="그룹_6451" data-name="그룹 6451">
                <path id="사각형_2202" data-name="사각형 2202" class="cls-1" transform="translate(40.285)" d="M0 0h6.713v26.855H0z"/>
                <path id="패스_6342" data-name="패스 6342" class="cls-1" d="M176.532 249h-7.945l-6.285 7.07v-15.125h-6.713V267.8h6.711v-7.65l7.52 7.65h9l-10.34-10.106z" transform="translate(-155.589 -240.945)"/>
                <path id="패스_6343" data-name="패스 6343" class="cls-1" d="M193.865 268.071c0 4.567 2.482 7.371 7.893 7.371a32.459 32.459 0 0 0 3.789-.2v-4.429a13.938 13.938 0 0 1-1.811 0c-2.748-.3-3.022-1.819-3.022-4.293v-5.378h-6.849z" transform="translate(-169.694 -248.389)"/>
                <path id="사각형_2203" data-name="사각형 2203" class="cls-1" transform="translate(31.02 8.057)" d="M0 0h6.577v4.7H0z"/>
            </g>
            <path id="패스_6344" data-name="패스 6344" d="M197.814 240.945V253.7H186z" transform="translate(-166.794 -240.945)" style="fill:#d9000d"/>
        </g>
    </g>
</svg>
