<svg xmlns="http://www.w3.org/2000/svg" width="202.046" height="69.628" viewBox="0 0 202.046 69.628">
    <defs>
        <style>
            .cls-1{fill:#003567}
        </style>
    </defs>
    <g id="그룹_6524" data-name="그룹 6524" transform="translate(-152.173 -355.883)">
        <g id="그룹_6523" data-name="그룹 6523" transform="translate(152.173 355.883)">
            <g id="그룹_6521" data-name="그룹 6521">
                <g id="그룹_6517" data-name="그룹 6517" transform="translate(55.077 52.866)">
                    <g id="그룹_6516" data-name="그룹 6516">
                        <path id="패스_7577" data-name="패스 7577" class="cls-1" d="m245.89 435.047-2.465 14.025h-7.255a2.265 2.265 0 0 1-1.66-.5 1.5 1.5 0 0 1-.331-1.408l2.145-12.122zm-7.172 2.237-1.681 9.5h3.975l1.671-9.5zm12.751-2.583-2.851 16.231h-2.826l2.852-16.231z" transform="translate(-234.144 -434.609)"/>
                        <path id="패스_7578" data-name="패스 7578" class="cls-1" d="m271.53 435.052-1.315 7.527h-3.691l-.789 4.408h5.012l2.163-12.287h2.833l-1.15 6.451h2.1l1.14-6.451h2.826l-2.87 16.231h-2.808l1.351-7.676h-2.1l-1.346 7.693h-2.846l.341-1.893H265a2.61 2.61 0 0 1-1.717-.454 1.384 1.384 0 0 1-.369-1.408l1.117-6.4h3.669l.634-3.708h-3.648l.353-2.037z" transform="translate(-243.568 -434.609)"/>
                        <path id="패스_7579" data-name="패스 7579" class="cls-1" d="M300.346 442.3a13.493 13.493 0 0 1-2.031 5.249 4.247 4.247 0 0 1-3.507 2.155 2.822 2.822 0 0 1-2.784-2.237 11.729 11.729 0 0 1-.087-5.425 13.4 13.4 0 0 1 1.983-5.274 4.35 4.35 0 0 1 3.57-2.2 2.643 2.643 0 0 1 2.544 1.7 8 8 0 0 1 .533 4.207 15.484 15.484 0 0 1-.221 1.825zm-1.036.892.4-2.093h1.867l1.15-6.44h2.743l-2.882 16.231h-2.743l1.366-7.7zM295.664 438a17.54 17.54 0 0 0-1.124 4.053 16.876 16.876 0 0 0-.34 4.207c.069 1.123.379 1.685.918 1.685q.758 0 1.5-1.685a20.344 20.344 0 0 0 1.144-4.207 17.734 17.734 0 0 0 .325-4.053c-.119-1.119-.417-1.671-.913-1.671-.556.003-1.046.555-1.51 1.671zm13.937-3.341-2.852 16.226h-2.743l2.852-16.226z" transform="translate(-253.018 -434.564)"/>
                        <path id="패스_7580" data-name="패스 7580" class="cls-1" d="M327.646 434.831a12.915 12.915 0 0 0-.119 4.924 4.341 4.341 0 0 0 1.812 2.692l-1.683 1.181a6.063 6.063 0 0 1-1.619-1.645 11.351 11.351 0 0 1-.841-1.469 13.741 13.741 0 0 1-1.361 1.459 11.5 11.5 0 0 1-2.192 1.691l-1.238-1.2a8.223 8.223 0 0 0 2.686-2.578 14.02 14.02 0 0 0 1.733-5.053zm6.718-.124-1.627 9.26h-2.782l.8-4.542h-2.014l.309-1.83h2.026l.5-2.888zm4.166-.005-1.624 9.266h-2.8l1.645-9.266zm-5.891 13.138a8.557 8.557 0 0 0 3.95 1.536l-1.472 1.609a12.467 12.467 0 0 1-3.671-1.222 5.6 5.6 0 0 1-2.254-2.094 8.212 8.212 0 0 1-3.062 2.1 16.579 16.579 0 0 1-4.4 1.3l-.789-1.594a11.95 11.95 0 0 0 4.568-1.562 5.107 5.107 0 0 0 2.81-3.367h2.826a3.27 3.27 0 0 0 1.494 3.293z" transform="translate(-262.447 -434.609)"/>
                    </g>
                    <path id="패스_7581" data-name="패스 7581" class="cls-1" d="m356.672 434.831-.343 1.969a5.822 5.822 0 0 0 .278 3.207 5.005 5.005 0 0 0 1.957 2.361l-1.653 1.16a8.56 8.56 0 0 1-1.732-1.557 6.319 6.319 0 0 1-.943-1.424 10.42 10.42 0 0 1-1.335 1.424 13.753 13.753 0 0 1-2.223 1.583l-1.245-1.187a9.465 9.465 0 0 0 2.633-2.253 7.621 7.621 0 0 0 1.449-3.29l.324-1.995zm3.813-.13h2.8l-.671 3.831h1.467l.678-3.831h2.8l-1.629 9.2h-2.8l.624-3.491h-1.475l-.608 3.491h-2.8l.031-.257zm-5.646 12.117c-.836.294-1.269.675-1.359 1.124-.069.423.255.794.959 1.1a8.793 8.793 0 0 0 3.308.511 10.245 10.245 0 0 0 3.457-.511c.835-.294 1.286-.664 1.359-1.1s-.237-.83-.959-1.124a8.6 8.6 0 0 0-3.282-.5 10.264 10.264 0 0 0-3.483.5zm9.121-1.237c1.109.644 1.593 1.422 1.418 2.361-.16.928-.908 1.7-2.253 2.341a12.76 12.76 0 0 1-5.7 1.088 10.627 10.627 0 0 1-5.362-1.088c-1.129-.64-1.6-1.413-1.434-2.341s.907-1.707 2.253-2.361a13.274 13.274 0 0 1 5.764-1.078 10.572 10.572 0 0 1 5.314 1.078z" transform="translate(-271.97 -434.609)"/>
                    <path id="패스_7582" data-name="패스 7582" class="cls-1" d="m391.179 435.047-.206 1.144h2.684l.275-1.49h2.815l-1.624 9.215h-2.815l.34-1.918h-2.692l-.211 1.17h-7.214a2.361 2.361 0 0 1-1.676-.474 1.5 1.5 0 0 1-.333-1.392l1.106-6.254zm-7.069 1.815-.778 4.429h3.934l.789-4.429zm8.853 3.367.382-2.248h-2.681l-.405 2.248zm-8.879 6.548c-.783.3-1.222.691-1.31 1.134s.222.814.9 1.114a8.23 8.23 0 0 0 3.3.52 9.98 9.98 0 0 0 3.548-.52c.8-.3 1.242-.676 1.307-1.114.085-.443-.219-.83-.91-1.134a8.738 8.738 0 0 0-3.378-.511 9.771 9.771 0 0 0-3.457.511zm9.183-1.243c1.1.661 1.578 1.454 1.408 2.4a3.575 3.575 0 0 1-2.253 2.346 13.148 13.148 0 0 1-5.76 1.093 10.634 10.634 0 0 1-5.352-1.093 2.241 2.241 0 0 1-1.392-2.346 3.606 3.606 0 0 1 2.237-2.4 13.168 13.168 0 0 1 5.723-1.082 10.794 10.794 0 0 1 5.389 1.082z" transform="translate(-281.963 -434.609)"/>
                </g>
                <g id="그룹_6520" data-name="그룹 6520">
                    <g id="그룹_6519" data-name="그룹 6519">
                        <path id="패스_7583" data-name="패스 7583" class="cls-1" d="M195.272 394.951c-.17 1.248-2.712 18.891-2.95 20.547h5.657c.191-1.248 2.717-18.9 2.957-20.547z" transform="translate(-165.346 -368.701)"/>
                        <path id="패스_7584" data-name="패스 7584" class="cls-1" d="M264.21 394.951c-.18 1.248-2.719 18.891-2.954 20.547h13.267c.134-.907.474-3.284.64-4.439h-8.043l.546-3.8h7.285c.129-.877.439-3.022.6-4.136h-7.288l.523-3.738h7.837c.124-.913.46-3.285.624-4.435z" transform="translate(-187.963 -368.701)"/>
                        <path id="패스_7585" data-name="패스 7585" class="cls-1" d="M165.393 406.727s4.723-10.828 5.094-11.776h7.124c0 1.444-.936 19.087-.936 20.547h-5.125l.851-14.38s-5.759 13.457-6.156 14.38h-4.037l-1.836-14.38c-.134.65-2.047 10.255-3.1 14.38h-5.094c.531-1.835 4.429-19.495 4.748-20.547h6.858z" transform="translate(-152.173 -368.701)"/>
                        <path id="패스_7586" data-name="패스 7586" class="cls-1" d="M244.2 411.337s.366 3.351.5 4.16h5.436c-.316-1.7-3.266-19.345-3.488-20.547h-6.868c-.392.861-8.235 18.526-9.157 20.547h5.5c.294-.7 1.7-4.15 1.7-4.15zm-4.832-4.234 3.243-7.631 1.047 7.631z" transform="translate(-177.91 -368.701)"/>
                        <path id="패스_7587" data-name="패스 7587" class="cls-1" d="M213.206 398.8h1.252a3.019 3.019 0 0 1 2.424.8 2.354 2.354 0 0 1 .459 2.047s-.175 1.573-1.209 2.063a3.881 3.881 0 0 1-1.879.5h-2.558l4.821 11.291H222l-4.145-8.661c2.506-.465 4.48-1.207 4.973-5.105a9.376 9.376 0 0 0 .116-1.4 5.133 5.133 0 0 0-1.129-3.48c-1.377-1.567-3.723-1.9-5.434-1.9h-7.763c-.167 1.248-2.709 18.891-2.936 20.547h5.141c.17-1.15 2.382-16.7 2.382-16.7" transform="translate(-169.729 -368.701)"/>
                        <path id="패스_7588" data-name="패스 7588" d="M441.943 355.883c-3.294 13.664-15.149 21.115-22.1 25.09l-.3-.4c2.846-2.315 12.643-9.56 15.788-21.548z" transform="translate(-239.897 -355.883)" style="fill:#ec6300"/>
                        <g id="그룹_6518" data-name="그룹 6518" transform="translate(92.737 25.379)">
                            <path id="패스_7589" data-name="패스 7589" class="cls-1" d="M382.207 407.082c.1-.026.211-.046.309-.067-.1.02-.212.04-.32.067z" transform="translate(-320.379 -398.038)"/>
                            <path id="패스_7590" data-name="패스 7590" class="cls-1" d="M384.978 406.293c-.433.119-.866.216-1.312.33.445-.114.879-.211 1.312-.33z" transform="translate(-320.862 -397.801)"/>
                            <path id="패스_7591" data-name="패스 7591" class="cls-1" d="M365.79 410.143c.043 0 .077-.005.108-.005-.031 0-.065.005-.108.005z" transform="translate(-314.997 -399.063)"/>
                            <path id="패스_7592" data-name="패스 7592" class="cls-1" d="M387.228 405.817c-.243.062-.505.124-.773.2.268-.076.531-.138.773-.2z" transform="translate(-321.777 -397.645)"/>
                            <path id="패스_7593" data-name="패스 7593" class="cls-1" d="M371.106 409.3c-.036.01-.1.015-.145.026.047-.01.109-.015.145-.026z" transform="translate(-316.694 -398.788)"/>
                            <path id="패스_7594" data-name="패스 7594" class="cls-1" d="M368.606 409.7c-.113.021-.222.042-.33.056.108-.014.217-.035.33-.056z" transform="translate(-315.812 -398.919)"/>
                            <path id="패스_7595" data-name="패스 7595" class="cls-1" d="M397.911 402.556z" transform="translate(-324.947 -396.575)"/>
                            <path id="패스_7596" data-name="패스 7596" class="cls-1" d="M395.311 403.554c-.257.067-.525.149-.783.226.258-.08.526-.159.783-.226z" transform="translate(-324.426 -396.903)"/>
                            <path id="패스_7597" data-name="패스 7597" class="cls-1" d="M392.782 404.037c-.851.247-1.722.5-2.617.742.895-.242 1.766-.495 2.617-.742z" transform="translate(-322.994 -397.061)"/>
                            <path id="패스_7598" data-name="패스 7598" class="cls-1" d="M389.142 405.311z" transform="translate(-322.406 -397.479)"/>
                            <path id="패스_7599" data-name="패스 7599" class="cls-1" d="M347.938 412.048a.531.531 0 0 1-.1.005.531.531 0 0 0 .1-.005z" transform="translate(-309.108 -399.69)"/>
                            <path id="패스_7600" data-name="패스 7600" class="cls-1" d="M327.679 412.6c-.124-.011-.227-.011-.335-.011.108-.004.211-.004.335.011z" transform="translate(-302.383 -399.866)"/>
                            <path id="패스_7601" data-name="패스 7601" class="cls-1" d="M316.969 412.243h.046c-.026 0-.04 0-.046-.011z" transform="translate(-298.979 -399.75)"/>
                            <path id="패스_7602" data-name="패스 7602" class="cls-1" d="M343.048 412.324z" transform="translate(-307.535 -399.78)"/>
                            <path id="패스_7603" data-name="패스 7603" class="cls-1" d="M330.9 412.624z" transform="translate(-303.48 -399.879)"/>
                            <path id="패스_7604" data-name="패스 7604" class="cls-1" d="M350.336 411.872c-.056 0-.1.005-.155.005.057 0 .098-.005.155-.005z" transform="translate(-309.875 -399.632)"/>
                            <path id="패스_7605" data-name="패스 7605" class="cls-1" d="M352.568 411.688z" transform="translate(-310.643 -399.571)"/>
                            <path id="패스_7606" data-name="패스 7606" class="cls-1" d="M345.527 412.194a.108.108 0 0 0-.073.015.108.108 0 0 1 .073-.015z" transform="translate(-308.325 -399.737)"/>
                            <path id="패스_7607" data-name="패스 7607" class="cls-1" d="M395.32 394.951c-.129.861-.521 3.563-.719 4.888a80.685 80.685 0 0 0 13.277-4.888z" transform="translate(-324.45 -394.08)"/>
                            <path id="패스_7608" data-name="패스 7608" class="cls-1" d="M334.906 403.647a8.444 8.444 0 0 0-1.753-1.037c-.026-.01-1.48-.747-1.48-.747l-.036-.005h-.026c-.479-.289-1.607-.949-1.607-2.043a1.646 1.646 0 0 1 .6-1.314 2.453 2.453 0 0 1 1.949-.407 7.219 7.219 0 0 1 3.31 1.846c.578-1.124 1.7-3.263 2.094-4.032a9.377 9.377 0 0 0-4.795-2.129 8.837 8.837 0 0 0-6.631 1.449 6.715 6.715 0 0 0-2.565 4.646c-.029.325-.054.65-.054.949a5.908 5.908 0 0 0 .485 2.418c.123.011.23.011.358.011 2.566.199 6.098.359 10.151.395z" transform="translate(-301.257 -393.655)"/>
                            <path id="패스_7609" data-name="패스 7609" class="cls-1" d="M377.285 399.386h7.826c.114-.913.464-3.285.624-4.435h-13.064c-.067.531-.575 4.032-1.138 8q2.711-.333 5.339-.8z" transform="translate(-316.881 -394.08)"/>
                            <path id="패스_7610" data-name="패스 7610" class="cls-1" d="M363.158 400.061c-.572.2-1.173.386-1.795.572-.087.036-.185.063-.284.1-.257.067-.525.149-.783.226-.1.036-.222.062-.314.1-.851.247-1.722.5-2.617.742-.147.036-.292.083-.435.114-.268.072-.521.139-.768.2-.176.046-.341.093-.516.139-.243.062-.505.124-.773.2-.18.042-.376.083-.562.119-.433.119-.866.216-1.312.33-.219.051-.441.1-.668.155-.1.02-.212.04-.309.066h-.011a138.137 138.137 0 0 1-7.4 1.469c-.036.01-.1.015-.145.026-.485.087-.99.159-1.475.242-.113.021-.222.042-.33.056-.51.073-1.031.155-1.563.238-.031 0-.065.005-.108.005-2.79.412-5.749.767-8.868 1.036h-.047c-.469.041-.949.077-1.418.124-.056 0-.1.005-.155.005-.484.04-.975.072-1.475.113a.531.531 0 0 1-.1.005c-.5.036-1.027.072-1.531.093a.108.108 0 0 0-.073.015c-.515.021-1.057.052-1.588.072h-.029c-2.612.124-5.329.2-8.108.2h-.2c-.626 0-1.258-.015-1.912-.015-.124-.011-.227-.011-.335-.011-2.264-.031-4.563-.1-6.925-.226h-.046v-.011c-3.579-.18-7.255-.484-11.066-.923l4.391-4.109a61.515 61.515 0 0 0 6.065 1.392c-.67-3.97-1.267-7.46-1.347-7.971h-6.882c-.386.861-8.221 18.526-9.152 20.547h5.5l2.144-5.109h5.767s.552 4.3.676 5.109h5.424l-1.254-7.363c3.873.212 7.755.263 11.375.2a1.989 1.989 0 0 1 .268.99 1.872 1.872 0 0 1-.03.376 1.673 1.673 0 0 1-.691 1.1 3.5 3.5 0 0 1-2.57.284c-1.74-.309-3.146-1.635-4.267-2.733-.7 1.15-2.178 3.552-2.65 4.326a12.391 12.391 0 0 0 6.667 3.362 8.823 8.823 0 0 0 6.534-1.47 7.055 7.055 0 0 0 2.784-4.779 8.6 8.6 0 0 0 .124-1.635c3.862-.165 7.09-.407 9.147-.583a2.117 2.117 0 0 1 1.031 1.748c0 .124-.015.253-.026.376a1.713 1.713 0 0 1-.7 1.1 3.488 3.488 0 0 1-2.565.284 8.6 8.6 0 0 1-4.259-2.733 675.217 675.217 0 0 0-2.681 4.326 12.452 12.452 0 0 0 6.677 3.362 8.867 8.867 0 0 0 6.543-1.47 7.281 7.281 0 0 0 2.8-4.779 6.779 6.779 0 0 0-.139-3c.892-.134 1.727-.268 2.532-.4-.613 4.316-1.186 8.353-1.295 9.1h13.257c.134-.907.474-3.284.628-4.439h-8.023l.531-3.8h7.306c.114-.779.366-2.578.542-3.749.99-.308 1.478-.51 1.478-.51s2.467-.737 5.663-1.924c-.454 3.222-1.869 13.06-2.042 14.422h5.729c.18-1.217 2.207-15.437 2.207-15.437h4.151c.144-.877.541-3.7.722-4.981a73.246 73.246 0 0 1-12.046 4.994z" transform="translate(-290.194 -394.08)"/>
                            <path id="패스_7611" data-name="패스 7611" class="cls-1" d="m357.062 402.61-1.492-.747-.016-.005h-.015c-.485-.289-1.615-.949-1.615-2.043a1.664 1.664 0 0 1 .6-1.314 2.476 2.476 0 0 1 1.96-.407 7.251 7.251 0 0 1 3.3 1.846c.582-1.124 1.7-3.263 2.088-4.032a9.4 9.4 0 0 0-4.793-2.129 8.8 8.8 0 0 0-6.623 1.449 6.6 6.6 0 0 0-2.563 4.646 6.022 6.022 0 0 0-.056.949 5.582 5.582 0 0 0 .654 2.778c3.073-.067 6.29-.216 9.539-.484a8.891 8.891 0 0 0-.968-.507z" transform="translate(-309.108 -393.655)"/>
                        </g>
                    </g>
                </g>
            </g>
            <g id="그룹_6522" data-name="그룹 6522" transform="translate(4.316 10.709)">
                <path id="패스_7612" data-name="패스 7612" class="cls-1" d="M158.6 378.221v-1.005h9.415v1.005zm4.682-1.887c-2.284 0-3.558-.929-3.558-2.233 0-1.284 1.266-2.279 3.558-2.279 2.336 0 3.589.985 3.589 2.279s-1.237 2.233-3.593 2.233zm-3.47 5.764v-2.975h1.072v1.985h6.193v.99zm3.488-9.337c-1.462 0-2.444.567-2.444 1.33 0 .779 1.034 1.295 2.426 1.295 1.454 0 2.475-.49 2.475-1.269s-.99-1.356-2.457-1.356z" transform="translate(-158.596 -371.822)"/>
                <path id="패스_7613" data-name="패스 7613" class="cls-1" d="M176.1 380.569h-2.279v-1.011h2.852v-1.619H174.6v-5.12h5.207v.98h-4.145v1.1h4.078v.969h-4.078v1.114h4.238v.959h-2.13v1.593c.737 0 2.037-.114 2.836-.206v1.011a43.088 43.088 0 0 1-4.506.23zm4.991 1.789v-10.436h1.057v10.436z" transform="translate(-163.591 -371.855)"/>
                <path id="패스_7614" data-name="패스 7614" class="cls-1" d="M193.843 377.119a5.305 5.305 0 0 1-2.5-2 5.044 5.044 0 0 1-2.48 2.372l-.753-.851a3.935 3.935 0 0 0 2.682-3.46v-.928h1.108v.928c0 .815.4 2.176 2.581 3.063zm-3.775 5.125v-2.614h5.546v-.846h-5.546v-.918h6.667v2.639h-5.559v.831h5.79v.907zm5.657-4.831v-2.753h-2.006v-1h2.006v-1.738h1.047v5.491z" transform="translate(-168.279 -371.855)"/>
                <path id="패스_7615" data-name="패스 7615" class="cls-1" d="m204.029 380.506-.8-.675a6.868 6.868 0 0 0 3.145-5.558H203.8v-1.011h3.753a8.792 8.792 0 0 1-3.524 7.244zm4.72 1.387V378.3h-1.366v-1.005h1.366v-1.826h-1.164v-.984h1.164v-2.3h1.045v9.714zm1.985.464v-10.435h1.026v10.436z" transform="translate(-173.239 -371.855)"/>
                <path id="패스_7616" data-name="패스 7616" class="cls-1" d="m220.7 380.228-2.563.011v-1h2.661c1.634-.026 3.325-.134 4.259-.237v1.021c-.681.066-2.893.177-4.357.205zm3.274-5.068a2.665 2.665 0 1 1-2.668-2.619 2.61 2.61 0 0 1 2.668 2.619zm-2.668-1.614a1.615 1.615 0 1 0 1.57 1.614 1.53 1.53 0 0 0-1.57-1.614zm4.125 8.812v-10.436h1.069v10.436z" transform="translate(-178.131 -371.855)"/>
                <path id="패스_7617" data-name="패스 7617" class="cls-1" d="M245.774 378.253v-1.8h-2.181v.96h-4.568v-4.785h4.568v.943h2.181v-1.65h1.073v6.331zm-2.449 4.275c-2.327 0-3.578-.861-3.578-2.088s1.25-2.109 3.578-2.109c2.367 0 3.579.887 3.579 2.109s-1.212 2.088-3.579 2.088zm-.794-8.9h-2.439v2.772h2.439zm.794 5.687c-1.464 0-2.444.407-2.444 1.119s.98 1.156 2.444 1.156 2.439-.444 2.439-1.15-.964-1.124-2.439-1.124zm2.449-4.795h-2.181v.98h2.181z" transform="translate(-184.984 -371.855)"/>
                <path id="패스_7618" data-name="패스 7618" class="cls-1" d="m253.776 380.553-.8-.7a7.353 7.353 0 0 0 3.949-5.759h-3.383v-1h4.6a8.769 8.769 0 0 1-4.366 7.459zm7.131-8.631v4.321h1.439v1.046h-1.439v5.069h-1.083v-10.436z" transform="translate(-189.562 -371.855)"/>
                <path id="패스_7619" data-name="패스 7619" class="cls-1" d="M279.468 380.054h-6.409V379h6.409z" transform="translate(-196.151 -374.176)"/>
            </g>
        </g>
    </g>
</svg>
