<svg xmlns="http://www.w3.org/2000/svg" width="190.809" height="42.185" viewBox="0 0 190.809 42.185">
  <defs>
    <style>
      .cls-1 {
        fill: #464545;
      }

      .cls-2 {
        fill: #008ea4;
      }

      .cls-3 {
        fill: #e06326;
      }

      .cls-4 {
        fill: #8c8b8b;
      }
    </style>
  </defs>
  <g id="그룹_6984" data-name="그룹 6984" transform="translate(-293.024 -424.528)">
    <path id="패스_9513" data-name="패스 9513" class="cls-1" d="M493.844,428.679a1.3,1.3,0,0,0-2.207,0L484.2,441l3.079,1.694,5.389-8.981,5.389,8.981L501.132,441l-7.288-12.317Zm-23.094.872a7.315,7.315,0,0,0-6.056-3.079,6.925,6.925,0,0,0-7.134,6.62c0,3.592,3.233,6.569,7.134,6.569a7.345,7.345,0,0,0,4.67-1.591H476.4v4.362h3.592V427.7H476.4v1.848Zm.667,5.8a6.337,6.337,0,0,0,.411-3.079H476.4v3.079Zm-6.723-5.8a3.541,3.541,0,1,1-3.592,3.541,3.6,3.6,0,0,1,3.592-3.541Zm-21.452,15.755a3.541,3.541,0,1,1-3.592,3.541,3.56,3.56,0,0,1,3.592-3.541Zm0-3.028a6.615,6.615,0,1,0,7.134,6.569A6.358,6.358,0,0,0,449.041,445H451.5v-7.647h3.541v-2.771H451.5V427.7h-3.541v10.829H444.73V427.7H429.95v2.72h11.239v8.109H437.7v-4.106h-3.541v4.106h-4.721v2.72h18.527v2.669a7.53,7.53,0,0,0-4.721-1.642Zm-70.514-5.645h6.62a6.222,6.222,0,0,1-1.129-3.592c0-3.592,3.233-6.569,7.134-6.569,3.952,0,7.185,2.977,7.185,6.569a6.266,6.266,0,0,1-1.18,3.592h6.877v2.617H387.252V441.3h8.724V449h-17.5v2.207h17.5v2.72H374.883v-7.7h17.5v-2.155h-17.5V441.3h8.827v-2.053H372.728v-2.617Zm12.625-7.082a3.541,3.541,0,1,0,3.592,3.541,3.593,3.593,0,0,0-3.592-3.541Zm24.839-.872a1.251,1.251,0,0,0-2.155,0L400.595,441l3.079,1.694,5.389-8.981,5.389,8.981L417.531,441l-7.339-12.317Zm66.2,18.116H462.231v-2.72h17.757v9.854H476.4v-7.134Zm-68.923,4.414h15.7v2.72h-19.3v-9.854h3.592v7.134Zm15.7-16.166V427.7h-3.541v18.732h3.541v-8.622h3.541v-2.771Zm80.008-7.339h3.541v26.225h-3.541Z" transform="translate(-22.892 -0.558)"/>
    <g id="그룹_6979" data-name="그룹 6979" transform="translate(293.024 424.528)">
      <path id="패스_9514" data-name="패스 9514" class="cls-2" d="M320.121,424.528c.154,2.515-.924,3.336-2.463,3.49a3.313,3.313,0,0,0-2.771,1.078l-7.39,12.676c4.106.205,8.057,1.694,11.444,6.569,1.9,2.72,5.235,5.029,11.5,6.21-4.619,1.026-7.9-.924-13.343-2.617-4.362-1.334-11.034-1.9-15.6.205l-8.468,14.575c5.8-4.824,16.217-6.056,23.659-3.233,8.57,3.233,16.833,4.208,25.917-.462L336.39,452.5a6.568,6.568,0,0,1-3.233,1.488l1.18-8.417c-3.8.411-7.082-.513-9.494-3.285-3.592-4.208-7.082-7.339-10.521-8.057.872-1.8,2.669-1.54,4.875-.77,1.591.513,4.414-.1,5.029-2Z" transform="translate(-293.024 -424.528)"/>
      <path id="패스_9515" data-name="패스 9515" class="cls-3" d="M313.634,449.6a4.038,4.038,0,1,1,.046,8.075,4.038,4.038,0,0,1-.046-8.075Z" transform="translate(-297.797 -431.73)"/>
    </g>
    <path id="패스_9516" data-name="패스 9516" class="cls-4" d="M373.88,472.552h1.848V476.4a1.684,1.684,0,0,0,.308,1.078,1.273,1.273,0,0,0,.924.359,1.235,1.235,0,0,0,.975-.411,1.449,1.449,0,0,0,.359-1.026v-3.849h1.694v4a2.331,2.331,0,0,1-.77,1.9,3.594,3.594,0,0,1-2.361.667,3.073,3.073,0,0,1-2.207-.667,2.554,2.554,0,0,1-.77-2v-3.9Z" transform="translate(-23.223 -13.793)"/>
    <path id="패스_9517" data-name="패스 9517" class="cls-4" d="M383.6,479.018v-6.466h1.8v5.184h2.874v1.283Z" transform="translate(-26.015 -13.793)"/>
    <path id="패스_9518" data-name="패스 9518" class="cls-4" d="M392.236,476.873v.051a.894.894,0,0,0,.257.719.947.947,0,0,0,.667.205,1.8,1.8,0,0,0,.821-.154.632.632,0,0,0,.257-.513c0-.359-.359-.616-1.129-.77a2.311,2.311,0,0,0-.411-.1,5.147,5.147,0,0,1-1.745-.77,1.636,1.636,0,0,1-.411-1.232,1.578,1.578,0,0,1,.719-1.386,3.245,3.245,0,0,1,1.95-.513,3.31,3.31,0,0,1,1.95.462,1.569,1.569,0,0,1,.667,1.437v.1h-1.8v-.051a.818.818,0,0,0-.205-.616.868.868,0,0,0-.616-.205.818.818,0,0,0-.616.205.5.5,0,0,0-.205.462c0,.359.462.616,1.386.821a5.335,5.335,0,0,1,.616.154,3,3,0,0,1,1.283.667,1.588,1.588,0,0,1,.411,1.18,1.766,1.766,0,0,1-.77,1.54,3.8,3.8,0,0,1-2.207.513,3.2,3.2,0,0,1-2-.565,1.958,1.958,0,0,1-.667-1.642Z" transform="translate(-27.98 -13.752)"/>
    <path id="패스_9519" data-name="패스 9519" class="cls-4" d="M409.376,479.018v-6.466h2.566l2.053,4.568v-4.568h1.54v6.466H413.02l-2.1-4.773v4.773Z" transform="translate(-33.418 -13.793)"/>
    <path id="패스_9520" data-name="패스 9520" class="cls-4" d="M423.776,479.018v-6.466H426.6l1.078,4.157.975-4.157h2.823v6.466h-1.694v-5.183l-1.437,5.183h-1.591l-1.437-5.183v5.183Z" transform="translate(-37.554 -13.793)"/>
    <path id="패스_9521" data-name="패스 9521" class="cls-4" d="M435.872,479.018v-6.466h4.773v1.232h-3.028v1.334h2.874v1.232h-2.874v1.386h3.131v1.283Z" transform="translate(-41.028 -13.793)"/>
    <path id="패스_9522" data-name="패스 9522" class="cls-4" d="M444.95,479.018v-5.183H443v-1.283h5.7v1.283h-1.95v5.183Z" transform="translate(-43.076 -13.793)"/>
    <g id="그룹_6980" data-name="그룹 6980" transform="translate(406.031 458.759)">
      <path id="패스_9523" data-name="패스 9523" class="cls-4" d="M456.8,477.684a3.893,3.893,0,0,0-.154-.924,1.46,1.46,0,0,0-.462-.718,1.3,1.3,0,0,0-.821-.205v-.051a1.666,1.666,0,0,0,1.129-.513,1.47,1.47,0,0,0,.411-1.078,1.344,1.344,0,0,0-.616-1.232,3.011,3.011,0,0,0-1.8-.411h-2.925v6.466h1.745V476.5h.719a1.094,1.094,0,0,1,.616.154,1.2,1.2,0,0,1,.257.513c0,.1.051.359.1.77s.1.77.154,1.078h1.9A8.817,8.817,0,0,1,456.8,477.684Zm-1.9-2.515a1.893,1.893,0,0,1-.872.154h-.719v-1.591h.77a1.749,1.749,0,0,1,.821.205.639.639,0,0,1,.205.565A.871.871,0,0,1,454.9,475.169Z" transform="translate(-451.568 -472.552)"/>
    </g>
    <path id="패스_9524" data-name="패스 9524" class="cls-4" d="M465.545,473.28a3.3,3.3,0,0,0-2.412-.872,3.517,3.517,0,0,0-2.463.872,3.473,3.473,0,1,0,5.748,2.463A3.151,3.151,0,0,0,465.545,473.28Zm-1.334,3.952a1.228,1.228,0,0,1-1.078.513,1.172,1.172,0,0,1-1.078-.513,2.458,2.458,0,0,1-.359-1.488,2.632,2.632,0,0,1,.359-1.54,1.292,1.292,0,0,1,1.078-.513,1.364,1.364,0,0,1,1.078.513,2.632,2.632,0,0,1,.359,1.54A2.458,2.458,0,0,1,464.21,477.232Z" transform="translate(-47.915 -13.752)"/>
    <g id="그룹_6981" data-name="그룹 6981" transform="translate(419.169 458.759)">
      <path id="패스_9525" data-name="패스 9525" class="cls-4" d="M474.875,473.065a2.8,2.8,0,0,0-1.9-.513H470v6.466h1.8v-2.309h1.334a2.784,2.784,0,0,0,1.8-.565,1.936,1.936,0,0,0,.616-1.54A1.817,1.817,0,0,0,474.875,473.065Zm-1.437,2.155a1.213,1.213,0,0,1-.821.205H471.8v-1.694h.821a1.59,1.59,0,0,1,.821.205.732.732,0,0,1,.308.616A.762.762,0,0,1,473.438,475.221Z" transform="translate(-470 -472.552)"/>
    </g>
    <path id="패스_9526" data-name="패스 9526" class="cls-4" d="M484.1,473.28a3.43,3.43,0,0,0-2.463-.872,3.3,3.3,0,0,0-2.412.872,3.346,3.346,0,0,0-.872,2.463,3.517,3.517,0,0,0,.872,2.463,3.3,3.3,0,0,0,2.412.872,3.43,3.43,0,0,0,2.463-.872,3.517,3.517,0,0,0,.872-2.463A3.346,3.346,0,0,0,484.1,473.28Zm-1.386,3.952a1.12,1.12,0,0,1-1.078.513,1.228,1.228,0,0,1-1.078-.513,2.458,2.458,0,0,1-.359-1.488,2.632,2.632,0,0,1,.359-1.54,1.364,1.364,0,0,1,1.078-.513,1.226,1.226,0,0,1,1.078.513,2.618,2.618,0,0,1,.411,1.54A2.447,2.447,0,0,1,482.714,477.232Z" transform="translate(-53.229 -13.752)"/>
    <path id="패스_9527" data-name="패스 9527" class="cls-4" d="M488.576,479.018v-6.466h1.8v5.184h2.874v1.283Z" transform="translate(-56.166 -13.793)"/>
    <path id="패스_9528" data-name="패스 9528" class="cls-4" d="M495.776,479.018v-6.466h1.8v6.466Z" transform="translate(-58.234 -13.793)"/>
    <path id="패스_9529" data-name="패스 9529" class="cls-4" d="M500.75,479.018v-5.183H498.8v-1.283h5.7v1.283h-1.95v5.183Z" transform="translate(-59.102 -13.793)"/>
    <g id="그룹_6982" data-name="그룹 6982" transform="translate(444.624 458.759)">
      <path id="패스_9530" data-name="패스 9530" class="cls-4" d="M510.382,472.552h-2.155l-2.515,6.466h1.8l.462-1.283h2.515l.462,1.283h2Zm-2.053,3.952.924-2.72.821,2.72Z" transform="translate(-505.712 -472.552)"/>
    </g>
    <path id="패스_9531" data-name="패스 9531" class="cls-4" d="M516.44,479.018v-6.466h2.566l2,4.568v-4.568h1.539v6.466h-2.463l-2.1-4.773v4.773Z" transform="translate(-64.169 -13.793)"/>
    <path id="패스_9532" data-name="패스 9532" class="cls-4" d="M536.71,476.873v.051a1.922,1.922,0,0,1-.77,1.591,3.891,3.891,0,0,1-2.207.565,3.055,3.055,0,0,1-2.309-.872,3.1,3.1,0,0,1-.872-2.361,3.608,3.608,0,0,1,.872-2.566,3.347,3.347,0,0,1,2.463-.872,3.48,3.48,0,0,1,2.053.513,2.027,2.027,0,0,1,.718,1.591h-1.8a1.171,1.171,0,0,0-.308-.616,1.261,1.261,0,0,0-.77-.257,1.183,1.183,0,0,0-1.026.565,3.366,3.366,0,0,0-.308,1.591,2.8,2.8,0,0,0,.308,1.488,1.14,1.14,0,0,0,1.026.513,1.008,1.008,0,0,0,.77-.257.763.763,0,0,0,.308-.667Z" transform="translate(-68.222 -13.752)"/>
    <path id="패스_9533" data-name="패스 9533" class="cls-4" d="M540.128,479.018v-6.466h1.8v6.466Z" transform="translate(-70.972 -13.793)"/>
    <path id="패스_9534" data-name="패스 9534" class="cls-4" d="M545.1,479.018v-5.183h-1.95v-1.283H548.9v1.283h-1.95v5.183Z" transform="translate(-71.841 -13.793)"/>
    <path id="패스_9535" data-name="패스 9535" class="cls-4" d="M553.391,479.018h1.848V476.76l2.463-4.208h-1.848l-1.437,2.771-1.386-2.771h-2.1l2.463,4.157Z" transform="translate(-74.075 -13.793)"/>
    <g id="그룹_6983" data-name="그룹 6983" transform="translate(368.311 458.759)">
      <path id="패스_9536" data-name="패스 9536" class="cls-4" d="M403.369,472.552h-2.207l-2.515,6.466h1.8l.462-1.283h2.566l.411,1.283h2Zm-2.053,3.952.872-2.72.821,2.72Z" transform="translate(-398.648 -472.552)"/>
    </g>
  </g>
</svg>
