<svg xmlns="http://www.w3.org/2000/svg" width="134.862" height="60.93" viewBox="0 0 134.862 60.93">
  <defs>
    <style>
      .cls-1 {
        fill: #e13505;
      }

      .cls-2 {
        fill: #003f8f;
      }

      .cls-3 {
        fill: #fd9e00;
      }
    </style>
  </defs>
  <g id="그룹_6848" data-name="그룹 6848" transform="translate(-88.838 -154.35)">
    <g id="그룹_6846" data-name="그룹 6846" transform="translate(88.838 164.538)">
      <path id="패스_8658" data-name="패스 8658" class="cls-1" d="M375.745,215.121c1.016-.484,1.733-1.111,1.812-2.031.159-1.932-2.09-2.567-3.754-2.549-4.536.054-8.483,4.7-8.444,8.665a3.034,3.034,0,0,0,3.988,2.863,10.827,10.827,0,0,0,5.511-3.734c.316-.425-.66-.382-.887-.369-1.285.066-1.685,1.314-3.625,1.258a1.433,1.433,0,0,1-1.6-1.595c-.027-1.826,1.629-3.924,3.014-4.85a1.918,1.918,0,0,1,1.942-.045c.589.261,1.759.9,1.779,1.874a1,1,0,0,1-.025.187.477.477,0,0,0-.008.308S375.535,215.222,375.745,215.121Z" transform="translate(-273.443 -202.05)"/>
      <path id="패스_8659" data-name="패스 8659" class="cls-1" d="M207.92,212.119c2.365-2.55,3.473-3.33,4.812-3.346,1.468-.019,1.762.611,1.743,2.272-.018,2.26-1.241,5.481.007,7.567.667,1.118-.077,2.066-1.573,1.771-2.214-.439-2.069-2.607-2.2-4.225-.062-.752-.163-3.219-1.767-2.768-1.112.313-1.841,1.777-2.239,2.588a13.49,13.49,0,0,1-2.891,4.015c-2.2,1.965-3.618,2.023-2.555-1.107.47-1.538,2.072-5.552,3.012-8.447.42-1.3.209-2.684,1.161-2.518,1.026.181,2.641.4,1.821,4.682,0,0-.09.269.177.045A5.272,5.272,0,0,0,207.92,212.119Z" transform="translate(-163.648 -200.292)"/>
      <path id="패스_8660" data-name="패스 8660" class="cls-1" d="M301.218,216.4a3.3,3.3,0,0,1-1.5.84c-2.01.505-1.6-1.418-1.125-2.69.313-.944,1.039-2.212.983-3.2-.084-1.391-1.164-.323-1.627.218a33.28,33.28,0,0,0-2.861,3.887c-.426.633-.687,1.591-1.456,1.758-3.728.805.652-9.188.933-10.843.2-1.165.788-1.315,1.461-.991,1.512.738.955,2.454,1.072,4.155.058.694-.112,1.048.494.331a9.518,9.518,0,0,1,3.158-2.984c2.846-1.273,2.189,3.358,2.3,4.73-.006.4.978-1.024,2.09-2.114.654-.642,1.533-1.569,2.547-1.588,2.165-.045,1.293,2.986,1.111,4.244a18.874,18.874,0,0,0-.305,3.514c0,1.418,1.531,3.442-.947,3.472a2.737,2.737,0,0,1-2.58-2.384,4.316,4.316,0,0,1,.059-1.982c.094-.474.72-2.106.129-2.457-.449-.269-1.221.572-1.466.848C302.83,214.107,302.144,215.518,301.218,216.4Z" transform="translate(-224.557 -198.505)"/>
      <path id="패스_8661" data-name="패스 8661" class="cls-1" d="M348.977,220.02c.033-2.628,1.092-6.5,2.209-7.965a1.069,1.069,0,0,1,.891-.467c.818-.014,1.348.87,1.333,2.246a27,27,0,0,1-1.537,7.684c-.293.825-.624,1.386-1.378,1.4C350.229,222.919,348.945,222.645,348.977,220.02Z" transform="translate(-262.506 -202.749)"/>
      <path id="패스_8662" data-name="패스 8662" class="cls-1" d="M158.583,203.272c-2.67.036-4.544,2.59-5.717,6.329-1.188,3.792-1.581,7.874,1.814,7.124,3.927-.866,7.761-5.46,8.414-5.17s-1.915,6.188-2.642,10.934c-.751,4.9-.485,8.278,1.407,7.571.8-.273,1.846-4.342,2.526-7.03s3.184-12.874,3.7-14.817,2.044-4.74-.139-4.842c-1.708-.081-2.267,1.618-2.88,3.064,0,0-2.063,4.951-9.544,8.645-1.3.643-.808-1.48.529-3.882S160.387,203.254,158.583,203.272Z" transform="translate(-131.013 -197.198)"/>
      <path id="패스_8663" data-name="패스 8663" class="cls-1" d="M258.431,211.313c.367.579-2.021.84-3.343,1.837-1.093.777-4.747,3.543-5.03,6.219s2.508.739,3.8-.946,1.9-4.31,2.8-5.1c.648-.57,2.862-1.793,3.161-1.234s-.508,3.057-.7,5.2c-.089.926.161,2.906,1.1,3.457s.641.885-.8.968-2.089.064-3.693-2.362c0,0-2.768,3.072-5.612,3.072s-3.569-1.71-3.451-3.555c.054-1.883,2.791-6.7,8.035-7.466C256.792,211.1,258.25,211.028,258.431,211.313Z" transform="translate(-194.191 -202.446)"/>
      <path id="패스_8664" data-name="패스 8664" class="cls-1" d="M91.54,187.713c.718.641,4.534,1.46,7.438,1.54s8.8,2.882,7.264,8.627c-1.205,4.5-5.416,6.382-13.267,6.613-2.474.072,1.436,2.022,5.95,1.149s12.351-3.7,11.773-12.661c-.421-6.508-10.423-7.912-12.461-7.974C95.432,184.9,89.47,185.612,91.54,187.713Z" transform="translate(-90.356 -184.998)"/>
      <path id="패스_8665" data-name="패스 8665" class="cls-1" d="M93.99,192.853A100.947,100.947,0,0,0,89.908,206c-.276,1.168-1.833,7.328-.6,7.047s3.883-4.581,5.269-7.642,3.932-11.16,4.078-13.143" transform="translate(-88.838 -189.846)"/>
    </g>
    <g id="그룹_6847" data-name="그룹 6847" transform="translate(127.555 189.184)">
      <path id="패스_8666" data-name="패스 8666" class="cls-2" d="M243.051,321.5c1.448-1.548,7.5-4.928,13.593-5.148,11.415-.415,21.863,8.85,34.54,2.127-6.262,5.591-13.045,6.244-22.244,2.941C257.727,317.4,250.417,318.493,243.051,321.5Z" transform="translate(-230.507 -297.33)"/>
      <path id="패스_8667" data-name="패스 8667" class="cls-2" d="M210.847,271.525h1.958c1.9,0,4.077.2,4.077,2.344,0,2.006-2.112,2.29-4.136,2.29h-1.9Zm-5.533,8.362h9.009c3.718,0,8.093-.988,8.093-5.706,0-2.4-1.428-3.814-4.2-4.352v-.057c2.321-.736,3.659-2.119,3.659-4.607,0-3.391-2.885-5-6.751-5h-9.813Zm5.533-15.993h1.869c1.844,0,3.629.169,3.629,1.977,0,1.667-1.874,2.092-3.69,2.092h-1.809Z" transform="translate(-205.314 -259.825)"/>
      <path id="패스_8668" data-name="패스 8668" class="cls-2" d="M381.47,271.948h-5.207l2.677-7.714H379Zm-13.744,7.939h5.622l1.635-4.21h7.793l1.549,4.21h6.068l-8-19.723h-6.781Z" transform="translate(-313.74 -259.825)"/>
      <path id="패스_8669" data-name="패스 8669" class="cls-2" d="M438.585,260.168h7.05l6.528,13.134h.061l-.089-13.134h5.057V279.89h-6.872l-6.765-13.217h-.061l.178,13.217h-5.087Z" transform="translate(-361.046 -259.828)"/>
      <path id="패스_8670" data-name="패스 8670" class="cls-2" d="M280.419,273.668s1.718.587,3.131.994a18.834,18.834,0,0,0,5.233.711c1.754,0,3.664-.432,3.664-2.014,0-3.672-9.5-2.7-9.5-8.484,0-4.81,4.56-5.731,8.727-5.731a18.216,18.216,0,0,1,5.391.853l-.358,4.121a11.815,11.815,0,0,0-4.646-1.024c-1.4,0-3.32.016-3.32,1.622,0,2.607,9.417,1.886,9.417,8.511a5.652,5.652,0,0,1-3.331,5.5c-3.978,1.966-11.211-.391-11.86-.583-1.645-.495-3.546-.96-3.546-.96-8.332-1.877-12.808-.76-15.238.263a7.8,7.8,0,0,1-1.558-5.059v-12.9h5.532V269.83c0,2.6.744,4.8,3.571,4.8s3.569-2.2,3.569-4.8V259.483h5.533v12.236a8.01,8.01,0,0,1-1.162,4.435" transform="translate(-243.574 -259.144)"/>
    </g>
    <path id="패스_8671" data-name="패스 8671" class="cls-3" d="M331.723,170.1a1.842,1.842,0,0,0,.02.969c.263.866,4.053,2.631,4.875,1.861a1.318,1.318,0,0,0,.186-1.819l-.593-.638a3.7,3.7,0,0,0-2.984-1.516A1.37,1.37,0,0,0,331.723,170.1Z" transform="translate(-162.113 -9.745)"/>
    <path id="패스_8672" data-name="패스 8672" class="cls-3" d="M327.143,195.011c1.032-1.4,4.431-2.216,5.127-1.771a2.056,2.056,0,0,1-.747,2.046l-.818.588c-1.211.87-3.129,2.078-3.758-.078A.886.886,0,0,1,327.143,195.011Z" transform="translate(-158.942 -25.881)"/>
    <path id="패스_8673" data-name="패스 8673" class="cls-3" d="M375.225,196.236c1.951,1.485,3.553,2.35,5.963.943a1.363,1.363,0,0,0-.524-1.883l-.924-.394c-1.119-.511-1.348-.7-3.426-.162a2.364,2.364,0,0,0-1.573,1.114C374.9,195.983,375.06,196.11,375.225,196.236Z" transform="translate(-190.869 -26.748)"/>
    <path id="패스_8674" data-name="패스 8674" class="cls-3" d="M358.719,154.5a2.281,2.281,0,0,0-.869.579c-.719.768-.4,4.684.706,4.791a1.537,1.537,0,0,0,1.565-1.069,6.557,6.557,0,0,0,.319-3.84C360.261,154.226,359.36,154.266,358.719,154.5Z" transform="translate(-179.335)"/>
    <path id="패스_8675" data-name="패스 8675" class="cls-3" d="M379.31,170.254c.611-.033,1.27-.82,1.505-1.248a1.748,1.748,0,0,1,1.981-.816,1.206,1.206,0,0,1,.668,1.73,5.384,5.384,0,0,1-4.3,2.768c-.812.044-1.359-.4-1.3-1.127A1.431,1.431,0,0,1,379.31,170.254Z" transform="translate(-192.955 -9.192)"/>
    <path id="패스_8676" data-name="패스 8676" class="cls-3" d="M355.96,176.9a4.061,4.061,0,0,0-5.365-.23c-2.3,1.77-1.821,4.368-.04,4.285a4.329,4.329,0,0,0,3.577-2.426c.6.212.786,1.63-.706,2.769s-4.214,1.5-5.343.246-.887-3.766,1.421-5.3,3.491-1.709,4.085-1.736c.8-.038,1.147.12,1.363-.368s-.629-1.807-1.343-1.773a9.688,9.688,0,0,0-6.726,3.759c-2.7,3.336-.671,6.1,1.4,7.074s5.279.946,6.955-1.392S356.829,177.7,355.96,176.9Z" transform="translate(-171.403 -12.032)"/>
  </g>
</svg>
