<svg xmlns="http://www.w3.org/2000/svg" width="220.448" height="59.121" viewBox="0 0 220.448 59.121">
  <defs>
    <style>
      .cls-1 {
        fill: #003f8f;
      }

      .cls-2 {
        fill: #f68700;
      }

      .cls-3 {
        fill: #d90017;
      }

      .cls-4 {
        fill: #904e95;
      }

      .cls-5 {
        fill: #00862f;
      }

      .cls-6 {
        fill: gray;
      }

      .cls-7 {
        fill: none;
      }
    </style>
  </defs>
  <g id="그룹_6882" data-name="그룹 6882" transform="translate(-127.52 -365.683)">
    <g id="그룹_6866" data-name="그룹 6866" transform="translate(195.146 380.85)">
      <g id="그룹_6863" data-name="그룹 6863" transform="translate(0.152 23.61)">
        <g id="그룹_6861" data-name="그룹 6861">
          <path id="패스_8774" data-name="패스 8774" class="cls-1" d="M232.173,426.139a1.285,1.285,0,0,1,.408-.047.62.62,0,0,1,.678.7.7.7,0,0,1-.771.746h-.314Zm-.948,5.023a5.6,5.6,0,0,0,1.037.087,2.1,2.1,0,0,0,1.665-.544,1.887,1.887,0,0,0,.44-1.284,1.471,1.471,0,0,0-.842-1.488v-.02a1.406,1.406,0,0,0,.69-1.283,1.462,1.462,0,0,0-.5-1.194,1.759,1.759,0,0,0-1.25-.34,5.126,5.126,0,0,0-1.238.137Zm.948-2.648h.325a.866.866,0,0,1,.044,1.731,1.354,1.354,0,0,1-.37-.028Z" transform="translate(-231.225 -425.043)"/>
          <path id="패스_8775" data-name="패스 8775" class="cls-1" d="M238.056,425.162v3.474c0,1.05.285,1.581.769,1.581.5,0,.777-.5.777-1.581v-3.474h.957v3.393c0,1.868-.659,2.758-1.767,2.758-1.067,0-1.689-.854-1.689-2.775v-3.376Z" transform="translate(-233.261 -425.066)"/>
          <path id="패스_8776" data-name="패스 8776" class="cls-1" d="M243.387,429.761a1.879,1.879,0,0,0,1.062.378.612.612,0,0,0,.674-.665c0-.369-.2-.593-.71-.849a1.9,1.9,0,0,1-1.171-1.8,1.632,1.632,0,0,1,1.6-1.81,1.847,1.847,0,0,1,1.08.3l-.212,1.093a1.547,1.547,0,0,0-.88-.285.567.567,0,0,0-.618.582c0,.386.233.556.787.862a1.861,1.861,0,0,1,1.093,1.814,1.678,1.678,0,0,1-1.7,1.878,2.13,2.13,0,0,1-1.2-.377Z" transform="translate(-235.372 -425.015)"/>
          <path id="패스_8777" data-name="패스 8777" class="cls-1" d="M249.381,428.636l.258-1.282c.062-.348.13-.805.188-1.169h.02c.063.354.137.812.206,1.169l.265,1.282Zm1.081,1.023.327,1.553h1.03l-1.32-6.05h-1.25l-1.293,6.05h.993l.294-1.553Z" transform="translate(-237.021 -425.066)"/>
          <path id="패스_8778" data-name="패스 8778" class="cls-1" d="M254.632,431.212v-6.05h1.12l.879,2.214c.252.642.5,1.394.69,2.076h.012c-.056-.8-.075-1.612-.075-2.531v-1.759h.88v6.05h-1.007l-.9-2.331c-.254-.66-.536-1.427-.736-2.141h-.025c.031.813.044,1.664.044,2.651v1.82Z" transform="translate(-239.334 -425.066)"/>
          <path id="패스_8779" data-name="패스 8779" class="cls-1" d="M269.363,428.9c-.017-.729-.037-1.6-.037-2.489h-.014c-.137.772-.314,1.635-.476,2.345l-.516,2.362h-.748l-.452-2.335c-.139-.716-.277-1.572-.382-2.372h-.014c-.018.818-.044,1.749-.069,2.5l-.082,2.3h-.885l.27-6.05h1.276l.414,2.029c.139.7.264,1.445.359,2.153h.026c.111-.7.256-1.485.4-2.171l.446-2.01h1.258l.225,6.05h-.931Z" transform="translate(-243.165 -425.066)"/>
          <path id="패스_8780" data-name="패스 8780" class="cls-1" d="M276.888,428.655H275.33v1.439h1.74v1.118h-2.7v-6.05h2.608v1.123H275.33v1.261h1.558Z" transform="translate(-246.174 -425.066)"/>
          <path id="패스_8781" data-name="패스 8781" class="cls-1" d="M280.454,426.312h-1.143v-1.15h3.254v1.15h-1.156v4.9h-.955Z" transform="translate(-247.884 -425.066)"/>
          <path id="패스_8782" data-name="패스 8782" class="cls-1" d="M286.089,426.162a1.5,1.5,0,0,1,.434-.042c.438,0,.7.284.7.836,0,.527-.282.87-.759.87h-.378Zm-.949,5.027h.949v-2.376h.282c.4.01.579.2.7.968a10.526,10.526,0,0,0,.289,1.408h.982c-.084-.231-.21-1.022-.341-1.714a1.573,1.573,0,0,0-.565-1.122v-.027a1.648,1.648,0,0,0,.748-1.483,1.831,1.831,0,0,0-.4-1.263,1.677,1.677,0,0,0-1.37-.485,5.266,5.266,0,0,0-1.275.137Z" transform="translate(-249.904 -425.043)"/>
          <path id="패스_8783" data-name="패스 8783" class="cls-1" d="M292.611,430.173c-.641,0-1.023-.886-1.023-2.028,0-1.127.369-2.042,1.031-2.042s1.018.932,1.018,2.016c0,1.184-.371,2.054-1.018,2.054Zm-.032,1.089c1.238,0,2.074-1.2,2.074-3.189,0-1.668-.711-3.057-2.009-3.057-1.246,0-2.063,1.35-2.063,3.166,0,1.722.743,3.08,1.991,3.08Z" transform="translate(-251.788 -425.015)"/>
          <path id="패스_8784" data-name="패스 8784" class="cls-1" d="M298.736,426.181a1.245,1.245,0,0,1,.4-.042c.48,0,.749.331.749.888,0,.607-.317.977-.825.977a1.085,1.085,0,0,1-.32-.035Zm-.951,5.008h.951v-2.171a1.136,1.136,0,0,0,.327.037,1.667,1.667,0,0,0,1.382-.638,2.411,2.411,0,0,0,.383-1.434,2.085,2.085,0,0,0-.448-1.394,1.6,1.6,0,0,0-1.3-.493,5.48,5.48,0,0,0-1.3.127Z" transform="translate(-254.284 -425.043)"/>
          <path id="패스_8785" data-name="패스 8785" class="cls-1" d="M304.955,430.173c-.642,0-1.027-.886-1.027-2.028,0-1.127.373-2.042,1.033-2.042s1.018.932,1.018,2.016c0,1.184-.373,2.054-1.018,2.054Zm-.035,1.089c1.241,0,2.078-1.2,2.078-3.189,0-1.668-.715-3.057-2.014-3.057-1.242,0-2.059,1.35-2.059,3.166,0,1.722.74,3.08,1.992,3.08Z" transform="translate(-256.065 -425.015)"/>
          <path id="패스_8786" data-name="패스 8786" class="cls-1" d="M310.147,425.162h.952v4.9h1.683v1.149h-2.635Z" transform="translate(-258.567 -425.066)"/>
          <path id="패스_8787" data-name="패스 8787" class="cls-1" d="M316.193,425.162v6.05h-.952v-6.05Z" transform="translate(-260.332 -425.066)"/>
          <path id="패스_8788" data-name="패스 8788" class="cls-1" d="M318.976,426.312h-1.142v-1.15h3.254v1.15h-1.156v4.9h-.956Z" transform="translate(-261.23 -425.066)"/>
          <path id="패스_8789" data-name="패스 8789" class="cls-1" d="M324.158,428.636l.253-1.282c.066-.348.134-.805.191-1.169h.02c.06.354.137.812.207,1.169l.262,1.282Zm1.08,1.023.328,1.553h1.029l-1.321-6.05h-1.25l-1.295,6.05h.993l.3-1.553Z" transform="translate(-262.926 -425.066)"/>
          <path id="패스_8790" data-name="패스 8790" class="cls-1" d="M329.519,431.212v-6.05h1.118l.88,2.214c.254.642.5,1.394.7,2.076h.008c-.056-.8-.074-1.612-.074-2.531v-1.759h.88v6.05h-1.008l-.9-2.331c-.252-.66-.534-1.427-.737-2.141h-.024c.029.813.044,1.664.044,2.651v1.82Z" transform="translate(-265.278 -425.066)"/>
          <path id="패스_8791" data-name="패스 8791" class="cls-1" d="M343.062,431a2.119,2.119,0,0,1-1.082.261c-1.463,0-2.216-1.312-2.216-3.042,0-2.067,1.031-3.205,2.314-3.205a1.842,1.842,0,0,1,1.04.269l-.2,1.075a1.533,1.533,0,0,0-.806-.224c-.749,0-1.34.654-1.34,2.01,0,1.213.5,1.975,1.347,1.975a1.612,1.612,0,0,0,.8-.2Z" transform="translate(-268.827 -425.015)"/>
          <path id="패스_8792" data-name="패스 8792" class="cls-1" d="M346.99,425.162v6.05h-.953v-6.05Z" transform="translate(-271.001 -425.066)"/>
          <path id="패스_8793" data-name="패스 8793" class="cls-1" d="M349.774,426.312H348.63v-1.15h3.255v1.15h-1.154v4.9h-.958Z" transform="translate(-271.899 -425.066)"/>
          <path id="패스_8794" data-name="패스 8794" class="cls-1" d="M355.382,431.212v-2.478l-1.336-3.572h1.1l.425,1.457c.133.438.227.757.325,1.154h.018c.091-.376.193-.724.318-1.154l.425-1.457h1.076l-1.395,3.528v2.522Z" transform="translate(-273.776 -425.066)"/>
        </g>
        <g id="그룹_6862" data-name="그룹 6862" transform="translate(86.357)">
          <path id="패스_8795" data-name="패스 8795" class="cls-1" d="M365.388,430.172c-.639,0-1.023-.886-1.023-2.028,0-1.125.371-2.041,1.029-2.041s1.017.933,1.017,2.015c0,1.185-.373,2.054-1.017,2.054Zm-.031,1.091c1.237,0,2.074-1.2,2.074-3.191,0-1.667-.713-3.057-2.013-3.057-1.243,0-2.06,1.352-2.06,3.166,0,1.723.744,3.082,1.995,3.082Z" transform="translate(-363.359 -425.015)"/>
          <path id="패스_8796" data-name="패스 8796" class="cls-1" d="M370.36,425.162h2.582v1.122h-1.629v1.382h1.52v1.117h-1.52v2.429h-.954Z" transform="translate(-365.784 -425.066)"/>
          <path id="패스_8797" data-name="패스 8797" class="cls-1" d="M375.319,425.162H377.9v1.122h-1.629v1.382h1.521v1.117h-1.521v2.429h-.953Z" transform="translate(-367.503 -425.066)"/>
          <path id="패스_8798" data-name="패스 8798" class="cls-1" d="M381.524,425.162v6.05h-.952v-6.05Z" transform="translate(-369.322 -425.066)"/>
          <path id="패스_8799" data-name="패스 8799" class="cls-1" d="M386.316,431a2.082,2.082,0,0,1-1.082.264c-1.461,0-2.214-1.313-2.214-3.044,0-2.065,1.028-3.2,2.31-3.2a1.828,1.828,0,0,1,1.042.269l-.2,1.076a1.533,1.533,0,0,0-.8-.226c-.755,0-1.345.654-1.345,2.009,0,1.216.5,1.977,1.351,1.977a1.653,1.653,0,0,0,.8-.2Z" transform="translate(-370.17 -425.015)"/>
          <path id="패스_8800" data-name="패스 8800" class="cls-1" d="M391.686,428.654h-1.557v1.438h1.74v1.12h-2.7v-6.05h2.608v1.122h-1.652v1.261h1.557Z" transform="translate(-372.302 -425.066)"/>
          <path id="패스_8801" data-name="패스 8801" class="cls-1" d="M400.184,430.172c-.639,0-1.024-.886-1.024-2.028,0-1.125.373-2.041,1.031-2.041s1.02.933,1.02,2.015c0,1.185-.371,2.054-1.02,2.054Zm-.027,1.091c1.235,0,2.071-1.2,2.071-3.191,0-1.667-.708-3.057-2.009-3.057-1.244,0-2.065,1.352-2.065,3.166,0,1.723.746,3.082,2,3.082Z" transform="translate(-375.414 -425.015)"/>
          <path id="패스_8802" data-name="패스 8802" class="cls-1" d="M405.267,425.162h2.582v1.122h-1.627v1.382h1.52v1.117h-1.52v2.429h-.956Z" transform="translate(-377.878 -425.066)"/>
          <path id="패스_8803" data-name="패스 8803" class="cls-1" d="M416.357,428.654H414.8v1.438h1.74v1.12h-2.691v-6.05h2.6v1.122H414.8v1.261h1.559Z" transform="translate(-380.85 -425.066)"/>
          <path id="패스_8804" data-name="패스 8804" class="cls-1" d="M420.364,426.2a1.343,1.343,0,0,1,.432-.057c.827,0,1.343.62,1.343,1.923,0,1.443-.573,2.128-1.444,2.116a1.344,1.344,0,0,1-.331-.025Zm-.957,4.961a6.043,6.043,0,0,0,1.086.088,2.455,2.455,0,0,0,1.962-.778,3.83,3.83,0,0,0,.695-2.451,3.252,3.252,0,0,0-.716-2.3,2.146,2.146,0,0,0-1.738-.629,5.291,5.291,0,0,0-1.288.135Z" transform="translate(-382.776 -425.043)"/>
          <path id="패스_8805" data-name="패스 8805" class="cls-1" d="M426.954,425.162v3.474c0,1.052.286,1.582.771,1.582s.777-.5.777-1.582v-3.474h.957v3.394c0,1.867-.662,2.758-1.767,2.758-1.07,0-1.693-.855-1.693-2.776v-3.376Z" transform="translate(-385.06 -425.066)"/>
          <path id="패스_8806" data-name="패스 8806" class="cls-1" d="M435.456,431a2.033,2.033,0,0,1-1.077.264c-1.464,0-2.219-1.313-2.219-3.044,0-2.065,1.032-3.2,2.314-3.2a1.835,1.835,0,0,1,1.042.269l-.2,1.076a1.538,1.538,0,0,0-.806-.226c-.752,0-1.342.654-1.342,2.009,0,1.216.5,1.977,1.351,1.977a1.656,1.656,0,0,0,.8-.2Z" transform="translate(-387.195 -425.015)"/>
          <path id="패스_8807" data-name="패스 8807" class="cls-1" d="M439.134,428.636l.258-1.282c.065-.348.132-.8.191-1.169h.017c.063.355.136.812.208,1.169l.263,1.282Zm1.082,1.024.325,1.552h1.03l-1.319-6.05H439l-1.3,6.05h.993l.3-1.552Z" transform="translate(-389.116 -425.066)"/>
          <path id="패스_8808" data-name="패스 8808" class="cls-1" d="M444.57,426.313h-1.145v-1.151h3.255v1.151h-1.156v4.9h-.954Z" transform="translate(-391.097 -425.066)"/>
          <path id="패스_8809" data-name="패스 8809" class="cls-1" d="M450.327,425.162v6.05h-.955v-6.05Z" transform="translate(-393.158 -425.066)"/>
          <path id="패스_8810" data-name="패스 8810" class="cls-1" d="M453.9,430.172c-.637,0-1.025-.886-1.025-2.028,0-1.125.371-2.041,1.03-2.041s1.02.933,1.02,2.015c0,1.185-.371,2.054-1.02,2.054Zm-.032,1.091c1.241,0,2.073-1.2,2.073-3.191,0-1.667-.71-3.057-2.01-3.057-1.243,0-2.06,1.352-2.06,3.166,0,1.723.742,3.082,1.991,3.082Z" transform="translate(-394.025 -425.015)"/>
          <path id="패스_8811" data-name="패스 8811" class="cls-1" d="M459.084,431.212v-6.05H460.2l.879,2.216c.251.641.5,1.394.7,2.073h.007c-.056-.8-.073-1.612-.073-2.529v-1.76h.88v6.05h-1l-.908-2.333c-.25-.658-.533-1.424-.733-2.138h-.026c.031.813.046,1.663.046,2.651v1.82Z" transform="translate(-396.522 -425.066)"/>
        </g>
      </g>
      <g id="그룹_6865" data-name="그룹 6865" transform="translate(0 0)">
        <path id="패스_8812" data-name="패스 8812" class="cls-1" d="M397.2,392.668a1.988,1.988,0,0,0-2-1.661H383.076v2.364h11.4v9.785h-2.4v-5.664h-2.633v5.664h-1.926v-5.664h-2.633v5.664h-2.94v2.367h16.379v-2.367h-1.121C397.206,398.838,397.2,392.668,397.2,392.668Z" transform="translate(-283.29 -389.623)"/>
        <path id="패스_8813" data-name="패스 8813" class="cls-1" d="M372.444,409.136h2.7V391h-2.7Z" transform="translate(-279.998 -389.622)"/>
        <path id="패스_8814" data-name="패스 8814" class="cls-1" d="M357.707,390.741a1.522,1.522,0,0,0-1.187.594l-5.708,6.387,1.994,1.768,4.891-5.475s4.444,4.962,4.9,5.487l1.989-1.776c-.829-.949-5.6-6.292-5.6-6.3A1.73,1.73,0,0,0,357.707,390.741Z" transform="translate(-272.504 -389.531)"/>
        <path id="패스_8815" data-name="패스 8815" class="cls-1" d="M270.259,399.109c.1-.089,1.929-1.716,2.023-1.805-.47-.526-5.248-5.869-5.248-5.876a1.723,1.723,0,0,0-1.265-.686,1.528,1.528,0,0,0-1.189.594s-5.249,5.87-5.342,5.977c.095.081,1.931,1.706,2.029,1.791.094-.1,4.5-5.025,4.5-5.025S270.164,399,270.259,399.109Z" transform="translate(-240.778 -389.531)"/>
        <path id="패스_8816" data-name="패스 8816" class="cls-1" d="M459.205,391.006v2.777h-2.484v2.157h2.484v3.927h2.727v-8.861Z" transform="translate(-309.195 -389.623)"/>
        <path id="패스_8817" data-name="패스 8817" class="cls-1" d="M452.19,404.059a5.286,5.286,0,0,0-4.889,4.969c0,2.774,2.563,5.03,5.725,5.03s5.728-2.255,5.728-5.03S456.191,404,453.026,404c-.22,0-.437.014-.65.035Zm.836,7.645a2.695,2.695,0,1,1,3-2.676A2.848,2.848,0,0,1,453.026,411.7Z" transform="translate(-305.932 -394.124)"/>
        <path id="패스_8818" data-name="패스 8818" class="cls-1" d="M338.71,406.7h-11.4v2.379h10.331v5.485h2.715c0-.674,0-6.2,0-6.2A1.649,1.649,0,0,0,338.71,406.7Z" transform="translate(-264.363 -395.061)"/>
        <path id="패스_8819" data-name="패스 8819" class="cls-1" d="M342.009,399.952h2.706v-8.961h-2.706v1.293H339.9v2.275h2.112v1.625H339.9V398.5h2.112Z" transform="translate(-268.722 -389.618)"/>
        <path id="패스_8820" data-name="패스 8820" class="cls-1" d="M332.84,394.778a5.1,5.1,0,1,0-5.077,4.579A4.846,4.846,0,0,0,332.84,394.778Zm-7.427,0a2.359,2.359,0,1,1,2.35,2.227A2.29,2.29,0,0,1,325.413,394.777Z" transform="translate(-262.762 -389.343)"/>
        <path id="패스_8821" data-name="패스 8821" class="cls-1" d="M234.427,399.579H245.28a1.548,1.548,0,0,0,1.611-1.655v-6.917h-2.707V393h-8.713v-1.993h-2.7v6.913A1.66,1.66,0,0,0,234.427,399.579Zm1.045-4.3h8.713v1.931h-8.713Z" transform="translate(-231.608 -389.623)"/>
        <path id="패스_8822" data-name="패스 8822" class="cls-1" d="M230.993,408.725h6.841v6.144h2.706v-6.144h6.821v-2.363H230.993Z" transform="translate(-230.993 -394.943)"/>
        <path id="패스_8823" data-name="패스 8823" class="cls-1" d="M449.567,398.543l-3.8-4.007s-3.728,3.878-3.829,3.982c-.093-.1-1.778-1.821-1.86-1.9l3.571-3.7h-2.926v-2.249h3.724v-1.738h2.689v1.738h3.687v2.249H447.8s3.464,3.591,3.621,3.752Z" transform="translate(-303.43 -388.902)"/>
        <g id="그룹_6864" data-name="그룹 6864" transform="translate(22.074 1.374)">
          <path id="패스_8824" data-name="패스 8824" class="cls-1" d="M285.024,396.061v-2.325h-2.053v-2.743h-2.728v12.573h2.725v-7.505Z" transform="translate(-270.13 -390.993)"/>
          <path id="패스_8825" data-name="패스 8825" class="cls-1" d="M267.475,412.069v-5.717h-2.706v6.416a1.665,1.665,0,0,0,1.661,1.662h11.363v-2.365Z" transform="translate(-264.769 -396.314)"/>
        </g>
        <path id="패스_8826" data-name="패스 8826" class="cls-1" d="M307.52,396.1h2.063v-2.326H307.52v-2.785h-2.7v6.6h-2.225v-4.856a1.668,1.668,0,0,0-1.663-1.748h-8.162v2.368h7.123v4.236h-2.679V395.23h-2.7v2.361h-2.455v2.335h7.471a5.047,5.047,0,0,0-3.412,4.6c0,2.774,2.563,5.03,5.73,5.03s5.724-2.255,5.724-5.03a5.05,5.05,0,0,0-3.4-4.6h3.358Zm-5.677,11.1a2.695,2.695,0,1,1,3-2.676A2.848,2.848,0,0,1,301.843,407.2Z" transform="translate(-252.147 -389.617)"/>
        <path id="패스_8827" data-name="패스 8827" class="cls-1" d="M428.256,399.391v-2.363H424a4.47,4.47,0,0,0,1.612-3.378c0-2.628-2.44-4.759-5.45-4.759-.21,0-.417.012-.622.033l-.174.025a5.01,5.01,0,0,0-4.651,4.7,4.466,4.466,0,0,0,1.61,3.378h-4.453v2.363h3.575v1.925h-2.458v2.365h11.386v4.7H427.1c0-.641,0-5.406,0-5.406a1.663,1.663,0,0,0-1.661-1.658h-.595v-1.925Zm-8.1-8.161a2.435,2.435,0,1,1-2.708,2.419A2.578,2.578,0,0,1,420.158,391.23Zm1.975,10.086h-3.985v-1.925h3.985Z" transform="translate(-293.656 -388.89)"/>
      </g>
    </g>
    <g id="그룹_6881" data-name="그룹 6881" transform="translate(127.52 365.683)">
      <g id="그룹_6871" data-name="그룹 6871" transform="translate(8.467 15.329)">
        <g id="그룹_6867" data-name="그룹 6867" transform="translate(20.755 6.179)">
          <path id="패스_8828" data-name="패스 8828" class="cls-2" d="M182.761,402.025a1.543,1.543,0,0,0-.083-.476,1.88,1.88,0,0,0-.55-.465c-.1-.065-.223-.112-.287-.227,0,0-.036.007-.046.007v.056c-.052,0-.129-.141-.158-.182-.016,0-.091-.03-.105-.03,0,.022.01.022.022.033s.093.115.083.141-.048.005-.055.005c0-.033-.061-.059-.084-.077-.194-.124-.343-.3-.536-.423-.1-.039-.208-.125-.305-.167-.268-.122-.516-.195-.784-.31-.019-.009-.256-.131-.218-.06a.863.863,0,0,1-.273-.1c0,.044.113.089.145.115a.745.745,0,0,0-.116-.019c0,.03-.025.028-.048.03,0-.025-.108-.082-.136-.1a1.484,1.484,0,0,0-.275-.04.474.474,0,0,1,.076-.039h.037c0-.009-.176-.093-.256-.052a2.5,2.5,0,0,1-.461-.009c-.093-.023-.19-.045-.281-.058a.322.322,0,0,0-.013.067c-.012,0-.034-.027-.057-.027a1.557,1.557,0,0,1-.77-.375,2.241,2.241,0,0,0-.372-.214,1.854,1.854,0,0,0-.819-.308c0-.037.129-.027.129-.054-.02-.063-.233-.07-.384-.078v.022c-.161,0-.5.3-.6.425-.061.078-.125.221-.228.24-.193.31-.432,1.383-.756,1.584,0,.133-.076.147-.148.242a.489.489,0,0,0-.092.332c.007,0,.137-.286.164-.224,0,.056-.055.116-.079.161a2.287,2.287,0,0,1-.31.68c-.09.2-.17.54-.233.66-.156.307-.382.573-.564.865a2.671,2.671,0,0,0-.276.547.6.6,0,0,0-.1.39c-.036,0-.1.146-.122.184a1.5,1.5,0,0,0-.2.576,1.2,1.2,0,0,0,.654.993c0,.03.008.02.037.02.011-.048-.052-.118-.052-.13.144,0,.289.207.408.267s.256.107.384.163a5.832,5.832,0,0,1,.714.193c.205.107.364.314.592.369v-.034c-.031,0-.09-.06-.09-.071.037-.022.085.008.1.012.172.086.762.546.907.518,0,.09.453.16.5.28a.463.463,0,0,1,.143.011c.079.025.476.256.519.168a3.817,3.817,0,0,1,.377.246c.138.1.361.182.535.316a2.271,2.271,0,0,0,.6.35c.014,0,.075.01.076.01,0-.042-.3-.184-.31-.184-.012-.048.058-.018.058-.023a1.036,1.036,0,0,1,.276.118.205.205,0,0,0,.09-.017c0,.134.895.208,1.047.117-.01,0-.077-.046-.112-.046.038-.054.152-.054.169-.049.11.025.257-.118.314-.208.021,0,0-.061-.009-.061,0,.029-.1.08-.118.08a.155.155,0,0,1,.023-.089,2.321,2.321,0,0,0,.409-.6c.039-.112.031-.25.059-.367s.031-.241.061-.356c.009-.08,0-.173,0-.248a1.3,1.3,0,0,1,.15-.362.336.336,0,0,1-.025.181c-.015.118-.055.319-.051.319a.456.456,0,0,0,.076-.169,3.442,3.442,0,0,1,.32-.733c.039-.067-.021-.069.01-.125.059-.106.125-.2.186-.307.035-.088.022-.178.07-.258.082-.124.163-.249.247-.369.082-.18.133-.365.219-.543.2-.385.387-.767.582-1.154.083-.2.154-.412.225-.62.007-.046.009-.091.018-.137.062-.212.142-.378.2-.585C182.742,402.171,182.765,402.11,182.761,402.025Z" transform="translate(-172.232 -398.593)"/>
        </g>
        <g id="그룹_6868" data-name="그룹 6868" transform="translate(10.198 2.641)">
          <path id="패스_8829" data-name="패스 8829" class="cls-3" d="M164.91,399.037a1.23,1.23,0,0,0,.291-.646,3.985,3.985,0,0,0,.037-.712c-.029.012-.048.12-.078.168a.347.347,0,0,0-.037-.247.338.338,0,0,0-.046.1c-.01.11.058.165.063.256a1.294,1.294,0,0,1-.163.485.662.662,0,0,1-.008-.133c.017-.144.037-.282.06-.425s.024-.268.033-.4c.007-.061.049-.1.074-.154a.69.69,0,0,0,.025-.18s.047.041.037.129a.255.255,0,0,0,.019-.188c0-.078-.033-.133-.037-.22-.029,0-.029.076-.039.076a1.092,1.092,0,0,0-.146-.4c-.041-.059-.1-.093-.129-.162-.021-.048,0-.1.012-.158,0-.073-.012-.144-.012-.217a.356.356,0,0,1,.025-.277c0-.03-.046-.05-.061-.076-.022-.059-.041-.107-.062-.159s-.094-.131-.137-.113v.016c-.048,0-.062-.047-.074-.074a1.987,1.987,0,0,0-.2-.341c-.042-.039-.09-.078-.129-.113-.054-.067-.108-.133-.165-.2s-.1-.117-.156-.173c-.039,0,.008.049.016.073-.073,0-.324-.368-.443-.407-.005.036.063.063.093.111-.086,0-.23-.186-.241-.186v-.016c.028,0,.076.03.076.016s-.007-.04-.016-.04c0-.025-.036-.026-.059-.035-.233-.069-.314-.2-.525-.3-.011.064.131.118.136.132-.1,0-.3-.17-.419-.189-.059,0,.188.115.182.154-.116-.043-.231-.088-.351-.133a3.778,3.778,0,0,0-1.086-.35c0-.027.1-.02.148-.02,0-.125-.569-.135-.709-.118a1.575,1.575,0,0,1-.183.055.61.61,0,0,0,.237-.007.738.738,0,0,1,.413.127,3.251,3.251,0,0,0-.627-.058h-.127s.109-.065-.056-.011c-.042,0-.074.01-.111.011h-.034c0,.032.071.032.071.038a.656.656,0,0,0-.389.151c-.148,0-.207-.086-.388-.041h-.038c0,.033.07.043.07.05-.036.012-.139.036-.177.045,0,.031.275-.033.3.02a.679.679,0,0,0-.3.092c-.052.005-.1.013-.148.015-.009,0-.067.016-.072.036-.09.022-.176.047-.27.067a1.662,1.662,0,0,0-.75.342s-.022.01-.014.037c.01,0,.148-.08.183-.091,0-.033.013-.024.037-.024-.024.063-.355.328-.478.471-.054.046-.109.086-.167.127a2.3,2.3,0,0,0-.388.487,5.749,5.749,0,0,1-.352.655c0,.027.035.027.058.032,0,.136-.307.24-.278.486-.033,0-.105.094-.125.129-.037,0-.02.007-.02.033.029,0,.021-.016.039-.033h.012v.014c-.012,0-.207.365-.239.425-.032,0-.015.011-.015.039.045,0-.029.166-.038.2-.019,0,0,.09,0,.127,0,.475.135,1.286.093,1.35-.034-.071-.077-.143-.112-.21a.321.321,0,0,1-.035-.163c-.032,0-.026.222-.041.261a.023.023,0,0,1-.018.021c-.012-.1-.041-.15-.058-.251-.029,0,0-.052-.038-.052v-.019c-.027,0-.014.047-.018.079a3.7,3.7,0,0,0-.029.773c.034-.018.042-.124.051-.124a.718.718,0,0,0,.041.331s.01.018.015.018a.7.7,0,0,1-.015-.167,2.435,2.435,0,0,0,.146.421c0,.023.05.035.067.065a3.379,3.379,0,0,0,.193.436c.029.024.029-.017.039-.037a1.063,1.063,0,0,0,.144.315c0,.007.142.186.164.218.008,0,.019.015.019.022.031-.022,0-.113,0-.113s.022-.025.022-.017c.054,0,.088.149.088.2a.216.216,0,0,1-.034-.071c-.065,0,.006.183.02.222-.025,0-.02.006-.006.022.114.147.191.306.307.449a.5.5,0,0,0,.176.154.551.551,0,0,1-.016-.166c.009,0,.016.015.016.022.036,0,.143.29.256.329,0-.027-.027-.05-.03-.076a.032.032,0,0,1-.022-.012,1.588,1.588,0,0,0,.477.225.424.424,0,0,1,.187.11c-.013,0-.061,0-.043.024v0c.06.054.19.046.264.08a6.955,6.955,0,0,0,.625.312s0-.024-.037-.057c0,0,.007-.014.022-.014,0,.027.03.024.049.041.086.067.1.139.224.146.02.011.038.022.038-.007a.265.265,0,0,1,.077.037,1.208,1.208,0,0,0,.238.062,1.8,1.8,0,0,0,.384.082c.08,0,.152,0,.226-.008a1.1,1.1,0,0,0,.661.064c.016,0,.067-.026.067-.045a.47.47,0,0,1-.177-.043c.1-.027.356-.033.387.017a.3.3,0,0,0-.177.094h.035c0,.029.015.022.04.022.187-.05.428-.188.508-.2.005.031-.02.043-.035.051s-.018.016-.018.018a.488.488,0,0,0,.127-.044c.12-.083.234-.182.357-.262s.252-.146.374-.239c.039-.041.049-.08.112-.125.057-.027.11-.058.167-.091s.054-.065.082-.1a.443.443,0,0,1,.153-.071.881.881,0,0,1,.227-.148c.01-.1.1-.147.191-.194h.018c-.011.031-.132.093-.148.176a.519.519,0,0,0,.176-.108c.029-.036.058-.067.09-.107a1.646,1.646,0,0,0,.169-.095c.088-.059.165-.116.248-.175a.239.239,0,0,1,.017-.1,2.794,2.794,0,0,0,.32-.42,1.116,1.116,0,0,1,.209-.325c.05-.018.051-.025.093-.042,0,.107-.1.159-.131.284,0,0-.02.014-.02.018.189,0,.294-.638.376-.776.009,0-.016-.113.074-.15,0-.118.062-.225.035-.352,0,.044-.069.105-.091.135a.808.808,0,0,0-.112.329.183.183,0,0,1-.039-.13c0-.029.064-.276.071-.3S164.9,399.04,164.91,399.037Z" transform="translate(-156.079 -393.179)"/>
        </g>
        <g id="그룹_6869" data-name="그룹 6869" transform="translate(13.366 14.571)">
          <path id="패스_8830" data-name="패스 8830" class="cls-4" d="M164.566,411.434a1.355,1.355,0,0,1,.3.116,1.4,1.4,0,0,1,.478.287c-.027,0-.05-.012-.078-.018.09.072.244.18.244.212.01,0,.048,0,.054.023.117.158.123.205.184.284a1.153,1.153,0,0,1,.244.384c.04.047.084.095.125.143a2.284,2.284,0,0,1,.171.3c.015.03.049.06.049.1.016,0-.014-.068.073-.059.012,0,.087.078.12.1a1.113,1.113,0,0,1,.132.3,1.257,1.257,0,0,1,.115.486,1.042,1.042,0,0,1,.438.341c.016.025.045.046.045.083.065-.012.077.052.129.052.019-.005.014.079-.017.079a1.774,1.774,0,0,1,.1.341,1.592,1.592,0,0,0,.7.634,1.253,1.253,0,0,1-.249-.357c-.063-.093-.156-.122-.15-.235a2.7,2.7,0,0,1,.784.777c.01.029.025.089.041.089a.619.619,0,0,0,.176.143c.082.04.131.118.227.118-.066-.129-.235-.205-.265-.356-.008-.024.265.153.265.265.09,0,.612.4.612.557a.183.183,0,0,1-.083-.042c-.044-.055-.087-.127-.153-.14,0,.01-.02.05-.02.061-.009.147.6.641.6.886.006,0,.026-.059.026-.05a1.89,1.89,0,0,1,.2.623c.028.06.039.126.074.188.014,0,.035-.016.035-.057a.442.442,0,0,1,.139.312c-.025.069-.055.088-.055.176s-.087.112-.124.15a1.219,1.219,0,0,0-.112.194,1.477,1.477,0,0,1-.823.5c-.155,0-.423.057-.507.037,0-.007.122-.055.122-.087-.019-.048-.39-.075-.369,0a.168.168,0,0,0,.123.05.034.034,0,0,1-.031.037c-.186.088-.435-.007-.63.031-.084.032-.5.144-.62.165a2.629,2.629,0,0,1-.54.142c-.1.018-.171.024-.261.042a2.558,2.558,0,0,0-.5.071.758.758,0,0,1-.118.059c-.018.011-.087.044-.087.009.008,0,.079-.026.079-.056a.029.029,0,0,0,.015-.018,1.276,1.276,0,0,0-.625.241,2.584,2.584,0,0,1-.275-.041l-.131.022v.018c.036.011.08.054.125.054,0,.023.006.016-.016.016a1.676,1.676,0,0,1-.427.1c-.076.016-.157.035-.24.05-.073-.007-.146-.015-.22-.021v-.018c.051,0,.108,0,.165,0-.16-.106-.17-.023-.313-.023v.041h.038a.61.61,0,0,1,.072.021v.016a1.892,1.892,0,0,0-.246.073c-.083,0-.165.008-.253.008-.042.01-.095.021-.143.028.01.024.036.05.036.059-.122.005-.246.016-.374.027-.033,0-.072-.007-.106-.012,0,0,.034.049.034.073,0,0-.289.058-.349.058a.255.255,0,0,1-.182.09c.016.02.054.052.054.057-.241,0-.453.035-.7.035v-.018c.012-.017.053-.055.018-.055v-.02c.087-.016.174-.033.26-.05,0-.018-.184-.023-.184-.054a.636.636,0,0,0-.332-.083c-.335.056-.654-.022-.747-.4a1.792,1.792,0,0,1,.107-.8,3.522,3.522,0,0,1,.305-.671.6.6,0,0,0,.1-.278,2.129,2.129,0,0,0,.357-.755c.019-.073.012-.155.038-.224s.107-.142.144-.225c.01-.065.02-.127.037-.189.106-.217.207-.437.313-.657.042-.125.086-.248.126-.367.006-.052.015-.108.02-.16.032-.058.054-.114.084-.169.034-.146.069-.283.1-.426.021-.061.044-.123.067-.182a.23.23,0,0,0-.09.144s-.053.039-.056.039a1.117,1.117,0,0,1,.155-.373,3.312,3.312,0,0,0,.237-.554c.005-.022.011-.127.025-.127.055-.141.184-.293.184-.453h-.017c-.024.049-.1.115-.1.167-.006,0-.037.012-.047.012a.675.675,0,0,1,.159-.373.831.831,0,0,0,.07-.2c.018-.067.037-.135.057-.207a1.959,1.959,0,0,1,.146-.363.981.981,0,0,0,.178-.482c-.067.046-.2.371-.271.371-.039-.016-.019-.055-.023-.055.064-.175.124-.345.183-.518h.036c0,.018.014.053.023.053a1,1,0,0,1,.772-.715.491.491,0,0,1,.171.025c.041.012.061.011.118.029C164.6,411.466,164.643,411.475,164.566,411.434Z" transform="translate(-160.926 -411.434)"/>
        </g>
        <g id="그룹_6870" data-name="그룹 6870" transform="translate(0 2.492)">
          <path id="패스_8831" data-name="패스 8831" class="cls-1" d="M155.957,429.08c-.153-.156-.324-.321-.51-.484a8.844,8.844,0,0,0-2.859-1.657,11.1,11.1,0,0,0-2.321-.455,16.235,16.235,0,0,1-1.637-.252,6.076,6.076,0,0,1-3.451-2.223l-.135-.161-1.549,1.373.125.15a7.944,7.944,0,0,0,4.461,2.939,12.7,12.7,0,0,0,1.7.259,7.89,7.89,0,0,1,2.237.456,9.463,9.463,0,0,1,2.491,1.556l.148.145,1.429-1.506Z" transform="translate(-141.521 -403.656)"/>
          <path id="패스_8832" data-name="패스 8832" class="cls-1" d="M143.1,413.855a13.165,13.165,0,0,0,1.364,1.033,8.036,8.036,0,0,1,1.736,1.478,9.071,9.071,0,0,1,1.444,2.559l.056.2,1.984-.626-.05-.188a8.664,8.664,0,0,0-1.925-3.494,10.584,10.584,0,0,0-1.818-1.519c-.4-.282-.811-.574-1.315-1a6.353,6.353,0,0,1-2.057-4.181l-.037-.22-2.007.553.03.179A8.223,8.223,0,0,0,143.1,413.855Z" transform="translate(-140.475 -398.129)"/>
          <path id="패스_8833" data-name="패스 8833" class="cls-1" d="M146.24,400.518a7.89,7.89,0,0,1,.813,2.133,9.064,9.064,0,0,1,.039,2.934l-.041.2,2.038.391.048-.178a8.8,8.8,0,0,0-.009-3.993,11.937,11.937,0,0,0-.867-2.2,13.665,13.665,0,0,1-.672-1.512,6.347,6.347,0,0,1,.2-4.655l.076-.213-2.031-.474-.057.173a8.268,8.268,0,0,0-.233,5.83A13.629,13.629,0,0,0,146.24,400.518Z" transform="translate(-142.082 -392.952)"/>
        </g>
        <path id="패스_8834" data-name="패스 8834" class="cls-5" d="M186.857,396.146c-1.919-4.25-1.766-6.169-1.652-6.656a.986.986,0,0,1,.032-.1.233.233,0,0,0-.244-.249.207.207,0,0,0-.1.019v0c-1.76.952-3.4,2.946-3.918,6.923-.431,3.372.774,10.4-4.108,15.967-4.975,5.675-12.642,6.262-12.7,6.263h0a.127.127,0,0,0-.126.127.111.111,0,0,0,.055.1v0a11.6,11.6,0,0,0,4.539,1.752,25.314,25.314,0,0,1-8.777.493.1.1,0,0,0-.052-.012.125.125,0,0,0-.126.125.127.127,0,0,0,.06.112h0a19.374,19.374,0,0,0,27.114-24.866Z" transform="translate(-147.129 -389.138)"/>
      </g>
      <g id="그룹_6872" data-name="그룹 6872" transform="translate(0 0.141)">
        <path id="패스_8835" data-name="패스 8835" class="cls-6" d="M139.239,385.885a.893.893,0,0,1-.148.261.451.451,0,0,1-.7.1.506.506,0,0,1-.109-.775l.135-.185Zm-2.564-2.713a3.721,3.721,0,0,0-.5.573,1.526,1.526,0,0,0-.39,1.221,1.381,1.381,0,0,0,.569.81,1.081,1.081,0,0,0,1.242.141l.01.007a1.026,1.026,0,0,0,.464.957,1.045,1.045,0,0,0,.92.214,1.278,1.278,0,0,0,.737-.592,3.794,3.794,0,0,0,.452-.789Zm1.159,1.7-.139.192a.633.633,0,0,1-1.044-.714,1.013,1.013,0,0,1,.174-.208Z" transform="translate(-130.377 -371.883)"/>
        <path id="패스_8836" data-name="패스 8836" class="cls-6" d="M137.321,390.31l-2.214-1.234c-.67-.376-1.108-.383-1.28-.073s.043.674.73,1.056l2.214,1.237-.34.61-2.163-1.208c-1.189-.663-1.521-1.4-1.127-2.1.378-.683,1.144-.775,2.369-.092l2.152,1.2Z" transform="translate(-129.412 -373.567)"/>
        <path id="패스_8837" data-name="패스 8837" class="cls-6" d="M132.319,392.621a1.37,1.37,0,0,0-.554.608.447.447,0,0,0,.259.641c.249.1.455.031.769-.242a1.4,1.4,0,0,1,1.543-.278,1.192,1.192,0,0,1,.771,1.589,1.373,1.373,0,0,1-.509.642l-.678-.453a1.123,1.123,0,0,0,.441-.512.414.414,0,0,0-.22-.579c-.259-.108-.44,0-.8.286a1.354,1.354,0,0,1-1.528.227,1.223,1.223,0,0,1-.784-1.674,1.531,1.531,0,0,1,.591-.7Z" transform="translate(-128.696 -375.002)"/>
        <path id="패스_8838" data-name="패스 8838" class="cls-6" d="M131.126,397.664l.846.444c.233.116.539.258.779.371l0,.014c-.257-.027-.593-.069-.859-.093l-.955-.078Zm-.938.547-1.155-.089-.211.719,4.51.319.256-.876-3.975-2.147-.2.7,1.026.525Z" transform="translate(-127.971 -376.375)"/>
        <path id="패스_8839" data-name="패스 8839" class="cls-6" d="M128.288,401.719l4.359.711-.131.8-1.7.374c-.49.107-1.061.194-1.576.253v.012c.583.051,1.174.134,1.834.241l1.267.207-.1.633-4.359-.709.118-.725,1.788-.378c.5-.106,1.09-.218,1.625-.28l0-.018c-.586-.072-1.2-.164-1.913-.28l-1.313-.212Z" transform="translate(-127.644 -378.309)"/>
        <path id="패스_8840" data-name="패스 8840" class="cls-6" d="M129.368,413.64c.53-.045,1.164-.1,1.812-.136V413.5c-.569-.067-1.205-.158-1.728-.247l-1.744-.271-.034-.546,1.682-.431c.518-.133,1.131-.27,1.711-.383v-.008c-.6.023-1.277.045-1.829.059l-1.678.041-.039-.644,4.422-.068.055.928-1.46.391c-.5.132-1.041.256-1.554.356v.017c.515.053,1.1.124,1.6.2l1.486.238.056.914-4.4.431-.041-.68Z" transform="translate(-127.52 -381.523)"/>
        <path id="패스_8841" data-name="패스 8841" class="cls-6" d="M130.29,418.98l-.21-1.118-1.031.195.236,1.248-.805.152-.363-1.933,4.34-.82.352,1.869-.805.153-.224-1.185-.9.169.211,1.118Z" transform="translate(-127.726 -383.5)"/>
        <path id="패스_8842" data-name="패스 8842" class="cls-6" d="M132.715,421.115l-.237-.8.8-.239.675,2.279-.805.239-.239-.811-3.431,1.016-.2-.669Z" transform="translate(-128.13 -384.668)"/>
        <path id="패스_8843" data-name="패스 8843" class="cls-6" d="M134.061,425.071a.979.979,0,0,1,.152.28c.122.3,0,.554-.366.708a.554.554,0,0,1-.8-.269l-.106-.253Zm-3.653.767.264.642,1.605-.666.078.189c.1.269.022.448-.458.742a7.6,7.6,0,0,0-.869.59l.274.661c.135-.12.631-.426,1.061-.708.345-.229.566-.448.6-.7l.02-.008a1.2,1.2,0,0,0,1.208.088,1.333,1.333,0,0,0,.742-.62,1.216,1.216,0,0,0-.057-1.059,3.869,3.869,0,0,0-.447-.823Z" transform="translate(-128.521 -386.087)"/>
        <path id="패스_8844" data-name="패스 8844" class="cls-6" d="M133.891,431.2c-.231-.408.2-.969.922-1.377s1.436-.5,1.672-.079-.229.981-.92,1.372c-.754.424-1.44.5-1.672.088Zm-.7.371c.444.788,1.5.891,2.77.176,1.061-.6,1.691-1.548,1.226-2.376-.447-.791-1.6-.824-2.754-.176-1.1.618-1.693,1.576-1.244,2.371Z" transform="translate(-129.431 -387.671)"/>
        <path id="패스_8845" data-name="패스 8845" class="cls-6" d="M138.715,433.323a.9.9,0,0,1,.2.216c.209.285.127.585-.2.824a.613.613,0,0,1-.93-.063.741.741,0,0,1-.116-.2Zm-3.36,1.6.409.559,1.28-.937a.876.876,0,0,0,.119.208,1.217,1.217,0,0,0,.972.54,1.753,1.753,0,0,0,1.012-.392,1.517,1.517,0,0,0,.626-.864,1.163,1.163,0,0,0-.269-.978,4.05,4.05,0,0,0-.631-.708Z" transform="translate(-130.234 -388.921)"/>
        <path id="패스_8846" data-name="패스 8846" class="cls-6" d="M140.023,439.384c-.319-.343-.034-.988.574-1.556s1.278-.819,1.606-.467.008,1.008-.573,1.549c-.633.589-1.282.825-1.6.477Zm-.6.522c.617.662,1.67.515,2.736-.476.891-.83,1.282-1.9.633-2.6-.618-.665-1.748-.425-2.717.475-.921.857-1.276,1.927-.654,2.595Z" transform="translate(-131.536 -390.342)"/>
        <path id="패스_8847" data-name="패스 8847" class="cls-6" d="M145.243,439.223l.529.454-2.329,2.717.933.8-.546.636-1.463-1.254Z" transform="translate(-132.664 -391.302)"/>
        <path id="패스_8848" data-name="패스 8848" class="cls-6" d="M148.792,441.99l-2.614,3.56-.562-.414,2.616-3.557Z" transform="translate(-133.789 -392.118)"/>
        <path id="패스_8849" data-name="패스 8849" class="cls-6" d="M150.419,443.78l-.709-.439.44-.712,2.021,1.252-.442.714-.718-.446-1.883,3.043-.593-.367Z" transform="translate(-134.801 -392.481)"/>
        <path id="패스_8850" data-name="패스 8850" class="cls-6" d="M152.688,447.408l.582-.758c.154-.211.345-.488.5-.705l.012.005c-.071.25-.168.574-.238.832l-.241.926Zm.381,1.018-.284,1.123.676.33,1.076-4.39-.82-.4-2.791,3.551.651.317.691-.923Z" transform="translate(-135.629 -393.334)"/>
        <path id="패스_8851" data-name="패스 8851" class="cls-6" d="M156.169,450.761l1.436-4.176.773.264.08,1.74c.023.5.012,1.077-.014,1.594l.008,0c.15-.563.331-1.132.548-1.765l.418-1.215.608.209-1.437,4.178-.693-.24-.072-1.827c-.018-.509-.03-1.112,0-1.647l-.017-.009c-.17.567-.363,1.159-.6,1.839l-.432,1.259Z" transform="translate(-137.445 -393.852)"/>
        <path id="패스_8852" data-name="패스 8852" class="cls-6" d="M167.569,453.386a1.515,1.515,0,0,1-.806.087c-1.06-.138-1.483-1.159-1.319-2.412.193-1.495,1.048-2.223,1.975-2.1a1.387,1.387,0,0,1,.731.293l-.248.759a1.128,1.128,0,0,0-.561-.237c-.544-.071-1.035.348-1.163,1.331-.114.878.178,1.474.793,1.555a1.2,1.2,0,0,0,.6-.068Z" transform="translate(-140.647 -394.67)"/>
        <path id="패스_8853" data-name="패스 8853" class="cls-6" d="M170.984,449.269l-.208,4.413-.7-.032.208-4.411Z" transform="translate(-142.265 -394.771)"/>
        <path id="패스_8854" data-name="패스 8854" class="cls-6" d="M172.994,450.118l-.834.023-.027-.837,2.375-.074.027.84-.844.026.111,3.576-.7.021Z" transform="translate(-142.976 -394.768)"/>
        <path id="패스_8855" data-name="패스 8855" class="cls-6" d="M177.774,453.237l-.257-1.789-1.338-2.443.794-.116.458,1.007c.142.305.244.527.359.8l.007,0c.029-.281.065-.545.112-.868l.158-1.1.778-.112-.642,2.7.261,1.82Z" transform="translate(-144.378 -394.558)"/>
        <path id="패스_8856" data-name="패스 8856" class="cls-6" d="M186.605,450.408c-.439.158-.924-.356-1.208-1.137s-.256-1.5.2-1.661.931.386,1.2,1.131c.3.814.259,1.5-.187,1.665Zm.25.754c.849-.311,1.124-1.338.627-2.706-.416-1.145-1.25-1.923-2.143-1.6-.854.31-1.076,1.444-.624,2.687.431,1.182,1.276,1.928,2.136,1.618Z" transform="translate(-147.256 -393.921)"/>
        <path id="패스_8857" data-name="패스 8857" class="cls-6" d="M188.589,445.452l1.687-.843.366.735-1.063.531.45.9.993-.5.363.725-.993.5.793,1.587-.623.313Z" transform="translate(-148.677 -393.168)"/>
        <path id="패스_8858" data-name="패스 8858" class="cls-6" d="M191.929,443.645l1.6-1,.436.693-1.006.633.535.855.941-.59.433.688-.941.59.946,1.5-.591.371Z" transform="translate(-149.834 -392.486)"/>
        <path id="패스_8859" data-name="패스 8859" class="cls-6" d="M195.671,441.46l2.628,3.548-.56.414-2.63-3.548Z" transform="translate(-150.936 -392.077)"/>
        <path id="패스_8860" data-name="패스 8860" class="cls-6" d="M201.653,441.83a1.532,1.532,0,0,1-.467.665c-.8.7-1.85.346-2.683-.6-.994-1.131-.976-2.255-.274-2.872a1.381,1.381,0,0,1,.7-.354l.407.687a1.133,1.133,0,0,0-.549.264c-.415.364-.423,1.01.229,1.754.584.663,1.227.84,1.693.431a1.217,1.217,0,0,0,.346-.495Z" transform="translate(-151.843 -391.108)"/>
        <path id="패스_8861" data-name="패스 8861" class="cls-6" d="M203.047,437.661l-.774.835.771.714.863-.935.6.557-1.337,1.445-3.24-3,1.294-1.4.6.557-.818.884.673.625.773-.837Z" transform="translate(-152.606 -390.143)"/>
        <path id="패스_8862" data-name="패스 8862" class="cls-6" d="M208.507,432.509c-.244.4-.944.3-1.652-.135s-1.135-1.006-.884-1.418.97-.281,1.646.135c.738.449,1.14,1.011.893,1.416Zm.664.433c.472-.771.047-1.747-1.2-2.5-1.039-.636-2.177-.723-2.672.088-.474.776.059,1.8,1.189,2.49,1.073.655,2.2.709,2.676-.07Z" transform="translate(-154.408 -388.085)"/>
        <path id="패스_8863" data-name="패스 8863" class="cls-6" d="M206.962,427.4l.792-1.711.742.344-.5,1.078.916.424.466-1.008.738.341-.467,1.008,1.611.745-.293.633Z" transform="translate(-155.042 -386.613)"/>
        <path id="패스_8864" data-name="패스 8864" class="cls-6" d="M212.452,419.716l-.281,1.1,1.016.256.314-1.229.793.2-.485,1.908-4.281-1.094.472-1.843.793.2-.3,1.166.889.231.28-1.1Z" transform="translate(-155.931 -384.302)"/>
        <path id="패스_8865" data-name="패스 8865" class="cls-6" d="M211.358,416.1a1.031,1.031,0,0,1,0-.32c.079-.6.577-.912,1.518-.788,1.046.139,1.484.619,1.4,1.25a.862.862,0,0,1-.054.239Zm3.5,1.168a4.226,4.226,0,0,0,.17-.779,1.792,1.792,0,0,0-.378-1.493,2.781,2.781,0,0,0-1.707-.74,2.37,2.37,0,0,0-1.731.3,1.574,1.574,0,0,0-.622,1.2,3.922,3.922,0,0,0-.025.947Z" transform="translate(-156.284 -382.639)"/>
        <path id="패스_8866" data-name="패스 8866" class="cls-6" d="M211.056,411.273l2.535.033c.767.01,1.157-.193,1.161-.547s-.36-.57-1.146-.58l-2.536-.034.008-.7,2.476.033c1.364.017,2.007.507,2,1.315-.01.779-.638,1.225-2.04,1.207l-2.464-.031Z" transform="translate(-156.457 -380.986)"/>
        <path id="패스_8867" data-name="패스 8867" class="cls-6" d="M214.947,404.381a1.5,1.5,0,0,1,.271.765c.112,1.063-.782,1.71-2.041,1.841-1.5.158-2.4-.5-2.5-1.435a1.38,1.38,0,0,1,.116-.778l.8.065a1.106,1.106,0,0,0-.1.6c.057.547.578.927,1.561.823.881-.092,1.4-.515,1.333-1.13a1.251,1.251,0,0,0-.205-.57Z" transform="translate(-156.325 -379.231)"/>
        <path id="패스_8868" data-name="패스 8868" class="cls-6" d="M212.651,401.075l-.956.022c-.259.012-.6.036-.86.053l0-.014c.238-.1.552-.229.8-.336l.873-.394Zm.555-.936,1.054-.482-.165-.733-4.1,1.912.2.891,4.516-.05-.159-.706-1.154.038Z" transform="translate(-156.094 -377.34)"/>
        <path id="패스_8869" data-name="패스 8869" class="cls-6" d="M209.88,398.139l.261.795-.8.257-.743-2.254.8-.261.263.8,3.4-1.119.218.663Z" transform="translate(-155.61 -376.451)"/>
        <path id="패스_8870" data-name="패스 8870" class="cls-6" d="M207.9,394.741l4.073-1.706.27.643-4.074,1.707Z" transform="translate(-155.369 -375.3)"/>
        <path id="패스_8871" data-name="패스 8871" class="cls-6" d="M209.719,389.693c.221.412-.22.965-.954,1.357s-1.445.465-1.672.041.252-.977.951-1.35c.763-.408,1.45-.47,1.673-.055Zm.71-.356c-.426-.795-1.482-.921-2.767-.236-1.075.573-1.725,1.51-1.278,2.346.427.8,1.582.863,2.749.238,1.11-.593,1.727-1.538,1.3-2.344Z" transform="translate(-154.793 -373.783)"/>
        <path id="패스_8872" data-name="패스 8872" class="cls-6" d="M207.93,385.294l-3.6,2.559-.474-.663.947-1.461c.272-.42.618-.886.94-1.289l-.005-.007c-.451.371-.929.727-1.472,1.115l-1.048.745-.371-.523,3.6-2.561.425.6-1,1.526c-.282.427-.622.921-.959,1.342l.011.014c.467-.361.969-.729,1.557-1.148l1.083-.77Z" transform="translate(-153.617 -371.896)"/>
        <path id="패스_8873" data-name="패스 8873" class="cls-7" d="M186.582,395.388A29.49,29.49,0,1,1,157.093,365.9,29.491,29.491,0,0,1,186.582,395.388Z" transform="translate(-127.548 -365.899)"/>
      </g>
      <g id="그룹_6880" data-name="그룹 6880" transform="translate(9.033)">
        <g id="그룹_6873" data-name="그룹 6873" transform="translate(25.839 0.789)">
          <path id="패스_8874" data-name="패스 8874" class="cls-1" d="M185.887,368.452a.541.541,0,0,0-.389-.591l-3.166-.971-.188.618,2.977.912-.784,2.555c-.315-.1-.626-.193-.626-.193s.443-1.442.453-1.48c-.033-.01-.653-.2-.687-.21-.012.035-.454,1.478-.454,1.478l-.5-.155s.442-1.442.452-1.478c-.034-.013-.652-.2-.686-.213-.011.039-.454,1.481-.454,1.481l-.767-.236-.189.618,4.274,1.311.19-.618-.291-.09Z" transform="translate(-180.877 -366.89)"/>
        </g>
        <g id="그룹_6874" data-name="그룹 6874" transform="translate(20.774 0.112)">
          <path id="패스_8875" data-name="패스 8875" class="cls-1" d="M178.566,371.141l.735.068s.459-4.891.462-4.929l-.735-.069Z" transform="translate(-175.011 -365.978)"/>
          <path id="패스_8876" data-name="패스 8876" class="cls-1" d="M175.18,365.856a.415.415,0,0,0-.339.133s-1.577,1.461-1.715,1.59l.5.532,1.47-1.365s1.082,1.462,1.191,1.616l.586-.43c-.2-.28-1.363-1.855-1.363-1.857A.466.466,0,0,0,175.18,365.856Z" transform="translate(-173.127 -365.854)"/>
        </g>
        <g id="그룹_6875" data-name="그룹 6875" transform="translate(15.531)">
          <path id="패스_8877" data-name="패스 8877" class="cls-1" d="M169.719,370.017h0l-3.1.3c0,.035.059.61.063.646l2.808-.273.144,1.49.737-.071c-.017-.184-.165-1.685-.165-1.685A.45.45,0,0,0,169.719,370.017Z" transform="translate(-165.63 -367.184)"/>
          <path id="패스_8878" data-name="패스 8878" class="cls-1" d="M170.454,368.19c.036,0,.707-.069.735-.073l-.236-2.434-.736.073c0,.048.035.349.035.349l-.574.056c0,.037.057.585.061.618l.574-.056.042.443s-.537.049-.573.055c0,.035.058.594.06.631l.574-.056S170.45,368.154,170.454,368.19Z" transform="translate(-166.689 -365.683)"/>
          <path id="패스_8879" data-name="패스 8879" class="cls-1" d="M167.868,367.017a1.393,1.393,0,1,0-1.259,1.379A1.324,1.324,0,0,0,167.868,367.017Zm-2.019.2a.644.644,0,1,1,.7.544A.627.627,0,0,1,165.849,367.213Z" transform="translate(-165.105 -365.758)"/>
        </g>
        <g id="그룹_6876" data-name="그룹 6876" transform="translate(0 5.828)">
          <path id="패스_8880" data-name="패스 8880" class="cls-1" d="M143.2,378.585l2.266-1.91a.424.424,0,0,0,.047-.63l-1.218-1.444-.565.475c.023.029.35.418.35.418l-1.82,1.533s-.326-.39-.35-.416l-.565.475,1.217,1.444A.456.456,0,0,0,143.2,378.585Zm-.538-1.082,1.8-1.522.014-.012.34.4L143,377.9Z" transform="translate(-141.341 -374.601)"/>
          <path id="패스_8881" data-name="패스 8881" class="cls-1" d="M144.088,380.89l1.429-1.2,1.08,1.284.566-.476-1.081-1.283,1.424-1.2-.416-.493-3.419,2.88Z" transform="translate(-142.149 -375.61)"/>
        </g>
        <g id="그룹_6877" data-name="그룹 6877" transform="translate(35.877 5.502)">
          <path id="패스_8882" data-name="패스 8882" class="cls-1" d="M202.222,377.341l-.479.587s-.5-.407-.527-.429c-.022.027-.35.429-.372.454.029.025.525.432.525.432s-.653.8-.677.831l.576.469c.024-.031,1.506-1.846,1.529-1.876C202.772,377.788,202.25,377.363,202.222,377.341Z" transform="translate(-197.781 -375.224)"/>
          <path id="패스_8883" data-name="패스 8883" class="cls-1" d="M198.408,378.979a1.446,1.446,0,0,0-1.892.207,1.578,1.578,0,1,0,2.081-.075c-.048-.036-.1-.072-.144-.1Zm-1.142,1.764a.736.736,0,1,1,1.1-.049A.78.78,0,0,1,197.266,380.743Z" transform="translate(-196.237 -375.703)"/>
          <path id="패스_8884" data-name="패스 8884" class="cls-1" d="M198.71,377.3l-.112-1.5-1.5.181c0-.037-.063-.693-.064-.725.036,0,1.393-.166,1.393-.166s-.535-.437-.618-.507l.387-.474.788.643.3-.369c.061.051.52.427.569.465l-.3.367.779.638c-.022.028-.365.448-.388.475l-.64-.522.118,1.42Z" transform="translate(-196.514 -374.102)"/>
        </g>
        <g id="그룹_6879" data-name="그룹 6879" transform="translate(4.963 2.721)">
          <path id="패스_8885" data-name="패스 8885" class="cls-1" d="M151.814,373.166c.012-.034.239-.663.25-.7-.181-.065-2.025-.722-2.025-.724a.482.482,0,0,0-.394,0,.416.416,0,0,0-.206.3s-.493,2.092-.5,2.129c.034.007.687.158.721.165.011-.036.425-1.795.425-1.795Z" transform="translate(-148.935 -370.49)"/>
          <g id="그룹_6878" data-name="그룹 6878" transform="translate(1.342)">
            <path id="패스_8886" data-name="패스 8886" class="cls-1" d="M154.5,370.794l-.3-.557-.491.268s-.34-.627-.358-.658l-.654.356,1.642,3.016.652-.357-.979-1.8Z" transform="translate(-151.58 -369.847)"/>
            <path id="패스_8887" data-name="패스 8887" class="cls-1" d="M152.383,376.924l-.746-1.371-.65.353.837,1.54a.459.459,0,0,0,.616.183s2.692-1.468,2.725-1.485l-.308-.567Z" transform="translate(-150.988 -371.824)"/>
          </g>
        </g>
        <path id="패스_8888" data-name="패스 8888" class="cls-1" d="M160.809,368.227l.54-.161c-.011-.036-.172-.576-.181-.61l-.541.161-.215-.728-.709.209.516,1.729-.582.172-.379-1.269a.455.455,0,0,0-.571-.329l-2.135.636c.009.035.174.586.183.618.037-.01,1.866-.555,1.866-.555l.33,1.11-.7.208s-.173-.582-.184-.618c-.034.01-.674.2-.707.212.01.033.184.616.184.616l-.644.191c.011.034.171.574.183.612l1.955-.582a1.373,1.373,0,0,0-.535,1.467,1.577,1.577,0,0,0,3-.891,1.38,1.38,0,0,0-1.249-.939l.879-.26C161.094,369.184,160.809,368.227,160.809,368.227Zm-.622,3.346a.736.736,0,1,1,.576-.933A.776.776,0,0,1,160.186,371.573Z" transform="translate(-146.61 -366.101)"/>
        <path id="패스_8889" data-name="패스 8889" class="cls-1" d="M193.147,374.179l.308-.568-1.023-.555a1.209,1.209,0,0,0,.824-.6,1.4,1.4,0,0,0-.69-1.852c-.051-.025-.1-.048-.154-.071l-.045-.017a1.369,1.369,0,0,0-1.729.524,1.229,1.229,0,0,0-.052,1.022l-1.069-.579-.308.569.859.462-.248.464s-.554-.3-.591-.321l-.308.568,2.734,1.479s-.593,1.1-.611,1.128c.033.02.624.339.656.357.084-.155.7-1.3.7-1.3a.455.455,0,0,0-.182-.614l-.142-.078.249-.463Zm-.884-3.014a.665.665,0,1,1-.964.23A.7.7,0,0,1,192.263,371.165Zm-.835,2.68-.957-.518.25-.463.881.477.077.041Z" transform="translate(-157.825 -367.318)"/>
      </g>
    </g>
  </g>
</svg>
