<svg xmlns="http://www.w3.org/2000/svg" width="242.177" height="25.256" viewBox="0 0 242.177 25.256">
  <defs>
    <style>
      .cls-1 {
        fill: #b8000d;
      }

      .cls-2 {
        fill: #fff;
      }
    </style>
  </defs>
  <g id="그룹_6507" data-name="그룹 6507" transform="translate(-97.037 -258.903)">
    <path id="패스_7567" data-name="패스 7567" class="cls-1" d="M366.723,288.51h8.122v1.729h-8.7a1.6,1.6,0,0,1-1.132-.419,1.5,1.5,0,0,1-.444-1.144v-3.192h2.149Zm-.08-3.821a3.392,3.392,0,0,1-2.576-1.2,4.2,4.2,0,0,1-1.094-2.9,4.293,4.293,0,0,1,.371-1.744,2.05,2.05,0,0,1,.77-.881h-1.682v-1.728h3.131v-1.3h2.131v1.3h3.152v1.728h-1.64a1.8,1.8,0,0,1,.753.881,4.5,4.5,0,0,1,.359,1.744,4.211,4.211,0,0,1-1.078,2.9A3.4,3.4,0,0,1,366.643,284.689Zm0-1.366c.427,0,.793-.274,1.115-.833a3.824,3.824,0,0,0,.456-1.9,3.758,3.758,0,0,0-.456-1.891,1.355,1.355,0,0,0-1.115-.821c-.406,0-.771.277-1.093.821a3.641,3.641,0,0,0-.466,1.891,3.712,3.712,0,0,0,.466,1.9C365.868,283.043,366.235,283.323,366.643,283.323Zm7.928-8.222h-2.128v11.132h2.128v-5.838h2.041v-1.753h-2.041Zm14.471,5.759a3.093,3.093,0,0,0,.4-1.035,5.867,5.867,0,0,0,.167-1.347v-3.264H379.416v1.724h8.029v1.6c0,.4-.018.824-.051,1.292a4.859,4.859,0,0,1-.24,1.133l-.023.077h-9.138v1.726h5.394v1.615h-4.159V286.1h8.353v4.154h2.182v-5.877H385.51v-1.615h5.611v-1.726H388.9Zm87.424,2.392h-8.643v-1.4h1.342v-4.762h-1.25v-1.439h8.442v1.439h-1.421v4.762h1.531Zm-3.494-6.159h-1.838v4.762h1.838Zm7.175,10.292a2.838,2.838,0,0,1-1.4,2.347,6.507,6.507,0,0,1-6.862,0,2.674,2.674,0,0,1,0-4.7,6.457,6.457,0,0,1,6.86,0A2.858,2.858,0,0,1,480.148,287.385Zm-2.258,0a1.876,1.876,0,0,0-.767-1.463,2.9,2.9,0,0,0-3.612,0,1.9,1.9,0,0,0-.769,1.463,1.829,1.829,0,0,0,.769,1.441,2.953,2.953,0,0,0,3.611,0A1.811,1.811,0,0,0,477.89,287.385Zm.145-12.232v2.632h-2.1V279.1h2.1v.761h-2.1v1.284h2.1v2.678h2.154v-8.67Zm16.626,4.005v-4.036H492.5v15.132h2.157v-9.366h2.147v-1.73Zm-11.591-3.54h7.224v1.968a7.914,7.914,0,0,1-6.784,8.268l-.767-1.07a7.079,7.079,0,0,0,3.519-1.93,6.972,6.972,0,0,0,1.663-5.081v-.423H483.07Zm15.773,2.57a2.819,2.819,0,0,1,1.131-2.242,4.565,4.565,0,0,1,5.548,0,2.841,2.841,0,0,1,1.12,2.242,2.812,2.812,0,0,1-1.12,2.233,4.25,4.25,0,0,1-2.77.934,4.294,4.294,0,0,1-2.778-.934A2.8,2.8,0,0,1,498.843,278.189Zm2.217,0a1.861,1.861,0,0,0,.487,1.3,1.622,1.622,0,0,0,1.207.518,1.584,1.584,0,0,0,1.177-.517,1.827,1.827,0,0,0,.489-1.3,1.8,1.8,0,0,0-.489-1.3,1.579,1.579,0,0,0-1.177-.52,1.615,1.615,0,0,0-1.207.522A1.839,1.839,0,0,0,501.06,278.189Zm4.411,7.9h3.36v1.032h2.163v-12h-2.163v9.406h-3.36Zm-2.726,2.421v-2.247h-2.16v2.431a1.444,1.444,0,0,0,.457,1.143,1.594,1.594,0,0,0,1.137.418h8.988V288.51Zm-1.226-2.888h2.124v-1.9h3.849v-1.655h-9.3v1.655h3.327Zm-96.474-10.5v15.132h2V275.123Zm-3.034,4.855H400.9a5.458,5.458,0,0,0-1.412-3.3,3.174,3.174,0,0,0-5.251.305,6.135,6.135,0,0,0-1.162,3.745,6.07,6.07,0,0,0,1.162,3.748A3.382,3.382,0,0,0,397,286.007a3.273,3.273,0,0,0,2.5-1.223,5.93,5.93,0,0,0,1.4-3.321h1.12v8.793h1.995V275.123h-1.995Zm-3.708,3.378c-.34.736-.781,1.112-1.308,1.112s-.984-.375-1.324-1.112a6.3,6.3,0,0,1-.5-2.651,6.214,6.214,0,0,1,.5-2.618c.34-.738.785-1.112,1.324-1.112s.97.374,1.308,1.112a6.376,6.376,0,0,1,.485,2.618A6.464,6.464,0,0,1,398.3,283.356Zm13.372-7.261h-2.161v8.013a1.435,1.435,0,0,0,.464,1.113,1.6,1.6,0,0,0,1.115.43h6.473v-1.745h-5.891Zm9.47-.972v15.132h-2.159v-9.662h-3.894V279.12h3.894v-4Zm12.368,0v15.132h2.155V275.123Zm-1.137,9.5-.82.9a4.92,4.92,0,0,1-2.46-1.012,3.9,3.9,0,0,1-1.423-1.934l-.1-.361-.093.361a3.756,3.756,0,0,1-1.418,1.919,5.125,5.125,0,0,1-2.509,1.024l-.8-.894a4.566,4.566,0,0,0,2.52-1.855,6.32,6.32,0,0,0,1.162-3.815v-1.606H423.61v-1.732h7.923v1.732H428.7v1.606a6.293,6.293,0,0,0,1.166,3.815A4.621,4.621,0,0,0,432.376,284.625Zm5.88-7.274h4.86v.423a6.383,6.383,0,0,1-5.227,7.028l.7.99a7.893,7.893,0,0,0,4.7-2.281,7.675,7.675,0,0,0,2.206-5.923v-1.968h-7.237Zm11.919-2.228v15.132H448.01V275.123Zm15.8,8.344v-1.49H452.489v1.49h5.691v.96h-3.9v1.435h7.7v.85h-7.541v1.981a1.539,1.539,0,0,0,.435,1.128,1.586,1.586,0,0,0,1.159.433h8.11v-1.337H456.6V288h7.544v-3.576h-3.8v-.96Zm-12.1-2.343-.558-1.085a5.593,5.593,0,0,0,2.993-1.063,3.145,3.145,0,0,0,1.775-2.705v-1.147h2.255v1.147a3.145,3.145,0,0,0,1.782,2.705,5.608,5.608,0,0,0,2.986,1.063l-.554,1.085a8.762,8.762,0,0,1-3.085-.649,3.829,3.829,0,0,1-2.163-1.644l-.091-.181-.088.183a3.711,3.711,0,0,1-2.142,1.65A8.835,8.835,0,0,1,453.879,281.124Z" transform="translate(-171.954 -10.389)"/>
    <rect id="사각형_2286" data-name="사각형 2286" class="cls-1" width="0.443" height="20.391" transform="translate(184.474 261.843)"/>
    <g id="그룹_6506" data-name="그룹 6506" transform="translate(97.037 258.903)">
      <path id="패스_7568" data-name="패스 7568" class="cls-1" d="M146.525,281.339l-33.582,2.82V261.724l33.582-2.821Zm32.124-13.7,0,1.413a4.659,4.659,0,0,1-4.753,4.759h-6.3l0,6.256h-3.256V264.557c0-.642.279-.944.937-.944h9.853A4.023,4.023,0,0,1,178.65,267.639Zm-3.215.711c-.016-.906-.234-2.077-1.957-2.077H167.6l0,4.869h5.661c1.421,0,2.173-.851,2.173-2.461Zm-67.758-4.736-7.543,7.112v-7.112h-3.1v16.453h3.1v-5.684l1.593-1.5,6.2,7.18h3.75l-7.795-8.927,7.73-7.526Zm44.306,13.375v-4h8.1v-2.665h-8.1l0-4.042h9.741v-2.664H149.911c-1.017,0-1.231.785-1.232,1.443v13.871a1.216,1.216,0,0,0,1.2,1.14h12.033v-2.56h-9.469C152.091,277.507,151.983,277.325,151.983,276.988Z" transform="translate(-97.037 -258.903)"/>
      <path id="패스_7569" data-name="패스 7569" class="cls-2" d="M152.076,286.175h9.47v2.56H149.79a1.214,1.214,0,0,1-1.2-1.14V273.724c0-.658.214-1.443,1.231-1.443h11.54v2.664h-9.74l0,4.042h8.1v2.665h-8.1v4C151.616,285.993,151.724,286.175,152.076,286.175Zm11.125-11.23h5.615l0,13.789h3.3V274.945h5.622v-2.664H163.2Z" transform="translate(-130.438 -267.571)"/>
    </g>
  </g>
</svg>
