<svg xmlns="http://www.w3.org/2000/svg" xmlns:xlink="http://www.w3.org/1999/xlink" width="128.417" height="71.262" viewBox="0 0 128.417 71.262">
  <defs>
    <style>
      .cls-1 {
        fill: #414b4f;
      }

      .cls-2 {
        fill: url(#linear-gradient);
      }
    </style>
    <linearGradient id="linear-gradient" x1="-0.636" x2="0" y2="1.661" gradientUnits="objectBoundingBox">
      <stop offset="0" stop-color="#40bbf0"/>
      <stop offset="1" stop-color="#0065b1"/>
    </linearGradient>
  </defs>
  <g id="그룹_6996" data-name="그룹 6996" transform="translate(-170.75 -149.088)">
    <g id="그룹_6994" data-name="그룹 6994" transform="translate(179.214 197.162)">
      <g id="그룹_6985" data-name="그룹 6985" transform="translate(0 0.259)">
        <path id="패스_9537" data-name="패스 9537" class="cls-1" d="M305.332,336.695l5.761-5.658,5.763,5.658h4.136l-5.7-5.839h4.679v-2.769H302.216v2.769h4.68l-5.7,5.839Z" transform="translate(-274.436 -328.086)"/>
        <path id="패스_9538" data-name="패스 9538" class="cls-1" d="M207.291,328.086,202.1,341.592h2.968l3.46-8.975,3.46,8.975h2.968l-5.195-13.506Z" transform="translate(-202.096 -328.086)"/>
        <path id="패스_9539" data-name="패스 9539" class="cls-1" d="M274.922,341.591h2.967v-13.5h-2.967Z" transform="translate(-255.257 -328.086)"/>
        <path id="패스_9540" data-name="패스 9540" class="cls-1" d="M246.984,332.129a1.8,1.8,0,1,0,0,2.292v7.169h2.964v-13.5h-2.964Z" transform="translate(-232.526 -328.086)"/>
        <path id="패스_9541" data-name="패스 9541" class="cls-1" d="M319.947,355.983h-9.168a2.01,2.01,0,1,0-2.694,0h-9.166v2.771h6.247a5.959,5.959,0,1,0,8.532,0h6.248Zm-10.515,9.892a2.979,2.979,0,1,1,2.989-2.979A2.984,2.984,0,0,1,309.432,365.875Z" transform="translate(-272.775 -345.908)"/>
      </g>
      <g id="그룹_6993" data-name="그룹 6993" transform="translate(50.571 0)">
        <path id="패스_9542" data-name="패스 9542" class="cls-1" d="M452.555,355.816v1.237h6.988v.973h-6.988v3.762h8.832v-1.235H454.4v-1.291h6.986v-3.446Z" transform="translate(-435.497 -348.069)"/>
        <g id="그룹_6986" data-name="그룹 6986" transform="translate(15.186 0.262)">
          <path id="패스_9543" data-name="패스 9543" class="cls-1" d="M454.483,328.1v1.18h-2.29V328.1h-1.844v1.518h-2.884V328.1h-1.842v6.148h6.57V333.1h2.29v1.626h1.843V328.1Zm-7.018,4.84V330.85h2.884v2.159h-2.884Zm4.728-1.142v-1.281h2.29v1.353h-2.29Z" transform="translate(-445.623 -328.096)"/>
        </g>
        <g id="그룹_6987" data-name="그룹 6987" transform="translate(1.795 8.722)">
          <path id="패스_9544" data-name="패스 9544" class="cls-1" d="M396.029,359.43v1.235h7.89v3.847h1.843V359.43Z" transform="translate(-396.029 -359.43)"/>
        </g>
        <path id="패스_9545" data-name="패스 9545" class="cls-1" d="M396.029,328.1v5.515h9.733v-1.144h-7.889v-1.043h7.634v-1.142h-7.634V329.24h7.889V328.1Z" transform="translate(-394.234 -327.834)"/>
        <g id="그룹_6988" data-name="그룹 6988" transform="translate(67.54 0.262)">
          <path id="패스_9546" data-name="패스 9546" class="cls-1" d="M639.51,328.1v13.457h1.842V328.1Z" transform="translate(-639.51 -328.096)"/>
        </g>
        <g id="그룹_6989" data-name="그룹 6989" transform="translate(38.386 0.262)">
          <path id="패스_9547" data-name="패스 9547" class="cls-1" d="M531.542,328.1v13.457h1.842V333.52h1.9v-1.236h-1.9V328.1Z" transform="translate(-531.542 -328.096)"/>
        </g>
        <path id="패스_9548" data-name="패스 9548" class="cls-1" d="M499.843,331.356v-.894h2.873v-1.237h-7.662v1.237h2.873v.894c0,2.707-1.071,4.553-3.088,5.315v1.458c.028-.006,2.852-.6,3.928-2.73l.118-.233.118.233c1.076,2.132,3.9,2.725,3.929,2.73v-1.458C500.914,335.909,499.849,334.063,499.843,331.356Z" transform="translate(-466.363 -328.659)"/>
        <g id="그룹_6990" data-name="그룹 6990" transform="translate(53.337 0.262)">
          <path id="패스_9549" data-name="패스 9549" class="cls-1" d="M586.91,328.1v13.457h1.844V328.1Z" transform="translate(-586.91 -328.096)"/>
        </g>
        <path id="패스_9550" data-name="패스 9550" class="cls-1" d="M554.319,327.127h0v1.116h3.095v1.235h-3.066v.383c0,3.2,1.32,4.668,3.388,5.449v1.5h-.008c-.028-.005-3.061-.641-4.25-2.8l-.119-.234-.119.234c-1.188,2.16-4.221,2.8-4.25,2.8h-.007v-1.5c2.068-.781,3.39-2.249,3.39-5.449v-.383h-3.067v-1.235H552.4v-1.116h1.914Z" transform="translate(-505.891 -327.127)"/>
        <path id="패스_9551" data-name="패스 9551" class="cls-1" d="M389.382,351.685v1.236h13.326v-1.236Z" transform="translate(-389.382 -345.054)"/>
        <g id="그룹_6991" data-name="그룹 6991" transform="translate(67.54 0.262)">
          <path id="패스_9552" data-name="패스 9552" class="cls-1" d="M639.51,328.1v13.457h1.842V328.1Z" transform="translate(-639.51 -328.096)"/>
        </g>
        <g id="그룹_6992" data-name="그룹 6992" transform="translate(57.297 0.259)">
          <path id="패스_9553" data-name="패스 9553" class="cls-1" d="M606.944,330.563v-2.475h-1.975v2.475c0,3.2-1.32,4.668-3.39,5.449v1.5h.009c.029-.005,3.062-.641,4.25-2.8l.118-.234.12.234c1.187,2.16,4.222,2.8,4.25,2.8h.007v-1.5C608.264,335.231,606.944,333.763,606.944,330.563Z" transform="translate(-601.579 -328.088)"/>
        </g>
      </g>
    </g>
    <g id="그룹_6995" data-name="그룹 6995" transform="translate(170.75 149.088)">
      <path id="패스_9554" data-name="패스 9554" class="cls-2" d="M378.53,192.6a76.607,76.607,0,0,1-4.5-10.616c-.405,2.257-1.4,7.423-2.879,12.6a62.714,62.714,0,0,0,3.452,5.257A41.59,41.59,0,0,0,378.53,192.6Z" transform="translate(-317.037 -173.101)"/>
      <path id="패스_9555" data-name="패스 9555" class="cls-2" d="M365.357,240.436c-1.053-1.482-2.064-3.073-3.054-4.761a50.518,50.518,0,0,1-2.5,6.611,29.991,29.991,0,0,0,2.043,2.651C362.393,244.308,363.785,242.658,365.357,240.436Z" transform="translate(-308.756 -212.295)"/>
      <path id="패스_9556" data-name="패스 9556" class="cls-2" d="M310.966,249.561c1.43,1.972,2.99,4.008,4.555,5.852a38.212,38.212,0,0,0,3.219-2.272c-.8-1.81-1.911-4.539-3.021-7.353C314.663,246.712,313.066,248.033,310.966,249.561Z" transform="translate(-273.105 -219.676)"/>
      <path id="패스_9557" data-name="패스 9557" class="cls-2" d="M300.53,217c-1.343-3.434-2.608-6.762-3.255-8.477-2.051,2.117-4.146,4.072-6.263,5.87.959,1.528,2.569,4,4.489,6.709C297.766,219.423,299.453,217.979,300.53,217Z" transform="translate(-258.539 -192.474)"/>
      <path id="패스_9558" data-name="패스 9558" class="cls-2" d="M270.964,279.691c2.439,1.156,5.03,2.281,7.513,3.176q1.456-.584,2.761-1.2a75.555,75.555,0,0,1-7.089-3.708C273.139,278.538,272.076,279.117,270.964,279.691Z" transform="translate(-243.904 -243.163)"/>
      <path id="패스_9559" data-name="패스 9559" class="cls-2" d="M248.283,262.9c-2.512-1.51-4.917-3.071-6.847-4.4-1.327.813-2.64,1.568-3.926,2.268,1.787,1.021,4.439,2.47,7.43,3.94Q246.693,263.816,248.283,262.9Z" transform="translate(-219.484 -228.962)"/>
      <path id="패스_9560" data-name="패스 9560" class="cls-2" d="M370.286,245.764c.669.726,1.439,1.5,2.315,2.3a47.1,47.1,0,0,0,11.021-7.027c-1.331-1.82-2.522-3.651-3.584-5.441A83.688,83.688,0,0,1,370.286,245.764Z" transform="translate(-316.407 -212.236)"/>
      <path id="패스_9561" data-name="패스 9561" class="cls-2" d="M174.161,290.577c-1.29.433-2.386.767-3.245,1.013h0c-.007,0-.129.03-.153.082s-.038.121.117.189c3.094,1.01,6.378,1.859,9.417,2.537q1.786-.506,3.485-1.068C180.332,292.446,176.941,291.472,174.161,290.577Z" transform="translate(-170.75 -252.372)"/>
      <path id="패스_9562" data-name="패스 9562" class="cls-2" d="M218.557,302.865q-1.6.54-3.272,1.031c2.9.588,5.421,1,7.124,1.225q1.9-.291,3.653-.642C223.76,304.063,221.177,303.5,218.557,302.865Z" transform="translate(-203.26 -261.342)"/>
      <path id="패스_9563" data-name="패스 9563" class="cls-2" d="M227.69,274.967c-3.019-1.346-5.85-2.732-7.761-3.712-1.182.6-2.335,1.158-3.449,1.668,2.435,1.083,5.326,2.278,8.265,3.4Q226.266,275.656,227.69,274.967Z" transform="translate(-204.132 -238.268)"/>
      <path id="패스_9564" data-name="패스 9564" class="cls-2" d="M253.869,289.039c2.7.992,5.372,1.886,7.7,2.539q1.473-.461,2.821-.957a70.971,70.971,0,0,1-7.715-2.884Q255.314,288.4,253.869,289.039Z" transform="translate(-231.425 -250.299)"/>
      <path id="패스_9565" data-name="패스 9565" class="cls-2" d="M206.235,284.7c-3.442-1.143-6.683-2.3-8.858-3.1-1.266.535-2.463,1.009-3.573,1.425,2.317.8,5.662,1.9,9.194,2.925Q204.663,285.341,206.235,284.7Z" transform="translate(-187.579 -245.815)"/>
      <path id="패스_9566" data-name="패스 9566" class="cls-2" d="M235.72,296.667c2.767.756,5.545,1.421,7.946,1.823q1.463-.347,2.825-.73c-2.328-.613-5.025-1.432-7.7-2.3Q237.3,296.083,235.72,296.667Z" transform="translate(-218.177 -255.939)"/>
      <path id="패스_9567" data-name="패스 9567" class="cls-2" d="M398.75,287.581a57.333,57.333,0,0,0,12.856-2.462q-1.44-1.2-2.765-2.474a56.315,56.315,0,0,1-12.681,3.38C396.973,286.557,397.835,287.078,398.75,287.581Z" transform="translate(-335.296 -246.582)"/>
      <path id="패스_9568" data-name="패스 9568" class="cls-2" d="M385.159,271.844a56.233,56.233,0,0,0,12.235-4.188q-1.58-1.649-2.975-3.371a57.639,57.639,0,0,1-11.767,5.617C383.418,270.549,384.253,271.2,385.159,271.844Z" transform="translate(-325.434 -233.18)"/>
      <path id="패스_9569" data-name="패스 9569" class="cls-2" d="M426.209,297.352q-1.15-.8-2.24-1.654a47.721,47.721,0,0,1-12.659,2.19q1.393.686,2.935,1.3a36.713,36.713,0,0,0,11.962-1.545c.093-.035.12-.073.123-.123C426.336,297.43,426.209,297.352,426.209,297.352Z" transform="translate(-346.354 -256.11)"/>
      <path id="패스_9570" data-name="패스 9570" class="cls-2" d="M266.5,238.856q-2.575,2.005-5.158,3.711a99.13,99.13,0,0,0,13.941,10.039c1.078-.537,2.076-1.083,3-1.631C275.275,248.234,268.976,241.515,266.5,238.856Z" transform="translate(-236.881 -214.617)"/>
      <path id="패스_9571" data-name="패스 9571" class="cls-2" d="M326.824,161.419c1.391,6.484,3.519,16.692,4.3,20.479a27.314,27.314,0,0,0,3.694-3.7,141.648,141.648,0,0,0,1.832-27.976c0-.118-.012-1-.282-1.1-.352-.136-.566.255-.566.255A126.077,126.077,0,0,1,326.824,161.419Z" transform="translate(-284.681 -149.088)"/>
    </g>
  </g>
</svg>
