<svg xmlns="http://www.w3.org/2000/svg" width="231.873" height="27.879" viewBox="0 0 231.873 27.879">
  <defs>
    <style>
      .cls-1 {
        fill: #d90013;
      }

      .cls-2 {
        fill: #161615;
      }
    </style>
  </defs>
  <g id="그룹_6818" data-name="그룹 6818" transform="translate(-349.239 -289.994)">
    <g id="그룹_6811" data-name="그룹 6811" transform="translate(349.239 289.994)">
      <path id="패스_8545" data-name="패스 8545" class="cls-1" d="M375.612,305.335a11.825,11.825,0,0,0,.471-3.308,12.033,12.033,0,1,0-24.065,0,11.841,11.841,0,0,0,.46,3.292Z" transform="translate(-347.569 -289.994)"/>
      <path id="패스_8546" data-name="패스 8546" class="cls-1" d="M382.286,300.309H349.239v2.39H366.9l-10.769,1.772.031,2.061,7.824.5-2.992.658-.036,2.316,9.028,1.661.7-2.305-3.267-.441,6.937-1.329V305.31l-6.373-.353,14.3-2.324Z" transform="translate(-349.239 -283.791)"/>
    </g>
    <g id="그룹_6817" data-name="그룹 6817" transform="translate(393.565 295.08)">
      <g id="그룹_6816" data-name="그룹 6816">
        <g id="그룹_6812" data-name="그룹 6812" transform="translate(48.164 0.665)">
          <path id="패스_8547" data-name="패스 8547" class="cls-2" d="M419.879,303.06s-3.523-.114-3.523-3.34V296.6c3,0,5.7,0,5.7,0v-2.5H408.58a1.253,1.253,0,0,0,.074,2.5h4.132v3.121s.032,3.395-4.535,3.395a1.255,1.255,0,0,0,0,2.511s5.294-.088,6.314-2.7c.956,2.228,3.915,2.618,5.446,2.618h2.228V303.06Z" transform="translate(-406.996 -293.279)"/>
          <path id="패스_8548" data-name="패스 8548" class="cls-2" d="M421.445,295.358a1.774,1.774,0,0,0-3.549,0c0,.014-.013,15.878-.013,15.878h3.566S421.445,295.372,421.445,295.358Z" transform="translate(-400.448 -293.585)"/>
        </g>
        <g id="그룹_6813" data-name="그룹 6813" transform="translate(164.171 0.604)">
          <path id="패스_8549" data-name="패스 8549" class="cls-2" d="M492.321,303.228s-3.526-.114-3.526-3.342v-.45h.024s-.006-3.862-.006-3.878a1.773,1.773,0,0,0-3.547,0c0,.006,0,.344,0,.809h-.035v3.52s.034,3.393-4.532,3.393a1.257,1.257,0,0,0,0,2.514s5.123-.018,6.143-2.631c.956,2.231,4.082,2.551,5.614,2.551h2.229v-2.485Z" transform="translate(-479.438 -293.404)"/>
          <path id="패스_8550" data-name="패스 8550" class="cls-2" d="M495.087,297.156l-1.417,0V295.32a1.773,1.773,0,0,0-3.545,0c0,.013-.018,15.937-.018,15.937h3.571s0-9.994-.008-11.592h1.5a1.255,1.255,0,1,0-.08-2.508Z" transform="translate(-473.022 -293.547)"/>
        </g>
        <g id="그룹_6814" data-name="그룹 6814" transform="translate(94.995 0.541)">
          <path id="패스_8551" data-name="패스 8551" class="cls-2" d="M456.947,297.15c-.042,0-.713,0-1.417,0v-1.87a1.774,1.774,0,1,0-3.549,0c0,.008-.01,3.38-.013,5.445H439.808c0-1.4,0-5.017,0-5.03a1.775,1.775,0,0,0-3.55,0c0,.016-.013,5.656-.013,5.656h0c0,.022,0,.043,0,.064a1.771,1.771,0,0,0,1.675,1.768l0,.048H440.4c0,2.412,0,6.287,0,6.295a1.774,1.774,0,0,0,1.579,1.762v.034l13.917-.006v-2.5H443.952c0-1.292.01-3.784.01-5.582l9.052,0V303.2h2.522s0-1.946-.006-3.545h1.494a1.254,1.254,0,1,0-.077-2.506Z" transform="translate(-436.24 -293.508)"/>
        </g>
        <g id="그룹_6815" data-name="그룹 6815" transform="translate(71.746 0.639)">
          <path id="패스_8552" data-name="패스 8552" class="cls-2" d="M441.3,311.439s-.006-16.081-.006-16.094a1.771,1.771,0,1,0-3.542,0s0,.573,0,.841h-3.63a1.255,1.255,0,1,0,.077,2.508c.027,0,1.6,0,3.549,0v1.595h-3.625a1.254,1.254,0,1,0,.077,2.506h3.545c0,.532,0,1.742,0,2.266H424.149a1.255,1.255,0,1,0,.077,2.508l13.508,0c0,2.17-.008,3.877-.008,3.877Z" transform="translate(-421.004 -293.569)"/>
          <path id="패스_8553" data-name="패스 8553" class="cls-2" d="M427.479,293.811c-3.182,0-5.757,2.293-5.757,5.121s2.575,5.121,5.757,5.121,5.765-2.293,5.765-5.121S430.664,293.811,427.479,293.811Zm-.05,7.743A2.624,2.624,0,1,1,430,298.932,2.6,2.6,0,0,1,427.429,301.554Z" transform="translate(-421.722 -293.423)"/>
        </g>
        <path id="패스_8554" data-name="패스 8554" class="cls-2" d="M472,297.12c-.037,0-.709,0-1.416,0,0-.922,0-1.8,0-1.8a1.771,1.771,0,1,0-3.542,0c0,.01-.01,4.421-.01,7.057a6.246,6.246,0,0,0-1.91-.3,6.33,6.33,0,0,0-.783.051,1.712,1.712,0,0,0,.239-.884c0-.021,0-.042,0-.064h.01s-.014-5.525-.014-5.536a1.775,1.775,0,1,0-3.55,0c0,.01,0,3.553,0,4.937a1.294,1.294,0,0,0-.3-.032l-6.244,0c0-.429,0-1.023,0-1.646h4.849a1.254,1.254,0,1,0-.075-2.506c-.061,0-3.411,0-4.774,0v-.741a1.774,1.774,0,0,0-3.549,0c0,.014-.016,5.539-.016,5.539h0v.062a1.778,1.778,0,0,0,1.776,1.777h1.31v.013h6.806a1.225,1.225,0,0,0,.221-.03c.3,0,.591,0,.852-.006a4.763,4.763,0,0,0-2.269,3.963c0,2.713,2.476,4.91,5.52,4.91s5.523-2.2,5.523-4.91a4.143,4.143,0,0,0-.061-.721l.011.006s0-5.041,0-6.641h1.494A1.255,1.255,0,1,0,472,297.12Zm-6.932,12.359a2.5,2.5,0,1,1,2.671-2.5A2.583,2.583,0,0,1,465.063,309.479Z" transform="translate(-332.431 -292.943)"/>
        <path id="패스_8555" data-name="패스 8555" class="cls-2" d="M487.07,301.692H485.4a1.818,1.818,0,0,0,.077-.511c0-.016.014-5.312.014-5.312h0v-.062a1.772,1.772,0,0,0-1.675-1.769v-.046c-.053,0-6.561,0-10.944,0v-.019h-4.918a1.254,1.254,0,1,0,.082,2.506l1.1,0v.018h12.792c0,1.4.006,4.673.006,4.684a1.708,1.708,0,0,0,.077.511l-5.036,0v-2.32a1.775,1.775,0,1,0-3.55,0c0,.006,0,1.283-.011,2.32h-7.3a1.254,1.254,0,1,0,.078,2.506h5.281a4.5,4.5,0,0,0-.708,2.4c0,2.714,2.472,4.908,5.518,4.908s5.521-2.194,5.521-4.908a4.525,4.525,0,0,0-.708-2.405h5.979Zm-10.843,7.514a2.611,2.611,0,1,1,2.75-2.609A2.682,2.682,0,0,1,476.227,309.206Z" transform="translate(-324.025 -292.686)"/>
        <path id="패스_8556" data-name="패스 8556" class="cls-2" d="M414.568,302.26v-2.444h-1.329l0-3.451a2.324,2.324,0,0,0-2.322-2.325H394.668a1.224,1.224,0,1,0,0,2.448h15.1v3.326H393.627a1.223,1.223,0,1,0,0,2.445H401.7v2.2h-7.028a1.224,1.224,0,1,0,0,2.448h15.1v4.21h3.469l0-4.337a2.323,2.323,0,0,0-2.322-2.322h-5.606v-2.2Z" transform="translate(-367.608 -292.647)"/>
        <path id="패스_8557" data-name="패스 8557" class="cls-2" d="M399.678,300.341l-1.544,0,.01-4.783a1.912,1.912,0,0,0-3.816,0l0,.008v13.567l-11.2-.01,0-1.914a1.886,1.886,0,0,0-.479-1.247,6.341,6.341,0,0,0,2.157.38,5.693,5.693,0,0,0,5.912-5.449,5.137,5.137,0,0,0-.892-2.868H393V295.46h-6.3c-.1,0-.152,0-.251,0V294.9h0a1.735,1.735,0,0,0-3.47,0h0v.56l-4.886,0a1.293,1.293,0,0,0-1.179,1.292,1.251,1.251,0,0,0,1.251,1.257l1.622,0a5.13,5.13,0,0,0-.89,2.871,5.332,5.332,0,0,0,2.471,4.426c-.046,0-.093-.016-.147-.016a1.913,1.913,0,0,0-1.912,1.907l0,2.82a1.9,1.9,0,0,0,1.85,1.5,3.483,3.483,0,0,1,.365,0H398.1l.024-8.643,1.553-.006a1.268,1.268,0,1,0,0-2.537ZM384.812,303.7a2.917,2.917,0,1,1,2.647-2.9A2.785,2.785,0,0,1,384.812,303.7Z" transform="translate(-376.919 -293.17)"/>
      </g>
    </g>
  </g>
</svg>
