<svg xmlns="http://www.w3.org/2000/svg" xmlns:xlink="http://www.w3.org/1999/xlink" width="232.559" height="57.934" viewBox="0 0 232.559 57.934">
  <defs>
    <style>
      .cls-1 {
        fill: url(#radial-gradient);
      }

      .cls-2 {
        fill: #fff;
      }

      .cls-3 {
        opacity: 0.45;
        mix-blend-mode: screen;
        isolation: isolate;
        fill: url(#linear-gradient);
      }

      .cls-4 {
        fill: #004180;
      }
    </style>
    <radialGradient id="radial-gradient" cx="0.703" cy="0.21" r="0.885" gradientTransform="translate(0.013) scale(0.973 1)" gradientUnits="objectBoundingBox">
      <stop offset="0" stop-color="#acdefa"/>
      <stop offset="0.2" stop-color="#00a4e8"/>
      <stop offset="0.8" stop-color="#00458d"/>
      <stop offset="0.834" stop-color="#004b93"/>
      <stop offset="0.884" stop-color="#005ea5"/>
      <stop offset="0.942" stop-color="#007dc3"/>
      <stop offset="1" stop-color="#00a4e8"/>
    </radialGradient>
    <linearGradient id="linear-gradient" x1="0.468" y1="-0.259" x2="0.468" y2="0.513" gradientUnits="objectBoundingBox">
      <stop offset="0.14" stop-color="#fff"/>
      <stop offset="0.446" stop-color="#7c7c7c"/>
      <stop offset="0.669" stop-color="#232323"/>
      <stop offset="0.77"/>
    </linearGradient>
  </defs>
  <g id="그룹_6860" data-name="그룹 6860" transform="translate(-123.522 -198.684)">
    <g id="그룹_6857" data-name="그룹 6857" transform="translate(123.522 198.684)">
      <path id="패스_8714" data-name="패스 8714" class="cls-1" d="M182.588,222.4a28.558,28.558,0,0,0-4.716-11.192h0a26.492,26.492,0,0,0-1.659-2.127h0a29.793,29.793,0,0,0-22.926-10.4h0a30.1,30.1,0,0,0-18.764,6.383h0A28.251,28.251,0,0,0,123.752,223.7h0a29,29,0,0,0,6.958,22.758h0A30.2,30.2,0,0,0,153.3,256.618h0a30.07,30.07,0,0,0,29.474-25.14h0a27.62,27.62,0,0,0,.024-7.763h0C182.739,223.257,182.668,222.847,182.588,222.4Z" transform="translate(-123.522 -198.684)"/>
      <path id="패스_8715" data-name="패스 8715" class="cls-2" d="M168.822,238.932c7.3-4.139,12.033-8.8,11.449-11.822-.8-4.139-11.233-3.651-23.3,1.089s-21.216,11.937-20.422,16.078c.565,2.926,6.994,3.54,14.368,1.969l1.708-1.43c-3.5.448-7.643-.065-8-1.634-.65-2.865,5.754-8.145,14.277-11.787s15.982-4.272,16.629-1.409c.453,2.007-2.562,5.211-7.343,8.2a.513.513,0,0,0-.178.729S168.218,239.282,168.822,238.932Z" transform="translate(-130.43 -212.322)"/>
      <path id="패스_8716" data-name="패스 8716" class="cls-2" d="M184.053,246.788c-3.654-.228-8.181-4.383-14.38-10.853-.166-.177-.323-.355-.486-.534.015-.035.033-.064.048-.1a21.991,21.991,0,0,0,1.452-4.379,23.6,23.6,0,0,0,.522-6.227,21.924,21.924,0,0,0-1.421-6.35l-.021-.059s-.018-.047-.032-.075a3.12,3.12,0,0,0-3.109-1.93,3.152,3.152,0,0,0-2.88,3.39,3.211,3.211,0,0,0,.234.99,18.112,18.112,0,0,1-.59,14.291,19.754,19.754,0,0,1-8.873,9.07,14.864,14.864,0,0,0-3.988,2.465,1.782,1.782,0,0,0-.133,1.968c.042.08,4.039,5.5,4.285,5.545.492.157.864-.175,1.119-.985.746-1.813,2.314-3.2,3.685-4.567a54.357,54.357,0,0,0,7.152-8.466c3.245,3.714,9.128,10.527,9.128,10.527a12.3,12.3,0,0,0,3.472,3.151,1.782,1.782,0,0,0,1.927-.417c.066-.064,4.168-5.4,4.143-5.652C185.322,247.075,184.9,246.809,184.053,246.788Z" transform="translate(-137.704 -208.049)"/>
      <path id="패스_8717" data-name="패스 8717" class="cls-3" d="M184.891,215.69c.121,8.6-7.545,15.683-17.126,15.819s-17.439-6.728-17.56-15.33,7.545-15.684,17.122-15.819S184.77,207.089,184.891,215.69Z" transform="translate(-137.728 -199.575)"/>
    </g>
    <g id="그룹_6858" data-name="그룹 6858" transform="translate(190.588 212.588)">
      <path id="패스_8718" data-name="패스 8718" class="cls-4" d="M313.071,235.32V237.8h7.086v1.494H303.991V237.8h7.122V235.32Zm-7.2-5.446h12.422v1.494h-5.112a2.647,2.647,0,0,0,.723,1.277,6.056,6.056,0,0,0,1.381,1.058,10.328,10.328,0,0,0,1.739.786,10.194,10.194,0,0,0,1.8.454l-.527,1.326a10.8,10.8,0,0,1-1.822-.447,12.513,12.513,0,0,1-1.746-.737,8.8,8.8,0,0,1-1.486-.955,4.538,4.538,0,0,1-1.034-1.137,4.664,4.664,0,0,1-1.014,1.137,8.193,8.193,0,0,1-1.485.964,11.152,11.152,0,0,1-1.842.737,12.241,12.241,0,0,1-2.087.438l-.544-1.477a11.386,11.386,0,0,0,1.917-.436,9.493,9.493,0,0,0,1.746-.738,5.683,5.683,0,0,0,1.344-1,2.551,2.551,0,0,0,.706-1.249h-5.074Zm11.672,13.879a2.637,2.637,0,0,1-.386,1.378,3.607,3.607,0,0,1-1.088,1.126,5.791,5.791,0,0,1-1.716.766,9.055,9.055,0,0,1-4.509,0,5.807,5.807,0,0,1-1.71-.766,3.55,3.55,0,0,1-1.086-1.126,2.6,2.6,0,0,1-.387-1.378,2.555,2.555,0,0,1,.387-1.369,3.646,3.646,0,0,1,1.086-1.118,5.668,5.668,0,0,1,1.71-.755,9.524,9.524,0,0,1,4.509,0,5.654,5.654,0,0,1,1.716.755,3.706,3.706,0,0,1,1.088,1.118A2.6,2.6,0,0,1,317.543,243.753Zm-5.43-2.025a4.87,4.87,0,0,0-2.549.57,1.667,1.667,0,0,0-.928,1.455,1.4,1.4,0,0,0,.242.8,2.251,2.251,0,0,0,.7.65,3.855,3.855,0,0,0,1.09.446,6.07,6.07,0,0,0,1.449.16,6.2,6.2,0,0,0,1.456-.16,3.8,3.8,0,0,0,1.1-.446,2.229,2.229,0,0,0,.689-.65,1.476,1.476,0,0,0,.232-.8,1.677,1.677,0,0,0-.921-1.455A4.861,4.861,0,0,0,312.113,241.729Z" transform="translate(-286.671 -229.194)"/>
      <path id="패스_8719" data-name="패스 8719" class="cls-4" d="M525.747,237.449v5.558h1.992v-5.54h1.937v5.54h5.9v1.5H519.413v-1.5h4.4v-5.558Zm5.47-3.821a.523.523,0,0,0-.124-.408.658.658,0,0,0-.422-.107h-8.837v-1.488H531.8a1.342,1.342,0,0,1,1.051.365,1.579,1.579,0,0,1,.322,1.07v7.6h-1.955Z" transform="translate(-401.364 -230.126)"/>
      <path id="패스_8720" data-name="패스 8720" class="cls-4" d="M567.713,246.514h-1.955V242.7a.771.771,0,0,0-.095-.437c-.063-.086-.211-.132-.448-.132h-9.157v-1.435h2.521v-2.078h-4.586v-1.5h16.162v1.5h-4.584v2.078H566a1.989,1.989,0,0,1,1.335.348,1.452,1.452,0,0,1,.376,1.106ZM556.549,232.47a2.585,2.585,0,0,1,.439-1.488,3.547,3.547,0,0,1,1.2-1.056,6.246,6.246,0,0,1,1.77-.645,9.962,9.962,0,0,1,2.131-.216,10.146,10.146,0,0,1,2.144.216,6.077,6.077,0,0,1,1.765.645,3.611,3.611,0,0,1,1.2,1.056,2.728,2.728,0,0,1,0,2.972,3.621,3.621,0,0,1-1.2,1.06,6.214,6.214,0,0,1-1.765.642,10.3,10.3,0,0,1-2.144.214,10.116,10.116,0,0,1-2.131-.214,6.39,6.39,0,0,1-1.77-.642,3.556,3.556,0,0,1-1.2-1.06A2.563,2.563,0,0,1,556.549,232.47Zm2.029,0a1.269,1.269,0,0,0,.3.86,2.2,2.2,0,0,0,.789.566,4.463,4.463,0,0,0,1.129.321,8.123,8.123,0,0,0,2.6,0,4.412,4.412,0,0,0,1.119-.321,2.21,2.21,0,0,0,.79-.566,1.283,1.283,0,0,0,.3-.86,1.3,1.3,0,0,0-.3-.864,2.2,2.2,0,0,0-.79-.566,4.675,4.675,0,0,0-1.119-.322,8.2,8.2,0,0,0-2.6,0,4.728,4.728,0,0,0-1.129.322,2.186,2.186,0,0,0-.789.566A1.284,1.284,0,0,0,558.579,232.47Zm1.934,8.225h3.126v-2.078h-3.126Z" transform="translate(-419.775 -228.763)"/>
      <path id="패스_8721" data-name="패스 8721" class="cls-4" d="M355.593,254.68H345.347v1.44h9.1a.533.533,0,0,1,.44.139.709.709,0,0,1,.105.424v3.367h1.955V256.14a1.711,1.711,0,0,0-.3-1.07A1.255,1.255,0,0,0,355.593,254.68Z" transform="translate(-308.69 -242.401)"/>
      <rect id="사각형_2338" data-name="사각형 2338" class="cls-4" width="16.146" height="1.419" transform="translate(34.516 9.049)"/>
      <path id="패스_8722" data-name="패스 8722" class="cls-4" d="M348.034,234.969a.644.644,0,0,1-.389-.094.469.469,0,0,1-.121-.379v-.89h9.1v-1.381h-9.1v-1.284h9.286v-1.46H345.159a5.749,5.749,0,0,1,.372,1.616v3.8a1.518,1.518,0,0,0,.375,1.133,1.366,1.366,0,0,0,.979.36h10.036v-1.419Z" transform="translate(-308.59 -228.985)"/>
      <path id="패스_8723" data-name="패스 8723" class="cls-4" d="M390.055,231.866v.659h-3.472v-.156h-1.957v.913h-4.566V233H378.1v4.135a1.925,1.925,0,0,0,.132.765,1.317,1.317,0,0,0,.338.5,1.285,1.285,0,0,0,.468.277,1.69,1.69,0,0,0,.528.083h7.014v-1.682h3.472v2.267h1.958v-7.485Zm-5.429,5.443h-4.077a.551.551,0,0,1-.378-.1.489.489,0,0,1-.111-.371v-2.061h4.566Zm5.429-1.662h-3.472v-1.684h3.472Z" transform="translate(-326.13 -230.255)"/>
      <path id="패스_8724" data-name="패스 8724" class="cls-4" d="M384.136,254.721v1.513a1.3,1.3,0,0,0,1.426,1.456h9.765V256.2h-8.751a.574.574,0,0,1-.374-.1.447.447,0,0,1-.114-.358v-1.094h9.137v-3.461a1.183,1.183,0,0,0-.216-.723.889.889,0,0,0-.745-.281H384.136v1.494h8.736c.265,0,.395.115.395.34v1.154h-9.131Z" transform="translate(-329.341 -240.006)"/>
      <path id="패스_8725" data-name="패스 8725" class="cls-4" d="M379.636,229.481h-2.328a5.827,5.827,0,0,1,.372,1.616v.86h1.955Z" transform="translate(-325.706 -228.985)"/>
      <path id="패스_8726" data-name="패스 8726" class="cls-4" d="M393.586,229.481h-2.329a5.764,5.764,0,0,1,.372,1.616v.86h1.957Z" transform="translate(-333.133 -228.985)"/>
      <path id="패스_8727" data-name="패스 8727" class="cls-4" d="M405.2,228.473h-2.327a5.775,5.775,0,0,1,.369,1.612v.864H405.2Z" transform="translate(-339.318 -228.448)"/>
      <path id="패스_8728" data-name="패스 8728" class="cls-4" d="M420.082,238.722a8.252,8.252,0,0,1-.866-2.026,8.767,8.767,0,0,1-.3-2.316V233.4h3.549V231.9h-9.229V233.4h3.573v1.078a8.653,8.653,0,0,1-1.063,4.311,9.1,9.1,0,0,1-3.318,3.271l1.093,1.417a12.117,12.117,0,0,0,2.781-2.23,8.085,8.085,0,0,0,1.728-2.931,6.287,6.287,0,0,0,.681,1.355A11.575,11.575,0,0,0,419.733,241a11.191,11.191,0,0,0,1.234,1.179,9.162,9.162,0,0,0,1.3.9l.9-1.249a10.184,10.184,0,0,1-1.739-1.387A9.247,9.247,0,0,1,420.082,238.722Z" transform="translate(-344.405 -230.275)"/>
      <path id="패스_8729" data-name="패스 8729" class="cls-4" d="M440.561,237.02v-4.275h-1.953v15.033h1.953v-9.262h2.763v-1.5Z" transform="translate(-358.343 -230.722)"/>
      <path id="패스_8730" data-name="패스 8730" class="cls-4" d="M440.136,228.473h-2.325a5.7,5.7,0,0,1,.373,1.612v.864h1.953Z" transform="translate(-357.918 -228.448)"/>
      <path id="패스_8731" data-name="패스 8731" class="cls-4" d="M598.322,238.164a7.623,7.623,0,0,1-1.282-1.125,6.1,6.1,0,0,1-.929-1.353,3.943,3.943,0,0,1-.423-1.522h3.662v-1.493h-3.7v-.215H593.62v.215H590v1.493h3.589a4.534,4.534,0,0,1-.365,1.636,5.471,5.471,0,0,1-.876,1.371,6.9,6.9,0,0,1-1.307,1.136,10.623,10.623,0,0,1-1.682.907l.976,1.419a9.8,9.8,0,0,0,1.419-.684,9.1,9.1,0,0,0,1.283-.886,7.988,7.988,0,0,0,1.056-1.076,5.55,5.55,0,0,0,.755-1.25,4.757,4.757,0,0,0,.712,1.086,8.606,8.606,0,0,0,1.007.974,9.118,9.118,0,0,0,1.184.824,9.97,9.97,0,0,0,1.231.613l.844-1.266A6.744,6.744,0,0,1,598.322,238.164Z" transform="translate(-438.601 -230.569)"/>
      <path id="패스_8732" data-name="패스 8732" class="cls-4" d="M608.6,253.168a3.558,3.558,0,0,0-1.062-1.142,5.487,5.487,0,0,0-1.658-.757,8.635,8.635,0,0,0-4.294,0,5.471,5.471,0,0,0-1.643.757,3.424,3.424,0,0,0-1.053,1.142,3.011,3.011,0,0,0-.366,1.454,3.069,3.069,0,0,0,.366,1.468,3.5,3.5,0,0,0,1.053,1.162,5.253,5.253,0,0,0,1.643.767,8.664,8.664,0,0,0,4.294,0,5.27,5.27,0,0,0,1.658-.767,3.632,3.632,0,0,0,1.062-1.162,3,3,0,0,0,.378-1.468A2.94,2.94,0,0,0,608.6,253.168Zm-1.805,2.316a2.156,2.156,0,0,1-.649.683,3.323,3.323,0,0,1-1.034.45,5.781,5.781,0,0,1-2.724,0,3.325,3.325,0,0,1-1.037-.45,2.217,2.217,0,0,1-.647-.683,1.671,1.671,0,0,1-.226-.842,1.781,1.781,0,0,1,.873-1.547,5.2,5.2,0,0,1,4.795,0,1.787,1.787,0,0,1,.873,1.547A1.636,1.636,0,0,1,606.79,255.484Z" transform="translate(-443.481 -240.44)"/>
      <path id="패스_8733" data-name="패스 8733" class="cls-4" d="M612.527,232.575v2.92h-3.516v1.494h3.516v3.836h1.953v-8.25Z" transform="translate(-449.067 -230.632)"/>
      <path id="패스_8734" data-name="패스 8734" class="cls-4" d="M600.067,229.128h-2.425a5.656,5.656,0,0,1,.373,1.61v.5h2.052Z" transform="translate(-443.014 -228.797)"/>
      <path id="패스_8735" data-name="패스 8735" class="cls-4" d="M618.058,228.42h-2.325a5.763,5.763,0,0,1,.373,1.615v.5h1.953Z" transform="translate(-452.646 -228.42)"/>
      <path id="패스_8736" data-name="패스 8736" class="cls-4" d="M490.214,240.511a8.273,8.273,0,0,1-.859-2.03,9.047,9.047,0,0,1-.3-2.344v-.759h-2.046v.851a8.637,8.637,0,0,1-1.093,4.312,9.423,9.423,0,0,1-3.324,3.349l1.13,1.415a11.8,11.8,0,0,0,2.762-2.288,8.559,8.559,0,0,0,1.729-3.026,6.734,6.734,0,0,0,.657,1.392,10.172,10.172,0,0,0,.988,1.363,12.583,12.583,0,0,0,1.191,1.219,7.548,7.548,0,0,0,1.277.928l.944-1.267a9.559,9.559,0,0,1-1.732-1.387A9.129,9.129,0,0,1,490.214,240.511Z" transform="translate(-381.762 -232.125)"/>
      <rect id="사각형_2339" data-name="사각형 2339" class="cls-4" width="1.956" height="15.192" transform="translate(113.482 1.863)"/>
      <path id="패스_8737" data-name="패스 8737" class="cls-4" d="M493.659,231.456h-2.422a5.709,5.709,0,0,1,.374,1.611v.681h2.049Z" transform="translate(-386.363 -230.036)"/>
      <path id="패스_8738" data-name="패스 8738" class="cls-4" d="M511.211,228.42h-2.3a5.523,5.523,0,0,1,.352,1.544v.653h1.948Z" transform="translate(-395.773 -228.42)"/>
      <path id="패스_8739" data-name="패스 8739" class="cls-4" d="M455.9,239.848a8.766,8.766,0,0,1-.872-2.062,11.772,11.772,0,0,1-.307-2.741h3.832v-1.491h-3.832v-.4h-2.051v.4H449.02v1.491h3.628a10.923,10.923,0,0,1-1.069,4.869,8.785,8.785,0,0,1-3.346,3.3c.2.238.4.481.591.715s.4.479.611.721a12.158,12.158,0,0,0,2.732-2.259,8.736,8.736,0,0,0,1.722-2.975,5.707,5.707,0,0,0,.633,1.385,8.973,8.973,0,0,0,.977,1.326,11.69,11.69,0,0,0,1.193,1.189,11.849,11.849,0,0,0,1.3,1c.175-.216.338-.427.5-.635s.325-.417.5-.634a9.773,9.773,0,0,1-1.726-1.414A9.336,9.336,0,0,1,455.9,239.848Z" transform="translate(-363.467 -230.94)"/>
      <rect id="사각형_2340" data-name="사각형 2340" class="cls-4" width="1.959" height="15.113" transform="translate(97.318 1.943)"/>
      <path id="패스_8740" data-name="패스 8740" class="cls-4" d="M459.347,229.495h-2.422a5.718,5.718,0,0,1,.371,1.612v.5h2.051Z" transform="translate(-368.095 -228.992)"/>
      <path id="패스_8741" data-name="패스 8741" class="cls-4" d="M476.637,228.42h-2.31a5.493,5.493,0,0,1,.351,1.544v.653h1.959Z" transform="translate(-377.36 -228.42)"/>
      <path id="패스_8742" data-name="패스 8742" class="cls-4" d="M273.388,240.79a11.078,11.078,0,0,1-.779-4.247v-.29h-1.99v.312a12.307,12.307,0,0,1-.191,2.193,8,8,0,0,1-.628,1.984,8.208,8.208,0,0,1-1.139,1.779,8.976,8.976,0,0,1-1.711,1.548l1.183,1.267a10.258,10.258,0,0,0,1.222-.972,9.25,9.25,0,0,0,1.842-2.344,5.683,5.683,0,0,0,.508-1.22,5.427,5.427,0,0,0,.507,1.237,8.789,8.789,0,0,0,.772,1.174,10.348,10.348,0,0,0,.912,1.027,7.294,7.294,0,0,0,.93.8l1.07-1.154A6.847,6.847,0,0,1,273.388,240.79Z" transform="translate(-266.951 -232.59)"/>
      <path id="패스_8743" data-name="패스 8743" class="cls-4" d="M285.465,236.793h-2.557v1.493h2.557v9.471h1.916V233.381h-1.916Z" transform="translate(-275.447 -231.061)"/>
      <rect id="사각형_2341" data-name="사각형 2341" class="cls-4" width="1.912" height="14.735" transform="translate(13.573 2.32)"/>
      <path id="패스_8744" data-name="패스 8744" class="cls-4" d="M297.467,228.42h-2.285a5.848,5.848,0,0,1,.372,1.615v.858h1.912Z" transform="translate(-281.981 -228.42)"/>
      <path id="패스_8745" data-name="패스 8745" class="cls-4" d="M289.868,229.151h-2.289a5.768,5.768,0,0,1,.373,1.613v.858h1.917Z" transform="translate(-277.934 -228.809)"/>
      <path id="패스_8746" data-name="패스 8746" class="cls-4" d="M276.352,231.585h-2.371a5.9,5.9,0,0,1,.388,1.666v.891h1.983Z" transform="translate(-270.694 -230.105)"/>
    </g>
    <g id="그룹_6859" data-name="그룹 6859" transform="translate(192.395 235.695)">
      <path id="패스_8747" data-name="패스 8747" class="cls-4" d="M270.918,283.147a3.013,3.013,0,0,0,1.907.857.9.9,0,0,0,.959-.857c0-1.175-2.9-1.237-2.9-3.258a1.976,1.976,0,0,1,2.071-2.029,3.594,3.594,0,0,1,1.9.515l-.255,1.03a2.8,2.8,0,0,0-1.673-.566.83.83,0,0,0-.827.784c0,1.2,2.928,1.185,2.928,3.3A2.016,2.016,0,0,1,272.9,285a3.218,3.218,0,0,1-2.082-.7Z" transform="translate(-270.815 -277.849)"/>
      <path id="패스_8748" data-name="패스 8748" class="cls-4" d="M282.539,279.187l-.144-1.063H286.3v1.021h-2.439v1.825h2.153l-.255,1.019h-1.9v2h2.572l-.255,1.02h-3.643Z" transform="translate(-276.98 -277.989)"/>
      <path id="패스_8749" data-name="패스 8749" class="cls-4" d="M293.762,284.515c0,1.318-.664,2.544-2.2,2.544a3.909,3.909,0,0,1-.755-.092l.07-1.153a1.539,1.539,0,0,0,.685.152c.541,0,.877-.639.877-1.452v-5.328l-.143-1.063h1.47Z" transform="translate(-281.457 -277.989)"/>
      <path id="패스_8750" data-name="패스 8750" class="cls-4" d="M306.253,281.4a3.406,3.406,0,0,1-3.286,3.626c-2,0-3.132-1.535-3.132-3.5A3.388,3.388,0,0,1,303.1,277.9C305.2,277.9,306.253,279.359,306.253,281.4Zm-3.2,2.628c1.081,0,1.8-1.092,1.8-2.568s-.715-2.567-1.8-2.567-1.806,1.092-1.806,2.567S301.967,284.028,303.05,284.028Z" transform="translate(-286.266 -277.873)"/>
      <path id="패스_8751" data-name="패스 8751" class="cls-4" d="M321.761,284.122l.071.886h-.847l-3.439-3.9-.4-.649v3.668l.112.886h-1.285v-5.821l-.143-1.063h1.02L320.2,282.1l.387.64v-3.555l-.143-1.063h1.317Z" transform="translate(-294.782 -277.989)"/>
      <path id="패스_8752" data-name="패스 8752" class="cls-4" d="M336.334,279.7a2.442,2.442,0,0,0-1.786-.824,2.36,2.36,0,0,0-2.019,2.588,2.282,2.282,0,0,0,2.111,2.524,4.671,4.671,0,0,0,1.052-.135v-1.452l-.184-.887h1.47l.009,3.031a8.052,8.052,0,0,1-2.53.452,3.223,3.223,0,0,1-3.306-3.431,3.461,3.461,0,0,1,3.387-3.71,3.325,3.325,0,0,1,2.336.856Z" transform="translate(-302.938 -277.849)"/>
      <path id="패스_8753" data-name="패스 8753" class="cls-4" d="M356.1,279.7a2.446,2.446,0,0,0-1.787-.824,2.361,2.361,0,0,0-2.02,2.588,2.225,2.225,0,0,0,2.121,2.482,2.889,2.889,0,0,0,2.062-.968l.244,1.061a3.859,3.859,0,0,1-2.5.958,3.223,3.223,0,0,1-3.306-3.431,3.461,3.461,0,0,1,3.388-3.71,3.326,3.326,0,0,1,2.336.856Z" transform="translate(-313.464 -277.849)"/>
      <path id="패스_8754" data-name="패스 8754" class="cls-4" d="M366.989,284.122l.111.886h-1.439v-5.821l-.142-1.063h1.47Z" transform="translate(-321.236 -277.989)"/>
      <path id="패스_8755" data-name="패스 8755" class="cls-4" d="M370.864,278.124h5.674v1.043h-2.2v4.956l.113.886h-1.439v-5.841h-2.143Z" transform="translate(-324.082 -277.989)"/>
      <path id="패스_8756" data-name="패스 8756" class="cls-4" d="M386.517,284.122l.113.886h-1.44v-2.977L383.629,279l-.634-.875h1.625l1.2,2.352.133.4.131-.4,1.195-2.352h1.326l-2.091,3.8Z" transform="translate(-330.541 -277.989)"/>
      <path id="패스_8757" data-name="패스 8757" class="cls-4" d="M407.55,281.4a3.406,3.406,0,0,1-3.286,3.626c-2,0-3.132-1.535-3.132-3.5A3.387,3.387,0,0,1,404.4,277.9C406.5,277.9,407.55,279.359,407.55,281.4Zm-3.2,2.628c1.082,0,1.8-1.092,1.8-2.568s-.714-2.567-1.8-2.567-1.807,1.092-1.807,2.567S403.263,284.028,404.347,284.028Z" transform="translate(-340.197 -277.873)"/>
      <path id="패스_8758" data-name="패스 8758" class="cls-4" d="M417.323,278.124h3.909v1.021h-2.439v1.825h2.151l-.255,1.019h-1.9v2.134l.11.886h-1.437v-5.821Z" transform="translate(-348.817 -277.989)"/>
      <path id="패스_8759" data-name="패스 8759" class="cls-4" d="M427.909,278.124h3.907v1.021h-2.439v1.825h2.154l-.256,1.019h-1.9v2.134l.113.886h-1.439v-5.821Z" transform="translate(-354.453 -277.989)"/>
      <path id="패스_8760" data-name="패스 8760" class="cls-4" d="M439.983,284.122l.112.886h-1.439v-5.821l-.141-1.063h1.468Z" transform="translate(-360.1 -277.989)"/>
      <path id="패스_8761" data-name="패스 8761" class="cls-4" d="M449.785,279.7A2.445,2.445,0,0,0,448,278.88a2.361,2.361,0,0,0-2.02,2.588,2.225,2.225,0,0,0,2.122,2.482,2.894,2.894,0,0,0,2.062-.968l.245,1.061a3.866,3.866,0,0,1-2.5.958,3.223,3.223,0,0,1-3.305-3.431,3.462,3.462,0,0,1,3.388-3.71,3.326,3.326,0,0,1,2.336.856Z" transform="translate(-363.341 -277.849)"/>
      <path id="패스_8762" data-name="패스 8762" class="cls-4" d="M459.32,279.187l-.143-1.063h3.909v1.021h-2.439v1.825H462.8l-.255,1.019h-1.9v2h2.572l-.256,1.02H459.32Z" transform="translate(-371.101 -277.989)"/>
      <path id="패스_8763" data-name="패스 8763" class="cls-4" d="M481.046,281.4a3.407,3.407,0,0,1-3.286,3.626c-2,0-3.132-1.535-3.132-3.5a3.387,3.387,0,0,1,3.266-3.616C479.994,277.9,481.046,279.359,481.046,281.4Zm-3.2,2.628c1.081,0,1.8-1.092,1.8-2.568s-.714-2.567-1.8-2.567-1.807,1.092-1.807,2.567S476.761,284.028,477.843,284.028Z" transform="translate(-379.327 -277.873)"/>
      <path id="패스_8764" data-name="패스 8764" class="cls-4" d="M490.819,278.124h3.909v1.021h-2.439v1.825h2.154l-.257,1.019h-1.9v2.134l.112.886h-1.44v-5.821Z" transform="translate(-387.947 -277.989)"/>
      <path id="패스_8765" data-name="패스 8765" class="cls-4" d="M506.927,279.187l-.143-1.063h3.908v1.021h-2.439v1.825h2.153l-.256,1.019h-1.9v2h2.572l-.256,1.02h-3.642Z" transform="translate(-396.447 -277.989)"/>
      <path id="패스_8766" data-name="패스 8766" class="cls-4" d="M520.742,278.124c1.521,0,3.011,1.03,3.011,3.4a3.251,3.251,0,0,1-3.316,3.482h-2.306v-5.821l-.144-1.063Zm-1.285,5.884h1.1c1.04,0,1.8-1.039,1.8-2.421,0-1.4-.755-2.465-1.8-2.465h-1.1Z" transform="translate(-402.412 -277.989)"/>
      <path id="패스_8767" data-name="패스 8767" class="cls-4" d="M537.41,279.187l-.144-1.063h1.315v4.122a2.741,2.741,0,0,1-2.937,2.9,2.556,2.556,0,0,1-2.674-2.628v-3.327l-.143-1.063h1.47v4.307a1.549,1.549,0,0,0,1.53,1.7,1.647,1.647,0,0,0,1.583-1.774Z" transform="translate(-410.313 -277.989)"/>
      <path id="패스_8768" data-name="패스 8768" class="cls-4" d="M552.63,279.7a2.446,2.446,0,0,0-1.786-.824,2.361,2.361,0,0,0-2.02,2.588,2.224,2.224,0,0,0,2.122,2.482,2.891,2.891,0,0,0,2.06-.968l.245,1.061a3.858,3.858,0,0,1-2.5.958,3.225,3.225,0,0,1-3.308-3.431,3.462,3.462,0,0,1,3.39-3.71,3.326,3.326,0,0,1,2.335.856Z" transform="translate(-418.095 -277.849)"/>
      <path id="패스_8769" data-name="패스 8769" class="cls-4" d="M563.064,278.053l.867-.217,2.082,5.741.572,1.277h-1.48l-.582-1.6H562.27l-.6,1.6h-1.226Zm-.47,4.146h1.633l-.7-2-.092-.4-.1.413Z" transform="translate(-425.015 -277.836)"/>
      <path id="패스_8770" data-name="패스 8770" class="cls-4" d="M572.589,278.124h5.673v1.043h-2.2v4.956l.111.886h-1.439v-5.841h-2.142Z" transform="translate(-431.482 -277.989)"/>
      <path id="패스_8771" data-name="패스 8771" class="cls-4" d="M588.024,284.122l.112.886H586.7v-5.821l-.143-1.063h1.468Z" transform="translate(-438.919 -277.989)"/>
      <path id="패스_8772" data-name="패스 8772" class="cls-4" d="M599,281.4a3.407,3.407,0,0,1-3.286,3.626c-2,0-3.131-1.535-3.131-3.5a3.387,3.387,0,0,1,3.264-3.616C597.946,277.9,599,279.359,599,281.4Zm-3.2,2.628c1.081,0,1.8-1.092,1.8-2.568s-.715-2.567-1.8-2.567-1.806,1.092-1.806,2.567S594.711,284.028,595.793,284.028Z" transform="translate(-442.125 -277.873)"/>
      <path id="패스_8773" data-name="패스 8773" class="cls-4" d="M613.955,284.122l.071.886h-.847l-3.438-3.9-.4-.649v3.668l.112.886h-1.286v-5.821l-.143-1.063h1.02l3.347,3.978.387.64v-3.555l-.142-1.063h1.317Z" transform="translate(-450.349 -277.989)"/>
    </g>
  </g>
</svg>
