<svg xmlns="http://www.w3.org/2000/svg" width="237.38" height="38.243" viewBox="0 0 237.38 38.243">
  <defs>
    <style>
      .cls-1 {
        fill: #07194b;
      }

      .cls-2 {
        fill: #d9000d;
      }

      .cls-3 {
        fill: #1461ac;
      }

      .cls-4 {
        fill: #54a020;
      }
    </style>
  </defs>
  <g id="그룹_6504" data-name="그룹 6504" transform="translate(-132.254 -248.708)">
    <rect id="사각형_2254" data-name="사각형 2254" class="cls-1" width="2.012" height="11.023" transform="translate(220.44 271.3)"/>
    <rect id="사각형_2255" data-name="사각형 2255" class="cls-1" width="2.906" height="0.668" transform="translate(221.708 274.78)"/>
    <rect id="사각형_2256" data-name="사각형 2256" class="cls-1" width="2.012" height="14.996" transform="translate(322.885 271.3)"/>
    <rect id="사각형_2257" data-name="사각형 2257" class="cls-1" width="2.904" height="1.243" transform="translate(324.15 275.237)"/>
    <rect id="사각형_2258" data-name="사각형 2258" class="cls-1" width="3.86" height="1.236" transform="translate(305.903 274.739)"/>
    <rect id="사각형_2259" data-name="사각형 2259" class="cls-1" width="7.539" height="1.24" transform="translate(299.095 271.55)"/>
    <rect id="사각형_2260" data-name="사각형 2260" class="cls-1" width="2.006" height="8.439" transform="translate(249.656 271.3)"/>
    <rect id="사각형_2261" data-name="사각형 2261" class="cls-1" width="2.907" height="1.239" transform="translate(250.914 274.175)"/>
    <rect id="사각형_2262" data-name="사각형 2262" class="cls-1" width="5.155" height="1.239" transform="translate(241.829 273.959)"/>
    <path id="패스_7473" data-name="패스 7473" class="cls-1" d="M227.433,271.39v1.24h7.028v2.158a7.294,7.294,0,0,1-.4,2.474h1.672a5.719,5.719,0,0,0,.736-2.824V271.39Z"/>
    <rect id="사각형_2263" data-name="사각형 2263" class="cls-1" width="2.005" height="2.375" transform="translate(213.8 270.932)"/>
    <rect id="사각형_2264" data-name="사각형 2264" class="cls-1" width="8.28" height="1.24" transform="translate(210.662 272.784)"/>
    <rect id="사각형_2265" data-name="사각형 2265" class="cls-1" width="2.012" height="3.609" transform="translate(230.903 277.733)"/>
    <rect id="사각형_2266" data-name="사각형 2266" class="cls-1" width="13.144" height="1.239" transform="translate(225.377 277.143)"/>
    <rect id="사각형_2267" data-name="사각형 2267" class="cls-1" width="2.008" height="2.741" transform="translate(260.207 276.792)"/>
    <rect id="사각형_2268" data-name="사각형 2268" class="cls-1" width="13.146" height="1.239" transform="translate(254.638 278.702)"/>
    <path id="패스_7474" data-name="패스 7474" class="cls-1" d="M227.329,280.757v1.235h7.233v4.3h2.01v-5.539Z"/>
    <rect id="사각형_2269" data-name="사각형 2269" class="cls-1" width="2.008" height="11.023" transform="translate(294.095 271.3)"/>
    <path id="패스_7475" data-name="패스 7475" class="cls-1" d="M287.923,286.3h8.3v-1.234h-7.55v-3.517h-2.009v3.465c0,.895.4,1.286,1.257,1.286"/>
    <path id="패스_7476" data-name="패스 7476" class="cls-1" d="M214.269,286.3h8.305v-1.234h-7.555v-3.517h-2v3.465c0,.895.4,1.286,1.254,1.286"/>
    <path id="패스_7477" data-name="패스 7477" class="cls-1" d="M247.585,279.019v-7.261h-2v6.023h-3.158v-6.023h-2.012v5.972c0,.895.4,1.289,1.256,1.289Z"/>
    <path id="패스_7478" data-name="패스 7478" class="cls-1" d="M271.288,271.427v4.7c0,.9.393,1.29,1.252,1.29h7.783v-1.238h-7.031V275.04h7.031V273.8h-7.031v-1.133h7.031v-1.24Z"/>
    <path id="패스_7479" data-name="패스 7479" class="cls-1" d="M214.8,273.449a3.4,3.4,0,1,0,3.867,3.369,3.643,3.643,0,0,0-3.867-3.369m0,5.532a2.191,2.191,0,1,1,1.856-2.163,2.028,2.028,0,0,1-1.856,2.163"/>
    <path id="패스_7480" data-name="패스 7480" class="cls-1" d="M247.623,280.072c-2.245,0-4.07,1.537-4.07,3.438s1.825,3.441,4.07,3.441,4.079-1.538,4.079-3.441-1.827-3.438-4.079-3.438m0,5.609a2.172,2.172,0,1,1,2.077-2.171,2.121,2.121,0,0,1-2.077,2.171"/>
    <path id="패스_7481" data-name="패스 7481" class="cls-1" d="M261.208,280.513c-2.2,0-3.99,1.438-3.99,3.222s1.789,3.215,3.99,3.215,3.994-1.439,3.994-3.215-1.787-3.222-3.994-3.222m0,5.165a1.946,1.946,0,1,1,1.986-1.943,1.957,1.957,0,0,1-1.986,1.943"/>
    <rect id="사각형_2270" data-name="사각형 2270" class="cls-1" width="2.012" height="2.643" transform="translate(274.821 276.89)"/>
    <rect id="사각형_2271" data-name="사각형 2271" class="cls-1" width="13.142" height="1.239" transform="translate(269.255 278.702)"/>
    <path id="패스_7482" data-name="패스 7482" class="cls-1" d="M275.828,280.513c-2.208,0-3.995,1.44-3.995,3.222s1.787,3.215,3.995,3.215,3.991-1.439,3.991-3.215-1.787-3.222-3.991-3.222m0,5.165a1.946,1.946,0,1,1,1.981-1.943,1.962,1.962,0,0,1-1.981,1.943"/>
    <path id="패스_7483" data-name="패스 7483" class="cls-1" d="M262.215,271.8v-.5h-2.008v.5c0,1.581-1.3,3.693-4.739,4.49l.8,1.11a8.3,8.3,0,0,0,4.944-2.75,8.3,8.3,0,0,0,4.947,2.75l.8-1.11c-3.436-.8-4.738-2.909-4.738-4.49"/>
    <rect id="사각형_2272" data-name="사각형 2272" class="cls-1" width="13.146" height="1.242" transform="translate(342.352 279.06)"/>
    <path id="패스_7484" data-name="패스 7484" class="cls-1" d="M354.331,272.417h-4.4v-1.485h-2.008v1.485h-4.229v1.239h10.639Z"/>
    <path id="패스_7485" data-name="패스 7485" class="cls-1" d="M348.925,280.928c-2.046,0-3.709,1.353-3.709,3.015s1.663,3.007,3.709,3.007,3.713-1.346,3.713-3.007-1.662-3.015-3.713-3.015m0,4.75a1.739,1.739,0,1,1,1.818-1.737,1.778,1.778,0,0,1-1.818,1.737"/>
    <path id="패스_7486" data-name="패스 7486" class="cls-1" d="M348.925,272.574c-2.029,0-3.676,1.329-3.676,2.962s1.647,2.964,3.676,2.964,3.678-1.329,3.678-2.964-1.646-2.962-3.678-2.962m0,4.72a1.757,1.757,0,1,1,1.791-1.758,1.775,1.775,0,0,1-1.791,1.758"/>
    <path id="패스_7487" data-name="패스 7487" class="cls-1" d="M289.048,273.68v-2.252h-2.012v2.252c0,1.582-.431,3.556-3.5,5.2l.891,1.011a8.554,8.554,0,0,0,3.612-2.786,8.523,8.523,0,0,0,3.607,2.786l.9-1.011c-3.066-1.641-3.5-3.615-3.5-5.2"/>
    <rect id="사각형_2273" data-name="사각형 2273" class="cls-1" width="2.005" height="11.023" transform="translate(308.822 271.3)"/>
    <rect id="사각형_2274" data-name="사각형 2274" class="cls-1" width="8.281" height="1.239" transform="translate(313.409 271.793)"/>
    <path id="패스_7488" data-name="패스 7488" class="cls-1" d="M319.232,280.855h-5.823v-1.237h5.823a13.806,13.806,0,0,0,4.085-.529v1.087a10.6,10.6,0,0,1-4.085.679"/>
    <rect id="사각형_2275" data-name="사각형 2275" class="cls-1" width="1.963" height="7.247" transform="translate(314.692 272.759)"/>
    <rect id="사각형_2276" data-name="사각형 2276" class="cls-1" width="1.959" height="7.247" transform="translate(318.458 272.759)"/>
    <path id="패스_7489" data-name="패스 7489" class="cls-1" d="M302.651,286.3h8.3v-1.234H303.4v-3.517h-2.007v3.465c0,.895.395,1.286,1.257,1.286"/>
    <path id="패스_7490" data-name="패스 7490" class="cls-1" d="M303.774,273.68v-1.558h-2.007v1.558c0,1.582-.432,3.556-3.5,5.2l.892,1.011a8.557,8.557,0,0,0,3.613-2.787,8.471,8.471,0,0,0,3.612,2.787l.888-1.011c-3.064-1.641-3.5-3.615-3.5-5.2"/>
    <rect id="사각형_2277" data-name="사각형 2277" class="cls-1" width="7.541" height="1.24" transform="translate(328.341 271.55)"/>
    <rect id="사각형_2278" data-name="사각형 2278" class="cls-1" width="2.004" height="11.023" transform="translate(338.071 271.3)"/>
    <path id="패스_7491" data-name="패스 7491" class="cls-1" d="M331.894,286.3h8.3v-1.234h-7.552v-3.517h-2v3.465c0,.895.4,1.286,1.254,1.286"/>
    <rect id="사각형_2279" data-name="사각형 2279" class="cls-1" width="2.01" height="2.685" transform="translate(360.56 278.775)"/>
    <path id="패스_7492" data-name="패스 7492" class="cls-1" d="M361.017,286.3h8.617v-1.234H361.77v-2.748h-2.011v2.7c0,.895.4,1.286,1.258,1.286"/>
    <path id="패스_7493" data-name="패스 7493" class="cls-1" d="M333.02,273.68v-1.558h-2.01v1.558c0,1.582-.431,3.556-3.5,5.2l.892,1.011a8.507,8.507,0,0,0,3.61-2.786,8.536,8.536,0,0,0,3.612,2.786l.892-1.011c-3.065-1.641-3.5-3.615-3.5-5.2"/>
    <path id="패스_7494" data-name="패스 7494" class="cls-1" d="M367.506,271.3v8.8h-3.377v1.236h3.377v1.337h2.008V271.3Z"/>
    <path id="패스_7495" data-name="패스 7495" class="cls-1" d="M359.084,279.226h-1.932v-1.241h1.932c3.683,0,7.724-.286,9.138-.428v1.221c-1.33.155-5.818.448-9.138.448"/>
    <path id="패스_7496" data-name="패스 7496" class="cls-1" d="M361.568,271.159a3.145,3.145,0,1,0,3.659,3.1,3.42,3.42,0,0,0-3.659-3.1m0,4.966a1.876,1.876,0,1,1,1.655-1.862,1.771,1.771,0,0,1-1.655,1.862"/>
    <path id="패스_7497" data-name="패스 7497" class="cls-1" d="M140.884,278.688h-4.258l7.918-7.385H148.8Z"/>
    <rect id="사각형_2280" data-name="사각형 2280" class="cls-1" width="9.913" height="2.576" transform="translate(172.059 279.936)"/>
    <path id="패스_7498" data-name="패스 7498" class="cls-1" d="M141.43,276.586l-4.44,2.1,5.037,5.827a4.4,4.4,0,0,0,3.845,1.78h3.714Z"/>
    <path id="패스_7499" data-name="패스 7499" class="cls-1" d="M134.141,271.3c-1.225,0-1.887.425-1.887,1.446V286.3h4.931V271.3Z"/>
    <path id="패스_7500" data-name="패스 7500" class="cls-1" d="M176.977,271.3a2.347,2.347,0,0,0-2.4,1.437L167.863,286.3h3.394l5.65-11.417,4.773,9.639c.591,1.188,1.378,1.778,3.3,1.778h2.916l-7.43-14.992Z"/>
    <path id="패스_7501" data-name="패스 7501" class="cls-1" d="M166.419,284.585v-.85h-6.834c-2.835,0-4.078-2.212-4.078-4.936s1.243-4.928,4.078-4.928H164.3c1.034,0,2.118-.3,2.118-1.712V271.3h-7.375c-6.579,0-8.777,3.354-8.777,7.5s2.2,7.5,8.777,7.5H164.3c1.034,0,2.118-.289,2.118-1.71"/>
    <path id="패스_7502" data-name="패스 7502" class="cls-2" d="M187.18,268.4a51.24,51.24,0,0,1,7.057,14.83c.9,2.788,2.985,3.064,4.846,3.064h4.811A48.273,48.273,0,0,0,187.18,268.4"/>
    <path id="패스_7503" data-name="패스 7503" class="cls-3" d="M166.437,260.834c-2.266-.327-3.265-.726-4.034-1.771a13.086,13.086,0,0,1-1.372-4.144,65.893,65.893,0,0,0-16.954-1.712c1,3.992,3.34,8.229,5.6,9.882,1.451,1.067,2.771,1.283,6.414,1.053,13.434-.872,22.173.676,31.09,4.259a49.4,49.4,0,0,0-20.743-7.567"/>
    <path id="패스_7504" data-name="패스 7504" class="cls-4" d="M160.228,248.708a36.382,36.382,0,0,0,.8,6.211A58.191,58.191,0,0,1,187.18,268.4a51.168,51.168,0,0,0-26.952-19.693"/>
    <path id="패스_7505" data-name="패스 7505" class="cls-1" d="M166.437,260.834A49.4,49.4,0,0,1,187.18,268.4a58.2,58.2,0,0,0-26.149-13.482,13.086,13.086,0,0,0,1.372,4.144c.769,1.045,1.768,1.444,4.034,1.771"/>
  </g>
</svg>
