<svg xmlns="http://www.w3.org/2000/svg" width="152.685" height="47.616" viewBox="0 0 152.685 47.616">
  <defs>
    <style>
      .cls-1 {
        fill: #161615;
      }

      .cls-2 {
        fill: #f99300;
      }

      .cls-3 {
        fill: #00256f;
      }

      .cls-4 {
        fill: #007d3b;
      }

      .cls-5 {
        fill: #c8001a;
      }

      .cls-6 {
        fill: #8c8a80;
      }
    </style>
  </defs>
  <g id="partners_logo14" transform="translate(-159.856 -219.827)">
    <g id="그룹_6440" data-name="그룹 6440" transform="translate(238.949 237.274)">
      <path id="패스_6228" data-name="패스 6228" class="cls-1" d="M368.756,254.69v10.77h-9.288V262.5h6.587V254.69h-9.121v2.359h6.586v3.094h-6.586v6.517a1.2,1.2,0,0,0,1.232,1.167l10.591-.007v0h2.534V254.69Z" transform="translate(-337.396 -254.69)"/>
      <path id="패스_6229" data-name="패스 6229" class="cls-1" d="M372.579,282.525h-2.534V284.3h-7.995v-1.731h-2.535l0,7.578a1.2,1.2,0,0,0,1.232,1.167l10.6,0a1.2,1.2,0,0,0,1.231-1.167ZM370.044,289h-7.995v-2.414h7.995Z" transform="translate(-338.685 -268.595)"/>
      <g id="그룹_6439" data-name="그룹 6439" transform="translate(38.323 9.003)">
        <g id="그룹_6438" data-name="그룹 6438">
          <rect id="사각형_2195" data-name="사각형 2195" class="cls-1" width="14.709" height="2.358"/>
          <path id="패스_6230" data-name="패스 6230" class="cls-1" d="M406.788,282.578H395.262v2.358h11.446v6.878h2.534v-9.236h-2.453Z" transform="translate(-394.866 -277.624)"/>
        </g>
      </g>
      <path id="패스_6231" data-name="패스 6231" class="cls-1" d="M332.426,255.982a1.23,1.23,0,0,0-1.224-1.191l-12.905-.007v2.36h11.585v6.521H317.9v2.357h6.435v4.03H318.3v2.357h11.585v5.522h2.535v-7.879h-5.55v-4.03h5.558Z" transform="translate(-317.896 -254.737)"/>
      <path id="패스_6232" data-name="패스 6232" class="cls-1" d="M409.246,255.98a1.233,1.233,0,0,0-1.232-1.189H395.262v2.359h11.446l-.374,7.245h2.532Z" transform="translate(-356.543 -254.74)"/>
      <path id="패스_6233" data-name="패스 6233" class="cls-1" d="M456.038,254.783v13.488h2.534v-11.2h1.923v-2.292Z" transform="translate(-386.903 -254.737)"/>
      <path id="패스_6234" data-name="패스 6234" class="cls-1" d="M442.937,280.66c-3.207,0-5.807,2.27-5.807,5.07s2.6,5.069,5.807,5.069,5.811-2.27,5.811-5.069S446.149,280.66,442.937,280.66Zm-.039,7.82a2.67,2.67,0,1,1,3.031-2.646A2.857,2.857,0,0,1,442.9,288.48Z" transform="translate(-377.458 -267.663)"/>
      <path id="패스_6235" data-name="패스 6235" class="cls-1" d="M439.164,258.711a7.422,7.422,0,0,0,1.148-2.746c.094-.638-.552-1.166-1.231-1.166l-7.862,0v2.284h5.728s-.211.971-2.252,3.1a22.452,22.452,0,0,1-4.5,3.324L432,265.457a25.379,25.379,0,0,0,3.189-2.112,13.454,13.454,0,0,0,1.407-1.234s.817.455,1.583.9c1.09.633,2.428,1.566,2.428,1.566l1.512-2.3a15.054,15.054,0,0,0-2.38-1.4c-1.069-.507-1.524-.734-1.524-.734S438.6,259.577,439.164,258.711Z" transform="translate(-373.992 -254.744)"/>
    </g>
    <g id="그룹_6441" data-name="그룹 6441" transform="translate(239.09 263.503)">
      <path id="패스_6236" data-name="패스 6236" class="cls-1" d="M320.219,307.242v.63h-.675V310.8h-.693v-2.932h-.674v-.63Z" transform="translate(-318.178 -307.17)"/>
      <path id="패스_6237" data-name="패스 6237" class="cls-1" d="M323.576,307.242v1.179a.913.913,0,0,1,.315-.272.9.9,0,0,1,.407-.088.971.971,0,0,1,.773.312,1.308,1.308,0,0,1,.273.888V310.8h-.63v-1.381a.948.948,0,0,0-.137-.567.491.491,0,0,0-.42-.184.486.486,0,0,0-.448.221,1.529,1.529,0,0,0-.137.76V310.8h-.612v-3.561Z" transform="translate(-320.566 -307.17)"/>
      <path id="패스_6238" data-name="패스 6238" class="cls-1" d="M329.388,309.957a.749.749,0,0,1,.722-.558.792.792,0,0,1,.483.144.737.737,0,0,1,.268.414Zm2.143.494c0-.018,0-.037,0-.057s0-.051,0-.092a1.447,1.447,0,0,0-.413-1.057,1.366,1.366,0,0,0-1.017-.422,1.318,1.318,0,0,0-.974.419,1.392,1.392,0,0,0-.409,1.009,1.374,1.374,0,0,0,.407,1,1.41,1.41,0,0,0,1.794.169,1.453,1.453,0,0,0,.514-.681h-.683a.652.652,0,0,1-.262.247.813.813,0,0,1-.375.086.782.782,0,0,1-.518-.167.635.635,0,0,1-.229-.453Z" transform="translate(-323.445 -307.96)"/>
      <path id="패스_6239" data-name="패스 6239" class="cls-1" d="M339.123,310.8h-.684v-3.561h.657l1.475,2.275v-2.275h.683V310.8h-.646l-1.485-2.343Z" transform="translate(-328.299 -307.17)"/>
      <path id="패스_6240" data-name="패스 6240" class="cls-1" d="M346.137,309.686a.752.752,0,0,1,.549-.224.768.768,0,0,1,.569.231.781.781,0,0,1,.229.573.745.745,0,0,1-.227.543.736.736,0,0,1-.542.228.785.785,0,0,1-.575-.227.773.773,0,0,1-.23-.574A.74.74,0,0,1,346.137,309.686ZM348.1,311.6v-2.689h-.616l.015.355a1.161,1.161,0,0,0-.387-.322,1.053,1.053,0,0,0-.473-.1,1.323,1.323,0,0,0-.985.4,1.376,1.376,0,0,0-.4,1,1.39,1.39,0,0,0,.4,1.011,1.34,1.34,0,0,0,1,.408,1.092,1.092,0,0,0,.5-.106.87.87,0,0,0,.343-.327l-.01.369Z" transform="translate(-331.707 -307.97)"/>
      <path id="패스_6241" data-name="패스 6241" class="cls-1" d="M352.074,310.8v-2.132h-.414v-.558h.414v-.872h.63v.872h.423v.558H352.7V310.8Z" transform="translate(-334.904 -307.17)"/>
      <path id="패스_6242" data-name="패스 6242" class="cls-1" d="M355.78,307.845h-.612v-.6h.612Zm-.612,2.959v-2.689h.612V310.8Z" transform="translate(-336.656 -307.17)"/>
      <path id="패스_6243" data-name="패스 6243" class="cls-1" d="M359.314,309.661a.749.749,0,0,1,.221.559.853.853,0,0,1-.206.6.723.723,0,0,1-.557.224.734.734,0,0,1-.555-.22.8.8,0,0,1-.212-.576.82.82,0,0,1,.208-.581.692.692,0,0,1,.534-.225A.773.773,0,0,1,359.314,309.661Zm-1.548,1.59a1.345,1.345,0,0,0,1,.414,1.361,1.361,0,0,0,1.011-.413,1.408,1.408,0,0,0,.407-1.03,1.341,1.341,0,0,0-.413-.989,1.386,1.386,0,0,0-1.015-.41,1.337,1.337,0,0,0-.983.416,1.367,1.367,0,0,0-.412,1A1.391,1.391,0,0,0,357.766,311.251Z" transform="translate(-337.75 -307.96)"/>
      <path id="패스_6244" data-name="패스 6244" class="cls-1" d="M364.658,308.932v.306a.909.909,0,0,1,.315-.272.9.9,0,0,1,.406-.088,1.1,1.1,0,0,1,.5.11.934.934,0,0,1,.36.33,1.007,1.007,0,0,1,.14.336,2.657,2.657,0,0,1,.042.544v1.422h-.63v-1.19a1.516,1.516,0,0,0-.126-.744.472.472,0,0,0-.432-.2.485.485,0,0,0-.447.221,1.512,1.512,0,0,0-.137.76v1.151h-.612v-2.689Z" transform="translate(-341.089 -307.988)"/>
      <path id="패스_6245" data-name="패스 6245" class="cls-1" d="M370.587,309.686a.754.754,0,0,1,.549-.224.766.766,0,0,1,.569.231.781.781,0,0,1,.228.573.775.775,0,0,1-.768.771.784.784,0,0,1-.575-.227.771.771,0,0,1-.23-.574A.74.74,0,0,1,370.587,309.686Zm1.969,1.917v-2.689h-.617l.015.355a1.156,1.156,0,0,0-.387-.322,1.051,1.051,0,0,0-.472-.1,1.322,1.322,0,0,0-.986.4,1.469,1.469,0,0,0,.005,2.01,1.339,1.339,0,0,0,1,.408,1.1,1.1,0,0,0,.5-.106.876.876,0,0,0,.343-.327l-.009.369Z" transform="translate(-343.922 -307.97)"/>
      <path id="패스_6246" data-name="패스 6246" class="cls-1" d="M376.614,310.8v-3.561h.612V310.8Z" transform="translate(-347.369 -307.17)"/>
      <path id="패스_6247" data-name="패스 6247" class="cls-1" d="M383.345,307.242v.63h-.675V310.8h-.693v-2.932H381.3v-.63Z" transform="translate(-349.711 -307.17)"/>
      <path id="패스_6248" data-name="패스 6248" class="cls-1" d="M386.7,307.242v1.179a.843.843,0,0,1,.72-.36.973.973,0,0,1,.774.312,1.308,1.308,0,0,1,.273.888V310.8h-.63v-1.381a.944.944,0,0,0-.138-.567.569.569,0,0,0-.868.037,1.536,1.536,0,0,0-.136.76V310.8h-.612v-3.561Z" transform="translate(-352.1 -307.17)"/>
      <path id="패스_6249" data-name="패스 6249" class="cls-1" d="M392.513,309.957a.75.75,0,0,1,.722-.558.789.789,0,0,1,.483.144.738.738,0,0,1,.269.414Zm2.143.494c0-.018,0-.037,0-.057s0-.051,0-.092a1.45,1.45,0,0,0-.413-1.057,1.367,1.367,0,0,0-1.017-.422,1.317,1.317,0,0,0-.974.419,1.393,1.393,0,0,0-.41,1.009,1.374,1.374,0,0,0,.407,1,1.41,1.41,0,0,0,1.794.169,1.457,1.457,0,0,0,.515-.681h-.684a.644.644,0,0,1-.262.247.81.81,0,0,1-.375.086.781.781,0,0,1-.518-.167.639.639,0,0,1-.229-.453Z" transform="translate(-354.978 -307.96)"/>
      <path id="패스_6250" data-name="패스 6250" class="cls-1" d="M399.043,309.686a.753.753,0,0,1,.55-.224.766.766,0,0,1,.569.231.781.781,0,0,1,.229.573.775.775,0,0,1-.769.771.786.786,0,0,1-.575-.227.771.771,0,0,1-.23-.574A.74.74,0,0,1,399.043,309.686Zm1.968,1.917v-2.689H400.4l.014.355a1.147,1.147,0,0,0-.387-.322,1.051,1.051,0,0,0-.472-.1,1.323,1.323,0,0,0-.986.4,1.467,1.467,0,0,0,.005,2.01,1.337,1.337,0,0,0,1,.408,1.1,1.1,0,0,0,.5-.106.873.873,0,0,0,.343-.327l-.01.369Z" transform="translate(-358.136 -307.97)"/>
      <path id="패스_6251" data-name="패스 6251" class="cls-1" d="M404.981,310.8v-2.132h-.414v-.558h.414v-.872h.629v.872h.423v.558h-.423V310.8Z" transform="translate(-361.332 -307.17)"/>
      <path id="패스_6252" data-name="패스 6252" class="cls-1" d="M408.544,309.957a.748.748,0,0,1,.722-.558.791.791,0,0,1,.483.144.733.733,0,0,1,.269.414Zm2.142.494c0-.018,0-.037.005-.057V310.3a1.447,1.447,0,0,0-.412-1.057,1.367,1.367,0,0,0-1.017-.422,1.317,1.317,0,0,0-.974.419,1.392,1.392,0,0,0-.41,1.009,1.373,1.373,0,0,0,.408,1,1.409,1.409,0,0,0,1.793.169,1.458,1.458,0,0,0,.516-.681h-.684a.649.649,0,0,1-.262.247.813.813,0,0,1-.375.086.784.784,0,0,1-.519-.167.635.635,0,0,1-.229-.453Z" transform="translate(-362.985 -307.96)"/>
      <path id="패스_6253" data-name="패스 6253" class="cls-1" d="M415.782,309.481a.745.745,0,0,0-.5.188.887.887,0,0,0-.144.587v1.375H414.5v-2.689h.59v.308a.978.978,0,0,1,.305-.266.833.833,0,0,1,.382-.086Z" transform="translate(-366.297 -307.997)"/>
      <path id="패스_6254" data-name="패스 6254" class="cls-1" d="M422.233,309.661a.748.748,0,0,1,.222.559.853.853,0,0,1-.207.6.723.723,0,0,1-.558.224.733.733,0,0,1-.554-.22.794.794,0,0,1-.212-.576.82.82,0,0,1,.208-.581.693.693,0,0,1,.534-.225A.772.772,0,0,1,422.233,309.661Zm-1.547,1.59a1.34,1.34,0,0,0,1,.414,1.362,1.362,0,0,0,1.011-.413,1.412,1.412,0,0,0,.407-1.03,1.343,1.343,0,0,0-.414-.989,1.385,1.385,0,0,0-1.015-.41,1.337,1.337,0,0,0-.983.416,1.369,1.369,0,0,0-.413,1A1.391,1.391,0,0,0,420.686,311.251Z" transform="translate(-369.181 -307.96)"/>
      <path id="패스_6255" data-name="패스 6255" class="cls-1" d="M427.768,308.069v.558h-.449v2.131h-.612v-2.131h-.32v-.558h.3V308a.806.806,0,0,1,.235-.635,1.05,1.05,0,0,1,.713-.209l.064,0c.029,0,.052,0,.068,0v.563h-.051a.5.5,0,0,0-.3.07.287.287,0,0,0-.088.237v.044Z" transform="translate(-372.232 -307.126)"/>
      <path id="패스_6256" data-name="패스 6256" class="cls-1" d="M433.54,309.035l1.075-1.793h.776l-1.14,1.768,1.14,1.793h-.776Zm-.009,1.768h-.693v-3.561h.693Z" transform="translate(-375.455 -307.17)"/>
      <path id="패스_6257" data-name="패스 6257" class="cls-1" d="M441.3,308.141a1.061,1.061,0,0,1,.322.776,1.162,1.162,0,0,1-.319.834,1.035,1.035,0,0,1-.78.334,1.046,1.046,0,0,1-.773-.343,1.121,1.121,0,0,1-.332-.805,1.1,1.1,0,0,1,1.116-1.119A1.04,1.04,0,0,1,441.3,308.141Zm-2.483,1.506a1.859,1.859,0,0,0,.375.594,1.784,1.784,0,0,0,.6.421,1.861,1.861,0,0,0,.729.142,1.807,1.807,0,0,0,1.313-.563,1.847,1.847,0,0,0,.383-.6,1.935,1.935,0,0,0,.134-.713,1.778,1.778,0,0,0-.143-.7,1.9,1.9,0,0,0-1-.993,1.819,1.819,0,0,0-2.52,1.709A1.911,1.911,0,0,0,438.819,309.648Z" transform="translate(-378.379 -307.099)"/>
      <path id="패스_6258" data-name="패스 6258" class="cls-1" d="M447.9,307.827h.258a.961.961,0,0,1,.569.134.487.487,0,0,1,.179.419.512.512,0,0,1-.218.446,1.123,1.123,0,0,1-.641.152H447.9Zm0,1.328.915,1.649h.83l-.89-1.376a1,1,0,0,0,.616-.366,1.1,1.1,0,0,0,.229-.7,1.02,1.02,0,0,0-.343-.823,1.444,1.444,0,0,0-.966-.294h-1.092V310.8h.7Z" transform="translate(-382.626 -307.17)"/>
      <path id="패스_6259" data-name="패스 6259" class="cls-1" d="M454.976,310.8H453.06v-3.561h1.916v.63h-1.223v.809h1.223v.621h-1.223v.873h1.223Z" transform="translate(-385.556 -307.17)"/>
      <path id="패스_6260" data-name="패스 6260" class="cls-1" d="M459.129,309.391l.433-1.144.421,1.144Zm1.086.666.279.746h.754l-1.369-3.561h-.6l-1.384,3.561h.72l.277-.746Z" transform="translate(-387.971 -307.17)"/>
    </g>
    <g id="그룹_6442" data-name="그룹 6442" transform="translate(159.856 219.827)">
      <path id="패스_6261" data-name="패스 6261" class="cls-2" d="M201.694,232.726c.083.016.075-.08.1-.151,0-.1-.1-.139-.165-.19-.111.056-.158.228-.338.073a.975.975,0,0,0-.772-.482l-.058-.019.133-.222c-.384-.143-.408-.622-.674-.886.13-.383-.264-.654-.4-.98a9.872,9.872,0,0,1-.351-1.471,1.133,1.133,0,0,1-.216-.664.135.135,0,0,0,.114.039c.056-.076-.035-.188-.061-.276-.257-.076-.032-.252-.13-.393.168-.2-.089-.592.116-.829-.331-.7.393-1.082-.066-1.791.07-.177.187.026.277-.093a7.653,7.653,0,0,1,.566-1.571c.465,0,.792-.488,1.225.129a.244.244,0,0,1,.409-.088c.1.4.516.246.668.633-.072.014-.019.1,0,.161.141.036.169-.036.286.164,0,.16.175.223.257.237.11-.377.493.087.65-.14.245.594.951.314.935.9.366.181.044.6.285.874-.1.182.109.493-.088.6.409.236.182.64.233.95l-.067.111c.106.171.03.414.008.579a.573.573,0,0,0-.1.568l.127.07c.02.222-.284.32-.088.6l.068.049c-.115.121-.275.348-.06.531,0,.547-.479.583-.469,1.163-.2.171-.01.677-.241.92-.094.343-.041.59-.283.865-.272-.037-.439-.163-.708-.2l-.181.554c-.069-.05-.166-.19-.264-.1l-.058.3Z" transform="translate(-179.351 -221.23)"/>
      <path id="패스_6262" data-name="패스 6262" class="cls-3" d="M268.616,240.471c.092.035.131-.035.2-.076.041-.07-.051-.13-.107-.183-.164.008-.3.113-.445-.048a.958.958,0,0,0-.706-.565l-.061-.031.272-.116c-.393-.213-.191-.558-.385-.822.348-.231,0-.537,0-.806.174-.395.033-.825.3-1.139a.527.527,0,0,1,.062-.528.209.209,0,0,0,.121.062c.1-.04.049-.142.058-.215-.275-.127.086-.185.039-.311.3-.093.18-.446.547-.554-.057-.591,1.011-.648.8-1.279.172-.106.217.071.383.016a8.533,8.533,0,0,1,1.464-.941c.564.134,1.2-.115,1.428.445a.451.451,0,0,1,.539.059c-.071.31.51.324.5.64-.1-.011-.072.067-.079.114.155.066.221.023.265.2-.076.116.106.21.2.244.318-.235.552.205.858.089.006.49,1,.5.7.906.359.233-.244.437-.084.7-.205.1-.107.379-.4.4.385.286-.09.5-.182.736l-.137.059c.047.152-.164.3-.273.411a.5.5,0,0,0-.4.372l.118.086c-.082.161-.5.141-.4.4l.06.055c-.2.05-.5.165-.334.353-.27.386-.868.273-1.142.684-.328.062-.346.475-.745.577-.282.216-.34.4-.771.527-.31-.1-.454-.244-.762-.348l-.489.336c-.061-.056-.107-.183-.273-.152l-.216.2Z" transform="translate(-213.572 -226.375)"/>
      <path id="패스_6263" data-name="패스 6263" class="cls-4" d="M247.123,234.341c.1.016.125-.06.187-.113.025-.074-.073-.116-.138-.16-.16.036-.278.168-.447.034a.949.949,0,0,0-.795-.43l-.064-.019.244-.164c-.424-.139-.287-.515-.526-.739.3-.291-.095-.53-.144-.791.1-.423-.114-.819.088-1.175a.533.533,0,0,1-.033-.533.191.191,0,0,0,.132.038c.092-.055.023-.148.016-.219-.291-.076.054-.2-.018-.316.281-.142.1-.47.442-.64-.164-.571.877-.818.553-1.4.151-.135.227.03.383-.053a8.606,8.606,0,0,1,1.27-1.187c.578.032,1.165-.328,1.482.184a.453.453,0,0,1,.544-.04c-.014.319.559.227.611.54-.1.006-.062.076-.057.126.162.036.222-.018.3.147-.057.126.139.187.234.2.27-.289.584.1.859-.064.1.48,1.076.311.847.765.4.166-.162.474.044.7-.182.136-.04.392-.323.462.429.212,0,.509-.048.758l-.125.083c.075.139-.106.324-.194.45a.5.5,0,0,0-.325.438l.13.063c-.053.173-.465.228-.324.461l.068.044c-.186.088-.464.253-.261.409-.2.429-.808.425-1,.876-.314.119-.256.529-.63.7-.241.259-.26.456-.663.656-.324-.051-.491-.159-.813-.209l-.424.42c-.067-.044-.137-.16-.294-.1l-.177.232Z" transform="translate(-202.607 -223.099)"/>
      <path id="패스_6264" data-name="패스 6264" class="cls-3" d="M175.28,238.208c-.542.049-.619-.65-1.13-.823-.05.394.334.609.371.958-.331-.1-.326-.647-.834-.564l-.022.079c-.327-.2-.642-.884-1.255-.873-.13-.208-.3-.413-.556-.323.1-.337-.349-.373-.571-.442-.227-.028-.222-.319-.516-.324-.041-.6-.787-.605-.939-1.144-.015-.116-.166-.051-.263-.066l-.017.08-.079,0c.178-.438-.5-.5-.518-.93-.29-.1-.29.249-.583.145.293-.15.064-.276-.021-.428-.507.336-.354-.332-.811-.231,0-.2-.327-.3-.208-.556l-.178-.266c.09-.042.068-.118.086-.2a.531.531,0,0,0-.207-.049c.232-.324.016-.588.287-.911.043-.2.052-.742.462-.645l.079,0c-.105-.328.4-.47.533-.612.342-.035.371.1.764-.076-.019-.175.268-.227.437-.273.328-.154.634-.539.949-.456.038.192.392.175.625.106.152-.065.334-.348.449-.158a.772.772,0,0,1,.449.191c.057-.08.128-.043.207-.049l-.039.254c.758-.386.95.4,1.6.294l-.284.307c.095.014.157.089.284.042l.094-.236c.09-.044.041.25.214.107.072-.064.094.015.126.05-.081.358.342.569.317.941.435.076.451.6.742.8a.985.985,0,0,0,.26,1.019c-.262.383.4.235.041.6.3-.133.17.2.2.34-.269.228.33.353.04.6.027.487.086,1.011.115,1.4-.059.43.259.766.256,1.215l-.075.062c-.039-.349-.343-.569-.4-.935-.319.114.022.329-.037.507.111.034-.005.2-.008.292-.081,0-.191-.031-.265.033-.123.2.132.208.08.346l-.159.008c-.158.262.165.4.1.678-.135-.11-.149-.384-.383-.312-.055.333.262.319.273.63C175.38,238.379,175.271,238.344,175.28,238.208Z" transform="translate(-163.439 -224.492)"/>
      <path id="패스_6265" data-name="패스 6265" class="cls-5" d="M226.664,230.458l-.138.217c-.02.115-.112-.2-.009-.281a.166.166,0,0,0-.125-.178c-.336.192-.352.553-.334.9-.1-.382-.391-.265-.654-.441l-.084-.159c-.149.15-.033.386-.121.564-.385-.109-.113-.572-.325-.821-.168.052-.1.2-.129.284-.236.112-.035-.323-.283-.187.09-.389-.307-.564-.176-.937a11.988,11.988,0,0,1-.222-2.864l.073-.029c.1-.325,0-.671.173-.94l-.039-.1c.171-.142.129-.408.193-.594a2.406,2.406,0,0,1-.014-1.481,5.6,5.6,0,0,1,1-2.851c.422-.245.754-.807,1.233-.719.747.08,1.049.613,1.5.87-.062.308.379.41.583.591.368.347.864.779.7,1.413a4.067,4.067,0,0,1-.136,1.047l.084.16a15.055,15.055,0,0,0-.5,1.744c-.128.622-.674,1.182-.694,1.757-.3,1.129-1.233,2.133-1.466,3.292C226.674,230.737,226.748,230.5,226.664,230.458Z" transform="translate(-191.929 -219.827)"/>
      <path id="패스_6266" data-name="패스 6266" class="cls-6" d="M173.069,253.539c.086-.1.22-.021.3.01a.4.4,0,0,1,.059.249c.538,0,.785.59,1.377.478-.107.191.172.3.288.367.3-.019.341.34.712.269a1.734,1.734,0,0,1,.76.81c.237-.052.266.1.411.218.037-.069.121-.053.188-.05.139.306.35.021.6.11.361-.309.963-.143,1.341-.466.166.06.254-.064.375-.144.7.155.97-.392,1.528-.461.6.1.478-.725,1.084-.266a2.431,2.431,0,0,0,1.052-.278,3.555,3.555,0,0,1,1.253.183c.08.073.181.076.246.16.242-.259.449.079.72.06.431.106.944-.2,1.081.276a6.214,6.214,0,0,1,1.428.435l.3.008c-.02.056.03.084.063.1a.929.929,0,0,0,.488-.489,1.712,1.712,0,0,0,1.089.083c-.013-.152.271-.062.193-.244.138-.025.2.2.363.2.143-.3.739-.008.854-.366.376-.255,1.094-.071,1.519-.325.451.151.678-.149,1.091.028.189-.135.461-.156.615-.276.008.207.3.1.411.205a5.48,5.48,0,0,1,1.511.037c.059.195.295.2.476.26a1.738,1.738,0,0,1,.6-.027c-.284.492.749.241.331.7.224.216.579.2.773.423a1.675,1.675,0,0,1,.906.024.5.5,0,0,0,.663.208,3.658,3.658,0,0,1,1.335-.258c.1.073.2.2.365.148.432-.363,1.218.184,1.39-.409a2.309,2.309,0,0,0,1.055-.42c-.052-.359.3-.449.627-.538a2.84,2.84,0,0,0,1.546.343c.538,0,1.006-.364,1.639-.212.051.434.687-.01.774.409.288-.062.276.216.407.315a.775.775,0,0,0,.413.609c.392-.1.528.263.83.325.2.114.394.246.591.361.52-.015.732-.328,1.285-.273.164-.33.676-.137.966-.325.454.055.75-.216,1.17-.262.244-.2.686.016.916-.227.6.015.954-.378,1.52-.323a.737.737,0,0,1,.419.121c.127.114-.086.455.281.507l.3,0c.022.264.48.11.6.155-.1-.155-.326-.272-.236-.505.284.049.391.329.725.379-.117.484.57.527.691.906.157.253.55.1.78.226.16-.231.231-.411.559-.542.448.138.745-.215,1.094-.126.339-.143.793-.061,1.15-.218a11.939,11.939,0,0,1,2.075-.3c.414.122.9-.257,1.326.032.408.234.871-.008,1.249.282.012.071-.041.166.059.21.1-.095.285-.035.421-.045.078.167-.109.189-.243.186-.082.013-.2-.031-.252.051a2.073,2.073,0,0,0,.666.072c0,.041.013.127-.071.137l.064.058c-.239.161-.717.356-.394.684.034.5-.64.6-1.05.725-.718-.073-.759.632-1.417.712-.755-.018-1.2.6-1.951.565-.237.077-.537.043-.729.231l-.015.347c-.289.1-.156.593-.627.679-.455,0-.758-.449-1.27-.226-.193-.226-.619-.042-.758-.365-.357.073-.628-.252-1.033-.234a.691.691,0,0,0-.53-.164c-.233-.091-.527-.249-.775-.369a5.453,5.453,0,0,0-1.081-.274c-.3-.091-.525-.432-.9-.273.017-.041-.015-.069-.051-.1-.429-.107-.463.363-.912.229a14.78,14.78,0,0,1-1.359.867c-.205.177-.132.456-.325.646-.535-.014-1.193.012-1.764.053-.227-.241-.651-.114-.893-.368a3.469,3.469,0,0,1-1.2-.389c.026-.277-.429-.262-.64-.406-.283-.1-.756-.005-.776-.379-.306.1-.263-.159-.477-.263-.778-.325-1.2.25-2,.1a2.06,2.06,0,0,1-.8.381c-.126.25-.531.321-.854.385-.4.5-.924.53-1.246,1.065-.07.068-.253.062-.192.189-.5-.137-.833.354-1.258.025-.449-.15-1.005-.082-1.33-.435-.322.1-.677-.252-.841.076-.134-.031-.2.065-.3.1l0,.043c-.806-.033-.228-.712-.806-.964-.138.136-.249-.045-.367-.065-.243-.214-.564-.18-.652-.515-.444-.219-1.226.014-1.425-.439a1.119,1.119,0,0,0-1.1.28c-.432-.136-.57.416-1.033.226-.237.09-.627.165-.688.426-.175.246-.641.1-.669.441-.393.229-.813.2-1.226.47-.366-.091-.727.122-1.1.166.074-.164-.166-.112-.23-.2-.3-.116-.41.186-.676.139,0-.056.022-.125-.062-.155-.317-.078-.763.192-.952-.12-.532-.139-1.591.294-1.561-.5-.188-.365-.657.08-.831-.215-.266-.091-.639.027-.85-.174.115-.359-.395-.191-.592-.318a.383.383,0,0,1-.42-.013c-.032-.055-.117-.043-.184-.044-.143.317-.585-.044-.731.274a4.041,4.041,0,0,1-1.1.223c-.314-.066-.474.2-.73.231a1.9,1.9,0,0,1-.453.987c-.209.148-.454.42-.8.384-.045.291-.48.307-.622.485-.5-.152-1.046.156-1.388-.132a.9.9,0,0,1-.6-.015c-.3-.479-1.284-.3-1.532-.884l-.184,0c.041-.209-.293-.217-.355-.357-.377.169-.274-.382-.6-.169-.25-.006-.259-.174-.407-.313-.053.1-.17.036-.237.048a.473.473,0,0,0-.414-.162l0-.154c.052.016.087-.025.121-.038.109-.22-.162-.156-.239-.311-.22.036-.03.318-.313.242-.045-.183-.349-.066-.533-.112-.01-.138-.2-.143-.294-.214a1.673,1.673,0,0,0-1.162.526c.048.112.146.212.107.351-.122.122-.021.567-.438.486-.21.231-.306.592-.805.439-.277.257-.782.315-.877.618a2.464,2.464,0,0,0-.469-.053c-.157.178-.455.043-.674.08-.218-.046.009-.263-.227-.255-.07.1-.156.176-.144.3-.254.035-.5-.168-.611.121-.4-.383-1.176.069-1.425-.421-.407-.357-1.3.051-1.492-.593l-.119,0c.074-.138-.111-.142-.174-.2l-.24.091c.005-.14-.242-.283-.429-.164h-.12a1.752,1.752,0,0,0-.4-.455c-.9.354-.058-.777-.958-.426-.18-.616-1.2-.6-.975-1.37-.669-.5-.426-1.247-.536-1.874.342-.159.311-.727.879-.671.4.12.653-.414,1.027-.07.364.146.6-.265.906.02a3.3,3.3,0,0,0,.844-.075.9.9,0,0,0,.664.154c.131-.413.843-.075.925-.517.36.216.548-.25.959-.076.221-.064,0-.414.313-.3.256.4.594-.1.9.119.117-.025.056-.137.075-.193.135-.01.316.048.42-.044l0-.1c.237-.064.285-.437.614-.233.21-.247.684.113.733-.33.255-.078.3.2.549.112.208-.163.481-.251.507-.488.458.248.319-.491.724-.078.2-.022.481.081.61-.138v-.058c.234.007.544.279.723-.022C172.508,253.762,172.8,253.2,173.069,253.539Z" transform="translate(-159.856 -236.609)"/>
      <path id="패스_6267" data-name="패스 6267" class="cls-6" d="M184.344,273.161l.489.577c.195,4.816-.518,11.617-.485,16.348-.424,1.239.034,2.752-1.272,3.686-1.269.3-.813-.881-1.4-1.292-.489-1.13-.035-2.64-.586-3.66-.26-3.082.094-8.644-.133-11.7.553-1.429-.781-3.629,1.169-4.456A3.472,3.472,0,0,1,184.344,273.161Z" transform="translate(-170.398 -246.204)"/>
      <path id="패스_6268" data-name="패스 6268" class="cls-6" d="M173.383,274.557c.569,3.162.213,7.841-.177,11.081a59.657,59.657,0,0,1-.519,7.765c-.3.188-.3.541-.662.594-.54.217-.631-.326-.752-.594-.57-5.617-.418-12.635-.507-18.656a1.279,1.279,0,0,1,.751-.971A1.668,1.668,0,0,1,173.383,274.557Z" transform="translate(-165.306 -246.741)"/>
      <path id="패스_6269" data-name="패스 6269" class="cls-6" d="M209.94,273.161l.483.577c.2,4.816-.516,11.617-.483,16.348-.422,1.239.03,2.752-1.27,3.686-1.27.3-.814-.881-1.4-1.292-.487-1.13-.03-2.64-.586-3.66-.261-3.082.094-8.644-.133-11.7.552-1.429-.782-3.629,1.173-4.456A3.482,3.482,0,0,1,209.94,273.161Z" transform="translate(-183.182 -246.204)"/>
      <path id="패스_6270" data-name="패스 6270" class="cls-6" d="M197.5,274.557c.572,3.162.215,7.841-.176,11.081a59.565,59.565,0,0,1-.518,7.765c-.3.188-.3.541-.662.594-.541.217-.63-.326-.749-.594-.572-5.617-.42-12.635-.51-18.656a1.283,1.283,0,0,1,.753-.971A1.662,1.662,0,0,1,197.5,274.557Z" transform="translate(-177.352 -246.741)"/>
      <path id="패스_6271" data-name="패스 6271" class="cls-6" d="M236.423,273.161l.487.577c.195,4.816-.518,11.617-.486,16.348-.423,1.239.032,2.752-1.269,3.686-1.272.3-.814-.881-1.4-1.292-.488-1.13-.033-2.64-.586-3.66-.261-3.082.1-8.644-.133-11.7.555-1.429-.781-3.629,1.173-4.456A3.478,3.478,0,0,1,236.423,273.161Z" transform="translate(-196.412 -246.204)"/>
      <path id="패스_6272" data-name="패스 6272" class="cls-6" d="M262.846,273.161l.491.577c.193,4.816-.521,11.617-.487,16.348-.424,1.239.034,2.752-1.27,3.686-1.271.3-.812-.881-1.4-1.292-.489-1.13-.032-2.64-.588-3.66-.259-3.082.1-8.644-.133-11.7.553-1.429-.782-3.629,1.174-4.456A3.462,3.462,0,0,1,262.846,273.161Z" transform="translate(-209.612 -246.204)"/>
      <path id="패스_6273" data-name="패스 6273" class="cls-6" d="M224.545,274.557c.574,3.162.217,7.841-.174,11.081a59.308,59.308,0,0,1-.518,7.765c-.3.188-.3.541-.662.594-.541.217-.633-.326-.754-.594-.567-5.617-.416-12.635-.506-18.656a1.28,1.28,0,0,1,.75-.971A1.662,1.662,0,0,1,224.545,274.557Z" transform="translate(-190.865 -246.741)"/>
      <path id="패스_6274" data-name="패스 6274" class="cls-6" d="M249.921,274.557c.57,3.162.213,7.841-.178,11.081a59.746,59.746,0,0,1-.516,7.765c-.3.188-.3.541-.663.594-.542.217-.63-.326-.75-.594-.574-5.617-.418-12.635-.509-18.656a1.287,1.287,0,0,1,.751-.971A1.668,1.668,0,0,1,249.921,274.557Z" transform="translate(-203.539 -246.741)"/>
      <path id="패스_6275" data-name="패스 6275" class="cls-6" d="M277.132,273.54l.448.566c.183,4.725-.475,11.4-.446,16.048-.389,1.217.03,2.7-1.174,3.618-1.172.3-.75-.864-1.291-1.269-.452-1.107-.031-2.593-.541-3.592-.241-3.022.086-8.486-.126-11.483.512-1.4-.719-3.566,1.084-4.376A3.08,3.08,0,0,1,277.132,273.54Z" transform="translate(-216.877 -246.399)"/>
    </g>
  </g>
</svg>
