<svg xmlns="http://www.w3.org/2000/svg" width="121.314" height="50.073" viewBox="0 0 121.314 50.073">
    <defs>
        <style>
            .cls-1{fill:#766b5f}
        </style>
    </defs>
    <g id="partners_logo6" transform="translate(-148.472 -459.11)">
        <g id="그룹_6415" data-name="그룹 6415">
            <g id="그룹_6413" data-name="그룹 6413">
                <path id="패스_6134" data-name="패스 6134" class="cls-1" d="M148.472 473.2h2.885v8.957l10.757-8.957h4.212l-11.367 9.038 12.313 10.977h-4.213l-11.7-10.729v10.729h-2.885z"/>
            </g>
            <g id="그룹_6414" data-name="그룹 6414">
                <path id="패스_6135" data-name="패스 6135" class="cls-1" d="M169.5 473.2h9.834c4.682 0 7.129 1.551 7.129 4.953a4.576 4.576 0 0 1-3.931 4.53v.086c3.216.384 4.738 2.491 4.738 4.876 0 2.99-2.186 5.57-7.623 5.57H169.5zm2.881 8.43h7.108c2.412 0 4.189-.918 4.189-3.051 0-1.858-.875-3.1-4.557-3.1h-6.74zm0 9.314h6.908c3.9 0 4.94-1.524 4.94-3.465 0-2.3-1.589-3.575-5.108-3.575h-6.74z"/>
            </g>
        </g>
        <path id="패스_6136" data-name="패스 6136" d="M219.533 485.815a96.018 96.018 0 0 0 1.249 15.809.188.188 0 0 0 .029.089c.724 1.06 1.478 5.276 2.073 6.6a.475.475 0 0 0 .13.129 5.353 5.353 0 0 0 2.758.731.113.113 0 0 0 .115-.1 17.068 17.068 0 0 0-.051-4.115c-.322-4.922-.683-12.754-.625-17.5 3.85 2.146 18.294 12.5 25.826 14.641a.492.492 0 0 0 .477-.1 2.6 2.6 0 0 1 1.109-.683 1.468 1.468 0 0 0 .4-1.287c4.769-.179 11.389-2.008 14.861-6.373 2.389-3 2.35-7.175.859-8.586a5.7 5.7 0 0 1-.625-.4c-2.275-2.267-5.364-2.875-8.674-2.68a17.091 17.091 0 0 0-8.148 2.927c0 .006-.019.009-.024-.014-.18-3.214 1.105-7.3-.021-9.936a.221.221 0 0 0-.233-.144 8.215 8.215 0 0 0-3.384 1.092.417.417 0 0 0-.154.343c-.012.75-.238 4.655-.614 5.03-.069.072-.048.145-.069.3a57.7 57.7 0 0 0-.031 12.066 2.037 2.037 0 0 0 1.016.784 7.771 7.771 0 0 0 3.149-.655 1.948 1.948 0 0 1 .5-.084c.132-.011.183-.163.171-.319a5.869 5.869 0 0 1 .035-1.1c.732-2.982 3.775-6.864 7.615-7.454a5.4 5.4 0 0 1 5.177 1.687c.291.319.64 2.719-.748 5.319a10.577 10.577 0 0 1-5.753 4.557 21.818 21.818 0 0 1-8.75 1.215c-2.915-1.759-7.8-5.831-12.094-7.455a13.5 13.5 0 0 1-2.433-1.758c-2.083-1.674-6.537-4.577-9.182-6.356-.018-.017-.018-.035-.018-.075a1.221 1.221 0 0 1 .036-.555.4.4 0 0 1 .2-.233c.928-.615 4.842-2.756 5.178-3.259a2.135 2.135 0 0 1 .441-.3c5.881-3.564 16.2-8.392 20.711-13.061a.4.4 0 0 0 .062-.274 2.021 2.021 0 0 1 .086-.561 2.927 2.927 0 0 0 .048-1.743.283.283 0 0 0-.177-.192c-2.408-.236-5.609 1.228-8.584 4.02a10.268 10.268 0 0 1-2.377 1.581c-3.374 1.917-11.359 6.875-15.171 9.325-.051.035-.1.01-.1-.045a129.039 129.039 0 0 1 2.044-15.8.517.517 0 0 0-.068-.358c-.311-.467-.494-1.025-.607-1.142a.132.132 0 0 0-.052-.043 2.156 2.156 0 0 0-1.639-.093c-.478.107-1.071.489-1.827.67a.263.263 0 0 0-.2.159 63.948 63.948 0 0 0-3.817 18.289c0 .021 0 .063-.04.038a87.97 87.97 0 0 0-9.289-5.16.611.611 0 0 0-.144-.037 6.874 6.874 0 0 1-2.274-1.056c-.836-.5-2.483-1.67-3.51-2.262a.484.484 0 0 0-.35-.085 6.483 6.483 0 0 0-3.008 2.028c-.152.228.162.738.125 1.053a.1.1 0 0 0 .028.091 30.478 30.478 0 0 0 6.156 4.161c3.1 1.673 6.259 3.261 7.567 4.091a.255.255 0 0 1 .08.082 2.388 2.388 0 0 0 .7.53 7.369 7.369 0 0 1 .927.569c.083.079.045.167-.041.226-3.283 2.284-9.8 6.517-12.914 8.605a26.991 26.991 0 0 1-2.581 1.233 3.381 3.381 0 0 0-1.78 1.449c-.053.115.021.174.1.2.5.143.623.495.969.632a1.32 1.32 0 0 0 .394.045c.648.021 1.791-.416 3.833-1.313 2.33-1.033 9.58-5.481 10.457-5.992a.09.09 0 0 1 .06-.016 2.211 2.211 0 0 0 1.2-.612 12.617 12.617 0 0 1 2.059-1.229l1.183-.656z" style="fill:#fca400"/>
    </g>
</svg>
