<svg xmlns="http://www.w3.org/2000/svg" width="227.383" height="28.417" viewBox="0 0 227.383 28.417">
  <defs>
    <style>
      .cls-1 {
        fill: #f68d00;
      }

      .cls-2 {
        fill: #001345;
      }
    </style>
  </defs>
  <g id="그룹_6999" data-name="그룹 6999" transform="translate(-270.57 -154.259)">
    <path id="패스_9618" data-name="패스 9618" class="cls-1" d="M281.121,163.405a9.14,9.14,0,0,0,9.154-9.146h8.443l-.005,28.14H288.16V170.443h-7.038V182.4H270.57V154.26h10.551Z"/>
    <g id="그룹_7000" data-name="그룹 7000" transform="translate(311.033 159.756)">
      <path id="패스_9619" data-name="패스 9619" class="cls-2" d="M440.4,162.69v3.631h2.7v2.862h-2.7v4.237H437.06V162.69Z" transform="translate(-350.013 -161.73)"/>
      <path id="패스_9620" data-name="패스 9620" class="cls-2" d="M425.019,182.47c0-3.019,2.645-5.5,6.217-5.5s6.219,2.476,6.219,5.5-2.645,5.524-6.219,5.524S425.019,185.49,425.019,182.47Zm6.187,2.752a2.746,2.746,0,1,0,0-5.481,2.743,2.743,0,1,0,0,5.481Z" transform="translate(-347.194 -165.074)"/>
      <path id="패스_9621" data-name="패스 9621" class="cls-2" d="M421.331,162.7c-.015,3.016-.168,5.5-4.585,7.558l1.608,2.459a9.172,9.172,0,0,0,4.871-3.685,9.169,9.169,0,0,0,4.869,3.685l1.61-2.459c-4.419-2.061-4.571-4.542-4.585-7.558Z" transform="translate(-345.257 -161.732)"/>
      <path id="패스_9622" data-name="패스 9622" class="cls-2" d="M373.524,167.774h-1.761v-5.027h-3.151v21.684h3.151v-13.5h1.761v13.5h3.239V162.747h-3.239Z" transform="translate(-333.988 -161.743)"/>
      <path id="패스_9623" data-name="패스 9623" class="cls-2" d="M501.662,167.774h-1.526v-5.027h-3.185v21.684h3.185v-13.5h1.526v13.5h3.277V162.747h-3.277Z" transform="translate(-364.035 -161.743)"/>
      <path id="패스_9624" data-name="패스 9624" class="cls-2" d="M406.538,167.774h-1.526v-5.027h-3.184v21.684h3.184v-13.5h1.526v13.5h3.277V162.747h-3.277Z" transform="translate(-341.764 -161.743)"/>
      <path id="패스_9625" data-name="패스 9625" class="cls-2" d="M519.505,171.8v-3.626h8.865V171.8Zm12.316,2.894V162.975H528.37v2.307h-8.865v-2.307h-3.45v11.719Z" transform="translate(-368.508 -161.796)"/>
      <path id="패스_9626" data-name="패스 9626" class="cls-2" d="M330,181.3h3.437v4.308h10.215v2.81H330Z" transform="translate(-324.947 -166.087)"/>
      <path id="패스_9627" data-name="패스 9627" class="cls-2" d="M525.179,184.166v-3.809h-3.522v3.809H513.9v2.827h19.07v-2.827Z" transform="translate(-368.003 -165.866)"/>
      <path id="패스_9628" data-name="패스 9628" class="cls-2" d="M342.7,174.195H340.17V171.4H342.7v-1.869h-2.539v-2.79H342.7v-4.016h3.34v15.948H342.7Z" transform="translate(-327.327 -161.739)"/>
      <path id="패스_9629" data-name="패스 9629" class="cls-2" d="M549.62,179.449v8.539h13.652v-8.539Zm3.325,5.743v-2.948h7.04v2.948Z" transform="translate(-376.367 -165.653)"/>
      <g id="그룹_6999-2" data-name="그룹 6999" transform="translate(0 0)">
        <path id="패스_9630" data-name="패스 9630" class="cls-2" d="M468.215,162.4h-3.269v14.6H458.08v-2.814a4.833,4.833,0,0,0,3.686-4.646,4.458,4.458,0,0,0-1.873-3.721h2.586v-2.648h-4.362v-1.726h-3.521v1.726h-4.366v2.648h2.614a4.474,4.474,0,0,0-1.873,3.721,4.84,4.84,0,0,0,3.729,4.659v2.8h-4.565v2.854h14.813v4.25h3.269V171.333h2.7v-2.861h-2.7ZM456.364,167.2a2.271,2.271,0,1,1-2.272,2.27A2.317,2.317,0,0,1,456.364,167.2Z" transform="translate(-353.074 -161.436)"/>
        <path id="패스_9631" data-name="패스 9631" class="cls-2" d="M488.754,166.268h2.982V163.46h-9.691v2.808h3.037c.008,2.3.576,6.177-3.916,8.526l1.56,2.344a9,9,0,0,0,4.192-3.8,8.881,8.881,0,0,0,4.121,3.839l1.631-2.38C488.178,172.445,488.746,168.572,488.754,166.268Z" transform="translate(-360.34 -161.91)"/>
        <path id="패스_9632" data-name="패스 9632" class="cls-2" d="M389.94,161.491v1.726h-3.811v2.648h1.879a4.453,4.453,0,0,0-1.777,3.721,5.425,5.425,0,0,0,10.8,0,4.452,4.452,0,0,0-1.778-3.721h1.88v-2.648h-3.811v-1.726Zm3.956,8.039a2.271,2.271,0,1,1-2.272-2.272A2.319,2.319,0,0,1,393.9,169.53Z" transform="translate(-338.089 -161.449)"/>
        <path id="패스_9633" data-name="패스 9633" class="cls-2" d="M327.643,161.51v1.726H323.4v2.649h2.357a4.268,4.268,0,0,0-1.732,3.492c0,2.636,2.267,4.772,5.4,4.772s5.4-2.136,5.4-4.772a4.273,4.273,0,0,0-1.732-3.492h2.356v-2.649H331.21V161.51Zm4.05,7.81a2.274,2.274,0,1,1-2.272-2.156A2.223,2.223,0,0,1,331.693,169.32Z" transform="translate(-323.403 -161.453)"/>
      </g>
      <path id="패스_9634" data-name="패스 9634" class="cls-2" d="M550.832,161.51v1.726h4.239v2.735h-2.356a4.054,4.054,0,0,1,1.731,3.325c0,2.636-2.266,4.709-5.4,4.709s-5.4-2.072-5.4-4.709a4.059,4.059,0,0,1,1.732-3.325h-2.357v-2.735h4.24V161.51Zm-1.788,9.816a2.068,2.068,0,1,0-2.2-2.064A2.134,2.134,0,0,0,549.043,171.326Z" transform="translate(-374.823 -161.453)"/>
      <path id="패스_9635" data-name="패스 9635" class="cls-2" d="M562.357,169.912h-2.569v-2.848h2.569v-4.335h3.31v11.726h-3.31Z" transform="translate(-378.747 -161.739)"/>
      <path id="패스_9636" data-name="패스 9636" class="cls-2" d="M364.41,174.615h-5.451v-8.228h4.48v-2.845h-7.884v13.929h8.855Z" transform="translate(-330.931 -161.929)"/>
    </g>
  </g>
</svg>
