<svg xmlns="http://www.w3.org/2000/svg" width="231.848" height="53.026" viewBox="0 0 231.848 53.026">
  <defs>
    <style>
      .cls-1 {
        fill: #405a25;
      }

      .cls-2 {
        fill: #5e832d;
      }

      .cls-3 {
        fill: #00438f;
      }

      .cls-4 {
        fill: #e72c17;
      }

      .cls-5 {
        fill: #eb4617;
      }

      .cls-6 {
        fill: #f36a10;
      }

      .cls-7 {
        fill: #8abb2a;
      }

      .cls-8 {
        fill: #1a1311;
      }
    </style>
  </defs>
  <g id="그룹_6930" data-name="그룹 6930" transform="translate(-487.887 -130.073)">
    <g id="그룹_6926" data-name="그룹 6926" transform="translate(487.887 142.002)">
      <path id="패스_9231" data-name="패스 9231" class="cls-1" d="M487.887,164.913V162.8H494.1l-.192-3.311H489.47l-.214-9.161h11.895l-.216,9.161H496.5l-.192,3.311h6.21v2.11Zm10.7-12.542h-6.763l-.144,5.108h7.051Z" transform="translate(-487.887 -150.331)"/>
      <path id="패스_9232" data-name="패스 9232" class="cls-2" d="M524.941,162.021l-.24,5.731h-2.207l-.215-5.731h-5.925v-2.109h14.678v2.109Zm-6.907-3.981-.24-7.508h11.8v2.089h-9.185l-.145,3.358h9.352v2.061Z" transform="translate(-499.591 -150.414)"/>
      <path id="패스_9233" data-name="패스 9233" class="cls-3" d="M552.91,165.189h-8.924V163.9h8.924Zm-8.031-5.209h5.586l-.057-.716h-5.4v-1.2h6.948l-.147,3.086h-5.368l-.043.717h5.544v1.2H545.01Zm.965,10.868-.118-2.969h3.934l-.028-.644h-3.877v-1.214h5.383l-.1,2.983h-3.8l-.042.628h3.948v1.214Z" transform="translate(-510.951 -153.51)"/>
      <g id="그룹_6925" data-name="그룹 6925" transform="translate(21.289 20.748)">
        <path id="패스_9234" data-name="패스 9234" class="cls-3" d="M528.032,193.639l-.133,2.91h-1.344l-.147-2.91h-2.369V192.38h6.683v1.259Zm-1.434-8.075h1.624l-.06.817a2.884,2.884,0,0,1,1.558.937,2.727,2.727,0,0,1-.241,3.723,2.963,2.963,0,0,1-2.063.782,3.006,3.006,0,0,1-2.083-.782,2.7,2.7,0,0,1-.241-3.723,2.912,2.912,0,0,1,1.564-.937Zm1.967,2.4a1.708,1.708,0,0,0-1.149-.409,1.762,1.762,0,0,0-1.161.409,1.464,1.464,0,0,0,0,2.188,1.731,1.731,0,0,0,1.161.416,1.679,1.679,0,0,0,1.149-.416,1.5,1.5,0,0,0,0-2.188Zm4.309,8.864h-1.347l-.132-10.5h1.609Z" transform="translate(-524.039 -185.564)"/>
        <path id="패스_9235" data-name="패스 9235" class="cls-3" d="M541.426,188.491v-1.273h2.368l-.058-1.01h1.712l-.059,1.01H547.8v1.273h-.629a3.334,3.334,0,0,1,.395.789,2.748,2.748,0,0,1,.145.893,2.892,2.892,0,0,1-.935,2.149,3.033,3.033,0,0,1-2.181.907,2.958,2.958,0,0,1-2.156-.907,2.926,2.926,0,0,1-.914-2.149,2.876,2.876,0,0,1,.137-.893,3.2,3.2,0,0,1,.388-.789Zm4.365.49a1.7,1.7,0,0,0-2.391,0,1.669,1.669,0,0,0,0,2.376,1.685,1.685,0,0,0,2.391,0,1.654,1.654,0,0,0,0-2.376Zm-1.323,10.508-.132-4.709h1.609l-.1,3.423h3.978v1.286Zm5.7-12.652-.03,2.414h1.522v1.42h-1.55l-.071,4.11H548.7l-.132-7.943Z" transform="translate(-531.187 -185.829)"/>
      </g>
      <path id="패스_9236" data-name="패스 9236" class="cls-4" d="M583.682,196.472v2.109h-14.63v-2.109h2.782l-.215-6.835h2.542l-.216,6.835h2.207l-.217-6.835h2.52l-.217,6.835Zm-1.967-2.3h-2.182l-.241-8.081h-8.777V184H581.93Z" transform="translate(-521.256 -164.173)"/>
      <path id="패스_9237" data-name="패스 9237" class="cls-5" d="M608.042,194.94l-.17,2.255h1.344L609,204.149h-2.207l-.143-4.891h-6.62V197.2h1.439l-.192-2.255h-3.716v-2.062H612.19v2.062Zm-4.485-13.668h2.638l-.1,1.39a5.313,5.313,0,0,1,2.76,1.621,4.271,4.271,0,0,1,1.125,2.984,4.316,4.316,0,0,1-1.523,3.381,5.438,5.438,0,0,1-7.155,0,4.5,4.5,0,0,1-.41-6.366,5.291,5.291,0,0,1,2.734-1.621Zm3.332,4.136a3.222,3.222,0,0,0-4.029,0,2.263,2.263,0,0,0-.887,1.858,2.236,2.236,0,0,0,.887,1.834,3.218,3.218,0,0,0,4.029,0,2.233,2.233,0,0,0,.887-1.834A2.259,2.259,0,0,0,606.889,185.408Zm-1.2,9.532h-2.037c0,.065-.02.469-.059,1.211a3.329,3.329,0,0,1-.109,1.043h2.351Z" transform="translate(-532.977 -163.052)"/>
    </g>
    <g id="그룹_6929" data-name="그룹 6929" transform="translate(537.77 130.073)">
      <g id="그룹_6927" data-name="그룹 6927" transform="translate(0)">
        <path id="패스_9238" data-name="패스 9238" class="cls-6" d="M586.822,173.369c1.455-.249,2.325-2.086,3.027-5.766a19.974,19.974,0,0,1-6.21-1.119C584.327,170.607,585.488,173.369,586.822,173.369Z" transform="translate(-577.136 -145.043)"/>
        <path id="패스_9239" data-name="패스 9239" class="cls-6" d="M586.049,140.51c-7.43,0-13.453,2.774-13.453,6.2a3.164,3.164,0,0,0,.438,1.575c.789-1.423,2.671-2.55,5.4-3.241-.026.722,0,1.3,0,2.012,0,1.675.066,3.3.189,4.824a25.638,25.638,0,0,0,7.191,1.028c-.045-2.91.07-6.063.242-8.777,5.635-.23,11.237,1.687,12.926,4.291a3.212,3.212,0,0,0,.52-1.712C599.5,143.284,593.48,140.51,586.049,140.51Z" transform="translate(-572.596 -134.364)"/>
        <path id="패스_9240" data-name="패스 9240" class="cls-6" d="M586.158,136.037a2.982,2.982,0,1,0-2.981-2.981A2.981,2.981,0,0,0,586.158,136.037Z" transform="translate(-576.946 -130.073)"/>
      </g>
      <g id="그룹_6928" data-name="그룹 6928" transform="translate(0 10.921)">
        <path id="패스_9241" data-name="패스 9241" class="cls-7" d="M598.983,152.746c-1.612,2.591-6.792,4.488-12.933,4.488l-.234,0a25.638,25.638,0,0,1-7.191-1.028c-2.717-.83-4.742-2.1-5.59-3.6a3.164,3.164,0,0,1-.438-1.575v2.9c0,2.334,2.6,4.808,6.5,6.2a19.974,19.974,0,0,0,6.21,1.119c-.7,3.68-1.572,5.517-3.027,5.766l5.818-.443c2.757-.505,4.141-2.341,5.4-6.416,3.451-1.109,5.831-3.736,5.991-5.9,0,.026,0,.052,0,.079V154.2c0-.059.006-.118.006-.177v-2.991A3.212,3.212,0,0,1,598.983,152.746Z" transform="translate(-572.596 -149.612)"/>
        <path id="패스_9242" data-name="패스 9242" class="cls-7" d="M599.87,155.31a3.345,3.345,0,1,0-3.345-3.345A3.344,3.344,0,0,0,599.87,155.31Z" transform="translate(-582.434 -148.619)"/>
      </g>
    </g>
    <g id="그룹_6933" data-name="그룹 6933" transform="translate(305.273 -267.272)">
      <g id="그룹_6931" data-name="그룹 6931" transform="translate(274.561 410.275)">
        <path id="패스_9243" data-name="패스 9243" class="cls-8" d="M276.073,424.294c-.4.173-.669.1-.793-.2l-.645-1.313c-.124-.3-.124-.571.247-.744,4.069-1.711,6.947-4.514,7.864-7.517.173-.521.149-.719-.348-.719h-6.748a.342.342,0,0,1-.322-.374V411.79a.315.315,0,0,1,.348-.348h8.41c1.463,0,1.958.422,1.958,1.488a8.464,8.464,0,0,1-.222,1.268C284.557,418.736,281.309,422.135,276.073,424.294Zm16.8,4.687c0,2.828-3.151,4.838-7.418,4.838-4.539,0-7.342-1.985-7.342-4.838,0-2.753,2.8-4.761,7.342-4.761C289.718,424.22,292.868,426.179,292.868,428.981Zm-2.927.1c0-1.637-2.059-2.628-4.491-2.628-2.654,0-4.39.967-4.39,2.628,0,1.563,1.81,2.482,4.39,2.482C287.882,431.563,289.941,430.644,289.941,429.081Zm6.053-10.394h-3.349v4.788c0,.223-.124.323-.348.323h-2.182a.357.357,0,0,1-.349-.349V410.6a.354.354,0,0,1,.349-.323H292.3c.223,0,.348.1.348.323V416.3h3.349a.375.375,0,0,1,.373.326v1.733A.377.377,0,0,1,295.993,418.687Z" transform="translate(-274.561 -410.275)"/>
        <path id="패스_9244" data-name="패스 9244" class="cls-8" d="M305.006,422.482a56.9,56.9,0,0,1-6.7.6v3.572a.383.383,0,0,1-.373.371h-2.059a.381.381,0,0,1-.371-.371v-3.375c-1.96.076-4.292.149-5.631.076a.382.382,0,0,1-.348-.4v-1.538a.36.36,0,0,1,.348-.373,130.48,130.48,0,0,0,14.859-.719.363.363,0,0,1,.422.274l.173,1.411A.447.447,0,0,1,305.006,422.482Zm-7.962-11.858c3.374,0,5.73,2.035,5.73,4.491,0,2.578-2.356,4.59-5.73,4.59s-5.681-2.012-5.681-4.59C291.363,412.659,293.67,410.624,297.044,410.624Zm12.18,22.774H295.158c-1.515,0-1.909-.474-1.909-1.763V428.09a.374.374,0,0,1,.346-.349h2.134a.378.378,0,0,1,.371.349v2.529c0,.324.1.4.472.4h12.652a.352.352,0,0,1,.346.324v1.76A.314.314,0,0,1,309.224,433.4Zm-12.18-20.591c-1.612,0-2.952,1.041-2.952,2.356,0,1.365,1.34,2.383,2.952,2.383,1.637,0,2.976-1.018,2.976-2.383C300.02,413.849,298.681,412.807,297.044,412.807Zm11.66,16h-2.21c-.222,0-.322-.123-.322-.349V426.2h-4.241a.35.35,0,0,1-.348-.323v-1.565a.33.33,0,0,1,.348-.3h4.241V410.6c0-.222.1-.323.322-.323h2.21c.222,0,.322.1.322.323v17.862C309.026,428.686,308.925,428.808,308.7,428.808Z" transform="translate(-265.987 -410.275)"/>
        <path id="패스_9245" data-name="패스 9245" class="cls-8" d="M323.324,422.035H317.05v4.788H326.4a.42.42,0,0,1,.373.373v1.636a.423.423,0,0,1-.373.373H304.794a.38.38,0,0,1-.348-.373V427.2a.361.361,0,0,1,.348-.373h9.4v-4.788h-4.613a1.662,1.662,0,0,1-1.886-1.862v-7.243c0-1.266.522-1.612,1.785-1.612H323.1c.222,0,.346.1.346.324v1.736c0,.223-.124.322-.346.322H311c-.3,0-.447.148-.447.422v5.11c0,.3.074.447.447.447h12.229c.274,0,.4.024.4.3v1.688C323.624,421.934,323.5,422.035,323.324,422.035Z" transform="translate(-257.44 -409.678)"/>
        <path id="패스_9246" data-name="패스 9246" class="cls-8" d="M325.723,419.352h2.057c.225,0,.348.127.348.373v6.9h2.779v-6.9c0-.245.124-.373.348-.373h2.059c.225,0,.348.127.348.373v6.9h7.765a.448.448,0,0,1,.4.373v1.637a.446.446,0,0,1-.4.37H320.115a.378.378,0,0,1-.371-.37v-1.637a.365.365,0,0,1,.371-.373h5.26v-6.9C325.375,419.479,325.5,419.352,325.723,419.352Zm13.321-6.224a61.681,61.681,0,0,1-.744,10.691c-.074.274-.2.521-.47.5l-2.035-.149c-.272-.027-.3-.2-.222-.473a61.724,61.724,0,0,0,.62-9.425c0-.473-.2-.521-.67-.521H322.994c-.175,0-.373-.126-.373-.3v-1.785a.34.34,0,0,1,.373-.3h14.387C338.45,411.363,339.043,411.91,339.043,413.128Z" transform="translate(-248.676 -409.652)"/>
        <path id="패스_9247" data-name="패스 9247" class="cls-8" d="M353.366,433.761H351.23a.378.378,0,0,1-.371-.348v-4.985c0-.322-.1-.4-.47-.4h-12.18a.354.354,0,0,1-.348-.323v-1.763a.314.314,0,0,1,.348-.3h2.58V423h-5.557c-.223,0-.346-.124-.346-.373v-1.589a.357.357,0,0,1,.346-.37h21.607a.42.42,0,0,1,.371.37v1.589a.4.4,0,0,1-.371.373h-5.557v2.653h.793c1.268,0,1.639.447,1.639,1.711v6.052A.375.375,0,0,1,353.366,433.761Zm.543-19.076c0,2.6-2.825,4.365-7.863,4.365-5.011,0-7.888-1.76-7.888-4.365,0-2.507,2.877-4.266,7.888-4.266C351.084,410.419,353.909,412.177,353.909,414.685Zm-7.863-2.134c-2.877,0-5.06.992-5.06,2.208,0,1.265,2.183,2.158,5.06,2.158s5.038-.893,5.038-2.158C351.084,413.543,348.923,412.55,346.046,412.55Zm-2.455,13.1h4.887V423h-4.887Z" transform="translate(-240.002 -410.192)"/>
        <path id="패스_9248" data-name="패스 9248" class="cls-8" d="M351.619,424.491l-.672-1.29c-.175-.274.024-.522.247-.645,3.622-1.513,6.874-4.042,7.791-5.831.123-.223.247-.37-.274-.37h-6.373a.383.383,0,0,1-.348-.4v-1.615c0-.2.172-.3.371-.3h8.31c1.315,0,2.06.348,2.06,1.241a4.007,4.007,0,0,1-.373,1.263,12.513,12.513,0,0,1-2.084,2.853,15.465,15.465,0,0,0,4.093,2.532c.373.123.447.371.225.694l-.7,1.192c-.149.3-.4.37-.769.22a17.712,17.712,0,0,1-4.588-3,25.33,25.33,0,0,1-6.2,3.673A.592.592,0,0,1,351.619,424.491Zm8.607-11.757H354.42a.4.4,0,0,1-.373-.4V410.92a.421.421,0,0,1,.373-.371h5.806a.429.429,0,0,1,.4.4v1.365A.43.43,0,0,1,360.226,412.733Zm2.133,21.061c-4.64,0-7.492-1.763-7.492-4.17,0-2.355,2.877-4.165,7.517-4.165s7.443,1.81,7.443,4.165C369.827,432.031,367.022,433.794,362.359,433.794Zm.025-6.152c-2.8,0-4.491.868-4.491,1.982s1.663,1.988,4.466,1.988,4.465-.87,4.465-1.988S365.188,427.643,362.384,427.643Zm.668-7.915v-1.685a.334.334,0,0,1,.349-.3h3.4V410.6c0-.222.1-.323.321-.323h2.207c.225,0,.324.1.324.323v13.7c0,.222-.1.346-.324.346h-2.207c-.223,0-.321-.1-.321-.324v-4.266h-3.4A.353.353,0,0,1,363.052,419.728Z" transform="translate(-230.838 -410.275)"/>
      </g>
      <g id="그룹_6932" data-name="그룹 6932" transform="translate(274.648 437.793)">
        <path id="패스_9249" data-name="패스 9249" class="cls-8" d="M279.324,430.924c.225,0,.225,0,.225.225v2.565a.279.279,0,0,1-.17.25,4.712,4.712,0,0,1-1.686.3,2.886,2.886,0,0,1-3.077-3.1,2.917,2.917,0,0,1,3.077-3.1,4.424,4.424,0,0,1,1.494.2.126.126,0,0,1,.1.165l-.039.3c-.008.074-.049.1-.121.074a3.618,3.618,0,0,0-1.43-.226,2.4,2.4,0,0,0-2.488,2.589,2.368,2.368,0,0,0,2.488,2.591,2.71,2.71,0,0,0,1.269-.219v-2.1h-1.615a.1.1,0,0,1-.112-.113v-.283a.1.1,0,0,1,.112-.113Z" transform="translate(-274.616 -427.6)"/>
        <path id="패스_9250" data-name="패스 9250" class="cls-8" d="M278.945,429.877c-.058.031-.113.019-.113-.038v-.311a.189.189,0,0,1,.113-.167,2.617,2.617,0,0,1,1.293-.275,1.345,1.345,0,0,1,1.541,1.541v2.031a7.833,7.833,0,0,0,.031.8.1.1,0,0,1-.112.115h-.289a.1.1,0,0,1-.113-.115v-.621a1.506,1.506,0,0,1-1.428.865,1.434,1.434,0,0,1-1.189-.477,1.454,1.454,0,0,1,.675-2.185,5.627,5.627,0,0,1,1.776-.209h.1v-.242c0-.683-.28-1.044-.994-1.044A2.409,2.409,0,0,0,278.945,429.877Zm2.287,1.416h-.151a3.536,3.536,0,0,0-1.381.178.931.931,0,0,0-.675.93.768.768,0,0,0,.264.648.993.993,0,0,0,.643.193c.746,0,1.3-.6,1.3-1.672Z" transform="translate(-272.436 -427.016)"/>
        <path id="패스_9251" data-name="패스 9251" class="cls-8" d="M284.738,433.46a.1.1,0,0,1-.112.115h-.321a.1.1,0,0,1-.113-.115v-2.548c0-.994-.37-1.365-1.011-1.365a1.228,1.228,0,0,0-1.332,1.381v2.532a.1.1,0,0,1-.113.115h-.321a.1.1,0,0,1-.113-.115v-3.236a8.625,8.625,0,0,0-.025-.914.1.1,0,0,1,.113-.112h.289a.1.1,0,0,1,.112.112v.447a1.451,1.451,0,0,1,1.414-.672c1.021,0,1.534.621,1.534,1.7Z" transform="translate(-270.801 -427.016)"/>
        <path id="패스_9252" data-name="패스 9252" class="cls-8" d="M284.546,434.628a.1.1,0,0,1-.08-.12l.024-.357c0-.072.033-.088.105-.049a2.688,2.688,0,0,0,1.2.26c.972,0,1.446-.64,1.51-1.675a1.449,1.449,0,0,1-1.35.738,1.882,1.882,0,0,1-1.854-2.046c0-1.449.5-2.282,1.815-2.282a1.718,1.718,0,0,1,1.412.648l-.014-.439a.1.1,0,0,1,.11-.112h.307a.1.1,0,0,1,.113.112v3.235c0,1.408-.724,2.281-2.057,2.281A3.682,3.682,0,0,1,284.546,434.628Zm2.764-3.268c0-1.156-.506-1.8-1.31-1.8-.867,0-1.309.56-1.309,1.821,0,.928.538,1.574,1.269,1.574A1.449,1.449,0,0,0,287.309,431.359Z" transform="translate(-269.185 -427.01)"/>
        <path id="패스_9253" data-name="패스 9253" class="cls-8" d="M291.989,433.444a.12.12,0,0,1-.129.09h-.473a.131.131,0,0,1-.129-.09l-1.14-3.72c-.393,1.254-.8,2.474-1.189,3.712a.129.129,0,0,1-.145.1h-.44c-.074,0-.121-.008-.146-.1l-1.34-4.167a.079.079,0,0,1,.08-.112h.368a.158.158,0,0,1,.145.112l1.14,3.688c.393-1.238.772-2.408,1.165-3.646a.175.175,0,0,1,.184-.154h.379a.177.177,0,0,1,.192.154l1.117,3.646c.409-1.268.771-2.417,1.181-3.688a.161.161,0,0,1,.143-.112h.322a.079.079,0,0,1,.079.112Z" transform="translate(-267.608 -426.975)"/>
        <path id="패스_9254" data-name="패스 9254" class="cls-8" d="M295.328,431.392a2.718,2.718,0,0,1-.5,1.6,2.068,2.068,0,0,1-3.124,0,2.714,2.714,0,0,1-.489-1.6,2.482,2.482,0,0,1,.489-1.6,1.9,1.9,0,0,1,1.565-.7,1.85,1.85,0,0,1,1.559.7A2.548,2.548,0,0,1,295.328,431.392Zm-.595,0a2.345,2.345,0,0,0-.377-1.305,1.324,1.324,0,0,0-1.085-.513,1.369,1.369,0,0,0-1.084.513,2.229,2.229,0,0,0-.385,1.305,2.159,2.159,0,0,0,.385,1.3,1.334,1.334,0,0,0,1.084.527,1.376,1.376,0,0,0,1.085-.527A2.268,2.268,0,0,0,294.733,431.392Z" transform="translate(-265.106 -427.016)"/>
        <path id="패스_9255" data-name="패스 9255" class="cls-8" d="M297.844,433.46a.1.1,0,0,1-.112.115h-.322a.1.1,0,0,1-.112-.115v-2.548c0-.994-.37-1.365-1.013-1.365a1.228,1.228,0,0,0-1.332,1.381v2.532a.1.1,0,0,1-.113.115h-.321a.1.1,0,0,1-.113-.115v-3.236c0-.459,0-.678-.024-.914a.1.1,0,0,1,.113-.112h.288a.1.1,0,0,1,.112.112v.447a1.455,1.455,0,0,1,1.416-.672c1.019,0,1.534.621,1.534,1.7Z" transform="translate(-263.293 -427.016)"/>
        <path id="패스_9256" data-name="패스 9256" class="cls-8" d="M299.293,434.011a.1.1,0,0,1-.11.115h-.363a.1.1,0,0,1-.11-.115v-5.645c0-.234.016-.242.241-.242h1.428a2.061,2.061,0,0,1,1.381.429,1.583,1.583,0,0,1,.516,1.276,1.723,1.723,0,0,1-1.961,1.732h-1.021Zm2.38-4.182a1.064,1.064,0,0,0-1.172-1.2h-1.208v2.419h.651C300.972,431.051,301.608,430.9,301.672,429.829Z" transform="translate(-260.813 -427.567)"/>
        <path id="패스_9257" data-name="패스 9257" class="cls-8" d="M303.528,429.693a1.156,1.156,0,0,0-.384-.05.94.94,0,0,0-.884.591,2.693,2.693,0,0,0-.225,1.18v2.046a.1.1,0,0,1-.113.115h-.313a.1.1,0,0,1-.112-.115v-3.284c0-.387-.009-.58-.016-.865a.1.1,0,0,1,.113-.112h.3a.1.1,0,0,1,.112.112v.793q.4-1.019,1.158-1.018a1.41,1.41,0,0,1,.368.049.156.156,0,0,1,.123.154v.338C303.651,429.693,303.587,429.715,303.528,429.693Z" transform="translate(-259.225 -427.016)"/>
        <path id="패스_9258" data-name="패스 9258" class="cls-8" d="M306.922,431.392a2.708,2.708,0,0,1-.5,1.6,2.068,2.068,0,0,1-3.124,0,2.715,2.715,0,0,1-.489-1.6,2.492,2.492,0,0,1,.489-1.6,1.9,1.9,0,0,1,1.567-.7,1.847,1.847,0,0,1,1.557.7A2.557,2.557,0,0,1,306.922,431.392Zm-.595,0a2.344,2.344,0,0,0-.376-1.305,1.328,1.328,0,0,0-1.085-.513,1.365,1.365,0,0,0-1.084.513,2.219,2.219,0,0,0-.387,1.305,2.149,2.149,0,0,0,.387,1.3,1.33,1.33,0,0,0,1.084.527,1.381,1.381,0,0,0,1.085-.527A2.268,2.268,0,0,0,306.327,431.392Z" transform="translate(-258.464 -427.016)"/>
        <path id="패스_9259" data-name="패스 9259" class="cls-8" d="M307.761,433.425a.149.149,0,0,1-.16.109h-.393a.142.142,0,0,1-.153-.109l-1.412-4.156a.079.079,0,0,1,.079-.112h.362a.158.158,0,0,1,.145.112l1.189,3.707,1.238-3.707a.159.159,0,0,1,.143-.112h.354a.08.08,0,0,1,.08.112Z" transform="translate(-256.845 -426.975)"/>
        <path id="패스_9260" data-name="패스 9260" class="cls-8" d="M308.265,428.329a.388.388,0,0,1,.385-.395.4.4,0,0,1,.393.395.391.391,0,0,1-.393.39A.383.383,0,0,1,308.265,428.329Zm.569,5.906h-.354a.1.1,0,0,1-.11-.115v-4.149a.1.1,0,0,1,.11-.112h.354a.1.1,0,0,1,.112.112v4.149A.1.1,0,0,1,308.834,434.235Z" transform="translate(-255.339 -427.676)"/>
        <path id="패스_9261" data-name="패스 9261" class="cls-8" d="M312.891,433.46a.1.1,0,0,1-.112.115h-.322a.1.1,0,0,1-.112-.115v-2.548c0-.994-.37-1.365-1.013-1.365A1.229,1.229,0,0,0,310,430.928v2.532a.1.1,0,0,1-.112.115h-.322a.1.1,0,0,1-.113-.115v-3.236c0-.459,0-.678-.024-.914-.008-.072.047-.112.113-.112h.289a.1.1,0,0,1,.112.112v.447a1.45,1.45,0,0,1,1.412-.672c1.021,0,1.535.621,1.535,1.7Z" transform="translate(-254.672 -427.016)"/>
        <path id="패스_9262" data-name="패스 9262" class="cls-8" d="M315.316,433.6a5.343,5.343,0,0,1-1.005.072,2.1,2.1,0,0,1-2.1-2.3,2.125,2.125,0,0,1,2.167-2.282,3.928,3.928,0,0,1,.948.1.138.138,0,0,1,.105.154l-.025.258c-.009.063-.049.09-.12.074a2.523,2.523,0,0,0-.827-.123,1.607,1.607,0,0,0-1.655,1.821,1.677,1.677,0,0,0,1.59,1.836,2.772,2.772,0,0,0,.882-.115c.08-.024.12,0,.129.058l.025.3A.129.129,0,0,1,315.316,433.6Z" transform="translate(-253.08 -427.01)"/>
        <path id="패스_9263" data-name="패스 9263" class="cls-8" d="M314.685,428.329a.388.388,0,0,1,.385-.395.4.4,0,0,1,.393.395.39.39,0,0,1-.393.39A.383.383,0,0,1,314.685,428.329Zm.569,5.906H314.9a.1.1,0,0,1-.112-.115v-4.149a.1.1,0,0,1,.112-.112h.352a.1.1,0,0,1,.113.112v4.149A.1.1,0,0,1,315.254,434.235Z" transform="translate(-251.661 -427.676)"/>
        <path id="패스_9264" data-name="패스 9264" class="cls-8" d="M316.172,429.877c-.057.031-.113.019-.113-.038v-.311a.186.186,0,0,1,.113-.167,2.621,2.621,0,0,1,1.293-.275,1.346,1.346,0,0,1,1.541,1.541v2.031a7.358,7.358,0,0,0,.033.8.1.1,0,0,1-.115.115h-.288a.1.1,0,0,1-.112-.115v-.621a1.508,1.508,0,0,1-1.43.865,1.436,1.436,0,0,1-1.189-.477,1.457,1.457,0,0,1,.675-2.185,5.634,5.634,0,0,1,1.776-.209h.1v-.242c0-.683-.282-1.044-1-1.044A2.409,2.409,0,0,0,316.172,429.877Zm2.289,1.416h-.153a3.541,3.541,0,0,0-1.381.178.931.931,0,0,0-.675.93.773.773,0,0,0,.264.648,1,1,0,0,0,.643.193c.746,0,1.3-.6,1.3-1.672Z" transform="translate(-251.108 -427.016)"/>
        <path id="패스_9265" data-name="패스 9265" class="cls-8" d="M318.986,434.283h-.352a.1.1,0,0,1-.115-.115v-6.205a.1.1,0,0,1,.115-.112h.352a.1.1,0,0,1,.113.112v6.205A.1.1,0,0,1,318.986,434.283Z" transform="translate(-249.464 -427.724)"/>
        <path id="패스_9266" data-name="패스 9266" class="cls-8" d="M326.064,431.171a3.594,3.594,0,0,1-.659,2.249,2.372,2.372,0,0,1-1.968.873,2.4,2.4,0,0,1-1.974-.873,3.506,3.506,0,0,1-.659-2.249A3.572,3.572,0,0,1,321.43,429a2.514,2.514,0,0,1,2.007-.939,2.435,2.435,0,0,1,2,.947A3.54,3.54,0,0,1,326.064,431.171Zm-.587,0a3.26,3.26,0,0,0-.489-1.779,1.875,1.875,0,0,0-3.108,0,3.494,3.494,0,0,0,0,3.566,1.892,1.892,0,0,0,1.557.824,1.841,1.841,0,0,0,1.551-.824A3.284,3.284,0,0,0,325.477,431.171Z" transform="translate(-248.155 -427.606)"/>
        <path id="패스_9267" data-name="패스 9267" class="cls-8" d="M326.954,427.825a.139.139,0,0,1,.094.168l-.016.238c-.008.063-.055.08-.112.055a.9.9,0,0,0-.33-.055.592.592,0,0,0-.61.477,3.892,3.892,0,0,0-.057.857v.389h.886a.1.1,0,0,1,.112.112v.244a.1.1,0,0,1-.112.112h-.886v3.794a.1.1,0,0,1-.11.115H325.5a.1.1,0,0,1-.115-.115V430.42h-.777a.1.1,0,0,1-.113-.112v-.244a.1.1,0,0,1,.113-.112h.777v-.333a3.619,3.619,0,0,1,.164-1.269.973.973,0,0,1,1-.58A1.281,1.281,0,0,1,326.954,427.825Z" transform="translate(-246.04 -427.77)"/>
        <path id="패스_9268" data-name="패스 9268" class="cls-8" d="M328.766,427.825c.074.022.1.079.1.168l-.017.238c-.008.063-.057.08-.112.055a.9.9,0,0,0-.329-.055.589.589,0,0,0-.612.477,3.731,3.731,0,0,0-.055.857v.389h.881a.1.1,0,0,1,.115.112v.244a.1.1,0,0,1-.115.112h-.881v3.794a.1.1,0,0,1-.115.115h-.313a.1.1,0,0,1-.112-.115V430.42h-.779a.1.1,0,0,1-.113-.112v-.244a.1.1,0,0,1,.113-.112h.779v-.333a3.673,3.673,0,0,1,.16-1.269.978.978,0,0,1,1-.58A1.262,1.262,0,0,1,328.766,427.825Z" transform="translate(-245.002 -427.77)"/>
        <path id="패스_9269" data-name="패스 9269" class="cls-8" d="M328.291,428.329a.388.388,0,0,1,.385-.395.4.4,0,0,1,.395.395.391.391,0,0,1-.395.39A.383.383,0,0,1,328.291,428.329Zm.571,5.906h-.352a.1.1,0,0,1-.115-.115v-4.149a.1.1,0,0,1,.115-.112h.352a.1.1,0,0,1,.112.112v4.149A.1.1,0,0,1,328.862,434.235Z" transform="translate(-243.866 -427.676)"/>
        <path id="패스_9270" data-name="패스 9270" class="cls-8" d="M332.373,433.6a5.322,5.322,0,0,1-1.005.072,2.1,2.1,0,0,1-2.1-2.3,2.124,2.124,0,0,1,2.166-2.282,3.932,3.932,0,0,1,.95.1.134.134,0,0,1,.1.154l-.022.258c-.009.063-.049.09-.12.074a2.536,2.536,0,0,0-.83-.123,1.607,1.607,0,0,0-1.653,1.821,1.676,1.676,0,0,0,1.59,1.836,2.782,2.782,0,0,0,.884-.115c.08-.024.12,0,.129.058l.022.3A.126.126,0,0,1,332.373,433.6Z" transform="translate(-243.307 -427.01)"/>
        <path id="패스_9271" data-name="패스 9271" class="cls-8" d="M332.2,431.544a1.44,1.44,0,0,0,1.447,1.675,2.2,2.2,0,0,0,1.125-.261c.072-.031.1-.016.1.06v.362a.124.124,0,0,1-.086.113,3.156,3.156,0,0,1-1.181.211c-1.316,0-2-.769-2-2.32a2.58,2.58,0,0,1,.506-1.661,1.664,1.664,0,0,1,1.34-.637,1.543,1.543,0,0,1,1.342.645,2.6,2.6,0,0,1,.409,1.538c0,.283.008.275-.288.275Zm2.41-.464a1.847,1.847,0,0,0-.264-1.057.956.956,0,0,0-.859-.477,1.115,1.115,0,0,0-.939.483,2.146,2.146,0,0,0-.348,1.051Z" transform="translate(-241.964 -427.016)"/>
        <path id="패스_9272" data-name="패스 9272" class="cls-8" d="M339.671,431.392a2.718,2.718,0,0,1-.5,1.6,2.066,2.066,0,0,1-3.122,0,2.715,2.715,0,0,1-.491-1.6,2.474,2.474,0,0,1,.491-1.6,1.888,1.888,0,0,1,1.563-.7,1.847,1.847,0,0,1,1.559.7A2.547,2.547,0,0,1,339.671,431.392Zm-.595,0a2.344,2.344,0,0,0-.378-1.305,1.324,1.324,0,0,0-1.085-.513,1.369,1.369,0,0,0-1.084.513,2.24,2.24,0,0,0-.384,1.305,2.169,2.169,0,0,0,.384,1.3,1.334,1.334,0,0,0,1.084.527,1.374,1.374,0,0,0,1.085-.527A2.268,2.268,0,0,0,339.076,431.392Z" transform="translate(-239.702 -427.016)"/>
        <path id="패스_9273" data-name="패스 9273" class="cls-8" d="M340.872,427.825a.139.139,0,0,1,.094.168l-.016.238c-.008.063-.055.08-.112.055a.906.906,0,0,0-.33-.055.59.59,0,0,0-.61.477,3.7,3.7,0,0,0-.057.857v.389h.886a.1.1,0,0,1,.112.112v.244a.1.1,0,0,1-.112.112h-.886v3.794a.1.1,0,0,1-.112.115h-.311a.1.1,0,0,1-.115-.115V430.42h-.779a.1.1,0,0,1-.112-.112v-.244a.1.1,0,0,1,.112-.112h.779v-.333a3.664,3.664,0,0,1,.162-1.269.976.976,0,0,1,1-.58A1.29,1.29,0,0,1,340.872,427.825Z" transform="translate(-238.067 -427.77)"/>
        <path id="패스_9274" data-name="패스 9274" class="cls-8" d="M342.035,434.132c-.225,0-.225,0-.225-.226v-5.573c0-.2.008-.209.209-.209h2.787a.1.1,0,0,1,.112.112v.285a.1.1,0,0,1-.112.112H342.4v2.136h2.289a.1.1,0,0,1,.11.115v.291a.1.1,0,0,1-.11.113H342.4v2.329h2.5a.1.1,0,0,1,.115.113v.288a.1.1,0,0,1-.115.115Z" transform="translate(-236.121 -427.567)"/>
        <path id="패스_9275" data-name="패스 9275" class="cls-8" d="M348.15,434.168a.1.1,0,0,1-.112.115h-.316a.1.1,0,0,1-.11-.115v-.607a1.468,1.468,0,0,1-1.4.827,1.568,1.568,0,0,1-1.342-.662,2.727,2.727,0,0,1-.442-1.634q0-2.272,1.784-2.274a1.557,1.557,0,0,1,1.4.7v-2.55a.1.1,0,0,1,.11-.112h.316a.1.1,0,0,1,.112.112Zm-3.124-2.076a2.622,2.622,0,0,0,.249,1.238,1.132,1.132,0,0,0,1.035.6c.868,0,1.3-1,1.3-1.836,0-1.037-.451-1.81-1.3-1.81a1.12,1.12,0,0,0-1.035.588A2.6,2.6,0,0,0,345.026,432.092Z" transform="translate(-234.62 -427.724)"/>
        <path id="패스_9276" data-name="패스 9276" class="cls-8" d="M351.005,433.419a.1.1,0,0,1-.112.115H350.6a.1.1,0,0,1-.113-.115v-.672a1.393,1.393,0,0,1-1.438.915c-1.005,0-1.5-.566-1.5-1.692v-2.7a.1.1,0,0,1,.113-.112h.321a.1.1,0,0,1,.112.112v2.554c0,.915.346,1.376,1.044,1.376.812,0,1.326-.769,1.3-1.683V429.27a.1.1,0,0,1,.112-.112h.321a.1.1,0,0,1,.112.112v3.251C350.988,432.876,351,433.137,351.005,433.419Z" transform="translate(-232.832 -426.975)"/>
        <path id="패스_9277" data-name="패스 9277" class="cls-8" d="M353.422,433.6a5.305,5.305,0,0,1-1,.072,2.1,2.1,0,0,1-2.1-2.3,2.126,2.126,0,0,1,2.169-2.282,3.9,3.9,0,0,1,.947.1.131.131,0,0,1,.1.154l-.022.258c-.008.063-.049.09-.121.074a2.511,2.511,0,0,0-.827-.123,1.608,1.608,0,0,0-1.655,1.821,1.677,1.677,0,0,0,1.59,1.836,2.788,2.788,0,0,0,.884-.115c.08-.024.121,0,.129.058l.022.3A.124.124,0,0,1,353.422,433.6Z" transform="translate(-231.249 -427.01)"/>
        <path id="패스_9278" data-name="패스 9278" class="cls-8" d="M353.17,429.877c-.055.031-.113.019-.113-.038v-.311a.192.192,0,0,1,.113-.167,2.628,2.628,0,0,1,1.294-.275,1.346,1.346,0,0,1,1.541,1.541v2.031a7.358,7.358,0,0,0,.033.8.1.1,0,0,1-.113.115h-.289a.1.1,0,0,1-.112-.115v-.621a1.508,1.508,0,0,1-1.43.865,1.436,1.436,0,0,1-1.189-.477,1.454,1.454,0,0,1,.675-2.185,5.616,5.616,0,0,1,1.774-.209h.1v-.242c0-.683-.28-1.044-.994-1.044A2.418,2.418,0,0,0,353.17,429.877Zm2.289,1.416h-.153a3.532,3.532,0,0,0-1.379.178.93.93,0,0,0-.676.93.769.769,0,0,0,.266.648,1,1,0,0,0,.643.193c.747,0,1.3-.6,1.3-1.672Z" transform="translate(-229.912 -427.016)"/>
        <path id="패스_9279" data-name="패스 9279" class="cls-8" d="M357.728,433.982a1.929,1.929,0,0,1-.667.123.859.859,0,0,1-.859-.428,2.7,2.7,0,0,1-.138-1.029v-2.581h-.753a.1.1,0,0,1-.113-.112v-.244a.1.1,0,0,1,.113-.112h.753v-1.092c0-.083.033-.123.1-.123h.338c.072,0,.105.039.105.123V429.6h.89a.1.1,0,0,1,.113.112v.244a.1.1,0,0,1-.113.112h-.89v2.856c0,.477.193.719.577.719a1.585,1.585,0,0,0,.506-.1c.057-.027.112,0,.112.063l.017.211A.147.147,0,0,1,357.728,433.982Z" transform="translate(-228.452 -427.417)"/>
        <path id="패스_9280" data-name="패스 9280" class="cls-8" d="M357.174,428.329a.387.387,0,0,1,.384-.395.4.4,0,0,1,.395.395.39.39,0,0,1-.395.39A.382.382,0,0,1,357.174,428.329Zm.568,5.906h-.352a.1.1,0,0,1-.112-.115v-4.149a.1.1,0,0,1,.112-.112h.352a.1.1,0,0,1,.113.112v4.149A.1.1,0,0,1,357.742,434.235Z" transform="translate(-227.319 -427.676)"/>
        <path id="패스_9281" data-name="패스 9281" class="cls-8" d="M362.251,431.392a2.719,2.719,0,0,1-.5,1.6,2.066,2.066,0,0,1-3.122,0,2.715,2.715,0,0,1-.491-1.6,2.474,2.474,0,0,1,.491-1.6,1.888,1.888,0,0,1,1.564-.7,1.848,1.848,0,0,1,1.559.7A2.548,2.548,0,0,1,362.251,431.392Zm-.595,0a2.344,2.344,0,0,0-.378-1.305,1.322,1.322,0,0,0-1.085-.513,1.369,1.369,0,0,0-1.084.513,2.239,2.239,0,0,0-.384,1.305,2.169,2.169,0,0,0,.384,1.3,1.334,1.334,0,0,0,1.084.527,1.374,1.374,0,0,0,1.085-.527A2.268,2.268,0,0,0,361.656,431.392Z" transform="translate(-226.767 -427.016)"/>
        <path id="패스_9282" data-name="패스 9282" class="cls-8" d="M364.767,433.46a.1.1,0,0,1-.112.115h-.322a.1.1,0,0,1-.113-.115v-2.548c0-.994-.368-1.365-1.01-1.365a1.23,1.23,0,0,0-1.334,1.381v2.532a.1.1,0,0,1-.112.115h-.321a.1.1,0,0,1-.115-.115v-3.236c0-.459,0-.678-.022-.914a.1.1,0,0,1,.112-.112h.288a.1.1,0,0,1,.115.112v.447a1.446,1.446,0,0,1,1.412-.672c1.021,0,1.534.621,1.534,1.7Z" transform="translate(-224.952 -427.016)"/>
      </g>
    </g>
  </g>
</svg>
