<svg xmlns="http://www.w3.org/2000/svg" width="234.962" height="36.848" viewBox="0 0 234.962 36.848">
  <defs>
    <style>
      .cls-1 {
        fill: #ffac24;
      }

      .cls-2 {
        fill: #ec660c;
      }

      .cls-3 {
        fill: #de2217;
      }

      .cls-4 {
        fill: #003b83;
      }
    </style>
  </defs>
  <g id="그룹_6727" data-name="그룹 6727" transform="translate(-391.087 -394.247)">
    <g id="그룹_6716" data-name="그룹 6716" transform="translate(391.087 394.247)">
      <path id="패스_7943" data-name="패스 7943" class="cls-1" d="M438.477,394.247h-47.39v13.39h16.894a87.372,87.372,0,0,1,61,0H485.87v-13.39Z" transform="translate(-391.087 -394.247)"/>
      <path id="패스_7944" data-name="패스 7944" class="cls-2" d="M485.721,426.96a98.077,98.077,0,0,0-16.746-8.376h-61a98.113,98.113,0,0,0-16.747,8.376l-.146.092v14.989l.485-.333c15.313-10.5,30.871-15.612,46.9-15.36,16.034-.253,31.592,4.857,46.909,15.36l.483.333V427.052Z" transform="translate(-391.087 -405.194)"/>
      <path id="패스_7945" data-name="패스 7945" class="cls-3" d="M452.287,408.59a81.437,81.437,0,0,0-30.5,5.5h61A81.452,81.452,0,0,0,452.287,408.59Z" transform="translate(-404.897 -400.695)"/>
    </g>
    <g id="그룹_6725" data-name="그룹 6725" transform="translate(493.033 394.286)">
      <g id="그룹_6717" data-name="그룹 6717" transform="translate(19.86 1.006)">
        <path id="패스_7946" data-name="패스 7946" class="cls-4" d="M621.308,403.909h6.8v-1.965H615.435v-.933H628.1v-3.588a1.107,1.107,0,0,0-1.234-1.263l-.005-.015H613.073v2.037h12.669v.9H613.073V402.4a1.623,1.623,0,0,0,.36,1.176,1.394,1.394,0,0,0,1.043.335h4.54v1.146h-6.546v2.038h16.192v-2.038h-7.354Z" transform="translate(-612.469 -396.146)"/>
        <path id="패스_7947" data-name="패스 7947" class="cls-4" d="M615.929,418.259h-2.363v3.19a1.632,1.632,0,0,0,.362,1.186,1.382,1.382,0,0,0,1.046.344H628.6V420.9H615.929Z" transform="translate(-612.962 -406.092)"/>
      </g>
      <path id="패스_7948" data-name="패스 7948" class="cls-4" d="M591.811,395.02h-1.126v3.9h-3.793a4.535,4.535,0,0,0-1.866-3,5.758,5.758,0,0,0-7.006.221,4.432,4.432,0,0,0-1.646,3.55,4.354,4.354,0,0,0,1.646,3.507,5.759,5.759,0,0,0,6.807.359A4.456,4.456,0,0,0,586.749,401h3.935v9.372h-10.3v-3.829h-2.362v4.392a1.585,1.585,0,0,0,.364,1.167,1.354,1.354,0,0,0,1.03.344h13.634V396.282A1.109,1.109,0,0,0,591.811,395.02Zm-8.189,6.542a2.828,2.828,0,0,1-1.924.758,3.007,3.007,0,0,1-2.025-.758,2.374,2.374,0,0,1-.9-1.867,2.429,2.429,0,0,1,.9-1.91,3.016,3.016,0,0,1,2.025-.758,2.837,2.837,0,0,1,1.924.758,2.448,2.448,0,0,1,.9,1.91A2.367,2.367,0,0,1,583.622,401.562Z" transform="translate(-576.373 -394.554)"/>
      <g id="그룹_6718" data-name="그룹 6718" transform="translate(58.203 0.466)">
        <path id="패스_7949" data-name="패스 7949" class="cls-4" d="M704.655,395.179l-.008-.014h-.976v5.98h-1.325v-4.7a1.109,1.109,0,0,0-1.239-1.26v-.014h-.945v17.426h2.185v-9.376h1.325v9.376h2.218V396.44A1.107,1.107,0,0,0,704.655,395.179Z" transform="translate(-690.255 -395.165)"/>
        <path id="패스_7950" data-name="패스 7950" class="cls-4" d="M688.592,405.276c-.753-1.438-1.043-3.822-1.043-7.057h3.01v-2.073h-8.4v2.073H685.2q-.019,4.853-1.061,7.057c-.512,1.083-1.064,1.719-1.987,1.9v2.367a3.922,3.922,0,0,0,2.007-.824,6.492,6.492,0,0,0,2.222-3.026,5.61,5.61,0,0,0,2.436,3.06,8.647,8.647,0,0,0,4.555.927v-2.262C691.642,407.6,689.665,407.332,688.592,405.276Z" transform="translate(-682.156 -395.606)"/>
      </g>
      <g id="그룹_6719" data-name="그룹 6719" transform="translate(77.964 0.25)">
        <path id="패스_7951" data-name="패스 7951" class="cls-4" d="M732.617,395.165h-1.273v10.768H718.072V408h4.841v4.587h2.326V408h6.106v4.587h2.362V396.415A1.084,1.084,0,0,0,732.617,395.165Z" transform="translate(-718.072 -394.949)"/>
        <path id="패스_7952" data-name="패스 7952" class="cls-4" d="M721.565,402.812a5.448,5.448,0,0,0,6.974,0,4.488,4.488,0,0,0,0-6.8,5.519,5.519,0,0,0-6.974,0,4.484,4.484,0,0,0,0,6.8Zm1.621-5.19a2.736,2.736,0,0,1,1.874-.707,2.7,2.7,0,0,1,1.838.707,2.341,2.341,0,0,1,0,3.587,2.677,2.677,0,0,1-1.838.719,2.716,2.716,0,0,1-1.874-.719,2.369,2.369,0,0,1,0-3.587Z" transform="translate(-718.942 -394.773)"/>
      </g>
      <g id="그룹_6721" data-name="그룹 6721" transform="translate(38.585 1.006)">
        <path id="패스_7953" data-name="패스 7953" class="cls-4" d="M651.518,417.082c0,2.415,2.4,4.381,5.366,4.381s5.368-1.966,5.368-4.381-2.407-4.379-5.368-4.379S651.518,414.666,651.518,417.082Zm2.459,0c0-1.233,1.3-2.237,2.907-2.237s2.908,1,2.908,2.237-1.305,2.238-2.908,2.238S653.977,418.312,653.977,417.082Z" transform="translate(-648.757 -403.593)"/>
        <g id="그룹_6720" data-name="그룹 6720">
          <path id="패스_7954" data-name="패스 7954" class="cls-4" d="M655.149,399.939a5.962,5.962,0,0,0,3.38,1.3,37.515,37.515,0,0,0,4.122.261v-1.986a29.293,29.293,0,0,1-4.2-.341q-1.737-.338-1.772-1.059h5.972v-1.969h-15v1.969h5.995c-.062.506-.676.872-1.834,1.1a26.219,26.219,0,0,1-4.16.322V401.5a37.508,37.508,0,0,0,4.065-.261A6.122,6.122,0,0,0,655.149,399.939Z" transform="translate(-647.016 -396.146)"/>
          <path id="패스_7955" data-name="패스 7955" class="cls-4" d="M646.5,407.436v2.043h6.9v1.762h2.431v-1.762h6.92v-2.043Z" transform="translate(-646.5 -401.224)"/>
        </g>
      </g>
      <g id="그룹_6722" data-name="그룹 6722" transform="translate(97.882 0.25)">
        <path id="패스_7956" data-name="패스 7956" class="cls-4" d="M756.62,407.721h-2.348v2.039h13.967v-2.039H756.62Z" transform="translate(-754.271 -400.597)"/>
        <path id="패스_7957" data-name="패스 7957" class="cls-4" d="M769.167,395.179v-.014h-1.125v10.341h-3.988v2.041h3.988v2.97H757.669v-4.37h-2.292v4.915a1.632,1.632,0,0,0,.36,1.186,1.393,1.393,0,0,0,1.033.344H770.4V396.44A1.107,1.107,0,0,0,769.167,395.179Z" transform="translate(-754.769 -394.949)"/>
        <path id="패스_7958" data-name="패스 7958" class="cls-4" d="M756.209,399.1c0,2.383,2.237,4.321,4.986,4.321s4.98-1.937,4.98-4.321-2.234-4.322-4.98-4.322S756.209,396.71,756.209,399.1Zm2.284,0a2.725,2.725,0,1,1,2.7,2.343A2.547,2.547,0,0,1,758.493,399.1Z" transform="translate(-755.143 -394.773)"/>
        <path id="패스_7959" data-name="패스 7959" class="cls-4" d="M763.074,409.265v4.673H765.4v-4.673" transform="translate(-758.231 -401.291)"/>
      </g>
      <g id="그룹_6724" data-name="그룹 6724" transform="translate(117.381)">
        <g id="그룹_6723" data-name="그룹 6723" transform="translate(0 0.466)">
          <path id="패스_7960" data-name="패스 7960" class="cls-4" d="M791.644,403.216c0,2.385,2.238,4.325,4.983,4.325s4.985-1.939,4.985-4.325-2.237-4.322-4.985-4.322S791.644,400.835,791.644,403.216Zm2.283,0a2.726,2.726,0,1,1,2.7,2.345A2.544,2.544,0,0,1,793.927,403.216Z" transform="translate(-790.58 -396.842)"/>
          <path id="패스_7961" data-name="패스 7961" class="cls-4" d="M804.106,395.167v0h-1.122V408.13H797.16v-3.158h-2.544v3.158h-4.906v2.076h13.273v2.385h2.362V396.43A1.112,1.112,0,0,0,804.106,395.167Z" transform="translate(-789.711 -395.165)"/>
        </g>
        <path id="패스_7962" data-name="패스 7962" class="cls-4" d="M797.687,395.942v-.363a1.11,1.11,0,0,0-1.239-1.262h-1.3v1.624h-4.262v2.04h11.054v-2.04Z" transform="translate(-790.237 -394.318)"/>
      </g>
    </g>
    <g id="그룹_6726" data-name="그룹 6726" transform="translate(494.611 416.859)">
      <path id="패스_7963" data-name="패스 7963" class="cls-4" d="M579.241,442.176v-6.615h2.149a7.78,7.78,0,0,1,1.593.1,1.738,1.738,0,0,1,.955.648,2.054,2.054,0,0,1,.385,1.29,2.151,2.151,0,0,1-.222,1.026,1.823,1.823,0,0,1-.565.653,1.937,1.937,0,0,1-.7.314,7.7,7.7,0,0,1-1.393.095h-.875v2.49Zm1.33-5.49v1.875h.736a3.51,3.51,0,0,0,1.062-.1.866.866,0,0,0,.572-.839.847.847,0,0,0-.214-.594.923.923,0,0,0-.54-.293,6.467,6.467,0,0,0-.967-.045Z" transform="translate(-579.241 -435.442)"/>
      <path id="패스_7964" data-name="패스 7964" class="cls-4" d="M591.59,443.569h-1.262v-4.792H591.5v.682a2.118,2.118,0,0,1,.544-.642.966.966,0,0,1,.549-.16,1.605,1.605,0,0,1,.835.241l-.4,1.109a1.114,1.114,0,0,0-.594-.207.7.7,0,0,0-.45.147,1,1,0,0,0-.29.531,7.582,7.582,0,0,0-.106,1.609Z" transform="translate(-584.228 -436.835)"/>
      <path id="패스_7965" data-name="패스 7965" class="cls-4" d="M599.4,442.052l1.262.2a2.088,2.088,0,0,1-.765,1.066,2.227,2.227,0,0,1-1.307.366,2.121,2.121,0,0,1-1.839-.82,2.777,2.777,0,0,1-.471-1.659,2.665,2.665,0,0,1,.621-1.873,2.041,2.041,0,0,1,1.572-.678,2.124,2.124,0,0,1,1.684.705,3.12,3.12,0,0,1,.59,2.16h-3.171a1.294,1.294,0,0,0,.3.879.943.943,0,0,0,.722.315.78.78,0,0,0,.5-.158A.973.973,0,0,0,599.4,442.052Zm.085-1.313a1.2,1.2,0,0,0-.283-.825.917.917,0,0,0-1.339.015,1.145,1.145,0,0,0-.265.81Z" transform="translate(-586.905 -436.835)"/>
      <path id="패스_7966" data-name="패스 7966" class="cls-4" d="M605.5,442.239l1.279-.187a.926.926,0,0,0,.326.559,1.092,1.092,0,0,0,.687.191,1.206,1.206,0,0,0,.731-.185.42.42,0,0,0,.166-.346.352.352,0,0,0-.09-.247,1.01,1.01,0,0,0-.423-.169,6.824,6.824,0,0,1-1.938-.629,1.245,1.245,0,0,1-.567-1.086,1.342,1.342,0,0,1,.491-1.054,2.273,2.273,0,0,1,1.521-.428,2.687,2.687,0,0,1,1.458.315,1.608,1.608,0,0,1,.656.93l-1.193.221a.742.742,0,0,0-.29-.43,1.049,1.049,0,0,0-.609-.15,1.336,1.336,0,0,0-.714.144.311.311,0,0,0-.144.264.288.288,0,0,0,.127.235,4.7,4.7,0,0,0,1.183.365,3.527,3.527,0,0,1,1.414.572,1.18,1.18,0,0,1,.4.947,1.462,1.462,0,0,1-.549,1.139,2.418,2.418,0,0,1-1.626.477,2.7,2.7,0,0,1-1.548-.39A1.8,1.8,0,0,1,605.5,442.239Z" transform="translate(-591.054 -436.835)"/>
      <path id="패스_7967" data-name="패스 7967" class="cls-4" d="M614.852,442.239l1.279-.187a.924.924,0,0,0,.326.559,1.088,1.088,0,0,0,.687.191,1.2,1.2,0,0,0,.731-.185.418.418,0,0,0,.165-.346.354.354,0,0,0-.089-.247,1.013,1.013,0,0,0-.423-.169,6.823,6.823,0,0,1-1.939-.629,1.247,1.247,0,0,1-.566-1.086,1.343,1.343,0,0,1,.49-1.054,2.272,2.272,0,0,1,1.521-.428,2.69,2.69,0,0,1,1.458.315,1.6,1.6,0,0,1,.656.93l-1.193.221a.74.74,0,0,0-.29-.43,1.048,1.048,0,0,0-.609-.15,1.338,1.338,0,0,0-.715.144.311.311,0,0,0-.143.264.289.289,0,0,0,.127.235,4.71,4.71,0,0,0,1.183.365,3.528,3.528,0,0,1,1.414.572,1.182,1.182,0,0,1,.4.947,1.461,1.461,0,0,1-.549,1.139,2.418,2.418,0,0,1-1.626.477,2.7,2.7,0,0,1-1.547-.39A1.8,1.8,0,0,1,614.852,442.239Z" transform="translate(-595.258 -436.835)"/>
      <path id="패스_7968" data-name="패스 7968" class="cls-4" d="M634.476,442.176h-1.431l-.573-1.5h-2.658l-.545,1.5h-1.426l2.566-6.615h1.407Zm-2.435-2.626-.933-2.437-.885,2.437Z" transform="translate(-601.102 -435.442)"/>
      <path id="패스_7969" data-name="패스 7969" class="cls-4" d="M642.36,443.569H641.1v-4.792h1.176v.682a2.11,2.11,0,0,1,.543-.642.969.969,0,0,1,.549-.16,1.6,1.6,0,0,1,.833.241l-.4,1.109a1.119,1.119,0,0,0-.6-.207.7.7,0,0,0-.449.147,1,1,0,0,0-.291.531,7.64,7.64,0,0,0-.105,1.609Z" transform="translate(-607.064 -436.835)"/>
      <path id="패스_7970" data-name="패스 7970" class="cls-4" d="M647.637,442.176v-6.615H648.9v2.372a1.807,1.807,0,0,1,1.4-.668,1.876,1.876,0,0,1,1.454.637,2.638,2.638,0,0,1,.576,1.829,2.781,2.781,0,0,1-.586,1.9,1.828,1.828,0,0,1-1.423.666,1.742,1.742,0,0,1-.813-.211,2.005,2.005,0,0,1-.691-.612v.7Zm1.245-2.5a2.04,2.04,0,0,0,.238,1.107,1.018,1.018,0,0,0,.888.508.909.909,0,0,0,.724-.362,1.754,1.754,0,0,0,.3-1.136,1.866,1.866,0,0,0-.3-1.191.957.957,0,0,0-.772-.364.971.971,0,0,0-.768.355A1.625,1.625,0,0,0,648.882,439.674Z" transform="translate(-610.005 -435.442)"/>
      <path id="패스_7971" data-name="패스 7971" class="cls-4" d="M657.969,436.737v-1.176h1.262v1.176Zm0,5.439v-4.792h1.262v4.792Z" transform="translate(-614.652 -435.442)"/>
      <path id="패스_7972" data-name="패스 7972" class="cls-4" d="M664.449,437.482v1.007h-.869v1.938a4.9,4.9,0,0,0,.025.684.276.276,0,0,0,.113.161.35.35,0,0,0,.214.063,1.615,1.615,0,0,0,.509-.122l.095.989a2.46,2.46,0,0,1-.991.19,1.543,1.543,0,0,1-.611-.116.9.9,0,0,1-.4-.3,1.177,1.177,0,0,1-.175-.5,6.053,6.053,0,0,1-.041-.9v-2.1h-.581v-1.007h.581v-.954l1.262-.75v1.7Z" transform="translate(-616.347 -435.539)"/>
      <path id="패스_7973" data-name="패스 7973" class="cls-4" d="M669.436,443.569h-1.262v-4.792h1.175v.682a2.126,2.126,0,0,1,.544-.642.967.967,0,0,1,.549-.16,1.6,1.6,0,0,1,.834.241l-.4,1.109a1.113,1.113,0,0,0-.594-.207.7.7,0,0,0-.45.147,1,1,0,0,0-.291.531,7.554,7.554,0,0,0-.105,1.609Z" transform="translate(-619.242 -436.835)"/>
      <path id="패스_7974" data-name="패스 7974" class="cls-4" d="M675.466,440.244l-1.143-.2a1.821,1.821,0,0,1,.667-1.044,2.427,2.427,0,0,1,1.408-.338,3.021,3.021,0,0,1,1.263.2,1.263,1.263,0,0,1,.584.511,2.632,2.632,0,0,1,.169,1.137l-.016,1.484a5.152,5.152,0,0,0,.06.933,2.763,2.763,0,0,0,.229.645h-1.262c-.033-.083-.073-.2-.122-.366-.021-.073-.036-.122-.044-.145a2.294,2.294,0,0,1-.694.473,1.994,1.994,0,0,1-.789.158,1.628,1.628,0,0,1-1.165-.4,1.337,1.337,0,0,1-.426-1.016,1.376,1.376,0,0,1,.194-.726,1.268,1.268,0,0,1,.546-.487,4.264,4.264,0,0,1,1.01-.3,6.853,6.853,0,0,0,1.234-.312v-.128a.675.675,0,0,0-.181-.531,1.077,1.077,0,0,0-.686-.159.905.905,0,0,0-.531.135A.949.949,0,0,0,675.466,440.244Zm1.7,1.023a7.905,7.905,0,0,1-.777.2,2.334,2.334,0,0,0-.694.223.535.535,0,0,0-.25.452.631.631,0,0,0,.2.465.7.7,0,0,0,.508.2,1.1,1.1,0,0,0,.66-.229.791.791,0,0,0,.3-.424,2.6,2.6,0,0,0,.05-.626Z" transform="translate(-621.947 -436.835)"/>
      <path id="패스_7975" data-name="패스 7975" class="cls-4" d="M685.937,437.482v1.007h-.869v1.938a4.731,4.731,0,0,0,.025.684.274.274,0,0,0,.113.161.355.355,0,0,0,.214.063,1.617,1.617,0,0,0,.51-.122l.095.989a2.465,2.465,0,0,1-.991.19,1.543,1.543,0,0,1-.612-.116.9.9,0,0,1-.4-.3,1.186,1.186,0,0,1-.176-.5,6.244,6.244,0,0,1-.04-.9v-2.1h-.579v-1.007h.579v-.954l1.262-.75v1.7Z" transform="translate(-626.013 -435.539)"/>
      <path id="패스_7976" data-name="패스 7976" class="cls-4" d="M689.721,436.737v-1.176h1.263v1.176Zm0,5.439v-4.792h1.263v4.792Z" transform="translate(-628.934 -435.442)"/>
      <path id="패스_7977" data-name="패스 7977" class="cls-4" d="M693.865,441.106a2.611,2.611,0,0,1,.311-1.228,2.138,2.138,0,0,1,.882-.907,2.62,2.62,0,0,1,1.275-.313,2.392,2.392,0,0,1,1.782.709,2.671,2.671,0,0,1-.008,3.6,2.365,2.365,0,0,1-1.766.718,2.783,2.783,0,0,1-1.256-.3,2.043,2.043,0,0,1-.909-.877A2.931,2.931,0,0,1,693.865,441.106Zm1.3.068a1.586,1.586,0,0,0,.341,1.095,1.115,1.115,0,0,0,1.675,0,1.618,1.618,0,0,0,.337-1.1,1.585,1.585,0,0,0-.337-1.086,1.113,1.113,0,0,0-1.675,0A1.585,1.585,0,0,0,695.16,441.174Z" transform="translate(-630.798 -436.835)"/>
      <path id="패스_7978" data-name="패스 7978" class="cls-4" d="M709.023,443.569h-1.262v-2.451a3.733,3.733,0,0,0-.083-1.006.7.7,0,0,0-.265-.355.756.756,0,0,0-.441-.127,1.025,1.025,0,0,0-.6.18.915.915,0,0,0-.36.479,4.163,4.163,0,0,0-.1,1.1v2.175h-1.262v-4.792h1.177v.7a1.945,1.945,0,0,1,2.345-.67,1.281,1.281,0,0,1,.525.386,1.4,1.4,0,0,1,.247.533,3.927,3.927,0,0,1,.071.855Z" transform="translate(-635.652 -436.835)"/>
      <path id="패스_7979" data-name="패스 7979" class="cls-4" d="M723.69,439.64l1.3.41a2.93,2.93,0,0,1-.991,1.619,2.813,2.813,0,0,1-1.758.529,2.843,2.843,0,0,1-2.166-.9,3.457,3.457,0,0,1-.848-2.465,3.628,3.628,0,0,1,.853-2.571,2.923,2.923,0,0,1,2.244-.916,2.755,2.755,0,0,1,1.971.714,2.589,2.589,0,0,1,.677,1.213l-1.33.324a1.361,1.361,0,0,0-1.388-1.108,1.5,1.5,0,0,0-1.19.529,2.612,2.612,0,0,0-.457,1.715,2.786,2.786,0,0,0,.452,1.792,1.46,1.46,0,0,0,1.17.534,1.324,1.324,0,0,0,.914-.342A1.978,1.978,0,0,0,723.69,439.64Z" transform="translate(-642.203 -435.344)"/>
      <path id="패스_7980" data-name="패스 7980" class="cls-4" d="M731.207,441.106a2.6,2.6,0,0,1,.312-1.228,2.131,2.131,0,0,1,.881-.907,2.618,2.618,0,0,1,1.274-.313,2.4,2.4,0,0,1,1.783.709,2.675,2.675,0,0,1-.008,3.6,2.369,2.369,0,0,1-1.766.718,2.775,2.775,0,0,1-1.256-.3,2.039,2.039,0,0,1-.909-.877A2.919,2.919,0,0,1,731.207,441.106Zm1.3.068a1.592,1.592,0,0,0,.34,1.095,1.115,1.115,0,0,0,1.675,0,1.618,1.618,0,0,0,.337-1.1,1.585,1.585,0,0,0-.337-1.086,1.113,1.113,0,0,0-1.675,0A1.59,1.59,0,0,0,732.5,441.174Z" transform="translate(-647.594 -436.835)"/>
      <path id="패스_7981" data-name="패스 7981" class="cls-4" d="M741.846,438.777h1.176v.655a1.863,1.863,0,0,1,1.487-.774,1.59,1.59,0,0,1,.8.19,1.461,1.461,0,0,1,.553.574,2.2,2.2,0,0,1,.68-.574,1.657,1.657,0,0,1,.78-.19,1.73,1.73,0,0,1,.892.215,1.319,1.319,0,0,1,.546.631,2.753,2.753,0,0,1,.131,1v3.07h-1.261v-2.744a2.053,2.053,0,0,0-.131-.923.605.605,0,0,0-.544-.271.861.861,0,0,0-.5.162.9.9,0,0,0-.339.477,3.41,3.41,0,0,0-.1.992v2.307h-1.262v-2.632a3.724,3.724,0,0,0-.068-.905.587.587,0,0,0-.211-.3.673.673,0,0,0-.388-.1.929.929,0,0,0-.53.158.863.863,0,0,0-.338.457,3.4,3.4,0,0,0-.1.991v2.333h-1.262Z" transform="translate(-652.379 -436.835)"/>
      <path id="패스_7982" data-name="패스 7982" class="cls-4" d="M756.789,438.777h1.177v.655a1.862,1.862,0,0,1,1.488-.774,1.589,1.589,0,0,1,.8.19,1.459,1.459,0,0,1,.552.574,2.22,2.22,0,0,1,.681-.574,1.664,1.664,0,0,1,.779-.19,1.734,1.734,0,0,1,.893.215,1.317,1.317,0,0,1,.546.631,2.784,2.784,0,0,1,.13,1v3.07H762.57v-2.744a2.056,2.056,0,0,0-.131-.923.6.6,0,0,0-.543-.271.867.867,0,0,0-.5.162.9.9,0,0,0-.338.477,3.414,3.414,0,0,0-.1.992v2.307h-1.262v-2.632a3.6,3.6,0,0,0-.069-.905.576.576,0,0,0-.21-.3.672.672,0,0,0-.388-.1.933.933,0,0,0-.531.158.872.872,0,0,0-.338.457,3.36,3.36,0,0,0-.1.991v2.333h-1.263Z" transform="translate(-659.1 -436.835)"/>
      <path id="패스_7983" data-name="패스 7983" class="cls-4" d="M771.891,436.737v-1.176h1.262v1.176Zm0,5.439v-4.792h1.262v4.792Z" transform="translate(-665.893 -435.442)"/>
      <path id="패스_7984" data-name="패스 7984" class="cls-4" d="M775.785,442.239l1.279-.187a.927.927,0,0,0,.327.559,1.089,1.089,0,0,0,.687.191,1.207,1.207,0,0,0,.732-.185.421.421,0,0,0,.165-.346.351.351,0,0,0-.089-.247,1.013,1.013,0,0,0-.424-.169,6.8,6.8,0,0,1-1.937-.629,1.244,1.244,0,0,1-.567-1.086,1.344,1.344,0,0,1,.49-1.054,2.278,2.278,0,0,1,1.522-.428,2.692,2.692,0,0,1,1.458.315,1.613,1.613,0,0,1,.657.93l-1.194.221a.741.741,0,0,0-.291-.43,1.046,1.046,0,0,0-.608-.15,1.333,1.333,0,0,0-.714.144.309.309,0,0,0-.144.264.287.287,0,0,0,.127.235,4.712,4.712,0,0,0,1.182.365,3.531,3.531,0,0,1,1.415.572,1.182,1.182,0,0,1,.4.947,1.46,1.46,0,0,1-.548,1.139,2.422,2.422,0,0,1-1.627.477,2.7,2.7,0,0,1-1.547-.39A1.8,1.8,0,0,1,775.785,442.239Z" transform="translate(-667.644 -436.835)"/>
      <path id="패스_7985" data-name="패스 7985" class="cls-4" d="M785.135,442.239l1.279-.187a.931.931,0,0,0,.325.559,1.1,1.1,0,0,0,.688.191,1.211,1.211,0,0,0,.732-.185.422.422,0,0,0,.166-.346.357.357,0,0,0-.09-.247,1.019,1.019,0,0,0-.424-.169,6.829,6.829,0,0,1-1.938-.629,1.245,1.245,0,0,1-.566-1.086,1.34,1.34,0,0,1,.49-1.054,2.271,2.271,0,0,1,1.521-.428,2.681,2.681,0,0,1,1.457.315,1.607,1.607,0,0,1,.657.93l-1.193.221a.742.742,0,0,0-.29-.43,1.049,1.049,0,0,0-.608-.15,1.34,1.34,0,0,0-.716.144.31.31,0,0,0-.143.264.289.289,0,0,0,.125.235,4.716,4.716,0,0,0,1.185.365,3.522,3.522,0,0,1,1.413.572,1.181,1.181,0,0,1,.4.947,1.459,1.459,0,0,1-.55,1.139,2.417,2.417,0,0,1-1.625.477,2.7,2.7,0,0,1-1.548-.39A1.792,1.792,0,0,1,785.135,442.239Z" transform="translate(-671.85 -436.835)"/>
      <path id="패스_7986" data-name="패스 7986" class="cls-4" d="M796.518,436.737v-1.176h-1.262v1.176Zm0,5.439v-4.792h-1.262v4.792Z" transform="translate(-676.402 -435.442)"/>
      <path id="패스_7987" data-name="패스 7987" class="cls-4" d="M799.4,441.106a2.614,2.614,0,0,1,.312-1.228,2.139,2.139,0,0,1,.882-.907,2.623,2.623,0,0,1,1.275-.313,2.392,2.392,0,0,1,1.782.709,2.459,2.459,0,0,1,.694,1.793,2.486,2.486,0,0,1-.7,1.811,2.367,2.367,0,0,1-1.766.718,2.777,2.777,0,0,1-1.256-.3,2.046,2.046,0,0,1-.91-.877A2.933,2.933,0,0,1,799.4,441.106Zm1.3.068a1.6,1.6,0,0,0,.339,1.095,1.083,1.083,0,0,0,.84.379,1.071,1.071,0,0,0,.835-.379,1.613,1.613,0,0,0,.338-1.1,1.58,1.58,0,0,0-.338-1.086,1.072,1.072,0,0,0-.835-.38,1.085,1.085,0,0,0-.84.38A1.6,1.6,0,0,0,800.694,441.174Z" transform="translate(-678.265 -436.835)"/>
      <path id="패스_7988" data-name="패스 7988" class="cls-4" d="M814.559,443.569H813.3v-2.451a3.8,3.8,0,0,0-.082-1.006.71.71,0,0,0-.265-.355.758.758,0,0,0-.443-.127,1.029,1.029,0,0,0-.594.18.909.909,0,0,0-.36.479,4.126,4.126,0,0,0-.1,1.1v2.175h-1.262v-4.792h1.176v.7a1.911,1.911,0,0,1,1.579-.823,1.891,1.891,0,0,1,.766.153,1.27,1.27,0,0,1,.525.386,1.409,1.409,0,0,1,.248.533,4.014,4.014,0,0,1,.07.855Z" transform="translate(-683.122 -436.835)"/>
    </g>
  </g>
</svg>
