<svg xmlns="http://www.w3.org/2000/svg" xmlns:xlink="http://www.w3.org/1999/xlink" width="241.003" height="28.392" viewBox="0 0 241.003 28.392">
  <defs>
    <style>
      .cls-1 {
        fill: #73aa17;
      }

      .cls-2 {
        fill: url(#radial-gradient);
      }

      .cls-3 {
        fill: url(#radial-gradient-2);
      }
    </style>
    <radialGradient id="radial-gradient" cx="0.689" cy="0.303" r="0.7" gradientTransform="matrix(0.614, 0, 0, -1, 2.218, -8.278)" gradientUnits="objectBoundingBox">
      <stop offset="0" stop-color="#b5bf11"/>
      <stop offset="0.146" stop-color="#b5bf11"/>
      <stop offset="0.551" stop-color="#0091d4"/>
      <stop offset="1" stop-color="#004084"/>
    </radialGradient>
    <radialGradient id="radial-gradient-2" cx="2.296" cy="-0.12" r="1.241" gradientTransform="matrix(2.064, 0, 0, -1, -18.386, -9.152)" gradientUnits="objectBoundingBox">
      <stop offset="0" stop-color="#0091d4"/>
      <stop offset="0.551" stop-color="#0091d4"/>
      <stop offset="1" stop-color="#004084"/>
    </radialGradient>
  </defs>
  <g id="그룹_6505" data-name="그룹 6505" transform="translate(-252.262 -568.438)">
    <path id="패스_7506" data-name="패스 7506" d="M326.8,594.221h-1.321l-1.465-1.975-.164.226v1.749h-1.127v-5.365h1.127v2.262l1.555-2.262h1.123l-1.893,2.509Z"/>
    <path id="패스_7507" data-name="패스 7507" d="M330.769,592.294a2.058,2.058,0,0,1-.51,1.484,2.084,2.084,0,0,1-2.8-.013,2.04,2.04,0,0,1-.52-1.471v-.261a2.087,2.087,0,0,1,.513-1.461,1.833,1.833,0,0,1,1.4-.551,1.809,1.809,0,0,1,1.4.555,2.072,2.072,0,0,1,.51,1.457Zm-1.092-.1v-.061a1.93,1.93,0,0,0-.238-1.133.725.725,0,0,0-.586-.3.688.688,0,0,0-.585.325,2.02,2.02,0,0,0-.228,1.11v.061a2.024,2.024,0,0,0,.224,1.152.708.708,0,0,0,.589.288.732.732,0,0,0,.58-.282A1.871,1.871,0,0,0,329.677,592.194Z"/>
    <path id="패스_7508" data-name="패스 7508" d="M334.4,591.364h-.981a.593.593,0,0,0-.069-.3.273.273,0,0,0-.268-.124.462.462,0,0,0-.316.111l-.169.233v2.932h-1.061v-4.1h1.023l.018.649a1.382,1.382,0,0,1,.388-.539.876.876,0,0,1,.559-.191.823.823,0,0,1,.717.34A1.392,1.392,0,0,1,334.4,591.364Z"/>
    <path id="패스_7509" data-name="패스 7509" d="M338.341,592.387h-2.582a1.277,1.277,0,0,0,.285.952,1.057,1.057,0,0,0,.75.269,2.429,2.429,0,0,0,.62-.084,3.4,3.4,0,0,0,.657-.252v.685a2.292,2.292,0,0,1-.645.261,3.219,3.219,0,0,1-.815.092,1.924,1.924,0,0,1-1.4-.5,1.951,1.951,0,0,1-.523-1.475v-.291a2.211,2.211,0,0,1,.475-1.434,1.688,1.688,0,0,1,1.389-.585,1.64,1.64,0,0,1,1.328.549,2.176,2.176,0,0,1,.458,1.437Zm-.982-.583a1.5,1.5,0,0,0-.246-.863.683.683,0,0,0-.556-.259.716.716,0,0,0-.538.257,1.346,1.346,0,0,0-.254.865Z"/>
    <path id="패스_7510" data-name="패스 7510" d="M342.251,594.221h-.992l-.02-.535a.966.966,0,0,1-.408.419,1.361,1.361,0,0,1-.674.164,1.276,1.276,0,0,1-.96-.341,1.45,1.45,0,0,1-.325-1.035v-.072a1.316,1.316,0,0,1,.437-1.059,1.732,1.732,0,0,1,1.166-.372,1.389,1.389,0,0,1,.434.071.782.782,0,0,1,.315.168v-.4a.455.455,0,0,0-.177-.359.784.784,0,0,0-.508-.144,2.169,2.169,0,0,0-.624.084,2.025,2.025,0,0,0-.476.211v-.7a3.748,3.748,0,0,1,.585-.2,3.241,3.241,0,0,1,.782-.083,1.467,1.467,0,0,1,1.094.36,1.581,1.581,0,0,1,.351,1.145Zm-1.017-1.368v-.114a.832.832,0,0,0-.164-.562.585.585,0,0,0-.48-.2.625.625,0,0,0-.472.184.827.827,0,0,0-.177.584v.109a.675.675,0,0,0,.185.556.749.749,0,0,0,.471.14.652.652,0,0,0,.44-.17A.659.659,0,0,0,341.234,592.853Z"/>
    <path id="패스_7511" data-name="패스 7511" d="M347.915,594.221h-3.172v-5.365h3.038v.8h-1.916v1.441h1.482v.815h-1.482v1.514h2.05Z"/>
    <path id="패스_7512" data-name="패스 7512" d="M351.984,590.123l-1.653,4.1h-.768l-1.542-4.1H349.1l.968,2.773,1.065-2.773Z"/>
    <path id="패스_7513" data-name="패스 7513" d="M355.579,594.221h-1l-.016-.535a.989.989,0,0,1-.417.419,1.338,1.338,0,0,1-.672.164,1.273,1.273,0,0,1-.958-.341,1.469,1.469,0,0,1-.323-1.035v-.072a1.321,1.321,0,0,1,.434-1.059,1.735,1.735,0,0,1,1.165-.372,1.4,1.4,0,0,1,.439.071.772.772,0,0,1,.313.168v-.4a.45.45,0,0,0-.18-.359.766.766,0,0,0-.5-.144,2.145,2.145,0,0,0-.624.084,1.922,1.922,0,0,0-.474.211v-.7a3.639,3.639,0,0,1,.582-.2,3.276,3.276,0,0,1,.784-.083,1.472,1.472,0,0,1,1.093.36,1.586,1.586,0,0,1,.354,1.145Zm-1.022-1.368v-.114a.838.838,0,0,0-.165-.562.582.582,0,0,0-.479-.2.633.633,0,0,0-.475.184.837.837,0,0,0-.173.584v.109a.659.659,0,0,0,.186.556.742.742,0,0,0,.468.14.646.646,0,0,0,.439-.17A.66.66,0,0,0,354.557,592.853Z"/>
    <rect id="사각형_2281" data-name="사각형 2281" width="1.061" height="5.365" transform="translate(356.484 588.856)"/>
    <path id="패스_7514" data-name="패스 7514" d="M361.8,594.221h-1.014l-.022-.635a1.9,1.9,0,0,1-.51.495,1.342,1.342,0,0,1-.8.229.915.915,0,0,1-.706-.29,1.59,1.59,0,0,1-.255-1.028v-2.869h1.061V592.9a.566.566,0,0,0,.126.434.447.447,0,0,0,.3.109,1.013,1.013,0,0,0,.428-.09.853.853,0,0,0,.329-.289v-2.936H361.8Z"/>
    <path id="패스_7515" data-name="패스 7515" d="M365.869,594.221h-.993l-.02-.535a.951.951,0,0,1-.413.419,1.335,1.335,0,0,1-.674.164,1.263,1.263,0,0,1-.954-.341,1.455,1.455,0,0,1-.325-1.035v-.072a1.315,1.315,0,0,1,.435-1.059,1.721,1.721,0,0,1,1.164-.372,1.4,1.4,0,0,1,.436.071.78.78,0,0,1,.316.168v-.4a.447.447,0,0,0-.18-.359.762.762,0,0,0-.505-.144,2.178,2.178,0,0,0-.626.084,1.981,1.981,0,0,0-.475.211v-.7a3.728,3.728,0,0,1,.586-.2,3.226,3.226,0,0,1,.783-.083,1.478,1.478,0,0,1,1.093.36,1.6,1.6,0,0,1,.352,1.145Zm-1.02-1.368v-.114a.843.843,0,0,0-.161-.562.593.593,0,0,0-.483-.2.631.631,0,0,0-.474.184.832.832,0,0,0-.172.584v.109a.669.669,0,0,0,.183.556.75.75,0,0,0,.47.14.652.652,0,0,0,.44-.17A.662.662,0,0,0,364.849,592.853Z"/>
    <path id="패스_7516" data-name="패스 7516" d="M368.882,590.833h-1v2.1a.847.847,0,0,0,.1.468.426.426,0,0,0,.382.152l.261-.024.232-.054v.634a1.584,1.584,0,0,1-.417.109,3.337,3.337,0,0,1-.487.035,1.033,1.033,0,0,1-.827-.359,1.566,1.566,0,0,1-.3-1.037v-2.031h-.457v-.582l.495-.024.361-1.363h.662v1.356h1Z"/>
    <path id="패스_7517" data-name="패스 7517" d="M370.407,588.792a.537.537,0,0,0-.4-.177.523.523,0,0,0-.392.177.58.58,0,0,0-.164.422.605.605,0,0,0,.164.432.514.514,0,0,0,.392.172.528.528,0,0,0,.4-.172.626.626,0,0,0,.162-.432A.6.6,0,0,0,370.407,588.792Zm.128,1.331h-1.059v4.1h1.059Z"/>
    <path id="패스_7518" data-name="패스 7518" d="M375.11,592.294a2.07,2.07,0,0,1-.507,1.484,2.091,2.091,0,0,1-2.8-.013,2.056,2.056,0,0,1-.518-1.471v-.261a2.1,2.1,0,0,1,.513-1.461,1.832,1.832,0,0,1,1.4-.551,1.813,1.813,0,0,1,1.4.555,2.084,2.084,0,0,1,.507,1.457Zm-1.091-.1v-.061a1.9,1.9,0,0,0-.241-1.133.709.709,0,0,0-.58-.3.694.694,0,0,0-.588.325,2.05,2.05,0,0,0-.226,1.11v.061a2.057,2.057,0,0,0,.22,1.152.719.719,0,0,0,.594.288.733.733,0,0,0,.578-.282A1.88,1.88,0,0,0,374.019,592.194Z"/>
    <path id="패스_7519" data-name="패스 7519" d="M379.189,594.221h-1.06v-2.872a.44.44,0,0,0-.126-.3.483.483,0,0,0-.365-.14.761.761,0,0,0-.4.105,1,1,0,0,0-.3.257v2.947h-1.056v-4.1H376.9l.02.658a1.148,1.148,0,0,1,.444-.515,1.393,1.393,0,0,1,.8-.224.931.931,0,0,1,.75.322,1.5,1.5,0,0,1,.272.985Z"/>
    <rect id="사각형_2282" data-name="사각형 2282" width="1.124" height="5.365" transform="translate(381.908 588.856)"/>
    <path id="패스_7520" data-name="패스 7520" d="M387.448,594.221h-1.056v-2.872a.438.438,0,0,0-.128-.3.475.475,0,0,0-.368-.14.752.752,0,0,0-.4.105.95.95,0,0,0-.3.257v2.947h-1.061v-4.1h1.022l.02.658a1.118,1.118,0,0,1,.444-.515,1.376,1.376,0,0,1,.8-.224.933.933,0,0,1,.75.322,1.5,1.5,0,0,1,.27.985Z"/>
    <path id="패스_7521" data-name="패스 7521" d="M390.774,592.973a1.3,1.3,0,0,1-.382.953,1.749,1.749,0,0,1-1.265.384,3.29,3.29,0,0,1-.666-.066,1.231,1.231,0,0,1-.437-.161v-.731a2.4,2.4,0,0,0,.441.2,1.821,1.821,0,0,0,.582.1,1.015,1.015,0,0,0,.584-.139.41.41,0,0,0,.2-.353.462.462,0,0,0-.135-.342A2.127,2.127,0,0,0,389,592.5a1.23,1.23,0,0,1-.711-.473,1.465,1.465,0,0,1-.189-.79,1.132,1.132,0,0,1,.337-.836,1.439,1.439,0,0,1,1.067-.342,2.412,2.412,0,0,1,.573.056,1.907,1.907,0,0,1,.436.16v.661a1.305,1.305,0,0,0-.422-.152,2.351,2.351,0,0,0-.527-.063.9.9,0,0,0-.469.105.328.328,0,0,0-.184.288.317.317,0,0,0,.14.295,4.032,4.032,0,0,0,.621.239,1.684,1.684,0,0,1,.857.51A1.31,1.31,0,0,1,390.774,592.973Z"/>
    <path id="패스_7522" data-name="패스 7522" d="M393.521,590.833h-1v2.1a.855.855,0,0,0,.1.468.422.422,0,0,0,.38.152,1.476,1.476,0,0,0,.263-.024l.229-.054v.634a1.529,1.529,0,0,1-.414.109,3.33,3.33,0,0,1-.485.035,1.031,1.031,0,0,1-.829-.359,1.572,1.572,0,0,1-.3-1.037v-2.031H391v-.582l.492-.024.36-1.363h.663v1.356h1Z"/>
    <path id="패스_7523" data-name="패스 7523" d="M395.206,589.214a.623.623,0,0,1-.158.432.523.523,0,0,1-.4.172.514.514,0,0,1-.394-.172.614.614,0,0,1-.164-.432.588.588,0,0,1,.164-.422.522.522,0,0,1,.394-.177.531.531,0,0,1,.4.177A.6.6,0,0,1,395.206,589.214Zm-.029,5.007h-1.063v-4.1h1.063Z"/>
    <path id="패스_7524" data-name="패스 7524" d="M398.223,590.833h-1.007v2.1a.865.865,0,0,0,.1.468.426.426,0,0,0,.382.152,1.494,1.494,0,0,0,.263-.024l.23-.054v.634a1.584,1.584,0,0,1-.417.109,3.33,3.33,0,0,1-.482.035,1.029,1.029,0,0,1-.828-.359,1.567,1.567,0,0,1-.3-1.037v-2.031H395.7v-.582l.492-.024.361-1.363h.66v1.356h1.007Z"/>
    <path id="패스_7525" data-name="패스 7525" d="M402.14,594.221h-1.018l-.02-.635a1.916,1.916,0,0,1-.507.495,1.35,1.35,0,0,1-.8.229.906.906,0,0,1-.7-.29,1.572,1.572,0,0,1-.255-1.028v-2.869h1.057V592.9a.579.579,0,0,0,.126.434.457.457,0,0,0,.308.109.975.975,0,0,0,.423-.09.837.837,0,0,0,.331-.289v-2.936h1.061Z"/>
    <path id="패스_7526" data-name="패스 7526" d="M405.192,590.833h-1.006v2.1a.861.861,0,0,0,.1.468.42.42,0,0,0,.38.152,1.494,1.494,0,0,0,.263-.024l.23-.054v.634a1.551,1.551,0,0,1-.418.109,3.3,3.3,0,0,1-.48.035,1.034,1.034,0,0,1-.83-.359,1.566,1.566,0,0,1-.3-1.037v-2.031h-.455v-.582l.495-.024.359-1.363h.658v1.356h1.006Z"/>
    <path id="패스_7527" data-name="패스 7527" d="M409.3,592.387h-2.581a1.269,1.269,0,0,0,.286.952,1.049,1.049,0,0,0,.747.269,2.412,2.412,0,0,0,.62-.084,3.316,3.316,0,0,0,.655-.252v.685a2.22,2.22,0,0,1-.641.261,3.225,3.225,0,0,1-.815.092,1.932,1.932,0,0,1-1.4-.5,1.962,1.962,0,0,1-.522-1.475v-.291a2.228,2.228,0,0,1,.475-1.434,1.692,1.692,0,0,1,1.391-.585,1.633,1.633,0,0,1,1.326.549,2.177,2.177,0,0,1,.459,1.437Zm-.981-.583a1.518,1.518,0,0,0-.246-.863.687.687,0,0,0-.558-.259.7.7,0,0,0-.535.257,1.327,1.327,0,0,0-.258.865Z"/>
    <path id="패스_7528" data-name="패스 7528" d="M415.339,592.294a2.074,2.074,0,0,1-.507,1.484,2.092,2.092,0,0,1-2.8-.013,2.065,2.065,0,0,1-.518-1.471v-.261a2.079,2.079,0,0,1,.516-1.461,2.054,2.054,0,0,1,2.8,0,2.088,2.088,0,0,1,.507,1.457Zm-1.092-.1v-.061a1.93,1.93,0,0,0-.238-1.133.713.713,0,0,0-.58-.3.686.686,0,0,0-.589.325,2.022,2.022,0,0,0-.226,1.11v.061a2.033,2.033,0,0,0,.219,1.152.721.721,0,0,0,.6.288.737.737,0,0,0,.577-.282A1.9,1.9,0,0,0,414.247,592.194Z"/>
    <path id="패스_7529" data-name="패스 7529" d="M418.364,589.046l-.277.606-.2-.128a.587.587,0,0,0-.253-.048.321.321,0,0,0-.308.146.953.953,0,0,0-.076.436v.154h.715v.627h-.723v3.382H416.18v-3.388h-.5v-.621h.527v-.121a1.373,1.373,0,0,1,.324-.963,1.176,1.176,0,0,1,.9-.354,1.789,1.789,0,0,1,.512.076A1.384,1.384,0,0,1,418.364,589.046Z"/>
    <rect id="사각형_2283" data-name="사각형 2283" width="1.126" height="5.365" transform="translate(420.096 588.856)"/>
    <path id="패스_7530" data-name="패스 7530" d="M425.64,594.221h-1.061v-2.872a.432.432,0,0,0-.127-.3.475.475,0,0,0-.364-.14.767.767,0,0,0-.4.105.986.986,0,0,0-.293.257v2.947H422.33v-4.1h1.021l.018.658a1.159,1.159,0,0,1,.446-.515,1.391,1.391,0,0,1,.8-.224.933.933,0,0,1,.75.322,1.5,1.5,0,0,1,.273.985Z"/>
    <path id="패스_7531" data-name="패스 7531" d="M429.878,594.221h-1.02l-.027-.567a1.5,1.5,0,0,1-.482.48,1.371,1.371,0,0,1-1.574-.259,2.061,2.061,0,0,1-.377-1.413v-.427a2.277,2.277,0,0,1,.406-1.443,1.432,1.432,0,0,1,1.2-.518,1.7,1.7,0,0,1,.422.059.831.831,0,0,1,.391.232v-1.509h1.059Zm-1.059-1.162v-2.036a.65.65,0,0,0-.221-.246.684.684,0,0,0-.384-.095.6.6,0,0,0-.523.3,2.121,2.121,0,0,0-.2,1.088v.287a1.808,1.808,0,0,0,.157.889.511.511,0,0,0,.479.258.717.717,0,0,0,.411-.127A.826.826,0,0,0,428.819,593.059Z"/>
    <path id="패스_7532" data-name="패스 7532" d="M434.1,594.221h-1.017l-.019-.635a2.026,2.026,0,0,1-.51.495,1.361,1.361,0,0,1-.8.229.907.907,0,0,1-.7-.29,1.558,1.558,0,0,1-.259-1.028v-2.869h1.062V592.9a.562.562,0,0,0,.128.434.437.437,0,0,0,.3.109,1,1,0,0,0,.425-.09.842.842,0,0,0,.33-.289v-2.936H434.1Z"/>
    <path id="패스_7533" data-name="패스 7533" d="M437.419,592.973a1.292,1.292,0,0,1-.383.953,1.751,1.751,0,0,1-1.265.384,3.349,3.349,0,0,1-.668-.066,1.24,1.24,0,0,1-.436-.161v-.731a2.352,2.352,0,0,0,.44.2,1.847,1.847,0,0,0,.584.1,1.007,1.007,0,0,0,.583-.139.408.408,0,0,0,.2-.353.448.448,0,0,0-.136-.342,2.163,2.163,0,0,0-.692-.312,1.239,1.239,0,0,1-.713-.473,1.483,1.483,0,0,1-.188-.79,1.129,1.129,0,0,1,.337-.836,1.442,1.442,0,0,1,1.066-.342,2.392,2.392,0,0,1,.572.056,1.921,1.921,0,0,1,.44.16v.661a1.312,1.312,0,0,0-.423-.152,2.363,2.363,0,0,0-.526-.063.917.917,0,0,0-.472.105.322.322,0,0,0-.18.288.312.312,0,0,0,.138.295,4.121,4.121,0,0,0,.621.239,1.689,1.689,0,0,1,.856.51A1.31,1.31,0,0,1,437.419,592.973Z"/>
    <path id="패스_7534" data-name="패스 7534" d="M440.164,590.833h-1v2.1a.865.865,0,0,0,.1.468.426.426,0,0,0,.383.152l.261-.024.232-.054v.634a1.592,1.592,0,0,1-.418.109,3.317,3.317,0,0,1-.484.035,1.028,1.028,0,0,1-.827-.359,1.567,1.567,0,0,1-.307-1.037v-2.031h-.453v-.582l.495-.024.356-1.363h.664v1.356h1Z"/>
    <path id="패스_7535" data-name="패스 7535" d="M443.637,591.364h-.981a.639.639,0,0,0-.065-.3.274.274,0,0,0-.268-.124.455.455,0,0,0-.316.111l-.17.233v2.932h-1.06v-4.1H441.8l.02.649a1.414,1.414,0,0,1,.389-.539.875.875,0,0,1,.56-.191.815.815,0,0,1,.714.34A1.376,1.376,0,0,1,443.637,591.364Z"/>
    <path id="패스_7536" data-name="패스 7536" d="M445.161,589.214a.616.616,0,0,1-.161.432.537.537,0,0,1-.788,0,.6.6,0,0,1-.163-.432.579.579,0,0,1,.163-.422.527.527,0,0,1,.788,0A.59.59,0,0,1,445.161,589.214Zm-.027,5.007H444.07v-4.1h1.064Z"/>
    <path id="패스_7537" data-name="패스 7537" d="M449.2,594.221h-1l-.016-.535a.96.96,0,0,1-.412.419,1.357,1.357,0,0,1-.673.164,1.27,1.27,0,0,1-.959-.341,1.464,1.464,0,0,1-.324-1.035v-.072a1.324,1.324,0,0,1,.434-1.059,1.738,1.738,0,0,1,1.167-.372,1.39,1.39,0,0,1,.435.071.8.8,0,0,1,.317.168v-.4a.457.457,0,0,0-.179-.359.781.781,0,0,0-.507-.144,2.144,2.144,0,0,0-.624.084,2,2,0,0,0-.477.211v-.7a3.835,3.835,0,0,1,.586-.2,3.22,3.22,0,0,1,.781-.083,1.476,1.476,0,0,1,1.094.36,1.572,1.572,0,0,1,.353,1.145Zm-1.02-1.368v-.114a.849.849,0,0,0-.162-.562.589.589,0,0,0-.484-.2.626.626,0,0,0-.471.184.837.837,0,0,0-.177.584v.109a.663.663,0,0,0,.187.556.749.749,0,0,0,.467.14.633.633,0,0,0,.64-.7Z"/>
    <rect id="사각형_2284" data-name="사각형 2284" width="1.064" height="5.365" transform="translate(450.102 588.856)"/>
    <path id="패스_7538" data-name="패스 7538" d="M456.589,589.653h-1.082v4.567H454.38v-4.567h-1.115v-.8h3.324Z"/>
    <path id="패스_7539" data-name="패스 7539" d="M460.544,592.387h-2.585a1.29,1.29,0,0,0,.287.952,1.064,1.064,0,0,0,.75.269,2.439,2.439,0,0,0,.619-.084,3.411,3.411,0,0,0,.658-.252v.685a2.249,2.249,0,0,1-.644.261,3.206,3.206,0,0,1-.812.092,1.932,1.932,0,0,1-1.4-.5,1.963,1.963,0,0,1-.523-1.475v-.291a2.223,2.223,0,0,1,.476-1.434,1.691,1.691,0,0,1,1.39-.585,1.625,1.625,0,0,1,1.324.549,2.167,2.167,0,0,1,.462,1.437Zm-.981-.583a1.533,1.533,0,0,0-.246-.863.687.687,0,0,0-.558-.259.7.7,0,0,0-.536.257,1.317,1.317,0,0,0-.255.865Z"/>
    <path id="패스_7540" data-name="패스 7540" d="M464.178,594.006a1.617,1.617,0,0,1-.374.18,1.781,1.781,0,0,1-.649.124,2.041,2.041,0,0,1-1.469-.517,2,2,0,0,1-.544-1.54v-.176a2.079,2.079,0,0,1,.534-1.5,1.913,1.913,0,0,1,1.447-.558,2.042,2.042,0,0,1,.653.1,1.069,1.069,0,0,1,.4.214v.725a1.236,1.236,0,0,0-.38-.234,1.417,1.417,0,0,0-.514-.091.837.837,0,0,0-.741.37,1.787,1.787,0,0,0-.257,1.021v.074a1.9,1.9,0,0,0,.208,1.031.77.77,0,0,0,.675.3,1.758,1.758,0,0,0,.6-.1,1.192,1.192,0,0,0,.407-.2Z"/>
    <path id="패스_7541" data-name="패스 7541" d="M468.263,594.221H467.2v-2.872a.482.482,0,0,0-.105-.316.4.4,0,0,0-.327-.121.955.955,0,0,0-.427.1.937.937,0,0,0-.327.262v2.947h-1.059v-5.365h1.059v1.895a1.726,1.726,0,0,1,.493-.489,1.377,1.377,0,0,1,.8-.22.831.831,0,0,1,.714.322,1.633,1.633,0,0,1,.242.985Z"/>
    <path id="패스_7542" data-name="패스 7542" d="M472.483,594.221h-1.057v-2.872a.437.437,0,0,0-.127-.3.474.474,0,0,0-.365-.14.754.754,0,0,0-.4.105,1.009,1.009,0,0,0-.3.257v2.947h-1.06v-4.1h1.02l.023.658a1.131,1.131,0,0,1,.44-.515,1.4,1.4,0,0,1,.8-.224.922.922,0,0,1,.747.322,1.5,1.5,0,0,1,.271.985Z"/>
    <path id="패스_7543" data-name="패스 7543" d="M477.069,592.294a2.067,2.067,0,0,1-.51,1.484,2.084,2.084,0,0,1-2.8-.013,2.04,2.04,0,0,1-.519-1.471v-.261a2.069,2.069,0,0,1,.514-1.461,2.05,2.05,0,0,1,2.8,0,2.081,2.081,0,0,1,.51,1.457Zm-1.091-.1v-.061a1.921,1.921,0,0,0-.239-1.133.714.714,0,0,0-.583-.3.688.688,0,0,0-.586.325,2.024,2.024,0,0,0-.225,1.11v.061a2.024,2.024,0,0,0,.219,1.152.712.712,0,0,0,.592.288.736.736,0,0,0,.578-.282A1.885,1.885,0,0,0,475.978,592.194Z"/>
    <rect id="사각형_2285" data-name="사각형 2285" width="1.061" height="5.365" transform="translate(477.871 588.856)"/>
    <path id="패스_7544" data-name="패스 7544" d="M483.541,592.294a2.071,2.071,0,0,1-.509,1.484,2.084,2.084,0,0,1-2.8-.013,2.046,2.046,0,0,1-.523-1.471v-.261a2.083,2.083,0,0,1,.514-1.461,1.833,1.833,0,0,1,1.4-.551,1.807,1.807,0,0,1,1.4.555,2.085,2.085,0,0,1,.509,1.457Zm-1.094-.1v-.061a1.914,1.914,0,0,0-.238-1.133.708.708,0,0,0-.578-.3.692.692,0,0,0-.59.325,2.03,2.03,0,0,0-.227,1.11v.061a2.064,2.064,0,0,0,.221,1.152.717.717,0,0,0,.6.288.737.737,0,0,0,.576-.282A1.906,1.906,0,0,0,482.447,592.194Z"/>
    <path id="패스_7545" data-name="패스 7545" d="M487.727,593.66a1.806,1.806,0,0,1-.523,1.375,2.015,2.015,0,0,1-1.449.5,4.162,4.162,0,0,1-.633-.058,2.066,2.066,0,0,1-.639-.2v-.793a2.119,2.119,0,0,0,.6.2,3.269,3.269,0,0,0,.547.052,1.224,1.224,0,0,0,.864-.23.852.852,0,0,0,.228-.612v-.4a1.271,1.271,0,0,1-.373.453,1.255,1.255,0,0,1-.829.239,1.225,1.225,0,0,1-.993-.457,2.383,2.383,0,0,1-.38-1.514v-.118a2.272,2.272,0,0,1,.433-1.514,1.494,1.494,0,0,1,1.193-.5,1.532,1.532,0,0,1,.558.1.894.894,0,0,1,.406.3v-.357h.987Zm-1.054-1.578v-.259a1.684,1.684,0,0,0-.164-.864.578.578,0,0,0-.524-.254.625.625,0,0,0-.538.293,1.8,1.8,0,0,0-.2.97v.114a2.033,2.033,0,0,0,.181,1.045.632.632,0,0,0,1.057-.028A2.081,2.081,0,0,0,486.673,592.082Z"/>
    <path id="패스_7546" data-name="패스 7546" d="M492.1,590.123l-2.19,5.319h-.873l.595-1.39-1.482-3.93h1.071l.969,2.747,1.049-2.747Z"/>
    <path id="패스_7547" data-name="패스 7547" d="M357.922,578.459l-2.547-3.641a10.03,10.03,0,0,1-4.641,3.9.269.269,0,0,1-.227,0l-.729-.453-.069-.138.069-.107A8.382,8.382,0,0,0,354.473,572a2.309,2.309,0,0,0,.038-.395,1.164,1.164,0,0,0-.694-1.058.212.212,0,0,1-.138-.193c0-.1.066-.154.207-.154h2.891c.13,0,.186.067.175.188a10.419,10.419,0,0,1-.985,3.4l3.824,3.4c.117.1.105.2-.03.293l-1.58,1.021A.166.166,0,0,1,357.922,578.459Zm-1.819,5.425a.15.15,0,0,0,.171.169h7.572c.345,0,.521.2.521.605s-.176.609-.521.609h-9.335a.327.327,0,0,1-.367-.347l-.087-3.117a1.861,1.861,0,0,0-.2-.937,2.456,2.456,0,0,0-.789-.628.2.2,0,0,1-.139-.187c0-.1.069-.153.21-.153h2.787a.151.151,0,0,1,.174.169Z"/>
    <path id="패스_7548" data-name="패스 7548" d="M396.615,575.089l-.013,1.055v8.167a1.025,1.025,0,0,1-.914,1.127.924.924,0,0,1-.868-.694l-.066-.123,0-.177-.01-.133v-7.7l-.122-5.417.006-.148-.014-.309a1.207,1.207,0,0,0-.569-1.085l-.118-.183c0-.1.063-.154.186-.154h1.71c.279.035.81.215.865,1.077v.141h.011l-.064,3.294Z"/>
    <path id="패스_7549" data-name="패스 7549" d="M331.811,584.053H324.24a.151.151,0,0,1-.173-.169v-3.466a.16.16,0,0,0-.175-.18H321.1c-.138,0-.206.057-.206.159a.213.213,0,0,0,.138.193,2.5,2.5,0,0,1,.788.62,1.9,1.9,0,0,1,.2.939l.088,2.771a.323.323,0,0,0,.362.347h9.339c.346,0,.519-.2.519-.609S332.157,584.053,331.811,584.053Z"/>
    <path id="패스_7550" data-name="패스 7550" d="M330.8,584.053h1.008c.346,0,.764.19.764.6s-.418.615-.764.615h-.877"/>
    <path id="패스_7551" data-name="패스 7551" d="M373.979,576.7a3.842,3.842,0,0,0,1.423-2.3h3.237l.049,2.194v.69l.011.131,0,.175.066.125a.927.927,0,0,0,.865.7,1.028,1.028,0,0,0,.919-1.127V576.12l.012-1.052.014-1.27.065-3.29h-.009v-.143c-.056-.86-.586-1.042-.866-1.073h-1.71c-.123,0-.182.05-.182.149l.115.185a1.205,1.205,0,0,1,.569,1.084l.015.31-.005.148.042,1.885h-3.228a3.838,3.838,0,0,0-1.429-2.277,4.219,4.219,0,0,0-5.542.224,3.671,3.671,0,0,0,0,5.473,4.073,4.073,0,0,0,2.9,1.155A4.136,4.136,0,0,0,373.979,576.7Zm-4.129-1.035a3.009,3.009,0,0,1-.6-1.918,3.08,3.08,0,0,1,.6-1.926,1.752,1.752,0,0,1,2.927,0,3.1,3.1,0,0,1,.6,1.926,3.032,3.032,0,0,1-.6,1.918,1.774,1.774,0,0,1-2.927,0Zm10.592,3.111h-2.617c-.139,0-.207.053-.207.156a.217.217,0,0,0,.137.194,1.437,1.437,0,0,1,.67.578,2.428,2.428,0,0,1,.144.975v.277h-5.94v-1.745a.155.155,0,0,0-.173-.176H369.7c-.136,0-.207.053-.207.157a.2.2,0,0,0,.139.188,2.486,2.486,0,0,1,.791.624,1.933,1.933,0,0,1,.2.939l.088,3.982a.313.313,0,0,0,.36.347h9.1a.307.307,0,0,0,.345-.347l.1-5.975A.153.153,0,0,0,380.442,578.771Zm-1.873,5.113a.149.149,0,0,1-.17.169h-5.6a.151.151,0,0,1-.173-.169v-1.719h5.94Z"/>
    <path id="패스_7552" data-name="패스 7552" d="M383.747,580.923a.274.274,0,0,1-.242-.057l-.73-.589c-.113-.093-.091-.159.071-.21q5.8-1.727,6.408-8.14h-4.675a.426.426,0,0,1-.326-.174l-.748-.862v-.1l.087-.069h7.932c.128,0,.183.07.177.224a11.73,11.73,0,0,1-2.568,6.585A9.964,9.964,0,0,1,383.747,580.923Z"/>
    <path id="패스_7553" data-name="패스 7553" d="M431.64,580.923a.275.275,0,0,1-.242-.057l-.727-.589c-.114-.093-.094-.159.064-.21q5.807-1.727,6.414-8.14h-4.678a.439.439,0,0,1-.329-.174l-.744-.862v-.1l.087-.069h7.933c.126,0,.187.07.174.224a11.7,11.7,0,0,1-2.567,6.585A9.958,9.958,0,0,1,431.64,580.923Z"/>
    <path id="패스_7554" data-name="패스 7554" d="M476.686,570.524v-.143c-.057-.862-.588-1.04-.866-1.074h-1.712c-.12,0-.182.053-.182.154l.116.179a1.212,1.212,0,0,1,.57,1.089l.014.3-.005.154.122,5.414v2.315l-8.273.218c-.151,0-.224-.054-.224-.174v-3.011h5.283c.346,0,.518-.2.518-.606a.522.522,0,0,0-.415-.592l.243-4.032c.013-.117-.045-.174-.173-.174h-8.229l-.087.066v.108l.572.864a.382.382,0,0,0,.331.172h5.419v2.982h-6.179c-.143,0-.21.05-.21.156l.136.189a1.419,1.419,0,0,1,.591.548,2.138,2.138,0,0,1,.157.84l.066,3.77c0,.245.118.366.348.352l10.126-.615v4.331l.009.133,0,.178.066.12a.927.927,0,0,0,.864.7,1.026,1.026,0,0,0,.916-1.129v-8.17l.012-1.056.02-1.268.062-3.288Z"/>
    <path id="패스_7555" data-name="패스 7555" d="M333.649,573.858H331.9l.065-3.283h-.008v-.139c-.057-.863-.592-1.042-.868-1.076h-1.71c-.12,0-.183.051-.183.153l.118.179a1.218,1.218,0,0,1,.568,1.09l.015.3-.006.15.075,8.24v1l.009.129v.179l.068.124a.925.925,0,0,0,.867.7,1.03,1.03,0,0,0,.919-1.128v-2.7l.054-2.637v-.068h1.77c.345,0,.764-.211.764-.616S333.994,573.858,333.649,573.858Z"/>
    <path id="패스_7556" data-name="패스 7556" d="M349.441,575.53h-2.173l.466-5.346a.153.153,0,0,0-.174-.174H336.491l-.088.071v.1l.572.865a.382.382,0,0,0,.331.176h8.28l-.122,4.329H334.24l-.088.072v.1l.743.866a.459.459,0,0,0,.331.17h5.909V579.8h-4.471l-.088.066v.1l.574.872a.387.387,0,0,0,.33.17h7.966l.036,3.636.059.131,0,0a.954.954,0,0,0,.894.79,1.028,1.028,0,0,0,.922-1.128V583.3l.132-3.325c0-.113-.058-.17-.177-.17h-4.206v-3.036H349.4a.545.545,0,0,0,.247-.051.636.636,0,0,0,.563-.586C350.207,575.722,349.787,575.53,349.441,575.53Z"/>
    <path id="패스_7557" data-name="패스 7557" d="M365.7,573.67h-1.765l.063-3.127h-.009V570.4c-.057-.862-.589-1.04-.865-1.074h-1.712c-.121,0-.183.051-.183.151l.118.181a1.215,1.215,0,0,1,.568,1.087l.014.308,0,.149.068,7.369v.766l0,.034v.192l.013.135v.177l.064.123a.93.93,0,0,0,.867.694,1.028,1.028,0,0,0,.921-1.129v-1.822l.047-2.857H365.7c.349,0,.766-.211.766-.615S366.048,573.67,365.7,573.67Z"/>
    <path id="패스_7558" data-name="패스 7558" d="M400.505,575.681a.245.245,0,0,0,.239.052,10.26,10.26,0,0,0,5.456-2.877l4.331,2.689a.253.253,0,0,0,.245,0l1.526-1.111.067-.155-.086-.123-5.354-2.165a5.711,5.711,0,0,0,.952-2.129c.023-.129-.033-.192-.17-.192h-3.086c-.139,0-.208.053-.208.155a.218.218,0,0,0,.138.194.956.956,0,0,1,.609.829,1.37,1.37,0,0,1-.19.642q-1.371,2.39-5.131,3.394l-.1.105.051.137Zm12.384.686h-1.844v.007h-12.71l-.086.069v.106l.746.866a.442.442,0,0,0,.331.173h5.906V579.2h-4.644l-.083.071v.1l.572.867a.376.376,0,0,0,.327.173h7.9v1.127h-8.666c-.134,0-.205.051-.205.154a.2.2,0,0,0,.136.19,1.484,1.484,0,0,1,.609.576,2.124,2.124,0,0,1,.137.815l.053,1.643c.01.234.123.346.345.346h9.527c.35,0,.523-.2.523-.607s-.173-.606-.523-.606h-7.76a.154.154,0,0,1-.174-.171v-1.13h7.765c.343,0,.519-.2.519-.6a.543.543,0,0,0-.366-.586l.157-2.186c.011-.113-.049-.171-.172-.171h-4v-1.611h5.681l.094-.017.108-.019.025-.005a.632.632,0,0,0,.539-.582C413.654,576.557,413.235,576.367,412.889,576.367Z"/>
    <path id="패스_7559" data-name="패스 7559" d="M424.541,577.428a.662.662,0,0,0,.638-.6c0-.407-.418-.6-.766-.6h-1.454l.085-4.645h1.464c.345,0,.765-.208.765-.611s-.42-.6-.765-.6h-.424l-.037-.005h-9.39l-.084.072v.1l.574.864a.376.376,0,0,0,.326.174h.971l.085,4.674h-2.046l-.083.074v.1l.569.868a.384.384,0,0,0,.333.172h9.006A.56.56,0,0,0,424.541,577.428Zm-3.489-1.173h-2.616v-4.674h2.616Zm7.693-5.747v-.143c-.054-.86-.589-1.042-.866-1.073h-1.71c-.122,0-.183.05-.183.149l.117.185a1.2,1.2,0,0,1,.57,1.084l.013.31-.006.148.026,1.124h-1.844c-.347,0-.765.21-.765.614s.418.6.765.6h1.87l.023.989h-1.893c-.347,0-.765.207-.765.61s.418.6.765.6h1.919l.021.882v.69l.008.131,0,.175.066.125a.926.926,0,0,0,.863.7,1.028,1.028,0,0,0,.921-1.127V576.12l.009-1.052.019-1.27.065-3.29Zm-1.838,8.86a4.459,4.459,0,0,0-5.777,0,3.29,3.29,0,0,0,0,5.093,4.443,4.443,0,0,0,5.777,0,3.283,3.283,0,0,0,0-5.093Zm-1.4,4.273a1.971,1.971,0,0,1-3,0,2.715,2.715,0,0,1,0-3.439,1.955,1.955,0,0,1,3,0,2.711,2.711,0,0,1,0,3.439Z"/>
    <path id="패스_7560" data-name="패스 7560" d="M446.059,575.3h-2.1l0-.166.014-1.268.067-3.289h-.01v-.143c-.057-.862-.586-1.039-.866-1.07h-1.71c-.123,0-.183.048-.183.149l.118.182a1.211,1.211,0,0,1,.567,1.087l.016.3-.007.152.12,5.414v7.7l.012.13v.181l.069.124a.926.926,0,0,0,.864.695,1.026,1.026,0,0,0,.916-1.13V576.51h2.109c.348,0,.765-.211.765-.615S446.407,575.3,446.059,575.3Z"/>
    <path id="패스_7561" data-name="패스 7561" d="M448.426,571.753h5.854V576.1l.062.129.129.022,1.5-.69a.212.212,0,0,0,.141-.224l.207-4.624a.153.153,0,0,0-.174-.174h-8.54l-.086.066v.108l.571.864A.384.384,0,0,0,448.426,571.753Zm11.742,12.3H452.6a.15.15,0,0,1-.172-.169v-3.466a.161.161,0,0,0-.175-.18h-2.789c-.144,0-.206.057-.206.159a.212.212,0,0,0,.135.193,2.45,2.45,0,0,1,.79.62,1.9,1.9,0,0,1,.2.939l.091,2.771a.32.32,0,0,0,.364.347h9.333c.349,0,.524-.2.524-.609S460.517,584.053,460.168,584.053Zm2.129-10.334h-2.051l.064-3.211H460.3v-.143c-.057-.86-.59-1.042-.868-1.073h-1.709c-.123,0-.187.05-.187.149l.119.185a1.206,1.206,0,0,1,.57,1.084l.014.31-.006.148.121,5.416v.569l-5.982.163v-3.307c0-.119-.056-.177-.173-.177h-2.391c-.128,0-.189.054-.189.16l.121.189a1.415,1.415,0,0,1,.637,1.3v1.89l-3.807.1-.088.072v.1l.777.918a.374.374,0,0,0,.332.174l10.763-.521v1.043l.01.133,0,.177.065.122a.925.925,0,0,0,.864.7,1.026,1.026,0,0,0,.921-1.13V576.12l.011-1.052v-.133H462.3c.345,0,.762-.211.762-.617S462.642,573.719,462.3,573.719Z"/>
    <path id="패스_7562" data-name="패스 7562" d="M481.569,574.837a4.442,4.442,0,0,0,5.372,0,2.69,2.69,0,0,0,1.127-2.163,2.721,2.721,0,0,0-1.127-2.175,4.423,4.423,0,0,0-5.372,0,2.72,2.72,0,0,0-1.126,2.175A2.689,2.689,0,0,0,481.569,574.837Zm1.441-3.514a1.689,1.689,0,0,1,2.5,0,1.966,1.966,0,0,1,.493,1.351,1.931,1.931,0,0,1-.493,1.34,1.706,1.706,0,0,1-2.5,0,1.907,1.907,0,0,1-.5-1.34A1.941,1.941,0,0,1,483.01,571.323Zm7.2-1.7a1.2,1.2,0,0,1,.569,1.084l.014.31,0,.148.12,5.416v1.734h-1.821c-.31,0-.685.191-.685.549s.375.534.685.534h1.821v.353l.009.13,0,.182.064.121a.927.927,0,0,0,.865.7,1.027,1.027,0,0,0,.919-1.129V576.12l.011-1.052.016-1.27.066-3.29h-.011v-.143c-.055-.86-.585-1.042-.867-1.073h-1.707c-.122,0-.185.05-.185.149Zm2.536,14.427h-7.573a.151.151,0,0,1-.173-.169v-2.946a.155.155,0,0,0-.17-.177h-2.792c-.139,0-.208.055-.208.162a.221.221,0,0,0,.14.19,2.159,2.159,0,0,1,.788.6,1.986,1.986,0,0,1,.2.95l.086,2.255a.323.323,0,0,0,.361.347h9.34c.346,0,.519-.2.519-.609S493.092,584.053,492.746,584.053Zm-9.929-3.969c0,.153.065.2.193.154l1.558-.514a.218.218,0,0,0,.137-.222l.034-1.874,3.409-.155h1.4c.307,0,.683-.187.683-.548s-.376-.534-.683-.534h-.042a.482.482,0,0,0-.233-.042l-1.8.042h-.107v0l-8.568.214-.088.069v.1l.779.919a.435.435,0,0,0,.331.171l2.945-.136Z"/>
    <path id="패스_7563" data-name="패스 7563" d="M327.653,571.407h-3.24v-.966c-.058-.895-.611-1.078-.9-1.113h-1.772c-.123,0-.188.055-.188.158l.124.191a1.256,1.256,0,0,1,.586,1.125v.6h-4.14l-.086.069v.1l.742.865a.45.45,0,0,0,.333.173h1.522a3.337,3.337,0,0,0-.069,5.114,4.126,4.126,0,0,0,5.509,0,3.292,3.292,0,0,0,1.162-2.512,3.345,3.345,0,0,0-1.23-2.6h1.646c.345,0,.764-.212.764-.615S328,571.407,327.653,571.407Zm-2.953,5.521a1.7,1.7,0,0,1-2.748,0,2.677,2.677,0,0,1-.555-1.707,2.71,2.71,0,0,1,.555-1.718,1.675,1.675,0,0,1,2.737,0,2.948,2.948,0,0,1,.011,3.425Z"/>
    <path id="패스_7564" data-name="패스 7564" class="cls-1" d="M299.807,571.427a2.815,2.815,0,0,1-.94,2.135,3.274,3.274,0,0,1-2.325.879,2.491,2.491,0,0,1-1.775-.629,2.124,2.124,0,0,1-.673-1.632,2.769,2.769,0,0,1,.938-2.119,3.319,3.319,0,0,1,2.326-.86,2.508,2.508,0,0,1,1.753.629A2.051,2.051,0,0,1,299.807,571.427Z"/>
    <path id="패스_7565" data-name="패스 7565" class="cls-2" d="M289.934,595.29h2.25a4.111,4.111,0,0,0,3.155-3.158l3.174-16.446h-4.8Zm-11.349-3.027c-2.035,0-3.331-.806-3.893-2.407l0,.023a6.872,6.872,0,0,1-.454-4.256l.041-.162a3.194,3.194,0,0,1,.133-.407l0,0c.074-.2.154-.4.241-.613a13.709,13.709,0,0,1,2.428-4.035,5.826,5.826,0,0,1,4.041-1.858,2.235,2.235,0,0,1,1.613.578,1.967,1.967,0,0,1,.608,1.5,3.469,3.469,0,0,1-1.492,2.653,9.17,9.17,0,0,1-4.881,2.192,5.818,5.818,0,0,1-1.6.139.761.761,0,0,0-.574.52.581.581,0,0,0,.475.759h.465a17.8,17.8,0,0,0,8.679-1.824q3.285-1.819,3.283-4.731a3.825,3.825,0,0,0-1.55-3.184,6.714,6.714,0,0,0-4.18-1.2,12.422,12.422,0,0,0-8.881,3.692,11.554,11.554,0,0,0-3.833,8.562,8.291,8.291,0,0,0,.492,2.925c-2.716-1.377-5.3-3.841-7.407-7.923l14.739-14.66-5.535.047c-.4.467-1.67,1.986-5.242,5.508q-5.2,5.092-5.73,5.795l2.3-11.463h-5.08l-5.524,27.075h1.631l-.113-.033a4.165,4.165,0,0,0,4.2-3.012l2.263-10.873c1.321,3.459,9.415,22.02,27.933,12.593l1.383-6.056a28.309,28.309,0,0,1-9.036,3.969A18.937,18.937,0,0,1,278.585,592.263Z"/>
    <path id="패스_7566" data-name="패스 7566" class="cls-3" d="M307.648,578.371h2.428a3.2,3.2,0,0,0,2.841-2.685H308.1l1.137-5.906-4.959,1.172-.894,4.734h-2.564l-.489,2.685h2.48l-1.868,9.845a36.1,36.1,0,0,0-.612,3.752q0,3.792,4.717,3.788a12.881,12.881,0,0,0,5.124-1.1l-.281-2.546a8.836,8.836,0,0,1-2.7.556,1.647,1.647,0,0,1-1.849-1.874,20.211,20.211,0,0,1,.447-2.972Z"/>
  </g>
</svg>
