<svg xmlns="http://www.w3.org/2000/svg" width="217.753" height="45.27" viewBox="0 0 217.753 45.27">
  <defs>
    <style>
      .cls-1 {
        fill: #00271a;
      }

      .cls-2 {
        fill: #da0021;
      }
    </style>
  </defs>
  <g id="partners_logo15" transform="translate(-161.84 -423.708)">
    <g id="그룹_6443" data-name="그룹 6443" transform="translate(294.769 438.402)">
      <path id="패스_6276" data-name="패스 6276" class="cls-1" d="M412.446,448.3v-1.527h-1.919V448.3a4.3,4.3,0,0,1-3.058,4.429v1.3s3.073-.446,4.018-2.346c.942,1.9,4.017,2.346,4.017,2.346v-1.3A4.3,4.3,0,0,1,412.446,448.3Z" transform="translate(-379.416 -446.35)"/>
      <path id="패스_6277" data-name="패스 6277" class="cls-1" d="M370.117,460.543H368.2v2.952a1.345,1.345,0,0,0,.466,1.084,1.762,1.762,0,0,0,1.174.393h7.491v-1.433h-7.211Z" transform="translate(-365.883 -451.096)"/>
      <rect id="사각형_2196" data-name="사각형 2196" class="cls-1" width="8.077" height="1.432" transform="translate(0 1.17)"/>
      <path id="패스_6278" data-name="패스 6278" class="cls-1" d="M432.582,452.429a5.843,5.843,0,0,0,6.756,0,3.127,3.127,0,0,0,0-5.215,5.8,5.8,0,0,0-6.756,0,3.132,3.132,0,0,0,0,5.215Zm1.34-4.178a3.151,3.151,0,0,1,2.024-.644,3.191,3.191,0,0,1,2.038.644,1.909,1.909,0,0,1,0,3.14,3.15,3.15,0,0,1-2.038.651,3.111,3.111,0,0,1-2.024-.651,1.928,1.928,0,0,1,0-3.14Z" transform="translate(-387.589 -446.129)"/>
      <path id="패스_6279" data-name="패스 6279" class="cls-1" d="M461.074,450.109a9.915,9.915,0,0,1-.063,1.142,3.131,3.131,0,0,1-.253.977h1.34a3.1,3.1,0,0,0,.894-2.184v-3.222H452.8v1.433h8.269Z" transform="translate(-395.04 -446.368)"/>
      <path id="패스_6280" data-name="패스 6280" class="cls-1" d="M461.532,459.344a5.949,5.949,0,0,0-6.427,0,2.643,2.643,0,0,0,0,4.581,5.953,5.953,0,0,0,6.427,0,2.633,2.633,0,0,0,0-4.581Zm-1.391,3.508a3.062,3.062,0,0,1-1.81.528,3.106,3.106,0,0,1-1.842-.528,1.491,1.491,0,0,1-.755-1.21,1.539,1.539,0,0,1,.755-1.243,3.042,3.042,0,0,1,1.842-.544,3,3,0,0,1,1.81.544,1.535,1.535,0,0,1,.756,1.243A1.487,1.487,0,0,1,460.14,462.853Z" transform="translate(-395.376 -450.358)"/>
      <path id="패스_6281" data-name="패스 6281" class="cls-1" d="M457.2,452.254h-1.917v2.25h-4.927v1.439h13.482V454.5H457.2Z" transform="translate(-394.197 -448.24)"/>
      <path id="패스_6282" data-name="패스 6282" class="cls-1" d="M399.137,453.715v-1.433h-2.6a3.333,3.333,0,0,0,.892-2.167v-3.294H387.277v1.433h8.232v1.911c0,.383-.018.759-.056,1.133a3.251,3.251,0,0,1-.227.984h-9.57v1.433Z" transform="translate(-371.899 -446.368)"/>
      <path id="패스_6283" data-name="패스 6283" class="cls-1" d="M388.049,459.457v1.434h8.25V464.6h1.918v-5.146Z" transform="translate(-372.724 -450.722)"/>
      <path id="패스_6284" data-name="패스 6284" class="cls-1" d="M477.655,448.638V447h-1.918v1.638c0,3.67-1.633,4.759-3.329,5.532v1.294a6.858,6.858,0,0,0,4.288-2.6,6.856,6.856,0,0,0,4.287,2.6v-1.294C479.287,453.4,477.655,452.309,477.655,448.638Z" transform="translate(-401.795 -446.429)"/>
      <path id="패스_6285" data-name="패스 6285" class="cls-1" d="M381.121,446.508H379.2v9.806h1.918v-5.4H383.2v-1.434h-2.079Z" transform="translate(-369.676 -446.26)"/>
      <path id="패스_6286" data-name="패스 6286" class="cls-1" d="M489.909,446.545H487.99v13.6h1.919v-8.917h2.078V449.8h-2.078Z" transform="translate(-407.165 -446.272)"/>
      <path id="패스_6287" data-name="패스 6287" class="cls-1" d="M365.959,454.58a4.632,4.632,0,0,0,5.6,0,2.833,2.833,0,0,0,0-4.575,4.6,4.6,0,0,0-5.6,0,2.838,2.838,0,0,0,0,4.575Zm1.338-3.53a2.123,2.123,0,0,1,1.453-.51,2.149,2.149,0,0,1,1.464.51,1.6,1.6,0,0,1,0,2.485,2.128,2.128,0,0,1-1.464.515,2.1,2.1,0,0,1-1.453-.515,1.622,1.622,0,0,1,0-2.485Z" transform="translate(-364.713 -447.137)"/>
      <rect id="사각형_2197" data-name="사각형 2197" class="cls-1" width="1.918" height="1.919" transform="translate(3.08 0.005)"/>
      <rect id="사각형_2198" data-name="사각형 2198" class="cls-1" width="1.919" height="2.359" transform="translate(19.449 6.779)"/>
      <path id="패스_6288" data-name="패스 6288" class="cls-1" d="M441.1,460.063v4.718h1.917v-4.718" transform="translate(-391.005 -450.931)"/>
      <path id="패스_6289" data-name="패스 6289" class="cls-1" d="M432.921,460.062c-.023,2.586-.279,3.342-1.1,4.719h1.535c.688-.816,1.444-1.124,1.476-4.719" transform="translate(-387.808 -450.931)"/>
      <rect id="사각형_2199" data-name="사각형 2199" class="cls-1" width="13.639" height="1.434" transform="translate(41.543 7.884)"/>
      <path id="패스_6290" data-name="패스 6290" class="cls-1" d="M411.119,459.449v1.434h7.916V464.6h1.919v-5.146Z" transform="translate(-380.674 -450.719)"/>
      <path id="패스_6291" data-name="패스 6291" class="cls-1" d="M422.1,446.545h1.919v7.673H422.1v-3.807h-2.079v-1.432H422.1Z" transform="translate(-383.744 -446.272)"/>
    </g>
    <g id="그룹_6444" data-name="그룹 6444" transform="translate(294.771 455.338)">
      <path id="패스_6292" data-name="패스 6292" class="cls-1" d="M367.334,472.1h-.68l-1.393,1.75V472.1h-.594v4.16h.594v-2.078c.092.133,1.394,2.078,1.394,2.078h.754l-1.589-2.275C365.851,473.938,367.334,472.1,367.334,472.1Z" transform="translate(-364.668 -472.013)"/>
      <path id="패스_6293" data-name="패스 6293" class="cls-1" d="M370.725,471.969a1.225,1.225,0,0,0-1.321,1.37v1.342c0,1.115.407,1.616,1.321,1.616s1.319-.5,1.319-1.616v-1.342A1.223,1.223,0,0,0,370.725,471.969Zm.717,2.734c0,.9-.275,1.083-.717,1.083s-.718-.182-.718-1.083v-1.382c0-.733.451-.846.718-.846s.717.113.717.846Z" transform="translate(-366.3 -471.969)"/>
      <path id="패스_6294" data-name="패스 6294" class="cls-1" d="M377.029,475.147c-.028-.767-.188-.974-.591-1.066a.912.912,0,0,0,.672-.929.969.969,0,0,0-1.018-1.056h-1.443v4.16h.593v-1.879h.575a.51.51,0,0,1,.583.488l.026.462a2.333,2.333,0,0,0,.136.912l.008.018h.616l-.014-.047A6.353,6.353,0,0,1,377.029,475.147Zm-1.043-1.3h-.745V472.62h.75a.516.516,0,0,1,.513.584C376.5,473.5,376.371,473.849,375.986,473.849Z" transform="translate(-368.107 -472.013)"/>
      <path id="패스_6295" data-name="패스 6295" class="cls-1" d="M380.013,474.386h1.476v-.524h-1.476V472.62H381.6V472.1h-2.178v4.16h2.212v-.524h-1.621Z" transform="translate(-369.752 -472.013)"/>
      <path id="패스_6296" data-name="패스 6296" class="cls-1" d="M385.117,472.1h-.687l-1.323,4.16h.6s.295-.929.307-.974h1.528l.292.974h.66l-1.355-4.16Zm-.951,2.661c.028-.085.547-1.866.6-2.039.054.173.592,1.954.614,2.039Z" transform="translate(-371.022 -472.013)"/>
      <path id="패스_6297" data-name="패스 6297" class="cls-1" d="M393.191,472.1v3.393c-.108-.23-1.545-3.393-1.545-3.393h-.792v4.16h.533v-3.438c.11.232,1.567,3.438,1.567,3.438h.771V472.1h-.535Z" transform="translate(-373.692 -472.013)"/>
      <path id="패스_6298" data-name="패스 6298" class="cls-1" d="M397.946,472.1h-.69l-1.318,4.16h.6s.29-.929.307-.974h1.527c.012.047.294.974.294.974h.655l-1.349-4.16ZM397,474.757c.027-.085.548-1.866.6-2.039.051.173.585,1.954.615,2.039Z" transform="translate(-375.444 -472.013)"/>
      <path id="패스_6299" data-name="패스 6299" class="cls-1" d="M400.543,472.1v.524h1.076v3.635h.591V472.62h1.077V472.1h-2.743Z" transform="translate(-377.031 -472.013)"/>
      <path id="패스_6300" data-name="패스 6300" class="cls-1" d="M405.5,472.1v4.16h.593V472.1H405.5Z" transform="translate(-378.74 -472.013)"/>
      <path id="패스_6301" data-name="패스 6301" class="cls-1" d="M409.054,471.969a1.227,1.227,0,0,0-1.324,1.37v1.342c0,1.115.409,1.616,1.324,1.616s1.321-.5,1.321-1.616v-1.342A1.226,1.226,0,0,0,409.054,471.969Zm.714,2.734c0,.9-.275,1.083-.714,1.083s-.718-.182-.718-1.083v-1.382c0-.733.45-.846.718-.846s.714.113.714.846Z" transform="translate(-379.508 -471.969)"/>
      <path id="패스_6302" data-name="패스 6302" class="cls-1" d="M415.375,472.1v3.393c-.109-.23-1.546-3.393-1.546-3.393h-.792v4.16h.534v-3.438c.106.232,1.564,3.438,1.564,3.438h.775V472.1h-.534Z" transform="translate(-381.337 -472.013)"/>
      <path id="패스_6303" data-name="패스 6303" class="cls-1" d="M420.124,472.1h-.688l-1.317,4.16h.6s.3-.929.307-.974h1.526c.018.047.3.974.3.974h.659l-1.353-4.16Zm-.948,2.661c.027-.085.551-1.866.6-2.039.054.173.59,1.954.614,2.039Z" transform="translate(-383.088 -472.013)"/>
      <path id="패스_6304" data-name="패스 6304" class="cls-1" d="M424.536,472.1h-.593v4.16h2.095v-.524h-1.5Z" transform="translate(-385.095 -472.013)"/>
      <path id="패스_6305" data-name="패스 6305" class="cls-1" d="M431.174,471.969a1.222,1.222,0,0,0-1.317,1.37v1.342c0,1.115.408,1.616,1.317,1.616s1.324-.5,1.324-1.616v-1.342A1.226,1.226,0,0,0,431.174,471.969Zm.718,2.734c0,.9-.273,1.083-.718,1.083s-.716-.182-.716-1.083v-1.382c0-.733.451-.846.716-.846s.718.113.718.846Z" transform="translate(-387.133 -471.969)"/>
      <path id="패스_6306" data-name="패스 6306" class="cls-1" d="M435.219,472.1v4.16h.6V472.1h-.6Z" transform="translate(-388.981 -472.013)"/>
      <path id="패스_6307" data-name="패스 6307" class="cls-1" d="M438.069,472.1h-.592v4.16h2.089v-.524h-1.5Z" transform="translate(-389.759 -472.013)"/>
      <path id="패스_6308" data-name="패스 6308" class="cls-1" d="M445.533,474.972c0,.733-.425.815-.607.815-.366,0-.695-.082-.695-1.083v-1.092a1.808,1.808,0,0,1,.1-.815.6.6,0,0,1,.594-.316.667.667,0,0,1,.434.164.969.969,0,0,1,.109.572v.035h.608l0-.032a1.228,1.228,0,0,0-.25-.958,1.106,1.106,0,0,0-.858-.293c-.934,0-1.349.469-1.349,1.517v1.157c0,1.654.862,1.654,1.325,1.654a1.188,1.188,0,0,0,.871-.3,1.412,1.412,0,0,0,.322-1.032v-.035h-.612Z" transform="translate(-391.878 -471.969)"/>
      <path id="패스_6309" data-name="패스 6309" class="cls-1" d="M449.749,471.969a1.224,1.224,0,0,0-1.319,1.37v1.342c0,1.116.407,1.616,1.319,1.616s1.321-.5,1.321-1.616v-1.342A1.225,1.225,0,0,0,449.749,471.969Zm.718,2.735c0,.9-.275,1.083-.718,1.083s-.716-.183-.716-1.083v-1.382c0-.733.449-.846.716-.846s.718.113.718.846Z" transform="translate(-393.533 -471.969)"/>
      <path id="패스_6310" data-name="패스 6310" class="cls-1" d="M456.052,475.147c-.024-.767-.184-.975-.593-1.066a.91.91,0,0,0,.671-.929.966.966,0,0,0-1.014-1.056h-1.443v4.16h.59v-1.879h.573a.509.509,0,0,1,.587.486l.024.463a2.39,2.39,0,0,0,.138.912l.009.018h.612l-.012-.047A6.161,6.161,0,0,1,456.052,475.147Zm-1.043-1.3h-.745v-1.23h.752a.518.518,0,0,1,.515.585C455.53,473.5,455.394,473.849,455.009,473.849Z" transform="translate(-395.341 -472.013)"/>
      <path id="패스_6311" data-name="패스 6311" class="cls-1" d="M459.8,472.1h-1.241v4.16h.589v-1.8h.649a1.1,1.1,0,0,0,1.18-1.161A1.053,1.053,0,0,0,459.8,472.1Zm-.117,1.835h-.536v-1.312h.684c.055,0,.543.021.543.654A.614.614,0,0,1,459.682,473.931Z" transform="translate(-397.023 -472.013)"/>
      <path id="패스_6312" data-name="패스 6312" class="cls-1" d="M464.5,471.969a1.223,1.223,0,0,0-1.317,1.37v1.342c0,1.116.405,1.616,1.317,1.616s1.321-.5,1.321-1.616v-1.342A1.214,1.214,0,0,0,464.5,471.969Zm.718,2.735c0,.9-.273,1.083-.718,1.083s-.715-.183-.715-1.083v-1.382c0-.733.448-.846.715-.846s.718.113.718.846Z" transform="translate(-398.618 -471.969)"/>
      <path id="패스_6313" data-name="패스 6313" class="cls-1" d="M470.808,475.147c-.029-.767-.184-.975-.6-1.066a.912.912,0,0,0,.675-.929.97.97,0,0,0-1.015-1.056h-1.445v4.16h.589v-1.879h.579a.506.506,0,0,1,.58.486l.027.463a2.4,2.4,0,0,0,.134.912l.01.018h.616l-.014-.047A5.726,5.726,0,0,1,470.808,475.147Zm-1.043-1.3h-.749v-1.23h.752a.52.52,0,0,1,.517.585C470.285,473.5,470.147,473.849,469.766,473.849Z" transform="translate(-400.425 -472.013)"/>
      <path id="패스_6314" data-name="패스 6314" class="cls-1" d="M474.616,472.1h-.686l-1.323,4.16h.6s.292-.929.307-.974h1.526c.012.047.294.974.294.974h.657l-1.35-4.16Zm-.947,2.662c.027-.085.544-1.867.6-2.04.05.173.585,1.956.613,2.04Z" transform="translate(-401.865 -472.013)"/>
      <path id="패스_6315" data-name="패스 6315" class="cls-1" d="M477.217,472.1v.523h1.076v3.637h.591v-3.637h1.076V472.1h-2.743Z" transform="translate(-403.454 -472.013)"/>
      <path id="패스_6316" data-name="패스 6316" class="cls-1" d="M482.176,472.1v4.16h.594V472.1h-.594Z" transform="translate(-405.163 -472.013)"/>
      <path id="패스_6317" data-name="패스 6317" class="cls-1" d="M485.725,471.969a1.225,1.225,0,0,0-1.321,1.37v1.342c0,1.116.41,1.616,1.321,1.616s1.321-.5,1.321-1.616v-1.342A1.226,1.226,0,0,0,485.725,471.969Zm.718,2.735c0,.909-.263,1.083-.718,1.083s-.717-.174-.717-1.083v-1.382c0-.733.448-.846.717-.846s.718.113.718.846Z" transform="translate(-405.931 -471.969)"/>
      <path id="패스_6318" data-name="패스 6318" class="cls-1" d="M492.545,472.1h-.5v3.393c-.107-.23-1.546-3.393-1.546-3.393h-.794v4.16h.534v-3.438c.107.232,1.569,3.438,1.569,3.438h.769V472.1Z" transform="translate(-407.758 -472.013)"/>
    </g>
    <g id="그룹_6449" data-name="그룹 6449" transform="translate(161.84 423.708)">
      <g id="그룹_6448" data-name="그룹 6448">
        <g id="그룹_6447" data-name="그룹 6447" transform="translate(0 6.252)">
          <g id="그룹_6445" data-name="그룹 6445" transform="translate(46.56 8.67)">
            <path id="패스_6319" data-name="패스 6319" class="cls-1" d="M292.869,446.476h-4.085c-5.777.01-11.731,4.71-13.28,10.483s1.889,10.476,7.662,10.484h4.086c7.069,0,11.73-4.708,13.279-10.484S298.642,446.487,292.869,446.476Zm1.821,10.49c-.9,3.363-4.222,6.092-7.4,6.092h-1.9c-3.126-.047-4.94-2.76-4.046-6.092.9-3.356,4.217-6.094,7.4-6.094h1.9C293.767,450.921,295.582,453.635,294.69,456.966Z" transform="translate(-247.442 -446.476)"/>
            <path id="패스_6320" data-name="패스 6320" class="cls-1" d="M254.057,467.44a2.616,2.616,0,0,0,2.365-1.865l5.15-19.1H257.39a2.613,2.613,0,0,0-2.366,1.868l-3.213,11.989-7.258-13.857h-4.189A2.609,2.609,0,0,0,238,448.344l-5.117,19.1h4.147a2.616,2.616,0,0,0,2.367-1.865l3.259-12.082,7.253,13.947h4.15Z" transform="translate(-232.881 -446.476)"/>
            <path id="패스_6321" data-name="패스 6321" class="cls-1" d="M330.049,446.476c-5.777.01-11.732,4.71-13.281,10.483s1.893,10.461,7.667,10.468H333.9a2.614,2.614,0,0,0,2.308-1.839l.676-2.53H326.657c-3.136,0-4.938-2.76-4.048-6.092.9-3.356,4.217-6.094,7.4-6.094h7.925A2.609,2.609,0,0,0,340.3,449l.676-2.529Z" transform="translate(-261.662 -446.476)"/>
          </g>
          <g id="그룹_6446" data-name="그룹 6446">
            <path id="패스_6322" data-name="패스 6322" class="cls-1" d="M193.565,458.4c-.586-4.423-3.943-6.749-7.781-7.92-.728-.2-1.475-.381-2.224-.551h0l-2.828,10.634c-.34.842-.99,2.325-4.179,2.325h-3.3l3.943-14.814c-4.534-1.962-7.445-6.444-3.654-14.084.288-.581.107-.983-.368-.566a33.355,33.355,0,0,0-9.785,13.791c-3.136,8.332-1.4,17.031,4.415,21.459,4.516,3.758,11.454,4.49,17.013,2.57C190.714,469.1,193.979,464.615,193.565,458.4Z" transform="translate(-161.84 -433.247)"/>
          </g>
        </g>
        <path id="패스_6323" data-name="패스 6323" class="cls-2" d="M183.888,443.255l.007,0,1.832-6.888c.341-.842.99-2.327,4.183-2.327h3.3l-2.93,11.018,10.863-9.932a5.955,5.955,0,0,1,3.762-1.077l-.029-.008h5.576l-12.77,11.6c5.921,1.2,10.837,6.1,8,15.078h0c-.155.4-.26,1.091.671.043h0c3.5-3.782,10.29-12.753,9.741-22.177-.791-13.6-13.059-15.62-20.124-14.679-7.638,1.018-11.925,4.723-14.095,8.026C179.725,435.2,178.719,441.164,183.888,443.255Z" transform="translate(-168.14 -423.708)"/>
      </g>
    </g>
  </g>
</svg>
