<svg xmlns="http://www.w3.org/2000/svg" width="234.019" height="28.035" viewBox="0 0 234.019 28.035">
  <defs>
    <style>
      .cls-1 {
        fill: #003383;
      }

      .cls-2 {
        fill: #008e2b;
      }
    </style>
  </defs>
  <g id="그룹_6494" data-name="그룹 6494" transform="translate(-77.754 -229.153)">
    <g id="그룹_6490" data-name="그룹 6490">
      <path id="패스_6484" data-name="패스 6484" class="cls-1" d="M167.551,246.548a1.931,1.931,0,1,0-1.931-1.93A1.932,1.932,0,0,0,167.551,246.548Z"/>
      <g id="그룹_6482" data-name="그룹 6482">
        <rect id="사각형_2242" data-name="사각형 2242" class="cls-1" width="23.394" height="2.927" transform="translate(155.85 240.434)"/>
      </g>
      <g id="그룹_6485" data-name="그룹 6485">
        <path id="패스_6485" data-name="패스 6485" class="cls-1" d="M152.089,242.281a2.024,2.024,0,1,0-2.024-2.024A2.024,2.024,0,0,0,152.089,242.281Z"/>
        <g id="그룹_6484" data-name="그룹 6484">
          <g id="그룹_6483" data-name="그룹 6483">
            <rect id="사각형_2243" data-name="사각형 2243" class="cls-1" width="15.582" height="2.927" transform="translate(128.373 236.492)"/>
            <path id="패스_6486" data-name="패스 6486" class="cls-1" d="M138.1,234.869a1.929,1.929,0,1,0-1.93,1.931A1.93,1.93,0,0,0,138.1,234.869Z"/>
          </g>
          <path id="패스_6487" data-name="패스 6487" class="cls-1" d="M130.461,241.952a5.735,5.735,0,1,1,5.7,5.128A5.439,5.439,0,0,1,130.461,241.952Zm5.7,2.18a2.18,2.18,0,1,0-2.177-2.18A2.179,2.179,0,0,0,136.164,244.132Z"/>
        </g>
      </g>
      <rect id="사각형_2244" data-name="사각형 2244" class="cls-1" width="3.551" height="19.04" transform="translate(279.398 234.432)"/>
      <path id="패스_6488" data-name="패스 6488" class="cls-1" d="M284.549,241.978a2.023,2.023,0,1,0-2.024-2.024A2.024,2.024,0,0,0,284.549,241.978Z"/>
      <rect id="사각형_2245" data-name="사각형 2245" class="cls-1" width="18.432" height="2.928" transform="translate(209.41 246.336)"/>
      <rect id="사각형_2246" data-name="사각형 2246" class="cls-1" width="3.551" height="19.04" transform="translate(227.307 234.433)"/>
      <path id="패스_6489" data-name="패스 6489" class="cls-1" d="M225.82,239.846a1.931,1.931,0,1,1,1.932-1.932A1.931,1.931,0,0,1,225.82,239.846Z"/>
      <path id="패스_6490" data-name="패스 6490" class="cls-1" d="M225.82,244.541a1.93,1.93,0,1,1,1.932-1.93A1.93,1.93,0,0,1,225.82,244.541Z"/>
      <path id="패스_6491" data-name="패스 6491" class="cls-1" d="M211.945,242.527v-.964H222.51v-3.73a2.843,2.843,0,0,0-2.932-2.747H208.393v2.762h10.568v.967H208.394v3.724a2.85,2.85,0,0,0,2.934,2.75H222.51v-2.762Z"/>
      <rect id="사각형_2247" data-name="사각형 2247" class="cls-1" width="18.43" height="2.928" transform="translate(290.334 246.336)"/>
      <g id="그룹_6486" data-name="그룹 6486">
        <rect id="사각형_2248" data-name="사각형 2248" class="cls-1" width="3.549" height="19.04" transform="translate(308.225 234.433)"/>
        <path id="패스_6492" data-name="패스 6492" class="cls-1" d="M306.744,239.846a1.931,1.931,0,1,1,1.93-1.932A1.931,1.931,0,0,1,306.744,239.846Z"/>
        <path id="패스_6493" data-name="패스 6493" class="cls-1" d="M306.744,244.541a1.93,1.93,0,1,1,1.93-1.93A1.93,1.93,0,0,1,306.744,244.541Z"/>
      </g>
      <path id="패스_6494" data-name="패스 6494" class="cls-1" d="M292.865,242.527v-.964H303.43l0-3.73a2.842,2.842,0,0,0-2.928-2.747H289.314v2.762h10.569v.967H289.316v3.724a2.848,2.848,0,0,0,2.934,2.75h11.182v-2.762Z"/>
      <path id="패스_6495" data-name="패스 6495" class="cls-1" d="M243.744,249.477a1.932,1.932,0,1,0-1.93-1.932A1.932,1.932,0,0,0,243.744,249.477Z"/>
      <g id="그룹_6487" data-name="그룹 6487">
        <rect id="사각형_2249" data-name="사각형 2249" class="cls-1" width="15.584" height="2.928" transform="translate(234.797 243.36)"/>
      </g>
      <path id="패스_6496" data-name="패스 6496" class="cls-1" d="M251.8,242.281a2.024,2.024,0,1,1,2.025-2.024A2.023,2.023,0,0,1,251.8,242.281Z"/>
      <path id="패스_6497" data-name="패스 6497" class="cls-1" d="M236.08,238.672c0-2.894,2.619-5.239,5.852-5.239s5.853,2.345,5.853,5.239-2.621,5.238-5.853,5.238S236.08,241.563,236.08,238.672Zm5.852,2.28a2.282,2.282,0,1,0-2.3-2.28A2.29,2.29,0,0,0,241.932,240.952Z"/>
      <path id="패스_6498" data-name="패스 6498" class="cls-1" d="M195.957,237.983a1.573,1.573,0,0,1,1.486.887l3.826,5.619h3.893l-5.1-7.488c-1.2-1.812-2.853-1.947-4.379-1.947H191.5c-1.521,0-3.182.135-4.375,1.947l-5.1,7.488h3.893l3.826-5.619a1.57,1.57,0,0,1,1.483-.887Z"/>
      <g id="그룹_6488" data-name="그룹 6488">
        <rect id="사각형_2250" data-name="사각형 2250" class="cls-1" width="3.551" height="6.323" transform="translate(191.82 247.121)"/>
        <rect id="사각형_2251" data-name="사각형 2251" class="cls-1" width="23.855" height="2.928" transform="translate(181.668 245.855)"/>
      </g>
      <path id="패스_6499" data-name="패스 6499" class="cls-1" d="M174.361,238.417a.4.4,0,0,0-.4-.4l-16.855,0v-2.932h17.656a3.064,3.064,0,0,1,3.158,2.962l0,3.814h-3.553Z"/>
      <path id="패스_6500" data-name="패스 6500" class="cls-1" d="M150.5,234.431h-3.549V250.2H133.644a.4.4,0,0,1-.4-.4v-2.5h-3.553l0,2.87a3.064,3.064,0,0,0,3.16,2.962l17.659-.011Z"/>
      <path id="패스_6501" data-name="패스 6501" class="cls-1" d="M256.93,234.431h-3.549V250.2H240.06a.4.4,0,0,1-.4-.4v-2.5H236.1l0,2.87a3.064,3.064,0,0,0,3.157,2.962l17.67-.007Z"/>
      <path id="패스_6502" data-name="패스 6502" class="cls-1" d="M174.361,249.186a.4.4,0,0,0-.4-.4l-16.855,0v-2.932l17.656,0a3.064,3.064,0,0,1,3.158,2.96l0,4.633h-3.553Z"/>
      <path id="패스_6503" data-name="패스 6503" class="cls-1" d="M269,238a1.264,1.264,0,0,1,1.185.83l3.163,8.477h3.9l-3.141-8.432s-.6-2.437-3.953-2.437h-2.7c-3.349,0-3.951,2.437-3.951,2.437l-3.141,8.432h3.9l3.164-8.477A1.262,1.262,0,0,1,268.6,238Z"/>
      <g id="그룹_6489" data-name="그룹 6489">
        <path id="패스_6504" data-name="패스 6504" class="cls-1" d="M266.953,238.015l1.889-.378,1.291.378h6.707v-2.929H260.791v2.929Z"/>
      </g>
    </g>
    <g id="그룹_6493" data-name="그룹 6493">
      <g id="그룹_6492" data-name="그룹 6492">
        <g id="그룹_6491" data-name="그룹 6491">
          <path id="패스_6505" data-name="패스 6505" class="cls-2" d="M99.919,254.768A14.021,14.021,0,0,0,121,238.476Z"/>
          <path id="패스_6506" data-name="패스 6506" class="cls-2" d="M91.774,229.153a14.019,14.019,0,0,0-13.211,18.712l21.079-16.3A13.944,13.944,0,0,0,91.774,229.153Z"/>
          <path id="패스_6507" data-name="패스 6507" class="cls-2" d="M99.782,240.489l14.661-9.662a14.072,14.072,0,0,0-1.817-.82L99.782,240.093,81.294,252.481a14.335,14.335,0,0,0,1.27,1.256Z"/>
          <path id="패스_6508" data-name="패스 6508" class="cls-2" d="M99.782,243.368l16.758-11.153a14.413,14.413,0,0,0-1.521-1.056L99.782,242.967,83.026,254.124a14.246,14.246,0,0,0,1.522,1.059Z"/>
          <path id="패스_6509" data-name="패스 6509" class="cls-2" d="M99.782,246.244l18.488-12.386A13.926,13.926,0,0,0,117,232.6L99.782,245.841l-14.662,9.67a13.644,13.644,0,0,0,1.819.82Z"/>
          <path id="패스_6510" data-name="패스 6510" class="cls-2" d="M99.782,237.616l12.094-7.857a13.621,13.621,0,0,0-2.216-.481l-9.878,7.936L79.89,250.609a13.34,13.34,0,0,0,1.033,1.434Z"/>
          <path id="패스_6511" data-name="패스 6511" class="cls-2" d="M99.782,234.736l8.816-5.56q-.4-.022-.806-.023a14.074,14.074,0,0,0-2.522.226l-5.488,4.961L78.809,248.512a14.139,14.139,0,0,0,.786,1.607Z"/>
          <path id="패스_6512" data-name="패스 6512" class="cls-2" d="M99.782,249.121l19.892-13.39a14.594,14.594,0,0,0-1.031-1.435L99.782,248.72l-12.1,7.859a13.816,13.816,0,0,0,2.218.484Z"/>
          <path id="패스_6513" data-name="패스 6513" class="cls-2" d="M99.782,252l20.974-14.168a14.218,14.218,0,0,0-.788-1.606L99.782,251.594l-8.824,5.569c.27.015.543.025.816.025a14.041,14.041,0,0,0,2.534-.231Z"/>
        </g>
      </g>
    </g>
  </g>
</svg>
