<svg xmlns="http://www.w3.org/2000/svg" xmlns:xlink="http://www.w3.org/1999/xlink" width="187.091" height="55.609" viewBox="0 0 187.091 55.609">
  <defs>
    <style>
      .cls-1 {
        fill: none;
      }

      .cls-2 {
        fill: #003f8a;
      }

      .cls-3 {
        fill: #464545;
      }

      .cls-4 {
        fill: #f68912;
      }

      .cls-5 {
        fill: #91b508;
      }

      .cls-6 {
        fill: #004c9b;
      }

      .cls-7 {
        clip-path: url(#clip-path);
      }

      .cls-8 {
        fill: url(#radial-gradient);
      }

      .cls-9 {
        fill: #fff;
      }

      .cls-10 {
        fill: #ec6500;
      }

      .cls-11 {
        fill: #adbf00;
      }
    </style>
    <clipPath id="clip-path">
      <path id="패스_7801" data-name="패스 7801" class="cls-1" d="M1103.453,136.155l4.418,51.943a216.978,216.978,0,0,0,26.966-1.45,164.584,164.584,0,0,0,18.138-5.765c-5.876-28.94-25.11-39.52-49.523-44.834Z" transform="translate(-1103.453 -136.048)"/>
    </clipPath>
    <radialGradient id="radial-gradient" cx="0.962" cy="0.02" r="1.306" gradientTransform="matrix(1.053, 0, 0, -1.052, 0.31, 40.463)" gradientUnits="objectBoundingBox">
      <stop offset="0" stop-color="#00a4e8"/>
      <stop offset="1" stop-color="#0058a7"/>
    </radialGradient>
  </defs>
  <g id="그룹_6699" data-name="그룹 6699" transform="translate(-1103.406 -135.669)">
    <g id="그룹_6692" data-name="그룹 6692" transform="translate(1159.705 157.717)">
      <path id="패스_7792" data-name="패스 7792" class="cls-2" d="M1197.379,185.155a15.757,15.757,0,0,0,5.332-3.445,9.035,9.035,0,0,0,2.9-5.073h-6.9v-2.911h11.022a14.082,14.082,0,0,1-3,8.492,16.968,16.968,0,0,1-7.382,5.313Zm12.612,13a5.705,5.705,0,1,1,5.922-5.688A5.779,5.779,0,0,1,1209.991,198.159Zm2.538-5.688a2.684,2.684,0,0,0-2.538-2.776,2.725,2.725,0,0,0-2.589,2.776,2.657,2.657,0,0,0,2.512,2.75A2.741,2.741,0,0,0,1212.529,192.471Zm.512-20h3.384v14.74h-3.384V183.9h-3.871v-2.8h3.871v-2.323h-3.281v-2.8h3.281Z" transform="translate(-1197.379 -172.471)"/>
      <path id="패스_7793" data-name="패스 7793" class="cls-2" d="M1233.016,186.268a17.736,17.736,0,0,0,5.537-3.845,10.191,10.191,0,0,0,2.973-5.582h-6.844v-2.964H1245.4a15.191,15.191,0,0,1-2.845,8.839,17.784,17.784,0,0,1-7.331,5.768Zm15.329-13.752h3.409v21.148h-3.409Z" transform="translate(-1211.666 -172.489)"/>
      <path id="패스_7794" data-name="패스 7794" class="cls-2" d="M1270.453,179.138h3.357v5.421c2.9-.107,5.973-.347,7.639-.561v2.8a102.225,102.225,0,0,1-10.407.694l-4.357.027v-2.857h3.769Zm4.716,4.006a30.753,30.753,0,0,0,.872-6.969h-7.562v-2.991h11.1a59.369,59.369,0,0,1-1,9.96Zm.18,6.141v4.726h10.483v2.964h-13.893v-7.691Zm10.149,1.068h-3.383V172.516h3.383v7.69h3.179v2.91H1285.5Z" transform="translate(-1225.163 -172.489)"/>
      <path id="패스_7795" data-name="패스 7795" class="cls-2" d="M1305.533,178.844h3.357v4.94c2.846-.134,5.819-.374,7.459-.561v2.8c-1.872.241-7.1.668-10.406.694l-4.179.027v-2.857h3.769Zm4.716,3.872a29.679,29.679,0,0,0,.923-6.542h-7.613v-2.991h11.1a49.226,49.226,0,0,1-1,9.533Zm9.689,9.933a6.049,6.049,0,1,1-6.025-5.5A5.805,5.805,0,0,1,1319.938,192.649Zm-3.436,0a2.627,2.627,0,1,0-2.665,2.616A2.607,2.607,0,0,0,1316.5,192.649Zm4.076-5.207H1317.2V172.516h3.383v6.809h3.179v2.91h-3.179Z" transform="translate(-1239.227 -172.489)"/>
      <path id="패스_7796" data-name="패스 7796" class="cls-3" d="M1364.169,183.155h2.87v2.136h-6.126V189.3h9v2.217h-20.276V189.3h8.869v-4.005h-5.9v-2.136h2.82l-.052-6.008h-2.513v-2.136h13.868v2.136h-2.487Zm-6.511-6.008.052,6.008h4.2l.077-6.008Z" transform="translate(-1258.418 -173.489)"/>
      <path id="패스_7797" data-name="패스 7797" class="cls-3" d="M1389.264,178.3h6.794v2.056h-6.794v2.43l2.589-.027a80.7,80.7,0,0,0,8.074-.533v2.082a75.714,75.714,0,0,1-8.356.668h-4.844V173.9h9.791v2.082h-7.255Zm11.664,12.391v-1.949h-9.485v-2.03h12.15v5.928h-9.458v2.109h9.945v2.11h-12.637v-6.168Zm.486-17.6h2.461v12.416h-2.461v-5.527h-3.9v-2.137h3.9Z" transform="translate(-1273.288 -172.721)"/>
    </g>
    <g id="그룹_6697" data-name="그룹 6697" transform="translate(1103.406 135.669)">
      <g id="그룹_6693" data-name="그룹 6693">
        <path id="패스_7798" data-name="패스 7798" class="cls-4" d="M1174.475,213.635l-.451-2.783a164.46,164.46,0,0,1-18.185,5.784q9.389-1.095,18.636-3" transform="translate(-1124.426 -165.81)"/>
        <path id="패스_7799" data-name="패스 7799" class="cls-5" d="M1107.852,187.943l-4.446-52.274,1.113,55.609a164.211,164.211,0,0,0,30.3-4.782,215.88,215.88,0,0,1-26.966,1.447" transform="translate(-1103.406 -135.669)"/>
        <path id="패스_7800" data-name="패스 7800" class="cls-6" d="M1134.819,186.5A165.361,165.361,0,0,0,1153,180.714l-6.221-38.371a305.427,305.427,0,0,1-43.377-6.674l4.446,52.274a216.149,216.149,0,0,0,26.966-1.446" transform="translate(-1103.406 -135.669)"/>
      </g>
      <g id="그룹_6695" data-name="그룹 6695" transform="translate(0.028 0.227)">
        <g id="그룹_6694" data-name="그룹 6694" class="cls-7">
          <rect id="사각형_2294" data-name="사각형 2294" class="cls-8" width="49.523" height="52.126" transform="translate(0 0)"/>
        </g>
      </g>
      <g id="그룹_6696" data-name="그룹 6696" transform="translate(2.623 3.856)">
        <path id="패스_7802" data-name="패스 7802" class="cls-9" d="M1144.027,161.261c-.231.2-.865-.122-1.409-.729a2.755,2.755,0,0,1-.568-.934.868.868,0,0,1-.042-.286.259.259,0,0,1,.1-.192c.241-.17.853.161,1.37.732s.772,1.213.548,1.41m-1.882,1.535a.559.559,0,0,0-.467.1c-.4.351-.058,1.449.8,2.45.072.084.144.162.216.235-.216,1.193-.554,3.079-.679,3.763l-1.008-.832a4.1,4.1,0,0,0-1.03-2.271,4.313,4.313,0,0,0-1.438-1.163l-.837-2.2a.641.641,0,0,0,.466-.1c.432-.316.179-1.258-.539-2.1a3.784,3.784,0,0,0-.5-.5c.055-.782.127-1.754.18-2.521.715.483,1.388.685,1.757.48a.537.537,0,0,0,.26-.477l.7.495c.255.557,1.346,2.929,2.121,4.631m2.141,3.1c-.177.2-.556.109-.974-.183a3.169,3.169,0,0,1-.55-.492c-.025-.029-.053-.057-.078-.086-.613-.712-.867-1.5-.583-1.755a.37.37,0,0,1,.279-.081,1.082,1.082,0,0,1,.454.157,3.228,3.228,0,0,1,.824.69c.588.675.875,1.461.629,1.75m-6.562,5.438a.418.418,0,0,1,.069.1c.223.336.294.718.141.89-.177.194-.548.049-.833-.316s-.374-.812-.2-1a.375.375,0,0,1,.451.007,1.242,1.242,0,0,1,.368.32m6.531,1.784-7.247,1.405a8.272,8.272,0,0,0-.669-1.025,7.01,7.01,0,0,0-1.465-1.431c.032-.9.064-1.759.086-2.4a.769.769,0,0,0,.84-.052,1.171,1.171,0,0,0,.034-1.291l2-.551a3.474,3.474,0,0,0,.219.293c.086.11.18.212.275.313l-.874,2.385c-.32-.216-.635-.265-.815-.082-.274.269-.143.944.291,1.5s1.014.78,1.275.483.1-.957-.322-1.493l.85-2.416c.823.7,1.668.918,2.063.473a.8.8,0,0,0,.162-.311c.82.679,1.81,1.5,2.708,2.247a5.394,5.394,0,0,0,.587,1.954m.336-2.044c.38-.557,1.431-.106,2.361,1,.954,1.116,1.493,2.559,1.181,3.219-.325.693-1.444.262-2.461-.97a5.182,5.182,0,0,1-.374-.494,6.086,6.086,0,0,1-.469-.821,3.815,3.815,0,0,1-.366-1.185,1.693,1.693,0,0,1,.008-.437.833.833,0,0,1,.12-.309m-7.923,4.618a3.04,3.04,0,0,1-.117,2.747c-.784,1.008-2.456.493-3.668-1.166a4.581,4.581,0,0,1-.943-3.676,1.624,1.624,0,0,1,.246-.525,1.239,1.239,0,0,1,.186-.217,1.624,1.624,0,0,1,1.86-.111,3.623,3.623,0,0,1,.607.373,4.682,4.682,0,0,1,.965.97,4.811,4.811,0,0,1,.394.593,5.237,5.237,0,0,1,.472,1.012m-1.455-7.83a1.772,1.772,0,0,1,.3.545.715.715,0,0,1-.068.757.487.487,0,0,1-.467.063,1.394,1.394,0,0,1-.559-.349,2.013,2.013,0,0,1-.178-.2c-.4-.506-.485-1.1-.21-1.308.255-.2.749-.009,1.125.427.017.026.036.041.053.066m-3.427-2.468a.454.454,0,0,1,.037-.4.231.231,0,0,1,.062-.059c.2-.131.574.027.83.361s.314.706.119.85-.577-.02-.839-.358a1.148,1.148,0,0,1-.208-.391m-2.815,4.583a1.361,1.361,0,0,0-.043-.537c.644-.143,1.507-.339,2.12-.475a.138.138,0,0,1,.014.025c.436.573,1.065.815,1.4.543s.235-.924-.185-1.471a1.3,1.3,0,0,0-1.222-.616c-.094-.11-.192-.225-.293-.338a1.758,1.758,0,0,0-.405-1.686c-.073-.093-.151-.181-.231-.264.073-.21.147-.431.228-.652l1.114.69a1.624,1.624,0,0,0,.331.723c.407.516.982.761,1.283.54s.208-.794-.182-1.293-.952-.736-1.257-.541a.378.378,0,0,0-.14.169l-1.026-.644c.043-.123.083-.247.123-.354a.7.7,0,0,0,.658.047.545.545,0,0,0,.15-.643l.788.01a4.294,4.294,0,0,0,.329.475,2.9,2.9,0,0,0,2.151,1.262l1.685,2.543-.882.23a.349.349,0,0,0-.037-.047c-.566-.714-1.345-1.043-1.743-.732-.418.319-.293,1.19.3,1.945a2.289,2.289,0,0,0,.4.43c-.031.675-.074,1.542-.118,2.395a2.392,2.392,0,0,0-2.744.035,2.056,2.056,0,0,0-.334.384c-.818-.785-1.636-1.574-2.236-2.149m-2.647,2.682c-.442.335-1.179.086-1.63-.555a1.24,1.24,0,0,1,.023-1.719,1.078,1.078,0,0,1,1.257.222,1.714,1.714,0,0,1,.322.346,1.25,1.25,0,0,1,.132.214,1.183,1.183,0,0,1-.1,1.493m1.388-2.688a1.288,1.288,0,0,1-.3-.295,1.33,1.33,0,0,1-.133-.237.671.671,0,0,1,.1-.831c.249-.166.652-.025.943.309.023.024.047.052.069.077a1.2,1.2,0,0,1,.221.516.625.625,0,0,1,.011.13.491.491,0,0,1-.176.418.369.369,0,0,1-.119.056.706.706,0,0,1-.609-.144m2.36-4.369a1.243,1.243,0,0,1,.3,1.057.441.441,0,0,1-.182.252.59.59,0,0,1-.146.066,1.289,1.289,0,0,1-1.176-.6c-.394-.522-.429-1.108-.088-1.313a.712.712,0,0,1,.667.026,1.746,1.746,0,0,1,.558.428.6.6,0,0,1,.07.085m1.2,3.223a1.149,1.149,0,0,1-.224-.482.638.638,0,0,1-.017-.216.369.369,0,0,1,.14-.275.351.351,0,0,1,.179-.059.959.959,0,0,1,.722.425c.276.36.333.8.114.971-.2.159-.57.03-.851-.289-.021-.025-.046-.048-.064-.074m-4.128-3.151a1.35,1.35,0,0,0-.3-1.019,1.74,1.74,0,0,0-.314-.324l.358-3.412,2.8,1.8a1.6,1.6,0,0,0,.291.558.843.843,0,0,0,.092.1l-.494,1.355a1.173,1.173,0,0,0-1.137-.117c-.516.3-.475,1.174.111,1.951a1.8,1.8,0,0,0,1.885.865l.3.341a1.067,1.067,0,0,0,.028.632l-.916.189Zm-1.515-.352c-.032-.046-.058-.092-.085-.138a.711.711,0,0,1-.073-.63.353.353,0,0,1,.153-.162.486.486,0,0,1,.247-.048,1.01,1.01,0,0,1,.622.322,1.18,1.18,0,0,1,.1.122.99.99,0,0,1,.212.522.428.428,0,0,1-.187.412.457.457,0,0,1-.289.049,1.09,1.09,0,0,1-.7-.448m-1.14-6.615a2.328,2.328,0,0,0-.56-1.5,4.018,4.018,0,0,0-1.415-1.144c-.1-.638-.216-1.322-.28-1.743.885.159,1.674.294,2.256.4.04.061.084.122.134.191a1.949,1.949,0,0,0,1.725.841.421.421,0,0,0,.258-.192c.618.376,1.375.839,1.984,1.212a1.717,1.717,0,0,0,.381.778,2.507,2.507,0,0,0,.692.6l.55,3.9a.583.583,0,0,0-.348.037.371.371,0,0,0-.074.054c-1.233-.793-3.632-2.346-5.3-3.424m-1.055.358a2.252,2.252,0,0,1-2.216-1c-.574-.77-.489-1.538.161-1.721a1.264,1.264,0,0,1,.433-.026,2.021,2.021,0,0,1,.783.247,2.892,2.892,0,0,1,.914.771,1.75,1.75,0,0,1,.406,1,.764.764,0,0,1-.194.545.8.8,0,0,1-.286.183m1.489-5.1a.629.629,0,0,1,.263,0,1.224,1.224,0,0,1,.42.172,1.811,1.811,0,0,1,.445.388,1.031,1.031,0,0,1,.225.439.364.364,0,0,1-.071.343.28.28,0,0,1-.139.084,1.318,1.318,0,0,1-1.156-.565.337.337,0,0,1-.03-.047.918.918,0,0,1-.2-.463.307.307,0,0,1,.238-.353m.035-3.952,2.448.786,2.529,2.763c-.425.287-.273,1.1.418,1.928l.177.206-.664.786a1.272,1.272,0,0,0-1-.268.409.409,0,0,0-.231.192l-1.96-1.2a1.519,1.519,0,0,0-.354-.747,2.673,2.673,0,0,0-.765-.639Zm-3.248,1.157a2.924,2.924,0,0,0-.276-.418,4.031,4.031,0,0,0-1.556-1.165l-.745-2.475,1.057.876a.878.878,0,0,0,.255.792,2.236,2.236,0,0,0,1.684.881.38.38,0,0,0,.379-.44l2.078.669.286,1.957Zm-.364.251a.54.54,0,0,1-.467.711,2.483,2.483,0,0,1-2.035-1.013c-.506-.658-.391-1.241.228-1.308a.807.807,0,0,1,.228,0,2.186,2.186,0,0,1,.712.2,2.964,2.964,0,0,1,1.024.8,2.076,2.076,0,0,1,.162.25,1.024,1.024,0,0,1,.147.362m-.463-3.357a1.536,1.536,0,0,1,.984.5.775.775,0,0,1,.074.079.7.7,0,0,1,.193.46.255.255,0,0,1-.262.237,1.516,1.516,0,0,1-1.126-.588.693.693,0,0,1-.185-.461c.011-.132.1-.222.28-.234.011,0,.025,0,.042,0m4.557-.66,4.016,2.275a2.384,2.384,0,0,0,.53.89,3.892,3.892,0,0,0,1.808,1.232l2.311,3.507-1.287-.216c-.078-.105-.159-.215-.251-.326a3.114,3.114,0,0,0-2.426-1.295l-5.147-5.62a.607.607,0,0,0,.447-.449m-3.757-1.524c-.667-.807-.576-1.446.168-1.435a3.908,3.908,0,0,1,2.429,1.38,1.865,1.865,0,0,1,.456.831.574.574,0,0,1-.011.343.431.431,0,0,1-.276.253.847.847,0,0,1-.218.04h-.03a3.811,3.811,0,0,1-2.517-1.411m8.454,3.515a2.285,2.285,0,0,1,1.564.884c.479.549.572,1.061.189,1.138a.3.3,0,0,1-.065.009.821.821,0,0,1-.307-.042,2.9,2.9,0,0,1-1.235-.862,1.943,1.943,0,0,1-.364-.578.593.593,0,0,1-.037-.353.279.279,0,0,1,.255-.2m.55,5.989c-.483-.577-.6-1.137-.336-1.364a.43.43,0,0,1,.157-.082.206.206,0,0,1,.05-.009,2.268,2.268,0,0,1,1.713.936c.046.053.084.107.125.156a2.336,2.336,0,0,1,.3.536c.137.362.084.66-.18.763a1.515,1.515,0,0,1-1.218-.371,3.556,3.556,0,0,1-.549-.5.588.588,0,0,0-.057-.068m6.721,5.44c.523.61.7,1.285.382,1.506a.437.437,0,0,1-.266.068,1.222,1.222,0,0,1-.549-.179,2.81,2.81,0,0,1-.752-.644,2.6,2.6,0,0,1-.441-.727,1.3,1.3,0,0,1-.082-.41.4.4,0,0,1,.182-.365.872.872,0,0,1,.8.128,2.282,2.282,0,0,1,.428.311,3.467,3.467,0,0,1,.3.312m-4.771,2.387a2.526,2.526,0,0,1-.231-.455c-.169-.464-.122-.869.167-1.024a1.085,1.085,0,0,1,1.033.174,3.021,3.021,0,0,1,.476.368c.083.087.167.177.249.272.555.681.708,1.452.33,1.738,0,0-.013.007-.017.01a.549.549,0,0,1-.336.1,2.2,2.2,0,0,1-1.478-.906,2.115,2.115,0,0,1-.194-.275m.5-4.08a.648.648,0,0,1,.06.408.247.247,0,0,1-.124.164c-.245.122-.711-.105-1.04-.5-.275-.334-.356-.675-.224-.841a.258.258,0,0,1,.09-.076.383.383,0,0,1,.218-.019,1.449,1.449,0,0,1,.806.521,1.622,1.622,0,0,1,.214.346m-3.916-1.68a1.148,1.148,0,0,1-.237-.447.381.381,0,0,1,.041-.357.257.257,0,0,1,.123-.089.76.76,0,0,1,.559.107,1.676,1.676,0,0,1,.5.418,1.3,1.3,0,0,1,.086.113c.238.349.252.687.017.785a.558.558,0,0,1-.291.005,1.275,1.275,0,0,1-.4-.18,1.88,1.88,0,0,1-.391-.355m1.434,4.764c-.145-.939-.417-2.777-.588-3.889a.823.823,0,0,0,.524.008c.391-.168.315-.763-.151-1.33.055-.067.115-.133.172-.208l.917,1.2c-.266.216-.164.766.28,1.305.49.6,1.189.935,1.549.746a.4.4,0,0,0,.207-.325l.562.286-.424,1.543a1.615,1.615,0,0,0-1.528-.31c-.419.227-.48.819-.209,1.5-.278-.007-.562-.011-.785-.016-.023-.032-.044-.067-.065-.1a2.122,2.122,0,0,0-.461-.419m.271.525a1.029,1.029,0,0,1,.211.452.315.315,0,0,1-.125.34.4.4,0,0,1-.333.008,1.128,1.128,0,0,1-.5-.374.073.073,0,0,1-.025-.033.824.824,0,0,1-.111-.185c-.123-.253-.106-.488.053-.578l.045-.011a.266.266,0,0,1,.116-.018.739.739,0,0,1,.44.178,1.251,1.251,0,0,1,.217.206c0,.006.01.008.014.015m6.428,2.314c-.437.345-.367,1.213.123,2.142l-.742.192c-.387-.571-1.1-1.639-1.71-2.56a.184.184,0,0,1,.033-.019c.543-.393.327-1.48-.456-2.434a4.455,4.455,0,0,0-.428-.454c.168-.666.364-1.4.435-1.669l.724.37a3.444,3.444,0,0,0,.645,1.11,3.762,3.762,0,0,0,1.174.964l.819,2.211a.819.819,0,0,0-.617.146m1.128,2.891c-.047-.056-.1-.111-.139-.163s-.07-.087-.1-.129a3.451,3.451,0,0,1-.351-.562c-.318-.631-.356-1.213-.06-1.46a.533.533,0,0,1,.368-.117,1.27,1.27,0,0,1,.564.165,3.222,3.222,0,0,1,.953.8,3,3,0,0,1,.729,1.573.924.924,0,0,1-.047.4.835.835,0,0,1-.1.17c-.277.3-.85.159-1.415-.3a3.771,3.771,0,0,1-.4-.374m-2.83-11.919a6.447,6.447,0,0,0,.413.536,6.375,6.375,0,0,0,.851.818c-.066.8-.153,1.767-.212,2.5a1.28,1.28,0,0,0-1.186-.24.566.566,0,0,0-.258.572c-.579-.292-1.24-.63-1.764-.9a2.116,2.116,0,0,0-.369-.628,2.02,2.02,0,0,0-1.292-.782c-.375-.489-.806-1.047-1.034-1.349.1-.122.191-.24.287-.361a2.173,2.173,0,0,0,1.826.6c.388-.155.439-.622.2-1.177.778.122,1.74.277,2.54.4m.224-.419c-.232-.495-.22-.884.083-.995.442-.158,1.338.34,2.027,1.11a2.874,2.874,0,0,1,.709,1.241.728.728,0,0,1,.011.268.364.364,0,0,1-.191.294c-.252.129-.7,0-1.174-.306a3.525,3.525,0,0,1-.387-.289,4.09,4.09,0,0,1-.534-.524c-.088-.1-.167-.2-.239-.291a3.531,3.531,0,0,1-.3-.507m9.191,28.9c-.37.846-1.454.552-2.387-.676-.917-1.208-1.3-2.8-.862-3.536a.708.708,0,0,1,.633-.373,1.466,1.466,0,0,1,.736.243,3.553,3.553,0,0,1,.918.857c.874,1.114,1.314,2.674.962,3.486m-21.627-19.733a.94.94,0,0,1-1.057-.419c-.273-.387-.247-.813.058-.952a.939.939,0,0,1,1.031.424,1.365,1.365,0,0,1,.091.136.7.7,0,0,1,.05.637.4.4,0,0,1-.174.174m-6-11.288a1.2,1.2,0,0,1-1.023,1.446,3.522,3.522,0,0,1-2.235-.411,4.568,4.568,0,0,1-.66-.4,4.154,4.154,0,0,1-.974-.957c-.856-1.215-.467-2.31.794-2.455a4.4,4.4,0,0,1,3.614,1.731,2.757,2.757,0,0,1,.316.536,2.069,2.069,0,0,1,.167.509m-4.2,4.278a1.472,1.472,0,0,1-.668,2.436,3.283,3.283,0,0,1-3.419-1.373,1.462,1.462,0,0,1,.865-2.424,3,3,0,0,1,1.828.24,3.679,3.679,0,0,1,.718.419,3.18,3.18,0,0,1,.676.7m3.016-12.891a3.29,3.29,0,0,1-2.235-1.2c-.513-.655-.313-1.148.41-1.112a3.39,3.39,0,0,1,2.155,1.182c.309.388.375.727.218.936a.585.585,0,0,1-.374.188,1.108,1.108,0,0,1-.173.008m25.476,13.827a.377.377,0,0,0-.144.316l-2.282-1.618a4.025,4.025,0,0,0-1.021-1.808c-.956-1.078-2.215-1.776-2.845-1.564-.456.152-.469.744-.091,1.492l-.912-.154-2.336-3.522a.888.888,0,0,0,.145-.014c.526-.12.382-.838-.28-1.6a3.262,3.262,0,0,0-2.176-1.232.393.393,0,0,0-.372.329l-3.97-2.274a2.674,2.674,0,0,0-.669-1.241,5.6,5.6,0,0,0-3.411-1.945c-1.068-.033-1.219.868-.273,2.022a5.308,5.308,0,0,0,3.641,2.01c.01,0,.015,0,.017,0l2.124,2.32-4.6-1.511a.873.873,0,0,0-.055-.084,2.325,2.325,0,0,0-1.633-.876c-.025.007-.056.009-.071.014l-3.187-2.643c.266-.284.195-.788-.265-1.361a4.778,4.778,0,0,0-2.985-1.646c-1.026-.061-1.32.627-.612,1.544a4.615,4.615,0,0,0,3.157,1.695,1.5,1.5,0,0,0,.339-.038l1.358,1.127.852,2.946a1.678,1.678,0,0,0-.452-.017c-.872.086-1.038.9-.338,1.815a3.44,3.44,0,0,0,2.856,1.412.767.767,0,0,0,.614-1.066l3.061.648.22,1.474a1.015,1.015,0,0,0-.491-.028.479.479,0,0,0-.352.628l-6.013-1.088a4.334,4.334,0,0,0-.5-.852,6.287,6.287,0,0,0-5.049-2.441c-1.815.176-2.425,1.718-1.207,3.463a6.039,6.039,0,0,0,1.543,1.489l-.863,1.281a4.282,4.282,0,0,0-2.668-.426c-1.648.329-2.274,1.844-1.276,3.387a4.583,4.583,0,0,0,4.839,1.92c1.5-.482,1.854-2.011.882-3.4a4.417,4.417,0,0,0-1.069-1.063c.273-.419.552-.868.826-1.293a5.056,5.056,0,0,0,3.345.629,1.7,1.7,0,0,0,1.364-2.191c.986.174,2.055.36,3.058.533l.231,1.619a1.856,1.856,0,0,0-.749.014c-.917.242-1.052,1.311-.249,2.389.811,1.1,2.232,1.718,3.108,1.387a.972.972,0,0,0,.459-.346l2.015,1.3c-.08.672-.285,2.439-.408,3.451a.76.76,0,0,0-.535.042.577.577,0,0,0-.3.385c-.346-.1-.75-.228-1.122-.341a1.489,1.489,0,0,0-.215-.4,1.42,1.42,0,0,0-1.554-.636c-.467.209-.513.849-.1,1.438a1.413,1.413,0,0,0,1.606.636.637.637,0,0,0,.32-.409l1.132.341a1.869,1.869,0,0,0,.221.4,1.469,1.469,0,0,0,1.3.676l2.42,2.616-.455.1c-.007-.01-.014-.013-.019-.024-.436-.589-1.111-.853-1.52-.584-.373.244-.4.847-.078,1.416l-.7.632a1.669,1.669,0,0,0-1.992-.448c-.686.448-.72,1.591-.052,2.553.677.979,1.79,1.347,2.444.829a1.853,1.853,0,0,0,.055-2.382c.237-.222.482-.449.686-.643a1.061,1.061,0,0,0,1.209.259l2.276,2.18c-.515,1.368-.089,3.533,1.245,5.388,1.754,2.428,4.172,3.133,5.261,1.624.692-.961.639-2.575.027-4.133l3.667-.794,1.079,4.28a1,1,0,0,0-1.031.488c-.622,1.005-.119,3.233,1.182,4.949,1.32,1.751,2.848,2.153,3.356.931.479-1.154-.155-3.32-1.369-4.855a4.851,4.851,0,0,0-1.415-1.27l-1.223-4.649,3-.653a10.225,10.225,0,0,0,.644.89c1.474,1.791,3.078,2.39,3.522,1.367.419-.961-.368-3-1.7-4.557-1.305-1.531-2.771-2.173-3.318-1.421a1.161,1.161,0,0,0-.192.506l-1.042-.865.609-3.785c.637.48,1.22.628,1.472.327.342-.416-.068-1.511-.888-2.447a4.294,4.294,0,0,0-1.235-1.006l-2.05-4.418c.374.267.744.528,1.074.761a3.6,3.6,0,0,0,.815,1.376c.759.859,1.658,1.32,1.975,1.026s-.054-1.165-.773-1.967-1.564-1.252-1.907-1.028" transform="translate(-1107.784 -142.106)"/>
      </g>
    </g>
    <g id="그룹_6698" data-name="그룹 6698" transform="translate(1161.236 138.011)">
      <path id="패스_7803" data-name="패스 7803" class="cls-10" d="M1201.076,151.131c.072-.017.107-.035.107-.125l1.463-8.369-.982-.053c.09-.482.2-1.035.286-1.517H1207c-.089.482-.2,1.035-.3,1.535l-1.071.035c-.053,0-.071.036-.089.089l-1.446,8.012c-.053.338-.071.392.713.392a8.308,8.308,0,0,0,1.66-.107.759.759,0,0,0,.411-.41l.714-1.749c.553.089,1.142.214,1.641.339-.32,1.16-.678,2.338-1.052,3.48-1.142,0-3.5-.018-5.871-.018-.785,0-1.659.018-2.373.018.089-.5.2-1.036.285-1.517Z" transform="translate(-1199.934 -140.175)"/>
      <path id="패스_7804" data-name="패스 7804" class="cls-10" d="M1215.422,152.58a5.977,5.977,0,0,1,1.962-4.247,4.8,4.8,0,0,1,3.3-1.338,2.408,2.408,0,0,1,2.588,2.23,2.951,2.951,0,0,1-1.071,1.963,8.491,8.491,0,0,1-3.89.678,2.25,2.25,0,0,0-.054.571,1.027,1.027,0,0,0,1.107,1.053,7.478,7.478,0,0,0,2.855-.661c.143.446.268.875.375,1.32a10.147,10.147,0,0,1-4.515,1.071,2.607,2.607,0,0,1-2.658-2.623Zm4.5-4.211a.92.92,0,0,0-.732.392,3.709,3.709,0,0,0-.713,1.785,3.8,3.8,0,0,0,1.713-.3.772.772,0,0,0,.447-.767c0-.5-.267-1.107-.7-1.107Z" transform="translate(-1206.143 -142.551)"/>
      <path id="패스_7805" data-name="패스 7805" class="cls-10" d="M1231.589,151.48c0,.3.232.5.661.5a11.879,11.879,0,0,0,1.981-.2,13.485,13.485,0,0,1-.018,1.463,12.967,12.967,0,0,1-3.711.607,2.159,2.159,0,0,1-1.607-1.231,1.182,1.182,0,0,1-.089-.464,23.379,23.379,0,0,1,.357-2.32c.107-.482.428-2.017.5-2.32H1228.2c.089-.482.2-1.017.3-1.5.428-.036.963-.071,1.391-.089a.24.24,0,0,0,.162-.161c.124-.536.267-1.107.392-1.552a9.076,9.076,0,0,1,2.624-.589c.035,0,.054.018.035.071-.071.392-.339,1.695-.446,2.212.839,0,1.73-.018,2.5-.018-.071.5-.214,1.125-.339,1.642-.7,0-1.731-.017-2.5-.017-.071.357-.2.945-.32,1.516a22.271,22.271,0,0,0-.411,2.427Z" transform="translate(-1211.265 -141.202)"/>
      <path id="패스_7806" data-name="패스 7806" class="cls-11" d="M1244.187,141.13c0,1.731-1.445,3.444-3.177,4.265a7.57,7.57,0,0,1-.66-.892c1.052-.749,1.659-1.481,1.659-2.177,0-.517-.445-.767-.891-.911.2-1.338,1.017-1.837,1.695-1.837a1.509,1.509,0,0,1,1.374,1.535Z" transform="translate(-1216.137 -139.578)"/>
      <path id="패스_7807" data-name="패스 7807" class="cls-11" d="M1249.6,148.886a.407.407,0,0,0-.108-.214,1.548,1.548,0,0,0-.749-.2,1.581,1.581,0,0,0-.821.179.632.632,0,0,0-.357.588c0,.464.66.642,1.373.893,1.161.446,1.946,1.017,1.946,2.123a2.664,2.664,0,0,1-1.41,2.391,5.372,5.372,0,0,1-2.658.571,6.928,6.928,0,0,1-2.356-.339c.053-.891.107-1.784.161-2.587.428-.054.891-.071,1.338-.089l.178,1.089c.017.071.036.16.107.2a1.973,1.973,0,0,0,.963.249,1.654,1.654,0,0,0,.8-.143.647.647,0,0,0,.3-.572c0-.446-.375-.66-1.161-.963-1.159-.428-2.194-.982-2.194-2.266a2.8,2.8,0,0,1,1.713-2.356,6.121,6.121,0,0,1,2.5-.446,5.143,5.143,0,0,1,2.088.374c-.036.785-.108,1.66-.143,2.391-.375.036-.909.053-1.374.09Z" transform="translate(-1217.784 -142.551)"/>
      <path id="패스_7808" data-name="패스 7808" class="cls-10" d="M1258.343,150.884a4.043,4.043,0,0,1,4.372-3.889,6.044,6.044,0,0,1,1.463.161.847.847,0,0,0,.321.035c.285,0,2.159-.035,2.695-.035.017.482.017.981,0,1.534-.536.018-1.142.071-1.536.09v.106a2.464,2.464,0,0,1,.179,1.053,3.6,3.6,0,0,1-.768,2.159,4.492,4.492,0,0,1-4.033,1.427c-.25.179-.482.375-.482.59,0,.375.963.375,2.534.482a4.133,4.133,0,0,1,2.017.464,1.855,1.855,0,0,1,.874,1.606c0,1.338-1.767,3-5.461,3-2.5,0-3.818-.572-3.818-1.82a.952.952,0,0,1,.375-.875c.679-.339.982-.481,1.785-.946v-.106a1.414,1.414,0,0,1-.874-1.446c0-.3.161-.375,1.642-1.3v-.107a2.535,2.535,0,0,1-1.285-2.16Zm4.925,6.371c0-.482-.464-.553-1.107-.624-.374-.054-1.641-.179-1.908-.214a1.562,1.562,0,0,0-.8,1.159c0,.554.7.785,1.535.785,1.214,0,2.284-.357,2.284-1.089Zm-2.178-5.746a.742.742,0,0,0,.714.839c.75,0,1.3-1.589,1.3-3.106a2.189,2.189,0,0,0-.09-.678.557.557,0,0,0-.588-.375c-.714,0-1.339,1.428-1.339,3.3Z" transform="translate(-1222.692 -142.551)"/>
      <path id="패스_7809" data-name="패스 7809" class="cls-10" d="M1280.909,150.118a5.519,5.519,0,0,1-2.07,4.282,4.486,4.486,0,0,1-2.909.821,3.122,3.122,0,0,1-2.623-1.088,3.176,3.176,0,0,1-.554-1.731,5.443,5.443,0,0,1,1.8-4.246,4.709,4.709,0,0,1,3.247-1.16,2.87,2.87,0,0,1,2.534,1.124,3.673,3.673,0,0,1,.571,1.981Zm-4.5,3.819a.932.932,0,0,0,.821-.536,10.518,10.518,0,0,0,.822-4.1,1.552,1.552,0,0,0-.143-.714.578.578,0,0,0-.5-.3.962.962,0,0,0-.785.392,7.408,7.408,0,0,0-1,3.837,3.254,3.254,0,0,0,.124,1,.689.689,0,0,0,.642.428Z" transform="translate(-1229.127 -142.551)"/>
    </g>
  </g>
</svg>
