<svg xmlns="http://www.w3.org/2000/svg" xmlns:xlink="http://www.w3.org/1999/xlink" width="183.755" height="67.768" viewBox="0 0 183.755 67.768">
  <defs>
    <style>
      .cls-1 {
        fill: #161615;
      }

      .cls-2 {
        fill: url(#linear-gradient);
      }
    </style>
    <linearGradient id="linear-gradient" x1="0.916" x2="0.149" y2="1" gradientUnits="objectBoundingBox">
      <stop offset="0" stop-color="#fecc00"/>
      <stop offset="1" stop-color="#d07a15"/>
    </linearGradient>
  </defs>
  <g id="그룹_6753" data-name="그룹 6753" transform="translate(-186.22 -472.033)">
    <g id="그룹_6748" data-name="그룹 6748" transform="translate(266.776 524.006)">
      <g id="그룹_6747" data-name="그룹 6747" transform="translate(0 0)">
        <path id="패스_8037" data-name="패스 8037" class="cls-1" d="M353.8,542.414v-.72h-4.841v1.324h3.075c0,1.574-1.492,3.2-3.479,3.807l.577,1.239C350.967,547.5,353.8,545.827,353.8,542.414Z" transform="translate(-306.292 -540.963)"/>
        <path id="패스_8038" data-name="패스 8038" class="cls-1" d="M395.26,547.113a3.206,3.206,0,1,0-3.5-3.177A3.267,3.267,0,0,0,395.26,547.113Zm0-5.021a1.86,1.86,0,0,1,1.87,1.848,1.93,1.93,0,0,1-1.929,1.813,1.875,1.875,0,0,1-1.851-1.813A1.919,1.919,0,0,1,395.263,542.091Z" transform="translate(-316.809 -540.728)"/>
        <path id="패스_8039" data-name="패스 8039" class="cls-1" d="M422.84,544.436a3.057,3.057,0,1,0-3.057,3.044A2.977,2.977,0,0,0,422.84,544.436Zm-4.547,0a1.552,1.552,0,0,1,1.492-1.7,1.513,1.513,0,0,1,1.459,1.7,1.551,1.551,0,0,1-1.5,1.667A1.521,1.521,0,0,1,418.293,544.437Z" transform="translate(-322.887 -540.882)"/>
        <path id="패스_8040" data-name="패스 8040" class="cls-1" d="M412.077,541.694H404.47v1.412h5.945a38.626,38.626,0,0,1-.282,4.474h-6.592v1.359h4.029v3.616h1.561v-3.616h4.031V547.58H411.69A49.5,49.5,0,0,0,412.077,541.694Z" transform="translate(-319.678 -540.963)"/>
        <path id="패스_8041" data-name="패스 8041" class="cls-1" d="M387.142,540.942H385.58v11.43h1.562v-6.847h1.541v-1.386h-1.541Z" transform="translate(-315.306 -540.78)"/>
        <path id="패스_8042" data-name="패스 8042" class="cls-1" d="M354.574,549.829a2.913,2.913,0,1,0,3.281,2.9A3.022,3.022,0,0,0,354.574,549.829Zm-.049,4.4a1.6,1.6,0,0,1-1.633-1.494,1.645,1.645,0,0,1,1.686-1.524,1.593,1.593,0,0,1,1.65,1.524A1.659,1.659,0,0,1,354.525,554.228Z" transform="translate(-306.96 -542.943)"/>
        <path id="패스_8043" data-name="패스 8043" class="cls-1" d="M357.553,542.419h-1.506v1.306h1.506v1.132h-1.506v1.306h1.506v1.624h1.56v-6.845h-1.56Z" transform="translate(-308.117 -540.78)"/>
        <rect id="사각형_2301" data-name="사각형 2301" class="cls-1" width="1.56" height="8.461" transform="translate(28.568 0.162)"/>
        <path id="패스_8044" data-name="패스 8044" class="cls-1" d="M330.42,555.492v-1.361H324.8v-3.062H323.24v4.423Z" transform="translate(-300.13 -543.245)"/>
        <rect id="사각형_2302" data-name="사각형 2302" class="cls-1" width="1.45" height="11.428" transform="translate(60.392 0.164)"/>
        <path id="패스_8045" data-name="패스 8045" class="cls-1" d="M369.27,543.967h-1.541v1.361h1.541v6.8h1.4V541.161h-1.4Z" transform="translate(-310.96 -540.833)"/>
        <path id="패스_8046" data-name="패스 8046" class="cls-1" d="M344.573,544.968h-.728v-3.86h-1.4v10.964h1.4V546.43h.728v5.943h1.447V540.944h-1.447Z" transform="translate(-304.806 -540.781)"/>
        <path id="패스_8047" data-name="패스 8047" class="cls-1" d="M426.554,542.209h-1.507v1.362h1.507v1.445h-1.507v1.361h1.507v1.151h1.559v-6.586h-1.559Z" transform="translate(-324.913 -540.78)"/>
        <path id="패스_8048" data-name="패스 8048" class="cls-1" d="M419.713,550.589v1.388h5.543v3.311h1.559v-4.7Z" transform="translate(-323.615 -543.128)"/>
        <path id="패스_8049" data-name="패스 8049" class="cls-1" d="M317.193,540.942h-1.562V549.4h1.562v-4.129h1.54v-1.438h-1.54Z" transform="translate(-298.278 -540.78)"/>
        <path id="패스_8050" data-name="패스 8050" class="cls-1" d="M315.651,555.492v-1.361H310.2v-3.062h-1.562v4.423Z" transform="translate(-296.576 -543.245)"/>
        <path id="패스_8051" data-name="패스 8051" class="cls-1" d="M292.695,551.692h4.031v2.966h1.561v-2.966h4.031v-1.361h-9.623Z" transform="translate(-292.695 -543.066)"/>
        <path id="패스_8052" data-name="패스 8052" class="cls-1" d="M390.059,551.692h2.088v2.966h1.562v-2.966h2.32v2.966h1.56v-2.966h2.091v-1.361h-9.621Z" transform="translate(-316.396 -543.066)"/>
        <path id="패스_8053" data-name="패스 8053" class="cls-1" d="M301.584,546.959v-5.507h-1.562v1.191h-4.339v-1.191h-1.559v5.507Zm-1.562-2.973V545.6h-4.339v-1.611Z" transform="translate(-293.043 -540.904)"/>
        <path id="패스_8054" data-name="패스 8054" class="cls-1" d="M309.126,545.507a7.122,7.122,0,0,0,2.792,2.662l.819-1.1A5.5,5.5,0,0,1,309.976,542v-.549h-1.7V542a5.5,5.5,0,0,1-2.76,5.071l.82,1.1A7.088,7.088,0,0,0,309.126,545.507Z" transform="translate(-295.816 -540.904)"/>
        <path id="패스_8055" data-name="패스 8055" class="cls-1" d="M323.77,545.566a7.092,7.092,0,0,0,2.789,2.662l.819-1.1a5.392,5.392,0,0,1-2.7-4.113H326.7v-1.324h-5.86v1.324h2.024a5.4,5.4,0,0,1-2.7,4.113l.819,1.1A7.122,7.122,0,0,0,323.77,545.566Z" transform="translate(-299.381 -540.963)"/>
        <path id="패스_8056" data-name="패스 8056" class="cls-1" d="M380.133,543.054h2.076v-1.36H376.35v1.36h2.076a5.715,5.715,0,0,1-2.706,5.049l.768,1.046a6.6,6.6,0,0,0,2.79-2.79,6.623,6.623,0,0,0,2.791,2.79l.769-1.046A5.712,5.712,0,0,1,380.133,543.054Z" transform="translate(-312.906 -540.963)"/>
        <path id="패스_8057" data-name="패스 8057" class="cls-1" d="M365.275,543.032v-.014h1.657v-1.324H362.02v1.324h1.656v.014a6.029,6.029,0,0,1-2.274,5.126l.844.992a6.659,6.659,0,0,0,2.23-2.687,6.675,6.675,0,0,0,2.231,2.687l.844-.992A6.03,6.03,0,0,1,365.275,543.032Z" transform="translate(-309.42 -540.963)"/>
        <path id="패스_8058" data-name="패스 8058" class="cls-1" d="M338.358,542.972h1.5V541.69H338v-.962h-1.664v.962h-1.857v1.282h1.507a2.844,2.844,0,0,0-1.583,2.646,2.766,2.766,0,1,0,5.527,0A2.836,2.836,0,0,0,338.358,542.972Zm-1.225,4.2a1.477,1.477,0,0,1-1.3-1.552,1.506,1.506,0,0,1,1.337-1.581,1.468,1.468,0,0,1,1.313,1.581A1.508,1.508,0,0,1,337.133,547.173Z" transform="translate(-302.849 -540.728)"/>
      </g>
    </g>
    <g id="그룹_6752" data-name="그룹 6752" transform="translate(186.22 472.033)">
      <g id="그룹_6750" data-name="그룹 6750" transform="translate(1.767 28.78)">
        <g id="그룹_6749" data-name="그룹 6749">
          <path id="패스_8059" data-name="패스 8059" class="cls-1" d="M188.6,511.382c-.037.029-.1.076.049.1.561.179,2.208.1,7.222,5.083,3.787,1.888,11.937.368,12.452.042C208.324,516.6,195.733,506.561,188.6,511.382Z" transform="translate(-188.556 -510.073)"/>
        </g>
      </g>
      <path id="패스_8060" data-name="패스 8060" class="cls-2" d="M235.191,481.5c-20.032,18.354-27.358,24.892-32,25.881a8.908,8.908,0,0,1-4.962-.074c3.172,2.97,5.623,5.69,11.173,5.17,2.969-.278,7.04-1.856,13.148-6.21,4.693-3.346,27.582-21.384,38.326-33.494C260.873,472.768,249.63,468.276,235.191,481.5Z" transform="translate(-189.143 -472.033)"/>
      <g id="그룹_6751" data-name="그룹 6751" transform="translate(0 44.301)">
        <path id="패스_8061" data-name="패스 8061" class="cls-1" d="M272.364,530.591H258.208v3.231h7.351l-8.271,16.467v.131h14.818V547.19h-7.957l8.22-16.464v-.138Z" transform="translate(-203.52 -530.588)"/>
        <path id="패스_8062" data-name="패스 8062" class="cls-1" d="M208.076,546.086c0,2.454-.869,4.614-3.656,5.184v2.786c5.333-.185,8.315-3.131,8.315-8.638V530.592h-4.66Z" transform="translate(-190.65 -530.589)"/>
        <path id="패스_8063" data-name="패스 8063" class="cls-1" d="M201.176,544.783a4.892,4.892,0,0,0-3.5-4.677,4.5,4.5,0,0,0,3.1-3.86c.185-4.663-4.309-5.654-7.378-5.654H186.22V550.42h7C198.069,550.42,201.216,548.952,201.176,544.783Zm-10.3-10.96h3.084a2.2,2.2,0,0,1,2.157,2.423,2.239,2.239,0,0,1-2.157,2.512h-3.084Zm3.406,13.369h-3.406v-5.2h3.406a2.333,2.333,0,0,1,2.232,2.506A2.516,2.516,0,0,1,194.281,547.191Z" transform="translate(-186.22 -530.589)"/>
        <path id="패스_8064" data-name="패스 8064" class="cls-1" d="M251.8,550.42v-3.229h-8.024v-5.2h7.889v-3.229h-7.889v-4.935H251.8v-3.231h-12.68V550.42Z" transform="translate(-199.099 -530.589)"/>
        <path id="패스_8065" data-name="패스 8065" class="cls-1" d="M219.4,530.592V550.42h4.655v-8.433h8.157v-3.229h-8.157v-4.935h8.293v-3.231Z" transform="translate(-194.296 -530.589)"/>
      </g>
    </g>
  </g>
</svg>
