<svg xmlns="http://www.w3.org/2000/svg" width="108.686" height="56.466" viewBox="0 0 108.686 56.466">
  <defs>
    <style>
      .cls-1 {
        fill: #566167;
      }

      .cls-2 {
        fill: #0079c7;
      }
    </style>
  </defs>
  <g id="partners_logo18" transform="translate(-11.062 -6.79)">
    <g id="그룹_6457" data-name="그룹 6457" transform="translate(11.062 6.79)">
      <path id="패스_6359" data-name="패스 6359" class="cls-1" d="M241.638,118.9a4.953,4.953,0,1,0,4.953,4.953A4.953,4.953,0,0,0,241.638,118.9Zm0,7.218a2.264,2.264,0,1,1,2.265-2.264A2.264,2.264,0,0,1,241.638,126.116Z" transform="translate(-157.081 -79.344)"/>
      <path id="패스_6360" data-name="패스 6360" class="cls-1" d="M97.241,74.978a4.953,4.953,0,1,0,4.953,4.953A4.953,4.953,0,0,0,97.241,74.978Zm0,7.217a2.264,2.264,0,1,1,2.264-2.264A2.264,2.264,0,0,1,97.241,82.195Z" transform="translate(-63.63 -50.92)"/>
      <path id="패스_6361" data-name="패스 6361" class="cls-2" d="M109.5,7.608C95.9,16.038,79.89,16.021,65.013,13.332,56.426,11.781,45.961,8.175,36.322,8.2a26.462,26.462,0,0,0-11.356,2.311c-11.851,5.6-13.895,17.062-13.9,23.959a32.089,32.089,0,0,0,.258,4.184c.107.732.214,1.471.379,2.224.344,1.57,1.084,4.708,2.416,1.782.262-.578,1.545-3.01,2.38-4.437,5.742-9.823,17.414-13.245,28.119-13.467,10.83-.224,21.495,1.115,32.327.1A48.836,48.836,0,0,0,110.2,8.9C112.774,6.064,111.133,6.579,109.5,7.608Z" transform="translate(-11.062 -6.79)"/>
      <rect id="사각형_2204" data-name="사각형 2204" class="cls-1" width="2.83" height="4.685" transform="translate(32.196 36.14)"/>
      <rect id="사각형_2205" data-name="사각형 2205" class="cls-1" width="2.83" height="4.472" transform="translate(35.027 40.875)"/>
      <rect id="사각형_2206" data-name="사각형 2206" class="cls-1" width="2.83" height="4.473" transform="translate(29.366 45.571)"/>
      <path id="패스_6362" data-name="패스 6362" class="cls-1" d="M182.131,111.9l2.831,4.312,2.31-1.639-5.141-7.5-5.141,7.5,2.31,1.639Z" transform="translate(-118.447 -71.687)"/>
      <rect id="사각형_2207" data-name="사각형 2207" class="cls-1" width="2.83" height="9.907" transform="translate(70.76 35.38)"/>
      <path id="패스_6363" data-name="패스 6363" class="cls-1" d="M132.8,111.9l2.83,4.312,2.31-1.639-5.14-7.5-5.141,7.5,2.311,1.639Z" transform="translate(-86.519 -71.687)"/>
      <rect id="사각형_2208" data-name="사각형 2208" class="cls-1" width="2.83" height="9.907" transform="translate(53.211 35.38)"/>
      <rect id="사각형_2209" data-name="사각형 2209" class="cls-1" width="3.366" height="2.618" transform="translate(67.929 37.786)"/>
      <rect id="사각형_2210" data-name="사각형 2210" class="cls-1" width="2.83" height="9.907" transform="translate(103.308 35.38)"/>
      <rect id="사각형_2211" data-name="사각형 2211" class="cls-1" width="3.366" height="2.618" transform="translate(105.321 38.423)"/>
      <path id="패스_6364" data-name="패스 6364" class="cls-1" d="M41.744,111.9l2.83,4.312,2.311-1.639-5.141-7.5-5.141,7.5,2.311,1.639Z" transform="translate(-27.591 -71.687)"/>
      <rect id="사각형_2212" data-name="사각형 2212" class="cls-1" width="2.83" height="9.907" transform="translate(21.228 35.38)"/>
      <rect id="사각형_2213" data-name="사각형 2213" class="cls-1" width="3.366" height="2.618" transform="translate(18.398 37.786)"/>
      <rect id="사각형_2214" data-name="사각형 2214" class="cls-1" width="13.444" height="2.619" transform="translate(26.889 35.451)"/>
      <rect id="사각형_2215" data-name="사각형 2215" class="cls-1" width="8.491" height="2.619" transform="translate(29.366 39.766)"/>
      <rect id="사각형_2216" data-name="사각형 2216" class="cls-1" width="8.632" height="2.618" transform="translate(29.366 48.329)"/>
      <rect id="사각형_2217" data-name="사각형 2217" class="cls-1" width="8.491" height="2.548" transform="translate(29.366 44.048)"/>
      <rect id="사각형_2218" data-name="사각형 2218" class="cls-1" width="2.83" height="4.472" transform="translate(72.882 46.394)"/>
      <rect id="사각형_2219" data-name="사각형 2219" class="cls-1" width="2.83" height="4.472" transform="translate(67.222 51.091)"/>
      <rect id="사각형_2220" data-name="사각형 2220" class="cls-1" width="8.491" height="2.618" transform="translate(67.222 45.286)"/>
      <rect id="사각형_2221" data-name="사각형 2221" class="cls-1" width="8.632" height="2.618" transform="translate(67.222 53.848)"/>
      <rect id="사각형_2222" data-name="사각형 2222" class="cls-1" width="8.491" height="2.547" transform="translate(67.222 49.567)"/>
      <rect id="사각형_2223" data-name="사각형 2223" class="cls-1" width="2.83" height="4.685" transform="translate(82.081 31.842)"/>
      <rect id="사각형_2224" data-name="사각형 2224" class="cls-1" width="2.83" height="5.431" transform="translate(86.114 27.826)"/>
      <rect id="사각형_2225" data-name="사각형 2225" class="cls-1" width="13.444" height="2.619" transform="translate(77.835 35.451)"/>
      <rect id="사각형_2226" data-name="사각형 2226" class="cls-1" width="8.775" height="2.618" transform="translate(80.17 25.898)"/>
      <rect id="사각형_2227" data-name="사각형 2227" class="cls-1" width="2.83" height="4.467" transform="translate(94.11 37.736)"/>
      <rect id="사각형_2228" data-name="사각형 2228" class="cls-1" width="7.076" height="2.618" transform="translate(94.11 41.748)"/>
      <rect id="사각형_2229" data-name="사각형 2229" class="cls-1" width="2.831" height="5.672" transform="translate(98.214 46.276)"/>
      <rect id="사각형_2230" data-name="사각형 2230" class="cls-1" width="8.067" height="2.618" transform="translate(98.214 51.159)"/>
      <rect id="사각형_2231" data-name="사각형 2231" class="cls-1" width="7.076" height="2.619" transform="translate(94.11 35.451)"/>
    </g>
  </g>
</svg>
