<svg xmlns="http://www.w3.org/2000/svg" width="86.664" height="55.785" viewBox="0 0 86.664 55.785">
    <defs>
        <style>
            .cls-1{fill:#cd1f24}.cls-2{fill:#e3671d}
        </style>
    </defs>
    <g id="partners_logo7" transform="translate(-158.324 -332.196)">
        <path id="패스_6137" data-name="패스 6137" class="cls-1" d="M171.008 442.343c-2.382-.941-4.28-1.7-4.28-3.175 0-1.145 1.068-2.036 3.3-2.036a10.892 10.892 0 0 1 2.136.206c.417 0 .744.065 1.162.065 1.89 0 2.959-.944 3.7-2.709l.331-.808a25.654 25.654 0 0 0-7.585-1.21c-6.665 0-10.2 3.512-10.2 7.035a5.741 5.741 0 0 0 1.809 4.258 17.52 17.52 0 0 0 5.356 2.9c2.635 1.074 5.106 1.889 5.106 3.512 0 1.491-1.809 2.3-4.2 2.3a14.585 14.585 0 0 1-6.591-1.818l-2.716 4.267a21.981 21.981 0 0 0 9.721 2.092c6.174-.062 10.789-2.913 10.789-7.381-.012-4.45-4.296-6.15-7.838-7.498z" transform="translate(0 -69.238)"/>
        <path id="패스_6138" data-name="패스 6138" class="cls-1" d="m249.372 445.465 11.128-11.291h-7.912l-8.973 9.733h-.086v-9.733h-6.5v23.807h.328c2.794 0 6.26-1.071 6.26-4.931v-5.48h.074l9.066 10.143h8.408z" transform="translate(-54.233 -70.271)"/>
        <path id="패스_6139" data-name="패스 6139" class="cls-1" d="M298.873 352.223c-2.308.337-5.765 2.092-5.765 5.055.078 2.842 2.794 4.468 2.794 8.13a6.24 6.24 0 0 1-3.788 5.542c.826 0 1.73-.076 2.635-.076 2.062 0 3.305.139 3.383.139l10.282-10.413a38.518 38.518 0 0 0-9.541-8.377z" transform="translate(-92.193 -13.8)"/>
        <path id="패스_6140" data-name="패스 6140" class="cls-1" d="M331.516 398.9c1.325-1.635 1.407-4.261 1.566-6.976.086-2.5.748-4.391 4.873-4.391h3.368a27.137 27.137 0 0 0 12.348-2.827 49.354 49.354 0 0 0-21.337-5.557c-.565 1.352-5.175 11.842-5.508 12.716a15.674 15.674 0 0 1 1.9 2.166 24.234 24.234 0 0 1 2.79 4.869z" transform="translate(-116.112 -32.357)"/>
        <path id="패스_6141" data-name="패스 6141" class="cls-2" d="M262.323 358.089c-.488 0-.733-.336-.819-.876-.078-.478-2.635-19.876-3.052-22.856a14.392 14.392 0 0 1-.238-1.487c0-.478.413-.673.818-.673 1.236 0 7.913 1.281 14.991 5.342-2.062.472-5.683 2.231-5.683 5.879 0 3.179 2.807 4.928 2.807 8.113.001 5.203-7.335 6.499-8.824 6.558z" transform="translate(-68.833)"/>
        <path id="패스_6142" data-name="패스 6142" class="cls-2" d="M343.789 414.416a1.3 1.3 0 0 1 .234.6.987.987 0 0 0 .675.342.817.817 0 0 0 .569-.13c.573-.212 22.159-8.452 25.456-9.68a73.792 73.792 0 0 1 1.645-.667c.242-.215.421-.348.421-.617a.307.307 0 0 0-.18-.331c-.327-.557-2.377-2.375-5.917-4.338a31.279 31.279 0 0 1-13.518 3.184c-1.559 0-1.972-.065-3.048-.065-3.126 0-3.867 1.142-4.038 3.379a11.737 11.737 0 0 1-.082 1.62c-.077 2.026-.315 4.794-2.217 6.703z" transform="translate(-127.801 -46.444)"/>
    </g>
</svg>
