<svg xmlns="http://www.w3.org/2000/svg" width="229.572" height="40.37" viewBox="0 0 229.572 40.37">
    <defs>
        <style>
            .cls-1{fill:#5f6467}.cls-2{fill:#004088}
        </style>
    </defs>
    <g id="partners_logo1" transform="translate(-58.421 -214.687)">
        <g id="그룹_6385" data-name="그룹 6385" transform="translate(140.446 230.743)">
            <g id="그룹_6384" data-name="그룹 6384">
                <g id="그룹_6378" data-name="그룹 6378" transform="translate(74.184 .562)">
                    <path id="패스_6062" data-name="패스 6062" class="cls-1" d="M377.309 256.387v-2.081h-3.539a5.392 5.392 0 0 0 .544-1.406 7.892 7.892 0 0 0 .281-1.99v-3.317a1.409 1.409 0 0 0-1.469-1.467h-16.38l1.08 2.081h13.3v2.8c0 .613-.03 1.223-.088 1.809a5.807 5.807 0 0 1-.337 1.491h-16.769l1.079 2.081h8.975v3.749h-7.566l1.082 2.079h13.524v6.025h3.469V261.6a1.405 1.405 0 0 0-1.47-1.464h-5.57v-3.749z" transform="translate(-353.932 -246.126)"/>
                </g>
                <g id="그룹_6380" data-name="그룹 6380" transform="translate(101.329 .12)">
                    <g id="그룹_6379" data-name="그룹 6379" transform="translate(0 .442)">
                        <path id="패스_6063" data-name="패스 6063" class="cls-1" d="M428.661 256.387v-2.081h-3.538a5.365 5.365 0 0 0 .545-1.406 7.932 7.932 0 0 0 .28-1.99v-3.317a1.405 1.405 0 0 0-1.468-1.467H408.1l1.08 2.081h13.3v2.8c0 .613-.031 1.223-.088 1.809a5.825 5.825 0 0 1-.339 1.491h-16.769l1.079 2.081h8.976v3.749h-7.567l1.08 2.079h13.526v6.025h3.468V261.6a1.4 1.4 0 0 0-1.468-1.464h-5.57v-3.749z" transform="translate(-405.284 -246.126)"/>
                    </g>
                    <path id="패스_6064" data-name="패스 6064" class="cls-1" d="M468.288 247.823h-5.126v-2.534h-4.332c-.194 0-.721-.006-.721.42 0 .135.053.463.574.463a2.391 2.391 0 0 1 .6.065c.18.036.355.123.414.649v.937h-6.531l1.081 2.08h2.744a4.647 4.647 0 0 0-1.858 3.607c0 2.326 1.931 4.286 4.564 4.89v1.839h-7.016l1.081 2.08h13.968a6.286 6.286 0 0 0 2.7-.7v6.222h3.419v-22.23h-4.289c-.2 0-.722-.009-.722.418 0 .138.054.463.574.463a2.323 2.323 0 0 1 .595.066c.181.036.357.121.416.649v12.276a4.114 4.114 0 0 1-2.692.753h-4.569v-1.844h-.007c2.622-.612 4.542-2.565 4.542-4.885a4.642 4.642 0 0 0-1.859-3.607h2.45zm-9.74 5.664a2.894 2.894 0 1 1 2.865 3.3 3.105 3.105 0 0 1-2.865-3.3z" transform="translate(-427.625 -245.289)"/>
                </g>
                <path id="패스_6065" data-name="패스 6065" class="cls-1" d="M310.6 257.294a1.392 1.392 0 0 0 .41 1.04 1.445 1.445 0 0 0 1.054.4h10.4v-11.342h-12.725c-.2 0-.722-.006-.722.419 0 .139.052.464.575.464a2.35 2.35 0 0 1 .6.066c.179.038.355.122.414.65zm8.393-.641h-4.923v-7.18h4.925z" transform="translate(-258.575 -246.16)"/>
                <g id="그룹_6381" data-name="그룹 6381" transform="translate(53.833 14.907)">
                    <path id="패스_6066" data-name="패스 6066" class="cls-1" d="M320.488 278.952v-5.689h-4.333c-.2 0-.722-.008-.722.418 0 .136.054.463.576.463a2.388 2.388 0 0 1 .595.066c.18.037.356.123.415.651v4.733a1.4 1.4 0 0 0 .41 1.042 1.455 1.455 0 0 0 1.055.4h15.048v-2.08z" transform="translate(-315.433 -273.263)"/>
                </g>
                <path id="패스_6067" data-name="패스 6067" class="cls-1" d="M340.263 245.9c-.2 0-.722-.008-.722.419 0 .137.053.463.575.463a2.415 2.415 0 0 1 .6.065c.18.037.356.123.415.649v14.891h3.468V245.9z" transform="translate(-272.964 -245.457)"/>
                <g id="그룹_6382" data-name="그룹 6382" transform="translate(24.861)">
                    <path id="패스_6068" data-name="패스 6068" class="cls-1" d="M268.1 274.076c-.2 0-.722-.007-.722.42 0 .137.052.462.575.462a2.379 2.379 0 0 1 .595.066c.18.036.356.123.415.649v4.3a1.4 1.4 0 0 0 .409 1.042 1.455 1.455 0 0 0 1.055.4h14.318v-2.08H272.43v-5.259z" transform="translate(-263.808 -258.739)"/>
                    <path id="패스_6069" data-name="패스 6069" class="cls-1" d="M290.634 245.9c-.2 0-.724-.009-.724.418 0 .138.054.463.576.463a2.339 2.339 0 0 1 .6.066c.18.036.356.121.415.649v14.89h3.469v-9.478h3.77v-2.082h-3.77V245.9z" transform="translate(-274.429 -245.457)"/>
                    <path id="패스_6070" data-name="패스 6070" class="cls-1" d="M265.795 245.062c-.2 0-.722-.007-.722.419 0 .138.054.463.574.463a2.393 2.393 0 0 1 .6.065c.18.038.357.124.415.651v.935h-6.035l1.08 2.082h2.646a4.774 4.774 0 0 0-2.233 3.9c0 2.817 2.813 5.1 6.285 5.1s6.284-2.285 6.284-5.1a4.773 4.773 0 0 0-2.233-3.9h2.7v-2.082h-5.027v-2.533zm-.257 8.512a2.89 2.89 0 1 1 2.865 3.273 3.087 3.087 0 0 1-2.865-3.273z" transform="translate(-260.624 -245.062)"/>
                </g>
                <g id="그룹_6383" data-name="그룹 6383" transform="translate(0 .442)">
                    <path id="패스_6071" data-name="패스 6071" class="cls-1" d="M231.379 245.9c-.2 0-.722-.008-.722.419 0 .137.052.463.575.463a2.42 2.42 0 0 1 .595.065c.18.037.355.123.414.649v4.53h-2.611V245.9h-4.155c-.2 0-.723-.008-.723.419 0 .137.053.463.575.463a2.425 2.425 0 0 1 .6.065c.179.037.356.123.413.649v9.9a4.113 4.113 0 0 1-2.685.75H218.6v-9.334h4.672v-2.08h-8.953c-.2 0-.722-.008-.722.42 0 .138.053.463.575.463a2.358 2.358 0 0 1 .595.066c.18.036.355.123.415.649v10.46a1.389 1.389 0 0 0 .409 1.04 1.449 1.449 0 0 0 1.056.4h7a6.27 6.27 0 0 0 2.692-.693v8.6h3.294V254.1h2.611v14.028h3.294V245.9z" transform="translate(-213.593 -245.899)"/>
                </g>
            </g>
        </g>
        <g id="그룹_6388" data-name="그룹 6388" transform="translate(58.421 214.687)">
            <g id="그룹_6386" data-name="그룹 6386" transform="translate(19.804)">
                <path id="패스_6072" data-name="패스 6072" class="cls-2" d="M106.865 219.733a11.138 11.138 0 0 1 5.463 1.423 11.2 11.2 0 0 1 16.247 6.76h.194a16.831 16.831 0 0 0-32.883 0h.2a11.2 11.2 0 0 1 10.779-8.183z" transform="translate(-95.886 -214.687)"/>
                <path id="패스_6073" data-name="패스 6073" d="M112.5 225.655a11.2 11.2 0 0 0-16.246 6.76h10.92a11.228 11.228 0 0 1 5.326-6.76z" transform="translate(-96.06 -219.186)" style="fill:#3899d7"/>
                <path id="패스_6074" data-name="패스 6074" d="M132.451 224.232a11.13 11.13 0 0 0-5.461 1.423 11.233 11.233 0 0 1 5.327 6.76h10.919a11.208 11.208 0 0 0-10.785-8.183z" transform="translate(-110.548 -219.186)" style="fill:#2faaa5"/>
            </g>
            <path id="패스_6075" data-name="패스 6075" class="cls-2" d="m130.912 289.6-.847-1.634h-70.8l-.849 1.634z" transform="translate(-58.421 -249.23)"/>
            <g id="그룹_6387" data-name="그룹 6387" transform="translate(5.692 17.755)">
                <path id="패스_6076" data-name="패스 6076" class="cls-2" d="m72.254 248.275.485 18h-3.551l.477-18z" transform="translate(-69.188 -248.275)"/>
                <path id="패스_6077" data-name="패스 6077" class="cls-2" d="m87.81 248.275.484 18h-3.549l.477-18z" transform="translate(-76.522 -248.275)"/>
                <path id="패스_6078" data-name="패스 6078" class="cls-2" d="m103.361 248.275.487 18H100.3l.478-18z" transform="translate(-83.852 -248.275)"/>
                <path id="패스_6079" data-name="패스 6079" class="cls-2" d="m118.917 248.275.487 18h-3.551l.478-18z" transform="translate(-91.186 -248.275)"/>
                <path id="패스_6080" data-name="패스 6080" class="cls-2" d="m134.471 248.275.487 18h-3.552l.479-18z" transform="translate(-98.517 -248.275)"/>
                <path id="패스_6081" data-name="패스 6081" class="cls-2" d="m150.027 248.275.486 18h-3.551l.479-18z" transform="translate(-105.85 -248.275)"/>
                <path id="패스_6082" data-name="패스 6082" class="cls-2" d="m165.583 248.275.486 18h-3.551l.478-18z" transform="translate(-113.183 -248.275)"/>
                <path id="패스_6083" data-name="패스 6083" class="cls-2" d="m181.137 248.275.487 18h-3.552l.476-18z" transform="translate(-120.515 -248.275)"/>
            </g>
            <path id="패스_6084" data-name="패스 6084" class="cls-2" d="m58.421 242.806.849 1.633h70.8l.847-1.633z" transform="translate(-58.421 -227.942)"/>
            <path id="패스_6085" data-name="패스 6085" class="cls-2" d="m64.311 284.7-.5.958H130.6l-.5-.958z" transform="translate(-60.963 -247.689)"/>
        </g>
    </g>
</svg>
