<svg xmlns="http://www.w3.org/2000/svg" xmlns:xlink="http://www.w3.org/1999/xlink" width="235.387" height="34.227" viewBox="0 0 235.387 34.227">
  <defs>
    <style>
      .cls-1 {
        fill: url(#linear-gradient);
      }

      .cls-2 {
        fill: url(#linear-gradient-2);
      }

      .cls-3 {
        fill: #004493;
      }

      .cls-4 {
        fill: #004a8b;
      }

      .cls-5 {
        fill: #fff;
      }
    </style>
    <linearGradient id="linear-gradient" x1="0.959" y1="1.045" x2="0.035" y2="-0.12" gradientUnits="objectBoundingBox">
      <stop offset="0.011" stop-color="#f7a226"/>
      <stop offset="0.158" stop-color="#f49c26"/>
      <stop offset="0.333" stop-color="#ee8e26"/>
      <stop offset="0.522" stop-color="#e37626"/>
      <stop offset="0.721" stop-color="#d45426"/>
      <stop offset="0.926" stop-color="#c02a26"/>
      <stop offset="1" stop-color="#b91926"/>
    </linearGradient>
    <linearGradient id="linear-gradient-2" x1="0.764" y1="-0.028" x2="0.178" y2="0.992" gradientUnits="objectBoundingBox">
      <stop offset="0" stop-color="#d6cb2e"/>
      <stop offset="1" stop-color="#3f9444"/>
    </linearGradient>
  </defs>
  <g id="그룹_6656" data-name="그룹 6656" transform="translate(-191.98 -278.754)">
    <g id="그룹_6641" data-name="그룹 6641" transform="translate(191.98 278.754)">
      <g id="그룹_6640" data-name="그룹 6640" transform="translate(0 0)">
        <g id="그룹_6638" data-name="그룹 6638" transform="translate(11.315)">
          <path id="패스_7681" data-name="패스 7681" class="cls-1" d="M475.623,280.445a6.66,6.66,0,0,0-4.393-1.639h-.209a6.973,6.973,0,0,0-4.516,1.8,2.672,2.672,0,0,1,3.573-.007s0,0,0,0l4.241,4.308a7.011,7.011,0,0,0,4.554,1.741h2.856Z" transform="translate(-454.808 -278.802)"/>
          <path id="패스_7682" data-name="패스 7682" class="cls-2" d="M343.17,278.754l-5.684,0a6.764,6.764,0,0,0-4.567,1.8l0,0-5.951,6.043h2.92a7.073,7.073,0,0,0,4.445-1.641l4.332-4.4h0a6.973,6.973,0,0,1,4.516-1.8C343.324,278.754,343.17,278.754,343.17,278.754Z" transform="translate(-326.965 -278.754)"/>
        </g>
        <g id="그룹_6639" data-name="그룹 6639" transform="translate(0 9.483)">
          <path id="패스_7683" data-name="패스 7683" class="cls-3" d="M207.03,391.889a1.638,1.638,0,0,0-1.8,1.84v6.933h0a1.028,1.028,0,0,1-1.034,1.04h-5.853a1.03,1.03,0,0,1-1.04-1.04h0v-8.773h-3.442s0,0,0,0c-1.207,0-1.868.588-1.868,1.755v21.871H197.3V406.3h0a1.03,1.03,0,0,1,1.04-1.04h5.853a1.028,1.028,0,0,1,1.034,1.04h0v9.222h5.315v-23.63Z" transform="translate(-191.98 -391.889)"/>
          <path id="패스_7684" data-name="패스 7684" class="cls-3" d="M456.222,391.889a1.694,1.694,0,0,0-1.887,1.888v21.741h5.318V406.3h0a1.026,1.026,0,0,1,1.026-1.038h6.868a1.694,1.694,0,0,0,1.886-1.889v-1.682h-8.745a1.048,1.048,0,0,1-1.036-1.026V396.5h0a1.029,1.029,0,0,1,1.038-1.04h8a1.693,1.693,0,0,0,1.887-1.887v-1.686Z" transform="translate(-432.344 -391.889)"/>
        </g>
      </g>
    </g>
    <g id="그룹_6654" data-name="그룹 6654" transform="translate(241.948 286.572)">
      <g id="그룹_6642" data-name="그룹 6642" transform="translate(47.567 1.104)">
        <path id="패스_7685" data-name="패스 7685" class="cls-4" d="M1355.938,547.31v2.707h8.226v8.155h3.493v-8.155h8.226V547.31Z" transform="translate(-1355.907 -533.72)"/>
        <path id="패스_7686" data-name="패스 7686" class="cls-4" d="M1357.025,396.838c3.175-.619,7.021-2.979,8.544-5.209,1.79,2.607,5.708,4.69,8.545,5.209l.1.017,1.362-2.606-.147-.053c-3.213-1.136-6.709-2.667-7.783-6.3h7.107v-2.707h-18.356v2.707h7.106c-1.078,3.656-4.571,5.176-7.784,6.3l-.147.053,1.363,2.607Z" transform="translate(-1355.567 -385.185)"/>
      </g>
      <g id="그룹_6643" data-name="그룹 6643" transform="translate(117.757 0.113)">
        <path id="합치기_10" data-name="합치기 10" class="cls-4" d="M1.085,21.2c0-1.862,1.765-3.558,4.556-4.477H4.311V14.362H0V11.654H21.055v2.708H16.744v2.361H15.372c2.948.986,4.572,2.552,4.572,4.477,0,1.591-1.032,2.92-2.977,3.844A15.44,15.44,0,0,1,10.529,26.3C5.981,26.3,1.085,24.7,1.085,21.2Zm5.489-1.695c-.778.287-1.7.808-1.7,1.668,0,1.478,2.863,2.251,5.691,2.251a11.9,11.9,0,0,0,3.933-.587c.784-.287,1.719-.81,1.719-1.664,0-1.481-2.883-2.254-5.729-2.254A11.756,11.756,0,0,0,6.574,19.506Zm6.65-3.293V14.362H7.832v1.851a19.1,19.1,0,0,1,5.392,0Zm-9.148-6.8C2.118,8.441,1.085,7.056,1.085,5.4c0-1.679,1.034-3.087,2.99-4.068A14.754,14.754,0,0,1,10.541,0c4.529,0,9.4,1.691,9.4,5.4,0,3.653-4.873,5.318-9.4,5.318A14.984,14.984,0,0,1,4.076,9.409Zm.794-4.034c0,1.667,2.853,2.538,5.672,2.538s5.671-.871,5.671-2.538c0-1.7-2.854-2.581-5.671-2.581S4.869,3.679,4.869,5.374Z"/>
      </g>
      <g id="그룹_6645" data-name="그룹 6645" transform="translate(0 0)">
        <g id="그룹_6644" data-name="그룹 6644" transform="translate(3.506 4.95)">
          <path id="패스_7691" data-name="패스 7691" class="cls-4" d="M830.974,432.126a4.517,4.517,0,0,0-1.055,3.106c0,2.91,1.756,4.235,3.387,4.235a3.071,3.071,0,0,0,2.319-1.067,4.687,4.687,0,0,0,1.042-3.168c0-2.859-1.739-4.161-3.354-4.161A3.139,3.139,0,0,0,830.974,432.126Zm-.787,3.106c0-2.672,1.62-3.889,3.125-3.889,1.487,0,3.087,1.217,3.087,3.889a4.423,4.423,0,0,1-.974,2.986,2.814,2.814,0,0,1-2.119.978C831.8,439.2,830.187,437.955,830.187,435.232Z" transform="translate(-829.919 -431.071)"/>
        </g>
        <path id="패스_7692" data-name="패스 7692" class="cls-4" d="M788.374,381.129a6.614,6.614,0,0,0,13.227,0,6.041,6.041,0,0,0-2.405-4.763h2.683v-2.707h-5.012v-1.641h-3.786v1.641h-4.987v2.707h2.673A6.159,6.159,0,0,0,788.374,381.129Zm9.84,0c0,5.493-6.479,5.437-6.479,0C791.734,375.806,798.214,375.721,798.214,381.129Zm-4.706,8.274h-3.521l.028,4.185a3.841,3.841,0,0,0,3.7,3.958h14.07v-2.708H793.507Zm14.017-10.278v-6.57H805.3a1.127,1.127,0,0,0-1.272,1.223v16.689h3.494V381.8h2.565v-2.678Z" transform="translate(-788.094 -372.018)"/>
      </g>
      <g id="그룹_6646" data-name="그룹 6646" transform="translate(163.133 1.104)">
        <path id="합치기_11" data-name="합치기 11" class="cls-4" d="M9.194,9.282V0H5.7V9.252c0,5.191-2.24,7.864-5.6,10.281L0,19.6l1.386,2.657L1.5,22.2a16.21,16.21,0,0,0,5.955-5.627,16.152,16.152,0,0,0,5.963,5.63l.115.052,1.357-2.66-.1-.066A11.548,11.548,0,0,1,9.194,9.282Z"/>
      </g>
      <g id="그룹_6648" data-name="그룹 6648" transform="translate(71.502 0.536)">
        <path id="패스_7694" data-name="패스 7694" class="cls-4" d="M1658.562,378.414a1.128,1.128,0,0,0-1.273,1.223v3.451h-1.635v-4.674h-1.985a1.126,1.126,0,0,0-1.27,1.223v9.1a11.977,11.977,0,0,1-5.157.839H1644.6v-2.787h5.393v-2.707H1644.6v-2.389h5.949v-2.707h-9.444v9.309a4.077,4.077,0,0,0,1.133,2.874,3.569,3.569,0,0,0,2.571,1.114h2.25a13.846,13.846,0,0,0,5.34-.8v1.476h3.255v-7.163h1.635v7.163h3.257V378.414Z" transform="translate(-1641.105 -378.414)"/>
        <g id="그룹_6647" data-name="그룹 6647" transform="translate(1.058 15.773)">
          <path id="패스_7695" data-name="패스 7695" class="cls-4" d="M1653.726,566.583v2.706h14.864v6.541h3.506v-5.289a3.847,3.847,0,0,0-3.717-3.958Z" transform="translate(-1653.726 -566.583)"/>
        </g>
      </g>
      <g id="그룹_6650" data-name="그룹 6650" transform="translate(24.37 1.104)">
        <path id="패스_7696" data-name="패스 7696" class="cls-4" d="M1098.771,452.169v-2.708h-2.043a10.447,10.447,0,0,0,.661-3.8l-.071-.858h-3.39V446a7.085,7.085,0,0,1-.646,3.461h-14.455v2.708h8.225v2.982h-7.167v2.708h14.32v6.4h3.508v-5.147a3.849,3.849,0,0,0-3.718-3.96h-3.449v-2.982Z" transform="translate(-1078.827 -439.806)"/>
        <g id="그룹_6649" data-name="그룹 6649" transform="translate(1.058)">
          <path id="패스_7697" data-name="패스 7697" class="cls-4" d="M1091.448,385.185v2.707h14.043v3.148h3.461v-1.9a3.811,3.811,0,0,0-3.672-3.958Z" transform="translate(-1091.448 -385.185)"/>
        </g>
      </g>
      <g id="그룹_6652" data-name="그룹 6652" transform="translate(95.143 1.104)">
        <g id="그룹_6651" data-name="그룹 6651" transform="translate(0.766 14.128)">
          <path id="패스_7698" data-name="패스 7698" class="cls-4" d="M1932.279,553.734l.029,6.338h0a3.856,3.856,0,0,0,3.7,3.987h14.1V553.734Zm14.441,7.753h-11.055v-5.181h11.055Z" transform="translate(-1932.279 -553.734)"/>
          <path id="패스_7699" data-name="패스 7699" class="cls-4" d="M1971.067,582.786v5.454h11.323v-5.454Zm11.056.273v4.91h-10.787v-4.91Z" transform="translate(-1967.816 -580.351)"/>
        </g>
        <path id="패스_7700" data-name="패스 7700" class="cls-4" d="M1940.754,394.7a11.742,11.742,0,0,0,.694-3.659h.017v-.529c0-.135,0-.27,0-.4,0-.154,0-.306,0-.459v-.506a3.849,3.849,0,0,0-3.717-3.958h-13.834v2.707h14.041v1.624h0v2.006a7.152,7.152,0,0,1-.727,3.177h-14.083v2.708h19.414V394.7Z" transform="translate(-1923.141 -385.185)"/>
      </g>
      <g id="그룹_6653" data-name="그룹 6653" transform="translate(142.01 1.104)">
        <path id="패스_7701" data-name="패스 7701" class="cls-4" d="M2499.922,394.981a13.758,13.758,0,0,0,.628-3.941h.031v-1.9a3.848,3.848,0,0,0-3.719-3.958h-13.832v2.707h14.043V391.8c0,1.654-.253,2.8-.7,3.177h-5.252v-4.134h-3.494v4.134h-5.37v2.708h19.416v-2.708Z" transform="translate(-2482.263 -385.185)"/>
      </g>
    </g>
    <path id="패스_7702" data-name="패스 7702" class="cls-4" d="M2931.317,385.777v-7.363h-2.224a1.126,1.126,0,0,0-1.27,1.223v23.769h3.494V388.484h2.566v-2.707Z" transform="translate(-2506.516 -91.306)"/>
    <path id="합치기_12" data-name="합치기 12" class="cls-4" d="M0,5.52A4.716,4.716,0,0,1,2.841,1.368,13.16,13.16,0,0,1,8.979,0c4.262,0,8.85,1.728,8.85,5.52a4.692,4.692,0,0,1-2.808,4.144,13.044,13.044,0,0,1-6.094,1.355C4.629,11.019,0,9.3,0,5.52Z" transform="translate(384.572 301.885)"/>
    <ellipse id="타원_358" data-name="타원 358" class="cls-5" cx="5.13" cy="2.795" rx="5.13" ry="2.795" transform="translate(388.356 304.704)"/>
  </g>
</svg>
