<svg xmlns="http://www.w3.org/2000/svg" width="237.712" height="28.853" viewBox="0 0 237.712 28.853">
    <defs>
        <style>
            .cls-4{fill:#161615}.cls-5{fill:#5d5c5c}
        </style>
    </defs>
    <g id="그룹_6845" data-name="그룹 6845" transform="translate(-139.352 -200.09)">
        <g id="그룹_6843" data-name="그룹 6843" transform="translate(139.352 200.09)">
            <g id="그룹_6841" data-name="그룹 6841" transform="translate(41.479)">
                <path id="패스_8632" data-name="패스 8632" d="M212.859 200.168a.284.284 0 0 0-.141-.071c-.214-.045-.426.11-.751.369l-.251.188c-.885.47-1.56 2.678-1.71 3.586-.027.013-.047.026-.094.05a3.86 3.86 0 0 0-2.573-1.94c.411 1.569 1.793 6.31 3.631 5.9.935-.209 2.884-4.14 2.9-6.307v-.08c-.009-1.147-.539-1.556-1.011-1.695z" transform="translate(-207.34 -200.09)" style="fill:#ec6500"/>
            </g>
            <path id="패스_8633" data-name="패스 8633" d="M232.73 239.776a15.03 15.03 0 0 0-5.33.714 1.877 1.877 0 0 0-.844.594c.036.475-.248 1.228.195 1.406.023 0 .021.074.043.113.131.131.266.15.4.317.085.121.156-.012.245.037.042.043.064.118.109.126.221.1.426.063.645.171a.585.585 0 0 0 .336.088c.067-.026.154.131.177.171a2.8 2.8 0 0 0 1.231.011c1.279-.02 1.038-.146 2.317-.167 1.077-.015 2.126.149 3.2.132.583-.02 1.217 0 1.8-.041 1.03-.06 2.062.1 3.094.11.516-.012 1.115.19 1.634.228a8.208 8.208 0 0 1 1.661-.028 1.482 1.482 0 0 1 .541.073 1.485 1.485 0 0 0 .506.181 3.307 3.307 0 0 0 1.415-.331 3.161 3.161 0 0 0 .834-.3.741.741 0 0 0 .3-.48 1.926 1.926 0 0 0 .1-1.248c-.025 0-.092.03-.114-.009-.05-.073-.037-.252-.109-.257a3.984 3.984 0 0 0-.615-.149c-.274-.057-.552-.185-.824-.237a70.077 70.077 0 0 0-12.947-1.225z" transform="translate(-173.332 -215.556)" style="fill:#008c5c"/>
            <path id="패스_8634" data-name="패스 8634" d="M176.431 240.566c.232.051.5.047.622.2.125.12-.123.319-.109.479 0 .38.138.724.133 1.1a.236.236 0 0 1-.1.193 1 1 0 0 1-.278.262c-.322.2-.744.125-1.115.233a8.014 8.014 0 0 1-1.486.25 19.839 19.839 0 0 1-2.656-.124 2.642 2.642 0 0 0-1.007.134 4.174 4.174 0 0 1-1.242.078 145.303 145.303 0 0 0-6.429-.106c-.376.015-.789.063-1.166.077-1.728.1-3.453.066-5.183.112-.6.016-1.206.032-1.811.017l-.979.023c-1.278.065-2.59.126-3.874.073l-1.507.013a39.627 39.627 0 0 1-4.322.229 7.33 7.33 0 0 1-3.023-.8 4.067 4.067 0 0 1-1.551-1.381 1.714 1.714 0 0 1 1.028-.547 28.533 28.533 0 0 1 2.827-.592c.822-.138 1.572-.2 2.361-.276a194.782 194.782 0 0 1 26.466-.278 28.939 28.939 0 0 1 4.401.631z" transform="translate(-139.352 -215.502)" style="fill:#0063b0"/>
            <path id="패스_8635" data-name="패스 8635" class="cls-4" d="M228.633 222.6v.118c.092.235.275.3.459.472h.6c0-.118.138 0 .138-.118a.506.506 0 0 0 .44-.235h.1a.511.511 0 0 1 .445-.3l.74-.886a.346.346 0 0 1 .146-.3 10.726 10.726 0 0 1 .495-1.657 2.475 2.475 0 0 0 .05-.591c.048 0 .1 0 .1-.059-.049-.24.1-.357.2-.474.1 0 .2 0 .247-.12v-.117a1.035 1.035 0 0 1 .717.412h.325c0 .121.065.121.131.181a3.465 3.465 0 0 1 1.091.057c0 .178.259.12.325.3a1.707 1.707 0 0 0 .2.533.208.208 0 0 1-.067.178c.13.176.258.472.067.648.063.238 0 .534.129.772-.129.117-.065.3-.065.414a3.352 3.352 0 0 1 .2.829c.257.295.194.652.389.947v.352c.128 0 0 .181.128.181a6.624 6.624 0 0 1-.128 1.127c-.066.057-.132.118-.2.178v.118c-.066 0-.13 0-.13-.061-.132.179-.324.3-.456.475-.129-.059-.193.059-.259.059-.129 0 0 .178-.129.178a.521.521 0 0 0-.326.119c-.131.059-.571-.06-.7.059l-.065-.059a.353.353 0 0 1-.26.118c0-.06 0-.118-.065-.118a.468.468 0 0 1-.519.237c-.057-.118-.034-.205-.182-.26a2.34 2.34 0 0 0-.247-1.016c.048 0 .048-.052.048-.106a1.857 1.857 0 0 1-.146-.481c-.15-.216-.2-.534-.394-.694.05-.055-.1-.108-.052-.162-.1-.1-.146-.16-.246-.266-.1 0-.1.054-.146.106-.05.267-.3.482-.347.749l-.048-.053c-.05.16-.2.267-.2.428-.1.051-.149.212-.245.265v.108c-.347.319-.535.838-.948 1.061-.1.224-.364.268-.466.518a2.278 2.278 0 0 0-.592.123c-.13-.062-.323-.189-.451-.062 0-.061-.067-.061-.129-.061l-.064.061c-.129-.126-.321 0-.515-.061a8.309 8.309 0 0 0-1.289-.686c-.131 0 0-.187-.131-.187a.242.242 0 0 1-.192-.061c0-.187.065-.312-.129-.437l.065-.062c0-.061-.065-.061-.128-.061-.065-.375-.259-.687-.321-1.058-.069-.063-.069-.063-.13-.125a1.1 1.1 0 0 0-.131-.5c-.064-.248.16-.457.035-.695a.2.2 0 0 1 .063-.175 1.621 1.621 0 0 1 .062-.771c-.062 0-.062-.057-.062-.118a1.457 1.457 0 0 0 .123-.711c.059-.178.182-.354.244-.533l-.062-.059c.123-.118.062-.3.246-.415 0-.059 0-.117-.061-.117 0-.12.123-.178.183-.239a2.508 2.508 0 0 1 .447-.674l-.047-.071a.874.874 0 0 1 .6-.235 1.423 1.423 0 0 1 .571.2c.07.14 0 .25.1.428h.093v.119c0 .059.045.059.09.059a1.065 1.065 0 0 1 .093.533c0 .059.047.059.094.059-.047.118.092.238.092.356-.092.116 0 .3-.047.474.139.3.095.651.23.946a1.485 1.485 0 0 0 .176.652z" transform="translate(-172.884 -207.203)"/>
            <path id="패스_8636" data-name="패스 8636" class="cls-4" d="M191.122 224.395a1.271 1.271 0 0 1 .3.271.764.764 0 0 0 .281.295 2.431 2.431 0 0 1 .251.123l.081.165.2.186c.212.065.255-.062.417.161.07 0 .141 0 .141.062l.071-.062c.07.125.213.187.284.251a.816.816 0 0 1 .539.2c.069 0 .08.145.08.083.217.057.363.2.506.074.07 0 .141 0 .141.063l.068-.063c.144-.061.175.107.317.045.072 0 .072.062.072.126h.14c.143.127.746-.041.889.087a10.253 10.253 0 0 0 2.11-.084c.006-.123.2.009.209-.112l.066.062c.267.075.551-.233.818-.1l.142-.113c.136-.054.331.2.474.023 0 .06.065.063.132.066a1.158 1.158 0 0 0 .005-.12c.21-.11.467-.083.621-.25l.27.028.148-.107c.351-.083.658-.36 1.055-.451.063-.066.2-.078.256-.206.065-.007.134-.012.2-.016l.183-.2c.21.04.392-.245.592-.275-.01-.058-.019-.121.046-.13l.077.05c.126-.084.126-.084.171-.212.21.027.324-.231.437-.371l.134-.018.114-.141c.067-.01.067-.01.136-.023.18-.151.283-.35.541-.451-.009-.059-.022-.119.047-.132.144.04.113-.14.168-.209.059-.042.237-.168.284-.11-.01.1.174-.256.166-.159.048.059.28-.547.334-.588l-.564-1.473c-.209.293-.948 1.26-1.345 1.35.006.309-.34.325-.575.5.013.056.029.117-.039.132-.2.046-.284.266-.415.295-.014-.058-.081-.043-.148-.027-.052.074-.182.1-.221.237-.2.045-.257.24-.372.378l-.076-.047c-.238.218-.584.2-.749.465-.384.18-.711.243-1.109.391-.066 0-.134.009-.139-.054-.059.126-.337.025-.4.149a7.226 7.226 0 0 0-1.151.076c-.01-.119-.206.013-.213-.1-.333.143-.671-.046-1.011-.046-.068-.062-.2-.062-.272-.181a.785.785 0 0 1-.747-.182c-.2 0-.34-.182-.543-.242v-.119c-.067-.062-.067-.062-.137-.121 0-.181.2-.181.34-.242.136-.18.5-.138.638-.32 0-.06.183-.178.183-.237.066-.121.113-.236.182-.236.2-.12.071-.261.343-.32 0-.062.214-.209.143-.271.272-.18.267-.284.336-.646.135-.178.336-.377.336-.619.067-.059-.016-.322.121-.383.067-.42-.108-.646-.108-1.067l-.137-.12c0-.183-.136-.3-.067-.483-.2-.182-.153-.24-.357-.42l-.117-.123h-.136c-.068-.121-.272-.18-.272-.3a4.562 4.562 0 0 1-.813-.361l-.07.062-.069-.062c-.067.062-.067.062-.136.122 0-.183-.2 0-.27-.122-.137 0-.273-.061-.408.062-.408-.123-.848.089-1.256-.09 0 .121-.271-.061-.271.121-.135.059-.333.054-.4.111h-.2a1.051 1.051 0 0 1-.781.394c-.135 0 0 .179-.135.179h-.135a6.814 6.814 0 0 1-1.018.905c0 .061-.137.119-.068.241 0 .062-.069.062-.138.062a.3.3 0 0 1-.134.24c0 .06 0 .121.068.121 0 .061-.1.214-.171.214-.068.241-.068.484-.272.6 0 .483-.142.714-.173 1.245a6.774 6.774 0 0 1 .071.957c.212.128-.052.121.089.309.07 0 .033.108.033.172.07.126.3.217.223.343 0 .062.118.119.189.119.072.125-.1.265.04.328 0 .062.226.014.154.138zm4.426-3.927c-.137.064 0 .192-.137.254l.069.063a2.49 2.49 0 0 1-1.1 1.722c-.068 0-.137 0-.137-.063 0-.129-.14-.32-.068-.447 0-.062-.072-.062-.139-.062.139-.128-.093-.256-.02-.448-.073 0-.073-.062-.073-.127.207-.128.039-.455.246-.58l-.068-.065a1.9 1.9 0 0 1 .309-.454v-.127a2.729 2.729 0 0 1 .979-.491c.069 0 .137 0 .137.06.208.257.071.509.002.765z" transform="translate(-159.179 -206.808)"/>
            <path id="패스_8637" data-name="패스 8637" class="cls-4" d="m213.258 219.951.026.248c.465.45.375 1.218.684 1.767-.148.192-.043.429-.107.606l.182.145c-.123.437.171.821.13 1.248l-.149.187c.008.082.018.166.1.157l-.073.092.09.074-.074.095c.082-.013.092.071.1.157-.148.183.124.4-.106.6a.3.3 0 0 1 .107.241c-.23.2-.089.556-.251.813l.085.079-.081.091-.087-.081c-.083 0-.08.089-.078.171.086.163.257.321.095.5l.085.077a1.055 1.055 0 0 0-.391.637l-.153.168a.284.284 0 0 1 .084.237c-.151.168-.226.332-.376.5 0 .079.084.237-.071.323l.081.077c-.077.165-.147.408-.22.575.077-.005.078.074.078.154-.229.173-.493.356-.408.671-.148.248-.342.332-.494.581.082.154-.271.228-.268.387s-.231.094-.149.247l.079.077c-.077.007-.077.007-.152.01a.388.388 0 0 1-.229.251c0 .08 0 .162-.076.165a2.736 2.736 0 0 0-.355.4c.079.077-.249.243-.174.248a.437.437 0 0 0-.184.309c-.076 0-.154-.006-.162.071v.1c-.055.056-.069.055-.183.081-.6.691-1.489.963-2.1 1.65-.164.075-.325.146-.486.219s-.109.312-.254.224c.008-.079-.208.07-.286.066-.171.152-.423.039-.581.03.007-.078-.085-.061-.156-.144l-.085.075c-.068-.084-.245-.246-.323-.251-.069-.081.084-.166.007-.169l.087-.077c.007-.077-.123-.1-.2-.1-.14-.167.158-.041.1-.208l-.3-.024c-.072-.158-.221-.162-.285-.326.015-.156.354-.153.369-.315.155.01.109-.015.273-.089l-.058-.113c.166-.076.14-.21.216-.208 0 .08.06-.012.136-.007s.155.007.165-.071a.3.3 0 0 1 .1-.237c.077.007.077.007.156.009a3.234 3.234 0 0 0 .469-.485c.005-.079.005-.079.014-.159.084-.076.1-.234.262-.308-.008.081-.018.159.063.164.245-.149.1-.236.035-.4.085-.079.085-.079.171-.151-.009.08.129.018.052.014-.007.079.081-.185.159-.182.19-.3.052.053.337-.494.059-.06.206-.115.219-.155-.016-.007.181-.077.111-.16-.011-.063.019-.09-.143-.016.093-.156.364-.39.377-.551.226.092.046-.268.2-.261-.084.074-.162-.079-.16 0l.257-.007c.171-.151-.238-.145-.085-.315 0-.079-.024-.124-.1-.12 0-.079-.023-.145.056-.149l.079.076c.075-.084-.073-.353.079-.441v-.243c.229-.17.126-.142.2-.386l-.079-.075c0 .079.167-.074.089-.071v-.162c.153-.088.26-.62.256-.781 0 .161-.181-.365-.024-.293.224-.336.071-.779.106-1.187-.162-.059.126-.176.036-.324-.076.007-.154.018-.163-.062.07-.089.07-.089.136-.181-.007-.077-.015-.157-.091-.147-.007-.08-.013-.162.062-.17-.012-.08-.018-.159-.095-.149.068-.09.068-.09.139-.18-.009-.079-.085-.07-.162-.058.045-.332-.286-.569-.165-.905-.075.008-.084-.07-.091-.152.207-.268-.075-.59.053-.849-.16-.059-.1-.23-.117-.39.07-.088-.129-.168-.138-.247a5.68 5.68 0 0 1-.265-1.086c-.151.138-.263-1.115-.4-1.6-.2-.313-.068-.666-.186-.99.082-.01.167-.02.159-.1-.109-.239.132-.355.189-.613.167-.021.322-.126.506.02.157-.1.059-.258.049-.341.331-.04.58-.074.913-.115.009.084.015.168.1.157.248-.032.349.122.6.093.009.084.016.168.1.158a.417.417 0 0 1 .348.124c.083-.01.167-.021.157-.1l.092.07.075-.091a.286.286 0 0 0 .255.05c.092.074.117.323.276.222a20.025 20.025 0 0 1 1.178 1.784z" transform="translate(-165.087 -206.871)"/>
            <g id="그룹_6842" data-name="그룹 6842" transform="translate(10.382 3.043)">
                <path id="패스_8638" data-name="패스 8638" class="cls-4" d="M157.568 218.377c-.027-.134-.221-.173-.3-.174s-.231.167-.308.034a1.323 1.323 0 0 1-.292.328.484.484 0 0 1-.273.065c-.04.2-.062.226.118.7.081.016.165.472.254.493-.038-.176.236.378.324.455l.112.029c.056.014.029.067 0 .115l.249.176c.024.067.078.087.02.182a1.371 1.371 0 0 1 .47.2c.054.024.021.07-.011.117.052.021.1.045.138 0 .137 0 .039.139.06.206l.085-.022c.02.068.126.115.126.115.167.252.974.559 1.176.788l.079-.038c.063.131.419.156.419.326l.074-.045c.038.062.573.163.721.243.074-.046-.031-.125.049-.165.088.075.273.244.359.323a3.163 3.163 0 0 1 .4.056c.207.22.633.084.887.2a.177.177 0 0 0 .14.092l.081-.04.032.063c.157-.08.243 0 .348-.093l.032.065.078-.042.062.132c.221.048.422.151.658.03a.173.173 0 0 0 .142.089c.079-.041.079-.041.16-.079.165.037.2.1.388.087l.03.063a.811.811 0 0 1 .625-.034c.048-.1.166.039.213-.068l.031.067c.184-.134.467-.065.657-.072l.029.066c.082-.038.049.006.049.006.16-.074.55-.081.654-.168a.853.853 0 0 0 .514.059c.062.015.185.041.243.06a.586.586 0 0 1 .669-.037 3.843 3.843 0 0 0 .842-.348l.184.053c.092-.034.151-.014.213-.115a2.792 2.792 0 0 0 .714-.353c.028.069.182-.06.212 0 .031-.048.031-.048.062-.1.12.037.212-.114.332-.077.032-.048.032-.048.062-.1.184-.063.112-.11.293-.171.157-.107.376-.473.734-.63-.009-.118.226-.182.279-.284.026-.052.088-.039.149-.027l-.035-.065c.087-.04.062-.21.145-.135.023-.052.127-.188.076-.2.174-.136.171-.581.428-.638.022-.055.022-.055.045-.1.1-.136.062-.39.12-.424.02-.051-.008-.087.046-.074.066-.2.114-.516.175-.792-.052-.011-.028-.063-.006-.116.052.011.074-.041.1-.093-.052-.012-.029-.067-.007-.118l.074-.039c-.1-.024.015-.167-.091-.19l.072-.042c-.089-.251.04-.505-.048-.755l.068-.041a.329.329 0 0 1 0-.441.188.188 0 0 1 0-.172c-.142-.088.03-.182-.058-.261.052-.157-.124-.313-.018-.461-.07-.131-.084-.185-.16-.312l.046-.165c-.053-.01-.107-.022-.094-.076.084-.1-.008-.172.023-.281-.107-.02-.049-.112-.086-.175a1.543 1.543 0 0 0-.284-.761c.072-.107-.076-.533-.07-.666l-.1-.054a.471.471 0 0 0-.2-.278l.009-.133c-.053 0-.106-.006-.1-.074s0-.065.007-.133l-.059.063a.389.389 0 0 1-.135-.341c-.2-.276-.271-.475-.55-.878-.11.067 0-.207-.137-.146a1.534 1.534 0 0 0-.472-.633c.009-.066.009-.066.013-.134h-.122c-.062 0-.054-.068-.048-.134-.35-.215-1.592-.388-1.782-.73-.108-.005-.214-.076-.278.059-.049-.071-.049-.071-.1-.139-.29.192-.534-.152-.8-.227l-.059.063c-.094-.2-.273-.007-.384-.009a.164.164 0 0 0-.156-.075c-.285.126-.546-.016-.791.314l-.05-.07.619 1.154a4.924 4.924 0 0 0 .324 1.142c.056.01.128.141.167.215-.015.062-.015.062-.027.128l.247.45c-.056-.012-.07.049-.084.115.066.212.064.442.128.649.087.077-.014.123.081.221.009.009-.058.134-.045.141a.328.328 0 0 0 .027.23c.032.23.02.048.18.212-.148.177.1.465-.048.641.08.083.083-.034.109.031-.027.047-.027.047-.052.095s.024.066.077.087c.052.129-.042.206.027.331.052.013 0 .172.056.184.016.118.163.153.022.234-.051-.014-.022.221-.076.378a.967.967 0 0 1-.016.384c.053.012.09-.052.07 0l-.037.1c.053.011.048.107.027.158 0 .167-.109.252-.163.406-.061.337.115.61-.114.731.082.074-.019.163-.042.217-.076.035-.056.2-.124.24-.085.206-.126.194-.211.4-.138.081-.162.17-.3.25l-.043.1c-.02.052-.069.04-.116.03-.09.093-.405.237-.449.336l.027.064a2.249 2.249 0 0 0-.45.212c-.206.123-.359.124-.573.234-.188-.052-.348.085-.535.032-.073.039-.143.077-.215.11-.095-.026-.236.048-.306-.027-.093-.024-.074.149-.166.125l-.094-.027-.022-.062c-.144.075-.259-.015-.4.057l-.022-.06c-.143.073-.262-.009-.353.084a1.116 1.116 0 0 0-.592-.069c.019-.052-.028-.061-.076-.069l-.069.044c.021-.053-.4-.023-.45-.029l-.1-.018-.029-.062-.067.043c-.077-.068-.584-.12-.705-.251-.1.091-.189.051-.3.029a5.122 5.122 0 0 1-1.062-.241l-.033-.066a.423.423 0 0 1-.488-.132c-.056-.013-.131-.02-.186-.037-.059-.134-.417-.108-.461-.242a1.687 1.687 0 0 1-.256-.217c-.117.072-.411-.279-.465-.3l-.2-.007-.07-.211-.265-.2c-.102-.203-.213-.047-.245-.216z" transform="translate(-156.369 -206.856)"/>
                <path id="패스_8639" data-name="패스 8639" class="cls-4" d="M163.973 208.912c.074 0 .148.006.218.011.351.359 1.043.254 1.5.484.183-.132.382-.053.549-.114.056.072.056.072.11.145.4-.12.618.081 1 .054.095-.059.095-.059.189-.121.071.009.142.02.122.085l.093-.06.051.075.094-.057c-.023.066.049.077.122.081.185-.115.3.042.513-.135a.234.234 0 0 0 .192.1c.213-.178.289.008.549-.076l.045.08.095-.051-.042-.082c.025-.066.1-.049.166-.034.115.1.194.243.392.152l.04.081c.123-.087-.828-.129.655-.176l.19-.085a.223.223 0 0 0 .169.116c.189-.085.349-.11.539-.195.067.016.17.114.293.012l.037.076c.162-.021.388-.03.547-.051-.026.06-.107-.085-.045-.056.229-.115.476-.251.689-.082.253-.027.364-.155.619-.174.084.12.288-.116.409-.05s.123-.108.2.015l.021.086c.038-.051.038-.051.076-.107a.344.344 0 0 0 .289-.061c.059.034.118.07.156.015a2.822 2.822 0 0 1 .454-.1c.022.091.159-.042.123.013a.373.373 0 0 1 .309.027c.036-.054.076-.109.134-.074l.07.052c.067-.01.073-.021.151-.082.792-.071 1.233-.457 2.019-.457l.414-.187c.137-.062.262.106.288-.036-.056-.039.162-.094.2-.144.193-.021.312-.356.391-.463-.057-.038 0-.087-.013-.181l.095-.015a1.622 1.622 0 0 1 0-.525c-.017-.09-.154-.032-.117-.087l-.034-.064c-.056-.038.017-.134.056-.185-.037-.184-.2.023-.281-.107l.145-.214c-.067-.13-.359-.206-.472-.282-.078.109-.072.065-.208.134l-.045-.1c-.137.073-.217-.015-.254.037.056.035-.038.032-.076.083s-.078.109-.135.07a.271.271 0 0 0-.21-.058c-.039.056-.039.056-.077.106a3.082 3.082 0 0 1-1.333-.032c-.1.023-.1.023-.19.047.062.032-.049.1-.013.045.06.033-.174-.031-.209.026-.306 0-.979.066-.847-.012-.156-.007-.457.074-.577.012-.045.2-.261-.112-.326 0 .1-.026-.121-.039-.058-.01l.007.079c-.192.058-.2-.12-.393-.052-.065-.027-.092-.059-.061-.115-.064-.024-.108-.061-.138 0l.03.081c-.095.035-.256-.158-.381-.069-.065-.025-.126-.051-.192-.076a1.554 1.554 0 0 1-.682.136l-.043-.076c.066.014-.11.12-.085.058l-.135-.029a1.287 1.287 0 0 1-.731.074c.135.032-.271-.232-.246-.1-.341.132-.73-.066-1.091-.069-.022-.139-.174.09-.289 0 .023-.063.045-.126-.022-.139-.09.051-.157.029-.246.083-.067-.007-.138-.017-.117-.08-.07-.008-.139-.016-.159.044-.069-.008-.138-.018-.118-.079-.088.051-.179.121-.265.176-.068 0-.051-.069-.034-.132-.3.042-.465-.226-.778-.124.016-.06-.05-.067-.123-.074-.26.173-.63-.015-.871.107-.041-.128-.2-.066-.336-.067-.085.061-.14-.1-.208-.1a4.97 4.97 0 0 0-.943-.145c.134-.133-.968-.138-1.39-.214-.264-.143-.588-.009-.864-.084-.016.068-.031.138-.1.137-.2-.073-.325.132-.559.2-.031.137-.181.2-.14.32-.1.136-.117.159-.19.157-.062.275-.109.246-.179.518.073.007.146.009.128.076-.055.2.073.281.018.485.072 0 .148.007.128.076a.289.289 0 0 0 .076.28c-.019.068-.036.135-.109.133l.054.071-.09.063a.207.207 0 0 1 .02.207c.055.071.273.084.167.217a14.088 14.088 0 0 0 1.464.908z" transform="translate(-158.612 -205.078)"/>
            </g>
        </g>
        <g id="그룹_6844" data-name="그룹 6844" transform="translate(221.481 205.136)">
            <path id="패스_8640" data-name="패스 8640" class="cls-5" d="M281.007 219.962c.16-.2 3.969-5.13 3.969-5.13l-1.718-2.484a19.7 19.7 0 0 1-2.437.347c-.991 0-6.018-.17-6.018-.17l.421 2.187s5.026-.293 6.031-.364c-1.684 3.226-7.286 11.608-7.286 11.608l1.55.613s1.79-2.013 4.479-5.315a29.135 29.135 0 0 1 3.427 4.984l.095.2 1.841-2.751-.073-.073a41.368 41.368 0 0 0-4.281-3.652z" transform="translate(-273.97 -209.917)"/>
            <path id="패스_8641" data-name="패스 8641" class="cls-5" d="M292.374 217.254c-1.434-.074-3.146-.2-3.146-.2l.165 2.434s2.772-.5 3.033-.542c.167 3.683.185 10.855.185 10.855l2.16-1.066v-.073c.03-.677.678-18.5.678-18.5l-3.435-.657s.196 2.657.36 7.749z" transform="translate(-279.919 -208.81)"/>
            <path id="패스_8642" data-name="패스 8642" class="cls-5" d="m301.455 230.514 2.266-1.229.795-20.639-3.709-.283s.629 18.418.648 22.151z" transform="translate(-284.434 -208.362)"/>
            <path id="패스_8643" data-name="패스 8643" class="cls-5" d="m484.743 230.514 2.4-1.229.793-20.639-3.844-.283s.631 18.418.651 22.151z" transform="translate(-355.9 -208.362)"/>
            <path id="패스_8644" data-name="패스 8644" class="cls-5" d="m450.016 208.645-3.844-.283s.63 18.419.645 22.152l2.406-1.229.412-10.785c1.21.223 3.591.562 3.591.562.079-.75.179-2.316.179-2.316s-2.529.183-3.714.283z" transform="translate(-341.114 -208.362)"/>
            <path id="패스_8645" data-name="패스 8645" class="cls-5" d="M316.072 219.2s5.336-2.413 7.737-3.743c2.108 1.213 5.742 3.3 6.937 3.946l.112.06 1.287-2.564-6.449-2.46 4.862-2.505-2.388-2.108c-1.991.851-12.462.292-12.462.292l.187 1.794s7.507.037 8.11.042c-3.157 2.858-9.728 6.427-9.728 6.427z" transform="translate(-289.686 -208.932)"/>
            <path id="패스_8646" data-name="패스 8646" class="cls-5" d="m311.66 227.141.681 1.926s3.264-.126 7.957-.162c.469 4.955.558 6.368.584 8.905l3.045-1.393s.418-5.732.424-7.533l8.385-.025.2-1.792c-11.299.48-21.276.074-21.276.074z" transform="translate(-288.666 -215.655)"/>
            <path id="패스_8647" data-name="패스 8647" class="cls-5" d="m514.867 220.578-.041-2s-8.672.442-11.445.313c-.051-.453-.23-6.044-.2-6.713 5.618-.215 11.279.069 11.279.069l.187-2.048-15.051.084.3 10.361z" transform="translate(-361.944 -209.078)"/>
            <path id="패스_8648" data-name="패스 8648" class="cls-5" d="M506.893 234.242c0-.042.229-5.239.229-5.239l-3.881-.294s.275 4.266.4 5.551c-3.442 0-9.269-.209-9.269-.209l.215 2.118s11.519-.254 20.778-.12l.124-2.014s-3.812.155-8.596.207z" transform="translate(-359.909 -216.295)"/>
            <path id="패스_8649" data-name="패스 8649" class="cls-5" d="m398.711 219.777.522-9.556-3.208-.3.1 3.56c-1.069.044-3.321.021-4.107.009l-.085-2.983-3.305-.286.916 9.555s5.589-.176 9.167.001zm-6.65-4.583c1.345-.021 3.285.017 4.111.035l.074 2.877-4.1.059z" transform="translate(-318.675 -208.97)"/>
            <path id="패스_8650" data-name="패스 8650" class="cls-5" d="M410.544 211.874c-.957-.184-2.542-.476-2.944-.5l.088 2.256 2.9-.255.065 2.226c-1-.049-2.458.054-3.146-.042l-.046 1.941 3.234-.359c.029 1.09.063 2.279.1 3.622l2.291-.948c.106-.915.824-7.741 1.037-11.171l-3.709-.283c.054 1.196.093 2.328.13 3.513z" transform="translate(-326.02 -208.362)"/>
            <path id="패스_8651" data-name="패스 8651" class="cls-5" d="m399.1 236.43-.255-1.7c3.686.092 8.7-.107 8.7-.107l.531-4.725c-3.1.254-13.287.048-13.287.048l.425 1.848c1.654-.016 8.123-.076 9.5-.085l-.13 1.6c-1.975-.024-7.184-.143-9.472-.256l1.019 5.066c4.224-.073 12.3-.073 12.3-.073l.182-1.936a78.724 78.724 0 0 1-9.513.32z" transform="translate(-321.078 -216.759)"/>
            <path id="패스_8652" data-name="패스 8652" class="cls-5" d="m435.449 214.892-2.074-2.414a13.854 13.854 0 0 1-2.773.326c-2.388-.063-5.006-.144-6.529-.222l.492 2.319c3.8-.166 6.7-.424 6.7-.424-1.054 1.849-5.5 7.817-8.29 11.44l1.47.681c1.124-1.03 3.041-3.055 5-5.174a54.12 54.12 0 0 1 4.5 5.028l1.506-3c-1.341-1.034-3.507-2.428-4.856-3.277 1.99-2.162 3.87-4.24 4.854-5.283z" transform="translate(-332.071 -209.967)"/>
            <path id="패스_8653" data-name="패스 8653" class="cls-5" d="m471.894 211.518.075-1.6c-2.172 0-6.871-.322-8.065-.359l.309 2.112s5.348-.045 7.681-.153z" transform="translate(-348.028 -208.829)"/>
            <path id="패스_8654" data-name="패스 8654" class="cls-5" d="m472.239 217.607-2.078-2.15a12.593 12.593 0 0 1-2.975.289c-2.459-.062-4.552-.172-6.25-.184l.505 2.347c2.3-.162 6.382-.571 6.382-.571a117.393 117.393 0 0 1-7.78 9.949l1.553.689c1.309-1.135 3.088-2.832 4.816-4.521a58.832 58.832 0 0 1 4.424 4.537l1.578-2.879c-1.49-1.046-3.487-2.3-4.637-3.007 2.435-2.413 4.462-4.499 4.462-4.499z" transform="translate(-346.522 -211.128)"/>
            <path id="패스_8655" data-name="패스 8655" class="cls-5" d="m370.183 217.82-.079-1.893c-1.765.231-8.82.256-11.257.129l.017-1.585c3.412.012 7.114.06 11.135.238v-1.835c-3.339.143-6.22.26-11.121.092l.016-1.359c2.927.085 7.791.143 11.2.024l.051-1.793c-6.616.149-12.862.176-14.826-.13l.395 8c1.957.061 8.544-.047 14.469.112z" transform="translate(-305.689 -208.887)"/>
            <path id="패스_8656" data-name="패스 8656" class="cls-5" d="m355.019 232.507.308 1.762c5.872-.178 11.425-.046 11.425-.046s.265 4.448.228 5.709l2.763-1.334.713-6.128s-12.332.097-15.437.037z" transform="translate(-305.572 -217.762)"/>
            <path id="패스_8657" data-name="패스 8657" class="cls-5" d="m350.518 226.2.681 1.927c10.419-.406 20.124-.209 20.124-.209l.2-1.788c-11.297.47-21.005.07-21.005.07z" transform="translate(-303.817 -215.289)"/>
        </g>
    </g>
</svg>
