<svg xmlns="http://www.w3.org/2000/svg" width="222.011" height="57.939" viewBox="0 0 222.011 57.939">
  <defs>
    <style>
      .cls-1 {
        fill: #434139;
      }

      .cls-2 {
        fill: #9da0a2;
      }

      .cls-3 {
        fill: #ec4315;
      }

      .cls-4 {
        fill: #f8820a;
      }

      .cls-5 {
        fill: #8abb2a;
      }

      .cls-6 {
        fill: #547519;
      }

      .cls-7 {
        fill: #008dd5;
      }

      .cls-8 {
        fill: none;
        stroke: #00a1ed;
        stroke-miterlimit: 10;
        stroke-width: 0.25px;
      }
    </style>
  </defs>
  <g id="그룹_6746" data-name="그룹 6746" transform="translate(-120.486 -125.351)">
    <g id="그룹_6743" data-name="그룹 6743">
      <g id="그룹_6740" data-name="그룹 6740">
        <path id="패스_8018" data-name="패스 8018" class="cls-1" d="M154.654,178.51c-4.674,0-6.531-3.242-6.531-7.844,0-3.973,1.857-7.535,6.531-7.535h7.826v-.009c1.472,0,2.655-.035,3.568-1.637l1.459-2.742H153.4c-6.4,0-11.261,5.265-11.261,12.1,0,6.144,3.931,11.109,9.416,11.966a9.468,9.468,0,0,0,1.622.089h5.562c4.5,0,8.753-2.536,8.753-7.605,0-5.137-2.9-7.18-7.054-7.18H157.65v.007c-1.464,0-2.65.036-3.57,1.631l-1.452,2.747h6.083a2.716,2.716,0,0,1,3.038,2.9,2.893,2.893,0,0,1-3,3.118Z"/>
        <g id="그룹_6739" data-name="그룹 6739">
          <path id="패스_8019" data-name="패스 8019" class="cls-1" d="M127.436,172.518a.763.763,0,0,0-.9-.264.619.619,0,0,0-.4.546v10.01h-5.649V158.839h5.649V169l8.847-8.4a5.558,5.558,0,0,1,2.282-1.488,8.219,8.219,0,0,1,2.133-.279h3.777L131.656,169.5l11.013,13.309h-4.353c-2.772,0-3.853-1.588-5.31-3.388C132,178.192,127.8,172.974,127.436,172.518Z"/>
        </g>
        <path id="패스_8020" data-name="패스 8020" class="cls-1" d="M187.59,182.9v-.005c1.467,0,2.65-.039,3.572-1.64l1.457-2.74H182.533c-4.677,0-6.539-3.242-6.539-7.844,0-3.973,1.862-7.535,6.539-7.535h5.057v-.009c1.467,0,2.65-.035,3.572-1.637l1.457-2.742H181.275c-6.41,0-11.265,5.265-11.265,12.1,0,6.144,3.929,11.109,9.412,11.966a9.639,9.639,0,0,0,1.625.089Z"/>
      </g>
      <g id="그룹_6741" data-name="그룹 6741">
        <path id="패스_8021" data-name="패스 8021" class="cls-2" d="M319.627,148.765h-.013c-1.062,4.924-3.421,12.739-3.411,16.375.015,3.782.774,5.656,1.869,6.453a2.809,2.809,0,0,0,1.727.513c1.971-.006,3.56-1.456,3.544-6.989-.015-3.64-2.607-11.428-3.716-16.352"/>
        <path id="패스_8022" data-name="패스 8022" class="cls-2" d="M319.631,148.7c1.07-4.937,3.6-12.742,3.583-16.373-.019-5.542-1.616-6.977-3.592-6.974s-3.561,1.46-3.544,7c.016,3.635,2.438,11.423,3.544,16.344Z"/>
        <path id="패스_8023" data-name="패스 8023" class="cls-3" d="M321.7,153.811l-.01.008c2.043,4.6,4.734,12.312,6.877,15.254,2.232,3.046,3.944,4.115,5.307,4.115a2.864,2.864,0,0,0,1.695-.6c1.59-1.171,2.03-3.276-1.248-7.741-2.143-2.937-8.83-7.711-12.621-11.035"/>
        <path id="패스_8024" data-name="패스 8024" class="cls-4" d="M321.667,153.757c-2.036-4.617-4.574-12.423-6.725-15.362-3.275-4.46-5.424-4.685-7.01-3.519s-2.02,3.272,1.253,7.744c2.15,2.928,8.687,7.805,12.47,11.143Z"/>
        <path id="패스_8025" data-name="패스 8025" class="cls-5" d="M300.909,145.082l-.012.013c3.523,3.6,8.736,9.884,11.781,11.886,3.166,2.072,5.133,2.48,6.412,2a2.841,2.841,0,0,0,1.382-1.16c1.084-1.643.746-3.769-3.875-6.809-3.05-2-10.97-4.138-15.688-5.934"/>
        <path id="패스_8026" data-name="패스 8026" class="cls-6" d="M319.09,158.985a2.841,2.841,0,0,0,1.382-1.16c.878-1.344.817-3.014-1.765-5.241-.522,2.109-1.105,4.372-1.58,6.481A3.612,3.612,0,0,0,319.09,158.985Z"/>
        <path id="패스_8027" data-name="패스 8027" class="cls-7" d="M300.859,145.047c-3.529-3.617-8.641-10.044-11.682-12.036-4.625-3.037-6.705-2.495-7.8-.85-1.074,1.649-.741,3.777,3.888,6.823,3.042,1.986,10.869,4.271,15.583,6.066Z"/>
      </g>
      <g id="그룹_6742" data-name="그룹 6742">
        <path id="패스_8028" data-name="패스 8028" class="cls-1" d="M284.074,162.759v-4.19h-3.647v4.19c0,6.08-3.075,9.588-6.276,11.467l1.607,2.3a17.015,17.015,0,0,0,6.5-6.331,16.987,16.987,0,0,0,6.485,6.331l1.614-2.3C287.151,172.347,284.074,168.839,284.074,162.759Z"/>
        <path id="패스_8029" data-name="패스 8029" class="cls-1" d="M296.6,165.155v-6.341h-3.574V183.29H296.6V167.626l2.275,0c.684-.007,1.136-.161,1.38-.828l.607-1.641Z"/>
        <path id="패스_8030" data-name="패스 8030" class="cls-1" d="M260.814,171.582c-4.931,0-8.921,1.952-8.921,5.856s3.99,5.852,8.921,5.852,8.909-1.953,8.909-5.852S265.732,171.582,260.814,171.582Zm0,9.351c-2.912,0-5.261-1.344-5.261-3.495s2.349-3.5,5.261-3.5,5.258,1.343,5.258,3.5S263.718,180.933,260.81,180.933Z"/>
        <path id="패스_8031" data-name="패스 8031" class="cls-1" d="M204.288,179.332v-5.808h-3.552v6.746c0,.03-.01.055-.01.088a2.4,2.4,0,0,0,2.4,2.4l14.672-.005c.679,0,1.137-.161,1.378-.826l.606-1.639H205.2A.836.836,0,0,1,204.288,179.332Z"/>
        <rect id="사각형_2300" data-name="사각형 2300" class="cls-1" width="3.567" height="15.761" transform="translate(215.384 158.839)"/>
        <path id="패스_8032" data-name="패스 8032" class="cls-1" d="M229.853,165c1.992,3.528,6.4,6.055,6.4,6.055l1.443-2.513a10.926,10.926,0,0,1-6.068-8.642v-1.31h-3.579v1.31a10.88,10.88,0,0,1-6.041,8.642l1.443,2.513S227.859,168.529,229.853,165Z"/>
        <path id="패스_8033" data-name="패스 8033" class="cls-1" d="M244.122,158.839H240.55V171.02h3.572v-5.1h2.166a1.241,1.241,0,0,0,1.385-.83l.6-1.636h-4.15Z"/>
        <path id="패스_8034" data-name="패스 8034" class="cls-1" d="M211.406,164.926c0-4.3-2.968-6.851-7.007-6.851s-7,2.553-7,6.851,2.966,6.847,7,6.847S211.406,169.221,211.406,164.926Zm-10.314,0c0-2.822,1.6-4.567,3.307-4.567s3.31,1.745,3.31,4.567-1.59,4.565-3.31,4.565S201.092,167.747,201.092,164.926Z"/>
        <path id="패스_8035" data-name="패스 8035" class="cls-1" d="M226.3,172.774v7.494c0,.03-.011.053-.011.088a2.391,2.391,0,0,0,2.4,2.394h15.429v-9.976Zm4.462,7.511a.837.837,0,0,1-.914-.953v-4.091h9.783a.836.836,0,0,1,.914.953v4.091Z"/>
        <path id="패스_8036" data-name="패스 8036" class="cls-1" d="M269.651,158.839h-18.6l.607,1.64c.243.665.694.823,1.38.829H264.99a1,1,0,0,1,1.092,1.134v5.427h-5.717v-4.094H256.8v3.146a.832.832,0,0,1-.914.948h-6.821l.609,1.645c.24.67.691.825,1.385.825h21.2v-2.47h-2.6Z"/>
      </g>
    </g>
    <g id="그룹_6745" data-name="그룹 6745">
      <g id="그룹_6744" data-name="그룹 6744">
        <line id="선_83" data-name="선 83" class="cls-8" x2="0.5" transform="translate(120.486 182.751)"/>
        <line id="선_84" data-name="선 84" class="cls-8" x2="0.5" transform="translate(341.997 182.751)"/>
      </g>
    </g>
  </g>
</svg>
