<svg xmlns="http://www.w3.org/2000/svg" width="35.58" height="25.305" viewBox="0 0 35.58 25.305">
    <path d="M6.836-70.963v11.5h14.306v-12.88h-7.235a7.854 7.854 0 0 1 3.124-6.748 11.092 11.092 0 0 1 5.755-2.454v-3.221a20.088 20.088 0 0 0-10.606 3.3q-5.344 3.295-5.344 10.503zm19.63 0v11.5h14.016v-12.88h-7.088a7.837 7.837 0 0 1 3.142-6.748 11.249 11.249 0 0 1 5.88-2.454v-3.221a20.033 20.033 0 0 0-10.633 3.3q-5.317 3.295-5.317 10.503z" transform="translate(-6.836 84.766)" style="opacity:.07"/>
</svg>
