<svg xmlns="http://www.w3.org/2000/svg" width="26" height="26" viewBox="0 0 26 26">
    <path d="M20.833 24.583H4.167A1.668 1.668 0 0 1 2.5 22.917v-5a1.669 1.669 0 0 1 1.667-1.667h16.666a1.669 1.669 0 0 1 1.667 1.666v5a1.668 1.668 0 0 1-1.667 1.667zM4.167 17.916v5h16.666v-5zm14.166 3.334a.833.833 0 1 1 .833-.833.834.834 0 0 1-.833.833zm-2.5 0h-10v-1.667h10v1.666zM12.5 14.583l-5-5 1.175-1.174 2.992 2.983V4.25h1.667v7.142l2.992-2.983L17.5 9.583l-5 5z" transform="translate(.07 -1.5)" style="fill:#fff"/>
</svg>
