<svg xmlns="http://www.w3.org/2000/svg" width="24" height="24" viewBox="0 0 24 24">
    <g style="opacity:.8">
        <path d="m20.028 14.577-4.193 4.193-2.935-2.935 1.258-1.258 1.677 1.677 2.935-2.934 1.258 1.258m-8.72 2.432a3.439 3.439 0 0 1-.922.084 6.708 6.708 0 1 1 6.708-6.708 3.439 3.439 0 0 1-.084.922 5.059 5.059 0 0 1 1.593.5 8.261 8.261 0 0 0 .168-1.425 8.385 8.385 0 1 0-8.385 8.385 7.384 7.384 0 0 0 1.424-.168 4.451 4.451 0 0 1-.5-1.593m2.1-4.863-2.6-1.509V6.192H9.546v5.031l2.935 1.761a4.395 4.395 0 0 1 .919-.838z" transform="translate(.736 1.615)" style="fill:#fff"/>
    </g>
</svg>
