<svg xmlns="http://www.w3.org/2000/svg" width="26" height="26" viewBox="0 0 26 26">
    <path data-name="패스 2" d="M2.339 8.188a5.792 5.792 0 0 1 5.849-5.849 5.792 5.792 0 0 1 5.849 5.849 5.792 5.792 0 0 1-5.849 5.849 5.792 5.792 0 0 1-5.849-5.849zm14.388 10.177a1.158 1.158 0 0 0 1.638-1.638L14.739 13.1a8.009 8.009 0 0 0 1.638-4.913A8.138 8.138 0 0 0 8.188 0 8.138 8.138 0 0 0 0 8.188a8.138 8.138 0 0 0 8.188 8.188 8.009 8.009 0 0 0 4.912-1.637z" transform="translate(3.642 3.642)" style="fill:#fff"/>
</svg>
