<svg xmlns="http://www.w3.org/2000/svg" width="24" height="24" viewBox="0 0 24 24">
  <defs>
    <style>
      .cls-1 {
        opacity: 0.63;
      }

      .cls-2, .cls-3 {
        fill: #fff;
      }

      .cls-2 {
        opacity: 0;
      }
    </style>
  </defs>
  <g id="icon_tel" class="cls-1" transform="translate(423 -20)">
    <rect id="사각형_1108" data-name="사각형 1108" class="cls-2" width="24" height="24" transform="translate(-423 20)"/>
    <path id="phone-in-talk" class="cls-3" d="M13.479,10.859h1.747a4.366,4.366,0,0,0-4.366-4.366V8.24a2.62,2.62,0,0,1,2.62,2.62m3.493,0h1.747A7.843,7.843,0,0,0,10.859,3V4.747a6.114,6.114,0,0,1,6.113,6.113m.873,3.056a9.921,9.921,0,0,1-3.118-.5.876.876,0,0,0-.891.218l-1.921,1.921A13.183,13.183,0,0,1,6.161,9.8L8.082,7.882A.876.876,0,0,0,8.3,6.991a9.921,9.921,0,0,1-.5-3.118A.873.873,0,0,0,6.93,3H3.873A.873.873,0,0,0,3,3.873,14.845,14.845,0,0,0,17.845,18.719a.873.873,0,0,0,.873-.873V14.789A.873.873,0,0,0,17.845,13.916Z" transform="translate(-421.859 21.141)"/>
  </g>
</svg>
