<svg xmlns="http://www.w3.org/2000/svg" width="240.347" height="44.678" viewBox="0 0 240.347 44.678">
    <defs>
        <style>
            .cls-1{fill:#fff}
        </style>
    </defs>
    <g id="logo_ro" transform="translate(-297.651 -350.933)">
        <g id="그룹_6360" data-name="그룹 6360" transform="translate(347.449 361.322)">
            <g id="그룹_6359" data-name="그룹 6359">
                <g id="그룹_6351" data-name="그룹 6351" transform="translate(64.735)">
                    <g id="그룹_6350" data-name="그룹 6350">
                        <path id="패스_6044" data-name="패스 6044" class="cls-1" d="M530.6 369.458v3.622l-22.7 16.657h22.7a9.581 9.581 0 0 1-7.062 3.622h-21.654v-3.622l22.7-16.657h-22.7a10.267 10.267 0 0 1 7.147-3.622z" transform="translate(-501.884 -369.458)"/>
                    </g>
                </g>
                <g id="그룹_6352" data-name="그룹 6352" transform="translate(161.873)">
                    <path id="패스_6045" data-name="패스 6045" class="cls-1" d="M685.237 373.08h18.536v-3.622H685.13a10.033 10.033 0 0 0-10.03 10.033v3.728h25.055v.172a6.346 6.346 0 0 1-6.346 6.346H675.1v3.622h19.281a9.4 9.4 0 0 0 9.4-9.4V379.6h-25.062a6.518 6.518 0 0 1 6.518-6.52z" transform="translate(-675.097 -369.458)"/>
                </g>
                <g id="그룹_6354" data-name="그룹 6354" transform="translate(32.368)">
                    <g id="그룹_6353" data-name="그룹 6353">
                        <path id="패스_6046" data-name="패스 6046" class="cls-1" d="M444.167 378.614v14.744H464.7a8.149 8.149 0 0 0 8.149-8.149v-15.751h-19.526a9.156 9.156 0 0 0-9.156 9.156zm20.407 11.122h-16.785v-11.471a5.185 5.185 0 0 1 5.185-5.185h16.255v12a4.654 4.654 0 0 1-4.655 4.656z" transform="translate(-444.167 -369.458)"/>
                    </g>
                </g>
                <g id="그룹_6356" data-name="그룹 6356">
                    <g id="그룹_6355" data-name="그룹 6355">
                        <path id="패스_6047" data-name="패스 6047" class="cls-1" d="M415.134 372.273v-2.815h-18.877a9.807 9.807 0 0 0-9.807 9.807v14.094h3.622v-10.14h14.922a6.518 6.518 0 0 1 6.517 6.518v3.622h3.622v-2.815a10.932 10.932 0 0 0-4.923-9.135 10.931 10.931 0 0 0 4.924-9.136zm-10.139 7.327h-14.923a6.518 6.518 0 0 1 6.518-6.518h14.922a6.517 6.517 0 0 1-6.517 6.518z" transform="translate(-386.45 -369.458)"/>
                    </g>
                </g>
                <g id="그룹_6357" data-name="그룹 6357" transform="translate(97.134)">
                    <path id="패스_6048" data-name="패스 6048" class="cls-1" d="M569.8 373.08h18.54v-3.622h-18.718a9.965 9.965 0 0 0-9.965 9.965v13.935h21.392a9.811 9.811 0 0 0 7.291-3.622h-25.061v-6.517h25.061V379.6h-25.061a6.518 6.518 0 0 1 6.521-6.52z" transform="translate(-559.657 -369.458)"/>
                </g>
                <g id="그룹_6358" data-name="그룹 6358" transform="translate(129.501)">
                    <path id="패스_6049" data-name="패스 6049" class="cls-1" d="M642.435 369.458v14.165a6.571 6.571 0 0 1-2.009 4.742 5.877 5.877 0 0 1-3.919 1.371H621v-20.278h-3.618v23.9h19.133a9.247 9.247 0 0 0 6.945-3 9.661 9.661 0 0 0 2.606-6.681v-14.219z" transform="translate(-617.373 -369.458)"/>
                </g>
            </g>
        </g>
        <path id="패스_6050" data-name="패스 6050" class="cls-1" d="m337.611 373.221-11.7-21.873a.784.784 0 0 0-.692-.415h-13.732a.8.8 0 0 0-.692.4l-12.962 22.434a1.359 1.359 0 0 0 .041 1.427l6.92 10.514a.836.836 0 0 0 .7.377h14.656l4.964 8.986a1.046 1.046 0 0 0 1.844-.024l10.661-20.55a1.367 1.367 0 0 0-.008-1.276zm-15.493 7.74a.23.23 0 0 1-.374.133l-15.1-12.745a.193.193 0 0 1 .058-.329l18.763-6.862a.255.255 0 0 1 .338.286z"/>
    </g>
</svg>
