<svg xmlns="http://www.w3.org/2000/svg" width="273.863" height="39.752" viewBox="0 0 273.863 39.752">
    <defs>
        <style>
            .cls-1{fill:#fff}.cls-2{fill:#dfdfdf}
        </style>
    </defs>
    <g id="logo_mon">
        <g id="그룹_6340" data-name="그룹 6340" transform="translate(204.469 9.371)">
            <path id="패스_6010" data-name="패스 6010" class="cls-1" d="M201.576 280.724h3.19l4.635 9.569 4.674-9.569h3.3v15.626h-3.367v-8.818l-4.66 9.048-4.573-8.876v8.646h-3.2z" transform="translate(-201.576 -280.446)"/>
            <path id="패스_6011" data-name="패스 6011" class="cls-1" d="M225.677 280.45a7.552 7.552 0 0 1 5.125 2.012q2.161 1.965 2.211 6.032t-2.286 6.172a7.638 7.638 0 0 1-5.7 1.941 6.825 6.825 0 0 1-5.2-2.381 8.738 8.738 0 0 1-1.758-5.94 7.509 7.509 0 0 1 7.613-7.837zm-4.121 8.091a5.663 5.663 0 0 0 1.082 3.513 3.564 3.564 0 0 0 2.963 1.456 3.358 3.358 0 0 0 2.915-1.364 5.776 5.776 0 0 0 1.03-3.536 5.689 5.689 0 0 0-1.08-3.56 3.535 3.535 0 0 0-2.964-1.409 3.4 3.4 0 0 0-2.915 1.409 5.759 5.759 0 0 0-1.031 3.491z" transform="translate(-201.348 -280.45)"/>
            <path id="패스_6012" data-name="패스 6012" class="cls-1" d="M234.166 280.724h3.368l7.285 9.43v-9.43h3.368v15.626h-3.368l-7.285-10.263v10.263h-3.368z" transform="translate(-201.126 -280.446)"/>
        </g>
        <path id="패스_6013" data-name="패스 6013" class="cls-1" d="M195.6 304.06h-3.384a1.816 1.816 0 1 1 0-3.632h3.384a1.816 1.816 0 1 1 0 3.632z" transform="translate(2.739 -270.804)"/>
        <path id="패스_6014" data-name="패스 6014" class="cls-1" d="M255.063 304.444h-51.64a1.816 1.816 0 0 1 0-3.632h51.64a12.274 12.274 0 1 0 0-24.547 1.817 1.817 0 0 1 0-3.634 15.907 15.907 0 0 1 0 31.814z" transform="translate(2.894 -271.187)"/>
        <path id="패스_6015" data-name="패스 6015" class="cls-1" d="M246.976 276.264h-54.758a1.817 1.817 0 0 1 0-3.634h54.758a1.817 1.817 0 1 1 0 3.634z" transform="translate(2.739 -271.187)"/>
        <g id="그룹_6344" data-name="그룹 6344">
            <g id="그룹_6342" data-name="그룹 6342" transform="translate(81.064 3.963)">
                <path id="패스_6016" data-name="패스 6016" class="cls-1" d="M120.913 275.974a4.844 4.844 0 0 0-4.7 0 2.479 2.479 0 0 0-1.146 2.13v21.536a2.472 2.472 0 0 0 1.143 2.13 4.829 4.829 0 0 0 4.707 0 2.479 2.479 0 0 0 1.137-2.13V278.1a2.477 2.477 0 0 0-1.141-2.126z" transform="translate(-79.365 -275.112)"/>
                <path id="패스_6017" data-name="패스 6017" class="cls-1" d="M177.821 283.225a12.353 12.353 0 0 0-2.851-4.263 12.624 12.624 0 0 0-4.377-2.708 16.528 16.528 0 0 0-10.976 0 12.568 12.568 0 0 0-4.377 2.708 12.346 12.346 0 0 0-2.854 4.263 15.782 15.782 0 0 0 0 11.13 12.309 12.309 0 0 0 2.854 4.26 12.6 12.6 0 0 0 4.377 2.707 16.512 16.512 0 0 0 10.976 0 12.57 12.57 0 0 0 4.377-2.709 12.294 12.294 0 0 0 2.851-4.258 15.752 15.752 0 0 0 0-11.13zm-5.73 5.566a9.033 9.033 0 0 1-.539 3.2 7.172 7.172 0 0 1-1.483 2.394 6.423 6.423 0 0 1-2.212 1.511 7.4 7.4 0 0 1-5.507 0 6.552 6.552 0 0 1-2.21-1.511 7.137 7.137 0 0 1-1.48-2.394 9.778 9.778 0 0 1 0-6.4 7.093 7.093 0 0 1 1.477-2.4 6.527 6.527 0 0 1 2.211-1.509 7.361 7.361 0 0 1 5.506 0 6.491 6.491 0 0 1 2.212 1.509 7.172 7.172 0 0 1 1.483 2.4 9.034 9.034 0 0 1 .542 3.199z" transform="translate(-78.863 -275.113)"/>
                <g id="그룹_6341" data-name="그룹 6341">
                    <path id="패스_6018" data-name="패스 6018" class="cls-2" d="m94.511 276.023-.728.279a4.047 4.047 0 0 0-.969 1.779l-3.551 13.937-.035.129 2.332 10.063.716-.326a3.816 3.816 0 0 0 1.774-2.541l3.186-12.7z" transform="translate(-79.721 -275.103)"/>
                    <path id="패스_6019" data-name="패스 6019" class="cls-2" d="M112.9 276.783a3.567 3.567 0 0 0-2.3-1.483 4.356 4.356 0 0 0-2.608.109 2.96 2.96 0 0 0-1.8 2.22l-3.308 14.55 2.347 9.268.236.635.654-.3.243-.168a4.179 4.179 0 0 0 1.4-2.272l5.5-20.016a2.972 2.972 0 0 0-.364-2.543z" transform="translate(-79.533 -275.115)"/>
                    <path id="패스_6020" data-name="패스 6020" class="cls-1" d="m103.531 289.607-.007.016-2.97-11.58A3.835 3.835 0 0 0 99.195 276a4.714 4.714 0 0 0-5.133 0 2.709 2.709 0 0 0-.413.369l-.176.235 3.127 12.359h.005l2.646 10.448a4.159 4.159 0 0 0 4.349 3.089 4.739 4.739 0 0 0 2.61-.687l.358-.23z" transform="translate(-79.663 -275.114)"/>
                    <path id="패스_6021" data-name="패스 6021" class="cls-1" d="M87.142 277.551a2.975 2.975 0 0 0-1.822-2.163 4.723 4.723 0 0 0-2.66-.154 3.45 3.45 0 0 0-2.305 1.513 3.048 3.048 0 0 0-.368 2.58l5.55 20.074a4.39 4.39 0 0 0 1.542 2.3 4.582 4.582 0 0 0 2.8.8 5 5 0 0 0 2.464-.576l.39-.22z" transform="translate(-79.851 -275.116)"/>
                </g>
                <path id="패스_6022" data-name="패스 6022" class="cls-1" d="M146.081 286.23h-5.088a2.678 2.678 0 0 0-2.034.828 3.267 3.267 0 0 0 0 4.176 2.674 2.674 0 0 0 2.034.829h2.2v3.586a9.659 9.659 0 0 1-1.786.519 10.436 10.436 0 0 1-5.687-.281 6.6 6.6 0 0 1-2.3-1.518 7.119 7.119 0 0 1-1.539-2.395 8.481 8.481 0 0 1-.57-3.184 8.758 8.758 0 0 1 .554-3.2 7.119 7.119 0 0 1 1.512-2.394 6.485 6.485 0 0 1 2.269-1.514 9.629 9.629 0 0 1 5.821-.163 11.289 11.289 0 0 1 2.434.976 2.754 2.754 0 0 0 2.289.28 2.7 2.7 0 0 0 1.6-1.458 3.233 3.233 0 0 0 .317-2.044 2.963 2.963 0 0 0-1.548-1.974 13.675 13.675 0 0 0-3.728-1.49 18 18 0 0 0-4.243-.5 16.661 16.661 0 0 0-5.675.935 12.753 12.753 0 0 0-4.464 2.707 12.276 12.276 0 0 0-2.874 4.267 15.8 15.8 0 0 0 0 11.13 12.09 12.09 0 0 0 2.893 4.263 12.838 12.838 0 0 0 4.478 2.711 16.884 16.884 0 0 0 5.74.932 19.9 19.9 0 0 0 4.683-.564 18.376 18.376 0 0 0 4.128-1.5 4.326 4.326 0 0 0 1.752-1.573 4.462 4.462 0 0 0 .534-2.247v-6.449a3.37 3.37 0 0 0-3.702-3.691z" transform="translate(-79.234 -275.113)"/>
            </g>
            <g id="그룹_6343" data-name="그룹 6343">
                <path id="패스_6023" data-name="패스 6023" class="cls-1" d="M9.2 294.626a4.489 4.489 0 0 1-4.655 4.3 4.486 4.486 0 0 1-4.652-4.3v-11.509a4.486 4.486 0 0 1 4.652-4.3 4.489 4.489 0 0 1 4.655 4.3z" transform="translate(.11 -271.102)"/>
                <path id="패스_6024" data-name="패스 6024" class="cls-2" d="M21.383 297.536a4.489 4.489 0 0 1-4.656 4.3 4.488 4.488 0 0 1-4.654-4.3V275.5a4.486 4.486 0 0 1 4.654-4.292 4.488 4.488 0 0 1 4.656 4.292z" transform="translate(.278 -271.207)"/>
                <path id="패스_6025" data-name="패스 6025" class="cls-1" d="M33.566 306.573a4.488 4.488 0 0 1-4.654 4.3 4.491 4.491 0 0 1-4.656-4.3v-24.839a4.493 4.493 0 0 1 4.656-4.3 4.489 4.489 0 0 1 4.654 4.3z" transform="translate(.446 -271.121)"/>
                <path id="패스_6026" data-name="패스 6026" class="cls-2" d="M49.5 297.489a4.488 4.488 0 0 1-4.657 4.3 4.486 4.486 0 0 1-4.653-4.3v-18.526a4.484 4.484 0 0 1 4.653-4.293 4.485 4.485 0 0 1 4.657 4.293z" transform="translate(.666 -271.159)"/>
                <path id="패스_6027" data-name="패스 6027" class="cls-1" d="M61.685 293.219a4.486 4.486 0 0 1-4.658 4.3 4.484 4.484 0 0 1-4.655-4.3v-10.1a4.488 4.488 0 0 1 4.655-4.3 4.491 4.491 0 0 1 4.658 4.3z" transform="translate(.834 -271.102)"/>
            </g>
        </g>
    </g>
</svg>
