<svg xmlns="http://www.w3.org/2000/svg" width="176.128" height="47.84" viewBox="0 0 176.128 47.84">
    <defs>
        <style>
            .cls-1{fill:#00a3ff}.cls-2{fill:#003686}.cls-5{fill:#0052cb}
        </style>
    </defs>
    <g id="logo">
        <path id="패스_5900" data-name="패스 5900" class="cls-1" d="M313.154 283.378h-11.005a4.292 4.292 0 0 0-4.5 3.86c-.442 2.564.716 4.61 4.1 4.61h4.466a2.014 2.014 0 0 1-.048 4.026H296.7a.547.547 0 0 0-.527.414l-.2 1.214a.535.535 0 0 0 .541.6h11.13a4.292 4.292 0 0 0 4.5-3.86 3.834 3.834 0 0 0-.918-3.593 3.363 3.363 0 0 0-2.347-1.006H303.4a2.025 2.025 0 0 1-1.874-2.218 2.1 2.1 0 0 1 2.1-1.82h9.342a.547.547 0 0 0 .528-.414l.2-1.214a.535.535 0 0 0-.542-.599z" transform="translate(-211.71 -259.868)"/>
        <path id="선_33" data-name="선 33" class="cls-2" transform="translate(52.162 35.701)" d="M.294 0 0 1.877"/>
        <path id="패스_5901" data-name="패스 5901" class="cls-1" d="m400.579 297.654.178-1.093a.567.567 0 0 0-.49-.687H392.5a2.776 2.776 0 0 1-2.742-3.063l.134-.876a.58.58 0 0 1 .573-.48h10.058a1.394 1.394 0 0 0 1.282-1.329l.013-.26a6.28 6.28 0 0 0-6.152-6.488H395c-5.012 0-7.679 2.63-8.655 7.477a9.814 9.814 0 0 0-.161 1c-.654 4.139 2.4 6.244 5.47 6.244h8.378a.567.567 0 0 0 .547-.445zm-6.029-12.03h.748c3.722 0 4.018 3.111 4.018 3.111a.543.543 0 0 1-.543.5h-7.808a.547.547 0 0 1-.524-.626s.402-2.984 4.108-2.984z" transform="translate(-240.005 -259.867)"/>
        <path id="패스_5902" data-name="패스 5902" class="cls-1" d="M360.008 289.24c-.567-.005-2.271 0-2.271 0a.532.532 0 0 1-.517-.6l.253-1.513a1.411 1.411 0 0 0-1.412-1.522h-3.114a.573.573 0 0 0-.572.536l-1.875 11.493a.6.6 0 0 1-.545.477h-2.175a.553.553 0 0 1-.595-.617l2.239-13.675a.545.545 0 0 1 .532-.434h8.164a2.8 2.8 0 0 1 2.77 3.208l-.344 2.125s-.046.528-.538.522z" transform="translate(-227.787 -259.87)"/>
        <path id="패스_5903" data-name="패스 5903" class="cls-1" d="M422.679 289.24c-.567-.005-2.271 0-2.271 0a.532.532 0 0 1-.517-.6l.254-1.513a1.411 1.411 0 0 0-1.413-1.522h-3.113a.574.574 0 0 0-.573.536l-1.878 11.492a.6.6 0 0 1-.544.477h-2.173a.553.553 0 0 1-.595-.617l2.238-13.675a.546.546 0 0 1 .532-.434h8.164a2.8 2.8 0 0 1 2.77 3.208l-.345 2.125s-.042.529-.536.523z" transform="translate(-247.463 -259.87)"/>
        <path id="패스_5904" data-name="패스 5904" class="cls-1" d="M335.869 298.114h-10.5a3.239 3.239 0 0 1-3.4-3.706l1.708-10.538a.553.553 0 0 1 .6-.486h2.156a.56.56 0 0 1 .561.626l-1.424 8.715a2.755 2.755 0 0 0 2.855 3.145l4.786-.007a.559.559 0 0 0 .55-.414l1.881-11.479c.062-.641.585-.584.585-.584h2.242a.562.562 0 0 1 .495.639l-2.2 13.4a.966.966 0 0 1-.895.689z" transform="translate(-219.858 -259.869)"/>
        <path id="패스_5905" data-name="패스 5905" class="cls-1" d="m380.833 282.378.176-1.051a.566.566 0 0 0-.521-.716h-3.653a.554.554 0 0 1-.54-.61l.308-1.844a1.466 1.466 0 0 1 1.5-1.275h3.134a.58.58 0 0 0 .589-.515l.189-1.181a.537.537 0 0 0-.548-.609l-5.228-.006a2.771 2.771 0 0 0-2.767 2.326l-.534 3.292a.583.583 0 0 1-.527.424h-2.479a.559.559 0 0 0-.563.455c-.048.214-.185 1.123-.185 1.123a.559.559 0 0 0 .5.644h2.178a.551.551 0 0 1 .545.6l-1.852 11.287a.557.557 0 0 0 .53.619h2.265a.567.567 0 0 0 .521-.469l1.894-11.6a.568.568 0 0 1 .535-.437h4a.557.557 0 0 0 .533-.457z" transform="translate(-234.69 -257.102)"/>
        <g id="그룹_6206" data-name="그룹 6206" transform="translate(73.762)">
            <path id="패스_5907" data-name="패스 5907" d="m308.317 263.389-11.877-7.338 5.444-6.942 11.877 7.338z" transform="translate(-285.618 -249.108)" style="fill:#00448f"/>
            <path id="패스_5908" data-name="패스 5908" d="m310.809 263.389-6.433-14.28 11.877 7.338z" transform="translate(-288.109 -249.108)" style="fill:#006ec9"/>
            <path id="패스_5909" data-name="패스 5909" class="cls-1" d="m313.753 265.5 16.265-9.67-10.829 2.733z" transform="translate(-291.053 -251.218)"/>
            <path id="패스_5910" data-name="패스 5910" class="cls-5" d="m296.93 249.115-16.265 9.67 10.828-2.733z" transform="translate(-280.665 -249.11)"/>
        </g>
        <circle id="타원_82" data-name="타원 82" class="cls-2" cx="1.406" cy="1.406" r="1.406" transform="rotate(-.609 3100.31 -1978.282)"/>
        <path id="패스_5911" data-name="패스 5911" class="cls-5" d="M200.3 270.651a1.405 1.405 0 0 0-1.406-1.406l-9.31.014c-9.368 0-14.807 4.085-16.168 12.147a16.81 16.81 0 0 0-.268 2.732c0 6.31 4.187 9.507 12.451 9.507h9.532a1.506 1.506 0 0 0 1.622-1.277l.012-.009s.4-2.514.424-2.7a1.292 1.292 0 0 0-1.406-1.395h-8.4c-2.715 0-4.45-.31-5.16-.92a2.709 2.709 0 0 1-.8-2.165 7.539 7.539 0 0 1 .086-.981h15.226a1.353 1.353 0 0 0 .167.011 1.4 1.4 0 0 0 1.406-1.406c0-.018.413-2.49.413-2.63a1.406 1.406 0 0 0-1.406-1.406h-.055l-.01-.01h-14.782a4.733 4.733 0 0 1 2.786-3.613 13.858 13.858 0 0 1 4.54-.516h8.684a1.375 1.375 0 0 0 1.406-1.4c0-.018.393-2.291.383-2.3a1.412 1.412 0 0 0 .033-.277z" transform="translate(-173.145 -255.43)"/>
        <path id="패스_5912" data-name="패스 5912" class="cls-5" d="M282.484 270.651a1.405 1.405 0 0 0-1.406-1.406l-9.309.014c-9.368 0-14.807 4.085-16.168 12.147a16.813 16.813 0 0 0-.268 2.732c0 6.31 4.187 9.507 12.45 9.507h9.533a1.5 1.5 0 0 0 1.622-1.277l.012-.009s.4-2.514.424-2.7a1.292 1.292 0 0 0-1.406-1.395h-8.4c-2.715 0-4.449-.31-5.159-.92a2.709 2.709 0 0 1-.8-2.165 7.654 7.654 0 0 1 .086-.981h15.227a1.343 1.343 0 0 0 .167.011 1.4 1.4 0 0 0 1.406-1.406c0-.018.413-2.49.413-2.63a1.406 1.406 0 0 0-1.406-1.406h-.055l-.01-.01h-14.781a4.735 4.735 0 0 1 2.786-3.613 13.867 13.867 0 0 1 4.54-.516h8.684a1.376 1.376 0 0 0 1.406-1.4c0-.018.393-2.291.383-2.3a1.42 1.42 0 0 0 .029-.277z" transform="translate(-198.949 -255.43)"/>
        <path id="패스_5913" data-name="패스 5913" class="cls-5" d="M240.325 270.6a1.406 1.406 0 0 0-1.406-1.406h-4.9a1.42 1.42 0 0 0-1.4 1.274l-2.938 17.515h-6.02c-1.812 0-2.951-.25-3.395-.746a2.485 2.485 0 0 1-.425-1.646 6.252 6.252 0 0 1 .182-1.476c0-.014 2.265-13.293 2.276-13.506a1.382 1.382 0 0 0-1.406-1.406h-4.75a1.4 1.4 0 0 0-1.4 1.313l-2.332 14.226c-.509 3.449.5 5.777 1.593 6.793 1.44 1.338 4.19 2.017 8.182 2.017h6.544a.924.924 0 0 0-.025.171c-.385 2.273-1.985 4.214-4.434 4.214l-12.978-.006a1.406 1.406 0 0 0-1.349 1.013s-.469 2.772-.471 2.8a1.4 1.4 0 0 0 1.325 1.507h14.6c6.491 0 10.414-4.625 11.493-11.883l3.4-20.466a1.4 1.4 0 0 0 .034-.302z" transform="translate(-184.549 -255.414)"/>
    </g>
</svg>
