<svg id="logo_wigo_w" xmlns="http://www.w3.org/2000/svg" width="159.74" height="23.595" viewBox="0 0 159.74 23.595">
    <defs>
        <style>
            .cls-1{fill:#fff}.cls-2{fill:#eee}
        </style>
    </defs>
    <g id="그룹_6244" data-name="그룹 6244" transform="translate(120.427 5.563)">
        <path id="패스_5921" data-name="패스 5921" class="cls-1" d="M23.048 194.253h1.894l2.752 5.681 2.773-5.681h1.961v9.275h-2v-5.234l-2.767 5.371-2.712-5.265v5.131h-1.9z" transform="translate(-23.048 -194.089)"/>
        <path id="패스_5922" data-name="패스 5922" class="cls-1" d="M44.053 193.98a4.484 4.484 0 0 1 3.042 1.194 4.689 4.689 0 0 1 1.312 3.58 4.6 4.6 0 0 1-1.356 3.663 4.533 4.533 0 0 1-3.385 1.152 4.048 4.048 0 0 1-3.087-1.413 5.191 5.191 0 0 1-1.044-3.526 4.456 4.456 0 0 1 4.519-4.651zm-2.446 4.8a3.36 3.36 0 0 0 .641 2.085 2.117 2.117 0 0 0 1.76.865 2 2 0 0 0 1.73-.809 3.428 3.428 0 0 0 .611-2.1 3.375 3.375 0 0 0-.641-2.113 2.1 2.1 0 0 0-1.76-.837 2.017 2.017 0 0 0-1.73.837 3.42 3.42 0 0 0-.61 2.074z" transform="translate(-29.613 -193.98)"/>
        <path id="패스_5923" data-name="패스 5923" class="cls-1" d="M55.639 194.253h2l4.325 5.6v-5.6h2v9.275h-2l-4.325-6.092v6.092h-2z" transform="translate(-36.027 -194.089)"/>
    </g>
    <path id="패스_5924" data-name="패스 5924" class="cls-1" d="M14.961 216.114h-2.009a1.078 1.078 0 1 1 0-2.155h2.009a1.078 1.078 0 1 1 0 2.155z" transform="translate(99.953 -196.374)"/>
    <path id="패스_5925" data-name="패스 5925" class="cls-1" d="M54.809 205.043H24.157a1.078 1.078 0 0 1 0-2.155h30.652a7.285 7.285 0 1 0 0-14.571 1.078 1.078 0 0 1 0-2.157 9.442 9.442 0 1 1 0 18.883z" transform="translate(95.49 -185.303)"/>
    <path id="패스_5926" data-name="패스 5926" class="cls-1" d="M45.454 188.317h-32.5a1.078 1.078 0 1 1 0-2.157h32.5a1.078 1.078 0 1 1 0 2.157z" transform="translate(99.953 -185.303)"/>
    <g id="그룹_6248" data-name="그룹 6248">
        <g id="그룹_6246" data-name="그룹 6246" transform="translate(47.179 2.352)">
            <path id="패스_5927" data-name="패스 5927" class="cls-1" d="M-59.993 189.255a2.507 2.507 0 0 0-1.4-.363 2.493 2.493 0 0 0-1.394.361 1.47 1.47 0 0 0-.68 1.264V203.3a1.468 1.468 0 0 0 .679 1.264 2.5 2.5 0 0 0 1.395.363 2.515 2.515 0 0 0 1.4-.363 1.472 1.472 0 0 0 .675-1.264v-12.783a1.471 1.471 0 0 0-.675-1.262z" transform="translate(84.654 -188.743)"/>
            <path id="패스_5928" data-name="패스 5928" class="cls-1" d="M-11.456 193.54a7.345 7.345 0 0 0-1.693-2.531 7.511 7.511 0 0 0-2.6-1.607 9.306 9.306 0 0 0-3.251-.556 9.3 9.3 0 0 0-3.257.556 7.478 7.478 0 0 0-2.6 1.607 7.329 7.329 0 0 0-1.693 2.531 8.668 8.668 0 0 0-.6 3.3 8.689 8.689 0 0 0 .6 3.3 7.294 7.294 0 0 0 1.693 2.528 7.469 7.469 0 0 0 2.6 1.607 9.33 9.33 0 0 0 3.257.557 9.328 9.328 0 0 0 3.258-.557 7.461 7.461 0 0 0 2.6-1.608 7.307 7.307 0 0 0 1.693-2.527 8.676 8.676 0 0 0 .6-3.3 8.668 8.668 0 0 0-.607-3.3zm-3.4 3.3a5.353 5.353 0 0 1-.321 1.9 4.253 4.253 0 0 1-.88 1.42 3.8 3.8 0 0 1-1.314.9 4.391 4.391 0 0 1-3.269 0 3.865 3.865 0 0 1-1.311-.9 4.239 4.239 0 0 1-.879-1.42 5.367 5.367 0 0 1-.319-1.9 5.323 5.323 0 0 1 .321-1.9 4.226 4.226 0 0 1 .877-1.422 3.871 3.871 0 0 1 1.312-.9 4.233 4.233 0 0 1 1.639-.309 4.224 4.224 0 0 1 1.633.317 3.87 3.87 0 0 1 1.314.9 4.262 4.262 0 0 1 .88 1.422 5.352 5.352 0 0 1 .316 1.896z" transform="translate(70.194 -188.725)"/>
            <g id="그룹_6245" data-name="그룹 6245">
                <path id="패스_5929" data-name="패스 5929" class="cls-2" d="m-86.164 189.553-.432.165a2.4 2.4 0 0 0-.576 1.056l-2.108 8.272-.021.076 1.384 5.973.425-.193a2.266 2.266 0 0 0 1.053-1.508l1.891-7.536z" transform="translate(94.943 -189.007)"/>
                <path id="패스_5930" data-name="패스 5930" class="cls-2" d="M-69.7 189.651a2.118 2.118 0 0 0-1.367-.881 2.579 2.579 0 0 0-1.547.066 1.756 1.756 0 0 0-1.066 1.318l-1.964 8.636 1.393 5.5.14.377.389-.175.144-.1a2.481 2.481 0 0 0 .829-1.348l3.263-11.882a1.765 1.765 0 0 0-.214-1.511z" transform="translate(89.502 -188.66)"/>
                <path id="패스_5931" data-name="패스 5931" class="cls-1" d="M-79.085 197.3v.009l-1.764-6.873a2.276 2.276 0 0 0-.806-1.214 2.465 2.465 0 0 0-1.524-.45 2.459 2.459 0 0 0-1.522.451 1.582 1.582 0 0 0-.245.219l-.1.14 1.856 7.335 1.571 6.2a2.468 2.468 0 0 0 2.582 1.835 2.81 2.81 0 0 0 1.548-.407l.212-.137z" transform="translate(93.252 -188.695)"/>
                <path id="패스_5932" data-name="패스 5932" class="cls-1" d="M-94.349 190.09a1.765 1.765 0 0 0-1.081-1.284 2.8 2.8 0 0 0-1.579-.091 2.047 2.047 0 0 0-1.368.9 1.808 1.808 0 0 0-.219 1.531l3.294 11.915a2.61 2.61 0 0 0 .915 1.365 2.721 2.721 0 0 0 1.661.476 2.971 2.971 0 0 0 1.462-.341l.232-.131z" transform="translate(98.677 -188.645)"/>
            </g>
            <path id="패스_5933" data-name="패스 5933" class="cls-1" d="M-41.192 195.323h-3.02a1.587 1.587 0 0 0-1.207.492 1.749 1.749 0 0 0-.448 1.24 1.744 1.744 0 0 0 .448 1.238 1.588 1.588 0 0 0 1.207.493h1.312v2.128a5.684 5.684 0 0 1-1.06.308 6.191 6.191 0 0 1-3.376-.167 3.923 3.923 0 0 1-1.367-.9 4.23 4.23 0 0 1-.914-1.422 5.029 5.029 0 0 1-.338-1.889 5.19 5.19 0 0 1 .329-1.9 4.226 4.226 0 0 1 .9-1.421 3.867 3.867 0 0 1 1.347-.9 5.712 5.712 0 0 1 3.456-.1 6.713 6.713 0 0 1 1.445.579 1.63 1.63 0 0 0 1.359.166 1.6 1.6 0 0 0 .95-.865 1.922 1.922 0 0 0 .189-1.214 1.759 1.759 0 0 0-.919-1.171 8.081 8.081 0 0 0-2.213-.885 10.652 10.652 0 0 0-2.518-.295 9.886 9.886 0 0 0-3.368.554 7.57 7.57 0 0 0-2.65 1.607 7.282 7.282 0 0 0-1.705 2.533 8.714 8.714 0 0 0-.6 3.3 8.729 8.729 0 0 0 .6 3.3 7.172 7.172 0 0 0 1.717 2.53 7.62 7.62 0 0 0 2.657 1.61 10.021 10.021 0 0 0 3.407.553 11.852 11.852 0 0 0 2.78-.335 10.936 10.936 0 0 0 2.45-.891 2.575 2.575 0 0 0 1.039-.935 2.647 2.647 0 0 0 .317-1.333v-3.828a2 2 0 0 0-2.206-2.18z" transform="translate(80.87 -188.725)"/>
        </g>
        <g id="그룹_6247" data-name="그룹 6247">
            <path id="패스_5934" data-name="패스 5934" class="cls-1" d="M-173.113 201.732a2.665 2.665 0 0 1-2.764 2.55 2.663 2.663 0 0 1-2.761-2.55V194.9a2.663 2.663 0 0 1 2.761-2.55 2.665 2.665 0 0 1 2.764 2.55z" transform="translate(178.638 -187.769)"/>
            <path id="패스_5935" data-name="패스 5935" class="cls-2" d="M-160.929 200.365a2.665 2.665 0 0 1-2.764 2.55 2.663 2.663 0 0 1-2.763-2.55v-13.081a2.663 2.663 0 0 1 2.763-2.548 2.664 2.664 0 0 1 2.764 2.548z" transform="translate(173.787 -184.736)"/>
            <path id="패스_5936" data-name="패스 5936" class="cls-1" d="M-148.746 208.258a2.663 2.663 0 0 1-2.763 2.553 2.666 2.666 0 0 1-2.763-2.553v-14.743a2.667 2.667 0 0 1 2.763-2.553 2.665 2.665 0 0 1 2.763 2.553z" transform="translate(168.934 -187.215)"/>
            <path id="패스_5937" data-name="패스 5937" class="cls-1" d="M-132.813 201.744a2.663 2.663 0 0 1-2.764 2.55 2.663 2.663 0 0 1-2.763-2.55v-11a2.661 2.661 0 0 1 2.763-2.548 2.661 2.661 0 0 1 2.764 2.548z" transform="translate(162.589 -186.116)"/>
            <path id="패스_5938" data-name="패스 5938" class="cls-2" d="M-120.628 200.9a2.663 2.663 0 0 1-2.764 2.55 2.662 2.662 0 0 1-2.763-2.55v-6a2.664 2.664 0 0 1 2.763-2.55 2.665 2.665 0 0 1 2.764 2.55z" transform="translate(157.737 -187.769)"/>
        </g>
    </g>
</svg>
