<svg xmlns="http://www.w3.org/2000/svg" width="272.02" height="39.752" viewBox="0 0 272.02 39.752">
    <defs>
        <style>
            .cls-2{fill:#fff}.cls-3{fill:#dfdfdf}
        </style>
    </defs>
    <g id="logo_cr_w">
        <text id="CR" transform="translate(208.263 23.04)" style="font-size:20px;font-family:HittheRoad,Hit the Road;letter-spacing:-.05em;fill:#fff"><tspan x="0" y="0">CR</tspan></text>
        <path id="패스_6029" data-name="패스 6029" class="cls-2" d="M517.24 1022.908h-52.8a1.893 1.893 0 0 1-1.916-1.626 1.82 1.82 0 0 1 1.807-2.007h52.784a1.907 1.907 0 0 1 1.94 1.65 1.82 1.82 0 0 1-1.815 1.983z" transform="translate(-269.368 -1017.832)"/>
        <path id="패스_6030" data-name="패스 6030" class="cls-2" d="M467.711 1050.706h-3.384a1.816 1.816 0 1 1 0-3.633h3.384a1.816 1.816 0 1 1 0 3.633z" transform="translate(-269.368 -1017.448)"/>
        <path id="패스_6031" data-name="패스 6031" class="cls-2" d="M524.913 1051.089h-49.278a1.886 1.886 0 0 1-1.909-1.627 1.816 1.816 0 0 1 1.806-2.006h49.42a12.523 12.523 0 0 0 12.6-11.147 12.288 12.288 0 0 0-12.158-13.4 1.882 1.882 0 0 1-1.874-1.626 1.819 1.819 0 0 1 1.806-2.007 15.924 15.924 0 0 1 15.9 16.492 16.178 16.178 0 0 1-16.313 15.321z" transform="translate(-269.213 -1017.832)"/>
        <g id="그룹_6349" data-name="그룹 6349">
            <g id="그룹_6347" data-name="그룹 6347" transform="translate(81.065 3.962)">
                <path id="패스_6032" data-name="패스 6032" class="cls-2" d="M393.022 1022.618a4.844 4.844 0 0 0-4.705 0 2.478 2.478 0 0 0-1.145 2.13v21.536a2.473 2.473 0 0 0 1.143 2.13 4.829 4.829 0 0 0 4.707 0 2.48 2.48 0 0 0 1.137-2.13v-21.536a2.478 2.478 0 0 0-1.137-2.13z" transform="translate(-351.473 -1021.756)"/>
                <path id="패스_6033" data-name="패스 6033" class="cls-2" d="M449.93 1029.87a12.334 12.334 0 0 0-2.852-4.263 12.628 12.628 0 0 0-4.376-2.709 16.547 16.547 0 0 0-10.977 0 12.576 12.576 0 0 0-4.377 2.709 12.337 12.337 0 0 0-2.854 4.263 15.782 15.782 0 0 0 0 11.13 12.308 12.308 0 0 0 2.854 4.259 12.578 12.578 0 0 0 4.377 2.708 16.515 16.515 0 0 0 10.977 0 12.559 12.559 0 0 0 4.376-2.709 12.282 12.282 0 0 0 2.852-4.258 15.753 15.753 0 0 0 0-11.13zm-5.73 5.566a9.02 9.02 0 0 1-.54 3.2 7.14 7.14 0 0 1-1.482 2.393 6.4 6.4 0 0 1-2.212 1.51 7.387 7.387 0 0 1-5.507 0 6.522 6.522 0 0 1-2.21-1.51 7.124 7.124 0 0 1-1.48-2.393 9.781 9.781 0 0 1 0-6.4 7.109 7.109 0 0 1 1.477-2.4 6.545 6.545 0 0 1 2.211-1.509 7.377 7.377 0 0 1 5.506 0 6.511 6.511 0 0 1 2.212 1.509 7.163 7.163 0 0 1 1.482 2.4 9.017 9.017 0 0 1 .543 3.199z" transform="translate(-350.972 -1021.757)"/>
                <g id="그룹_6346" data-name="그룹 6346">
                    <path id="패스_6034" data-name="패스 6034" class="cls-3" d="m366.62 1022.668-.728.279a4.035 4.035 0 0 0-.969 1.779l-3.551 13.937-.035.128 2.332 10.063.716-.325a3.815 3.815 0 0 0 1.773-2.541l3.187-12.7z" transform="translate(-351.83 -1021.747)"/>
                    <path id="패스_6035" data-name="패스 6035" class="cls-3" d="M385.011 1023.428a3.567 3.567 0 0 0-2.3-1.484 4.352 4.352 0 0 0-2.607.111 2.957 2.957 0 0 0-1.8 2.22l-3.304 14.55 2.347 9.267.236.635.654-.3.243-.169a4.178 4.178 0 0 0 1.4-2.271l5.5-20.018a2.97 2.97 0 0 0-.369-2.541z" transform="translate(-351.641 -1021.759)"/>
                    <path id="패스_6036" data-name="패스 6036" class="cls-2" d="m375.64 1036.252-.007.015-2.971-11.579a3.828 3.828 0 0 0-1.358-2.045 4.716 4.716 0 0 0-5.133 0 2.709 2.709 0 0 0-.413.369l-.176.236 3.128 12.357h.005l2.646 10.448a4.158 4.158 0 0 0 4.349 3.092 4.739 4.739 0 0 0 2.61-.686l.358-.231z" transform="translate(-351.771 -1021.758)"/>
                    <path id="패스_6037" data-name="패스 6037" class="cls-2" d="M359.251 1024.2a2.977 2.977 0 0 0-1.822-2.165 4.722 4.722 0 0 0-2.66-.154 3.451 3.451 0 0 0-2.305 1.514 3.048 3.048 0 0 0-.368 2.58l5.55 20.074a4.4 4.4 0 0 0 1.542 2.3 4.582 4.582 0 0 0 2.8.8 5 5 0 0 0 2.464-.575l.39-.22z" transform="translate(-351.96 -1021.76)"/>
                </g>
                <path id="패스_6038" data-name="패스 6038" class="cls-2" d="M418.19 1032.875h-5.09a2.675 2.675 0 0 0-2.034.828 3.265 3.265 0 0 0 0 4.175 2.671 2.671 0 0 0 2.034.83h2.2v3.586a9.749 9.749 0 0 1-1.786.519 10.438 10.438 0 0 1-5.688-.282 6.618 6.618 0 0 1-2.3-1.517 7.113 7.113 0 0 1-1.539-2.4 8.472 8.472 0 0 1-.57-3.183 8.765 8.765 0 0 1 .553-3.2 7.139 7.139 0 0 1 1.512-2.394 6.5 6.5 0 0 1 2.269-1.513 9.621 9.621 0 0 1 5.821-.163 11.3 11.3 0 0 1 2.434.975 2.748 2.748 0 0 0 2.289.28 2.7 2.7 0 0 0 1.6-1.457 3.238 3.238 0 0 0 .317-2.045 2.962 2.962 0 0 0-1.548-1.973 13.635 13.635 0 0 0-3.728-1.49 17.957 17.957 0 0 0-4.243-.5 16.659 16.659 0 0 0-5.675.934 12.74 12.74 0 0 0-4.464 2.708 12.26 12.26 0 0 0-2.874 4.267 15.8 15.8 0 0 0 0 11.13 12.11 12.11 0 0 0 2.893 4.263 12.845 12.845 0 0 0 4.478 2.711 16.887 16.887 0 0 0 5.74.932 19.89 19.89 0 0 0 4.683-.564 18.407 18.407 0 0 0 4.128-1.5 4.334 4.334 0 0 0 1.752-1.574 4.46 4.46 0 0 0 .534-2.246v-6.449a3.369 3.369 0 0 0-3.698-3.688z" transform="translate(-351.342 -1021.757)"/>
            </g>
            <g id="그룹_6348" data-name="그룹 6348">
                <path id="패스_6039" data-name="패스 6039" class="cls-2" d="M281.307 1041.27a4.489 4.489 0 0 1-4.656 4.3 4.486 4.486 0 0 1-4.651-4.3v-11.508a4.486 4.486 0 0 1 4.651-4.3 4.489 4.489 0 0 1 4.656 4.3z" transform="translate(-271.999 -1017.747)"/>
                <path id="패스_6040" data-name="패스 6040" class="cls-3" d="M293.492 1044.182a4.489 4.489 0 0 1-4.657 4.3 4.487 4.487 0 0 1-4.653-4.3v-22.038a4.485 4.485 0 0 1 4.653-4.291 4.488 4.488 0 0 1 4.657 4.291z" transform="translate(-271.831 -1017.852)"/>
                <path id="패스_6041" data-name="패스 6041" class="cls-2" d="M305.675 1053.217a4.488 4.488 0 0 1-4.654 4.3 4.492 4.492 0 0 1-4.656-4.3v-24.838a4.493 4.493 0 0 1 4.656-4.3 4.49 4.49 0 0 1 4.654 4.3z" transform="translate(-271.662 -1017.766)"/>
                <path id="패스_6042" data-name="패스 6042" class="cls-3" d="M321.609 1044.134a4.487 4.487 0 0 1-4.657 4.3 4.485 4.485 0 0 1-4.653-4.3v-18.525a4.483 4.483 0 0 1 4.653-4.293 4.485 4.485 0 0 1 4.657 4.293z" transform="translate(-271.442 -1017.804)"/>
                <path id="패스_6043" data-name="패스 6043" class="cls-2" d="M333.794 1039.864a4.487 4.487 0 0 1-4.658 4.3 4.485 4.485 0 0 1-4.655-4.3v-10.1a4.488 4.488 0 0 1 4.655-4.3 4.49 4.49 0 0 1 4.658 4.3z" transform="translate(-271.274 -1017.747)"/>
            </g>
        </g>
    </g>
</svg>
