<svg xmlns="http://www.w3.org/2000/svg" width="127.639" height="34.67" viewBox="0 0 127.639 34.67">
    <defs>
        <style>
            .cls-2{fill:#fff}
        </style>
    </defs>
    <g id="logo" style="opacity:.28">
        <path id="패스_5900" data-name="패스 5900" class="cls-2" d="M308.425 283.378h-7.975a3.111 3.111 0 0 0-3.26 2.8c-.321 1.858.519 3.341 2.971 3.341h3.239a1.459 1.459 0 0 1-.035 2.918H296.5a.4.4 0 0 0-.382.3l-.142.88a.388.388 0 0 0 .392.434h8.066a3.11 3.11 0 0 0 3.26-2.8 2.778 2.778 0 0 0-.665-2.6 2.437 2.437 0 0 0-1.7-.729h-3.971a1.467 1.467 0 0 1-1.358-1.611 1.524 1.524 0 0 1 1.522-1.319h6.77a.4.4 0 0 0 .382-.3l.142-.88a.388.388 0 0 0-.391-.434z" transform="translate(-234.909 -266.34)"/>
        <path id="선_33" data-name="선 33" transform="translate(37.802 25.872)" style="fill:#003686" d="M.213 0 0 1.361"/>
        <path id="패스_5901" data-name="패스 5901" class="cls-2" d="m396.592 293.723.129-.792a.411.411 0 0 0-.355-.5h-5.629a2.012 2.012 0 0 1-1.987-2.22l.1-.635a.42.42 0 0 1 .415-.348h7.289a1.01 1.01 0 0 0 .929-.963l.009-.188a4.551 4.551 0 0 0-4.459-4.7h-.48c-3.632 0-5.565 1.906-6.272 5.419a7.056 7.056 0 0 0-.117.726c-.474 3 1.739 4.525 3.964 4.525h6.072a.411.411 0 0 0 .392-.324zm-4.37-8.718h.542a2.654 2.654 0 0 1 2.912 2.255.393.393 0 0 1-.394.36h-5.659a.4.4 0 0 1-.38-.454 2.719 2.719 0 0 1 2.979-2.16z" transform="translate(-280.225 -266.34)"/>
        <path id="패스_5902" data-name="패스 5902" class="cls-2" d="M356.477 287.628h-1.646a.386.386 0 0 1-.375-.436l.183-1.1a1.023 1.023 0 0 0-1.023-1.1h-2.256a.415.415 0 0 0-.415.389l-1.361 8.329a.432.432 0 0 1-.395.346h-1.574a.4.4 0 0 1-.431-.447l1.622-9.911a.4.4 0 0 1 .386-.314h5.916a2.027 2.027 0 0 1 2.007 2.325l-.25 1.54s-.03.383-.388.379z" transform="translate(-260.657 -266.344)"/>
        <path id="패스_5903" data-name="패스 5903" class="cls-2" d="M419.148 287.628h-1.646a.386.386 0 0 1-.375-.436l.184-1.1a1.023 1.023 0 0 0-1.024-1.1h-2.256a.416.416 0 0 0-.415.389l-1.361 8.329a.432.432 0 0 1-.394.346h-1.575a.4.4 0 0 1-.431-.447l1.622-9.911a.4.4 0 0 1 .386-.314h5.917a2.028 2.028 0 0 1 2.007 2.325l-.25 1.54s-.031.383-.389.379z" transform="translate(-292.17 -266.344)"/>
        <path id="패스_5904" data-name="패스 5904" class="cls-2" d="M332.032 294.059h-7.609a2.347 2.347 0 0 1-2.462-2.686l1.238-7.637a.4.4 0 0 1 .432-.352h1.563a.405.405 0 0 1 .406.453l-1.032 6.316a2 2 0 0 0 2.069 2.279h3.469a.405.405 0 0 0 .4-.3l1.363-8.319c.045-.464.424-.423.424-.423h1.625a.407.407 0 0 1 .358.463l-1.591 9.713a.7.7 0 0 1-.653.493z" transform="translate(-247.959 -266.343)"/>
        <path id="패스_5905" data-name="패스 5905" class="cls-2" d="m377.622 280.229.128-.762a.41.41 0 0 0-.377-.519h-2.647a.4.4 0 0 1-.391-.442l.223-1.336a1.062 1.062 0 0 1 1.084-.924h2.271a.42.42 0 0 0 .427-.373l.137-.856a.389.389 0 0 0-.4-.441h-3.789a2.008 2.008 0 0 0-2.006 1.685l-.387 2.386a.423.423 0 0 1-.382.307h-1.8a.405.405 0 0 0-.408.33c-.035.155-.134.814-.134.814a.405.405 0 0 0 .363.467h1.579a.4.4 0 0 1 .4.434l-1.342 8.18a.4.4 0 0 0 .384.449h1.645a.411.411 0 0 0 .377-.34l1.372-8.409a.412.412 0 0 1 .388-.317h2.9a.4.4 0 0 0 .385-.333z" transform="translate(-271.713 -261.911)"/>
        <g id="그룹_6206" data-name="그룹 6206" transform="translate(53.455)">
            <path id="패스_5907" data-name="패스 5907" class="cls-2" d="m305.048 259.457-8.607-5.318 3.945-5.031 8.607 5.318z" transform="translate(-288.597 -249.108)"/>
            <path id="패스_5908" data-name="패스 5908" class="cls-2" d="m309.038 259.457-4.662-10.349 8.607 5.318z" transform="translate(-292.588 -249.108)"/>
            <path id="패스_5909" data-name="패스 5909" class="cls-2" d="m313.753 262.836 11.787-7.008-7.847 1.98z" transform="translate(-297.303 -252.488)"/>
            <path id="패스_5910" data-name="패스 5910" class="cls-2" d="m292.452 249.115-11.787 7.008 7.847-1.98z" transform="translate(-280.665 -249.111)"/>
        </g>
        <circle id="타원_82" data-name="타원 82" class="cls-2" cx="1.019" cy="1.019" r="1.019" transform="rotate(-.609 2246.807 -1433.652)"/>
        <path id="패스_5911" data-name="패스 5911" class="cls-2" d="M192.821 270.264a1.018 1.018 0 0 0-1.019-1.019l-6.747.01c-6.789 0-10.73 2.96-11.717 8.8a12.182 12.182 0 0 0-.194 1.98c0 4.573 3.034 6.89 9.023 6.89h6.908a1.091 1.091 0 0 0 1.176-.926l.008-.007s.289-1.822.307-1.954a.936.936 0 0 0-1.019-1.011h-6.085c-1.968 0-3.225-.225-3.739-.667a1.964 1.964 0 0 1-.576-1.569 5.469 5.469 0 0 1 .063-.711h11.034a.986.986 0 0 0 .121.008 1.014 1.014 0 0 0 1.019-1.019c0-.013.3-1.8.3-1.906a1.019 1.019 0 0 0-1.019-1.019h-.04l-.007-.007H179.9a3.43 3.43 0 0 1 2.019-2.619 10.043 10.043 0 0 1 3.29-.374h6.291a1 1 0 0 0 1.019-1.011c0-.013.285-1.66.278-1.669a1.021 1.021 0 0 0 .024-.2z" transform="translate(-173.145 -259.234)"/>
        <path id="패스_5912" data-name="패스 5912" class="cls-2" d="M275.009 270.264a1.018 1.018 0 0 0-1.019-1.019l-6.747.01c-6.789 0-10.73 2.96-11.717 8.8a12.184 12.184 0 0 0-.194 1.98c0 4.573 3.034 6.89 9.023 6.89h6.909a1.09 1.09 0 0 0 1.175-.926l.009-.007s.288-1.822.307-1.954a.936.936 0 0 0-1.019-1.011h-6.086c-1.967 0-3.224-.225-3.739-.667a1.964 1.964 0 0 1-.576-1.569 5.546 5.546 0 0 1 .062-.711h11.035a.98.98 0 0 0 .121.008 1.014 1.014 0 0 0 1.019-1.019c0-.013.3-1.8.3-1.906a1.019 1.019 0 0 0-1.019-1.019h-.04l-.007-.007h-10.717a3.432 3.432 0 0 1 2.019-2.619 10.049 10.049 0 0 1 3.29-.374h6.293a1 1 0 0 0 1.019-1.011c0-.013.285-1.66.278-1.669a1.03 1.03 0 0 0 .021-.2z" transform="translate(-214.472 -259.234)"/>
        <path id="패스_5913" data-name="패스 5913" class="cls-2" d="M231.83 270.213a1.019 1.019 0 0 0-1.019-1.019h-3.552a1.029 1.029 0 0 0-1.014.923l-2.129 12.693h-4.363c-1.313 0-2.139-.181-2.46-.541a1.8 1.8 0 0 1-.308-1.193 4.529 4.529 0 0 1 .132-1.069c0-.01 1.642-9.633 1.65-9.788a1 1 0 0 0-1.019-1.019h-3.442a1.015 1.015 0 0 0-1.015.952l-1.69 10.309c-.369 2.5.36 4.187 1.154 4.923 1.044.969 3.037 1.462 5.929 1.462h4.742a.667.667 0 0 0-.018.124 3.361 3.361 0 0 1-3.213 3.054h-9.4a1.019 1.019 0 0 0-.977.734s-.34 2.009-.342 2.03a1.012 1.012 0 0 0 .96 1.092h10.58c4.7 0 7.547-3.351 8.329-8.612l2.463-14.832a1.015 1.015 0 0 0 .022-.223z" transform="translate(-191.41 -259.208)"/>
    </g>
</svg>
